M48
; DRILL file {KiCad 7.0.6} date Tue Jan 23 01:34:06 2024
; FORMAT={-:-/ absolute / metric / decimal}
; #@! TF.CreationDate,2024-01-23T01:34:06-08:00
; #@! TF.GenerationSoftware,Kicad,Pcbnew,7.0.6
; #@! TF.FileFunction,Plated,1,4,PTH
FMAT,2
METRIC
; #@! TA.AperFunction,Plated,PTH,ViaDrill
T1C0.200
; #@! TA.AperFunction,Plated,PTH,ViaDrill
T2C0.350
; #@! TA.AperFunction,Plated,PTH,ComponentDrill
T3C0.350
; #@! TA.AperFunction,Plated,PTH,ComponentDrill
T4C0.600
; #@! TA.AperFunction,Plated,PTH,ComponentDrill
T5C1.000
; #@! TA.AperFunction,Plated,PTH,ComponentDrill
T6C1.100
; #@! TA.AperFunction,Plated,PTH,ComponentDrill
T7C2.000
; #@! TA.AperFunction,Plated,PTH,ComponentDrill
T8C2.700
%
G90
G05
T1
X57.752Y-52.408
X57.752Y-53.424
X58.166Y-40.742
X60.02Y-40.716
X60.419Y-47.963
X63.086Y-52.408
X63.086Y-53.424
X63.373Y-56.515
X63.576Y-40.792
X63.721Y-33.892
X64.008Y-52.959
X64.737Y-50.249
X66.261Y-36.533
X66.294Y-54.737
X68.039Y-37.041
X68.293Y-46.058
X68.869Y-36.152
X69.944Y-61.679
X70.092Y-56.821
X70.198Y-59.012
X70.792Y-55.621
X70.833Y-57.996
X71.214Y-36.533
X71.618Y-50.953
X71.895Y-52.785
X71.895Y-53.488
X72.009Y-54.61
X72.103Y-48.217
X72.115Y-51.45
X72.484Y-39.454
X73.119Y-53.297
X73.119Y-60.536
X73.246Y-55.71
X73.354Y-47.443
X73.373Y-45.804
X73.373Y-48.979
X73.881Y-33.231
X75.278Y-51.392
X77.056Y-41.867
X77.374Y-57.933
X77.818Y-59.393
X77.945Y-41.486
X78.58Y-48.852
X78.58Y-59.647
X80.866Y-62.06
X80.993Y-60.917
X81.522Y-59.393
X81.534Y-43.688
X81.755Y-42.629
X81.788Y-40.132
X82.116Y-58.929
X83.025Y-41.486
X83.025Y-58.885
X83.66Y-47.582
X83.904Y-58.739
X84.041Y-61.425
X84.582Y-44.958
X84.582Y-46.736
X84.676Y-59.012
X85.311Y-59.52
X85.912Y-57.904
X85.946Y-58.885
X86.454Y-39.581
X86.962Y-56.599
X87.216Y-38.946
X87.724Y-55.202
X87.724Y-56.091
X88.105Y-53.297
X88.319Y-38.819
X89.629Y-43.264
X89.629Y-49.975
X89.817Y-61.035
X92.042Y-52.535
X92.042Y-53.805
X92.225Y-50.483
X92.583Y-43.053
X92.804Y-51.773
X93.98Y-44.196
X94.27Y-55.61
X94.455Y-49.702
X94.455Y-50.846
X95.243Y-59.241
X95.471Y-47.709
X95.471Y-49.614
X95.725Y-45.677
X95.725Y-54.567
X96.995Y-60.028
X98.171Y-57.15
X99.154Y-48.471
X99.535Y-53.805
X99.662Y-44.915
X100.043Y-47.709
X102.948Y-63.947
X103.345Y-63.076
X104.488Y-45.931
X104.52Y-51.927
X106.401Y-33.934
X106.934Y-42.926
X107.282Y-46.82
X109.335Y-34.6
X109.335Y-40.551
X110.965Y-48.344
X111.473Y-44.534
X111.506Y-45.593
X116.341Y-64.438
X116.967Y-64.957
X117.823Y-48.344
X118.364Y-44.399
X118.364Y-45.178
X120.65Y-35.052
X124.714Y-34.595
X129.007Y-35.052
X130.454Y-35.306
X134.816Y-38.718
X136.271Y-34.417
X136.271Y-37.973
X137.047Y-36.694
X137.047Y-37.474
X151.892Y-70.612
T2
X63.975Y-39.708
X65.278Y-68.834
X65.278Y-69.85
X65.278Y-70.866
X65.278Y-76.835
X65.278Y-77.851
X65.278Y-78.867
X65.278Y-79.883
X65.278Y-80.899
X66.04Y-71.501
X66.167Y-81.915
X67.056Y-71.501
X67.183Y-81.915
X68.072Y-71.501
X68.199Y-81.915
X69.088Y-71.501
X69.215Y-81.915
X69.639Y-33.679
X69.85Y-68.834
X69.85Y-69.85
X69.85Y-70.866
X69.85Y-76.835
X69.85Y-77.851
X69.85Y-78.867
X69.85Y-79.883
X69.85Y-80.899
X71.087Y-39.708
X76.898Y-66.384
X76.911Y-67.285
X76.911Y-68.199
X77.838Y-66.384
X77.851Y-67.285
X77.851Y-68.199
X82.507Y-64.668
X82.507Y-65.583
X82.507Y-66.497
X82.507Y-67.412
X82.507Y-68.326
X82.507Y-69.24
X90.086Y-66.912
X90.086Y-67.922
X91.026Y-77.681
X91.026Y-78.697
X91.948Y-70.612
X97.531Y-64.998
X107.213Y-64.795
X107.213Y-66.573
X107.213Y-70.002
X107.213Y-71.78
X108.102Y-65.684
X108.102Y-70.891
X108.991Y-64.795
X108.991Y-66.573
X108.991Y-70.002
X108.991Y-71.78
X109.093Y-84.011
X110.109Y-94.209
X110.109Y-95.225
X110.109Y-96.241
X110.109Y-97.257
X111.252Y-97.257
X111.938Y-64.846
X111.938Y-66.624
X112.192Y-69.926
X112.192Y-71.577
X112.395Y-97.257
X112.827Y-65.735
X113.081Y-70.815
X113.538Y-94.209
X113.538Y-95.225
X113.538Y-96.241
X113.538Y-97.257
X113.716Y-64.846
X113.716Y-66.624
X113.716Y-71.577
X113.792Y-53.086
X113.792Y-54.864
X113.792Y-58.039
X113.792Y-59.817
X113.792Y-61.595
X113.97Y-69.926
X114.605Y-65.735
X114.681Y-53.975
X114.681Y-58.928
X114.681Y-60.706
X115.494Y-64.846
X115.494Y-66.624
X115.57Y-53.086
X115.57Y-54.864
X115.57Y-58.039
X115.57Y-59.817
X115.57Y-61.595
X117.475Y-62.738
X117.475Y-70.358
X117.475Y-71.247
X117.729Y-65.786
X118.364Y-63.627
X118.364Y-70.358
X118.364Y-71.247
X118.745Y-58.039
X118.745Y-59.817
X118.999Y-53.086
X118.999Y-54.864
X119.253Y-69.469
X119.253Y-70.358
X119.253Y-71.247
X119.507Y-58.928
X119.888Y-53.975
X120.142Y-69.469
X120.142Y-70.358
X120.142Y-71.247
X120.65Y-67.564
X120.65Y-68.58
X120.777Y-53.086
X120.777Y-54.864
X120.904Y-66.421
X121.031Y-69.469
X121.031Y-70.358
X121.031Y-71.247
X121.412Y-64.77
X121.666Y-65.786
X121.92Y-69.469
X121.92Y-70.358
X121.92Y-71.247
X122.301Y-64.389
X124.414Y-51.79
X124.414Y-52.806
X124.414Y-53.822
X124.414Y-54.838
X124.46Y-66.675
X124.46Y-69.85
X124.96Y-72.13
X125.341Y-82.163
X125.349Y-66.294
X125.349Y-69.85
X125.43Y-54.838
X125.806Y-46.99
X125.984Y-73.152
X126.238Y-67.183
X126.238Y-68.961
X126.365Y-83.185
X126.39Y-48.108
X126.446Y-54.838
X126.975Y-46.99
X127.0Y-72.136
X127.127Y-66.294
X127.127Y-68.072
X127.127Y-69.85
X127.381Y-82.169
X127.559Y-48.108
X128.016Y-68.961
X128.016Y-73.152
X128.143Y-46.965
X128.397Y-83.185
X128.727Y-48.108
X128.905Y-67.818
X128.905Y-69.85
X129.024Y-72.13
X129.405Y-82.163
X129.794Y-67.818
X129.794Y-69.85
X130.048Y-73.152
X130.073Y-52.553
X130.429Y-83.185
X130.683Y-67.818
X130.683Y-69.85
X130.708Y-53.569
X131.064Y-72.136
X131.242Y-52.553
X131.445Y-82.169
X131.826Y-51.435
X131.877Y-53.569
X132.08Y-73.152
X132.41Y-52.553
X132.461Y-83.185
X134.206Y-60.917
X134.206Y-61.933
X134.833Y-87.756
X134.833Y-88.772
X134.833Y-89.788
X134.833Y-90.804
X135.222Y-60.917
X135.222Y-61.933
X135.857Y-87.762
X135.857Y-88.778
X135.857Y-89.794
X135.857Y-90.81
X136.238Y-60.917
X136.238Y-61.933
X136.873Y-87.762
X136.873Y-88.778
X136.873Y-89.794
X136.873Y-90.81
X137.254Y-60.917
X137.254Y-61.933
X137.795Y-56.896
X137.889Y-87.762
X137.889Y-88.778
X137.889Y-89.794
X137.889Y-90.81
X143.256Y-51.841
X143.256Y-52.873
X143.256Y-53.889
X143.256Y-54.905
X143.256Y-56.81
X143.256Y-57.826
X143.256Y-58.893
X143.256Y-59.944
X144.272Y-51.816
X144.272Y-52.848
X144.272Y-53.864
X144.272Y-54.88
X144.272Y-56.785
X144.272Y-57.801
X144.272Y-58.868
X144.272Y-59.919
X145.288Y-51.816
X145.288Y-52.848
X145.288Y-53.864
X145.288Y-54.88
X145.288Y-56.785
X145.288Y-57.801
X145.288Y-58.842
X145.288Y-59.893
X145.923Y-73.66
X145.923Y-74.676
X145.923Y-75.692
X145.923Y-76.708
X146.304Y-51.816
X146.304Y-52.848
X146.304Y-58.842
X146.304Y-59.893
X146.939Y-73.66
X146.939Y-74.676
X146.939Y-75.692
X146.939Y-76.708
X147.32Y-51.816
X147.32Y-52.848
X147.32Y-58.842
X147.32Y-59.893
X147.955Y-73.66
X147.955Y-74.676
X147.955Y-75.692
X147.955Y-76.708
X148.336Y-51.816
X148.336Y-52.848
X148.336Y-58.842
X148.336Y-59.893
X148.971Y-73.66
X148.971Y-74.676
X148.971Y-75.692
X148.971Y-76.708
X149.352Y-51.816
X149.352Y-52.848
X149.352Y-53.864
X149.352Y-54.88
X149.352Y-56.785
X149.352Y-57.801
X149.352Y-58.842
X149.352Y-59.893
X150.368Y-51.816
X150.368Y-52.848
X150.368Y-53.864
X150.368Y-54.88
X150.368Y-56.785
X150.368Y-57.801
X150.368Y-58.842
X150.368Y-59.893
T3
X35.362Y-63.94
X35.362Y-64.94
X35.362Y-65.94
X35.362Y-66.94
X35.362Y-67.94
X36.362Y-63.94
X36.362Y-64.94
X36.362Y-65.94
X36.362Y-66.94
X36.362Y-67.94
X37.362Y-63.94
X37.362Y-64.94
X37.362Y-65.94
X37.362Y-66.94
X37.362Y-67.94
X38.362Y-63.94
X38.362Y-64.94
X38.362Y-65.94
X38.362Y-66.94
X38.362Y-67.94
X45.862Y-63.94
X45.862Y-64.94
X45.862Y-65.94
X45.862Y-66.94
X45.862Y-67.94
X46.862Y-63.94
X46.862Y-64.94
X46.862Y-65.94
X46.862Y-66.94
X46.862Y-67.94
X47.862Y-63.94
X47.862Y-64.94
X47.862Y-65.94
X47.862Y-66.94
X47.862Y-67.94
X48.862Y-63.94
X48.862Y-64.94
X48.862Y-65.94
X48.862Y-66.94
X48.862Y-67.94
X81.025Y-51.519
X81.025Y-53.519
X82.025Y-52.519
X83.025Y-51.519
X83.025Y-53.519
X159.526Y-63.94
X159.526Y-64.94
X159.526Y-65.94
X159.526Y-66.94
X159.526Y-67.94
X160.526Y-63.94
X160.526Y-64.94
X160.526Y-65.94
X160.526Y-66.94
X160.526Y-67.94
X161.526Y-63.94
X161.526Y-64.94
X161.526Y-65.94
X161.526Y-66.94
X161.526Y-67.94
X162.526Y-63.94
X162.526Y-64.94
X162.526Y-65.94
X162.526Y-66.94
X162.526Y-67.94
X170.026Y-63.94
X170.026Y-64.94
X170.026Y-65.94
X170.026Y-66.94
X170.026Y-67.94
X171.026Y-63.94
X171.026Y-64.94
X171.026Y-65.94
X171.026Y-66.94
X171.026Y-67.94
X172.026Y-63.94
X172.026Y-64.94
X172.026Y-65.94
X172.026Y-66.94
X172.026Y-67.94
X173.026Y-63.94
X173.026Y-64.94
X173.026Y-65.94
X173.026Y-66.94
X173.026Y-67.94
T5
X80.098Y-34.844
X80.098Y-37.384
X82.638Y-34.844
X82.638Y-37.384
X85.178Y-34.844
X85.178Y-37.384
X87.718Y-34.844
X87.718Y-37.384
X90.258Y-34.844
X90.258Y-37.384
X92.798Y-34.844
X92.798Y-37.384
X95.338Y-34.844
X95.338Y-37.384
X97.878Y-34.844
X97.878Y-37.384
X100.418Y-34.844
X100.418Y-37.384
X102.958Y-34.844
X102.958Y-37.384
X113.077Y-36.726
X115.577Y-36.726
X118.077Y-36.726
T6
X126.492Y-94.234
X131.572Y-94.234
T7
X76.722Y-78.851
X82.172Y-78.851
X87.622Y-78.851
X94.512Y-78.87
X99.962Y-78.87
X105.412Y-78.87
T8
X60.292Y-35.517
X60.292Y-67.801
X60.292Y-76.551
X60.292Y-85.301
X147.922Y-35.517
X147.922Y-45.931
X147.922Y-63.5
X147.922Y-85.301
T4
X64.773Y-35.138G85X64.273Y-35.138
G05
X64.773Y-37.998G85X64.273Y-37.998
G05
X72.773Y-35.138G85X72.273Y-35.138
G05
X72.773Y-37.998G85X72.273Y-37.998
G05
T0
M30
