M48
; DRILL file {KiCad 7.0.6} date Fri Jan 26 23:20:03 2024
; FORMAT={-:-/ absolute / metric / decimal}
; #@! TF.CreationDate,2024-01-26T23:20:03-08:00
; #@! TF.GenerationSoftware,Kicad,Pcbnew,7.0.6
; #@! TF.FileFunction,Plated,1,4,PTH
FMAT,2
METRIC
; #@! TA.AperFunction,Plated,PTH,ViaDrill
T1C0.200
; #@! TA.AperFunction,Plated,PTH,ViaDrill
T2C0.300
; #@! TA.AperFunction,Plated,PTH,ViaDrill
T3C0.350
; #@! TA.AperFunction,Plated,PTH,ComponentDrill
T4C0.350
; #@! TA.AperFunction,Plated,PTH,ComponentDrill
T5C0.600
; #@! TA.AperFunction,Plated,PTH,ComponentDrill
T6C1.000
; #@! TA.AperFunction,Plated,PTH,ComponentDrill
T7C1.100
; #@! TA.AperFunction,Plated,PTH,ComponentDrill
T8C2.000
; #@! TA.AperFunction,Plated,PTH,ComponentDrill
T9C2.700
%
G90
G05
T1
X60.579Y-43.18
X61.341Y-56.794
X63.5Y-41.402
X63.5Y-43.307
X64.135Y-33.401
X64.618Y-52.222
X64.737Y-50.249
X66.261Y-36.533
X66.294Y-54.737
X66.675Y-41.91
X68.039Y-37.041
X68.293Y-46.058
X68.869Y-36.152
X69.944Y-61.679
X70.092Y-56.821
X70.198Y-59.012
X70.792Y-55.621
X70.833Y-57.996
X71.214Y-36.533
X71.618Y-50.953
X71.628Y-42.164
X71.895Y-52.785
X71.895Y-53.488
X72.009Y-54.61
X72.103Y-48.217
X72.115Y-51.45
X72.484Y-39.454
X73.119Y-53.297
X73.119Y-60.536
X73.246Y-55.71
X73.354Y-47.443
X73.373Y-45.804
X73.373Y-48.979
X73.881Y-33.231
X75.278Y-51.392
X77.056Y-41.867
X77.374Y-57.933
X77.818Y-59.393
X77.945Y-41.486
X78.58Y-48.852
X78.58Y-59.647
X78.588Y-48.184
X80.823Y-40.742
X80.866Y-62.06
X80.993Y-60.917
X81.522Y-59.393
X81.585Y-43.663
X82.116Y-58.929
X82.347Y-40.411
X83.025Y-42.342
X83.025Y-58.885
X83.66Y-47.582
X83.904Y-58.739
X84.041Y-61.425
X84.582Y-44.958
X84.582Y-46.736
X84.676Y-59.012
X84.709Y-42.164
X85.311Y-59.52
X85.522Y-46.203
X85.912Y-57.904
X85.946Y-58.885
X86.454Y-39.581
X86.962Y-56.599
X87.216Y-38.946
X87.724Y-55.202
X87.724Y-56.091
X88.105Y-53.297
X88.319Y-38.819
X89.629Y-49.975
X89.637Y-46.33
X89.817Y-61.035
X92.042Y-52.535
X92.042Y-53.805
X92.685Y-44.425
X93.955Y-45.923
X94.082Y-55.524
X94.183Y-54.61
X94.183Y-56.617
X94.455Y-49.702
X94.455Y-50.846
X95.243Y-59.241
X95.471Y-47.709
X95.471Y-49.614
X95.725Y-45.677
X95.91Y-54.407
X96.995Y-60.028
X98.171Y-57.15
X99.154Y-48.471
X99.535Y-53.805
X99.662Y-44.915
X100.043Y-47.709
X102.948Y-63.947
X103.345Y-63.076
X104.385Y-52.061
X104.488Y-45.931
X105.74Y-36.195
X106.934Y-42.926
X107.282Y-46.82
X108.89Y-34.874
X108.89Y-37.49
X111.049Y-34.874
X111.049Y-37.49
X111.473Y-44.534
X111.506Y-45.593
X111.989Y-47.066
X114.249Y-36.271
X116.205Y-34.29
X116.341Y-64.438
X116.738Y-65.278
X117.823Y-48.344
X118.364Y-44.399
X118.364Y-45.178
X119.177Y-34.468
X122.936Y-41.529
X123.469Y-34.925
X125.603Y-35.687
X129.032Y-34.544
X130.454Y-35.306
X132.385Y-48.514
X133.248Y-49.174
X134.747Y-38.608
X136.271Y-34.417
X136.398Y-38.608
X137.047Y-36.694
X137.047Y-37.474
X151.892Y-70.612
T2
X131.953Y-72.136
T3
X57.023Y-41.91
X57.658Y-42.926
X58.191Y-41.91
X58.776Y-40.792
X58.826Y-42.926
X59.36Y-41.91
X65.278Y-68.834
X65.278Y-69.85
X65.278Y-70.866
X65.278Y-76.835
X65.278Y-77.851
X65.278Y-78.867
X65.278Y-79.883
X65.278Y-80.899
X66.04Y-71.501
X66.167Y-81.915
X67.056Y-71.501
X67.183Y-81.915
X67.31Y-39.751
X68.072Y-71.501
X68.199Y-81.915
X69.088Y-71.501
X69.215Y-81.915
X69.639Y-33.679
X69.85Y-68.834
X69.85Y-69.85
X69.85Y-70.866
X69.85Y-76.835
X69.85Y-77.851
X69.85Y-78.867
X69.85Y-79.883
X69.85Y-80.899
X71.087Y-39.708
X73.787Y-77.216
X73.787Y-78.105
X73.787Y-78.994
X73.787Y-79.883
X73.787Y-80.772
X74.676Y-77.216
X74.676Y-78.105
X74.676Y-78.994
X74.676Y-79.883
X74.676Y-80.772
X76.898Y-66.384
X76.911Y-67.285
X76.911Y-68.199
X77.838Y-66.384
X77.851Y-67.285
X77.851Y-68.199
X82.423Y-64.668
X82.507Y-65.583
X82.507Y-66.497
X82.507Y-67.412
X82.507Y-68.326
X82.507Y-69.24
X90.086Y-66.912
X90.086Y-67.922
X90.17Y-76.962
X90.17Y-77.851
X90.17Y-78.74
X90.17Y-79.629
X90.17Y-80.518
X91.059Y-76.962
X91.059Y-77.851
X91.059Y-78.74
X91.059Y-79.629
X91.059Y-80.518
X97.531Y-64.998
X106.68Y-69.723
X106.68Y-70.612
X106.68Y-71.501
X107.569Y-69.723
X107.569Y-70.612
X107.569Y-71.501
X107.823Y-94.361
X107.823Y-95.377
X107.823Y-96.393
X107.823Y-97.409
X108.458Y-69.723
X108.458Y-70.612
X108.458Y-71.501
X108.966Y-97.409
X109.347Y-69.723
X109.347Y-70.612
X109.347Y-71.501
X110.109Y-97.409
X111.252Y-94.361
X111.252Y-95.377
X111.252Y-96.393
X111.252Y-97.409
X111.887Y-65.024
X111.887Y-66.802
X112.141Y-61.468
X112.776Y-65.913
X113.665Y-65.024
X113.665Y-66.802
X113.919Y-61.468
X114.554Y-65.913
X115.443Y-65.024
X115.443Y-66.802
X115.697Y-57.912
X115.697Y-61.468
X116.578Y-81.655
X116.586Y-58.801
X116.586Y-60.579
X117.475Y-59.69
X117.475Y-61.468
X117.475Y-62.738
X117.475Y-70.358
X117.475Y-71.247
X117.483Y-73.011
X117.729Y-65.786
X118.364Y-60.579
X118.364Y-63.627
X118.364Y-70.358
X118.364Y-71.247
X118.618Y-81.661
X119.253Y-69.469
X119.253Y-70.358
X119.253Y-71.247
X119.523Y-73.018
X120.142Y-69.469
X120.142Y-70.358
X120.142Y-71.247
X120.642Y-81.655
X120.65Y-67.564
X120.65Y-68.58
X120.904Y-66.421
X121.031Y-69.469
X121.031Y-70.358
X121.031Y-71.247
X121.412Y-64.77
X121.547Y-73.011
X121.666Y-65.786
X121.92Y-69.469
X121.92Y-70.358
X121.92Y-71.247
X122.301Y-64.389
X122.682Y-81.661
X123.587Y-73.018
X124.333Y-81.661
X124.409Y-49.606
X124.409Y-50.775
X124.414Y-51.79
X124.414Y-52.806
X124.414Y-53.822
X124.46Y-66.675
X124.46Y-69.85
X125.349Y-66.294
X125.349Y-69.85
X125.451Y-49.174
X125.595Y-73.019
X125.806Y-46.99
X126.238Y-67.183
X126.238Y-68.961
X126.39Y-48.108
X126.975Y-46.99
X127.127Y-68.072
X127.127Y-69.85
X127.559Y-48.108
X127.635Y-66.802
X127.635Y-73.025
X128.016Y-68.961
X128.143Y-46.965
X128.727Y-48.108
X128.905Y-67.818
X128.905Y-69.85
X129.659Y-73.019
X130.073Y-52.553
X130.683Y-67.818
X130.683Y-69.85
X130.708Y-53.569
X131.242Y-52.553
X131.826Y-51.435
X131.877Y-53.569
X132.207Y-67.818
X132.207Y-69.85
X132.41Y-52.553
X133.706Y-57.175
X134.206Y-60.917
X134.206Y-61.933
X134.833Y-88.386
X134.833Y-89.402
X134.833Y-90.418
X134.833Y-91.434
X135.222Y-60.917
X135.222Y-61.933
X135.857Y-88.392
X135.857Y-89.408
X135.857Y-90.424
X135.857Y-91.44
X136.238Y-60.917
X136.238Y-61.933
X136.873Y-88.392
X136.873Y-89.408
X136.873Y-90.424
X136.873Y-91.44
X137.254Y-60.917
X137.254Y-61.933
X137.889Y-88.392
X137.889Y-89.408
X137.889Y-90.424
X137.889Y-91.44
X143.637Y-51.825
X143.637Y-52.857
X143.637Y-53.873
X143.637Y-54.889
X143.637Y-56.794
X143.637Y-57.81
X143.637Y-58.877
X143.637Y-59.928
X144.653Y-51.8
X144.653Y-52.832
X144.653Y-53.848
X144.653Y-54.864
X144.653Y-56.769
X144.653Y-57.785
X144.653Y-58.852
X144.653Y-59.903
X145.669Y-51.8
X145.669Y-52.832
X145.669Y-53.848
X145.669Y-54.864
X145.669Y-56.769
X145.669Y-57.785
X145.669Y-58.826
X145.669Y-59.877
X145.923Y-72.263
X145.923Y-73.279
X145.923Y-74.295
X145.923Y-75.311
X146.685Y-51.8
X146.685Y-52.832
X146.685Y-58.826
X146.685Y-59.877
X146.939Y-72.263
X146.939Y-73.279
X146.939Y-74.295
X146.939Y-75.311
X147.701Y-51.8
X147.701Y-52.832
X147.701Y-58.826
X147.701Y-59.877
X147.955Y-72.263
X147.955Y-73.279
X147.955Y-74.295
X147.955Y-75.311
X148.717Y-51.8
X148.717Y-52.832
X148.717Y-58.826
X148.717Y-59.877
X148.971Y-72.263
X148.971Y-73.279
X148.971Y-74.295
X148.971Y-75.311
X149.733Y-51.8
X149.733Y-52.832
X149.733Y-53.848
X149.733Y-54.864
X149.733Y-56.769
X149.733Y-57.785
X149.733Y-58.826
X149.733Y-59.877
X150.749Y-51.8
X150.749Y-52.832
X150.749Y-53.848
X150.749Y-54.864
X150.749Y-56.769
X150.749Y-57.785
X150.749Y-58.826
X150.749Y-59.877
T4
X35.362Y-63.94
X35.362Y-64.94
X35.362Y-65.94
X35.362Y-66.94
X35.362Y-67.94
X36.362Y-63.94
X36.362Y-64.94
X36.362Y-65.94
X36.362Y-66.94
X36.362Y-67.94
X37.362Y-63.94
X37.362Y-64.94
X37.362Y-65.94
X37.362Y-66.94
X37.362Y-67.94
X38.362Y-63.94
X38.362Y-64.94
X38.362Y-65.94
X38.362Y-66.94
X38.362Y-67.94
X45.862Y-63.94
X45.862Y-64.94
X45.862Y-65.94
X45.862Y-66.94
X45.862Y-67.94
X46.862Y-63.94
X46.862Y-64.94
X46.862Y-65.94
X46.862Y-66.94
X46.862Y-67.94
X47.862Y-63.94
X47.862Y-64.94
X47.862Y-65.94
X47.862Y-66.94
X47.862Y-67.94
X48.862Y-63.94
X48.862Y-64.94
X48.862Y-65.94
X48.862Y-66.94
X48.862Y-67.94
X81.025Y-51.519
X81.025Y-53.519
X82.025Y-52.519
X83.025Y-51.519
X83.025Y-53.519
X159.526Y-63.94
X159.526Y-64.94
X159.526Y-65.94
X159.526Y-66.94
X159.526Y-67.94
X160.526Y-63.94
X160.526Y-64.94
X160.526Y-65.94
X160.526Y-66.94
X160.526Y-67.94
X161.526Y-63.94
X161.526Y-64.94
X161.526Y-65.94
X161.526Y-66.94
X161.526Y-67.94
X162.526Y-63.94
X162.526Y-64.94
X162.526Y-65.94
X162.526Y-66.94
X162.526Y-67.94
X170.026Y-63.94
X170.026Y-64.94
X170.026Y-65.94
X170.026Y-66.94
X170.026Y-67.94
X171.026Y-63.94
X171.026Y-64.94
X171.026Y-65.94
X171.026Y-66.94
X171.026Y-67.94
X172.026Y-63.94
X172.026Y-64.94
X172.026Y-65.94
X172.026Y-66.94
X172.026Y-67.94
X173.026Y-63.94
X173.026Y-64.94
X173.026Y-65.94
X173.026Y-66.94
X173.026Y-67.94
T6
X80.098Y-34.844
X80.098Y-37.384
X82.638Y-34.844
X82.638Y-37.384
X85.178Y-34.844
X85.178Y-37.384
X87.718Y-34.844
X87.718Y-37.384
X90.258Y-34.844
X90.258Y-37.384
X92.798Y-34.844
X92.798Y-37.384
X95.338Y-34.844
X95.338Y-37.384
X97.878Y-34.844
X97.878Y-37.384
X100.418Y-34.844
X100.418Y-37.384
X102.958Y-34.844
X102.958Y-37.384
X135.397Y-53.746
X137.897Y-53.746
X140.397Y-53.746
T7
X112.895Y-93.993
X117.975Y-93.993
X123.444Y-93.98
X128.524Y-93.98
T8
X76.722Y-78.851
X82.172Y-78.851
X87.622Y-78.851
X93.367Y-78.87
X98.817Y-78.87
X104.267Y-78.87
T9
X60.292Y-35.517
X60.292Y-50.757
X60.292Y-67.801
X60.292Y-76.551
X60.292Y-85.301
X147.922Y-35.517
X147.922Y-45.931
X147.922Y-63.5
X147.922Y-85.301
T5
X64.773Y-35.138G85X64.273Y-35.138
G05
X64.773Y-37.998G85X64.273Y-37.998
G05
X72.773Y-35.138G85X72.273Y-35.138
G05
X72.773Y-37.998G85X72.273Y-37.998
G05
T0
M30
