G04 #@! TF.GenerationSoftware,KiCad,Pcbnew,7.0.6*
G04 #@! TF.CreationDate,2024-01-23T01:34:04-08:00*
G04 #@! TF.ProjectId,POWER_BOARD,504f5745-525f-4424-9f41-52442e6b6963,rev?*
G04 #@! TF.SameCoordinates,Original*
G04 #@! TF.FileFunction,Other,User*
%FSLAX46Y46*%
G04 Gerber Fmt 4.6, Leading zero omitted, Abs format (unit mm)*
G04 Created by KiCad (PCBNEW 7.0.6) date 2024-01-23 01:34:04*
%MOMM*%
%LPD*%
G01*
G04 APERTURE LIST*
%ADD10C,0.050000*%
%ADD11C,0.152400*%
G04 APERTURE END LIST*
D10*
X91992000Y-65818000D02*
X94952000Y-65818000D01*
X91992000Y-67278000D02*
X91992000Y-65818000D01*
X94952000Y-65818000D02*
X94952000Y-67278000D01*
X94952000Y-67278000D02*
X91992000Y-67278000D01*
X76504293Y-61139418D02*
X73544293Y-61139418D01*
X76504293Y-59679418D02*
X76504293Y-61139418D01*
X73544293Y-61139418D02*
X73544293Y-59679418D01*
X73544293Y-59679418D02*
X76504293Y-59679418D01*
X70623293Y-32574294D02*
X73583293Y-32574294D01*
X70623293Y-34034294D02*
X70623293Y-32574294D01*
X73583293Y-32574294D02*
X73583293Y-34034294D01*
X73583293Y-34034294D02*
X70623293Y-34034294D01*
X100862293Y-75964418D02*
X97502293Y-75964418D01*
X100862293Y-74064418D02*
X100862293Y-75964418D01*
X97502293Y-75964418D02*
X97502293Y-74064418D01*
X97502293Y-74064418D02*
X100862293Y-74064418D01*
X64214000Y-78052000D02*
X64214000Y-68252000D01*
X70914000Y-78052000D02*
X64214000Y-78052000D01*
X64214000Y-68252000D02*
X70914000Y-68252000D01*
X70914000Y-68252000D02*
X70914000Y-78052000D01*
X91871293Y-42470418D02*
X88911293Y-42470418D01*
X91871293Y-41010418D02*
X91871293Y-42470418D01*
X88911293Y-42470418D02*
X88911293Y-41010418D01*
X88911293Y-41010418D02*
X91871293Y-41010418D01*
X128517400Y-34867400D02*
X128517400Y-37827400D01*
X127057400Y-34867400D02*
X128517400Y-34867400D01*
X128517400Y-37827400D02*
X127057400Y-37827400D01*
X127057400Y-37827400D02*
X127057400Y-34867400D01*
X72694293Y-49963418D02*
X69734293Y-49963418D01*
X72694293Y-48503418D02*
X72694293Y-49963418D01*
X69734293Y-49963418D02*
X69734293Y-48503418D01*
X69734293Y-48503418D02*
X72694293Y-48503418D01*
X70914000Y-78666000D02*
X70914000Y-88466000D01*
X64214000Y-78666000D02*
X70914000Y-78666000D01*
X70914000Y-88466000D02*
X64214000Y-88466000D01*
X64214000Y-88466000D02*
X64214000Y-78666000D01*
X76776829Y-49765145D02*
X73816829Y-49765145D01*
X76776829Y-48305145D02*
X76776829Y-49765145D01*
X73816829Y-49765145D02*
X73816829Y-48305145D01*
X73816829Y-48305145D02*
X76776829Y-48305145D01*
X88195000Y-71914000D02*
X91155000Y-71914000D01*
X88195000Y-73374000D02*
X88195000Y-71914000D01*
X91155000Y-71914000D02*
X91155000Y-73374000D01*
X91155000Y-73374000D02*
X88195000Y-73374000D01*
X153075975Y-62790018D02*
X178975975Y-62790018D01*
X153075975Y-69290018D02*
X153075975Y-62790018D01*
X178975975Y-62790018D02*
X178975975Y-69290018D01*
X178975975Y-69290018D02*
X153075975Y-69290018D01*
X64527293Y-48376418D02*
X67487293Y-48376418D01*
X64527293Y-49836418D02*
X64527293Y-48376418D01*
X67487293Y-48376418D02*
X67487293Y-49836418D01*
X67487293Y-49836418D02*
X64527293Y-49836418D01*
X150522293Y-85301418D02*
G75*
G03*
X150522293Y-85301418I-2600000J0D01*
G01*
X108249000Y-42131000D02*
X108249000Y-47531000D01*
X108249000Y-47531000D02*
X115649000Y-47531000D01*
X115649000Y-42131000D02*
X108249000Y-42131000D01*
X115649000Y-47531000D02*
X115649000Y-42131000D01*
X106425293Y-46395418D02*
X106425293Y-43435418D01*
X107885293Y-46395418D02*
X106425293Y-46395418D01*
X106425293Y-43435418D02*
X107885293Y-43435418D01*
X107885293Y-43435418D02*
X107885293Y-46395418D01*
D11*
X77625293Y-56919418D02*
X86425293Y-56919418D01*
X86425293Y-56919418D02*
X86425293Y-48119418D01*
X86425293Y-48119418D02*
X77625293Y-48119418D01*
X77625293Y-48119418D02*
X77625293Y-56919418D01*
D10*
X83832000Y-70547800D02*
X83832000Y-72047800D01*
X83832000Y-70547800D02*
X85332000Y-70547800D01*
X85332000Y-72047800D02*
X83832000Y-72047800D01*
X85332000Y-72047800D02*
X85332000Y-70547800D01*
X102214293Y-53182418D02*
X102214293Y-54682418D01*
X102214293Y-53182418D02*
X103714293Y-53182418D01*
X103714293Y-54682418D02*
X102214293Y-54682418D01*
X103714293Y-54682418D02*
X103714293Y-53182418D01*
X135306000Y-96661000D02*
X135306000Y-92061000D01*
X138506000Y-96661000D02*
X135306000Y-96661000D01*
X135306000Y-92061000D02*
X138506000Y-92061000D01*
X138506000Y-92061000D02*
X138506000Y-96661000D01*
X79404424Y-75840207D02*
X76004424Y-75840207D01*
X79404424Y-73880207D02*
X79404424Y-75840207D01*
X76004424Y-75840207D02*
X76004424Y-73880207D01*
X76004424Y-73880207D02*
X79404424Y-73880207D01*
X64294000Y-55455000D02*
X64294000Y-52495000D01*
X65754000Y-55455000D02*
X64294000Y-55455000D01*
X64294000Y-52495000D02*
X65754000Y-52495000D01*
X65754000Y-52495000D02*
X65754000Y-55455000D01*
X64561293Y-48236152D02*
X64561293Y-44386152D01*
X67961293Y-48236152D02*
X64561293Y-48236152D01*
X67961293Y-44386152D02*
X67961293Y-48236152D01*
X67961293Y-44386152D02*
X64561293Y-44386152D01*
X112790000Y-59341400D02*
X108190000Y-59341400D01*
X112790000Y-57041400D02*
X112790000Y-59341400D01*
X108190000Y-59341400D02*
X108190000Y-57041400D01*
X108190000Y-57041400D02*
X112790000Y-57041400D01*
X78298197Y-39183780D02*
X104748197Y-39183780D01*
X104748197Y-39183780D02*
X104748197Y-33033780D01*
X78298197Y-33033780D02*
X78298197Y-39183780D01*
X104748197Y-33033780D02*
X78298197Y-33033780D01*
X138933000Y-42956000D02*
X138933000Y-34006000D01*
X145033000Y-42956000D02*
X138933000Y-42956000D01*
X138933000Y-34006000D02*
X145033000Y-34006000D01*
X145033000Y-34006000D02*
X145033000Y-42956000D01*
X124492200Y-52151600D02*
X131692200Y-52151600D01*
X131692200Y-52151600D02*
X131692200Y-43351600D01*
X124492200Y-43351600D02*
X124492200Y-52151600D01*
X131692200Y-43351600D02*
X124492200Y-43351600D01*
X71182293Y-41022418D02*
X71182293Y-43982418D01*
X69722293Y-41022418D02*
X71182293Y-41022418D01*
X71182293Y-43982418D02*
X69722293Y-43982418D01*
X69722293Y-43982418D02*
X69722293Y-41022418D01*
X29412293Y-62790018D02*
X29412293Y-69290018D01*
X29412293Y-69290018D02*
X55312293Y-69290018D01*
X55312293Y-62790018D02*
X29412293Y-62790018D01*
X55312293Y-69290018D02*
X55312293Y-62790018D01*
X62892293Y-85301418D02*
G75*
G03*
X62892293Y-85301418I-2600000J0D01*
G01*
X100055293Y-53182418D02*
X100055293Y-54682418D01*
X100055293Y-53182418D02*
X101555293Y-53182418D01*
X101555293Y-54682418D02*
X100055293Y-54682418D01*
X101555293Y-54682418D02*
X101555293Y-53182418D01*
X119392000Y-46240000D02*
X119392000Y-47740000D01*
X119392000Y-46240000D02*
X120892000Y-46240000D01*
X120892000Y-47740000D02*
X119392000Y-47740000D01*
X120892000Y-47740000D02*
X120892000Y-46240000D01*
X150522293Y-45931418D02*
G75*
G03*
X150522293Y-45931418I-2600000J0D01*
G01*
X145997800Y-69112000D02*
X145997800Y-72112000D01*
X145997800Y-69112000D02*
X148997800Y-69112000D01*
X148997800Y-72112000D02*
X145997800Y-72112000D01*
X148997800Y-72112000D02*
X148997800Y-69112000D01*
X88657293Y-53075418D02*
X91617293Y-53075418D01*
X88657293Y-54535418D02*
X88657293Y-53075418D01*
X91617293Y-53075418D02*
X91617293Y-54535418D01*
X91617293Y-54535418D02*
X88657293Y-54535418D01*
X88225000Y-69954000D02*
X91185000Y-69954000D01*
X88225000Y-71414000D02*
X88225000Y-69954000D01*
X91185000Y-69954000D02*
X91185000Y-71414000D01*
X91185000Y-71414000D02*
X88225000Y-71414000D01*
X100817293Y-39593418D02*
X100817293Y-41093418D01*
X100817293Y-39593418D02*
X102317293Y-39593418D01*
X102317293Y-41093418D02*
X100817293Y-41093418D01*
X102317293Y-41093418D02*
X102317293Y-39593418D01*
X96546931Y-41533285D02*
X96546931Y-45533285D01*
X96546931Y-45533285D02*
X102946931Y-45533285D01*
X102946931Y-41533285D02*
X96546931Y-41533285D01*
X102946931Y-45533285D02*
X102946931Y-41533285D01*
X101579293Y-55214418D02*
X101579293Y-56714418D01*
X101579293Y-55214418D02*
X103079293Y-55214418D01*
X103079293Y-56714418D02*
X101579293Y-56714418D01*
X103079293Y-56714418D02*
X103079293Y-55214418D01*
X116692293Y-41371418D02*
X116692293Y-42871418D01*
X116692293Y-41371418D02*
X118192293Y-41371418D01*
X118192293Y-42871418D02*
X116692293Y-42871418D01*
X118192293Y-42871418D02*
X118192293Y-41371418D01*
X96221800Y-58909400D02*
X96221800Y-55949400D01*
X97681800Y-58909400D02*
X96221800Y-58909400D01*
X96221800Y-55949400D02*
X97681800Y-55949400D01*
X97681800Y-55949400D02*
X97681800Y-58909400D01*
X73468800Y-64629600D02*
X73468800Y-66129600D01*
X73468800Y-64629600D02*
X74968800Y-64629600D01*
X74968800Y-66129600D02*
X73468800Y-66129600D01*
X74968800Y-66129600D02*
X74968800Y-64629600D01*
X108161824Y-105150315D02*
X108161824Y-76370315D01*
X108161824Y-76370315D02*
X91761824Y-76370315D01*
X91761824Y-105150315D02*
X108161824Y-105150315D01*
X91761824Y-76370315D02*
X91761824Y-105150315D01*
X110377293Y-33076327D02*
X110377293Y-39326327D01*
X110377293Y-39326327D02*
X120777293Y-39326327D01*
X120777293Y-33076327D02*
X110377293Y-33076327D01*
X120777293Y-39326327D02*
X120777293Y-33076327D01*
X126790200Y-34842000D02*
X126790200Y-37802000D01*
X125330200Y-34842000D02*
X126790200Y-34842000D01*
X126790200Y-37802000D02*
X125330200Y-37802000D01*
X125330200Y-37802000D02*
X125330200Y-34842000D01*
X119392000Y-41922000D02*
X119392000Y-43422000D01*
X119392000Y-41922000D02*
X120892000Y-41922000D01*
X120892000Y-43422000D02*
X119392000Y-43422000D01*
X120892000Y-43422000D02*
X120892000Y-41922000D01*
X111327293Y-47614418D02*
X114287293Y-47614418D01*
X111327293Y-49074418D02*
X111327293Y-47614418D01*
X114287293Y-47614418D02*
X114287293Y-49074418D01*
X114287293Y-49074418D02*
X111327293Y-49074418D01*
X132979200Y-35073800D02*
X132979200Y-38433800D01*
X131079200Y-35073800D02*
X132979200Y-35073800D01*
X132979200Y-38433800D02*
X131079200Y-38433800D01*
X131079200Y-38433800D02*
X131079200Y-35073800D01*
X76961293Y-47792418D02*
X76961293Y-44832418D01*
X78421293Y-47792418D02*
X76961293Y-47792418D01*
X76961293Y-44832418D02*
X78421293Y-44832418D01*
X78421293Y-44832418D02*
X78421293Y-47792418D01*
X130059293Y-61203418D02*
X133019293Y-61203418D01*
X130059293Y-62663418D02*
X130059293Y-61203418D01*
X133019293Y-61203418D02*
X133019293Y-62663418D01*
X133019293Y-62663418D02*
X130059293Y-62663418D01*
X131723000Y-43331000D02*
X131723000Y-46331000D01*
X131723000Y-43331000D02*
X134723000Y-43331000D01*
X134723000Y-46331000D02*
X131723000Y-46331000D01*
X134723000Y-46331000D02*
X134723000Y-43331000D01*
X149892000Y-76918000D02*
X149892000Y-73958000D01*
X151352000Y-76918000D02*
X149892000Y-76918000D01*
X149892000Y-73958000D02*
X151352000Y-73958000D01*
X151352000Y-73958000D02*
X151352000Y-76918000D01*
X148567000Y-77473000D02*
X148567000Y-82033000D01*
X146327000Y-77473000D02*
X148567000Y-77473000D01*
X148567000Y-82033000D02*
X146327000Y-82033000D01*
X146327000Y-82033000D02*
X146327000Y-77473000D01*
X94330340Y-54215687D02*
X94330340Y-51255687D01*
X95790340Y-54215687D02*
X94330340Y-54215687D01*
X94330340Y-51255687D02*
X95790340Y-51255687D01*
X95790340Y-51255687D02*
X95790340Y-54215687D01*
X88657293Y-51297418D02*
X91617293Y-51297418D01*
X88657293Y-52757418D02*
X88657293Y-51297418D01*
X91617293Y-51297418D02*
X91617293Y-52757418D01*
X91617293Y-52757418D02*
X88657293Y-52757418D01*
X96449848Y-42358224D02*
X96449848Y-45318224D01*
X94989848Y-42358224D02*
X96449848Y-42358224D01*
X96449848Y-45318224D02*
X94989848Y-45318224D01*
X94989848Y-45318224D02*
X94989848Y-42358224D01*
D11*
X56892593Y-47138117D02*
X58044393Y-47138117D01*
X56892593Y-51836719D02*
X56892593Y-47138117D01*
X56892593Y-51836719D02*
X58044393Y-51836719D01*
X58044393Y-46985518D02*
X63048193Y-46985518D01*
X58044393Y-47138117D02*
X58044393Y-46985518D01*
X58044393Y-51989318D02*
X58044393Y-51836719D01*
X63048193Y-46985518D02*
X63048193Y-47138117D01*
X63048193Y-51836719D02*
X63048193Y-51989318D01*
X63048193Y-51989318D02*
X58044393Y-51989318D01*
X64199993Y-47138117D02*
X63048193Y-47138117D01*
X64199993Y-47138117D02*
X64199993Y-51836719D01*
X64199993Y-51836719D02*
X63048193Y-51836719D01*
D10*
X107357390Y-34599418D02*
X107357390Y-37959418D01*
X105457390Y-34599418D02*
X107357390Y-34599418D01*
X107357390Y-37959418D02*
X105457390Y-37959418D01*
X105457390Y-37959418D02*
X105457390Y-34599418D01*
X116930000Y-66838000D02*
X120330000Y-66838000D01*
X116930000Y-68798000D02*
X116930000Y-66838000D01*
X120330000Y-66838000D02*
X120330000Y-68798000D01*
X120330000Y-68798000D02*
X116930000Y-68798000D01*
X101833293Y-59786418D02*
X101833293Y-61286418D01*
X101833293Y-59786418D02*
X103333293Y-59786418D01*
X103333293Y-61286418D02*
X101833293Y-61286418D01*
X103333293Y-61286418D02*
X103333293Y-59786418D01*
X149892000Y-70314000D02*
X149892000Y-67354000D01*
X151352000Y-70314000D02*
X149892000Y-70314000D01*
X149892000Y-67354000D02*
X151352000Y-67354000D01*
X151352000Y-67354000D02*
X151352000Y-70314000D01*
X73663293Y-40056418D02*
X73663293Y-32756418D01*
X78163293Y-40056418D02*
X73663293Y-40056418D01*
X73663293Y-32756418D02*
X78163293Y-32756418D01*
X78163293Y-32756418D02*
X78163293Y-40056418D01*
X109535400Y-96918800D02*
X109535400Y-89618800D01*
X114035400Y-96918800D02*
X109535400Y-96918800D01*
X109535400Y-89618800D02*
X114035400Y-89618800D01*
X114035400Y-89618800D02*
X114035400Y-96918800D01*
X66229292Y-41022418D02*
X66229292Y-43982418D01*
X64769292Y-41022418D02*
X66229292Y-41022418D01*
X66229292Y-43982418D02*
X64769292Y-43982418D01*
X64769292Y-43982418D02*
X64769292Y-41022418D01*
X70644200Y-53104800D02*
X67684200Y-53104800D01*
X70644200Y-51644800D02*
X70644200Y-53104800D01*
X67684200Y-53104800D02*
X67684200Y-51644800D01*
X67684200Y-51644800D02*
X70644200Y-51644800D01*
X67763567Y-34054657D02*
X64803567Y-34054657D01*
X67763567Y-32594657D02*
X67763567Y-34054657D01*
X64803567Y-34054657D02*
X64803567Y-32594657D01*
X64803567Y-32594657D02*
X67763567Y-32594657D01*
X121029693Y-66952000D02*
X125589693Y-66952000D01*
X121029693Y-69192000D02*
X121029693Y-66952000D01*
X125589693Y-66952000D02*
X125589693Y-69192000D01*
X125589693Y-69192000D02*
X121029693Y-69192000D01*
X159692293Y-74111418D02*
X159692293Y-71151418D01*
X161152293Y-74111418D02*
X159692293Y-74111418D01*
X159692293Y-71151418D02*
X161152293Y-71151418D01*
X161152293Y-71151418D02*
X161152293Y-74111418D01*
X132231000Y-52856000D02*
X132231000Y-55856000D01*
X132231000Y-52856000D02*
X135231000Y-52856000D01*
X135231000Y-55856000D02*
X132231000Y-55856000D01*
X135231000Y-55856000D02*
X135231000Y-52856000D01*
X57461400Y-44253600D02*
X57461400Y-41293600D01*
X58921400Y-44253600D02*
X57461400Y-44253600D01*
X57461400Y-41293600D02*
X58921400Y-41293600D01*
X58921400Y-41293600D02*
X58921400Y-44253600D01*
X75996293Y-53011418D02*
X73036293Y-53011418D01*
X75996293Y-51551418D02*
X75996293Y-53011418D01*
X73036293Y-53011418D02*
X73036293Y-51551418D01*
X73036293Y-51551418D02*
X75996293Y-51551418D01*
X98785293Y-59786418D02*
X98785293Y-61286418D01*
X98785293Y-59786418D02*
X100285293Y-59786418D01*
X100285293Y-61286418D02*
X98785293Y-61286418D01*
X100285293Y-61286418D02*
X100285293Y-59786418D01*
X62892293Y-67801418D02*
G75*
G03*
X62892293Y-67801418I-2600000J0D01*
G01*
X93015944Y-61215017D02*
X93015944Y-57215017D01*
X93015944Y-57215017D02*
X86615944Y-57215017D01*
X86615944Y-61215017D02*
X93015944Y-61215017D01*
X86615944Y-57215017D02*
X86615944Y-61215017D01*
D11*
X140182600Y-62746699D02*
X140182600Y-70087299D01*
X132740400Y-62746699D02*
X140182600Y-62746699D01*
X132740400Y-63428498D02*
X132740400Y-62746699D01*
X128549400Y-63428498D02*
X132740400Y-63428498D01*
X131038600Y-64825498D02*
X128549400Y-64825498D01*
X128549400Y-64825498D02*
X128549400Y-63428498D01*
X131038600Y-68008500D02*
X131038600Y-64825498D01*
X128549400Y-68008500D02*
X131038600Y-68008500D01*
X132740400Y-69405500D02*
X128549400Y-69405500D01*
X128549400Y-69405500D02*
X128549400Y-68008500D01*
X140182600Y-70087299D02*
X132740400Y-70087299D01*
X132740400Y-70087299D02*
X132740400Y-69405500D01*
D10*
X93865000Y-68846000D02*
X93865000Y-70346000D01*
X93865000Y-68846000D02*
X95365000Y-68846000D01*
X95365000Y-70346000D02*
X93865000Y-70346000D01*
X95365000Y-70346000D02*
X95365000Y-68846000D01*
X150522293Y-35517418D02*
G75*
G03*
X150522293Y-35517418I-2600000J0D01*
G01*
D11*
X64199993Y-58694719D02*
X63048193Y-58694719D01*
X64199993Y-53996117D02*
X64199993Y-58694719D01*
X64199993Y-53996117D02*
X63048193Y-53996117D01*
X63048193Y-58847318D02*
X58044393Y-58847318D01*
X63048193Y-58694719D02*
X63048193Y-58847318D01*
X63048193Y-53843518D02*
X63048193Y-53996117D01*
X58044393Y-58847318D02*
X58044393Y-58694719D01*
X58044393Y-53996117D02*
X58044393Y-53843518D01*
X58044393Y-53843518D02*
X63048193Y-53843518D01*
X56892593Y-58694719D02*
X58044393Y-58694719D01*
X56892593Y-58694719D02*
X56892593Y-53996117D01*
X56892593Y-53996117D02*
X58044393Y-53996117D01*
D10*
X71873293Y-61195418D02*
X71873293Y-64195418D01*
X71873293Y-61195418D02*
X74873293Y-61195418D01*
X74873293Y-64195418D02*
X71873293Y-64195418D01*
X74873293Y-64195418D02*
X74873293Y-61195418D01*
X131358200Y-54053000D02*
X131358200Y-57453000D01*
X129398200Y-54053000D02*
X131358200Y-54053000D01*
X131358200Y-57453000D02*
X129398200Y-57453000D01*
X129398200Y-57453000D02*
X129398200Y-54053000D01*
X95292293Y-67271418D02*
X95292293Y-64311418D01*
X96752293Y-67271418D02*
X95292293Y-67271418D01*
X95292293Y-64311418D02*
X96752293Y-64311418D01*
X96752293Y-64311418D02*
X96752293Y-67271418D01*
X121964000Y-61500000D02*
X124924000Y-61500000D01*
X121964000Y-62960000D02*
X121964000Y-61500000D01*
X124924000Y-61500000D02*
X124924000Y-62960000D01*
X124924000Y-62960000D02*
X121964000Y-62960000D01*
X104631206Y-42341861D02*
X104631206Y-45301861D01*
X103171206Y-42341861D02*
X104631206Y-42341861D01*
X104631206Y-45301861D02*
X103171206Y-45301861D01*
X103171206Y-45301861D02*
X103171206Y-42341861D01*
X153945800Y-71109800D02*
X157305800Y-71109800D01*
X153945800Y-73009800D02*
X153945800Y-71109800D01*
X157305800Y-71109800D02*
X157305800Y-73009800D01*
X157305800Y-73009800D02*
X153945800Y-73009800D01*
X86277000Y-68231000D02*
X89237000Y-68231000D01*
X86277000Y-69691000D02*
X86277000Y-68231000D01*
X89237000Y-68231000D02*
X89237000Y-69691000D01*
X89237000Y-69691000D02*
X86277000Y-69691000D01*
X83501293Y-59437418D02*
X83501293Y-62397418D01*
X82041293Y-59437418D02*
X83501293Y-59437418D01*
X83501293Y-62397418D02*
X82041293Y-62397418D01*
X82041293Y-62397418D02*
X82041293Y-59437418D01*
X112790000Y-63964200D02*
X108190000Y-63964200D01*
X112790000Y-61664200D02*
X112790000Y-63964200D01*
X108190000Y-63964200D02*
X108190000Y-61664200D01*
X108190000Y-61664200D02*
X112790000Y-61664200D01*
X86292293Y-66707000D02*
X89252293Y-66707000D01*
X86292293Y-68167000D02*
X86292293Y-66707000D01*
X89252293Y-66707000D02*
X89252293Y-68167000D01*
X89252293Y-68167000D02*
X86292293Y-68167000D01*
X78349335Y-64071418D02*
X78349335Y-69471418D01*
X78349335Y-69471418D02*
X85749335Y-69471418D01*
X85749335Y-64071418D02*
X78349335Y-64071418D01*
X85749335Y-69471418D02*
X85749335Y-64071418D01*
X64306200Y-41217100D02*
X64306200Y-44177100D01*
X62846200Y-41217100D02*
X64306200Y-41217100D01*
X64306200Y-44177100D02*
X62846200Y-44177100D01*
X62846200Y-44177100D02*
X62846200Y-41217100D01*
X130059293Y-59679418D02*
X133019293Y-59679418D01*
X130059293Y-61139418D02*
X130059293Y-59679418D01*
X133019293Y-59679418D02*
X133019293Y-61139418D01*
X133019293Y-61139418D02*
X130059293Y-61139418D01*
X92539000Y-57118000D02*
X89579000Y-57118000D01*
X92539000Y-55658000D02*
X92539000Y-57118000D01*
X89579000Y-57118000D02*
X89579000Y-55658000D01*
X89579000Y-55658000D02*
X92539000Y-55658000D01*
X150522293Y-63500000D02*
G75*
G03*
X150522293Y-63500000I-2600000J0D01*
G01*
X103895591Y-52799313D02*
X103895591Y-45799313D01*
X103895591Y-45799313D02*
X96195591Y-45799313D01*
X96195591Y-52799313D02*
X103895591Y-52799313D01*
X96195591Y-45799313D02*
X96195591Y-52799313D01*
D11*
X142001991Y-89494996D02*
X136649295Y-89494996D01*
X142001991Y-72825000D02*
X142001991Y-89494996D01*
X142001991Y-72825000D02*
X136649295Y-72825000D01*
X136649295Y-91700998D02*
X115135495Y-91700998D01*
X136649295Y-89494996D02*
X136649295Y-91700998D01*
X136649295Y-72825000D02*
X136649295Y-70618998D01*
X115135495Y-89494996D02*
X115135495Y-91700998D01*
X115135495Y-72825000D02*
X115135495Y-70618998D01*
X115135495Y-70618998D02*
X136649295Y-70618998D01*
X109782799Y-89494996D02*
X115135495Y-89494996D01*
X109782799Y-72825000D02*
X115135495Y-72825000D01*
X109782799Y-72825000D02*
X109782799Y-89494996D01*
D10*
X109213400Y-34969000D02*
X109213400Y-37929000D01*
X107753400Y-34969000D02*
X109213400Y-34969000D01*
X109213400Y-37929000D02*
X107753400Y-37929000D01*
X107753400Y-37929000D02*
X107753400Y-34969000D01*
X89752697Y-62824802D02*
X86792697Y-62824802D01*
X89752697Y-61364802D02*
X89752697Y-62824802D01*
X86792697Y-62824802D02*
X86792697Y-61364802D01*
X86792697Y-61364802D02*
X89752697Y-61364802D01*
X57194000Y-58960000D02*
X60154000Y-58960000D01*
X57194000Y-60420000D02*
X57194000Y-58960000D01*
X60154000Y-58960000D02*
X60154000Y-60420000D01*
X60154000Y-60420000D02*
X57194000Y-60420000D01*
X149892000Y-73616000D02*
X149892000Y-70656000D01*
X151352000Y-73616000D02*
X149892000Y-73616000D01*
X149892000Y-70656000D02*
X151352000Y-70656000D01*
X151352000Y-70656000D02*
X151352000Y-73616000D01*
X64242293Y-62944000D02*
X69642293Y-62944000D01*
X69642293Y-62944000D02*
X69642293Y-55544000D01*
X64242293Y-55544000D02*
X64242293Y-62944000D01*
X69642293Y-55544000D02*
X64242293Y-55544000D01*
X68062724Y-48195426D02*
X68062724Y-44345426D01*
X71462724Y-48195426D02*
X68062724Y-48195426D01*
X71462724Y-44345426D02*
X71462724Y-48195426D01*
X71462724Y-44345426D02*
X68062724Y-44345426D01*
X87725000Y-70211000D02*
X87725000Y-73171000D01*
X86265000Y-70211000D02*
X87725000Y-70211000D01*
X87725000Y-73171000D02*
X86265000Y-73171000D01*
X86265000Y-73171000D02*
X86265000Y-70211000D01*
X118685054Y-63072708D02*
X118685054Y-66772708D01*
X118685054Y-63072708D02*
X124985054Y-63072708D01*
X118685054Y-66772708D02*
X124985054Y-66772708D01*
X124985054Y-63072708D02*
X124985054Y-66772708D01*
X90372293Y-105131418D02*
X90372293Y-76351418D01*
X90372293Y-76351418D02*
X73972293Y-76351418D01*
X73972293Y-105131418D02*
X90372293Y-105131418D01*
X73972293Y-76351418D02*
X73972293Y-105131418D01*
X124924000Y-61436000D02*
X121964000Y-61436000D01*
X124924000Y-59976000D02*
X124924000Y-61436000D01*
X121964000Y-61436000D02*
X121964000Y-59976000D01*
X121964000Y-59976000D02*
X124924000Y-59976000D01*
X163072293Y-71141418D02*
X163072293Y-74101418D01*
X161612293Y-71141418D02*
X163072293Y-71141418D01*
X163072293Y-74101418D02*
X161612293Y-74101418D01*
X161612293Y-74101418D02*
X161612293Y-71141418D01*
X122548400Y-34867400D02*
X122548400Y-37827400D01*
X121088400Y-34867400D02*
X122548400Y-34867400D01*
X122548400Y-37827400D02*
X121088400Y-37827400D01*
X121088400Y-37827400D02*
X121088400Y-34867400D01*
X76758293Y-46407418D02*
X73798293Y-46407418D01*
X76758293Y-44947418D02*
X76758293Y-46407418D01*
X73798293Y-46407418D02*
X73798293Y-44947418D01*
X73798293Y-44947418D02*
X76758293Y-44947418D01*
X159252293Y-71131418D02*
X159252293Y-74091418D01*
X157792293Y-71131418D02*
X159252293Y-71131418D01*
X159252293Y-74091418D02*
X157792293Y-74091418D01*
X157792293Y-74091418D02*
X157792293Y-71131418D01*
X134017000Y-38310000D02*
X134017000Y-35350000D01*
X135477000Y-38310000D02*
X134017000Y-38310000D01*
X134017000Y-35350000D02*
X135477000Y-35350000D01*
X135477000Y-35350000D02*
X135477000Y-38310000D01*
X83037679Y-75799094D02*
X79677679Y-75799094D01*
X83037679Y-73899094D02*
X83037679Y-75799094D01*
X79677679Y-75799094D02*
X79677679Y-73899094D01*
X79677679Y-73899094D02*
X83037679Y-73899094D01*
X106405293Y-47467418D02*
X106405293Y-48967418D01*
X106405293Y-47467418D02*
X107905293Y-47467418D01*
X107905293Y-48967418D02*
X106405293Y-48967418D01*
X107905293Y-48967418D02*
X107905293Y-47467418D01*
X94580000Y-58909400D02*
X94580000Y-55949400D01*
X96040000Y-58909400D02*
X94580000Y-58909400D01*
X94580000Y-55949400D02*
X96040000Y-55949400D01*
X96040000Y-55949400D02*
X96040000Y-58909400D01*
X76765565Y-48156145D02*
X73805565Y-48156145D01*
X76765565Y-46696145D02*
X76765565Y-48156145D01*
X73805565Y-48156145D02*
X73805565Y-46696145D01*
X73805565Y-46696145D02*
X76765565Y-46696145D01*
X62892293Y-35517418D02*
G75*
G03*
X62892293Y-35517418I-2600000J0D01*
G01*
X82836000Y-47200000D02*
X82836000Y-44240000D01*
X84296000Y-47200000D02*
X82836000Y-47200000D01*
X82836000Y-44240000D02*
X84296000Y-44240000D01*
X84296000Y-44240000D02*
X84296000Y-47200000D01*
X118442000Y-61080000D02*
X121842000Y-61080000D01*
X118442000Y-63040000D02*
X118442000Y-61080000D01*
X121842000Y-61080000D02*
X121842000Y-63040000D01*
X121842000Y-63040000D02*
X118442000Y-63040000D01*
X70644200Y-54628800D02*
X67684200Y-54628800D01*
X70644200Y-53168800D02*
X70644200Y-54628800D01*
X67684200Y-54628800D02*
X67684200Y-53168800D01*
X67684200Y-53168800D02*
X70644200Y-53168800D01*
X60970200Y-40992000D02*
X60970200Y-44352000D01*
X59070200Y-40992000D02*
X60970200Y-40992000D01*
X60970200Y-44352000D02*
X59070200Y-44352000D01*
X59070200Y-44352000D02*
X59070200Y-40992000D01*
X97225654Y-75921418D02*
X93825654Y-75921418D01*
X97225654Y-73961418D02*
X97225654Y-75921418D01*
X93825654Y-75921418D02*
X93825654Y-73961418D01*
X93825654Y-73961418D02*
X97225654Y-73961418D01*
X116163000Y-69576800D02*
X114763000Y-69576800D01*
X116163000Y-67176800D02*
X116163000Y-69576800D01*
X114763000Y-70901800D02*
X112888000Y-72776800D01*
X114763000Y-69576800D02*
X114763000Y-70901800D01*
X114763000Y-67176800D02*
X116163000Y-67176800D01*
X114763000Y-65851800D02*
X114763000Y-67176800D01*
X112888000Y-72776800D02*
X105963000Y-72776800D01*
X112888000Y-63976800D02*
X114763000Y-65851800D01*
X105963000Y-72776800D02*
X105963000Y-69576800D01*
X105963000Y-69576800D02*
X104563000Y-69576800D01*
X105963000Y-67176800D02*
X105963000Y-63976800D01*
X105963000Y-63976800D02*
X112888000Y-63976800D01*
X104563000Y-69576800D02*
X104563000Y-67176800D01*
X104563000Y-67176800D02*
X105963000Y-67176800D01*
X116021000Y-62442000D02*
X116021000Y-61042000D01*
X118421000Y-62442000D02*
X116021000Y-62442000D01*
X114696000Y-61042000D02*
X112821000Y-59167000D01*
X116021000Y-61042000D02*
X114696000Y-61042000D01*
X118421000Y-61042000D02*
X118421000Y-62442000D01*
X119746000Y-61042000D02*
X118421000Y-61042000D01*
X112821000Y-59167000D02*
X112821000Y-52242000D01*
X121621000Y-59167000D02*
X119746000Y-61042000D01*
X112821000Y-52242000D02*
X116021000Y-52242000D01*
X116021000Y-52242000D02*
X116021000Y-50842000D01*
X118421000Y-52242000D02*
X121621000Y-52242000D01*
X121621000Y-52242000D02*
X121621000Y-59167000D01*
X116021000Y-50842000D02*
X118421000Y-50842000D01*
X118421000Y-50842000D02*
X118421000Y-52242000D01*
X92062293Y-63881418D02*
X95022293Y-63881418D01*
X92062293Y-65341418D02*
X92062293Y-63881418D01*
X95022293Y-63881418D02*
X95022293Y-65341418D01*
X95022293Y-65341418D02*
X92062293Y-65341418D01*
X89895293Y-42895418D02*
X89895293Y-44395418D01*
X89895293Y-42895418D02*
X91395293Y-42895418D01*
X91395293Y-44395418D02*
X89895293Y-44395418D01*
X91395293Y-44395418D02*
X91395293Y-42895418D01*
X73849800Y-68439600D02*
X73849800Y-69939600D01*
X73849800Y-68439600D02*
X75349800Y-68439600D01*
X75349800Y-69939600D02*
X73849800Y-69939600D01*
X75349800Y-69939600D02*
X75349800Y-68439600D01*
X89976663Y-61376100D02*
X92936663Y-61376100D01*
X89976663Y-62836100D02*
X89976663Y-61376100D01*
X92936663Y-61376100D02*
X92936663Y-62836100D01*
X92936663Y-62836100D02*
X89976663Y-62836100D01*
X73573179Y-38877981D02*
X73573179Y-34257981D01*
X73573179Y-34257981D02*
X63473179Y-34257981D01*
X63473179Y-38877981D02*
X73573179Y-38877981D01*
X63473179Y-34257981D02*
X63473179Y-38877981D01*
X71259000Y-55257000D02*
X71259000Y-56757000D01*
X71259000Y-55257000D02*
X72759000Y-55257000D01*
X72759000Y-56757000D02*
X71259000Y-56757000D01*
X72759000Y-56757000D02*
X72759000Y-55257000D01*
X74992293Y-53214418D02*
X74992293Y-56174418D01*
X73532293Y-53214418D02*
X74992293Y-53214418D01*
X74992293Y-56174418D02*
X73532293Y-56174418D01*
X73532293Y-56174418D02*
X73532293Y-53214418D01*
X96205006Y-53080438D02*
X99165006Y-53080438D01*
X96205006Y-54540438D02*
X96205006Y-53080438D01*
X99165006Y-53080438D02*
X99165006Y-54540438D01*
X99165006Y-54540438D02*
X96205006Y-54540438D01*
X112790000Y-61652800D02*
X108190000Y-61652800D01*
X112790000Y-59352800D02*
X112790000Y-61652800D01*
X108190000Y-61652800D02*
X108190000Y-59352800D01*
X108190000Y-59352800D02*
X112790000Y-59352800D01*
X128757293Y-64858200D02*
X128757293Y-66358200D01*
X128757293Y-64858200D02*
X130257293Y-64858200D01*
X130257293Y-66358200D02*
X128757293Y-66358200D01*
X130257293Y-66358200D02*
X130257293Y-64858200D01*
X114525690Y-47670462D02*
X117485690Y-47670462D01*
X114525690Y-49130462D02*
X114525690Y-47670462D01*
X117485690Y-47670462D02*
X117485690Y-49130462D01*
X117485690Y-49130462D02*
X114525690Y-49130462D01*
X61093600Y-44126600D02*
X61093600Y-41166600D01*
X62553600Y-44126600D02*
X61093600Y-44126600D01*
X61093600Y-41166600D02*
X62553600Y-41166600D01*
X62553600Y-41166600D02*
X62553600Y-44126600D01*
X61004000Y-58960000D02*
X63964000Y-58960000D01*
X61004000Y-60420000D02*
X61004000Y-58960000D01*
X63964000Y-58960000D02*
X63964000Y-60420000D01*
X63964000Y-60420000D02*
X61004000Y-60420000D01*
X62892293Y-76551418D02*
G75*
G03*
X62892293Y-76551418I-2600000J0D01*
G01*
X105942000Y-50570000D02*
X105942000Y-53570000D01*
X105942000Y-50570000D02*
X108942000Y-50570000D01*
X108942000Y-53570000D02*
X105942000Y-53570000D01*
X108942000Y-53570000D02*
X108942000Y-50570000D01*
X75798293Y-42768418D02*
X75798293Y-44268418D01*
X75798293Y-42768418D02*
X77298293Y-42768418D01*
X77298293Y-44268418D02*
X75798293Y-44268418D01*
X77298293Y-44268418D02*
X77298293Y-42768418D01*
X128399682Y-54294200D02*
X124999682Y-54294200D01*
X128399682Y-52334200D02*
X128399682Y-54294200D01*
X124999682Y-54294200D02*
X124999682Y-52334200D01*
X124999682Y-52334200D02*
X128399682Y-52334200D01*
X124326400Y-34918200D02*
X124326400Y-37878200D01*
X122866400Y-34918200D02*
X124326400Y-34918200D01*
X124326400Y-37878200D02*
X122866400Y-37878200D01*
X122866400Y-37878200D02*
X122866400Y-34918200D01*
M02*
