M48
; DRILL file {KiCad 7.0.6} date Thu Nov  9 18:37:17 2023
; FORMAT={-:-/ absolute / metric / decimal}
; #@! TF.CreationDate,2023-11-09T18:37:17-08:00
; #@! TF.GenerationSoftware,Kicad,Pcbnew,7.0.6
; #@! TF.FileFunction,Plated,1,4,PTH
FMAT,2
METRIC
; #@! TA.AperFunction,Plated,PTH,ViaDrill
T1C0.200
; #@! TA.AperFunction,Plated,PTH,ViaDrill
T2C0.350
; #@! TA.AperFunction,Plated,PTH,ComponentDrill
T3C0.350
; #@! TA.AperFunction,Plated,PTH,ComponentDrill
T4C0.500
; #@! TA.AperFunction,Plated,PTH,ComponentDrill
T5C0.600
; #@! TA.AperFunction,Plated,PTH,ComponentDrill
T6C1.000
; #@! TA.AperFunction,Plated,PTH,ComponentDrill
T7C1.020
; #@! TA.AperFunction,Plated,PTH,ComponentDrill
T8C2.000
; #@! TA.AperFunction,Plated,PTH,ComponentDrill
T9C2.700
%
G90
G05
T1
X106.858Y-73.457
X109.728Y-71.247
X110.744Y-57.15
X111.252Y-77.597
X112.268Y-77.597
X113.919Y-69.977
X114.427Y-60.96
X115.257Y-60.071
X116.332Y-85.598
X116.48Y-80.74
X116.586Y-82.931
X117.18Y-79.54
X117.221Y-81.915
X118.006Y-74.871
X118.265Y-76.674
X118.265Y-77.377
X118.491Y-72.136
X118.503Y-75.368
X118.872Y-63.373
X119.507Y-77.216
X119.507Y-84.455
X119.634Y-79.629
X119.742Y-71.361
X119.761Y-69.723
X119.761Y-72.898
X121.666Y-75.311
X121.92Y-58.42
X123.444Y-65.786
X123.761Y-81.852
X124.206Y-83.312
X124.333Y-65.405
X124.968Y-72.771
X124.968Y-83.566
X127.254Y-85.979
X127.381Y-84.836
X127.91Y-83.312
X128.143Y-66.548
X128.503Y-82.848
X129.413Y-65.405
X129.413Y-82.804
X130.048Y-71.501
X130.292Y-82.658
X130.429Y-85.344
X130.831Y-69.404
X130.937Y-70.612
X131.064Y-82.931
X131.699Y-63.881
X131.699Y-83.439
X132.299Y-81.823
X132.334Y-82.804
X132.588Y-66.167
X132.842Y-63.5
X133.35Y-80.518
X133.604Y-62.865
X134.112Y-79.121
X134.112Y-80.01
X134.493Y-77.343
X134.706Y-62.738
X136.017Y-67.183
X136.017Y-73.893
X136.205Y-84.953
X138.43Y-76.454
X138.43Y-77.724
X138.612Y-74.401
X138.811Y-65.913
X139.192Y-75.692
X139.954Y-69.723
X140.589Y-68.707
X140.843Y-73.621
X140.843Y-74.765
X141.859Y-71.628
X141.859Y-73.533
X142.113Y-69.596
X142.113Y-78.486
X143.383Y-83.947
X144.526Y-81.026
X145.542Y-72.39
X145.923Y-77.724
X146.05Y-68.834
X146.431Y-71.628
X149.336Y-87.865
X149.733Y-86.995
X150.876Y-69.85
X150.908Y-75.845
X151.003Y-76.708
X151.765Y-76.2
X153.67Y-70.739
X154.432Y-65.913
X154.432Y-78.486
X154.559Y-57.785
X155.448Y-78.994
X155.722Y-58.519
X157.353Y-72.263
X157.861Y-68.453
X162.329Y-88.493
X163.047Y-88.875
X164.211Y-72.263
X165.1Y-68.326
X165.1Y-69.469
X167.894Y-63.754
X170.307Y-57.531
X184.785Y-60.452
X187.325Y-68.072
X188.239Y-93.167
X189.078Y-93.167
X190.373Y-58.166
X199.898Y-104.394
T2
X104.14Y-65.913
X110.363Y-63.627
X116.078Y-57.531
X117.475Y-63.627
X123.939Y-90.387
X123.952Y-91.288
X123.952Y-92.202
X128.905Y-90.399
X128.918Y-91.325
X128.93Y-92.456
X136.474Y-90.83
X136.474Y-91.84
X137.414Y-101.6
X137.414Y-102.616
X140.284Y-96.901
X141.757Y-93.396
X141.783Y-94.767
X143.919Y-88.917
X151.943Y-90.17
X151.943Y-91.186
X151.943Y-92.202
X151.994Y-84.43
X151.994Y-85.446
X153.01Y-85.446
X154.432Y-82.296
X154.432Y-85.344
X154.432Y-89.408
X154.432Y-92.964
X155.448Y-82.296
X155.448Y-85.344
X155.448Y-89.408
X155.448Y-92.964
X155.829Y-97.79
X155.829Y-98.806
X155.829Y-99.822
X155.829Y-100.838
X155.829Y-101.854
X155.829Y-102.87
X155.829Y-103.886
X155.829Y-104.902
X155.829Y-105.918
X155.829Y-106.934
X155.829Y-107.95
X155.829Y-108.966
X155.829Y-109.982
X156.845Y-97.79
X156.845Y-98.806
X156.845Y-99.822
X156.845Y-100.838
X156.845Y-101.854
X156.845Y-102.87
X156.845Y-103.886
X156.845Y-104.902
X156.845Y-105.918
X156.845Y-106.934
X156.845Y-107.95
X156.845Y-108.966
X156.845Y-109.982
X158.75Y-82.042
X158.75Y-85.598
X158.75Y-89.408
X158.75Y-92.964
X159.766Y-82.042
X159.766Y-85.598
X159.766Y-89.408
X159.766Y-92.964
X161.29Y-77.216
X161.29Y-80.772
X162.306Y-77.216
X162.306Y-80.772
X163.017Y-90.018
X163.322Y-84.328
X163.322Y-85.344
X163.322Y-86.36
X163.322Y-87.376
X164.033Y-90.018
X164.338Y-87.376
X164.719Y-116.459
X164.719Y-117.475
X164.719Y-118.491
X164.719Y-119.507
X165.735Y-116.459
X165.735Y-117.475
X165.735Y-118.491
X165.735Y-119.507
X166.116Y-77.47
X166.116Y-80.518
X166.37Y-93.726
X166.751Y-116.459
X166.751Y-117.475
X166.751Y-118.491
X166.751Y-119.507
X167.132Y-77.47
X167.132Y-80.518
X168.148Y-93.98
X168.402Y-83.312
X169.418Y-83.312
X171.196Y-65.913
X171.196Y-66.929
X171.196Y-67.945
X172.212Y-67.945
X173.228Y-67.945
X173.736Y-102.87
X174.244Y-65.913
X174.244Y-66.929
X174.244Y-67.945
X174.752Y-102.87
X175.768Y-102.87
X176.784Y-102.87
X177.927Y-102.87
X178.308Y-95.25
X178.816Y-66.675
X178.816Y-67.691
X178.816Y-68.707
X178.943Y-102.87
X179.832Y-69.088
X179.959Y-102.87
X179.959Y-104.013
X179.959Y-105.029
X179.959Y-106.045
X179.959Y-107.061
X179.959Y-108.077
X179.959Y-109.093
X179.959Y-110.109
X179.959Y-111.125
X179.959Y-112.141
X179.959Y-113.157
X179.959Y-114.173
X180.848Y-69.088
X181.102Y-100.076
X181.221Y-111.675
X181.221Y-112.691
X181.221Y-113.707
X181.221Y-114.723
X182.245Y-111.681
X182.245Y-112.697
X182.245Y-113.713
X182.245Y-114.729
X182.626Y-57.658
X182.626Y-58.674
X182.626Y-59.69
X182.626Y-60.706
X182.626Y-61.722
X182.626Y-62.738
X182.626Y-63.754
X183.007Y-99.949
X183.261Y-111.681
X183.261Y-112.697
X183.261Y-113.713
X183.261Y-114.729
X183.642Y-57.658
X183.642Y-58.674
X183.642Y-59.69
X183.642Y-60.706
X183.642Y-61.722
X183.642Y-62.738
X183.642Y-63.754
X184.277Y-111.681
X184.277Y-112.697
X184.277Y-113.713
X184.277Y-114.729
X186.08Y-68.275
X188.468Y-85.852
X189.484Y-85.852
X189.951Y-94.04
X191.262Y-64.516
X191.262Y-65.532
X191.262Y-66.548
X191.262Y-68.453
X191.262Y-69.469
X191.262Y-70.536
X192.04Y-92.253
X192.151Y-96.774
X192.151Y-97.79
X192.151Y-98.806
X192.151Y-99.822
X192.151Y-100.838
X192.278Y-64.516
X192.278Y-65.532
X192.278Y-66.548
X192.278Y-68.453
X192.278Y-69.469
X192.278Y-70.51
X193.056Y-92.253
X193.167Y-96.774
X193.167Y-97.79
X193.167Y-98.806
X193.167Y-99.822
X193.167Y-100.838
X193.294Y-64.516
X193.294Y-70.51
X194.31Y-64.516
X194.31Y-70.51
X194.453Y-92.253
X194.564Y-96.774
X194.564Y-97.79
X194.564Y-98.806
X194.564Y-99.822
X194.564Y-100.838
X195.326Y-64.516
X195.326Y-70.51
X195.469Y-92.253
X195.58Y-96.774
X195.58Y-97.79
X195.58Y-98.806
X195.58Y-99.822
X195.58Y-100.838
X196.342Y-64.516
X196.342Y-65.532
X196.342Y-66.548
X196.342Y-68.453
X196.342Y-69.469
X196.342Y-70.51
X197.358Y-64.516
X197.358Y-65.532
X197.358Y-66.548
X197.358Y-68.453
X197.358Y-69.469
X197.358Y-70.536
T3
X82.75Y-88.483
X82.75Y-89.483
X82.75Y-90.483
X82.75Y-91.483
X82.75Y-92.483
X83.75Y-88.483
X83.75Y-89.483
X83.75Y-90.483
X83.75Y-91.483
X83.75Y-92.483
X84.75Y-88.483
X84.75Y-89.483
X84.75Y-90.483
X84.75Y-91.483
X84.75Y-92.483
X85.75Y-88.483
X85.75Y-89.483
X85.75Y-90.483
X85.75Y-91.483
X85.75Y-92.483
X93.25Y-88.483
X93.25Y-89.483
X93.25Y-90.483
X93.25Y-91.483
X93.25Y-92.483
X94.25Y-88.483
X94.25Y-89.483
X94.25Y-90.483
X94.25Y-91.483
X94.25Y-92.483
X95.25Y-88.483
X95.25Y-89.483
X95.25Y-90.483
X95.25Y-91.483
X95.25Y-92.483
X96.25Y-88.483
X96.25Y-89.483
X96.25Y-90.483
X96.25Y-91.483
X96.25Y-92.483
X127.413Y-75.438
X127.413Y-77.438
X128.413Y-76.438
X129.413Y-75.438
X129.413Y-77.438
X204.914Y-88.483
X204.914Y-89.483
X204.914Y-90.483
X204.914Y-91.483
X204.914Y-92.483
X205.914Y-88.483
X205.914Y-89.483
X205.914Y-90.483
X205.914Y-91.483
X205.914Y-92.483
X206.914Y-88.483
X206.914Y-89.483
X206.914Y-90.483
X206.914Y-91.483
X206.914Y-92.483
X207.914Y-88.483
X207.914Y-89.483
X207.914Y-90.483
X207.914Y-91.483
X207.914Y-92.483
X215.414Y-88.483
X215.414Y-89.483
X215.414Y-90.483
X215.414Y-91.483
X215.414Y-92.483
X216.414Y-88.483
X216.414Y-89.483
X216.414Y-90.483
X216.414Y-91.483
X216.414Y-92.483
X217.414Y-88.483
X217.414Y-89.483
X217.414Y-90.483
X217.414Y-91.483
X217.414Y-92.483
X218.414Y-88.483
X218.414Y-89.483
X218.414Y-90.483
X218.414Y-91.483
X218.414Y-92.483
T4
X166.624Y-67.437
X166.751Y-70.358
T6
X126.486Y-58.762
X126.486Y-61.302
X129.026Y-58.762
X129.026Y-61.302
X131.566Y-58.762
X131.566Y-61.302
X134.106Y-58.762
X134.106Y-61.302
X136.646Y-58.762
X136.646Y-61.302
X139.186Y-58.762
X139.186Y-61.302
X141.726Y-58.762
X141.726Y-61.302
X144.266Y-58.762
X144.266Y-61.302
X146.806Y-58.762
X146.806Y-61.302
X149.346Y-58.762
X149.346Y-61.302
X159.465Y-60.645
X161.965Y-60.645
X164.465Y-60.645
T7
X95.478Y-98.071
X98.478Y-98.071
X106.052Y-95.826
X106.052Y-98.826
T8
X123.11Y-102.77
X128.56Y-102.77
X134.01Y-102.77
X140.9Y-102.789
X146.35Y-102.789
X151.8Y-102.789
T9
X106.68Y-60.96
X106.68Y-109.22
X194.31Y-60.96
X194.31Y-109.22
T5
X111.161Y-59.057G85X110.661Y-59.057
G05
X111.161Y-61.917G85X110.661Y-61.917
G05
X119.161Y-59.057G85X118.661Y-59.057
G05
X119.161Y-61.917G85X118.661Y-61.917
G05
T0
M30
