M48
; DRILL file {KiCad 7.0.6} date Fri Dec 29 11:16:11 2023
; FORMAT={-:-/ absolute / metric / decimal}
; #@! TF.CreationDate,2023-12-29T11:16:11-08:00
; #@! TF.GenerationSoftware,Kicad,Pcbnew,7.0.6
; #@! TF.FileFunction,Plated,1,2,PTH
FMAT,2
METRIC
; #@! TA.AperFunction,Plated,PTH,ViaDrill
T1C0.200
; #@! TA.AperFunction,Plated,PTH,ViaDrill
T2C0.350
; #@! TA.AperFunction,Plated,PTH,ComponentDrill
T3C0.350
; #@! TA.AperFunction,Plated,PTH,ComponentDrill
T4C1.000
; #@! TA.AperFunction,Plated,PTH,ComponentDrill
T5C1.780
; #@! TA.AperFunction,Plated,PTH,ComponentDrill
T6C1.850
; #@! TA.AperFunction,Plated,PTH,ComponentDrill
T7C2.300
; #@! TA.AperFunction,Plated,PTH,ComponentDrill
T8C2.700
; #@! TA.AperFunction,Plated,PTH,ComponentDrill
T9C4.220
%
G90
G05
T1
X102.87Y-22.098
X103.505Y-38.659
X110.744Y-130.302
X110.744Y-131.826
X110.871Y-102.108
X110.871Y-103.632
X111.506Y-129.54
X111.506Y-131.064
X111.506Y-132.588
X111.633Y-101.346
X111.633Y-102.87
X111.633Y-104.394
X112.268Y-131.826
X112.268Y-133.35
X112.395Y-100.584
X112.395Y-102.108
X113.03Y-132.588
X113.157Y-101.346
X113.157Y-110.871
X113.157Y-112.395
X113.157Y-121.539
X113.157Y-123.063
X113.792Y-131.826
X113.792Y-133.35
X113.919Y-100.584
X113.919Y-102.108
X113.919Y-110.109
X113.919Y-111.633
X113.919Y-122.301
X113.919Y-123.825
X114.554Y-129.54
X114.554Y-131.064
X114.554Y-132.588
X114.681Y-101.346
X114.681Y-102.87
X114.681Y-104.394
X114.681Y-110.871
X114.681Y-112.395
X114.681Y-113.919
X114.681Y-115.443
X114.681Y-116.967
X114.681Y-118.491
X114.681Y-120.015
X114.681Y-121.539
X114.681Y-123.063
X115.316Y-130.302
X115.316Y-131.826
X115.443Y-102.108
X115.443Y-103.632
X115.443Y-111.633
X115.443Y-113.157
X115.443Y-114.681
X115.443Y-116.205
X115.443Y-117.729
X115.443Y-119.253
X115.443Y-120.777
X115.443Y-122.301
X136.144Y-19.812
X140.208Y-28.624
X153.416Y-71.653
X153.416Y-73.177
X153.416Y-94.259
X153.416Y-95.783
X154.178Y-70.891
X154.178Y-72.415
X154.178Y-73.939
X154.178Y-93.497
X154.178Y-95.021
X154.178Y-96.545
X154.94Y-70.129
X154.94Y-71.653
X154.94Y-73.177
X154.94Y-74.701
X154.94Y-92.735
X154.94Y-94.259
X154.94Y-95.783
X154.94Y-97.307
X155.702Y-70.891
X155.702Y-72.415
X155.702Y-73.939
X155.702Y-93.497
X155.702Y-95.021
X155.702Y-96.545
X156.464Y-70.129
X156.464Y-71.653
X156.464Y-73.177
X156.464Y-74.701
X156.464Y-92.735
X156.464Y-94.259
X156.464Y-95.783
X156.464Y-97.307
X157.226Y-70.891
X157.226Y-72.415
X157.226Y-73.939
X157.226Y-93.497
X157.226Y-95.021
X157.226Y-96.545
X157.988Y-71.653
X157.988Y-73.177
X157.988Y-94.259
X157.988Y-95.783
X183.506Y-65.278
X184.286Y-65.278
X187.071Y-68.961
X187.071Y-69.85
X187.198Y-61.341
X187.198Y-62.23
X187.198Y-64.516
X187.198Y-65.405
X187.96Y-68.961
X187.96Y-69.85
X188.087Y-61.341
X188.087Y-62.23
X188.087Y-64.516
X188.087Y-65.405
X188.849Y-68.961
X188.849Y-69.85
X188.976Y-61.341
X188.976Y-62.23
X188.976Y-64.516
X188.976Y-65.405
X194.809Y-41.275
X195.589Y-41.275
X205.105Y-78.613
X205.105Y-79.375
X205.105Y-81.534
X205.105Y-82.296
X205.105Y-86.106
X205.105Y-86.868
X205.105Y-89.027
X205.105Y-89.789
X205.994Y-78.613
X205.994Y-79.375
X205.994Y-81.534
X205.994Y-82.296
X205.994Y-86.106
X205.994Y-86.868
X205.994Y-89.027
X205.994Y-89.789
X206.883Y-78.613
X206.883Y-79.375
X206.883Y-81.534
X206.883Y-82.296
X206.883Y-86.106
X206.883Y-86.868
X206.883Y-89.027
X206.883Y-89.789
X208.966Y-71.755
X208.966Y-72.517
X208.966Y-73.279
X208.966Y-74.041
X209.728Y-71.755
X209.728Y-72.517
X209.728Y-73.279
X209.728Y-74.041
T2
X75.692Y-24.892
X75.692Y-26.924
X75.692Y-41.656
X75.692Y-43.688
X75.692Y-45.72
X75.692Y-47.752
X75.692Y-49.784
X76.708Y-23.876
X76.708Y-25.908
X76.708Y-42.672
X76.708Y-44.704
X76.708Y-46.736
X76.708Y-48.768
X76.708Y-50.8
X77.724Y-22.86
X77.724Y-24.892
X77.724Y-26.924
X77.724Y-41.656
X77.724Y-43.688
X77.724Y-45.72
X78.74Y-23.876
X78.74Y-25.908
X78.74Y-27.94
X78.74Y-42.672
X78.74Y-44.704
X78.74Y-46.736
X79.756Y-22.86
X79.756Y-24.892
X79.756Y-26.924
X79.756Y-41.656
X79.756Y-43.688
X79.756Y-45.72
X80.772Y-23.876
X80.772Y-25.908
X80.772Y-42.672
X80.772Y-44.704
X80.772Y-46.736
X81.788Y-22.86
X81.788Y-24.892
X81.788Y-26.924
X81.788Y-41.656
X81.788Y-43.688
X81.788Y-45.72
X82.804Y-23.876
X82.804Y-25.908
X82.804Y-27.94
X82.804Y-29.972
X83.82Y-22.86
X83.82Y-24.892
X83.82Y-26.924
X83.82Y-28.956
X84.836Y-23.876
X84.836Y-25.908
X84.836Y-27.94
X85.852Y-22.86
X85.852Y-24.892
X85.852Y-26.924
X86.36Y-31.242
X86.36Y-32.258
X86.36Y-33.274
X86.36Y-34.29
X87.757Y-34.29
X89.154Y-31.242
X89.154Y-32.258
X89.154Y-33.274
X89.154Y-34.29
X92.71Y-34.163
X92.71Y-36.195
X93.726Y-31.115
X93.726Y-33.147
X93.726Y-35.179
X94.742Y-32.131
X94.742Y-34.163
X94.742Y-36.195
X95.758Y-31.115
X95.758Y-33.147
X95.758Y-35.179
X96.52Y-24.638
X96.52Y-25.654
X96.774Y-34.163
X96.774Y-36.195
X97.536Y-24.638
X97.536Y-25.654
X97.79Y-35.179
X98.552Y-24.638
X98.552Y-25.654
X98.806Y-34.163
X98.806Y-36.195
X99.568Y-24.638
X99.568Y-25.654
X99.822Y-31.115
X99.822Y-33.147
X99.822Y-35.179
X100.838Y-32.131
X100.838Y-34.163
X100.838Y-36.195
X101.854Y-31.115
X101.854Y-33.147
X101.854Y-35.179
X102.87Y-32.131
X102.87Y-34.163
X103.886Y-33.147
X108.966Y-37.084
X108.966Y-38.1
X108.966Y-39.116
X108.966Y-40.132
X109.982Y-37.084
X109.982Y-38.1
X109.982Y-39.116
X109.982Y-40.132
X110.998Y-37.084
X110.998Y-38.1
X110.998Y-39.116
X110.998Y-40.132
X112.014Y-37.084
X112.014Y-38.1
X112.014Y-39.116
X112.014Y-40.132
X116.332Y-26.162
X116.332Y-28.194
X116.332Y-30.226
X116.332Y-32.258
X116.332Y-34.29
X116.332Y-36.322
X117.602Y-27.178
X117.602Y-29.21
X117.602Y-31.242
X117.602Y-33.274
X117.602Y-35.306
X118.618Y-26.162
X118.618Y-28.194
X118.618Y-30.226
X118.618Y-32.258
X118.618Y-34.29
X118.618Y-36.322
X119.634Y-27.178
X119.634Y-29.21
X119.634Y-31.242
X119.634Y-33.274
X119.634Y-35.306
X120.65Y-14.732
X120.65Y-16.764
X120.65Y-26.162
X120.65Y-28.194
X120.65Y-30.226
X120.65Y-32.258
X120.65Y-34.29
X120.65Y-36.322
X121.666Y-13.716
X121.666Y-15.748
X121.666Y-17.78
X121.666Y-27.178
X121.666Y-29.21
X121.666Y-31.242
X121.666Y-33.274
X121.666Y-35.306
X122.682Y-12.7
X122.682Y-14.732
X122.682Y-16.764
X122.682Y-18.796
X122.682Y-26.162
X122.682Y-28.194
X122.682Y-30.226
X122.682Y-32.258
X122.682Y-34.29
X122.682Y-36.322
X123.698Y-11.684
X123.698Y-13.716
X123.698Y-15.748
X123.698Y-17.78
X123.698Y-27.178
X123.698Y-29.21
X123.698Y-31.242
X123.698Y-33.274
X123.698Y-35.306
X124.714Y-12.7
X124.714Y-14.732
X124.714Y-16.764
X124.714Y-26.162
X124.714Y-28.194
X124.714Y-30.226
X124.714Y-32.258
X124.714Y-34.29
X124.714Y-36.322
X125.73Y-11.684
X125.73Y-13.716
X125.73Y-15.748
X125.73Y-27.178
X125.73Y-29.21
X125.73Y-31.242
X125.73Y-33.274
X125.73Y-35.306
X126.746Y-26.162
X126.746Y-28.194
X126.746Y-30.226
X126.746Y-32.258
X126.746Y-34.29
X126.746Y-36.322
X127.762Y-27.178
X127.762Y-29.21
X127.762Y-31.242
X127.762Y-33.274
X127.762Y-35.306
X128.27Y-17.78
X128.27Y-18.796
X128.27Y-19.812
X128.27Y-20.828
X128.27Y-21.844
X128.778Y-26.162
X128.778Y-28.194
X128.778Y-30.226
X128.778Y-32.258
X128.778Y-34.29
X128.778Y-36.322
X129.286Y-17.78
X129.286Y-18.796
X129.286Y-19.812
X129.286Y-20.828
X129.794Y-27.178
X129.794Y-29.21
X129.794Y-31.242
X129.794Y-33.274
X129.794Y-35.306
X130.302Y-17.78
X130.302Y-18.796
X130.302Y-19.812
X130.81Y-26.162
X130.81Y-28.194
X130.81Y-34.29
X130.81Y-36.322
X131.826Y-27.178
X131.826Y-35.306
X144.78Y-33.274
X145.796Y-28.194
X145.796Y-30.226
X145.796Y-32.258
X145.796Y-34.29
X146.812Y-27.178
X146.812Y-29.21
X146.812Y-31.242
X146.812Y-33.274
X147.828Y-28.194
X147.828Y-30.226
X147.828Y-32.258
X147.828Y-34.29
X148.844Y-27.178
X148.844Y-29.21
X148.844Y-31.242
X148.844Y-33.274
X149.86Y-34.29
X150.876Y-33.274
X151.892Y-34.29
X152.908Y-33.274
X153.924Y-34.29
X154.94Y-33.274
X155.956Y-34.29
X156.972Y-33.274
X157.988Y-24.13
X157.988Y-26.162
X157.988Y-28.194
X157.988Y-30.226
X157.988Y-32.258
X157.988Y-34.29
X159.004Y-25.146
X159.004Y-27.178
X159.004Y-29.21
X159.004Y-31.242
X159.004Y-33.274
X160.02Y-24.13
X160.02Y-26.162
X160.02Y-28.194
X160.02Y-30.226
X160.02Y-32.258
X160.02Y-34.29
T3
X150.011Y-22.468
X150.011Y-25.468
X150.011Y-28.468
X150.011Y-31.468
X151.511Y-23.968
X151.511Y-26.968
X151.511Y-29.968
X153.011Y-22.468
X153.011Y-25.468
X153.011Y-28.468
X153.011Y-31.468
X154.511Y-23.968
X154.511Y-26.968
X154.511Y-29.968
X156.011Y-22.468
X156.011Y-25.468
X156.011Y-28.468
X156.011Y-31.468
T4
X189.975Y-32.148
X189.975Y-34.648
X189.975Y-37.148
X189.975Y-39.648
X196.469Y-42.926
X199.009Y-42.926
T5
X77.04Y-29.584
X77.04Y-39.504
X80.44Y-29.584
X80.44Y-39.504
T6
X200.04Y-32.258
X200.04Y-39.258
T7
X79.597Y-49.459
X86.797Y-49.459
X204.209Y-49.459
X211.409Y-49.459
T8
X62.863Y-92.88
X63.533Y-59.88
X63.533Y-67.88
X63.533Y-75.88
X63.533Y-83.88
X71.577Y-67.517
X71.577Y-84.162
X71.577Y-97.477
X75.364Y-109.216
X76.672Y-17.096
X88.219Y-16.533
X88.219Y-125.968
X93.526Y-67.517
X93.526Y-84.162
X93.526Y-97.477
X104.971Y-138.823
X114.219Y-16.533
X124.48Y-146.904
X145.415Y-149.66
X166.35Y-146.904
X176.611Y-16.533
X185.859Y-138.823
X197.574Y-67.517
X197.574Y-84.162
X197.574Y-97.477
X202.611Y-125.968
X202.611Y-16.533
X214.158Y-17.096
X215.466Y-109.216
X219.473Y-67.517
X219.473Y-84.162
X219.473Y-97.477
X227.297Y-59.88
X227.297Y-67.88
X227.297Y-75.88
X227.297Y-83.88
X227.967Y-92.88
T9
X101.6Y-16.533
X101.6Y-65.537
X101.6Y-76.2
X101.6Y-108.484
X101.6Y-117.234
X101.6Y-125.984
X159.601Y-16.533
X189.23Y-76.2
X189.23Y-86.614
X189.23Y-104.184
X189.23Y-125.984
T0
M30
