G04 #@! TF.GenerationSoftware,KiCad,Pcbnew,7.0.6*
G04 #@! TF.CreationDate,2023-12-26T17:11:55-08:00*
G04 #@! TF.ProjectId,midplate,6d696470-6c61-4746-952e-6b696361645f,rev?*
G04 #@! TF.SameCoordinates,Original*
G04 #@! TF.FileFunction,Legend,Bot*
G04 #@! TF.FilePolarity,Positive*
%FSLAX46Y46*%
G04 Gerber Fmt 4.6, Leading zero omitted, Abs format (unit mm)*
G04 Created by KiCad (PCBNEW 7.0.6) date 2023-12-26 17:11:55*
%MOMM*%
%LPD*%
G01*
G04 APERTURE LIST*
G04 Aperture macros list*
%AMRoundRect*
0 Rectangle with rounded corners*
0 $1 Rounding radius*
0 $2 $3 $4 $5 $6 $7 $8 $9 X,Y pos of 4 corners*
0 Add a 4 corners polygon primitive as box body*
4,1,4,$2,$3,$4,$5,$6,$7,$8,$9,$2,$3,0*
0 Add four circle primitives for the rounded corners*
1,1,$1+$1,$2,$3*
1,1,$1+$1,$4,$5*
1,1,$1+$1,$6,$7*
1,1,$1+$1,$8,$9*
0 Add four rect primitives between the rounded corners*
20,1,$1+$1,$2,$3,$4,$5,0*
20,1,$1+$1,$4,$5,$6,$7,0*
20,1,$1+$1,$6,$7,$8,$9,0*
20,1,$1+$1,$8,$9,$2,$3,0*%
G04 Aperture macros list end*
%ADD10C,0.150000*%
%ADD11C,0.152400*%
%ADD12C,0.127000*%
%ADD13C,0.508000*%
%ADD14C,0.120000*%
%ADD15C,0.200000*%
%ADD16RoundRect,0.101600X-1.270000X0.635000X-1.270000X-0.635000X1.270000X-0.635000X1.270000X0.635000X0*%
%ADD17RoundRect,0.101600X-0.825500X1.714500X-0.825500X-1.714500X0.825500X-1.714500X0.825500X1.714500X0*%
%ADD18RoundRect,0.101600X1.308100X-0.673100X1.308100X0.673100X-1.308100X0.673100X-1.308100X-0.673100X0*%
%ADD19RoundRect,0.101600X0.863600X-1.752600X0.863600X1.752600X-0.863600X1.752600X-0.863600X-1.752600X0*%
%ADD20RoundRect,0.102000X1.387500X-1.387500X1.387500X1.387500X-1.387500X1.387500X-1.387500X-1.387500X0*%
%ADD21C,2.979000*%
%ADD22C,3.903200*%
%ADD23C,6.403200*%
%ADD24C,4.700000*%
%ADD25R,1.700000X1.700000*%
%ADD26O,1.700000X1.700000*%
%ADD27C,2.983200*%
%ADD28RoundRect,0.102000X-0.754000X0.754000X-0.754000X-0.754000X0.754000X-0.754000X0.754000X0.754000X0*%
%ADD29C,1.712000*%
%ADD30RoundRect,0.301600X-0.200000X-0.275000X0.200000X-0.275000X0.200000X0.275000X-0.200000X0.275000X0*%
%ADD31RoundRect,0.301600X0.200000X0.275000X-0.200000X0.275000X-0.200000X-0.275000X0.200000X-0.275000X0*%
%ADD32RoundRect,0.102000X-0.850000X-0.300000X0.850000X-0.300000X0.850000X0.300000X-0.850000X0.300000X0*%
%ADD33RoundRect,0.102000X1.400000X0.500000X-1.400000X0.500000X-1.400000X-0.500000X1.400000X-0.500000X0*%
G04 APERTURE END LIST*
D10*
X154709469Y-76905766D02*
X155423754Y-76905766D01*
X155423754Y-76905766D02*
X155566611Y-76858147D01*
X155566611Y-76858147D02*
X155661850Y-76762909D01*
X155661850Y-76762909D02*
X155709469Y-76620052D01*
X155709469Y-76620052D02*
X155709469Y-76524814D01*
X154709469Y-77286719D02*
X154709469Y-77953385D01*
X154709469Y-77953385D02*
X155709469Y-77524814D01*
X107438280Y-107811333D02*
X106723995Y-107811333D01*
X106723995Y-107811333D02*
X106581138Y-107858952D01*
X106581138Y-107858952D02*
X106485900Y-107954190D01*
X106485900Y-107954190D02*
X106438280Y-108097047D01*
X106438280Y-108097047D02*
X106438280Y-108192285D01*
X107438280Y-106858952D02*
X107438280Y-107335142D01*
X107438280Y-107335142D02*
X106962090Y-107382761D01*
X106962090Y-107382761D02*
X107009709Y-107335142D01*
X107009709Y-107335142D02*
X107057328Y-107239904D01*
X107057328Y-107239904D02*
X107057328Y-107001809D01*
X107057328Y-107001809D02*
X107009709Y-106906571D01*
X107009709Y-106906571D02*
X106962090Y-106858952D01*
X106962090Y-106858952D02*
X106866852Y-106811333D01*
X106866852Y-106811333D02*
X106628757Y-106811333D01*
X106628757Y-106811333D02*
X106533519Y-106858952D01*
X106533519Y-106858952D02*
X106485900Y-106906571D01*
X106485900Y-106906571D02*
X106438280Y-107001809D01*
X106438280Y-107001809D02*
X106438280Y-107239904D01*
X106438280Y-107239904D02*
X106485900Y-107335142D01*
X106485900Y-107335142D02*
X106533519Y-107382761D01*
X107438280Y-122416333D02*
X106723995Y-122416333D01*
X106723995Y-122416333D02*
X106581138Y-122463952D01*
X106581138Y-122463952D02*
X106485900Y-122559190D01*
X106485900Y-122559190D02*
X106438280Y-122702047D01*
X106438280Y-122702047D02*
X106438280Y-122797285D01*
X107104947Y-121511571D02*
X106438280Y-121511571D01*
X107485900Y-121749666D02*
X106771614Y-121987761D01*
X106771614Y-121987761D02*
X106771614Y-121368714D01*
X181892666Y-82465519D02*
X182225999Y-81989328D01*
X182464094Y-82465519D02*
X182464094Y-81465519D01*
X182464094Y-81465519D02*
X182083142Y-81465519D01*
X182083142Y-81465519D02*
X181987904Y-81513138D01*
X181987904Y-81513138D02*
X181940285Y-81560757D01*
X181940285Y-81560757D02*
X181892666Y-81655995D01*
X181892666Y-81655995D02*
X181892666Y-81798852D01*
X181892666Y-81798852D02*
X181940285Y-81894090D01*
X181940285Y-81894090D02*
X181987904Y-81941709D01*
X181987904Y-81941709D02*
X182083142Y-81989328D01*
X182083142Y-81989328D02*
X182464094Y-81989328D01*
X181035523Y-81798852D02*
X181035523Y-82465519D01*
X181273618Y-81417900D02*
X181511713Y-82132185D01*
X181511713Y-82132185D02*
X180892666Y-82132185D01*
X181892666Y-81256519D02*
X182225999Y-80780328D01*
X182464094Y-81256519D02*
X182464094Y-80256519D01*
X182464094Y-80256519D02*
X182083142Y-80256519D01*
X182083142Y-80256519D02*
X181987904Y-80304138D01*
X181987904Y-80304138D02*
X181940285Y-80351757D01*
X181940285Y-80351757D02*
X181892666Y-80446995D01*
X181892666Y-80446995D02*
X181892666Y-80589852D01*
X181892666Y-80589852D02*
X181940285Y-80685090D01*
X181940285Y-80685090D02*
X181987904Y-80732709D01*
X181987904Y-80732709D02*
X182083142Y-80780328D01*
X182083142Y-80780328D02*
X182464094Y-80780328D01*
X180987904Y-80256519D02*
X181464094Y-80256519D01*
X181464094Y-80256519D02*
X181511713Y-80732709D01*
X181511713Y-80732709D02*
X181464094Y-80685090D01*
X181464094Y-80685090D02*
X181368856Y-80637471D01*
X181368856Y-80637471D02*
X181130761Y-80637471D01*
X181130761Y-80637471D02*
X181035523Y-80685090D01*
X181035523Y-80685090D02*
X180987904Y-80732709D01*
X180987904Y-80732709D02*
X180940285Y-80827947D01*
X180940285Y-80827947D02*
X180940285Y-81066042D01*
X180940285Y-81066042D02*
X180987904Y-81161280D01*
X180987904Y-81161280D02*
X181035523Y-81208900D01*
X181035523Y-81208900D02*
X181130761Y-81256519D01*
X181130761Y-81256519D02*
X181368856Y-81256519D01*
X181368856Y-81256519D02*
X181464094Y-81208900D01*
X181464094Y-81208900D02*
X181511713Y-81161280D01*
X210062819Y-66150476D02*
X210777104Y-66150476D01*
X210777104Y-66150476D02*
X210919961Y-66102857D01*
X210919961Y-66102857D02*
X211015200Y-66007619D01*
X211015200Y-66007619D02*
X211062819Y-65864762D01*
X211062819Y-65864762D02*
X211062819Y-65769524D01*
X211062819Y-67150476D02*
X211062819Y-66579048D01*
X211062819Y-66864762D02*
X210062819Y-66864762D01*
X210062819Y-66864762D02*
X210205676Y-66769524D01*
X210205676Y-66769524D02*
X210300914Y-66674286D01*
X210300914Y-66674286D02*
X210348533Y-66579048D01*
X210062819Y-67483810D02*
X210062819Y-68102857D01*
X210062819Y-68102857D02*
X210443771Y-67769524D01*
X210443771Y-67769524D02*
X210443771Y-67912381D01*
X210443771Y-67912381D02*
X210491390Y-68007619D01*
X210491390Y-68007619D02*
X210539009Y-68055238D01*
X210539009Y-68055238D02*
X210634247Y-68102857D01*
X210634247Y-68102857D02*
X210872342Y-68102857D01*
X210872342Y-68102857D02*
X210967580Y-68055238D01*
X210967580Y-68055238D02*
X211015200Y-68007619D01*
X211015200Y-68007619D02*
X211062819Y-67912381D01*
X211062819Y-67912381D02*
X211062819Y-67626667D01*
X211062819Y-67626667D02*
X211015200Y-67531429D01*
X211015200Y-67531429D02*
X210967580Y-67483810D01*
D11*
X146998650Y-76609701D02*
X149396410Y-76609701D01*
X151712890Y-76609701D02*
X154110650Y-76609701D01*
X154110650Y-76609701D02*
X154110650Y-79271362D01*
X146998650Y-79271362D02*
X146998650Y-76609701D01*
X154110650Y-81206842D02*
X154110650Y-82271361D01*
X146998650Y-82271361D02*
X146998650Y-81206842D01*
X154110650Y-84206841D02*
X154110650Y-85271360D01*
X146998650Y-85271360D02*
X146998650Y-84206841D01*
D12*
X158249650Y-85884100D02*
X158249650Y-86684100D01*
X157549650Y-86284100D02*
X158249650Y-85884100D01*
X158249650Y-86684100D02*
X157549650Y-86284100D01*
D11*
X154110650Y-87206840D02*
X154110650Y-89868501D01*
X146998650Y-89868501D02*
X146998650Y-87206840D01*
X149396410Y-89868501D02*
X146998650Y-89868501D01*
X154110650Y-89868501D02*
X151712890Y-89868501D01*
X115709700Y-114858800D02*
X114289840Y-114858800D01*
X111897160Y-114858800D02*
X111086900Y-114858800D01*
X111086900Y-114858800D02*
X111086900Y-112233840D01*
X111086900Y-110222160D02*
X111086900Y-109233841D01*
X111086900Y-107222161D02*
X111086900Y-104597200D01*
X115709700Y-104597200D02*
X115709700Y-114858800D01*
X114289840Y-104597200D02*
X115709700Y-104597200D01*
X111086900Y-104597200D02*
X111897160Y-104597200D01*
D13*
X107988100Y-110847001D02*
G75*
G03*
X108074460Y-111599082I0J-380999D01*
G01*
D11*
X115709700Y-129463800D02*
X114289840Y-129463800D01*
X111897160Y-129463800D02*
X111086900Y-129463800D01*
X111086900Y-129463800D02*
X111086900Y-126838840D01*
X111086900Y-124827160D02*
X111086900Y-123838841D01*
X111086900Y-121827161D02*
X111086900Y-119202200D01*
X115709700Y-119202200D02*
X115709700Y-129463800D01*
X114289840Y-119202200D02*
X115709700Y-119202200D01*
X111086900Y-119202200D02*
X111897160Y-119202200D01*
D13*
X107988100Y-125452001D02*
G75*
G03*
X108074460Y-126204082I0J-380999D01*
G01*
D14*
X181488742Y-81103200D02*
X181963258Y-81103200D01*
X181488742Y-80058200D02*
X181963258Y-80058200D01*
X181963258Y-81709200D02*
X181488742Y-81709200D01*
X181963258Y-82754200D02*
X181488742Y-82754200D01*
D12*
X208150000Y-69125000D02*
X208150000Y-67500000D01*
X206720000Y-69125000D02*
X208150000Y-69125000D01*
X203900000Y-67900000D02*
X203900000Y-62100000D01*
X208150000Y-62500000D02*
X208150000Y-60875000D01*
X206720000Y-60875000D02*
X208150000Y-60875000D01*
D15*
X209900000Y-63125000D02*
G75*
G03*
X209900000Y-63125000I-100000J0D01*
G01*
%LPC*%
D16*
X155254651Y-86239100D03*
X155254651Y-83239101D03*
X155254651Y-80239102D03*
X145854650Y-86239100D03*
X145854650Y-83239101D03*
X145854650Y-80239102D03*
D17*
X150554650Y-76604101D03*
X150554650Y-89874101D03*
D18*
X109893100Y-111228000D03*
X109893100Y-108228001D03*
D19*
X113093500Y-114935000D03*
X113093500Y-104521000D03*
D18*
X109893100Y-125833000D03*
X109893100Y-122833001D03*
D19*
X113093500Y-129540000D03*
X113093500Y-119126000D03*
D20*
X200039500Y-32258000D03*
D21*
X200039500Y-39258000D03*
D22*
X86796621Y-49459321D03*
X79596621Y-49459321D03*
D23*
X101600000Y-108484000D03*
D24*
X172611096Y-16532860D03*
X215465590Y-109216005D03*
X63532842Y-59880142D03*
X202611067Y-125968345D03*
D23*
X159600900Y-16532860D03*
D24*
X93526349Y-97476702D03*
X93526349Y-67516719D03*
X197574411Y-97476702D03*
X62863132Y-92880142D03*
X227297158Y-75880142D03*
X227966868Y-92880142D03*
X214157936Y-17096280D03*
X166350214Y-146903559D03*
D23*
X101600000Y-16532860D03*
D24*
X202611096Y-16532860D03*
X197574411Y-84161566D03*
X63532842Y-83880142D03*
X227297158Y-67880142D03*
X227297158Y-59880142D03*
D23*
X189230000Y-125984000D03*
D22*
X211408697Y-49459321D03*
X204208697Y-49459321D03*
D24*
X145415000Y-149659732D03*
D25*
X196469000Y-42926000D03*
D26*
X199009000Y-42926000D03*
D23*
X101600000Y-65537080D03*
D24*
X219473333Y-84161566D03*
D23*
X101600000Y-125984000D03*
X101600000Y-117234000D03*
D24*
X76672065Y-17096280D03*
X63532842Y-75880142D03*
X104971273Y-138822868D03*
D27*
X77040000Y-39504000D03*
X80440000Y-39504000D03*
X77040000Y-29584000D03*
X80440000Y-29584000D03*
D24*
X93526349Y-84161566D03*
X88218905Y-16532860D03*
D23*
X189230000Y-86614000D03*
D24*
X71576849Y-67516719D03*
D23*
X189230000Y-76200000D03*
D24*
X71576849Y-97476702D03*
X219473333Y-97476702D03*
X227297158Y-83880142D03*
X75364410Y-109216005D03*
X185858727Y-138822868D03*
X124479786Y-146903559D03*
X118218905Y-16532860D03*
X197574411Y-67516719D03*
X71576849Y-84161566D03*
X219473333Y-67516719D03*
D28*
X189975000Y-32147500D03*
D29*
X189975000Y-34647500D03*
X189975000Y-37147500D03*
X189975000Y-39647500D03*
D24*
X88218933Y-125968345D03*
D23*
X189230000Y-104184000D03*
D24*
X63532842Y-67880142D03*
D23*
X101600000Y-76200000D03*
D30*
X180901000Y-80580700D03*
X182551000Y-80580700D03*
D31*
X182551000Y-82231700D03*
X180901000Y-82231700D03*
D32*
X208350000Y-63125000D03*
X208350000Y-64375000D03*
X208350000Y-65625000D03*
X208350000Y-66875000D03*
D33*
X205000000Y-68725000D03*
X205000000Y-61275000D03*
%LPD*%
M02*
