M48
; DRILL file {KiCad 7.0.6} date Mon Jan 15 19:44:53 2024
; FORMAT={-:-/ absolute / metric / decimal}
; #@! TF.CreationDate,2024-01-15T19:44:53-08:00
; #@! TF.GenerationSoftware,Kicad,Pcbnew,7.0.6
; #@! TF.FileFunction,Plated,1,2,PTH
FMAT,2
METRIC
; #@! TA.AperFunction,Plated,PTH,ViaDrill
T1C0.200
; #@! TA.AperFunction,Plated,PTH,ComponentDrill
T2C0.300
; #@! TA.AperFunction,Plated,PTH,ViaDrill
T3C0.350
; #@! TA.AperFunction,Plated,PTH,ComponentDrill
T4C1.000
; #@! TA.AperFunction,Plated,PTH,ComponentDrill
T5C1.780
; #@! TA.AperFunction,Plated,PTH,ComponentDrill
T6C1.850
; #@! TA.AperFunction,Plated,PTH,ComponentDrill
T7C2.300
; #@! TA.AperFunction,Plated,PTH,ComponentDrill
T8C2.700
; #@! TA.AperFunction,Plated,PTH,ComponentDrill
T9C4.220
%
G90
G05
T1
X95.123Y-35.56
X95.758Y-52.121
X102.997Y-143.764
X102.997Y-145.288
X103.124Y-115.57
X103.124Y-117.094
X103.759Y-143.002
X103.759Y-144.526
X103.759Y-146.05
X103.886Y-114.808
X103.886Y-116.332
X103.886Y-117.856
X104.521Y-145.288
X104.521Y-146.812
X104.648Y-114.046
X104.648Y-115.57
X105.283Y-146.05
X105.41Y-114.808
X105.41Y-124.333
X105.41Y-125.857
X105.41Y-135.001
X105.41Y-136.525
X106.045Y-145.288
X106.045Y-146.812
X106.172Y-114.046
X106.172Y-115.57
X106.172Y-123.571
X106.172Y-125.095
X106.172Y-135.763
X106.172Y-137.287
X106.807Y-143.002
X106.807Y-144.526
X106.807Y-146.05
X106.934Y-114.808
X106.934Y-116.332
X106.934Y-117.856
X106.934Y-124.333
X106.934Y-125.857
X106.934Y-127.381
X106.934Y-128.905
X106.934Y-130.429
X106.934Y-131.953
X106.934Y-133.477
X106.934Y-135.001
X106.934Y-136.525
X107.569Y-143.764
X107.569Y-145.288
X107.696Y-115.57
X107.696Y-117.094
X107.696Y-125.095
X107.696Y-126.619
X107.696Y-128.143
X107.696Y-129.667
X107.696Y-131.191
X107.696Y-132.715
X107.696Y-134.239
X107.696Y-135.763
X130.556Y-44.323
X145.669Y-85.115
X145.669Y-86.639
X145.669Y-107.721
X145.669Y-109.245
X146.431Y-84.353
X146.431Y-85.877
X146.431Y-87.401
X146.431Y-106.959
X146.431Y-108.483
X146.431Y-110.007
X147.193Y-83.591
X147.193Y-85.115
X147.193Y-86.639
X147.193Y-88.163
X147.193Y-106.197
X147.193Y-107.721
X147.193Y-109.245
X147.193Y-110.769
X147.955Y-84.353
X147.955Y-85.877
X147.955Y-87.401
X147.955Y-106.959
X147.955Y-108.483
X147.955Y-110.007
X148.717Y-83.591
X148.717Y-85.115
X148.717Y-86.639
X148.717Y-88.163
X148.717Y-106.197
X148.717Y-107.721
X148.717Y-109.245
X148.717Y-110.769
X149.479Y-84.353
X149.479Y-85.877
X149.479Y-87.401
X149.479Y-106.959
X149.479Y-108.483
X149.479Y-110.007
X150.241Y-85.115
X150.241Y-86.639
X150.241Y-107.721
X150.241Y-109.245
X175.759Y-78.74
X176.539Y-78.74
X179.324Y-82.423
X179.324Y-83.312
X179.451Y-74.803
X179.451Y-75.692
X179.451Y-77.978
X179.451Y-78.867
X180.213Y-82.423
X180.213Y-83.312
X180.34Y-74.803
X180.34Y-75.692
X180.34Y-77.978
X180.34Y-78.867
X181.102Y-82.423
X181.102Y-83.312
X181.229Y-74.803
X181.229Y-75.692
X181.229Y-77.978
X181.229Y-78.867
X183.642Y-57.277
X191.737Y-75.726
X192.288Y-75.175
X194.174Y-74.875
X194.954Y-74.875
X197.358Y-92.075
X197.358Y-92.837
X197.358Y-94.996
X197.358Y-95.758
X197.358Y-99.568
X197.358Y-100.33
X197.358Y-102.489
X197.358Y-103.251
X198.247Y-92.075
X198.247Y-92.837
X198.247Y-94.996
X198.247Y-95.758
X198.247Y-99.568
X198.247Y-100.33
X198.247Y-102.489
X198.247Y-103.251
X199.136Y-92.075
X199.136Y-92.837
X199.136Y-94.996
X199.136Y-95.758
X199.136Y-99.568
X199.136Y-100.33
X199.136Y-102.489
X199.136Y-103.251
X201.219Y-85.217
X201.219Y-85.979
X201.219Y-86.741
X201.219Y-87.503
X201.981Y-85.217
X201.981Y-85.979
X201.981Y-86.741
X201.981Y-87.503
T2
X137.611Y-37.465
X137.611Y-38.665
X137.611Y-39.965
X137.611Y-41.065
X138.811Y-37.465
X138.811Y-38.665
X138.811Y-39.965
X138.811Y-41.065
T3
X67.945Y-38.354
X67.945Y-40.386
X67.945Y-55.118
X67.945Y-57.15
X67.945Y-59.182
X67.945Y-61.214
X67.945Y-63.246
X68.961Y-37.338
X68.961Y-39.37
X68.961Y-56.134
X68.961Y-58.166
X68.961Y-60.198
X68.961Y-62.23
X68.961Y-64.262
X69.977Y-36.322
X69.977Y-38.354
X69.977Y-40.386
X69.977Y-55.118
X69.977Y-57.15
X69.977Y-59.182
X70.993Y-37.338
X70.993Y-39.37
X70.993Y-41.402
X70.993Y-56.134
X70.993Y-58.166
X70.993Y-60.198
X72.009Y-36.322
X72.009Y-38.354
X72.009Y-40.386
X72.009Y-55.118
X72.009Y-57.15
X72.009Y-59.182
X73.025Y-37.338
X73.025Y-39.37
X73.025Y-56.134
X73.025Y-58.166
X73.025Y-60.198
X74.041Y-36.322
X74.041Y-38.354
X74.041Y-40.386
X74.041Y-55.118
X74.041Y-57.15
X74.041Y-59.182
X75.057Y-37.338
X75.057Y-39.37
X75.057Y-41.402
X75.057Y-43.434
X76.073Y-36.322
X76.073Y-38.354
X76.073Y-40.386
X76.073Y-42.418
X77.089Y-37.338
X77.089Y-39.37
X77.089Y-41.402
X78.105Y-36.322
X78.105Y-38.354
X78.105Y-40.386
X78.613Y-44.704
X78.613Y-45.72
X78.613Y-46.736
X78.613Y-47.752
X80.01Y-47.752
X81.407Y-44.704
X81.407Y-45.72
X81.407Y-46.736
X81.407Y-47.752
X84.963Y-47.625
X84.963Y-49.657
X85.979Y-44.577
X85.979Y-46.609
X85.979Y-48.641
X86.995Y-45.593
X86.995Y-47.625
X86.995Y-49.657
X88.011Y-44.577
X88.011Y-46.609
X88.011Y-48.641
X88.773Y-38.1
X88.773Y-39.116
X89.027Y-47.625
X89.027Y-49.657
X89.789Y-38.1
X89.789Y-39.116
X90.043Y-48.641
X90.805Y-38.1
X90.805Y-39.116
X91.059Y-47.625
X91.059Y-49.657
X91.821Y-38.1
X91.821Y-39.116
X92.075Y-44.577
X92.075Y-46.609
X92.075Y-48.641
X93.091Y-45.593
X93.091Y-47.625
X93.091Y-49.657
X94.107Y-44.577
X94.107Y-46.609
X94.107Y-48.641
X95.123Y-45.593
X95.123Y-47.625
X96.139Y-46.609
X107.696Y-40.64
X107.696Y-42.672
X107.696Y-44.704
X107.696Y-46.736
X107.696Y-48.768
X108.839Y-39.624
X108.839Y-41.656
X108.839Y-43.688
X108.839Y-45.72
X108.839Y-47.752
X108.839Y-49.784
X109.855Y-40.64
X109.855Y-42.672
X109.855Y-44.704
X109.855Y-46.736
X109.855Y-48.768
X109.855Y-50.8
X110.871Y-39.624
X110.871Y-41.656
X110.871Y-43.688
X110.871Y-45.72
X110.871Y-47.752
X110.871Y-49.784
X110.871Y-51.816
X111.887Y-40.64
X111.887Y-42.672
X111.887Y-44.704
X111.887Y-46.736
X111.887Y-48.768
X111.887Y-50.8
X112.903Y-39.624
X112.903Y-41.656
X112.903Y-43.688
X112.903Y-45.72
X112.903Y-47.752
X112.903Y-49.784
X112.903Y-51.816
X113.919Y-40.64
X113.919Y-42.672
X113.919Y-44.704
X113.919Y-46.736
X113.919Y-48.768
X113.919Y-50.8
X114.935Y-39.624
X114.935Y-41.656
X114.935Y-43.688
X114.935Y-45.72
X114.935Y-47.752
X114.935Y-49.784
X114.935Y-51.816
X115.951Y-40.64
X115.951Y-42.672
X115.951Y-44.704
X115.951Y-46.736
X115.951Y-48.768
X115.951Y-50.8
X116.967Y-39.624
X116.967Y-41.656
X116.967Y-43.688
X116.967Y-45.72
X116.967Y-47.752
X116.967Y-49.784
X116.967Y-51.816
X117.983Y-40.64
X117.983Y-42.672
X117.983Y-44.704
X117.983Y-46.736
X117.983Y-48.768
X117.983Y-50.8
X118.999Y-41.656
X118.999Y-43.688
X118.999Y-45.72
X118.999Y-47.752
X118.999Y-49.784
X118.999Y-51.816
X120.015Y-42.672
X120.015Y-44.704
X120.015Y-46.736
X120.015Y-48.768
X120.015Y-50.8
X121.031Y-43.688
X121.031Y-45.72
X121.031Y-47.752
X121.031Y-49.784
X121.031Y-51.816
X122.047Y-44.704
X122.047Y-46.736
X122.047Y-48.768
X122.047Y-50.8
X122.936Y-45.847
X123.063Y-47.752
X123.063Y-49.784
X123.952Y-46.863
X124.079Y-48.768
X124.968Y-47.879
X127.0Y-41.529
X136.525Y-24.003
X136.525Y-25.527
X136.525Y-27.051
X137.287Y-24.765
X137.287Y-26.289
X138.049Y-24.003
X138.049Y-25.527
X138.811Y-24.765
X139.573Y-24.003
X139.573Y-25.527
X140.335Y-24.765
X140.335Y-26.289
X141.097Y-24.003
X141.097Y-25.527
X141.097Y-27.051
T4
X182.228Y-45.609
X182.228Y-48.109
X182.228Y-50.609
X182.228Y-53.109
X187.706Y-56.388
X190.246Y-56.388
T5
X69.293Y-43.046
X69.293Y-52.966
X72.693Y-43.046
X72.693Y-52.966
T6
X192.292Y-45.72
X192.292Y-52.72
T7
X71.85Y-62.921
X79.05Y-62.921
X196.462Y-62.921
X203.662Y-62.921
T8
X55.116Y-106.342
X55.786Y-73.342
X55.786Y-81.342
X55.786Y-89.342
X55.786Y-97.342
X63.83Y-80.979
X63.83Y-97.624
X63.83Y-110.939
X67.617Y-122.678
X68.925Y-30.558
X80.472Y-29.995
X80.472Y-139.43
X85.779Y-80.979
X85.779Y-97.624
X85.779Y-110.939
X97.224Y-152.285
X106.472Y-29.995
X116.733Y-160.366
X137.668Y-163.122
X158.603Y-160.366
X168.864Y-29.995
X178.112Y-152.285
X189.827Y-80.979
X189.827Y-97.624
X189.827Y-110.939
X194.864Y-139.43
X194.864Y-29.995
X206.411Y-30.558
X207.719Y-122.678
X211.726Y-80.979
X211.726Y-97.624
X211.726Y-110.939
X219.55Y-73.342
X219.55Y-81.342
X219.55Y-89.342
X219.55Y-97.342
X220.22Y-106.342
T9
X93.853Y-29.995
X93.853Y-78.999
X93.853Y-89.662
X93.853Y-121.946
X93.853Y-130.696
X93.853Y-139.446
X151.854Y-29.995
X181.483Y-89.662
X181.483Y-100.076
X181.483Y-117.646
X181.483Y-139.446
T0
M30
