G04 #@! TF.GenerationSoftware,KiCad,Pcbnew,7.0.6*
G04 #@! TF.CreationDate,2023-12-26T10:42:54-08:00*
G04 #@! TF.ProjectId,midplate,6d696470-6c61-4746-952e-6b696361645f,rev?*
G04 #@! TF.SameCoordinates,Original*
G04 #@! TF.FileFunction,Soldermask,Bot*
G04 #@! TF.FilePolarity,Negative*
%FSLAX46Y46*%
G04 Gerber Fmt 4.6, Leading zero omitted, Abs format (unit mm)*
G04 Created by KiCad (PCBNEW 7.0.6) date 2023-12-26 10:42:54*
%MOMM*%
%LPD*%
G01*
G04 APERTURE LIST*
G04 Aperture macros list*
%AMRoundRect*
0 Rectangle with rounded corners*
0 $1 Rounding radius*
0 $2 $3 $4 $5 $6 $7 $8 $9 X,Y pos of 4 corners*
0 Add a 4 corners polygon primitive as box body*
4,1,4,$2,$3,$4,$5,$6,$7,$8,$9,$2,$3,0*
0 Add four circle primitives for the rounded corners*
1,1,$1+$1,$2,$3*
1,1,$1+$1,$4,$5*
1,1,$1+$1,$6,$7*
1,1,$1+$1,$8,$9*
0 Add four rect primitives between the rounded corners*
20,1,$1+$1,$2,$3,$4,$5,0*
20,1,$1+$1,$4,$5,$6,$7,0*
20,1,$1+$1,$6,$7,$8,$9,0*
20,1,$1+$1,$8,$9,$2,$3,0*%
G04 Aperture macros list end*
%ADD10C,0.010000*%
%ADD11C,3.903200*%
%ADD12C,6.403200*%
%ADD13C,4.700000*%
%ADD14R,1.700000X1.700000*%
%ADD15O,1.700000X1.700000*%
%ADD16RoundRect,0.102000X1.387500X-1.387500X1.387500X1.387500X-1.387500X1.387500X-1.387500X-1.387500X0*%
%ADD17C,2.979000*%
%ADD18C,2.983200*%
%ADD19RoundRect,0.102000X0.704000X-0.704000X0.704000X0.704000X-0.704000X0.704000X-0.704000X-0.704000X0*%
%ADD20C,1.612000*%
%ADD21O,3.404000X1.804000*%
%ADD22RoundRect,0.102000X-0.754000X0.754000X-0.754000X-0.754000X0.754000X-0.754000X0.754000X0.754000X0*%
%ADD23C,1.712000*%
%ADD24RoundRect,0.301600X-0.200000X-0.275000X0.200000X-0.275000X0.200000X0.275000X-0.200000X0.275000X0*%
%ADD25RoundRect,0.101600X-1.270000X0.635000X-1.270000X-0.635000X1.270000X-0.635000X1.270000X0.635000X0*%
%ADD26RoundRect,0.101600X-0.825000X1.715000X-0.825000X-1.715000X0.825000X-1.715000X0.825000X1.715000X0*%
%ADD27RoundRect,0.301600X0.200000X0.275000X-0.200000X0.275000X-0.200000X-0.275000X0.200000X-0.275000X0*%
%ADD28RoundRect,0.102000X-0.850000X-0.300000X0.850000X-0.300000X0.850000X0.300000X-0.850000X0.300000X0*%
%ADD29RoundRect,0.102000X1.400000X0.500000X-1.400000X0.500000X-1.400000X-0.500000X1.400000X-0.500000X0*%
%ADD30RoundRect,0.101600X1.270000X-0.635000X1.270000X0.635000X-1.270000X0.635000X-1.270000X-0.635000X0*%
%ADD31RoundRect,0.101600X0.825000X-1.715000X0.825000X1.715000X-0.825000X1.715000X-0.825000X-1.715000X0*%
G04 APERTURE END LIST*
D10*
X151514450Y-77353200D02*
X149712050Y-77353200D01*
X149712050Y-73770800D01*
X151514450Y-73770800D01*
X151514450Y-77353200D01*
G36*
X151514450Y-77353200D02*
G01*
X149712050Y-77353200D01*
X149712050Y-73770800D01*
X151514450Y-73770800D01*
X151514450Y-77353200D01*
G37*
X147259450Y-80158200D02*
X144567050Y-80158200D01*
X144567050Y-78735800D01*
X147259450Y-78735800D01*
X147259450Y-80158200D01*
G36*
X147259450Y-80158200D02*
G01*
X144567050Y-80158200D01*
X144567050Y-78735800D01*
X147259450Y-78735800D01*
X147259450Y-80158200D01*
G37*
X156659450Y-80158200D02*
X153967050Y-80158200D01*
X153967050Y-78735800D01*
X156659450Y-78735800D01*
X156659450Y-80158200D01*
G36*
X156659450Y-80158200D02*
G01*
X153967050Y-80158200D01*
X153967050Y-78735800D01*
X156659450Y-78735800D01*
X156659450Y-80158200D01*
G37*
X147259450Y-83158200D02*
X144567050Y-83158200D01*
X144567050Y-81735800D01*
X147259450Y-81735800D01*
X147259450Y-83158200D01*
G36*
X147259450Y-83158200D02*
G01*
X144567050Y-83158200D01*
X144567050Y-81735800D01*
X147259450Y-81735800D01*
X147259450Y-83158200D01*
G37*
X156659450Y-83158200D02*
X153967050Y-83158200D01*
X153967050Y-81735800D01*
X156659450Y-81735800D01*
X156659450Y-83158200D01*
G36*
X156659450Y-83158200D02*
G01*
X153967050Y-83158200D01*
X153967050Y-81735800D01*
X156659450Y-81735800D01*
X156659450Y-83158200D01*
G37*
X147259450Y-86158200D02*
X144567050Y-86158200D01*
X144567050Y-84735800D01*
X147259450Y-84735800D01*
X147259450Y-86158200D01*
G36*
X147259450Y-86158200D02*
G01*
X144567050Y-86158200D01*
X144567050Y-84735800D01*
X147259450Y-84735800D01*
X147259450Y-86158200D01*
G37*
X156659450Y-86158200D02*
X153967050Y-86158200D01*
X153967050Y-84735800D01*
X156659450Y-84735800D01*
X156659450Y-86158200D01*
G36*
X156659450Y-86158200D02*
G01*
X153967050Y-86158200D01*
X153967050Y-84735800D01*
X156659450Y-84735800D01*
X156659450Y-86158200D01*
G37*
X147259450Y-89158200D02*
X144567050Y-89158200D01*
X144567050Y-87735800D01*
X147259450Y-87735800D01*
X147259450Y-89158200D01*
G36*
X147259450Y-89158200D02*
G01*
X144567050Y-89158200D01*
X144567050Y-87735800D01*
X147259450Y-87735800D01*
X147259450Y-89158200D01*
G37*
X156659450Y-89158200D02*
X153967050Y-89158200D01*
X153967050Y-87735800D01*
X156659450Y-87735800D01*
X156659450Y-89158200D01*
G36*
X156659450Y-89158200D02*
G01*
X153967050Y-89158200D01*
X153967050Y-87735800D01*
X156659450Y-87735800D01*
X156659450Y-89158200D01*
G37*
X151514450Y-94123200D02*
X149712050Y-94123200D01*
X149712050Y-90540800D01*
X151514450Y-90540800D01*
X151514450Y-94123200D01*
G36*
X151514450Y-94123200D02*
G01*
X149712050Y-94123200D01*
X149712050Y-90540800D01*
X151514450Y-90540800D01*
X151514450Y-94123200D01*
G37*
D11*
X86796621Y-49459321D03*
X79596621Y-49459321D03*
D12*
X101600000Y-108484000D03*
D13*
X172611096Y-16532860D03*
X215465590Y-109216005D03*
X63532842Y-59880142D03*
X202611067Y-125968345D03*
D12*
X159600900Y-16532860D03*
D13*
X93526349Y-97476702D03*
X93526349Y-67516719D03*
X197574411Y-97476702D03*
X62863132Y-92880142D03*
X227297158Y-75880142D03*
X227966868Y-92880142D03*
X214157936Y-17096280D03*
X166350214Y-146903559D03*
D12*
X101600000Y-16532860D03*
D13*
X202611096Y-16532860D03*
X197574411Y-84161566D03*
X63532842Y-83880142D03*
X227297158Y-67880142D03*
X227297158Y-59880142D03*
D12*
X189230000Y-125984000D03*
D11*
X211408697Y-49459321D03*
X204208697Y-49459321D03*
D13*
X145415000Y-149659732D03*
D14*
X196469000Y-42926000D03*
D15*
X199009000Y-42926000D03*
D16*
X200039500Y-32258000D03*
D17*
X200039500Y-39258000D03*
D12*
X101600000Y-65537080D03*
D13*
X219473333Y-84161566D03*
D12*
X101600000Y-125984000D03*
X101600000Y-117234000D03*
D13*
X76672065Y-17096280D03*
X63532842Y-75880142D03*
X104971273Y-138822868D03*
D18*
X77040000Y-39504000D03*
X80440000Y-39504000D03*
X77040000Y-29584000D03*
X80440000Y-29584000D03*
D13*
X93526349Y-84161566D03*
X88218905Y-16532860D03*
D12*
X189230000Y-86614000D03*
D13*
X71576849Y-67516719D03*
D12*
X189230000Y-76200000D03*
D19*
X224646500Y-52657000D03*
D20*
X224646500Y-49657000D03*
X224646500Y-46657000D03*
D21*
X224646500Y-55907000D03*
X224646500Y-43407000D03*
D13*
X71576849Y-97476702D03*
X219473333Y-97476702D03*
X227297158Y-83880142D03*
X75364410Y-109216005D03*
X185858727Y-138822868D03*
X124479786Y-146903559D03*
X118218905Y-16532860D03*
X197574411Y-67516719D03*
X71576849Y-84161566D03*
X219473333Y-67516719D03*
D22*
X189975000Y-32147500D03*
D23*
X189975000Y-34647500D03*
X189975000Y-37147500D03*
X189975000Y-39647500D03*
D13*
X88218933Y-125968345D03*
D12*
X189230000Y-104184000D03*
D13*
X63532842Y-67880142D03*
D12*
X101600000Y-76200000D03*
D24*
X180901000Y-80580700D03*
X182551000Y-80580700D03*
D25*
X91654000Y-111657000D03*
X91654000Y-114657000D03*
D26*
X88234000Y-107772000D03*
X88234000Y-118542000D03*
D27*
X182551000Y-82231700D03*
X180901000Y-82231700D03*
D28*
X208350000Y-63125000D03*
X208350000Y-64375000D03*
X208350000Y-65625000D03*
X208350000Y-66875000D03*
D29*
X205000000Y-68725000D03*
X205000000Y-61275000D03*
D30*
X111038000Y-112498000D03*
X111038000Y-109498000D03*
D31*
X114458000Y-116383000D03*
X114458000Y-105613000D03*
M02*
