G04 #@! TF.GenerationSoftware,KiCad,Pcbnew,7.0.6*
G04 #@! TF.CreationDate,2023-12-26T10:42:54-08:00*
G04 #@! TF.ProjectId,midplate,6d696470-6c61-4746-952e-6b696361645f,rev?*
G04 #@! TF.SameCoordinates,Original*
G04 #@! TF.FileFunction,Soldermask,Top*
G04 #@! TF.FilePolarity,Negative*
%FSLAX46Y46*%
G04 Gerber Fmt 4.6, Leading zero omitted, Abs format (unit mm)*
G04 Created by KiCad (PCBNEW 7.0.6) date 2023-12-26 10:42:54*
%MOMM*%
%LPD*%
G01*
G04 APERTURE LIST*
G04 Aperture macros list*
%AMRoundRect*
0 Rectangle with rounded corners*
0 $1 Rounding radius*
0 $2 $3 $4 $5 $6 $7 $8 $9 X,Y pos of 4 corners*
0 Add a 4 corners polygon primitive as box body*
4,1,4,$2,$3,$4,$5,$6,$7,$8,$9,$2,$3,0*
0 Add four circle primitives for the rounded corners*
1,1,$1+$1,$2,$3*
1,1,$1+$1,$4,$5*
1,1,$1+$1,$6,$7*
1,1,$1+$1,$8,$9*
0 Add four rect primitives between the rounded corners*
20,1,$1+$1,$2,$3,$4,$5,0*
20,1,$1+$1,$4,$5,$6,$7,0*
20,1,$1+$1,$6,$7,$8,$9,0*
20,1,$1+$1,$8,$9,$2,$3,0*%
G04 Aperture macros list end*
%ADD10C,3.903200*%
%ADD11C,6.403200*%
%ADD12C,4.700000*%
%ADD13RoundRect,0.301600X0.200000X0.275000X-0.200000X0.275000X-0.200000X-0.275000X0.200000X-0.275000X0*%
%ADD14RoundRect,0.101600X-1.244600X0.469900X-1.244600X-0.469900X1.244600X-0.469900X1.244600X0.469900X0*%
%ADD15RoundRect,0.101600X-3.467100X3.390900X-3.467100X-3.390900X3.467100X-3.390900X3.467100X3.390900X0*%
%ADD16RoundRect,0.102000X-0.850000X-0.300000X0.850000X-0.300000X0.850000X0.300000X-0.850000X0.300000X0*%
%ADD17RoundRect,0.102000X1.400000X0.500000X-1.400000X0.500000X-1.400000X-0.500000X1.400000X-0.500000X0*%
%ADD18RoundRect,0.301600X-0.200000X-0.275000X0.200000X-0.275000X0.200000X0.275000X-0.200000X0.275000X0*%
%ADD19R,1.700000X1.700000*%
%ADD20O,1.700000X1.700000*%
%ADD21RoundRect,0.102000X1.387500X-1.387500X1.387500X1.387500X-1.387500X1.387500X-1.387500X-1.387500X0*%
%ADD22C,2.979000*%
%ADD23RoundRect,0.351600X0.900000X-1.000000X0.900000X1.000000X-0.900000X1.000000X-0.900000X-1.000000X0*%
%ADD24RoundRect,0.101600X-0.469900X-1.244600X0.469900X-1.244600X0.469900X1.244600X-0.469900X1.244600X0*%
%ADD25RoundRect,0.101600X-3.390900X-3.467100X3.390900X-3.467100X3.390900X3.467100X-3.390900X3.467100X0*%
%ADD26RoundRect,0.301600X-0.275000X0.200000X-0.275000X-0.200000X0.275000X-0.200000X0.275000X0.200000X0*%
%ADD27C,2.983200*%
%ADD28RoundRect,0.102000X0.704000X-0.704000X0.704000X0.704000X-0.704000X0.704000X-0.704000X-0.704000X0*%
%ADD29C,1.612000*%
%ADD30O,3.404000X1.804000*%
%ADD31RoundRect,0.301600X0.275000X-0.200000X0.275000X0.200000X-0.275000X0.200000X-0.275000X-0.200000X0*%
%ADD32RoundRect,0.102000X-0.754000X0.754000X-0.754000X-0.754000X0.754000X-0.754000X0.754000X0.754000X0*%
%ADD33C,1.712000*%
G04 APERTURE END LIST*
D10*
X86796621Y-49459321D03*
X79596621Y-49459321D03*
D11*
X101600000Y-108484000D03*
D12*
X172611096Y-16532860D03*
X215465590Y-109216005D03*
X63532842Y-59880142D03*
X202611067Y-125968345D03*
D11*
X159600900Y-16532860D03*
D12*
X93526349Y-97476702D03*
D13*
X123380000Y-24130000D03*
X121730000Y-24130000D03*
D12*
X93526349Y-67516719D03*
X197574411Y-97476702D03*
D14*
X103632000Y-26613749D03*
D15*
X110045500Y-28903750D03*
D14*
X103632000Y-31193751D03*
D12*
X62863132Y-92880142D03*
D16*
X191310000Y-69083400D03*
X191310000Y-67833400D03*
X191310000Y-66583400D03*
X191310000Y-65333400D03*
D17*
X187960000Y-63483400D03*
X187960000Y-70933400D03*
D12*
X227297158Y-75880142D03*
X227966868Y-92880142D03*
X214157936Y-17096280D03*
X166350214Y-146903559D03*
D11*
X101600000Y-16532860D03*
D12*
X202611096Y-16532860D03*
X197574411Y-84161566D03*
X63532842Y-83880142D03*
X227297158Y-67880142D03*
D18*
X192342000Y-43180000D03*
X193992000Y-43180000D03*
D12*
X227297158Y-59880142D03*
D11*
X189230000Y-125984000D03*
D10*
X211408697Y-49459321D03*
X204208697Y-49459321D03*
D12*
X145415000Y-149659732D03*
D19*
X196469000Y-42926000D03*
D20*
X199009000Y-42926000D03*
D21*
X200039500Y-32258000D03*
D22*
X200039500Y-39258000D03*
D11*
X101600000Y-65537080D03*
D12*
X219473333Y-84161566D03*
D23*
X97790000Y-32122000D03*
X97790000Y-27822000D03*
D24*
X87827749Y-32140000D03*
D25*
X90117750Y-25726500D03*
D24*
X92407751Y-32140000D03*
D11*
X101600000Y-125984000D03*
X101600000Y-117234000D03*
D12*
X76672065Y-17096280D03*
D14*
X126047500Y-25141999D03*
D15*
X132461000Y-27432000D03*
D14*
X126047500Y-29722001D03*
D12*
X63532842Y-75880142D03*
D26*
X102235000Y-36132000D03*
X102235000Y-37782000D03*
D12*
X104971273Y-138822868D03*
D27*
X77040000Y-39504000D03*
X80440000Y-39504000D03*
X77040000Y-29584000D03*
X80440000Y-29584000D03*
D12*
X93526349Y-84161566D03*
X88218905Y-16532860D03*
D11*
X189230000Y-86614000D03*
D12*
X71576849Y-67516719D03*
D11*
X189230000Y-76200000D03*
D28*
X224646500Y-52657000D03*
D29*
X224646500Y-49657000D03*
X224646500Y-46657000D03*
D30*
X224646500Y-55907000D03*
X224646500Y-43407000D03*
D12*
X71576849Y-97476702D03*
X219473333Y-97476702D03*
X227297158Y-83880142D03*
X75364410Y-109216005D03*
X185858727Y-138822868D03*
D31*
X121285000Y-29019000D03*
X121285000Y-27369000D03*
D18*
X104331000Y-24384000D03*
X105981000Y-24384000D03*
D12*
X124479786Y-146903559D03*
X118218905Y-16532860D03*
X197574411Y-67516719D03*
X71576849Y-84161566D03*
X219473333Y-67516719D03*
D32*
X189975000Y-32147500D03*
D33*
X189975000Y-34647500D03*
X189975000Y-37147500D03*
X189975000Y-39647500D03*
D12*
X88218933Y-125968345D03*
D11*
X189230000Y-104184000D03*
D12*
X63532842Y-67880142D03*
D11*
X101600000Y-76200000D03*
M02*
