G04 #@! TF.GenerationSoftware,KiCad,Pcbnew,7.0.6*
G04 #@! TF.CreationDate,2023-12-29T16:42:39-08:00*
G04 #@! TF.ProjectId,midplate,6d696470-6c61-4746-952e-6b696361645f,rev?*
G04 #@! TF.SameCoordinates,Original*
G04 #@! TF.FileFunction,Soldermask,Bot*
G04 #@! TF.FilePolarity,Negative*
%FSLAX46Y46*%
G04 Gerber Fmt 4.6, Leading zero omitted, Abs format (unit mm)*
G04 Created by KiCad (PCBNEW 7.0.6) date 2023-12-29 16:42:39*
%MOMM*%
%LPD*%
G01*
G04 APERTURE LIST*
G04 Aperture macros list*
%AMRoundRect*
0 Rectangle with rounded corners*
0 $1 Rounding radius*
0 $2 $3 $4 $5 $6 $7 $8 $9 X,Y pos of 4 corners*
0 Add a 4 corners polygon primitive as box body*
4,1,4,$2,$3,$4,$5,$6,$7,$8,$9,$2,$3,0*
0 Add four circle primitives for the rounded corners*
1,1,$1+$1,$2,$3*
1,1,$1+$1,$4,$5*
1,1,$1+$1,$6,$7*
1,1,$1+$1,$8,$9*
0 Add four rect primitives between the rounded corners*
20,1,$1+$1,$2,$3,$4,$5,0*
20,1,$1+$1,$4,$5,$6,$7,0*
20,1,$1+$1,$6,$7,$8,$9,0*
20,1,$1+$1,$8,$9,$2,$3,0*%
G04 Aperture macros list end*
%ADD10C,3.903200*%
%ADD11C,6.403200*%
%ADD12C,4.700000*%
%ADD13C,0.903200*%
%ADD14R,1.700000X1.700000*%
%ADD15O,1.700000X1.700000*%
%ADD16RoundRect,0.102000X1.387500X-1.387500X1.387500X1.387500X-1.387500X1.387500X-1.387500X-1.387500X0*%
%ADD17C,2.979000*%
%ADD18C,2.983200*%
%ADD19RoundRect,0.102000X-0.754000X0.754000X-0.754000X-0.754000X0.754000X-0.754000X0.754000X0.754000X0*%
%ADD20C,1.712000*%
%ADD21RoundRect,0.301600X-0.200000X-0.275000X0.200000X-0.275000X0.200000X0.275000X-0.200000X0.275000X0*%
%ADD22RoundRect,0.101600X1.308100X-0.673100X1.308100X0.673100X-1.308100X0.673100X-1.308100X-0.673100X0*%
%ADD23RoundRect,0.101600X0.863600X-1.752600X0.863600X1.752600X-0.863600X1.752600X-0.863600X-1.752600X0*%
%ADD24RoundRect,0.301600X0.200000X0.275000X-0.200000X0.275000X-0.200000X-0.275000X0.200000X-0.275000X0*%
%ADD25RoundRect,0.102000X-0.850000X-0.300000X0.850000X-0.300000X0.850000X0.300000X-0.850000X0.300000X0*%
%ADD26RoundRect,0.102000X1.400000X0.500000X-1.400000X0.500000X-1.400000X-0.500000X1.400000X-0.500000X0*%
%ADD27RoundRect,0.101600X-1.270000X0.635000X-1.270000X-0.635000X1.270000X-0.635000X1.270000X0.635000X0*%
%ADD28RoundRect,0.101600X-0.825500X1.714500X-0.825500X-1.714500X0.825500X-1.714500X0.825500X1.714500X0*%
G04 APERTURE END LIST*
D10*
X86796621Y-49459321D03*
X79596621Y-49459321D03*
D11*
X101600000Y-108484000D03*
D12*
X176611096Y-16532860D03*
D13*
X150011000Y-22468000D03*
X150011000Y-25468000D03*
X150011000Y-28468000D03*
X150011000Y-31468000D03*
X151511000Y-23968000D03*
X151511000Y-26968000D03*
X151511000Y-29968000D03*
X153011000Y-22468000D03*
X153011000Y-25468000D03*
X153011000Y-28468000D03*
X153011000Y-31468000D03*
X154511000Y-23968000D03*
X154511000Y-26968000D03*
X154511000Y-29968000D03*
X156011000Y-22468000D03*
X156011000Y-25468000D03*
X156011000Y-28468000D03*
X156011000Y-31468000D03*
D12*
X215465590Y-109216005D03*
X63532842Y-59880142D03*
X202611067Y-125968345D03*
D11*
X159600900Y-16532860D03*
D12*
X93526349Y-97476702D03*
X93526349Y-67516719D03*
X197574411Y-97476702D03*
X62863132Y-92880142D03*
X227297158Y-75880142D03*
X227966868Y-92880142D03*
X214157936Y-17096280D03*
X166350214Y-146903559D03*
D11*
X101600000Y-16532860D03*
D12*
X202611096Y-16532860D03*
X197574411Y-84161566D03*
X63532842Y-83880142D03*
X227297158Y-67880142D03*
X227297158Y-59880142D03*
D11*
X189230000Y-125984000D03*
D10*
X211408697Y-49459321D03*
X204208697Y-49459321D03*
D12*
X145415000Y-149659732D03*
D14*
X196469000Y-42926000D03*
D15*
X199009000Y-42926000D03*
D16*
X200039500Y-32258000D03*
D17*
X200039500Y-39258000D03*
D11*
X101600000Y-65537080D03*
D12*
X219473333Y-84161566D03*
D11*
X101600000Y-125984000D03*
X101600000Y-117234000D03*
D12*
X76672065Y-17096280D03*
X63532842Y-75880142D03*
X104971273Y-138822868D03*
D18*
X77040000Y-39504000D03*
X80440000Y-39504000D03*
X77040000Y-29584000D03*
X80440000Y-29584000D03*
D12*
X93526349Y-84161566D03*
X88218905Y-16532860D03*
D11*
X189230000Y-86614000D03*
D12*
X71576849Y-67516719D03*
D11*
X189230000Y-76200000D03*
D12*
X71576849Y-97476702D03*
X219473333Y-97476702D03*
X227297158Y-83880142D03*
X75364410Y-109216005D03*
X185858727Y-138822868D03*
X124479786Y-146903559D03*
X114218905Y-16532860D03*
X197574411Y-67516719D03*
X71576849Y-84161566D03*
X219473333Y-67516719D03*
D19*
X189975000Y-32147500D03*
D20*
X189975000Y-34647500D03*
X189975000Y-37147500D03*
X189975000Y-39647500D03*
D12*
X88218933Y-125968345D03*
D11*
X189230000Y-104184000D03*
D12*
X63532842Y-67880142D03*
D11*
X101600000Y-76200000D03*
D21*
X180901000Y-80580700D03*
X182551000Y-80580700D03*
D22*
X109893100Y-125833000D03*
X109893100Y-122833001D03*
D23*
X113093500Y-129540000D03*
X113093500Y-119126000D03*
D24*
X182551000Y-82231700D03*
X180901000Y-82231700D03*
D25*
X209350000Y-82286566D03*
X209350000Y-83536566D03*
X209350000Y-84786566D03*
X209350000Y-86036566D03*
D26*
X206000000Y-87886566D03*
X206000000Y-80436566D03*
D22*
X109893100Y-111228000D03*
X109893100Y-108228001D03*
D23*
X113093500Y-114935000D03*
X113093500Y-104521000D03*
D27*
X160334651Y-86772500D03*
X160334651Y-83772501D03*
X160334651Y-80772502D03*
X150934650Y-86772500D03*
X150934650Y-83772501D03*
X150934650Y-80772502D03*
D28*
X155634650Y-77137501D03*
X155634650Y-90407501D03*
M02*
