M48
; DRILL file {KiCad 7.0.6} date Thu Dec 28 15:33:24 2023
; FORMAT={-:-/ absolute / metric / decimal}
; #@! TF.CreationDate,2023-12-28T15:33:24-08:00
; #@! TF.GenerationSoftware,Kicad,Pcbnew,7.0.6
; #@! TF.FileFunction,Plated,1,2,PTH
FMAT,2
METRIC
; #@! TA.AperFunction,Plated,PTH,ViaDrill
T1C0.200
; #@! TA.AperFunction,Plated,PTH,ViaDrill
T2C0.350
; #@! TA.AperFunction,Plated,PTH,ComponentDrill
T3C1.000
; #@! TA.AperFunction,Plated,PTH,ComponentDrill
T4C1.780
; #@! TA.AperFunction,Plated,PTH,ComponentDrill
T5C1.850
; #@! TA.AperFunction,Plated,PTH,ComponentDrill
T6C2.300
; #@! TA.AperFunction,Plated,PTH,ComponentDrill
T7C2.700
; #@! TA.AperFunction,Plated,PTH,ComponentDrill
T8C3.700
%
G90
G05
T1
X103.505Y-38.659
X107.264Y-22.631
X110.744Y-130.302
X110.744Y-131.826
X110.871Y-102.108
X110.871Y-103.632
X111.506Y-129.54
X111.506Y-131.064
X111.506Y-132.588
X111.633Y-101.346
X111.633Y-102.87
X111.633Y-104.394
X112.268Y-131.826
X112.268Y-133.35
X112.395Y-100.584
X112.395Y-102.108
X113.03Y-132.588
X113.157Y-101.346
X113.157Y-110.871
X113.157Y-112.395
X113.157Y-121.539
X113.157Y-123.063
X113.792Y-131.826
X113.792Y-133.35
X113.919Y-100.584
X113.919Y-102.108
X113.919Y-110.109
X113.919Y-111.633
X113.919Y-122.301
X113.919Y-123.825
X114.554Y-129.54
X114.554Y-131.064
X114.554Y-132.588
X114.681Y-101.346
X114.681Y-102.87
X114.681Y-104.394
X114.681Y-110.871
X114.681Y-112.395
X114.681Y-113.919
X114.681Y-115.443
X114.681Y-116.967
X114.681Y-118.491
X114.681Y-120.015
X114.681Y-121.539
X114.681Y-123.063
X115.316Y-130.302
X115.316Y-131.826
X115.443Y-102.108
X115.443Y-103.632
X115.443Y-111.633
X115.443Y-113.157
X115.443Y-114.681
X115.443Y-116.205
X115.443Y-117.729
X115.443Y-119.253
X115.443Y-120.777
X115.443Y-122.301
X148.336Y-71.12
X148.336Y-72.644
X148.336Y-93.726
X148.336Y-95.25
X149.098Y-70.358
X149.098Y-71.882
X149.098Y-73.406
X149.098Y-92.964
X149.098Y-94.488
X149.098Y-96.012
X149.86Y-69.596
X149.86Y-71.12
X149.86Y-72.644
X149.86Y-74.168
X149.86Y-92.202
X149.86Y-93.726
X149.86Y-95.25
X149.86Y-96.774
X150.622Y-70.358
X150.622Y-71.882
X150.622Y-73.406
X150.622Y-92.964
X150.622Y-94.488
X150.622Y-96.012
X151.384Y-69.596
X151.384Y-71.12
X151.384Y-72.644
X151.384Y-74.168
X151.384Y-92.202
X151.384Y-93.726
X151.384Y-95.25
X151.384Y-96.774
X152.146Y-70.358
X152.146Y-71.882
X152.146Y-73.406
X152.146Y-92.964
X152.146Y-94.488
X152.146Y-96.012
X152.908Y-71.12
X152.908Y-72.644
X152.908Y-93.726
X152.908Y-95.25
X183.506Y-65.278
X184.286Y-65.278
X187.071Y-68.961
X187.071Y-69.85
X187.198Y-61.341
X187.198Y-62.23
X187.198Y-64.516
X187.198Y-65.405
X187.96Y-68.961
X187.96Y-69.85
X188.087Y-61.341
X188.087Y-62.23
X188.087Y-64.516
X188.087Y-65.405
X188.849Y-68.961
X188.849Y-69.85
X188.976Y-61.341
X188.976Y-62.23
X188.976Y-64.516
X188.976Y-65.405
X194.809Y-41.275
X195.589Y-41.275
X205.105Y-78.613
X205.105Y-79.375
X205.105Y-81.534
X205.105Y-82.296
X205.105Y-86.106
X205.105Y-86.868
X205.105Y-89.027
X205.105Y-89.789
X205.994Y-78.613
X205.994Y-79.375
X205.994Y-81.534
X205.994Y-82.296
X205.994Y-86.106
X205.994Y-86.868
X205.994Y-89.027
X205.994Y-89.789
X206.883Y-78.613
X206.883Y-79.375
X206.883Y-81.534
X206.883Y-82.296
X206.883Y-86.106
X206.883Y-86.868
X206.883Y-89.027
X206.883Y-89.789
X208.966Y-71.755
X208.966Y-72.517
X208.966Y-73.279
X208.966Y-74.041
X209.728Y-71.755
X209.728Y-72.517
X209.728Y-73.279
X209.728Y-74.041
T2
X75.692Y-24.892
X75.692Y-26.924
X75.692Y-41.656
X75.692Y-43.688
X75.692Y-45.72
X75.692Y-47.752
X75.692Y-49.784
X76.708Y-23.876
X76.708Y-25.908
X76.708Y-42.672
X76.708Y-44.704
X76.708Y-46.736
X76.708Y-48.768
X76.708Y-50.8
X77.724Y-22.86
X77.724Y-24.892
X77.724Y-26.924
X77.724Y-41.656
X77.724Y-43.688
X77.724Y-45.72
X78.74Y-23.876
X78.74Y-25.908
X78.74Y-27.94
X78.74Y-42.672
X78.74Y-44.704
X78.74Y-46.736
X79.756Y-22.86
X79.756Y-24.892
X79.756Y-26.924
X79.756Y-41.656
X79.756Y-43.688
X79.756Y-45.72
X80.772Y-23.876
X80.772Y-25.908
X80.772Y-42.672
X80.772Y-44.704
X80.772Y-46.736
X81.788Y-22.86
X81.788Y-24.892
X81.788Y-26.924
X81.788Y-41.656
X81.788Y-43.688
X81.788Y-45.72
X82.804Y-23.876
X82.804Y-25.908
X82.804Y-27.94
X82.804Y-29.972
X83.82Y-22.86
X83.82Y-24.892
X83.82Y-26.924
X83.82Y-28.956
X84.836Y-23.876
X84.836Y-25.908
X84.836Y-27.94
X85.852Y-22.86
X85.852Y-24.892
X85.852Y-26.924
X86.36Y-31.242
X86.36Y-32.258
X86.36Y-33.274
X86.36Y-34.29
X87.757Y-34.29
X89.154Y-31.242
X89.154Y-32.258
X89.154Y-33.274
X89.154Y-34.29
X92.71Y-34.163
X92.71Y-36.195
X93.726Y-31.115
X93.726Y-33.147
X93.726Y-35.179
X94.742Y-32.131
X94.742Y-34.163
X94.742Y-36.195
X95.758Y-31.115
X95.758Y-33.147
X95.758Y-35.179
X96.52Y-24.638
X96.52Y-25.654
X96.774Y-34.163
X96.774Y-36.195
X97.536Y-24.638
X97.536Y-25.654
X97.79Y-35.179
X98.552Y-24.638
X98.552Y-25.654
X98.806Y-34.163
X98.806Y-36.195
X99.568Y-24.638
X99.568Y-25.654
X99.822Y-31.115
X99.822Y-33.147
X99.822Y-35.179
X100.838Y-32.131
X100.838Y-34.163
X100.838Y-36.195
X101.854Y-31.115
X101.854Y-33.147
X101.854Y-35.179
X102.87Y-32.131
X102.87Y-34.163
X103.886Y-33.147
X109.474Y-33.274
X110.49Y-24.13
X110.49Y-34.29
X111.506Y-33.274
X111.506Y-35.306
X112.522Y-24.13
X112.522Y-34.29
X113.538Y-33.274
X113.538Y-35.306
X114.554Y-24.13
X114.554Y-26.162
X114.554Y-28.194
X114.554Y-30.226
X114.554Y-32.258
X114.554Y-34.29
X115.57Y-25.146
X115.57Y-27.178
X115.57Y-29.21
X115.57Y-31.242
X115.57Y-33.274
X115.57Y-35.306
X116.586Y-24.13
X116.586Y-26.162
X116.586Y-28.194
X116.586Y-30.226
X116.586Y-32.258
X116.586Y-34.29
X117.602Y-25.146
X117.602Y-27.178
X117.602Y-29.21
X117.602Y-31.242
X117.602Y-33.274
X117.602Y-35.306
X118.618Y-24.13
X118.618Y-26.162
X118.618Y-28.194
X118.618Y-30.226
X118.618Y-32.258
X118.618Y-34.29
X119.634Y-25.146
X119.634Y-27.178
X119.634Y-29.21
X119.634Y-31.242
X119.634Y-33.274
X119.634Y-35.306
X120.65Y-24.13
X120.65Y-26.162
X120.65Y-28.194
X120.65Y-30.226
X120.65Y-32.258
X120.65Y-34.29
X121.666Y-25.146
X121.666Y-27.178
X121.666Y-29.21
X121.666Y-31.242
X121.666Y-33.274
X121.666Y-35.306
X122.682Y-24.13
X122.682Y-26.162
X122.682Y-28.194
X122.682Y-30.226
X122.682Y-32.258
X122.682Y-34.29
X123.698Y-25.146
X123.698Y-27.178
X123.698Y-29.21
X123.698Y-31.242
X123.698Y-33.274
X123.698Y-35.306
X124.714Y-24.13
X124.714Y-26.162
X124.714Y-28.194
X124.714Y-30.226
X124.714Y-32.258
X124.714Y-34.29
X125.73Y-25.146
X125.73Y-27.178
X125.73Y-29.21
X125.73Y-31.242
X125.73Y-33.274
X125.73Y-35.306
X126.746Y-24.13
X126.746Y-26.162
X126.746Y-28.194
X126.746Y-30.226
X126.746Y-32.258
X126.746Y-34.29
X127.762Y-25.146
X127.762Y-27.178
X127.762Y-29.21
X127.762Y-31.242
X127.762Y-33.274
X127.762Y-35.306
X128.778Y-24.13
X128.778Y-26.162
X128.778Y-28.194
X128.778Y-30.226
X128.778Y-32.258
X128.778Y-34.29
X129.794Y-25.146
X129.794Y-27.178
X129.794Y-29.21
X129.794Y-31.242
X129.794Y-33.274
X129.794Y-35.306
X130.81Y-24.13
X130.81Y-26.162
X130.81Y-28.194
X130.81Y-30.226
X130.81Y-32.258
X130.81Y-34.29
X131.826Y-25.146
X131.826Y-27.178
X131.826Y-29.21
X131.826Y-31.242
X131.826Y-33.274
X131.826Y-35.306
X132.842Y-24.13
X132.842Y-26.162
X132.842Y-28.194
X132.842Y-30.226
X132.842Y-32.258
X132.842Y-34.29
X133.858Y-25.146
X133.858Y-27.178
X133.858Y-29.21
X133.858Y-31.242
X133.858Y-33.274
X133.858Y-35.306
X134.874Y-24.13
X134.874Y-26.162
X134.874Y-28.194
X134.874Y-30.226
X134.874Y-32.258
X134.874Y-34.29
X135.89Y-25.146
X135.89Y-27.178
X135.89Y-29.21
X135.89Y-31.242
X135.89Y-33.274
X135.89Y-35.306
X136.906Y-26.162
X136.906Y-28.194
X136.906Y-30.226
X136.906Y-32.258
X136.906Y-34.29
X137.922Y-27.178
X137.922Y-29.21
X137.922Y-31.242
X137.922Y-33.274
X137.922Y-35.306
X138.938Y-28.194
X138.938Y-30.226
X138.938Y-32.258
X138.938Y-34.29
X139.954Y-29.21
X139.954Y-31.242
X139.954Y-33.274
X139.954Y-35.306
X140.97Y-30.226
X140.97Y-32.258
X140.97Y-34.29
X141.986Y-31.242
X141.986Y-33.274
X141.986Y-35.306
X143.002Y-32.258
X143.002Y-34.29
X156.21Y-25.044
T3
X189.975Y-32.148
X189.975Y-34.648
X189.975Y-37.148
X189.975Y-39.648
X196.469Y-42.926
X199.009Y-42.926
T4
X77.04Y-29.584
X77.04Y-39.504
X80.44Y-29.584
X80.44Y-39.504
T5
X200.04Y-32.258
X200.04Y-39.258
T6
X79.597Y-49.459
X86.797Y-49.459
X204.209Y-49.459
X211.409Y-49.459
T7
X62.863Y-92.88
X63.533Y-59.88
X63.533Y-67.88
X63.533Y-75.88
X63.533Y-83.88
X71.577Y-67.517
X71.577Y-84.162
X71.577Y-97.477
X75.364Y-109.216
X76.672Y-17.096
X88.219Y-16.533
X88.219Y-125.968
X93.526Y-67.517
X93.526Y-84.162
X93.526Y-97.477
X104.971Y-138.823
X118.219Y-16.533
X124.48Y-146.904
X145.415Y-149.66
X166.35Y-146.904
X172.611Y-16.533
X185.859Y-138.823
X197.574Y-67.517
X197.574Y-84.162
X197.574Y-97.477
X202.611Y-125.968
X202.611Y-16.533
X214.158Y-17.096
X215.466Y-109.216
X219.473Y-67.517
X219.473Y-84.162
X219.473Y-97.477
X227.297Y-59.88
X227.297Y-67.88
X227.297Y-75.88
X227.297Y-83.88
X227.967Y-92.88
T8
X101.6Y-16.533
X101.6Y-65.537
X101.6Y-76.2
X101.6Y-108.484
X101.6Y-117.234
X101.6Y-125.984
X159.601Y-16.533
X189.23Y-76.2
X189.23Y-86.614
X189.23Y-104.184
X189.23Y-125.984
T0
M30
