G04 #@! TF.GenerationSoftware,KiCad,Pcbnew,7.0.6*
G04 #@! TF.CreationDate,2024-01-15T22:12:01-08:00*
G04 #@! TF.ProjectId,midplate,6d696470-6c61-4746-952e-6b696361645f,rev?*
G04 #@! TF.SameCoordinates,Original*
G04 #@! TF.FileFunction,Legend,Bot*
G04 #@! TF.FilePolarity,Positive*
%FSLAX46Y46*%
G04 Gerber Fmt 4.6, Leading zero omitted, Abs format (unit mm)*
G04 Created by KiCad (PCBNEW 7.0.6) date 2024-01-15 22:12:01*
%MOMM*%
%LPD*%
G01*
G04 APERTURE LIST*
G04 Aperture macros list*
%AMRoundRect*
0 Rectangle with rounded corners*
0 $1 Rounding radius*
0 $2 $3 $4 $5 $6 $7 $8 $9 X,Y pos of 4 corners*
0 Add a 4 corners polygon primitive as box body*
4,1,4,$2,$3,$4,$5,$6,$7,$8,$9,$2,$3,0*
0 Add four circle primitives for the rounded corners*
1,1,$1+$1,$2,$3*
1,1,$1+$1,$4,$5*
1,1,$1+$1,$6,$7*
1,1,$1+$1,$8,$9*
0 Add four rect primitives between the rounded corners*
20,1,$1+$1,$2,$3,$4,$5,0*
20,1,$1+$1,$4,$5,$6,$7,0*
20,1,$1+$1,$6,$7,$8,$9,0*
20,1,$1+$1,$8,$9,$2,$3,0*%
G04 Aperture macros list end*
%ADD10C,0.150000*%
%ADD11C,0.120000*%
%ADD12C,0.152400*%
%ADD13C,0.508000*%
%ADD14C,0.127000*%
%ADD15C,0.200000*%
%ADD16R,1.700000X1.700000*%
%ADD17O,1.700000X1.700000*%
%ADD18C,3.903200*%
%ADD19C,6.403200*%
%ADD20C,4.700000*%
%ADD21RoundRect,0.102000X1.387500X-1.387500X1.387500X1.387500X-1.387500X1.387500X-1.387500X-1.387500X0*%
%ADD22C,2.979000*%
%ADD23C,2.983200*%
%ADD24RoundRect,0.102000X-0.754000X0.754000X-0.754000X-0.754000X0.754000X-0.754000X0.754000X0.754000X0*%
%ADD25C,1.712000*%
%ADD26RoundRect,0.301600X-0.200000X-0.275000X0.200000X-0.275000X0.200000X0.275000X-0.200000X0.275000X0*%
%ADD27RoundRect,0.101600X1.308100X-0.673100X1.308100X0.673100X-1.308100X0.673100X-1.308100X-0.673100X0*%
%ADD28RoundRect,0.101600X0.863600X-1.752600X0.863600X1.752600X-0.863600X1.752600X-0.863600X-1.752600X0*%
%ADD29RoundRect,0.301600X0.200000X0.275000X-0.200000X0.275000X-0.200000X-0.275000X0.200000X-0.275000X0*%
%ADD30RoundRect,0.102000X-0.850000X-0.300000X0.850000X-0.300000X0.850000X0.300000X-0.850000X0.300000X0*%
%ADD31RoundRect,0.102000X1.400000X0.500000X-1.400000X0.500000X-1.400000X-0.500000X1.400000X-0.500000X0*%
%ADD32RoundRect,0.101600X-1.270000X0.635000X-1.270000X-0.635000X1.270000X-0.635000X1.270000X0.635000X0*%
%ADD33RoundRect,0.101600X-0.825500X1.714500X-0.825500X-1.714500X0.825500X-1.714500X0.825500X1.714500X0*%
G04 APERTURE END LIST*
D10*
X174105866Y-97711419D02*
X174439199Y-97235228D01*
X174677294Y-97711419D02*
X174677294Y-96711419D01*
X174677294Y-96711419D02*
X174296342Y-96711419D01*
X174296342Y-96711419D02*
X174201104Y-96759038D01*
X174201104Y-96759038D02*
X174153485Y-96806657D01*
X174153485Y-96806657D02*
X174105866Y-96901895D01*
X174105866Y-96901895D02*
X174105866Y-97044752D01*
X174105866Y-97044752D02*
X174153485Y-97139990D01*
X174153485Y-97139990D02*
X174201104Y-97187609D01*
X174201104Y-97187609D02*
X174296342Y-97235228D01*
X174296342Y-97235228D02*
X174677294Y-97235228D01*
X173248723Y-97044752D02*
X173248723Y-97711419D01*
X173486818Y-96663800D02*
X173724913Y-97378085D01*
X173724913Y-97378085D02*
X173105866Y-97378085D01*
X99691280Y-135878333D02*
X98976995Y-135878333D01*
X98976995Y-135878333D02*
X98834138Y-135925952D01*
X98834138Y-135925952D02*
X98738900Y-136021190D01*
X98738900Y-136021190D02*
X98691280Y-136164047D01*
X98691280Y-136164047D02*
X98691280Y-136259285D01*
X99357947Y-134973571D02*
X98691280Y-134973571D01*
X99738900Y-135211666D02*
X99024614Y-135449761D01*
X99024614Y-135449761D02*
X99024614Y-134830714D01*
X174004266Y-93088619D02*
X174337599Y-92612428D01*
X174575694Y-93088619D02*
X174575694Y-92088619D01*
X174575694Y-92088619D02*
X174194742Y-92088619D01*
X174194742Y-92088619D02*
X174099504Y-92136238D01*
X174099504Y-92136238D02*
X174051885Y-92183857D01*
X174051885Y-92183857D02*
X174004266Y-92279095D01*
X174004266Y-92279095D02*
X174004266Y-92421952D01*
X174004266Y-92421952D02*
X174051885Y-92517190D01*
X174051885Y-92517190D02*
X174099504Y-92564809D01*
X174099504Y-92564809D02*
X174194742Y-92612428D01*
X174194742Y-92612428D02*
X174575694Y-92612428D01*
X173099504Y-92088619D02*
X173575694Y-92088619D01*
X173575694Y-92088619D02*
X173623313Y-92564809D01*
X173623313Y-92564809D02*
X173575694Y-92517190D01*
X173575694Y-92517190D02*
X173480456Y-92469571D01*
X173480456Y-92469571D02*
X173242361Y-92469571D01*
X173242361Y-92469571D02*
X173147123Y-92517190D01*
X173147123Y-92517190D02*
X173099504Y-92564809D01*
X173099504Y-92564809D02*
X173051885Y-92660047D01*
X173051885Y-92660047D02*
X173051885Y-92898142D01*
X173051885Y-92898142D02*
X173099504Y-92993380D01*
X173099504Y-92993380D02*
X173147123Y-93041000D01*
X173147123Y-93041000D02*
X173242361Y-93088619D01*
X173242361Y-93088619D02*
X173480456Y-93088619D01*
X173480456Y-93088619D02*
X173575694Y-93041000D01*
X173575694Y-93041000D02*
X173623313Y-92993380D01*
X203315819Y-98774042D02*
X204030104Y-98774042D01*
X204030104Y-98774042D02*
X204172961Y-98726423D01*
X204172961Y-98726423D02*
X204268200Y-98631185D01*
X204268200Y-98631185D02*
X204315819Y-98488328D01*
X204315819Y-98488328D02*
X204315819Y-98393090D01*
X204315819Y-99774042D02*
X204315819Y-99202614D01*
X204315819Y-99488328D02*
X203315819Y-99488328D01*
X203315819Y-99488328D02*
X203458676Y-99393090D01*
X203458676Y-99393090D02*
X203553914Y-99297852D01*
X203553914Y-99297852D02*
X203601533Y-99202614D01*
X203315819Y-100107376D02*
X203315819Y-100726423D01*
X203315819Y-100726423D02*
X203696771Y-100393090D01*
X203696771Y-100393090D02*
X203696771Y-100535947D01*
X203696771Y-100535947D02*
X203744390Y-100631185D01*
X203744390Y-100631185D02*
X203792009Y-100678804D01*
X203792009Y-100678804D02*
X203887247Y-100726423D01*
X203887247Y-100726423D02*
X204125342Y-100726423D01*
X204125342Y-100726423D02*
X204220580Y-100678804D01*
X204220580Y-100678804D02*
X204268200Y-100631185D01*
X204268200Y-100631185D02*
X204315819Y-100535947D01*
X204315819Y-100535947D02*
X204315819Y-100250233D01*
X204315819Y-100250233D02*
X204268200Y-100154995D01*
X204268200Y-100154995D02*
X204220580Y-100107376D01*
X184380666Y-55031819D02*
X184713999Y-54555628D01*
X184952094Y-55031819D02*
X184952094Y-54031819D01*
X184952094Y-54031819D02*
X184571142Y-54031819D01*
X184571142Y-54031819D02*
X184475904Y-54079438D01*
X184475904Y-54079438D02*
X184428285Y-54127057D01*
X184428285Y-54127057D02*
X184380666Y-54222295D01*
X184380666Y-54222295D02*
X184380666Y-54365152D01*
X184380666Y-54365152D02*
X184428285Y-54460390D01*
X184428285Y-54460390D02*
X184475904Y-54508009D01*
X184475904Y-54508009D02*
X184571142Y-54555628D01*
X184571142Y-54555628D02*
X184952094Y-54555628D01*
X184047332Y-54031819D02*
X183428285Y-54031819D01*
X183428285Y-54031819D02*
X183761618Y-54412771D01*
X183761618Y-54412771D02*
X183618761Y-54412771D01*
X183618761Y-54412771D02*
X183523523Y-54460390D01*
X183523523Y-54460390D02*
X183475904Y-54508009D01*
X183475904Y-54508009D02*
X183428285Y-54603247D01*
X183428285Y-54603247D02*
X183428285Y-54841342D01*
X183428285Y-54841342D02*
X183475904Y-54936580D01*
X183475904Y-54936580D02*
X183523523Y-54984200D01*
X183523523Y-54984200D02*
X183618761Y-55031819D01*
X183618761Y-55031819D02*
X183904475Y-55031819D01*
X183904475Y-55031819D02*
X183999713Y-54984200D01*
X183999713Y-54984200D02*
X184047332Y-54936580D01*
X99691280Y-121273333D02*
X98976995Y-121273333D01*
X98976995Y-121273333D02*
X98834138Y-121320952D01*
X98834138Y-121320952D02*
X98738900Y-121416190D01*
X98738900Y-121416190D02*
X98691280Y-121559047D01*
X98691280Y-121559047D02*
X98691280Y-121654285D01*
X99691280Y-120320952D02*
X99691280Y-120797142D01*
X99691280Y-120797142D02*
X99215090Y-120844761D01*
X99215090Y-120844761D02*
X99262709Y-120797142D01*
X99262709Y-120797142D02*
X99310328Y-120701904D01*
X99310328Y-120701904D02*
X99310328Y-120463809D01*
X99310328Y-120463809D02*
X99262709Y-120368571D01*
X99262709Y-120368571D02*
X99215090Y-120320952D01*
X99215090Y-120320952D02*
X99119852Y-120273333D01*
X99119852Y-120273333D02*
X98881757Y-120273333D01*
X98881757Y-120273333D02*
X98786519Y-120320952D01*
X98786519Y-120320952D02*
X98738900Y-120368571D01*
X98738900Y-120368571D02*
X98691280Y-120463809D01*
X98691280Y-120463809D02*
X98691280Y-120701904D01*
X98691280Y-120701904D02*
X98738900Y-120797142D01*
X98738900Y-120797142D02*
X98786519Y-120844761D01*
X152042469Y-90901166D02*
X152756754Y-90901166D01*
X152756754Y-90901166D02*
X152899611Y-90853547D01*
X152899611Y-90853547D02*
X152994850Y-90758309D01*
X152994850Y-90758309D02*
X153042469Y-90615452D01*
X153042469Y-90615452D02*
X153042469Y-90520214D01*
X152042469Y-91282119D02*
X152042469Y-91948785D01*
X152042469Y-91948785D02*
X153042469Y-91520214D01*
D11*
X173741742Y-93520200D02*
X174216258Y-93520200D01*
X173741742Y-94565200D02*
X174216258Y-94565200D01*
D12*
X103339900Y-142925800D02*
X103339900Y-140300840D01*
X104150160Y-142925800D02*
X103339900Y-142925800D01*
X107962700Y-142925800D02*
X106542840Y-142925800D01*
X103339900Y-138289160D02*
X103339900Y-137300841D01*
X103339900Y-135289161D02*
X103339900Y-132664200D01*
X103339900Y-132664200D02*
X104150160Y-132664200D01*
X106542840Y-132664200D02*
X107962700Y-132664200D01*
X107962700Y-132664200D02*
X107962700Y-142925800D01*
D13*
X100241100Y-138914001D02*
G75*
G03*
X100327460Y-139666082I0J-380999D01*
G01*
D11*
X174216258Y-96216200D02*
X173741742Y-96216200D01*
X174216258Y-95171200D02*
X173741742Y-95171200D01*
D14*
X199973000Y-101748566D02*
X201403000Y-101748566D01*
X201403000Y-101748566D02*
X201403000Y-100123566D01*
X197153000Y-100523566D02*
X197153000Y-94723566D01*
X201403000Y-95123566D02*
X201403000Y-93498566D01*
X199973000Y-93498566D02*
X201403000Y-93498566D01*
D15*
X203153000Y-95748566D02*
G75*
G03*
X203153000Y-95748566I-100000J0D01*
G01*
D11*
X184451258Y-56529500D02*
X183976742Y-56529500D01*
X184451258Y-55484500D02*
X183976742Y-55484500D01*
D12*
X103339900Y-128320800D02*
X103339900Y-125695840D01*
X104150160Y-128320800D02*
X103339900Y-128320800D01*
X107962700Y-128320800D02*
X106542840Y-128320800D01*
X103339900Y-123684160D02*
X103339900Y-122695841D01*
X103339900Y-120684161D02*
X103339900Y-118059200D01*
X103339900Y-118059200D02*
X104150160Y-118059200D01*
X106542840Y-118059200D02*
X107962700Y-118059200D01*
X107962700Y-118059200D02*
X107962700Y-128320800D01*
D13*
X100241100Y-124309001D02*
G75*
G03*
X100327460Y-125061082I0J-380999D01*
G01*
D12*
X151443650Y-90605101D02*
X151443650Y-93266762D01*
X149045890Y-90605101D02*
X151443650Y-90605101D01*
X144331650Y-90605101D02*
X146729410Y-90605101D01*
X144331650Y-93266762D02*
X144331650Y-90605101D01*
X151443650Y-95202242D02*
X151443650Y-96266761D01*
X144331650Y-96266761D02*
X144331650Y-95202242D01*
X151443650Y-98202241D02*
X151443650Y-99266760D01*
X144331650Y-99266760D02*
X144331650Y-98202241D01*
D14*
X155582650Y-99879500D02*
X155582650Y-100679500D01*
X154882650Y-100279500D02*
X155582650Y-99879500D01*
X155582650Y-100679500D02*
X154882650Y-100279500D01*
D12*
X151443650Y-101202240D02*
X151443650Y-103863901D01*
X151443650Y-103863901D02*
X149045890Y-103863901D01*
X146729410Y-103863901D02*
X144331650Y-103863901D01*
X144331650Y-103863901D02*
X144331650Y-101202240D01*
%LPC*%
D16*
X190246000Y-56388000D03*
D17*
X187706000Y-56388000D03*
D18*
X79049621Y-62921321D03*
X71849621Y-62921321D03*
D19*
X93853000Y-121946000D03*
D20*
X168864096Y-29994860D03*
X207718590Y-122678005D03*
X55785842Y-73342142D03*
X194864067Y-139430345D03*
D19*
X151853900Y-29994860D03*
D20*
X85779349Y-110938702D03*
X85779349Y-80978719D03*
X189827411Y-110938702D03*
X55116132Y-106342142D03*
X219550158Y-89342142D03*
X220219868Y-106342142D03*
X206410936Y-30558280D03*
X158603214Y-160365559D03*
D19*
X93853000Y-29994860D03*
D20*
X194864096Y-29994860D03*
X189827411Y-97623566D03*
X55785842Y-97342142D03*
X219550158Y-81342142D03*
X219550158Y-73342142D03*
D19*
X181483000Y-139446000D03*
D18*
X203661697Y-62921321D03*
X196461697Y-62921321D03*
D20*
X137668000Y-163121732D03*
D21*
X192292500Y-45720000D03*
D22*
X192292500Y-52720000D03*
D19*
X93853000Y-78999080D03*
D20*
X211726333Y-97623566D03*
D19*
X93853000Y-139446000D03*
X93853000Y-130696000D03*
D20*
X68925065Y-30558280D03*
X55785842Y-89342142D03*
X97224273Y-152284868D03*
D23*
X69293000Y-52966000D03*
X72693000Y-52966000D03*
X69293000Y-43046000D03*
X72693000Y-43046000D03*
D20*
X85779349Y-97623566D03*
X80471905Y-29994860D03*
D19*
X181483000Y-100076000D03*
D20*
X63829849Y-80978719D03*
D19*
X181483000Y-89662000D03*
D20*
X63829849Y-110938702D03*
X211726333Y-110938702D03*
X219550158Y-97342142D03*
X67617410Y-122678005D03*
X178111727Y-152284868D03*
X116732786Y-160365559D03*
X106471905Y-29994860D03*
X189827411Y-80978719D03*
X63829849Y-97623566D03*
X211726333Y-80978719D03*
D24*
X182228000Y-45609500D03*
D25*
X182228000Y-48109500D03*
X182228000Y-50609500D03*
X182228000Y-53109500D03*
D20*
X80471933Y-139430345D03*
D19*
X181483000Y-117646000D03*
D20*
X55785842Y-81342142D03*
D19*
X93853000Y-89662000D03*
D26*
X173154000Y-94042700D03*
X174804000Y-94042700D03*
D27*
X102146100Y-139295000D03*
X102146100Y-136295001D03*
D28*
X105346500Y-143002000D03*
X105346500Y-132588000D03*
D29*
X174804000Y-95693700D03*
X173154000Y-95693700D03*
D30*
X201603000Y-95748566D03*
X201603000Y-96998566D03*
X201603000Y-98248566D03*
X201603000Y-99498566D03*
D31*
X198253000Y-101348566D03*
X198253000Y-93898566D03*
D29*
X185039000Y-56007000D03*
X183389000Y-56007000D03*
D27*
X102146100Y-124690000D03*
X102146100Y-121690001D03*
D28*
X105346500Y-128397000D03*
X105346500Y-117983000D03*
D32*
X152587651Y-100234500D03*
X152587651Y-97234501D03*
X152587651Y-94234502D03*
X143187650Y-100234500D03*
X143187650Y-97234501D03*
X143187650Y-94234502D03*
D33*
X147887650Y-90599501D03*
X147887650Y-103869501D03*
%LPD*%
M02*
