G04 #@! TF.GenerationSoftware,KiCad,Pcbnew,7.0.6*
G04 #@! TF.CreationDate,2024-01-15T22:12:01-08:00*
G04 #@! TF.ProjectId,midplate,6d696470-6c61-4746-952e-6b696361645f,rev?*
G04 #@! TF.SameCoordinates,Original*
G04 #@! TF.FileFunction,Soldermask,Top*
G04 #@! TF.FilePolarity,Negative*
%FSLAX46Y46*%
G04 Gerber Fmt 4.6, Leading zero omitted, Abs format (unit mm)*
G04 Created by KiCad (PCBNEW 7.0.6) date 2024-01-15 22:12:01*
%MOMM*%
%LPD*%
G01*
G04 APERTURE LIST*
G04 Aperture macros list*
%AMRoundRect*
0 Rectangle with rounded corners*
0 $1 Rounding radius*
0 $2 $3 $4 $5 $6 $7 $8 $9 X,Y pos of 4 corners*
0 Add a 4 corners polygon primitive as box body*
4,1,4,$2,$3,$4,$5,$6,$7,$8,$9,$2,$3,0*
0 Add four circle primitives for the rounded corners*
1,1,$1+$1,$2,$3*
1,1,$1+$1,$4,$5*
1,1,$1+$1,$6,$7*
1,1,$1+$1,$8,$9*
0 Add four rect primitives between the rounded corners*
20,1,$1+$1,$2,$3,$4,$5,0*
20,1,$1+$1,$4,$5,$6,$7,0*
20,1,$1+$1,$6,$7,$8,$9,0*
20,1,$1+$1,$8,$9,$2,$3,0*%
G04 Aperture macros list end*
%ADD10RoundRect,0.101600X-0.775000X-0.300000X0.775000X-0.300000X0.775000X0.300000X-0.775000X0.300000X0*%
%ADD11RoundRect,0.101600X-1.300000X-1.550000X1.300000X-1.550000X1.300000X1.550000X-1.300000X1.550000X0*%
%ADD12R,1.700000X1.700000*%
%ADD13O,1.700000X1.700000*%
%ADD14C,3.903200*%
%ADD15C,6.403200*%
%ADD16C,4.700000*%
%ADD17RoundRect,0.102000X-0.800000X1.750000X-0.800000X-1.750000X0.800000X-1.750000X0.800000X1.750000X0*%
%ADD18RoundRect,0.101600X-1.244600X0.469900X-1.244600X-0.469900X1.244600X-0.469900X1.244600X0.469900X0*%
%ADD19RoundRect,0.101600X-3.467100X3.390900X-3.467100X-3.390900X3.467100X-3.390900X3.467100X3.390900X0*%
%ADD20RoundRect,0.102000X-0.850000X-0.300000X0.850000X-0.300000X0.850000X0.300000X-0.850000X0.300000X0*%
%ADD21RoundRect,0.102000X1.400000X0.500000X-1.400000X0.500000X-1.400000X-0.500000X1.400000X-0.500000X0*%
%ADD22RoundRect,0.326600X0.250000X-0.225000X0.250000X0.225000X-0.250000X0.225000X-0.250000X-0.225000X0*%
%ADD23RoundRect,0.101600X-2.705100X1.447800X-2.705100X-1.447800X2.705100X-1.447800X2.705100X1.447800X0*%
%ADD24RoundRect,0.102000X-2.075000X-0.950000X2.075000X-0.950000X2.075000X0.950000X-2.075000X0.950000X0*%
%ADD25RoundRect,0.102000X1.387500X-1.387500X1.387500X1.387500X-1.387500X1.387500X-1.387500X-1.387500X0*%
%ADD26C,2.979000*%
%ADD27RoundRect,0.326600X0.225000X0.250000X-0.225000X0.250000X-0.225000X-0.250000X0.225000X-0.250000X0*%
%ADD28RoundRect,0.351600X0.650000X-1.000000X0.650000X1.000000X-0.650000X1.000000X-0.650000X-1.000000X0*%
%ADD29RoundRect,0.101600X-0.469900X-1.244600X0.469900X-1.244600X0.469900X1.244600X-0.469900X1.244600X0*%
%ADD30RoundRect,0.101600X-3.390900X-3.467100X3.390900X-3.467100X3.390900X3.467100X-3.390900X3.467100X0*%
%ADD31RoundRect,0.301600X-0.275000X0.200000X-0.275000X-0.200000X0.275000X-0.200000X0.275000X0.200000X0*%
%ADD32C,2.983200*%
%ADD33RoundRect,0.351600X0.475000X-0.250000X0.475000X0.250000X-0.475000X0.250000X-0.475000X-0.250000X0*%
%ADD34RoundRect,0.301600X-0.200000X-0.275000X0.200000X-0.275000X0.200000X0.275000X-0.200000X0.275000X0*%
%ADD35RoundRect,0.326600X-0.225000X-0.250000X0.225000X-0.250000X0.225000X0.250000X-0.225000X0.250000X0*%
%ADD36RoundRect,0.301600X0.275000X-0.200000X0.275000X0.200000X-0.275000X0.200000X-0.275000X-0.200000X0*%
%ADD37RoundRect,0.102000X-0.754000X0.754000X-0.754000X-0.754000X0.754000X-0.754000X0.754000X0.754000X0*%
%ADD38C,1.712000*%
G04 APERTURE END LIST*
D10*
X135511000Y-37360000D03*
X135511000Y-38630000D03*
X135511000Y-39900000D03*
X135511000Y-41170000D03*
X140911000Y-41170000D03*
X140911000Y-39900000D03*
X140911000Y-38630000D03*
X140911000Y-37360000D03*
D11*
X138211000Y-39265000D03*
D12*
X190246000Y-56388000D03*
D13*
X187706000Y-56388000D03*
D14*
X79049621Y-62921321D03*
X71849621Y-62921321D03*
D15*
X93853000Y-121946000D03*
D16*
X168864096Y-29994860D03*
X207718590Y-122678005D03*
X55785842Y-73342142D03*
D17*
X138754000Y-28003700D03*
X138754000Y-33603700D03*
D16*
X194864067Y-139430345D03*
D15*
X151853900Y-29994860D03*
D16*
X85779349Y-110938702D03*
X85779349Y-80978719D03*
X189827411Y-110938702D03*
D18*
X95885000Y-40075749D03*
D19*
X102298500Y-42365750D03*
D18*
X95885000Y-44655751D03*
D16*
X55116132Y-106342142D03*
D20*
X183563000Y-82545400D03*
X183563000Y-81295400D03*
X183563000Y-80045400D03*
X183563000Y-78795400D03*
D21*
X180213000Y-76945400D03*
X180213000Y-84395400D03*
D22*
X124333000Y-39891000D03*
X124333000Y-38341000D03*
D16*
X219550158Y-89342142D03*
D23*
X127070000Y-25977700D03*
X127070000Y-35883700D03*
D16*
X220219868Y-106342142D03*
X206410936Y-30558280D03*
X158603214Y-160365559D03*
D24*
X145439000Y-40709700D03*
X152389000Y-40709700D03*
D15*
X93853000Y-29994860D03*
D16*
X194864096Y-29994860D03*
X189827411Y-97623566D03*
X55785842Y-97342142D03*
X219550158Y-81342142D03*
X219550158Y-73342142D03*
D15*
X181483000Y-139446000D03*
D14*
X203661697Y-62921321D03*
X196461697Y-62921321D03*
D16*
X137668000Y-163121732D03*
D25*
X192292500Y-45720000D03*
D26*
X192292500Y-52720000D03*
D15*
X93853000Y-78999080D03*
D27*
X129807000Y-41529000D03*
X128257000Y-41529000D03*
D16*
X211726333Y-97623566D03*
D28*
X90043000Y-45434000D03*
X90043000Y-41434000D03*
D29*
X80080749Y-45602000D03*
D30*
X82370750Y-39188500D03*
D29*
X84660751Y-45602000D03*
D15*
X93853000Y-139446000D03*
X93853000Y-130696000D03*
D16*
X68925065Y-30558280D03*
X55785842Y-89342142D03*
D31*
X94488000Y-49594000D03*
X94488000Y-51244000D03*
D16*
X97224273Y-152284868D03*
D32*
X69293000Y-52966000D03*
X72693000Y-52966000D03*
X69293000Y-43046000D03*
X72693000Y-43046000D03*
D33*
X143129000Y-38465800D03*
X143129000Y-36565800D03*
D16*
X85779349Y-97623566D03*
X80471905Y-29994860D03*
D15*
X181483000Y-100076000D03*
D34*
X132335000Y-42875200D03*
X133985000Y-42875200D03*
D16*
X63829849Y-80978719D03*
D15*
X181483000Y-89662000D03*
D16*
X63829849Y-110938702D03*
D35*
X132391000Y-44380000D03*
X133941000Y-44380000D03*
D16*
X211726333Y-110938702D03*
D34*
X135389000Y-42856000D03*
X137039000Y-42856000D03*
D16*
X219550158Y-97342142D03*
X67617410Y-122678005D03*
X178111727Y-152284868D03*
D36*
X96596200Y-37731200D03*
X96596200Y-36081200D03*
D16*
X116732786Y-160365559D03*
X106471905Y-29994860D03*
X189827411Y-80978719D03*
X63829849Y-97623566D03*
X211726333Y-80978719D03*
D37*
X182228000Y-45609500D03*
D38*
X182228000Y-48109500D03*
X182228000Y-50609500D03*
X182228000Y-53109500D03*
D16*
X80471933Y-139430345D03*
D15*
X181483000Y-117646000D03*
D16*
X55785842Y-81342142D03*
D15*
X93853000Y-89662000D03*
M02*
