G04 #@! TF.GenerationSoftware,KiCad,Pcbnew,7.0.6*
G04 #@! TF.CreationDate,2023-12-29T00:51:47-08:00*
G04 #@! TF.ProjectId,midplate,6d696470-6c61-4746-952e-6b696361645f,rev?*
G04 #@! TF.SameCoordinates,Original*
G04 #@! TF.FileFunction,Copper,L2,Bot*
G04 #@! TF.FilePolarity,Positive*
%FSLAX46Y46*%
G04 Gerber Fmt 4.6, Leading zero omitted, Abs format (unit mm)*
G04 Created by KiCad (PCBNEW 7.0.6) date 2023-12-29 00:51:47*
%MOMM*%
%LPD*%
G01*
G04 APERTURE LIST*
G04 Aperture macros list*
%AMRoundRect*
0 Rectangle with rounded corners*
0 $1 Rounding radius*
0 $2 $3 $4 $5 $6 $7 $8 $9 X,Y pos of 4 corners*
0 Add a 4 corners polygon primitive as box body*
4,1,4,$2,$3,$4,$5,$6,$7,$8,$9,$2,$3,0*
0 Add four circle primitives for the rounded corners*
1,1,$1+$1,$2,$3*
1,1,$1+$1,$4,$5*
1,1,$1+$1,$6,$7*
1,1,$1+$1,$8,$9*
0 Add four rect primitives between the rounded corners*
20,1,$1+$1,$2,$3,$4,$5,0*
20,1,$1+$1,$4,$5,$6,$7,0*
20,1,$1+$1,$6,$7,$8,$9,0*
20,1,$1+$1,$8,$9,$2,$3,0*%
G04 Aperture macros list end*
G04 #@! TA.AperFunction,ComponentPad*
%ADD10C,3.700000*%
G04 #@! TD*
G04 #@! TA.AperFunction,ComponentPad*
%ADD11C,6.200000*%
G04 #@! TD*
G04 #@! TA.AperFunction,ComponentPad*
%ADD12C,4.700000*%
G04 #@! TD*
G04 #@! TA.AperFunction,ComponentPad*
%ADD13R,1.700000X1.700000*%
G04 #@! TD*
G04 #@! TA.AperFunction,ComponentPad*
%ADD14O,1.700000X1.700000*%
G04 #@! TD*
G04 #@! TA.AperFunction,ComponentPad*
%ADD15R,2.775000X2.775000*%
G04 #@! TD*
G04 #@! TA.AperFunction,ComponentPad*
%ADD16C,2.775000*%
G04 #@! TD*
G04 #@! TA.AperFunction,ComponentPad*
%ADD17C,2.780000*%
G04 #@! TD*
G04 #@! TA.AperFunction,ComponentPad*
%ADD18R,1.508000X1.508000*%
G04 #@! TD*
G04 #@! TA.AperFunction,ComponentPad*
%ADD19C,1.508000*%
G04 #@! TD*
G04 #@! TA.AperFunction,SMDPad,CuDef*
%ADD20RoundRect,0.200000X-0.200000X-0.275000X0.200000X-0.275000X0.200000X0.275000X-0.200000X0.275000X0*%
G04 #@! TD*
G04 #@! TA.AperFunction,SMDPad,CuDef*
%ADD21R,2.616200X1.346200*%
G04 #@! TD*
G04 #@! TA.AperFunction,SMDPad,CuDef*
%ADD22R,1.727200X3.505200*%
G04 #@! TD*
G04 #@! TA.AperFunction,SMDPad,CuDef*
%ADD23RoundRect,0.200000X0.200000X0.275000X-0.200000X0.275000X-0.200000X-0.275000X0.200000X-0.275000X0*%
G04 #@! TD*
G04 #@! TA.AperFunction,SMDPad,CuDef*
%ADD24R,1.700000X0.600000*%
G04 #@! TD*
G04 #@! TA.AperFunction,SMDPad,CuDef*
%ADD25R,2.800000X1.000000*%
G04 #@! TD*
G04 #@! TA.AperFunction,SMDPad,CuDef*
%ADD26R,2.540000X1.270000*%
G04 #@! TD*
G04 #@! TA.AperFunction,SMDPad,CuDef*
%ADD27R,1.651000X3.429000*%
G04 #@! TD*
G04 #@! TA.AperFunction,ViaPad*
%ADD28C,0.700000*%
G04 #@! TD*
G04 #@! TA.AperFunction,ViaPad*
%ADD29C,0.500000*%
G04 #@! TD*
G04 #@! TA.AperFunction,Conductor*
%ADD30C,0.254000*%
G04 #@! TD*
G04 #@! TA.AperFunction,Conductor*
%ADD31C,2.540000*%
G04 #@! TD*
G04 #@! TA.AperFunction,Conductor*
%ADD32C,0.200000*%
G04 #@! TD*
G04 APERTURE END LIST*
D10*
X86796621Y-49459321D03*
X79596621Y-49459321D03*
D11*
X101600000Y-108484000D03*
D12*
X176611096Y-16532860D03*
X215465590Y-109216005D03*
X63532842Y-59880142D03*
X202611067Y-125968345D03*
D11*
X159600900Y-16532860D03*
D12*
X93526349Y-97476702D03*
X93526349Y-67516719D03*
X197574411Y-97476702D03*
X62863132Y-92880142D03*
X227297158Y-75880142D03*
X227966868Y-92880142D03*
X214157936Y-17096280D03*
X166350214Y-146903559D03*
D11*
X101600000Y-16532860D03*
D12*
X202611096Y-16532860D03*
X197574411Y-84161566D03*
X63532842Y-83880142D03*
X227297158Y-67880142D03*
X227297158Y-59880142D03*
D11*
X189230000Y-125984000D03*
D10*
X211408697Y-49459321D03*
X204208697Y-49459321D03*
D12*
X145415000Y-149659732D03*
D13*
X196469000Y-42926000D03*
D14*
X199009000Y-42926000D03*
D15*
X200039500Y-32258000D03*
D16*
X200039500Y-39258000D03*
D11*
X101600000Y-65537080D03*
D12*
X219473333Y-84161566D03*
D11*
X101600000Y-125984000D03*
X101600000Y-117234000D03*
D12*
X76672065Y-17096280D03*
X63532842Y-75880142D03*
X104971273Y-138822868D03*
D17*
X77040000Y-39504000D03*
X80440000Y-39504000D03*
X77040000Y-29584000D03*
X80440000Y-29584000D03*
D12*
X93526349Y-84161566D03*
X88218905Y-16532860D03*
D11*
X189230000Y-86614000D03*
D12*
X71576849Y-67516719D03*
D11*
X189230000Y-76200000D03*
D12*
X71576849Y-97476702D03*
X219473333Y-97476702D03*
X227297158Y-83880142D03*
X75364410Y-109216005D03*
X185858727Y-138822868D03*
X124479786Y-146903559D03*
X114218905Y-16532860D03*
X197574411Y-67516719D03*
X71576849Y-84161566D03*
X219473333Y-67516719D03*
D18*
X189975000Y-32147500D03*
D19*
X189975000Y-34647500D03*
X189975000Y-37147500D03*
X189975000Y-39647500D03*
D12*
X88218933Y-125968345D03*
D11*
X189230000Y-104184000D03*
D12*
X63532842Y-67880142D03*
D11*
X101600000Y-76200000D03*
D20*
X180901000Y-80580700D03*
X182551000Y-80580700D03*
D21*
X109893100Y-125833000D03*
X109893100Y-122833001D03*
D22*
X113093500Y-129540000D03*
X113093500Y-119126000D03*
D23*
X182551000Y-82231700D03*
X180901000Y-82231700D03*
D24*
X209350000Y-82286566D03*
X209350000Y-83536566D03*
X209350000Y-84786566D03*
X209350000Y-86036566D03*
D25*
X206000000Y-87886566D03*
X206000000Y-80436566D03*
D21*
X109893100Y-111228000D03*
X109893100Y-108228001D03*
D22*
X113093500Y-114935000D03*
X113093500Y-104521000D03*
D26*
X160334651Y-86772500D03*
X160334651Y-83772501D03*
X160334651Y-80772502D03*
X150934650Y-86772500D03*
X150934650Y-83772501D03*
X150934650Y-80772502D03*
D27*
X155634650Y-77137501D03*
X155634650Y-90407501D03*
D28*
X160020000Y-30226000D03*
X128270000Y-19812000D03*
X150876000Y-33274000D03*
X145796000Y-30226000D03*
X130302000Y-17780000D03*
X129286000Y-17780000D03*
X160020000Y-34290000D03*
D29*
X208965800Y-73279000D03*
D28*
X146812000Y-29210000D03*
X159004000Y-31242000D03*
X128270000Y-20828000D03*
X157988000Y-34290000D03*
X157988000Y-30226000D03*
X156972000Y-33274000D03*
X160020000Y-26162000D03*
X147828000Y-28194000D03*
X145796000Y-28194000D03*
D29*
X208965800Y-74041000D03*
D28*
X159004000Y-25146000D03*
X146812000Y-31242000D03*
X157988000Y-26162000D03*
X151892000Y-34290000D03*
X128270000Y-18796000D03*
X148844000Y-29210000D03*
X130302000Y-18796000D03*
X157988000Y-28194000D03*
X147828000Y-30226000D03*
X130302000Y-19812000D03*
X159004000Y-33274000D03*
X128270000Y-21844000D03*
X155956000Y-34290000D03*
X144780000Y-33274000D03*
X146812000Y-27178000D03*
X160020000Y-24130000D03*
X154940000Y-33274000D03*
X153924000Y-34290000D03*
X145796000Y-34290000D03*
X146812000Y-33274000D03*
X148844000Y-31242000D03*
X157988000Y-32258000D03*
X129286000Y-18796000D03*
X148844000Y-27178000D03*
X148844000Y-33274000D03*
X129286000Y-19812000D03*
X152908000Y-33274000D03*
X160020000Y-28194000D03*
X160020000Y-32258000D03*
D29*
X208965800Y-72517000D03*
X209727800Y-71755000D03*
X209727800Y-72517000D03*
D28*
X159004000Y-29210000D03*
X128270000Y-17780000D03*
X149860000Y-34290000D03*
D29*
X208965800Y-71755000D03*
D28*
X147828000Y-32258000D03*
X145796000Y-32258000D03*
X129286000Y-20828000D03*
D29*
X209727800Y-73279000D03*
D28*
X157988000Y-24130000D03*
X147828000Y-34290000D03*
X159004000Y-27178000D03*
D29*
X209727800Y-74041000D03*
D28*
X76708000Y-46736000D03*
X81788000Y-43688000D03*
X77724000Y-41656000D03*
X80772000Y-46736000D03*
X81788000Y-41656000D03*
X78740000Y-42672000D03*
X79756000Y-41656000D03*
X76708000Y-48768000D03*
X76708000Y-44704000D03*
X78740000Y-44704000D03*
X75692000Y-45720000D03*
X79756000Y-45720000D03*
X79756000Y-43688000D03*
X75692000Y-49784000D03*
X77724000Y-43688000D03*
X75692000Y-41656000D03*
X75692000Y-43688000D03*
X80772000Y-42672000D03*
X75692000Y-47752000D03*
X78740000Y-46736000D03*
X81788000Y-45720000D03*
X76708000Y-50800000D03*
X77724000Y-45720000D03*
X80772000Y-44704000D03*
X76708000Y-42672000D03*
X128778000Y-36322000D03*
X125730000Y-33274000D03*
X119634000Y-33274000D03*
X122682000Y-26162000D03*
X116332000Y-32258000D03*
X124714000Y-32258000D03*
X121666000Y-31242000D03*
X126746000Y-28194000D03*
X123698000Y-31242000D03*
X117602000Y-27178000D03*
X122682000Y-36322000D03*
X129794000Y-33274000D03*
X122682000Y-34290000D03*
X126746000Y-36322000D03*
X120650000Y-26162000D03*
X119634000Y-27178000D03*
X129794000Y-27178000D03*
X120650000Y-32258000D03*
X116332000Y-30226000D03*
X122682000Y-32258000D03*
X123698000Y-35306000D03*
X119634000Y-29210000D03*
X117602000Y-33274000D03*
X128778000Y-34290000D03*
X128778000Y-30226000D03*
X128778000Y-32258000D03*
X124714000Y-28194000D03*
X126746000Y-30226000D03*
X120650000Y-36322000D03*
X124714000Y-34290000D03*
X119634000Y-31242000D03*
X120650000Y-28194000D03*
X126746000Y-32258000D03*
X117602000Y-29210000D03*
X130810000Y-28194000D03*
X118618000Y-28194000D03*
X123698000Y-29210000D03*
X127762000Y-29210000D03*
X129794000Y-29210000D03*
X116332000Y-36322000D03*
X116332000Y-26162000D03*
X117602000Y-35306000D03*
X118618000Y-30226000D03*
X121666000Y-29210000D03*
X116332000Y-28194000D03*
X116332000Y-34290000D03*
X125730000Y-29210000D03*
X128778000Y-28194000D03*
X129794000Y-31242000D03*
X130810000Y-36322000D03*
X123698000Y-33274000D03*
X130810000Y-34290000D03*
X118618000Y-26162000D03*
X120650000Y-30226000D03*
X127762000Y-33274000D03*
X127762000Y-35306000D03*
X126746000Y-34290000D03*
X120650000Y-34290000D03*
X131826000Y-35306000D03*
X121666000Y-27178000D03*
X117602000Y-31242000D03*
X123698000Y-27178000D03*
X126746000Y-26162000D03*
X118618000Y-36322000D03*
X119634000Y-35306000D03*
X121666000Y-33274000D03*
X122682000Y-28194000D03*
X124714000Y-30226000D03*
X124714000Y-36322000D03*
X118618000Y-34290000D03*
X131826000Y-27178000D03*
X125730000Y-27178000D03*
X127762000Y-27178000D03*
X122682000Y-30226000D03*
X127762000Y-31242000D03*
X121666000Y-35306000D03*
X128778000Y-26162000D03*
X125730000Y-35306000D03*
X125730000Y-31242000D03*
X130810000Y-26162000D03*
X129794000Y-35306000D03*
X124714000Y-26162000D03*
X118618000Y-32258000D03*
X96774000Y-34163000D03*
X92710000Y-34163000D03*
X102870000Y-32131000D03*
X95758000Y-33147000D03*
X93726000Y-35179000D03*
X94742000Y-34163000D03*
X102870000Y-34163000D03*
X101854000Y-33147000D03*
X99822000Y-33147000D03*
X94742000Y-36195000D03*
X98806000Y-34163000D03*
X95758000Y-35179000D03*
X95758000Y-31115000D03*
X101854000Y-31115000D03*
X97790000Y-35179000D03*
X101854000Y-35179000D03*
X99822000Y-35179000D03*
X93726000Y-31115000D03*
X100838000Y-32131000D03*
X99822000Y-31115000D03*
X100838000Y-34163000D03*
X94742000Y-32131000D03*
X100838000Y-36195000D03*
X96774000Y-36195000D03*
X92710000Y-36195000D03*
X98806000Y-36195000D03*
X103886000Y-33147000D03*
X93726000Y-33147000D03*
X96520000Y-24638000D03*
X97536000Y-24638000D03*
X98552000Y-25654000D03*
X86360000Y-32258000D03*
X87757000Y-34290000D03*
X98552000Y-24638000D03*
X86360000Y-31242000D03*
X89154000Y-33274000D03*
X97536000Y-25654000D03*
X96520000Y-25654000D03*
X86360000Y-34290000D03*
X99568000Y-25654000D03*
X89154000Y-34290000D03*
X89154000Y-31242000D03*
X86360000Y-33274000D03*
X99568000Y-24638000D03*
X89154000Y-32258000D03*
X77724000Y-24892000D03*
X75692000Y-24892000D03*
X75692000Y-26924000D03*
X79756000Y-24892000D03*
X81788000Y-26924000D03*
X80772000Y-25908000D03*
X82804000Y-25908000D03*
X76708000Y-25908000D03*
X81788000Y-22860000D03*
X76708000Y-23876000D03*
X85852000Y-26924000D03*
X78740000Y-27940000D03*
X85852000Y-24892000D03*
X78740000Y-23876000D03*
X77724000Y-22860000D03*
X78740000Y-25908000D03*
X77724000Y-26924000D03*
X84836000Y-27940000D03*
X82804000Y-27940000D03*
X79756000Y-26924000D03*
X85852000Y-22860000D03*
X81788000Y-24892000D03*
X83820000Y-28956000D03*
X83820000Y-24892000D03*
X83820000Y-26924000D03*
X84836000Y-25908000D03*
X82804000Y-29972000D03*
X84836000Y-23876000D03*
X79756000Y-22860000D03*
X82804000Y-23876000D03*
X83820000Y-22860000D03*
X80772000Y-23876000D03*
D29*
X103505000Y-38658800D03*
X102870000Y-22098000D03*
X110871000Y-102108000D03*
X111633000Y-102870000D03*
X112268000Y-133350000D03*
X114681000Y-120015000D03*
X115316000Y-131826000D03*
X115443000Y-122301000D03*
X112268000Y-131826000D03*
X114681000Y-110871000D03*
X114554000Y-131064000D03*
X115443000Y-103632000D03*
X113919000Y-110109000D03*
X113792000Y-133350000D03*
X115443000Y-119253000D03*
X111633000Y-101346000D03*
X115443000Y-113157000D03*
X112395000Y-102108000D03*
X114681000Y-113919000D03*
X115443000Y-116205000D03*
X111506000Y-131064000D03*
X114681000Y-121539000D03*
X115443000Y-102108000D03*
X113157000Y-101346000D03*
X110871000Y-103632000D03*
X114681000Y-102870000D03*
X110744000Y-131826000D03*
X113919000Y-111633000D03*
X113157000Y-112395000D03*
X111633000Y-104394000D03*
X115443000Y-120777000D03*
X113919000Y-100584000D03*
X114681000Y-123063000D03*
X114681000Y-116967000D03*
X113157000Y-121539000D03*
X113157000Y-123063000D03*
X113919000Y-123825000D03*
X114681000Y-115443000D03*
X113919000Y-102108000D03*
X115443000Y-117729000D03*
X114681000Y-101346000D03*
X114554000Y-129540000D03*
X111506000Y-129540000D03*
X115443000Y-111633000D03*
X113030000Y-132588000D03*
X114681000Y-118491000D03*
X113919000Y-122301000D03*
X114681000Y-112395000D03*
X114554000Y-132588000D03*
X112395000Y-100584000D03*
X110744000Y-130302000D03*
X113792000Y-131826000D03*
X111506000Y-132588000D03*
X114681000Y-104394000D03*
X115443000Y-114681000D03*
X113157000Y-110871000D03*
X115316000Y-130302000D03*
X183506300Y-65278000D03*
X195588700Y-41275000D03*
X194809300Y-41275000D03*
X184285700Y-65278000D03*
X188087000Y-61341000D03*
X188087000Y-64516000D03*
X187198000Y-65405000D03*
X188087000Y-65405000D03*
X187198000Y-61341000D03*
X188976000Y-64516000D03*
X188976000Y-62230000D03*
X188976000Y-65405000D03*
X187198000Y-62230000D03*
X188087000Y-62230000D03*
X187198000Y-64516000D03*
X188976000Y-61341000D03*
X188849000Y-68961000D03*
X187071000Y-69850000D03*
X188849000Y-69850000D03*
X187960000Y-68961000D03*
X187960000Y-69850000D03*
X187071000Y-68961000D03*
X154178000Y-72415400D03*
X154178000Y-73939400D03*
X154940000Y-74701400D03*
X155702000Y-70891400D03*
X154178000Y-70891400D03*
X156464000Y-74701400D03*
X156464000Y-73177400D03*
X154940000Y-73177400D03*
X157988000Y-71653400D03*
X154940000Y-70129400D03*
X156464000Y-70129400D03*
X153416000Y-71653400D03*
X157226000Y-73939400D03*
X157226000Y-72415400D03*
X153416000Y-73177400D03*
X157226000Y-70891400D03*
X157988000Y-73177400D03*
X155702000Y-73939400D03*
X155702000Y-72415400D03*
X154940000Y-71653400D03*
X156464000Y-71653400D03*
X154178000Y-95021400D03*
X154178000Y-96545400D03*
X154940000Y-95783400D03*
X154940000Y-94259400D03*
X157988000Y-95783400D03*
X157988000Y-94259400D03*
X156464000Y-97307400D03*
X154178000Y-93497400D03*
X157226000Y-96545400D03*
X155702000Y-96545400D03*
X155702000Y-95021400D03*
X154940000Y-92735400D03*
X156464000Y-95783400D03*
X157226000Y-95021400D03*
X157226000Y-93497400D03*
X153416000Y-95783400D03*
X154940000Y-97307400D03*
X155702000Y-93497400D03*
X156464000Y-92735400D03*
X156464000Y-94259400D03*
X153416000Y-94259400D03*
X206883000Y-89027000D03*
X205105000Y-89789000D03*
X205994000Y-86106000D03*
X206883000Y-86106000D03*
X205994000Y-86868000D03*
X206883000Y-89789000D03*
X205994000Y-89789000D03*
X205994000Y-89027000D03*
X206883000Y-86868000D03*
X205105000Y-89027000D03*
X205105000Y-86106000D03*
X205105000Y-86868000D03*
X205994000Y-78613000D03*
X205994000Y-81534000D03*
X206883000Y-78613000D03*
X205994000Y-82296000D03*
X205105000Y-78613000D03*
X206883000Y-79375000D03*
X205105000Y-82296000D03*
X206883000Y-81534000D03*
X205105000Y-79375000D03*
X205994000Y-79375000D03*
X206883000Y-82296000D03*
X205105000Y-81534000D03*
D28*
X121666000Y-15748000D03*
X122682000Y-16764000D03*
X110998000Y-40132000D03*
X124714000Y-14732000D03*
X122682000Y-14732000D03*
X121666000Y-17780000D03*
X109982000Y-40132000D03*
X109982000Y-38100000D03*
X122682000Y-12700000D03*
X123698000Y-11684000D03*
D29*
X136144000Y-19812000D03*
D28*
X112014000Y-38100000D03*
X123698000Y-15748000D03*
X112014000Y-37084000D03*
X110998000Y-38100000D03*
X108966000Y-39116000D03*
X120650000Y-16764000D03*
X108966000Y-40132000D03*
X124714000Y-16764000D03*
X110998000Y-39116000D03*
X125730000Y-13716000D03*
X122682000Y-18796000D03*
X125730000Y-11684000D03*
X112014000Y-40132000D03*
X123698000Y-13716000D03*
X110998000Y-37084000D03*
X120650000Y-14732000D03*
X109982000Y-37084000D03*
X109982000Y-39116000D03*
X108966000Y-38100000D03*
D29*
X136144000Y-27940000D03*
D28*
X125730000Y-15748000D03*
X121666000Y-13716000D03*
X112014000Y-39116000D03*
X108966000Y-37084000D03*
X123698000Y-17780000D03*
X124714000Y-12700000D03*
D30*
X102870000Y-22098000D02*
X104902000Y-22098000D01*
X104902000Y-22098000D02*
X105918000Y-23114000D01*
X105918000Y-23114000D02*
X105918000Y-36245800D01*
X105918000Y-36245800D02*
X103505000Y-38658800D01*
D31*
X102388000Y-107696000D02*
X109361099Y-107696000D01*
X101600000Y-108484000D02*
X102388000Y-107696000D01*
X109361099Y-107696000D02*
X109425999Y-107760900D01*
X108901100Y-111824900D02*
X109296200Y-111824900D01*
X109030900Y-122365900D02*
X109425999Y-122365900D01*
X101600000Y-117234000D02*
X103492000Y-117234000D01*
X101600000Y-117234000D02*
X103899000Y-117234000D01*
X103899000Y-117234000D02*
X109030900Y-122365900D01*
X103492000Y-117234000D02*
X108901100Y-111824900D01*
X101600000Y-125984000D02*
X101981000Y-126365000D01*
X107409636Y-126492000D02*
X109601000Y-126492000D01*
X101981000Y-126365000D02*
X107282636Y-126365000D01*
X107282636Y-126365000D02*
X107409636Y-126492000D01*
D32*
X180240200Y-81645900D02*
X179630312Y-81645900D01*
X195409300Y-41523529D02*
X195288700Y-41644129D01*
X178652500Y-80668088D02*
X178652500Y-78310512D01*
X180901000Y-82231700D02*
X180826000Y-82231700D01*
X195409300Y-41454400D02*
X195409300Y-41523529D01*
X208074999Y-83536566D02*
X209350000Y-83536566D01*
X203058700Y-64238912D02*
X203058700Y-82323712D01*
X190985300Y-38157800D02*
X193690788Y-38157800D01*
X203058700Y-82323712D02*
X204656854Y-83921866D01*
X178652500Y-78310512D02*
X181497300Y-75465712D01*
X207689699Y-83921866D02*
X208074999Y-83536566D01*
X195588700Y-41275000D02*
X195409300Y-41454400D01*
X189975000Y-37147500D02*
X188964700Y-38157800D01*
X183656300Y-41048712D02*
X183656300Y-65128000D01*
X195288700Y-56468912D02*
X203058700Y-64238912D01*
X179630312Y-81645900D02*
X178652500Y-80668088D01*
X180826000Y-82231700D02*
X180240200Y-81645900D01*
X195438700Y-39905712D02*
X195438700Y-41125000D01*
X195288700Y-41644129D02*
X195288700Y-56468912D01*
X189975000Y-37147500D02*
X190985300Y-38157800D01*
X181497300Y-75465712D02*
X181497300Y-68252112D01*
X195438700Y-41125000D02*
X195588700Y-41275000D01*
X204656854Y-83921866D02*
X207689699Y-83921866D01*
X183656300Y-65128000D02*
X183506300Y-65278000D01*
X188964700Y-38157800D02*
X186547212Y-38157800D01*
X183656300Y-65428000D02*
X183656300Y-66093112D01*
X183656300Y-66093112D02*
X181497300Y-68252112D01*
X183506300Y-65278000D02*
X183656300Y-65428000D01*
X186547212Y-38157800D02*
X183656300Y-41048712D01*
X193690788Y-38157800D02*
X195438700Y-39905712D01*
X194809300Y-56667488D02*
X202579300Y-64437488D01*
X179828888Y-81166500D02*
X179131900Y-80469512D01*
X184135700Y-41247288D02*
X184135700Y-65128000D01*
X188964700Y-38637200D02*
X186745788Y-38637200D01*
X204458278Y-84401266D02*
X207689699Y-84401266D01*
X184135700Y-65428000D02*
X184135700Y-66291688D01*
X208074999Y-84786566D02*
X209350000Y-84786566D01*
X207689699Y-84401266D02*
X208074999Y-84786566D01*
X194959300Y-40104288D02*
X194959300Y-41125000D01*
X190985300Y-38637200D02*
X193492212Y-38637200D01*
X180901000Y-80580700D02*
X180826000Y-80580700D01*
X180826000Y-80580700D02*
X180240200Y-81166500D01*
X180240200Y-81166500D02*
X179828888Y-81166500D01*
X184135700Y-66291688D02*
X181976700Y-68450688D01*
X202579300Y-64437488D02*
X202579300Y-82522288D01*
X193492212Y-38637200D02*
X194959300Y-40104288D01*
X179131900Y-78509088D02*
X181976700Y-75664288D01*
X194959300Y-41125000D02*
X194809300Y-41275000D01*
X184135700Y-65128000D02*
X184285700Y-65278000D01*
X194809300Y-41275000D02*
X194809300Y-56667488D01*
X186745788Y-38637200D02*
X184135700Y-41247288D01*
X189975000Y-39647500D02*
X190985300Y-38637200D01*
X179131900Y-80469512D02*
X179131900Y-78509088D01*
X181976700Y-75664288D02*
X181976700Y-68450688D01*
X202579300Y-82522288D02*
X204458278Y-84401266D01*
X189975000Y-39647500D02*
X188964700Y-38637200D01*
X184285700Y-65278000D02*
X184135700Y-65428000D01*
X183704920Y-81645900D02*
X183705720Y-81646700D01*
X182626000Y-82231700D02*
X183211800Y-81645900D01*
X182551000Y-82231700D02*
X182626000Y-82231700D01*
X183705720Y-81646700D02*
X184262700Y-81646700D01*
X183211800Y-81645900D02*
X183704920Y-81645900D01*
X184262700Y-81646700D02*
X189230000Y-86614000D01*
X183888377Y-81166500D02*
X183889177Y-81167300D01*
X182626000Y-80580700D02*
X183211800Y-81166500D01*
X184262700Y-81167300D02*
X189230000Y-76200000D01*
X183211800Y-81166500D02*
X183888377Y-81166500D01*
X182551000Y-80580700D02*
X182626000Y-80580700D01*
X183889177Y-81167300D02*
X184262700Y-81167300D01*
D30*
X136144000Y-27940000D02*
X136144000Y-19812000D01*
G04 #@! TA.AperFunction,Conductor*
G36*
X207025677Y-77997685D02*
G01*
X207046319Y-78014319D01*
X207481681Y-78449681D01*
X207515166Y-78511004D01*
X207518000Y-78537362D01*
X207518000Y-82117638D01*
X207498315Y-82184677D01*
X207481681Y-82205319D01*
X207046319Y-82640681D01*
X206984996Y-82674166D01*
X206958638Y-82677000D01*
X205029362Y-82677000D01*
X204962323Y-82657315D01*
X204941681Y-82640681D01*
X204506319Y-82205319D01*
X204472834Y-82143996D01*
X204470000Y-82117638D01*
X204470000Y-78537361D01*
X204489685Y-78470322D01*
X204506314Y-78449685D01*
X204941681Y-78014318D01*
X205003004Y-77980834D01*
X205029362Y-77978000D01*
X206958638Y-77978000D01*
X207025677Y-77997685D01*
G37*
G04 #@! TD.AperFunction*
G04 #@! TA.AperFunction,Conductor*
G36*
X189118677Y-60954285D02*
G01*
X189139319Y-60970919D01*
X189447682Y-61279282D01*
X189481166Y-61340603D01*
X189484000Y-61366961D01*
X189484000Y-65353638D01*
X189464315Y-65420677D01*
X189447681Y-65441319D01*
X189139319Y-65749681D01*
X189077996Y-65783166D01*
X189051638Y-65786000D01*
X187020762Y-65786000D01*
X186953723Y-65766315D01*
X186933081Y-65749681D01*
X186599319Y-65415919D01*
X186565834Y-65354596D01*
X186563000Y-65328238D01*
X186563000Y-61366961D01*
X186582685Y-61299922D01*
X186599314Y-61279285D01*
X186907681Y-60970919D01*
X186969004Y-60937434D01*
X186995362Y-60934600D01*
X189051638Y-60934600D01*
X189118677Y-60954285D01*
G37*
G04 #@! TD.AperFunction*
G04 #@! TA.AperFunction,Conductor*
G36*
X188991677Y-68574285D02*
G01*
X189012319Y-68590919D01*
X189320680Y-68899280D01*
X189354165Y-68960603D01*
X189356999Y-68986961D01*
X189357000Y-71250000D01*
X189337315Y-71317039D01*
X189284512Y-71362794D01*
X189233000Y-71374000D01*
X186560000Y-71374000D01*
X186492961Y-71354315D01*
X186447206Y-71301511D01*
X186436000Y-71250000D01*
X186436000Y-68986962D01*
X186455685Y-68919923D01*
X186472319Y-68899281D01*
X186780681Y-68590919D01*
X186842004Y-68557434D01*
X186868362Y-68554600D01*
X188924638Y-68554600D01*
X188991677Y-68574285D01*
G37*
G04 #@! TD.AperFunction*
G04 #@! TA.AperFunction,Conductor*
G36*
X207025677Y-85744685D02*
G01*
X207046319Y-85761319D01*
X207481681Y-86196681D01*
X207515166Y-86258004D01*
X207518000Y-86284362D01*
X207518000Y-89737637D01*
X207498315Y-89804676D01*
X207481681Y-89825318D01*
X207046319Y-90260681D01*
X206984996Y-90294166D01*
X206958638Y-90297000D01*
X205029362Y-90297000D01*
X204962323Y-90277315D01*
X204941681Y-90260681D01*
X204506319Y-89825319D01*
X204472834Y-89763996D01*
X204470000Y-89737638D01*
X204470000Y-86284362D01*
X204489685Y-86217323D01*
X204506319Y-86196681D01*
X204941681Y-85761319D01*
X205003004Y-85727834D01*
X205029362Y-85725000D01*
X206958638Y-85725000D01*
X207025677Y-85744685D01*
G37*
G04 #@! TD.AperFunction*
G04 #@! TA.AperFunction,Conductor*
G36*
X81028695Y-37846235D02*
G01*
X81235727Y-37864348D01*
X81257004Y-37868099D01*
X81449888Y-37919782D01*
X81470198Y-37927175D01*
X81651165Y-38011562D01*
X81669883Y-38022369D01*
X81833456Y-38136904D01*
X81850014Y-38150798D01*
X81991201Y-38291985D01*
X82005095Y-38308543D01*
X82119630Y-38472116D01*
X82130437Y-38490834D01*
X82214824Y-38671801D01*
X82222217Y-38692112D01*
X82273898Y-38884988D01*
X82277651Y-38906274D01*
X82295764Y-39113299D01*
X82296000Y-39118705D01*
X82296000Y-46460900D01*
X82295701Y-46466981D01*
X82272794Y-46699557D01*
X82268052Y-46723398D01*
X82202871Y-46938272D01*
X82193568Y-46960730D01*
X82087723Y-47158751D01*
X82074218Y-47178963D01*
X81925958Y-47359619D01*
X81921879Y-47364119D01*
X81914125Y-47371873D01*
X81905977Y-47380021D01*
X81905972Y-47380026D01*
X81534000Y-47752000D01*
X81534000Y-48278050D01*
X81534000Y-48278054D01*
X81534000Y-50797294D01*
X81533764Y-50802700D01*
X81515651Y-51009725D01*
X81511898Y-51031011D01*
X81460217Y-51223887D01*
X81452824Y-51244198D01*
X81368437Y-51425165D01*
X81357630Y-51443883D01*
X81243095Y-51607456D01*
X81229201Y-51624014D01*
X81088014Y-51765201D01*
X81071456Y-51779095D01*
X80907883Y-51893630D01*
X80889165Y-51904437D01*
X80708198Y-51988824D01*
X80687887Y-51996217D01*
X80495011Y-52047898D01*
X80473725Y-52051651D01*
X80323864Y-52064762D01*
X80266695Y-52069764D01*
X80261294Y-52070000D01*
X76202706Y-52070000D01*
X76197304Y-52069764D01*
X76133000Y-52064138D01*
X75990274Y-52051651D01*
X75968988Y-52047898D01*
X75776112Y-51996217D01*
X75755801Y-51988824D01*
X75574834Y-51904437D01*
X75556116Y-51893630D01*
X75392543Y-51779095D01*
X75375985Y-51765201D01*
X75234798Y-51624014D01*
X75220904Y-51607456D01*
X75106369Y-51443883D01*
X75095562Y-51425165D01*
X75011175Y-51244198D01*
X75003782Y-51223887D01*
X74952099Y-51031004D01*
X74948348Y-51009724D01*
X74930236Y-50802700D01*
X74930000Y-50797294D01*
X74930000Y-39118705D01*
X74930236Y-39113299D01*
X74948348Y-38906275D01*
X74948349Y-38906274D01*
X74948348Y-38906270D01*
X74952099Y-38884996D01*
X75003783Y-38692107D01*
X75011175Y-38671801D01*
X75095562Y-38490834D01*
X75106369Y-38472116D01*
X75220904Y-38308543D01*
X75234792Y-38291991D01*
X75375991Y-38150792D01*
X75392543Y-38136904D01*
X75556116Y-38022369D01*
X75574831Y-38011563D01*
X75755803Y-37927174D01*
X75776107Y-37919783D01*
X75968996Y-37868099D01*
X75990270Y-37864348D01*
X76197304Y-37846235D01*
X76202706Y-37846000D01*
X81023294Y-37846000D01*
X81028695Y-37846235D01*
G37*
G04 #@! TD.AperFunction*
G04 #@! TA.AperFunction,Conductor*
G36*
X158337439Y-67964685D02*
G01*
X158383194Y-68017489D01*
X158394400Y-68069000D01*
X158394400Y-74726238D01*
X158374715Y-74793277D01*
X158358081Y-74813919D01*
X156464000Y-76707999D01*
X156464000Y-78717600D01*
X156444315Y-78784639D01*
X156391511Y-78830394D01*
X156340000Y-78841600D01*
X154937000Y-78841600D01*
X154869961Y-78821915D01*
X154824206Y-78769111D01*
X154813000Y-78717600D01*
X154813000Y-76708000D01*
X152918919Y-74813919D01*
X152885434Y-74752596D01*
X152882600Y-74726238D01*
X152882600Y-68069000D01*
X152902285Y-68001961D01*
X152955089Y-67956206D01*
X153006600Y-67945000D01*
X158270400Y-67945000D01*
X158337439Y-67964685D01*
G37*
G04 #@! TD.AperFunction*
G04 #@! TA.AperFunction,Conductor*
G36*
X156407039Y-88716485D02*
G01*
X156452794Y-88769289D01*
X156464000Y-88820800D01*
X156464000Y-90830400D01*
X158358081Y-92724481D01*
X158391566Y-92785804D01*
X158394400Y-92812162D01*
X158394400Y-99469400D01*
X158374715Y-99536439D01*
X158321911Y-99582194D01*
X158270400Y-99593400D01*
X153006600Y-99593400D01*
X152939561Y-99573715D01*
X152893806Y-99520911D01*
X152882600Y-99469400D01*
X152882600Y-92812161D01*
X152902285Y-92745122D01*
X152918914Y-92724485D01*
X154813000Y-90830400D01*
X154813000Y-88820800D01*
X154832685Y-88753761D01*
X154885489Y-88708006D01*
X154937000Y-88696800D01*
X156340000Y-88696800D01*
X156407039Y-88716485D01*
G37*
G04 #@! TD.AperFunction*
G04 #@! TA.AperFunction,Conductor*
G36*
X103380695Y-30734235D02*
G01*
X103587727Y-30752348D01*
X103609004Y-30756099D01*
X103801888Y-30807782D01*
X103822198Y-30815175D01*
X104003165Y-30899562D01*
X104021883Y-30910369D01*
X104185456Y-31024904D01*
X104202014Y-31038798D01*
X104343201Y-31179985D01*
X104357095Y-31196543D01*
X104471630Y-31360116D01*
X104482437Y-31378834D01*
X104566824Y-31559801D01*
X104574217Y-31580112D01*
X104625898Y-31772988D01*
X104629651Y-31794274D01*
X104647764Y-32001299D01*
X104648000Y-32006705D01*
X104648000Y-33261900D01*
X104647701Y-33267981D01*
X104624794Y-33500557D01*
X104620052Y-33524398D01*
X104554871Y-33739272D01*
X104545568Y-33761730D01*
X104439723Y-33959751D01*
X104426218Y-33979963D01*
X104361107Y-34059300D01*
X104277947Y-34160630D01*
X104273888Y-34165109D01*
X103674395Y-34764603D01*
X103226032Y-35212966D01*
X103226025Y-35212974D01*
X102870000Y-35569000D01*
X102870000Y-36072500D01*
X102870000Y-36072501D01*
X102854974Y-36186629D01*
X102846596Y-36217895D01*
X102808791Y-36309165D01*
X102792605Y-36337200D01*
X102732464Y-36415576D01*
X102709576Y-36438464D01*
X102631200Y-36498605D01*
X102603165Y-36514791D01*
X102511895Y-36552596D01*
X102480629Y-36560974D01*
X102391433Y-36572717D01*
X102370531Y-36575469D01*
X102362434Y-36576000D01*
X93220706Y-36576000D01*
X93215304Y-36575764D01*
X93151000Y-36570138D01*
X93008274Y-36557651D01*
X92986988Y-36553898D01*
X92794112Y-36502217D01*
X92773801Y-36494824D01*
X92592834Y-36410437D01*
X92574116Y-36399630D01*
X92410543Y-36285095D01*
X92393985Y-36271201D01*
X92252798Y-36130014D01*
X92238904Y-36113456D01*
X92124369Y-35949883D01*
X92113562Y-35931165D01*
X92029175Y-35750198D01*
X92021782Y-35729887D01*
X91988941Y-35607322D01*
X91970099Y-35537004D01*
X91966348Y-35515724D01*
X91955976Y-35397174D01*
X91948235Y-35308695D01*
X91948000Y-35303294D01*
X91948000Y-31378755D01*
X91949524Y-31359371D01*
X91963576Y-31270652D01*
X91975560Y-31233771D01*
X92011851Y-31162546D01*
X92034648Y-31131170D01*
X92091170Y-31074648D01*
X92122546Y-31051851D01*
X92193771Y-31015560D01*
X92230654Y-31003576D01*
X92319369Y-30989525D01*
X92338756Y-30988000D01*
X92530388Y-30988000D01*
X92530395Y-30988000D01*
X92710000Y-30988000D01*
X92836991Y-30861006D01*
X92837000Y-30861000D01*
X92888048Y-30821828D01*
X92913854Y-30802027D01*
X92941882Y-30785845D01*
X93016300Y-30755020D01*
X93047563Y-30746644D01*
X93139572Y-30734530D01*
X93147673Y-30734000D01*
X103375294Y-30734000D01*
X103380695Y-30734235D01*
G37*
G04 #@! TD.AperFunction*
G04 #@! TA.AperFunction,Conductor*
G36*
X118053039Y-99968685D02*
G01*
X118098794Y-100021489D01*
X118110000Y-100073000D01*
X118110000Y-134369000D01*
X118090315Y-134436039D01*
X118037511Y-134481794D01*
X117986000Y-134493000D01*
X109598000Y-134493000D01*
X109530961Y-134473315D01*
X109485206Y-134420511D01*
X109474000Y-134369000D01*
X109474000Y-130480361D01*
X109493685Y-130413322D01*
X109510314Y-130392685D01*
X110968791Y-128934208D01*
X110993397Y-128915132D01*
X111164885Y-128813852D01*
X111428521Y-128612590D01*
X111666503Y-128381559D01*
X111875490Y-128124003D01*
X112033322Y-127873989D01*
X112050483Y-127852516D01*
X112776000Y-127127000D01*
X112776000Y-121539000D01*
X110526319Y-119289319D01*
X110492834Y-119227996D01*
X110490000Y-119201638D01*
X110490000Y-114859362D01*
X110509685Y-114792323D01*
X110526319Y-114771681D01*
X110526318Y-114771681D01*
X112776000Y-112522000D01*
X112776000Y-106807000D01*
X109002318Y-103033318D01*
X108968833Y-102971995D01*
X108966000Y-102945646D01*
X108966000Y-100072999D01*
X108985685Y-100005961D01*
X109038489Y-99960206D01*
X109090000Y-99949000D01*
X117986000Y-99949000D01*
X118053039Y-99968685D01*
G37*
G04 #@! TD.AperFunction*
G04 #@! TA.AperFunction,Conductor*
G36*
X130603612Y-25400530D02*
G01*
X130714876Y-25415179D01*
X130746141Y-25423556D01*
X130838495Y-25461810D01*
X130866529Y-25477995D01*
X130955567Y-25546318D01*
X130961662Y-25551662D01*
X148946336Y-43536336D01*
X148951681Y-43542432D01*
X149020004Y-43631470D01*
X149036189Y-43659505D01*
X149074442Y-43751857D01*
X149082820Y-43783123D01*
X149097469Y-43894386D01*
X149098000Y-43902487D01*
X149098000Y-76962000D01*
X149246786Y-77110785D01*
X149246790Y-77110790D01*
X149246797Y-77110798D01*
X150747562Y-78611562D01*
X152248336Y-80112336D01*
X152253681Y-80118432D01*
X152322004Y-80207470D01*
X152338189Y-80235505D01*
X152376442Y-80327857D01*
X152384820Y-80359123D01*
X152399469Y-80470386D01*
X152400000Y-80478487D01*
X152400000Y-87161512D01*
X152399469Y-87169613D01*
X152384820Y-87280876D01*
X152376442Y-87312142D01*
X152338189Y-87404494D01*
X152322004Y-87432529D01*
X152253681Y-87521567D01*
X152248329Y-87527671D01*
X149246797Y-90529201D01*
X149246790Y-90529209D01*
X149246786Y-90529213D01*
X149098000Y-90678000D01*
X149098000Y-106680000D01*
X149246790Y-106828790D01*
X149246798Y-106828799D01*
X160633200Y-118215201D01*
X160633209Y-118215209D01*
X160782000Y-118364000D01*
X188253512Y-118364000D01*
X188261612Y-118364530D01*
X188372876Y-118379179D01*
X188404141Y-118387556D01*
X188496495Y-118425810D01*
X188524529Y-118441995D01*
X188613567Y-118510318D01*
X188619662Y-118515662D01*
X192634336Y-122530336D01*
X192639681Y-122536432D01*
X192708004Y-122625470D01*
X192724189Y-122653505D01*
X192762442Y-122745857D01*
X192770820Y-122777123D01*
X192785469Y-122888386D01*
X192786000Y-122896487D01*
X192786000Y-127293512D01*
X192785469Y-127301613D01*
X192770820Y-127412876D01*
X192762442Y-127444142D01*
X192724189Y-127536494D01*
X192708004Y-127564529D01*
X192639681Y-127653567D01*
X192634329Y-127659671D01*
X188619671Y-131674329D01*
X188613567Y-131679681D01*
X188524529Y-131748004D01*
X188496494Y-131764189D01*
X188404142Y-131802442D01*
X188372876Y-131810820D01*
X188274990Y-131823707D01*
X188261612Y-131825469D01*
X188253513Y-131826000D01*
X154646487Y-131826000D01*
X154638387Y-131825469D01*
X154622377Y-131823361D01*
X154527123Y-131810820D01*
X154495857Y-131802442D01*
X154403505Y-131764189D01*
X154375470Y-131748004D01*
X154286432Y-131679681D01*
X154280336Y-131674336D01*
X135533662Y-112927662D01*
X135528318Y-112921567D01*
X135459995Y-112832529D01*
X135443810Y-112804494D01*
X135405557Y-112712142D01*
X135397179Y-112680875D01*
X135382531Y-112569613D01*
X135382000Y-112561511D01*
X135382000Y-49994426D01*
X135382000Y-49994420D01*
X135382000Y-49784000D01*
X129134328Y-43536328D01*
X122576799Y-36978798D01*
X122576790Y-36978790D01*
X122428000Y-36830000D01*
X122217587Y-36830000D01*
X116546487Y-36830000D01*
X116538387Y-36829469D01*
X116522377Y-36827361D01*
X116427123Y-36814820D01*
X116395857Y-36806442D01*
X116303505Y-36768189D01*
X116275470Y-36752004D01*
X116186432Y-36683681D01*
X116180336Y-36678336D01*
X115975662Y-36473662D01*
X115970318Y-36467567D01*
X115901995Y-36378529D01*
X115885810Y-36350494D01*
X115847557Y-36258142D01*
X115839179Y-36226876D01*
X115824529Y-36115598D01*
X115824000Y-36107527D01*
X115824000Y-26376471D01*
X115824528Y-26368402D01*
X115839179Y-26257119D01*
X115847556Y-26225860D01*
X115885812Y-26133501D01*
X115901992Y-26105474D01*
X115970318Y-26016432D01*
X115975655Y-26010344D01*
X116434344Y-25551655D01*
X116440432Y-25546318D01*
X116464097Y-25528158D01*
X116529474Y-25477992D01*
X116557501Y-25461812D01*
X116649860Y-25423556D01*
X116681121Y-25415179D01*
X116792387Y-25400530D01*
X116800488Y-25400000D01*
X130595512Y-25400000D01*
X130603612Y-25400530D01*
G37*
G04 #@! TD.AperFunction*
G04 #@! TA.AperFunction,Conductor*
G36*
X149367677Y-14497685D02*
G01*
X149388318Y-14514318D01*
X157734000Y-22860000D01*
X175260000Y-22860000D01*
X163068000Y-35052000D01*
X146101362Y-35052000D01*
X146034323Y-35032315D01*
X146013681Y-35015681D01*
X143546319Y-32548318D01*
X143512834Y-32486995D01*
X143510000Y-32460637D01*
X143510000Y-20320000D01*
X141224000Y-18034000D01*
X132842000Y-18034000D01*
X132841999Y-18034000D01*
X128814319Y-22061681D01*
X128752996Y-22095166D01*
X128726638Y-22098000D01*
X127886000Y-22098000D01*
X127818961Y-22078315D01*
X127773206Y-22025511D01*
X127762000Y-21974000D01*
X127762000Y-17323361D01*
X127781685Y-17256322D01*
X127798314Y-17235685D01*
X130519681Y-14514318D01*
X130581004Y-14480834D01*
X130607362Y-14478000D01*
X149300638Y-14478000D01*
X149367677Y-14497685D01*
G37*
G04 #@! TD.AperFunction*
G04 #@! TA.AperFunction,Conductor*
G36*
X126181039Y-10951463D02*
G01*
X126226794Y-11004267D01*
X126238000Y-11055778D01*
X126238000Y-15696638D01*
X126218315Y-15763677D01*
X126201681Y-15784319D01*
X123698000Y-18287999D01*
X123698000Y-19887638D01*
X123678315Y-19954677D01*
X123661681Y-19975319D01*
X120432319Y-23204681D01*
X120370996Y-23238166D01*
X120344638Y-23241000D01*
X114680999Y-23241000D01*
X112522000Y-25399999D01*
X112522000Y-74370638D01*
X112502315Y-74437677D01*
X112485681Y-74458319D01*
X105954319Y-80989681D01*
X105892996Y-81023166D01*
X105866638Y-81026000D01*
X99873362Y-81026000D01*
X99806323Y-81006315D01*
X99785681Y-80989681D01*
X97572319Y-78776319D01*
X97538834Y-78714996D01*
X97536000Y-78688638D01*
X97536000Y-76200002D01*
X98240573Y-76200002D01*
X98260266Y-76563215D01*
X98260267Y-76563232D01*
X98319112Y-76922165D01*
X98319118Y-76922191D01*
X98416424Y-77272659D01*
X98416426Y-77272666D01*
X98551062Y-77610577D01*
X98551071Y-77610595D01*
X98721454Y-77931971D01*
X98721456Y-77931975D01*
X98925582Y-78233037D01*
X98925589Y-78233047D01*
X99161070Y-78510275D01*
X99161071Y-78510276D01*
X99425153Y-78760428D01*
X99714733Y-78980561D01*
X99714741Y-78980566D01*
X99714753Y-78980574D01*
X100026411Y-79168091D01*
X100026416Y-79168094D01*
X100026420Y-79168095D01*
X100026424Y-79168098D01*
X100356537Y-79320824D01*
X100356548Y-79320829D01*
X100701258Y-79436976D01*
X100701263Y-79436977D01*
X100701266Y-79436978D01*
X100886214Y-79477688D01*
X101056505Y-79515172D01*
X101418124Y-79554500D01*
X101418130Y-79554500D01*
X101781870Y-79554500D01*
X101781876Y-79554500D01*
X102143495Y-79515172D01*
X102498742Y-79436976D01*
X102843452Y-79320829D01*
X103173584Y-79168094D01*
X103366589Y-79051966D01*
X103485246Y-78980574D01*
X103485250Y-78980571D01*
X103485267Y-78980561D01*
X103774847Y-78760428D01*
X104038929Y-78510276D01*
X104274417Y-78233039D01*
X104478549Y-77931966D01*
X104648933Y-77610587D01*
X104783572Y-77272670D01*
X104880885Y-76922178D01*
X104939734Y-76563218D01*
X104959427Y-76200000D01*
X104939734Y-75836782D01*
X104880885Y-75477822D01*
X104783572Y-75127330D01*
X104648933Y-74789413D01*
X104478549Y-74468034D01*
X104478545Y-74468028D01*
X104478543Y-74468024D01*
X104369331Y-74306949D01*
X104274417Y-74166961D01*
X104274413Y-74166956D01*
X104274410Y-74166952D01*
X104038929Y-73889724D01*
X104038928Y-73889724D01*
X103774847Y-73639572D01*
X103774840Y-73639566D01*
X103774837Y-73639564D01*
X103678674Y-73566463D01*
X103485267Y-73419439D01*
X103485261Y-73419435D01*
X103485246Y-73419425D01*
X103173588Y-73231908D01*
X103173575Y-73231901D01*
X102843462Y-73079175D01*
X102843457Y-73079173D01*
X102843452Y-73079171D01*
X102498742Y-72963024D01*
X102498741Y-72963023D01*
X102498733Y-72963021D01*
X102143493Y-72884827D01*
X101781879Y-72845500D01*
X101781876Y-72845500D01*
X101418124Y-72845500D01*
X101418120Y-72845500D01*
X101056506Y-72884827D01*
X100701266Y-72963021D01*
X100525782Y-73022148D01*
X100356548Y-73079171D01*
X100356545Y-73079172D01*
X100356537Y-73079175D01*
X100026424Y-73231901D01*
X100026411Y-73231908D01*
X99714753Y-73419425D01*
X99714737Y-73419436D01*
X99425162Y-73639564D01*
X99425153Y-73639572D01*
X99161070Y-73889724D01*
X98925589Y-74166952D01*
X98925582Y-74166962D01*
X98721456Y-74468024D01*
X98721454Y-74468028D01*
X98551071Y-74789404D01*
X98551062Y-74789422D01*
X98416426Y-75127333D01*
X98416424Y-75127340D01*
X98319118Y-75477808D01*
X98319112Y-75477834D01*
X98260267Y-75836767D01*
X98260266Y-75836784D01*
X98240573Y-76199997D01*
X98240573Y-76200002D01*
X97536000Y-76200002D01*
X97536000Y-74473362D01*
X97555685Y-74406323D01*
X97572319Y-74385681D01*
X99785681Y-72172319D01*
X99847004Y-72138834D01*
X99873362Y-72136000D01*
X104648000Y-72136000D01*
X108204000Y-68580000D01*
X108203999Y-24435360D01*
X108223685Y-24368322D01*
X108240314Y-24347685D01*
X112231681Y-20356318D01*
X112293004Y-20322834D01*
X112319362Y-20320000D01*
X117856000Y-20320000D01*
X120142000Y-18034000D01*
X120142000Y-14783361D01*
X120161685Y-14716323D01*
X120178319Y-14695681D01*
X123905903Y-10968097D01*
X123967226Y-10934612D01*
X123993584Y-10931778D01*
X126114000Y-10931778D01*
X126181039Y-10951463D01*
G37*
G04 #@! TD.AperFunction*
G04 #@! TA.AperFunction,Conductor*
G36*
X99699032Y-24130530D02*
G01*
X99810296Y-24145179D01*
X99841561Y-24153556D01*
X99933915Y-24191810D01*
X99961949Y-24207996D01*
X100041258Y-24268853D01*
X100064146Y-24291741D01*
X100125003Y-24371050D01*
X100141189Y-24399085D01*
X100179442Y-24491437D01*
X100187820Y-24522703D01*
X100202469Y-24633966D01*
X100203000Y-24642067D01*
X100203000Y-25903932D01*
X100202469Y-25912033D01*
X100187820Y-26023296D01*
X100179442Y-26054562D01*
X100141189Y-26146914D01*
X100125003Y-26174949D01*
X100064146Y-26254258D01*
X100041258Y-26277146D01*
X99961949Y-26338003D01*
X99933914Y-26354189D01*
X99841562Y-26392442D01*
X99810296Y-26400820D01*
X99712410Y-26413707D01*
X99699032Y-26415469D01*
X99690933Y-26416000D01*
X94234000Y-26416000D01*
X94085213Y-26564786D01*
X94085209Y-26564790D01*
X94085201Y-26564797D01*
X89810798Y-30839200D01*
X89810790Y-30839209D01*
X89810786Y-30839213D01*
X89662000Y-30988000D01*
X89661999Y-31198420D01*
X89662000Y-31198420D01*
X89662000Y-34285932D01*
X89661469Y-34294033D01*
X89646820Y-34405296D01*
X89638442Y-34436562D01*
X89600189Y-34528914D01*
X89584003Y-34556949D01*
X89523146Y-34636258D01*
X89500258Y-34659146D01*
X89420949Y-34720003D01*
X89392914Y-34736189D01*
X89300562Y-34774442D01*
X89269296Y-34782820D01*
X89171410Y-34795707D01*
X89158032Y-34797469D01*
X89149933Y-34798000D01*
X86364067Y-34798000D01*
X86355967Y-34797469D01*
X86339957Y-34795361D01*
X86244703Y-34782820D01*
X86213437Y-34774442D01*
X86121085Y-34736189D01*
X86093050Y-34720003D01*
X86013741Y-34659146D01*
X85990853Y-34636258D01*
X85929996Y-34556949D01*
X85913810Y-34528914D01*
X85875557Y-34436562D01*
X85867179Y-34405295D01*
X85852531Y-34294033D01*
X85852000Y-34285931D01*
X85852000Y-30948488D01*
X85852531Y-30940386D01*
X85867179Y-30829121D01*
X85875556Y-30797860D01*
X85913812Y-30705501D01*
X85929992Y-30677474D01*
X85998318Y-30588432D01*
X86003655Y-30582344D01*
X92304344Y-24281655D01*
X92310432Y-24276318D01*
X92334097Y-24258158D01*
X92399474Y-24207992D01*
X92427501Y-24191812D01*
X92519860Y-24153556D01*
X92551121Y-24145179D01*
X92662387Y-24130530D01*
X92670488Y-24130000D01*
X99690932Y-24130000D01*
X99699032Y-24130530D01*
G37*
G04 #@! TD.AperFunction*
G04 #@! TA.AperFunction,Conductor*
G36*
X208962612Y-20447530D02*
G01*
X209073876Y-20462179D01*
X209105141Y-20470556D01*
X209197495Y-20508810D01*
X209225529Y-20524995D01*
X209314567Y-20593318D01*
X209320662Y-20598662D01*
X221590336Y-32868336D01*
X221595681Y-32874432D01*
X221664004Y-32963470D01*
X221680189Y-32991505D01*
X221718442Y-33083857D01*
X221726820Y-33115123D01*
X221741469Y-33226386D01*
X221742000Y-33234487D01*
X221742000Y-48807512D01*
X221741469Y-48815613D01*
X221726820Y-48926876D01*
X221718442Y-48958142D01*
X221680189Y-49050494D01*
X221664004Y-49078529D01*
X221595681Y-49167567D01*
X221590329Y-49173671D01*
X219099671Y-51664329D01*
X219093567Y-51669681D01*
X219004529Y-51738004D01*
X218976494Y-51754189D01*
X218884142Y-51792442D01*
X218852876Y-51800820D01*
X218754990Y-51813707D01*
X218741612Y-51815469D01*
X218733513Y-51816000D01*
X210654900Y-51816000D01*
X210654893Y-51815998D01*
X210596958Y-51804474D01*
X210552260Y-51785960D01*
X210513292Y-51759923D01*
X210494501Y-51744501D01*
X210414329Y-51664329D01*
X209447662Y-50697662D01*
X209442318Y-50691567D01*
X209373995Y-50602529D01*
X209357810Y-50574494D01*
X209319557Y-50482142D01*
X209311179Y-50450875D01*
X209296531Y-50339613D01*
X209296000Y-50331511D01*
X209296000Y-42374426D01*
X209296000Y-42374419D01*
X209296000Y-42164000D01*
X202692000Y-35560000D01*
X202481587Y-35560000D01*
X182582412Y-35560000D01*
X182372000Y-35560000D01*
X182223213Y-35708786D01*
X182223209Y-35708790D01*
X182223200Y-35708797D01*
X176424798Y-41507200D01*
X176424790Y-41507209D01*
X176424786Y-41507213D01*
X176276000Y-41656000D01*
X176276000Y-86868000D01*
X176426209Y-87017026D01*
X176426212Y-87017030D01*
X181908349Y-92456000D01*
X192251889Y-102718095D01*
X192257285Y-102724203D01*
X192326239Y-102813455D01*
X192342579Y-102841585D01*
X192381207Y-102934321D01*
X192389668Y-102965735D01*
X192404464Y-103077547D01*
X192405000Y-103085689D01*
X192405000Y-109469932D01*
X192404469Y-109478033D01*
X192389820Y-109589296D01*
X192381442Y-109620562D01*
X192343189Y-109712914D01*
X192327003Y-109740949D01*
X192266146Y-109820258D01*
X192243258Y-109843146D01*
X192163949Y-109904003D01*
X192135914Y-109920189D01*
X192043562Y-109958442D01*
X192012296Y-109966820D01*
X191914410Y-109979707D01*
X191901032Y-109981469D01*
X191892933Y-109982000D01*
X180046487Y-109982000D01*
X180038387Y-109981469D01*
X180022377Y-109979361D01*
X179927123Y-109966820D01*
X179895857Y-109958442D01*
X179803505Y-109920189D01*
X179775470Y-109904004D01*
X179686432Y-109835681D01*
X179680336Y-109830336D01*
X162457662Y-92607662D01*
X162452318Y-92601567D01*
X162383995Y-92512529D01*
X162367810Y-92484494D01*
X162329557Y-92392142D01*
X162321179Y-92360875D01*
X162306531Y-92249613D01*
X162306000Y-92241511D01*
X162306000Y-90939226D01*
X162306000Y-90939220D01*
X162306000Y-90728800D01*
X162157209Y-90580009D01*
X162157202Y-90580001D01*
X160656436Y-89079235D01*
X159155662Y-87578462D01*
X159150318Y-87572367D01*
X159081995Y-87483329D01*
X159065810Y-87455294D01*
X159027557Y-87362942D01*
X159019179Y-87331676D01*
X159004529Y-87220398D01*
X159004000Y-87212327D01*
X159004000Y-80300671D01*
X159004528Y-80292602D01*
X159019179Y-80181319D01*
X159027556Y-80150060D01*
X159065812Y-80057701D01*
X159081992Y-80029674D01*
X159150318Y-79940632D01*
X159155655Y-79934544D01*
X162309610Y-76780590D01*
X162309609Y-76780590D01*
X162458400Y-76631800D01*
X162458400Y-35367733D01*
X162460781Y-35343550D01*
X162476693Y-35263556D01*
X162495203Y-35218867D01*
X162547300Y-35140900D01*
X162547299Y-35140899D01*
X162636198Y-35052000D01*
X163068000Y-35052000D01*
X165169846Y-32950154D01*
X188712500Y-32950154D01*
X188719011Y-33010702D01*
X188719011Y-33010704D01*
X188746297Y-33083857D01*
X188770111Y-33147704D01*
X188857739Y-33264761D01*
X188974796Y-33352389D01*
X189111799Y-33403489D01*
X189139050Y-33406418D01*
X189172345Y-33409999D01*
X189172362Y-33410000D01*
X190777638Y-33410000D01*
X190777654Y-33409999D01*
X190804692Y-33407091D01*
X190838201Y-33403489D01*
X190975204Y-33352389D01*
X191092261Y-33264761D01*
X191179889Y-33147704D01*
X191230989Y-33010701D01*
X191236067Y-32963470D01*
X191237499Y-32950154D01*
X191237500Y-32950137D01*
X191237500Y-31344862D01*
X191237499Y-31344845D01*
X191234157Y-31313770D01*
X191230989Y-31284299D01*
X191179889Y-31147296D01*
X191092261Y-31030239D01*
X190975204Y-30942611D01*
X190975204Y-30942610D01*
X190838203Y-30891511D01*
X190777654Y-30885000D01*
X190777638Y-30885000D01*
X189172362Y-30885000D01*
X189172345Y-30885000D01*
X189111797Y-30891511D01*
X189111795Y-30891511D01*
X188974795Y-30942611D01*
X188857739Y-31030239D01*
X188770111Y-31147295D01*
X188719011Y-31284295D01*
X188719011Y-31284297D01*
X188712500Y-31344845D01*
X188712500Y-32950154D01*
X165169846Y-32950154D01*
X175260000Y-22860000D01*
X174828199Y-22860000D01*
X174976990Y-22711209D01*
X174976998Y-22711202D01*
X176104970Y-21583228D01*
X177089536Y-20598662D01*
X177095632Y-20593318D01*
X177150279Y-20551384D01*
X177184674Y-20524992D01*
X177212701Y-20508812D01*
X177305060Y-20470556D01*
X177336321Y-20462179D01*
X177447587Y-20447530D01*
X177455688Y-20447000D01*
X208954512Y-20447000D01*
X208962612Y-20447530D01*
G37*
G04 #@! TD.AperFunction*
G04 #@! TA.AperFunction,Conductor*
G36*
X214662500Y-52323144D02*
G01*
X214662500Y-52323145D01*
X214662500Y-52323154D01*
X214602560Y-88388783D01*
X214602017Y-88396875D01*
X214587215Y-88507994D01*
X214578803Y-88539216D01*
X214540474Y-88631426D01*
X214524275Y-88659413D01*
X214463404Y-88738583D01*
X214440519Y-88761429D01*
X214361256Y-88822162D01*
X214333243Y-88838315D01*
X214240965Y-88876493D01*
X214209729Y-88884853D01*
X214145887Y-88893249D01*
X214098582Y-88899470D01*
X214090495Y-88900000D01*
X208969867Y-88900000D01*
X208961767Y-88899469D01*
X208945757Y-88897361D01*
X208850503Y-88884820D01*
X208819237Y-88876442D01*
X208726885Y-88838189D01*
X208698850Y-88822003D01*
X208619541Y-88761146D01*
X208596653Y-88738258D01*
X208535796Y-88658949D01*
X208519610Y-88630914D01*
X208481357Y-88538562D01*
X208472979Y-88507295D01*
X208458331Y-88396033D01*
X208457800Y-88387931D01*
X208457800Y-85719066D01*
X208477485Y-85652027D01*
X208530289Y-85606272D01*
X208581800Y-85595066D01*
X210248638Y-85595066D01*
X210248654Y-85595065D01*
X210275692Y-85592157D01*
X210309201Y-85588555D01*
X210446204Y-85537455D01*
X210563261Y-85449827D01*
X210650889Y-85332770D01*
X210701989Y-85195767D01*
X210705591Y-85162258D01*
X210708499Y-85135220D01*
X210708500Y-85135203D01*
X210708500Y-84437928D01*
X210708499Y-84437911D01*
X210705157Y-84406836D01*
X210701989Y-84377365D01*
X210701987Y-84377361D01*
X210701987Y-84377358D01*
X210650891Y-84240367D01*
X210650890Y-84240366D01*
X210650889Y-84240362D01*
X210647530Y-84235875D01*
X210623113Y-84170416D01*
X210637963Y-84102143D01*
X210647521Y-84087268D01*
X210650889Y-84082770D01*
X210676439Y-84014268D01*
X210701987Y-83945773D01*
X210701987Y-83945771D01*
X210701989Y-83945767D01*
X210705591Y-83912258D01*
X210708499Y-83885220D01*
X210708500Y-83885203D01*
X210708500Y-83187928D01*
X210708499Y-83187911D01*
X210702755Y-83134492D01*
X210701989Y-83127365D01*
X210701052Y-83124854D01*
X210659521Y-83013506D01*
X210650889Y-82990362D01*
X210563261Y-82873305D01*
X210446204Y-82785677D01*
X210309203Y-82734577D01*
X210248654Y-82728066D01*
X210248638Y-82728066D01*
X208581800Y-82728066D01*
X208514761Y-82708381D01*
X208469006Y-82655577D01*
X208457800Y-82604066D01*
X208457800Y-62546088D01*
X208458331Y-62537986D01*
X208472979Y-62426724D01*
X208481356Y-62395460D01*
X208519612Y-62303101D01*
X208535792Y-62275074D01*
X208604118Y-62186032D01*
X208609455Y-62179944D01*
X210595010Y-60194390D01*
X210595009Y-60194389D01*
X210595012Y-60194385D01*
X210743800Y-60045600D01*
X210743800Y-51816000D01*
X214663343Y-51816000D01*
X214662500Y-52323144D01*
G37*
G04 #@! TD.AperFunction*
G04 #@! TA.AperFunction,Conductor*
G36*
X85346695Y-22098235D02*
G01*
X85553727Y-22116348D01*
X85575004Y-22120099D01*
X85767888Y-22171782D01*
X85788198Y-22179175D01*
X85969165Y-22263562D01*
X85987883Y-22274369D01*
X86151456Y-22388904D01*
X86168014Y-22402798D01*
X86309201Y-22543985D01*
X86323095Y-22560543D01*
X86437630Y-22724116D01*
X86448437Y-22742834D01*
X86532824Y-22923801D01*
X86540217Y-22944112D01*
X86591898Y-23136988D01*
X86595651Y-23158274D01*
X86609845Y-23320513D01*
X86613764Y-23365299D01*
X86614000Y-23370705D01*
X86614000Y-26140900D01*
X86613701Y-26146981D01*
X86590794Y-26379557D01*
X86586052Y-26403398D01*
X86520871Y-26618272D01*
X86511568Y-26640730D01*
X86405723Y-26838751D01*
X86392218Y-26858963D01*
X86243957Y-27039620D01*
X86239869Y-27044131D01*
X82475609Y-30808389D01*
X82475603Y-30808396D01*
X82475599Y-30808400D01*
X82296000Y-30988000D01*
X82296000Y-31241588D01*
X82295603Y-31243993D01*
X82281476Y-31315011D01*
X82262962Y-31359708D01*
X82235309Y-31401095D01*
X82201095Y-31435309D01*
X82159708Y-31462962D01*
X82115012Y-31481476D01*
X82066989Y-31491029D01*
X82053978Y-31493617D01*
X82029788Y-31496000D01*
X76202706Y-31496000D01*
X76197304Y-31495764D01*
X76133000Y-31490138D01*
X75990274Y-31477651D01*
X75968988Y-31473898D01*
X75776112Y-31422217D01*
X75755801Y-31414824D01*
X75574834Y-31330437D01*
X75556116Y-31319630D01*
X75392543Y-31205095D01*
X75375985Y-31191201D01*
X75234798Y-31050014D01*
X75220904Y-31033456D01*
X75106369Y-30869883D01*
X75095562Y-30851165D01*
X75011175Y-30670198D01*
X75003782Y-30649887D01*
X74952099Y-30457004D01*
X74948348Y-30435724D01*
X74930236Y-30228700D01*
X74930000Y-30223294D01*
X74930000Y-24003371D01*
X74930267Y-23997626D01*
X74950717Y-23777755D01*
X74954953Y-23755182D01*
X75013224Y-23551180D01*
X75021550Y-23529775D01*
X75116451Y-23340006D01*
X75128571Y-23320521D01*
X75262086Y-23144600D01*
X75265756Y-23140205D01*
X75455113Y-22933634D01*
X75841873Y-22511713D01*
X75845471Y-22508100D01*
X75990482Y-22374098D01*
X76006652Y-22361468D01*
X76165312Y-22257475D01*
X76183334Y-22247693D01*
X76356981Y-22171304D01*
X76376378Y-22164627D01*
X76560238Y-22117944D01*
X76580483Y-22114557D01*
X76777225Y-22098212D01*
X76782354Y-22098000D01*
X85341294Y-22098000D01*
X85346695Y-22098235D01*
G37*
G04 #@! TD.AperFunction*
M02*
