G04 #@! TF.GenerationSoftware,KiCad,Pcbnew,7.0.6*
G04 #@! TF.CreationDate,2023-12-29T16:42:39-08:00*
G04 #@! TF.ProjectId,midplate,6d696470-6c61-4746-952e-6b696361645f,rev?*
G04 #@! TF.SameCoordinates,Original*
G04 #@! TF.FileFunction,Copper,L1,Top*
G04 #@! TF.FilePolarity,Positive*
%FSLAX46Y46*%
G04 Gerber Fmt 4.6, Leading zero omitted, Abs format (unit mm)*
G04 Created by KiCad (PCBNEW 7.0.6) date 2023-12-29 16:42:39*
%MOMM*%
%LPD*%
G01*
G04 APERTURE LIST*
G04 Aperture macros list*
%AMRoundRect*
0 Rectangle with rounded corners*
0 $1 Rounding radius*
0 $2 $3 $4 $5 $6 $7 $8 $9 X,Y pos of 4 corners*
0 Add a 4 corners polygon primitive as box body*
4,1,4,$2,$3,$4,$5,$6,$7,$8,$9,$2,$3,0*
0 Add four circle primitives for the rounded corners*
1,1,$1+$1,$2,$3*
1,1,$1+$1,$4,$5*
1,1,$1+$1,$6,$7*
1,1,$1+$1,$8,$9*
0 Add four rect primitives between the rounded corners*
20,1,$1+$1,$2,$3,$4,$5,0*
20,1,$1+$1,$4,$5,$6,$7,0*
20,1,$1+$1,$6,$7,$8,$9,0*
20,1,$1+$1,$8,$9,$2,$3,0*%
G04 Aperture macros list end*
G04 #@! TA.AperFunction,ComponentPad*
%ADD10C,3.700000*%
G04 #@! TD*
G04 #@! TA.AperFunction,ComponentPad*
%ADD11C,6.200000*%
G04 #@! TD*
G04 #@! TA.AperFunction,ComponentPad*
%ADD12C,4.700000*%
G04 #@! TD*
G04 #@! TA.AperFunction,SMDPad,CuDef*
%ADD13RoundRect,0.250000X-1.250000X-0.300000X1.250000X-0.300000X1.250000X0.300000X-1.250000X0.300000X0*%
G04 #@! TD*
G04 #@! TA.AperFunction,ComponentPad*
%ADD14C,0.700000*%
G04 #@! TD*
G04 #@! TA.AperFunction,SMDPad,CuDef*
%ADD15RoundRect,0.193681X-1.568819X-2.431319X1.568819X-2.431319X1.568819X2.431319X-1.568819X2.431319X0*%
G04 #@! TD*
G04 #@! TA.AperFunction,SMDPad,CuDef*
%ADD16RoundRect,0.185906X-3.309094X-5.214094X3.309094X-5.214094X3.309094X5.214094X-3.309094X5.214094X0*%
G04 #@! TD*
G04 #@! TA.AperFunction,SMDPad,CuDef*
%ADD17R,3.500000X5.000000*%
G04 #@! TD*
G04 #@! TA.AperFunction,SMDPad,CuDef*
%ADD18R,2.489200X0.939800*%
G04 #@! TD*
G04 #@! TA.AperFunction,SMDPad,CuDef*
%ADD19R,6.934200X6.781800*%
G04 #@! TD*
G04 #@! TA.AperFunction,SMDPad,CuDef*
%ADD20R,1.700000X0.600000*%
G04 #@! TD*
G04 #@! TA.AperFunction,SMDPad,CuDef*
%ADD21R,2.800000X1.000000*%
G04 #@! TD*
G04 #@! TA.AperFunction,SMDPad,CuDef*
%ADD22RoundRect,0.200000X-0.200000X-0.275000X0.200000X-0.275000X0.200000X0.275000X-0.200000X0.275000X0*%
G04 #@! TD*
G04 #@! TA.AperFunction,ComponentPad*
%ADD23R,1.700000X1.700000*%
G04 #@! TD*
G04 #@! TA.AperFunction,ComponentPad*
%ADD24O,1.700000X1.700000*%
G04 #@! TD*
G04 #@! TA.AperFunction,ComponentPad*
%ADD25R,2.775000X2.775000*%
G04 #@! TD*
G04 #@! TA.AperFunction,ComponentPad*
%ADD26C,2.775000*%
G04 #@! TD*
G04 #@! TA.AperFunction,SMDPad,CuDef*
%ADD27RoundRect,0.250000X0.900000X-1.000000X0.900000X1.000000X-0.900000X1.000000X-0.900000X-1.000000X0*%
G04 #@! TD*
G04 #@! TA.AperFunction,SMDPad,CuDef*
%ADD28R,0.939800X2.489200*%
G04 #@! TD*
G04 #@! TA.AperFunction,SMDPad,CuDef*
%ADD29R,6.781800X6.934200*%
G04 #@! TD*
G04 #@! TA.AperFunction,SMDPad,CuDef*
%ADD30RoundRect,0.200000X-0.275000X0.200000X-0.275000X-0.200000X0.275000X-0.200000X0.275000X0.200000X0*%
G04 #@! TD*
G04 #@! TA.AperFunction,ComponentPad*
%ADD31C,2.780000*%
G04 #@! TD*
G04 #@! TA.AperFunction,SMDPad,CuDef*
%ADD32R,2.180400X3.180001*%
G04 #@! TD*
G04 #@! TA.AperFunction,SMDPad,CuDef*
%ADD33RoundRect,0.200000X0.275000X-0.200000X0.275000X0.200000X-0.275000X0.200000X-0.275000X-0.200000X0*%
G04 #@! TD*
G04 #@! TA.AperFunction,ComponentPad*
%ADD34R,1.508000X1.508000*%
G04 #@! TD*
G04 #@! TA.AperFunction,ComponentPad*
%ADD35C,1.508000*%
G04 #@! TD*
G04 #@! TA.AperFunction,SMDPad,CuDef*
%ADD36R,1.219200X3.302000*%
G04 #@! TD*
G04 #@! TA.AperFunction,SMDPad,CuDef*
%ADD37RoundRect,0.250000X-0.650000X0.325000X-0.650000X-0.325000X0.650000X-0.325000X0.650000X0.325000X0*%
G04 #@! TD*
G04 #@! TA.AperFunction,SMDPad,CuDef*
%ADD38R,1.498600X3.810000*%
G04 #@! TD*
G04 #@! TA.AperFunction,ViaPad*
%ADD39C,0.700000*%
G04 #@! TD*
G04 #@! TA.AperFunction,ViaPad*
%ADD40C,0.500000*%
G04 #@! TD*
G04 #@! TA.AperFunction,Conductor*
%ADD41C,1.000000*%
G04 #@! TD*
G04 #@! TA.AperFunction,Conductor*
%ADD42C,0.254000*%
G04 #@! TD*
G04 #@! TA.AperFunction,Conductor*
%ADD43C,0.200000*%
G04 #@! TD*
G04 #@! TA.AperFunction,Conductor*
%ADD44C,0.177800*%
G04 #@! TD*
G04 APERTURE END LIST*
D10*
X86796621Y-49459321D03*
X79596621Y-49459321D03*
D11*
X101600000Y-108484000D03*
D12*
X176611096Y-16532860D03*
D13*
X142311000Y-23568000D03*
X142311000Y-25268000D03*
X142311000Y-26968000D03*
D14*
X150011000Y-22468000D03*
X150011000Y-25468000D03*
X150011000Y-28468000D03*
X150011000Y-31468000D03*
D15*
X151186000Y-24218000D03*
X151186000Y-29718000D03*
D14*
X151511000Y-23968000D03*
X151511000Y-26968000D03*
X151511000Y-29968000D03*
D16*
X152961000Y-26968000D03*
D14*
X153011000Y-22468000D03*
X153011000Y-25468000D03*
X153011000Y-28468000D03*
X153011000Y-31468000D03*
X154511000Y-23968000D03*
X154511000Y-26968000D03*
X154511000Y-29968000D03*
D15*
X154686000Y-29718000D03*
X154698500Y-24193000D03*
D14*
X156011000Y-22468000D03*
X156011000Y-25468000D03*
X156011000Y-28468000D03*
X156011000Y-31468000D03*
D13*
X142311000Y-28668000D03*
X142311000Y-30368000D03*
D12*
X215465590Y-109216005D03*
X63532842Y-59880142D03*
X202611067Y-125968345D03*
D11*
X159600900Y-16532860D03*
D12*
X93526349Y-97476702D03*
X93526349Y-67516719D03*
X197574411Y-97476702D03*
D17*
X134234000Y-16637000D03*
X143134000Y-16637000D03*
D18*
X103632000Y-26613749D03*
D19*
X110045500Y-28903750D03*
D18*
X103632000Y-31193751D03*
D12*
X62863132Y-92880142D03*
D20*
X191310000Y-69083400D03*
X191310000Y-67833400D03*
X191310000Y-66583400D03*
X191310000Y-65333400D03*
D21*
X187960000Y-63483400D03*
X187960000Y-70933400D03*
D12*
X227297158Y-75880142D03*
X227966868Y-92880142D03*
X214157936Y-17096280D03*
X166350214Y-146903559D03*
D11*
X101600000Y-16532860D03*
D12*
X202611096Y-16532860D03*
X197574411Y-84161566D03*
X63532842Y-83880142D03*
X227297158Y-67880142D03*
D22*
X192342000Y-43180000D03*
X193992000Y-43180000D03*
D12*
X227297158Y-59880142D03*
D11*
X189230000Y-125984000D03*
D10*
X211408697Y-49459321D03*
X204208697Y-49459321D03*
D12*
X145415000Y-149659732D03*
D23*
X196469000Y-42926000D03*
D24*
X199009000Y-42926000D03*
D25*
X200039500Y-32258000D03*
D26*
X200039500Y-39258000D03*
D11*
X101600000Y-65537080D03*
D12*
X219473333Y-84161566D03*
D27*
X97790000Y-32122000D03*
X97790000Y-27822000D03*
D28*
X87827749Y-32140000D03*
D29*
X90117750Y-25726500D03*
D28*
X92407751Y-32140000D03*
D11*
X101600000Y-125984000D03*
X101600000Y-117234000D03*
D12*
X76672065Y-17096280D03*
X63532842Y-75880142D03*
D30*
X102235000Y-36132000D03*
X102235000Y-37782000D03*
D12*
X104971273Y-138822868D03*
D31*
X77040000Y-39504000D03*
X80440000Y-39504000D03*
X77040000Y-29584000D03*
X80440000Y-29584000D03*
D12*
X93526349Y-84161566D03*
X88218905Y-16532860D03*
D32*
X146618800Y-17874000D03*
X152873200Y-17874000D03*
D11*
X189230000Y-86614000D03*
D12*
X71576849Y-67516719D03*
D11*
X189230000Y-76200000D03*
D12*
X71576849Y-97476702D03*
X219473333Y-97476702D03*
X227297158Y-83880142D03*
X75364410Y-109216005D03*
X185858727Y-138822868D03*
D33*
X104343200Y-24269200D03*
X104343200Y-22619200D03*
D12*
X124479786Y-146903559D03*
X114218905Y-16532860D03*
X197574411Y-67516719D03*
X71576849Y-84161566D03*
X219473333Y-67516719D03*
D34*
X189975000Y-32147500D03*
D35*
X189975000Y-34647500D03*
X189975000Y-37147500D03*
X189975000Y-39647500D03*
D12*
X88218933Y-125968345D03*
D36*
X133350000Y-23977600D03*
X133350000Y-30886400D03*
D37*
X139196000Y-23799000D03*
X139196000Y-26749000D03*
D11*
X189230000Y-104184000D03*
D12*
X63532842Y-67880142D03*
D38*
X127000000Y-12903200D03*
X127000000Y-20116800D03*
D11*
X101600000Y-76200000D03*
D39*
X160020000Y-30226000D03*
X128270000Y-19812000D03*
X150876000Y-33274000D03*
X145796000Y-30226000D03*
X130302000Y-17780000D03*
X129286000Y-17780000D03*
X160020000Y-34290000D03*
D40*
X208965800Y-73279000D03*
D39*
X146812000Y-29210000D03*
X159004000Y-31242000D03*
X128270000Y-20828000D03*
X157988000Y-34290000D03*
X157988000Y-30226000D03*
X156972000Y-33274000D03*
X160020000Y-26162000D03*
X147828000Y-28194000D03*
X145796000Y-28194000D03*
D40*
X208965800Y-74041000D03*
D39*
X159004000Y-25146000D03*
X146812000Y-31242000D03*
X157988000Y-26162000D03*
X151892000Y-34290000D03*
X128270000Y-18796000D03*
X148844000Y-29210000D03*
X130302000Y-18796000D03*
X157988000Y-28194000D03*
X147828000Y-30226000D03*
X130302000Y-19812000D03*
X159004000Y-33274000D03*
X128270000Y-21844000D03*
X155956000Y-34290000D03*
X144780000Y-33274000D03*
X146812000Y-27178000D03*
X160020000Y-24130000D03*
X154940000Y-33274000D03*
X153924000Y-34290000D03*
X145796000Y-34290000D03*
X146812000Y-33274000D03*
X148844000Y-31242000D03*
X157988000Y-32258000D03*
X129286000Y-18796000D03*
X148844000Y-27178000D03*
X148844000Y-33274000D03*
X129286000Y-19812000D03*
X152908000Y-33274000D03*
X160020000Y-28194000D03*
X160020000Y-32258000D03*
D40*
X208965800Y-72517000D03*
X209727800Y-71755000D03*
X209727800Y-72517000D03*
D39*
X159004000Y-29210000D03*
X128270000Y-17780000D03*
X149860000Y-34290000D03*
D40*
X208965800Y-71755000D03*
D39*
X147828000Y-32258000D03*
X145796000Y-32258000D03*
X129286000Y-20828000D03*
D40*
X209727800Y-73279000D03*
D39*
X157988000Y-24130000D03*
X147828000Y-34290000D03*
X159004000Y-27178000D03*
D40*
X209727800Y-74041000D03*
D39*
X76708000Y-46736000D03*
X81788000Y-43688000D03*
X77724000Y-41656000D03*
X80772000Y-46736000D03*
X81788000Y-41656000D03*
X78740000Y-42672000D03*
X79756000Y-41656000D03*
X76708000Y-48768000D03*
X76708000Y-44704000D03*
X78740000Y-44704000D03*
X75692000Y-45720000D03*
X79756000Y-45720000D03*
X79756000Y-43688000D03*
X75692000Y-49784000D03*
X77724000Y-43688000D03*
X75692000Y-41656000D03*
X75692000Y-43688000D03*
X80772000Y-42672000D03*
X75692000Y-47752000D03*
X78740000Y-46736000D03*
X81788000Y-45720000D03*
X76708000Y-50800000D03*
X77724000Y-45720000D03*
X80772000Y-44704000D03*
X76708000Y-42672000D03*
X128778000Y-36322000D03*
X125730000Y-33274000D03*
X119634000Y-33274000D03*
X122682000Y-26162000D03*
X116332000Y-32258000D03*
X124714000Y-32258000D03*
X121666000Y-31242000D03*
X126746000Y-28194000D03*
X123698000Y-31242000D03*
X117602000Y-27178000D03*
X122682000Y-36322000D03*
X129794000Y-33274000D03*
X122682000Y-34290000D03*
X126746000Y-36322000D03*
X120650000Y-26162000D03*
X119634000Y-27178000D03*
X129794000Y-27178000D03*
X120650000Y-32258000D03*
X116332000Y-30226000D03*
X122682000Y-32258000D03*
X123698000Y-35306000D03*
X119634000Y-29210000D03*
X117602000Y-33274000D03*
X128778000Y-34290000D03*
X128778000Y-30226000D03*
X128778000Y-32258000D03*
X124714000Y-28194000D03*
X126746000Y-30226000D03*
X120650000Y-36322000D03*
X124714000Y-34290000D03*
X119634000Y-31242000D03*
X120650000Y-28194000D03*
X126746000Y-32258000D03*
X117602000Y-29210000D03*
X130810000Y-28194000D03*
X118618000Y-28194000D03*
X123698000Y-29210000D03*
X127762000Y-29210000D03*
X129794000Y-29210000D03*
X116332000Y-36322000D03*
X116332000Y-26162000D03*
X117602000Y-35306000D03*
X118618000Y-30226000D03*
X121666000Y-29210000D03*
X116332000Y-28194000D03*
X116332000Y-34290000D03*
X125730000Y-29210000D03*
X128778000Y-28194000D03*
X129794000Y-31242000D03*
X130810000Y-36322000D03*
X123698000Y-33274000D03*
X130810000Y-34290000D03*
X118618000Y-26162000D03*
X120650000Y-30226000D03*
X127762000Y-33274000D03*
X127762000Y-35306000D03*
X126746000Y-34290000D03*
X120650000Y-34290000D03*
X131826000Y-35306000D03*
X121666000Y-27178000D03*
X117602000Y-31242000D03*
X123698000Y-27178000D03*
X126746000Y-26162000D03*
X118618000Y-36322000D03*
X119634000Y-35306000D03*
X121666000Y-33274000D03*
X122682000Y-28194000D03*
X124714000Y-30226000D03*
X124714000Y-36322000D03*
X118618000Y-34290000D03*
X131826000Y-27178000D03*
X125730000Y-27178000D03*
X127762000Y-27178000D03*
X122682000Y-30226000D03*
X127762000Y-31242000D03*
X121666000Y-35306000D03*
X128778000Y-26162000D03*
X125730000Y-35306000D03*
X125730000Y-31242000D03*
X130810000Y-26162000D03*
X129794000Y-35306000D03*
X124714000Y-26162000D03*
X118618000Y-32258000D03*
X96774000Y-34163000D03*
X92710000Y-34163000D03*
X102870000Y-32131000D03*
X95758000Y-33147000D03*
X93726000Y-35179000D03*
X94742000Y-34163000D03*
X102870000Y-34163000D03*
X101854000Y-33147000D03*
X99822000Y-33147000D03*
X94742000Y-36195000D03*
X98806000Y-34163000D03*
X95758000Y-35179000D03*
X95758000Y-31115000D03*
X101854000Y-31115000D03*
X97790000Y-35179000D03*
X101854000Y-35179000D03*
X99822000Y-35179000D03*
X93726000Y-31115000D03*
X100838000Y-32131000D03*
X99822000Y-31115000D03*
X100838000Y-34163000D03*
X94742000Y-32131000D03*
X100838000Y-36195000D03*
X96774000Y-36195000D03*
X92710000Y-36195000D03*
X98806000Y-36195000D03*
X103886000Y-33147000D03*
X93726000Y-33147000D03*
X96520000Y-24638000D03*
X97536000Y-24638000D03*
X98552000Y-25654000D03*
X86360000Y-32258000D03*
X87757000Y-34290000D03*
X98552000Y-24638000D03*
X86360000Y-31242000D03*
X89154000Y-33274000D03*
X97536000Y-25654000D03*
X96520000Y-25654000D03*
X86360000Y-34290000D03*
X99568000Y-25654000D03*
X89154000Y-34290000D03*
X89154000Y-31242000D03*
X86360000Y-33274000D03*
X99568000Y-24638000D03*
X89154000Y-32258000D03*
X77724000Y-24892000D03*
X75692000Y-24892000D03*
X75692000Y-26924000D03*
X79756000Y-24892000D03*
X81788000Y-26924000D03*
X80772000Y-25908000D03*
X82804000Y-25908000D03*
X76708000Y-25908000D03*
X81788000Y-22860000D03*
X76708000Y-23876000D03*
X85852000Y-26924000D03*
X78740000Y-27940000D03*
X85852000Y-24892000D03*
X78740000Y-23876000D03*
X77724000Y-22860000D03*
X78740000Y-25908000D03*
X77724000Y-26924000D03*
X84836000Y-27940000D03*
X82804000Y-27940000D03*
X79756000Y-26924000D03*
X85852000Y-22860000D03*
X81788000Y-24892000D03*
X83820000Y-28956000D03*
X83820000Y-24892000D03*
X83820000Y-26924000D03*
X84836000Y-25908000D03*
X82804000Y-29972000D03*
X84836000Y-23876000D03*
X79756000Y-22860000D03*
X82804000Y-23876000D03*
X83820000Y-22860000D03*
X80772000Y-23876000D03*
D40*
X103505000Y-38658800D03*
X102870000Y-22098000D03*
X110871000Y-102108000D03*
X111633000Y-102870000D03*
X112268000Y-133350000D03*
X114681000Y-120015000D03*
X115316000Y-131826000D03*
X115443000Y-122301000D03*
X112268000Y-131826000D03*
X114681000Y-110871000D03*
X114554000Y-131064000D03*
X115443000Y-103632000D03*
X113919000Y-110109000D03*
X113792000Y-133350000D03*
X115443000Y-119253000D03*
X111633000Y-101346000D03*
X115443000Y-113157000D03*
X112395000Y-102108000D03*
X114681000Y-113919000D03*
X115443000Y-116205000D03*
X111506000Y-131064000D03*
X114681000Y-121539000D03*
X115443000Y-102108000D03*
X113157000Y-101346000D03*
X110871000Y-103632000D03*
X114681000Y-102870000D03*
X110744000Y-131826000D03*
X113919000Y-111633000D03*
X113157000Y-112395000D03*
X111633000Y-104394000D03*
X115443000Y-120777000D03*
X113919000Y-100584000D03*
X114681000Y-123063000D03*
X114681000Y-116967000D03*
X113157000Y-121539000D03*
X113157000Y-123063000D03*
X113919000Y-123825000D03*
X114681000Y-115443000D03*
X113919000Y-102108000D03*
X115443000Y-117729000D03*
X114681000Y-101346000D03*
X114554000Y-129540000D03*
X111506000Y-129540000D03*
X115443000Y-111633000D03*
X113030000Y-132588000D03*
X114681000Y-118491000D03*
X113919000Y-122301000D03*
X114681000Y-112395000D03*
X114554000Y-132588000D03*
X112395000Y-100584000D03*
X110744000Y-130302000D03*
X113792000Y-131826000D03*
X111506000Y-132588000D03*
X114681000Y-104394000D03*
X115443000Y-114681000D03*
X113157000Y-110871000D03*
X115316000Y-130302000D03*
X183506300Y-65278000D03*
X195588700Y-41275000D03*
X194809300Y-41275000D03*
X184285700Y-65278000D03*
X188087000Y-61341000D03*
X188087000Y-64516000D03*
X187198000Y-65405000D03*
X188087000Y-65405000D03*
X187198000Y-61341000D03*
X188976000Y-64516000D03*
X188976000Y-62230000D03*
X188976000Y-65405000D03*
X187198000Y-62230000D03*
X188087000Y-62230000D03*
X187198000Y-64516000D03*
X188976000Y-61341000D03*
X188849000Y-68961000D03*
X187071000Y-69850000D03*
X188849000Y-69850000D03*
X187960000Y-68961000D03*
X187960000Y-69850000D03*
X187071000Y-68961000D03*
X154178000Y-72415400D03*
X154178000Y-73939400D03*
X154940000Y-74701400D03*
X155702000Y-70891400D03*
X154178000Y-70891400D03*
X156464000Y-74701400D03*
X156464000Y-73177400D03*
X154940000Y-73177400D03*
X157988000Y-71653400D03*
X154940000Y-70129400D03*
X156464000Y-70129400D03*
X153416000Y-71653400D03*
X157226000Y-73939400D03*
X157226000Y-72415400D03*
X153416000Y-73177400D03*
X157226000Y-70891400D03*
X157988000Y-73177400D03*
X155702000Y-73939400D03*
X155702000Y-72415400D03*
X154940000Y-71653400D03*
X156464000Y-71653400D03*
X154178000Y-95021400D03*
X154178000Y-96545400D03*
X154940000Y-95783400D03*
X154940000Y-94259400D03*
X157988000Y-95783400D03*
X157988000Y-94259400D03*
X156464000Y-97307400D03*
X154178000Y-93497400D03*
X157226000Y-96545400D03*
X155702000Y-96545400D03*
X155702000Y-95021400D03*
X154940000Y-92735400D03*
X156464000Y-95783400D03*
X157226000Y-95021400D03*
X157226000Y-93497400D03*
X153416000Y-95783400D03*
X154940000Y-97307400D03*
X155702000Y-93497400D03*
X156464000Y-92735400D03*
X156464000Y-94259400D03*
X153416000Y-94259400D03*
X206883000Y-89027000D03*
X205105000Y-89789000D03*
X205994000Y-86106000D03*
X206883000Y-86106000D03*
X205994000Y-86868000D03*
X206883000Y-89789000D03*
X205994000Y-89789000D03*
X205994000Y-89027000D03*
X206883000Y-86868000D03*
X205105000Y-89027000D03*
X205105000Y-86106000D03*
X205105000Y-86868000D03*
X205994000Y-78613000D03*
X205994000Y-81534000D03*
X206883000Y-78613000D03*
X205994000Y-82296000D03*
X205105000Y-78613000D03*
X206883000Y-79375000D03*
X205105000Y-82296000D03*
X206883000Y-81534000D03*
X205105000Y-79375000D03*
X205994000Y-79375000D03*
X206883000Y-82296000D03*
X205105000Y-81534000D03*
D39*
X121666000Y-15748000D03*
X122682000Y-16764000D03*
X110998000Y-40132000D03*
X124714000Y-14732000D03*
X122682000Y-14732000D03*
X121666000Y-17780000D03*
X109982000Y-40132000D03*
X109982000Y-38100000D03*
X122682000Y-12700000D03*
X123698000Y-11684000D03*
D40*
X136144000Y-19812000D03*
D39*
X112014000Y-38100000D03*
X123698000Y-15748000D03*
X112014000Y-37084000D03*
X110998000Y-38100000D03*
X108966000Y-39116000D03*
X120650000Y-16764000D03*
X108966000Y-40132000D03*
X124714000Y-16764000D03*
X110998000Y-39116000D03*
X125730000Y-13716000D03*
X122682000Y-18796000D03*
X125730000Y-11684000D03*
X112014000Y-40132000D03*
X123698000Y-13716000D03*
X110998000Y-37084000D03*
X120650000Y-14732000D03*
X109982000Y-37084000D03*
X109982000Y-39116000D03*
X108966000Y-38100000D03*
D40*
X140208000Y-28624000D03*
D39*
X125730000Y-15748000D03*
X121666000Y-13716000D03*
X112014000Y-39116000D03*
X108966000Y-37084000D03*
X123698000Y-17780000D03*
X124714000Y-12700000D03*
D41*
X139196000Y-23799000D02*
X133528600Y-23799000D01*
X139396000Y-23599000D02*
X142921000Y-23599000D01*
X139196000Y-23799000D02*
X139396000Y-23599000D01*
X142921000Y-23599000D02*
X142996000Y-23524000D01*
X133528600Y-23799000D02*
X133350000Y-23977600D01*
D42*
X103822000Y-22098000D02*
X104343200Y-22619200D01*
X193406000Y-39258000D02*
X200039500Y-39258000D01*
X102870000Y-22098000D02*
X103822000Y-22098000D01*
X189738000Y-42926000D02*
X193406000Y-39258000D01*
X103111800Y-38658800D02*
X102235000Y-37782000D01*
X103505000Y-39751000D02*
X106680000Y-42926000D01*
X106680000Y-42926000D02*
X189738000Y-42926000D01*
X103505000Y-38658800D02*
X103505000Y-39751000D01*
X103505000Y-38658800D02*
X103111800Y-38658800D01*
D43*
X183506300Y-65278000D02*
X183685700Y-65457400D01*
X189649699Y-67448100D02*
X190034999Y-67833400D01*
X195588700Y-42045700D02*
X196469000Y-42926000D01*
X184037171Y-65878000D02*
X184106300Y-65878000D01*
X195588700Y-41275000D02*
X195588700Y-42045700D01*
X183685700Y-65526529D02*
X184037171Y-65878000D01*
X190034999Y-67833400D02*
X191310000Y-67833400D01*
X183685700Y-65457400D02*
X183685700Y-65526529D01*
X185676400Y-67448100D02*
X189649699Y-67448100D01*
X184106300Y-65878000D02*
X185676400Y-67448100D01*
X184285700Y-65278000D02*
X184285700Y-65379426D01*
X194809300Y-42362700D02*
X193992000Y-43180000D01*
X189649699Y-66968700D02*
X190034999Y-66583400D01*
X190034999Y-66583400D02*
X191310000Y-66583400D01*
X184285700Y-65379426D02*
X185874974Y-66968700D01*
X194809300Y-41275000D02*
X194809300Y-42362700D01*
X185874974Y-66968700D02*
X189649699Y-66968700D01*
D44*
X194056000Y-40513000D02*
X196596000Y-40513000D01*
X196596000Y-40513000D02*
X199009000Y-42926000D01*
X192342000Y-43180000D02*
X192342000Y-42227000D01*
X192342000Y-42227000D02*
X194056000Y-40513000D01*
D42*
X140208000Y-28624000D02*
X142996000Y-28624000D01*
X136144000Y-19812000D02*
X134234000Y-17902000D01*
X134234000Y-17902000D02*
X134234000Y-16637000D01*
D41*
X146618800Y-18401200D02*
X146618800Y-17874000D01*
X146446000Y-18574000D02*
X146618800Y-18401200D01*
G04 #@! TA.AperFunction,Conductor*
G36*
X153867039Y-16275685D02*
G01*
X153912794Y-16328489D01*
X153924000Y-16380000D01*
X153924000Y-18288000D01*
X157189682Y-21553682D01*
X157223166Y-21615003D01*
X157226000Y-21641361D01*
X157226000Y-33222638D01*
X157206315Y-33289677D01*
X157189681Y-33310319D01*
X155230319Y-35269681D01*
X155168996Y-35303166D01*
X155142638Y-35306000D01*
X135687362Y-35306000D01*
X135620323Y-35286315D01*
X135599681Y-35269681D01*
X132878318Y-32548318D01*
X132844833Y-32486995D01*
X132842000Y-32460646D01*
X132842000Y-29333999D01*
X132861685Y-29266961D01*
X132914489Y-29221206D01*
X132966000Y-29210000D01*
X134060638Y-29210000D01*
X134127677Y-29229685D01*
X134148319Y-29246319D01*
X134874000Y-29972000D01*
X144145000Y-29972000D01*
X144780000Y-29337000D01*
X144780000Y-28067000D01*
X144145000Y-27432000D01*
X138300000Y-27432000D01*
X138232961Y-27412315D01*
X138187206Y-27359511D01*
X138176000Y-27308000D01*
X138176000Y-26540000D01*
X138195685Y-26472961D01*
X138248489Y-26427206D01*
X138300000Y-26416000D01*
X144474638Y-26416000D01*
X144541677Y-26435685D01*
X144562319Y-26452319D01*
X144780000Y-26670000D01*
X147701000Y-26670000D01*
X149479000Y-24892000D01*
X149479000Y-21006360D01*
X149498685Y-20939322D01*
X149515314Y-20918685D01*
X150622000Y-19812000D01*
X150622000Y-17323360D01*
X150641685Y-17256322D01*
X150658314Y-17235685D01*
X151601681Y-16292318D01*
X151663004Y-16258834D01*
X151689362Y-16256000D01*
X153800000Y-16256000D01*
X153867039Y-16275685D01*
G37*
G04 #@! TD.AperFunction*
G04 #@! TA.AperFunction,Conductor*
G36*
X143707039Y-22117685D02*
G01*
X143752794Y-22170489D01*
X143764000Y-22222000D01*
X143764000Y-23752000D01*
X143744315Y-23819039D01*
X143691511Y-23864794D01*
X143640000Y-23876000D01*
X140461999Y-23876000D01*
X139990319Y-24347681D01*
X139928996Y-24381166D01*
X139902638Y-24384000D01*
X135127999Y-24384000D01*
X130302000Y-29209999D01*
X130302000Y-33020000D01*
X132500319Y-35218319D01*
X132533804Y-35279642D01*
X132528820Y-35349334D01*
X132500319Y-35393681D01*
X131100319Y-36793681D01*
X131038996Y-36827166D01*
X131012638Y-36830000D01*
X116383362Y-36830000D01*
X116316323Y-36810315D01*
X116295681Y-36793681D01*
X111760000Y-32258000D01*
X106804000Y-32258000D01*
X106736961Y-32238315D01*
X106691206Y-32185511D01*
X106680000Y-32134000D01*
X106680000Y-25524000D01*
X106699685Y-25456961D01*
X106752489Y-25411206D01*
X106804000Y-25400000D01*
X129032000Y-25400000D01*
X132297681Y-22134318D01*
X132359004Y-22100834D01*
X132385362Y-22098000D01*
X143640000Y-22098000D01*
X143707039Y-22117685D01*
G37*
G04 #@! TD.AperFunction*
G04 #@! TA.AperFunction,Conductor*
G36*
X89158032Y-30861530D02*
G01*
X89269296Y-30876179D01*
X89300561Y-30884556D01*
X89392915Y-30922810D01*
X89420949Y-30938996D01*
X89500258Y-30999853D01*
X89523146Y-31022741D01*
X89584003Y-31102050D01*
X89600189Y-31130085D01*
X89638442Y-31222437D01*
X89646820Y-31253703D01*
X89661469Y-31364966D01*
X89662000Y-31373067D01*
X89662000Y-34285932D01*
X89661469Y-34294033D01*
X89646820Y-34405296D01*
X89638442Y-34436562D01*
X89600189Y-34528914D01*
X89584003Y-34556949D01*
X89523146Y-34636258D01*
X89500258Y-34659146D01*
X89420949Y-34720003D01*
X89392914Y-34736189D01*
X89300562Y-34774442D01*
X89269296Y-34782820D01*
X89171410Y-34795707D01*
X89158032Y-34797469D01*
X89149933Y-34798000D01*
X86364067Y-34798000D01*
X86355967Y-34797469D01*
X86339957Y-34795361D01*
X86244703Y-34782820D01*
X86213437Y-34774442D01*
X86121085Y-34736189D01*
X86093050Y-34720003D01*
X86013741Y-34659146D01*
X85990853Y-34636258D01*
X85929996Y-34556949D01*
X85913810Y-34528914D01*
X85875557Y-34436562D01*
X85867179Y-34405295D01*
X85852531Y-34294033D01*
X85852000Y-34285931D01*
X85852000Y-31373068D01*
X85852531Y-31364966D01*
X85867179Y-31253704D01*
X85875556Y-31222440D01*
X85913812Y-31130081D01*
X85929996Y-31102050D01*
X85990853Y-31022741D01*
X86013741Y-30999853D01*
X86093050Y-30938996D01*
X86121081Y-30922812D01*
X86213440Y-30884556D01*
X86244701Y-30876179D01*
X86355967Y-30861530D01*
X86364068Y-30861000D01*
X89149932Y-30861000D01*
X89158032Y-30861530D01*
G37*
G04 #@! TD.AperFunction*
G04 #@! TA.AperFunction,Conductor*
G36*
X127650677Y-11068685D02*
G01*
X127671319Y-11085319D01*
X127762000Y-11176000D01*
X133298638Y-11176000D01*
X133365677Y-11195685D01*
X133386319Y-11212319D01*
X135980681Y-13806681D01*
X136014166Y-13868004D01*
X136017000Y-13894362D01*
X136017000Y-19053000D01*
X135997315Y-19120039D01*
X135944511Y-19165794D01*
X135893000Y-19177000D01*
X132585000Y-19177000D01*
X132517961Y-19157315D01*
X132472206Y-19104511D01*
X132461000Y-19053000D01*
X132461000Y-16002000D01*
X131191000Y-14732000D01*
X127254000Y-14732000D01*
X127253999Y-14732000D01*
X123698000Y-18287999D01*
X123698000Y-19307000D01*
X123678315Y-19374039D01*
X123625511Y-19419794D01*
X123574000Y-19431000D01*
X121590362Y-19431000D01*
X121523323Y-19411315D01*
X121502681Y-19394681D01*
X120178319Y-18070319D01*
X120144834Y-18008996D01*
X120142000Y-17982638D01*
X120142000Y-14783362D01*
X120161685Y-14716323D01*
X120178319Y-14695681D01*
X123788681Y-11085319D01*
X123850004Y-11051834D01*
X123876362Y-11049000D01*
X127583638Y-11049000D01*
X127650677Y-11068685D01*
G37*
G04 #@! TD.AperFunction*
G04 #@! TA.AperFunction,Conductor*
G36*
X104398032Y-23876530D02*
G01*
X104509296Y-23891179D01*
X104540561Y-23899556D01*
X104632915Y-23937810D01*
X104660949Y-23953996D01*
X104740258Y-24014853D01*
X104763146Y-24037741D01*
X104824003Y-24117050D01*
X104840189Y-24145085D01*
X104878442Y-24237437D01*
X104886820Y-24268703D01*
X104901469Y-24379966D01*
X104902000Y-24388067D01*
X104902000Y-26665932D01*
X104901469Y-26674033D01*
X104886820Y-26785296D01*
X104878442Y-26816562D01*
X104840189Y-26908914D01*
X104824003Y-26936949D01*
X104763146Y-27016258D01*
X104740258Y-27039146D01*
X104660949Y-27100003D01*
X104632914Y-27116189D01*
X104540562Y-27154442D01*
X104509296Y-27162820D01*
X104411410Y-27175707D01*
X104398032Y-27177469D01*
X104389933Y-27178000D01*
X102489000Y-27178000D01*
X102340209Y-27326790D01*
X102340201Y-27326797D01*
X100862671Y-28804329D01*
X100856567Y-28809681D01*
X100767529Y-28878004D01*
X100739494Y-28894189D01*
X100647142Y-28932442D01*
X100615876Y-28940820D01*
X100517990Y-28953707D01*
X100504612Y-28955469D01*
X100496513Y-28956000D01*
X96524067Y-28956000D01*
X96515967Y-28955469D01*
X96499957Y-28953361D01*
X96404703Y-28940820D01*
X96373437Y-28932442D01*
X96281085Y-28894189D01*
X96253050Y-28878003D01*
X96173741Y-28817146D01*
X96150853Y-28794258D01*
X96089996Y-28714949D01*
X96073810Y-28686914D01*
X96035557Y-28594562D01*
X96027179Y-28563295D01*
X96012531Y-28452033D01*
X96012000Y-28443931D01*
X96012000Y-24388068D01*
X96012531Y-24379966D01*
X96027179Y-24268704D01*
X96035556Y-24237440D01*
X96073812Y-24145081D01*
X96089996Y-24117050D01*
X96150853Y-24037741D01*
X96173741Y-24014853D01*
X96253050Y-23953996D01*
X96281081Y-23937812D01*
X96373440Y-23899556D01*
X96404701Y-23891179D01*
X96515967Y-23876530D01*
X96524068Y-23876000D01*
X104389932Y-23876000D01*
X104398032Y-23876530D01*
G37*
G04 #@! TD.AperFunction*
G04 #@! TA.AperFunction,Conductor*
G36*
X130571677Y-17291685D02*
G01*
X130592319Y-17308319D01*
X130773681Y-17489681D01*
X130807166Y-17551004D01*
X130810000Y-17577362D01*
X130810000Y-20014637D01*
X130790315Y-20081676D01*
X130773681Y-20102318D01*
X128814319Y-22061681D01*
X128752996Y-22095166D01*
X128726638Y-22098000D01*
X126797362Y-22098000D01*
X126730323Y-22078315D01*
X126709681Y-22061681D01*
X126274319Y-21626319D01*
X126240834Y-21564996D01*
X126238000Y-21538638D01*
X126238000Y-18593362D01*
X126257685Y-18526323D01*
X126274319Y-18505681D01*
X127471681Y-17308319D01*
X127533004Y-17274834D01*
X127559362Y-17272000D01*
X130504638Y-17272000D01*
X130571677Y-17291685D01*
G37*
G04 #@! TD.AperFunction*
G04 #@! TA.AperFunction,Conductor*
G36*
X203418245Y-45339205D02*
G01*
X203488833Y-45344952D01*
X203611128Y-45354909D01*
X203630971Y-45358162D01*
X203811424Y-45403035D01*
X203830485Y-45409457D01*
X204001293Y-45482927D01*
X204019073Y-45492352D01*
X204175748Y-45592488D01*
X204191770Y-45604667D01*
X204335813Y-45733879D01*
X204339421Y-45737389D01*
X205897944Y-47382496D01*
X205901772Y-47386942D01*
X206040785Y-47564741D01*
X206053426Y-47584515D01*
X206152405Y-47777460D01*
X206161094Y-47799266D01*
X206220255Y-48001653D01*
X206221935Y-48007397D01*
X206226359Y-48030452D01*
X206247721Y-48255127D01*
X206248000Y-48260999D01*
X206248000Y-53826900D01*
X206247701Y-53832981D01*
X206224794Y-54065557D01*
X206220052Y-54089398D01*
X206154871Y-54304272D01*
X206145568Y-54326730D01*
X206039723Y-54524751D01*
X206026218Y-54544963D01*
X205877957Y-54725620D01*
X205873869Y-54730131D01*
X203066131Y-57537869D01*
X203061620Y-57541957D01*
X202880963Y-57690218D01*
X202860751Y-57703723D01*
X202662730Y-57809568D01*
X202640272Y-57818871D01*
X202425398Y-57884052D01*
X202401557Y-57888794D01*
X202168981Y-57911701D01*
X202162900Y-57912000D01*
X88921100Y-57912000D01*
X88915019Y-57911701D01*
X88682442Y-57888794D01*
X88658601Y-57884052D01*
X88443727Y-57818871D01*
X88421269Y-57809568D01*
X88223248Y-57703723D01*
X88203036Y-57690218D01*
X88022379Y-57541957D01*
X88017878Y-57537878D01*
X85210120Y-54730120D01*
X85206042Y-54725620D01*
X85057781Y-54544963D01*
X85044276Y-54524751D01*
X84938431Y-54326730D01*
X84929128Y-54304272D01*
X84863945Y-54089392D01*
X84859206Y-54065564D01*
X84836299Y-53832981D01*
X84836000Y-53826900D01*
X84836000Y-48004583D01*
X84836276Y-47998736D01*
X84857455Y-47775011D01*
X84861839Y-47752064D01*
X84922167Y-47544739D01*
X84930783Y-47523015D01*
X85028942Y-47330703D01*
X85041479Y-47310985D01*
X85179391Y-47133549D01*
X85183184Y-47129116D01*
X86490212Y-45740399D01*
X86493765Y-45736919D01*
X86638047Y-45606723D01*
X86654085Y-45594466D01*
X86811169Y-45493562D01*
X86828992Y-45484069D01*
X87000377Y-45410018D01*
X87019500Y-45403548D01*
X87200631Y-45358318D01*
X87220562Y-45355037D01*
X87369396Y-45342869D01*
X87414213Y-45339206D01*
X87419267Y-45339000D01*
X203413212Y-45339000D01*
X203418245Y-45339205D01*
G37*
G04 #@! TD.AperFunction*
G04 #@! TA.AperFunction,Conductor*
G36*
X145430677Y-14116685D02*
G01*
X145451319Y-14133319D01*
X147791682Y-16473682D01*
X147825166Y-16535003D01*
X147828000Y-16561361D01*
X147828000Y-24078638D01*
X147808315Y-24145677D01*
X147791681Y-24166319D01*
X146213319Y-25744681D01*
X146151996Y-25778166D01*
X146125638Y-25781000D01*
X141094000Y-25781000D01*
X141026961Y-25761315D01*
X140981206Y-25708511D01*
X140970000Y-25657000D01*
X140970000Y-24889000D01*
X140989685Y-24821961D01*
X141042489Y-24776206D01*
X141094000Y-24765000D01*
X144272000Y-24765000D01*
X144907000Y-24130000D01*
X144907000Y-20955000D01*
X141387318Y-17435318D01*
X141353834Y-17373996D01*
X141351000Y-17347638D01*
X141351000Y-14221000D01*
X141370685Y-14153961D01*
X141423489Y-14108206D01*
X141475000Y-14097000D01*
X145363638Y-14097000D01*
X145430677Y-14116685D01*
G37*
G04 #@! TD.AperFunction*
G04 #@! TA.AperFunction,Conductor*
G36*
X190951039Y-30753685D02*
G01*
X190996794Y-30806489D01*
X191008000Y-30858000D01*
X191008000Y-33023000D01*
X190988315Y-33090039D01*
X190935511Y-33135794D01*
X190884000Y-33147000D01*
X174751999Y-33147000D01*
X167168319Y-40730681D01*
X167106996Y-40764166D01*
X167080638Y-40767000D01*
X108763362Y-40767000D01*
X108696323Y-40747315D01*
X108675681Y-40730681D01*
X108494319Y-40549319D01*
X108460834Y-40487996D01*
X108458000Y-40461638D01*
X108458000Y-36827000D01*
X108477685Y-36759961D01*
X108530489Y-36714206D01*
X108582000Y-36703000D01*
X112398000Y-36703000D01*
X112465039Y-36722685D01*
X112510794Y-36775489D01*
X112522000Y-36827000D01*
X112522000Y-37846000D01*
X113157000Y-38481000D01*
X166116000Y-38481000D01*
X173826681Y-30770319D01*
X173888004Y-30736834D01*
X173914362Y-30734000D01*
X190884000Y-30734000D01*
X190951039Y-30753685D01*
G37*
G04 #@! TD.AperFunction*
G04 #@! TA.AperFunction,Conductor*
G36*
X92204695Y-22098235D02*
G01*
X92411727Y-22116348D01*
X92433004Y-22120099D01*
X92625888Y-22171782D01*
X92646198Y-22179175D01*
X92827165Y-22263562D01*
X92845883Y-22274369D01*
X93009456Y-22388904D01*
X93026014Y-22402798D01*
X93167201Y-22543985D01*
X93181095Y-22560543D01*
X93295630Y-22724116D01*
X93306437Y-22742834D01*
X93390824Y-22923801D01*
X93398217Y-22944112D01*
X93449898Y-23136988D01*
X93453651Y-23158274D01*
X93467845Y-23320513D01*
X93471764Y-23365299D01*
X93472000Y-23370705D01*
X93472000Y-27937294D01*
X93471764Y-27942700D01*
X93453651Y-28149725D01*
X93449898Y-28171011D01*
X93398217Y-28363887D01*
X93390824Y-28384198D01*
X93306437Y-28565165D01*
X93295630Y-28583883D01*
X93181095Y-28747456D01*
X93167201Y-28764014D01*
X93026014Y-28905201D01*
X93009456Y-28919095D01*
X92845883Y-29033630D01*
X92827165Y-29044437D01*
X92646198Y-29128824D01*
X92625887Y-29136217D01*
X92433011Y-29187898D01*
X92411725Y-29191651D01*
X92261864Y-29204762D01*
X92204695Y-29209764D01*
X92199294Y-29210000D01*
X84074000Y-29210000D01*
X83702031Y-29581968D01*
X83702020Y-29581978D01*
X82475609Y-30808389D01*
X82475603Y-30808396D01*
X82475599Y-30808400D01*
X82296000Y-30988000D01*
X82296000Y-31241588D01*
X82295603Y-31243993D01*
X82281476Y-31315011D01*
X82262962Y-31359708D01*
X82235309Y-31401095D01*
X82201095Y-31435309D01*
X82159708Y-31462962D01*
X82115012Y-31481476D01*
X82066989Y-31491029D01*
X82053978Y-31493617D01*
X82029788Y-31496000D01*
X76202706Y-31496000D01*
X76197304Y-31495764D01*
X76133000Y-31490138D01*
X75990274Y-31477651D01*
X75968988Y-31473898D01*
X75776112Y-31422217D01*
X75755801Y-31414824D01*
X75574834Y-31330437D01*
X75556116Y-31319630D01*
X75392543Y-31205095D01*
X75375985Y-31191201D01*
X75234798Y-31050014D01*
X75220904Y-31033456D01*
X75106369Y-30869883D01*
X75095562Y-30851165D01*
X75011175Y-30670198D01*
X75003782Y-30649887D01*
X74952099Y-30457004D01*
X74948348Y-30435724D01*
X74930236Y-30228700D01*
X74930000Y-30223294D01*
X74930000Y-24003371D01*
X74930267Y-23997626D01*
X74950717Y-23777755D01*
X74954953Y-23755182D01*
X75013224Y-23551180D01*
X75021550Y-23529775D01*
X75116451Y-23340006D01*
X75128571Y-23320521D01*
X75262086Y-23144600D01*
X75265756Y-23140205D01*
X75455113Y-22933634D01*
X75841873Y-22511713D01*
X75845471Y-22508100D01*
X75990482Y-22374098D01*
X76006652Y-22361468D01*
X76165312Y-22257475D01*
X76183334Y-22247693D01*
X76356981Y-22171304D01*
X76376378Y-22164627D01*
X76560238Y-22117944D01*
X76580483Y-22114557D01*
X76777225Y-22098212D01*
X76782354Y-22098000D01*
X92199294Y-22098000D01*
X92204695Y-22098235D01*
G37*
G04 #@! TD.AperFunction*
G04 #@! TA.AperFunction,Conductor*
G36*
X193055677Y-64662685D02*
G01*
X193076319Y-64679319D01*
X193892681Y-65495681D01*
X193926166Y-65557004D01*
X193929000Y-65583361D01*
X193929000Y-69469000D01*
X195834000Y-71374000D01*
X210061000Y-71374000D01*
X210128039Y-71393685D01*
X210173794Y-71446489D01*
X210185000Y-71498000D01*
X210185000Y-74298000D01*
X210165315Y-74365039D01*
X210112511Y-74410794D01*
X210061000Y-74422000D01*
X194107362Y-74422000D01*
X194040323Y-74402315D01*
X194019681Y-74385681D01*
X190536319Y-70902319D01*
X190502834Y-70840996D01*
X190500000Y-70814638D01*
X190500000Y-68856400D01*
X190519685Y-68789361D01*
X190572489Y-68743606D01*
X190624000Y-68732400D01*
X192506600Y-68732400D01*
X192786000Y-68453000D01*
X192786000Y-66040000D01*
X192430400Y-65684400D01*
X190624000Y-65684400D01*
X190556961Y-65664715D01*
X190511206Y-65611911D01*
X190500000Y-65560400D01*
X190500000Y-64767000D01*
X190519685Y-64699961D01*
X190572489Y-64654206D01*
X190624000Y-64643000D01*
X192988638Y-64643000D01*
X193055677Y-64662685D01*
G37*
G04 #@! TD.AperFunction*
G04 #@! TA.AperFunction,Conductor*
G36*
X207025677Y-77997685D02*
G01*
X207046319Y-78014319D01*
X207481681Y-78449681D01*
X207515166Y-78511004D01*
X207518000Y-78537362D01*
X207518000Y-82117638D01*
X207498315Y-82184677D01*
X207481681Y-82205319D01*
X207046319Y-82640681D01*
X206984996Y-82674166D01*
X206958638Y-82677000D01*
X205029362Y-82677000D01*
X204962323Y-82657315D01*
X204941681Y-82640681D01*
X204506319Y-82205319D01*
X204472834Y-82143996D01*
X204470000Y-82117638D01*
X204470000Y-78537361D01*
X204489685Y-78470322D01*
X204506314Y-78449685D01*
X204941681Y-78014318D01*
X205003004Y-77980834D01*
X205029362Y-77978000D01*
X206958638Y-77978000D01*
X207025677Y-77997685D01*
G37*
G04 #@! TD.AperFunction*
G04 #@! TA.AperFunction,Conductor*
G36*
X189118677Y-60954285D02*
G01*
X189139319Y-60970919D01*
X189447682Y-61279282D01*
X189481166Y-61340603D01*
X189484000Y-61366961D01*
X189484000Y-65353638D01*
X189464315Y-65420677D01*
X189447681Y-65441319D01*
X189139319Y-65749681D01*
X189077996Y-65783166D01*
X189051638Y-65786000D01*
X187020762Y-65786000D01*
X186953723Y-65766315D01*
X186933081Y-65749681D01*
X186599319Y-65415919D01*
X186565834Y-65354596D01*
X186563000Y-65328238D01*
X186563000Y-61366961D01*
X186582685Y-61299922D01*
X186599314Y-61279285D01*
X186907681Y-60970919D01*
X186969004Y-60937434D01*
X186995362Y-60934600D01*
X189051638Y-60934600D01*
X189118677Y-60954285D01*
G37*
G04 #@! TD.AperFunction*
G04 #@! TA.AperFunction,Conductor*
G36*
X188991677Y-68574285D02*
G01*
X189012319Y-68590919D01*
X189320680Y-68899280D01*
X189354165Y-68960603D01*
X189356999Y-68986961D01*
X189357000Y-71250000D01*
X189337315Y-71317039D01*
X189284512Y-71362794D01*
X189233000Y-71374000D01*
X186560000Y-71374000D01*
X186492961Y-71354315D01*
X186447206Y-71301511D01*
X186436000Y-71250000D01*
X186436000Y-68986962D01*
X186455685Y-68919923D01*
X186472319Y-68899281D01*
X186780681Y-68590919D01*
X186842004Y-68557434D01*
X186868362Y-68554600D01*
X188924638Y-68554600D01*
X188991677Y-68574285D01*
G37*
G04 #@! TD.AperFunction*
G04 #@! TA.AperFunction,Conductor*
G36*
X207025677Y-85744685D02*
G01*
X207046319Y-85761319D01*
X207481681Y-86196681D01*
X207515166Y-86258004D01*
X207518000Y-86284362D01*
X207518000Y-89737637D01*
X207498315Y-89804676D01*
X207481681Y-89825318D01*
X207046319Y-90260681D01*
X206984996Y-90294166D01*
X206958638Y-90297000D01*
X205029362Y-90297000D01*
X204962323Y-90277315D01*
X204941681Y-90260681D01*
X204506319Y-89825319D01*
X204472834Y-89763996D01*
X204470000Y-89737638D01*
X204470000Y-86284362D01*
X204489685Y-86217323D01*
X204506319Y-86196681D01*
X204941681Y-85761319D01*
X205003004Y-85727834D01*
X205029362Y-85725000D01*
X206958638Y-85725000D01*
X207025677Y-85744685D01*
G37*
G04 #@! TD.AperFunction*
G04 #@! TA.AperFunction,Conductor*
G36*
X81028695Y-37846235D02*
G01*
X81235727Y-37864348D01*
X81257004Y-37868099D01*
X81449888Y-37919782D01*
X81470198Y-37927175D01*
X81651165Y-38011562D01*
X81669883Y-38022369D01*
X81833456Y-38136904D01*
X81850014Y-38150798D01*
X81991201Y-38291985D01*
X82005095Y-38308543D01*
X82119630Y-38472116D01*
X82130437Y-38490834D01*
X82214824Y-38671801D01*
X82222217Y-38692112D01*
X82273898Y-38884988D01*
X82277651Y-38906274D01*
X82295764Y-39113299D01*
X82296000Y-39118705D01*
X82296000Y-46460900D01*
X82295701Y-46466981D01*
X82272794Y-46699557D01*
X82268052Y-46723398D01*
X82202871Y-46938272D01*
X82193568Y-46960730D01*
X82087723Y-47158751D01*
X82074218Y-47178963D01*
X81925958Y-47359619D01*
X81921879Y-47364119D01*
X81914125Y-47371873D01*
X81905977Y-47380021D01*
X81905972Y-47380026D01*
X81534000Y-47752000D01*
X81534000Y-48278050D01*
X81534000Y-48278054D01*
X81534000Y-50797294D01*
X81533764Y-50802700D01*
X81515651Y-51009725D01*
X81511898Y-51031011D01*
X81460217Y-51223887D01*
X81452824Y-51244198D01*
X81368437Y-51425165D01*
X81357630Y-51443883D01*
X81243095Y-51607456D01*
X81229201Y-51624014D01*
X81088014Y-51765201D01*
X81071456Y-51779095D01*
X80907883Y-51893630D01*
X80889165Y-51904437D01*
X80708198Y-51988824D01*
X80687887Y-51996217D01*
X80495011Y-52047898D01*
X80473725Y-52051651D01*
X80323864Y-52064762D01*
X80266695Y-52069764D01*
X80261294Y-52070000D01*
X76202706Y-52070000D01*
X76197304Y-52069764D01*
X76133000Y-52064138D01*
X75990274Y-52051651D01*
X75968988Y-52047898D01*
X75776112Y-51996217D01*
X75755801Y-51988824D01*
X75574834Y-51904437D01*
X75556116Y-51893630D01*
X75392543Y-51779095D01*
X75375985Y-51765201D01*
X75234798Y-51624014D01*
X75220904Y-51607456D01*
X75106369Y-51443883D01*
X75095562Y-51425165D01*
X75011175Y-51244198D01*
X75003782Y-51223887D01*
X74952099Y-51031004D01*
X74948348Y-51009724D01*
X74930236Y-50802700D01*
X74930000Y-50797294D01*
X74930000Y-39118705D01*
X74930236Y-39113299D01*
X74948348Y-38906275D01*
X74948349Y-38906274D01*
X74948348Y-38906270D01*
X74952099Y-38884996D01*
X75003783Y-38692107D01*
X75011175Y-38671801D01*
X75095562Y-38490834D01*
X75106369Y-38472116D01*
X75220904Y-38308543D01*
X75234792Y-38291991D01*
X75375991Y-38150792D01*
X75392543Y-38136904D01*
X75556116Y-38022369D01*
X75574831Y-38011563D01*
X75755803Y-37927174D01*
X75776107Y-37919783D01*
X75968996Y-37868099D01*
X75990270Y-37864348D01*
X76197304Y-37846235D01*
X76202706Y-37846000D01*
X81023294Y-37846000D01*
X81028695Y-37846235D01*
G37*
G04 #@! TD.AperFunction*
G04 #@! TA.AperFunction,Conductor*
G36*
X158337439Y-67964685D02*
G01*
X158383194Y-68017489D01*
X158394400Y-68069000D01*
X158394400Y-74726238D01*
X158374715Y-74793277D01*
X158358081Y-74813919D01*
X156464000Y-76707999D01*
X156464000Y-78717600D01*
X156444315Y-78784639D01*
X156391511Y-78830394D01*
X156340000Y-78841600D01*
X154937000Y-78841600D01*
X154869961Y-78821915D01*
X154824206Y-78769111D01*
X154813000Y-78717600D01*
X154813000Y-76708000D01*
X152918919Y-74813919D01*
X152885434Y-74752596D01*
X152882600Y-74726238D01*
X152882600Y-68069000D01*
X152902285Y-68001961D01*
X152955089Y-67956206D01*
X153006600Y-67945000D01*
X158270400Y-67945000D01*
X158337439Y-67964685D01*
G37*
G04 #@! TD.AperFunction*
G04 #@! TA.AperFunction,Conductor*
G36*
X156407039Y-88716485D02*
G01*
X156452794Y-88769289D01*
X156464000Y-88820800D01*
X156464000Y-90830400D01*
X158358081Y-92724481D01*
X158391566Y-92785804D01*
X158394400Y-92812162D01*
X158394400Y-99469400D01*
X158374715Y-99536439D01*
X158321911Y-99582194D01*
X158270400Y-99593400D01*
X153006600Y-99593400D01*
X152939561Y-99573715D01*
X152893806Y-99520911D01*
X152882600Y-99469400D01*
X152882600Y-92812161D01*
X152902285Y-92745122D01*
X152918914Y-92724485D01*
X154813000Y-90830400D01*
X154813000Y-88820800D01*
X154832685Y-88753761D01*
X154885489Y-88708006D01*
X154937000Y-88696800D01*
X156340000Y-88696800D01*
X156407039Y-88716485D01*
G37*
G04 #@! TD.AperFunction*
G04 #@! TA.AperFunction,Conductor*
G36*
X103380695Y-30734235D02*
G01*
X103587727Y-30752348D01*
X103609004Y-30756099D01*
X103801888Y-30807782D01*
X103822198Y-30815175D01*
X104003165Y-30899562D01*
X104021883Y-30910369D01*
X104185456Y-31024904D01*
X104202014Y-31038798D01*
X104343201Y-31179985D01*
X104357095Y-31196543D01*
X104471630Y-31360116D01*
X104482437Y-31378834D01*
X104566824Y-31559801D01*
X104574217Y-31580112D01*
X104625898Y-31772988D01*
X104629651Y-31794274D01*
X104647764Y-32001299D01*
X104648000Y-32006705D01*
X104648000Y-33261900D01*
X104647701Y-33267981D01*
X104624794Y-33500557D01*
X104620052Y-33524398D01*
X104554871Y-33739272D01*
X104545568Y-33761730D01*
X104439723Y-33959751D01*
X104426218Y-33979963D01*
X104361107Y-34059300D01*
X104277947Y-34160630D01*
X104273888Y-34165109D01*
X103674395Y-34764603D01*
X103226032Y-35212966D01*
X103226025Y-35212974D01*
X102870000Y-35569000D01*
X102870000Y-36072500D01*
X102870000Y-36072501D01*
X102854974Y-36186629D01*
X102846596Y-36217895D01*
X102808791Y-36309165D01*
X102792605Y-36337200D01*
X102732464Y-36415576D01*
X102709576Y-36438464D01*
X102631200Y-36498605D01*
X102603165Y-36514791D01*
X102511895Y-36552596D01*
X102480629Y-36560974D01*
X102391433Y-36572717D01*
X102370531Y-36575469D01*
X102362434Y-36576000D01*
X93220706Y-36576000D01*
X93215304Y-36575764D01*
X93151000Y-36570138D01*
X93008274Y-36557651D01*
X92986988Y-36553898D01*
X92794112Y-36502217D01*
X92773801Y-36494824D01*
X92592834Y-36410437D01*
X92574116Y-36399630D01*
X92410543Y-36285095D01*
X92393985Y-36271201D01*
X92252798Y-36130014D01*
X92238904Y-36113456D01*
X92124369Y-35949883D01*
X92113562Y-35931165D01*
X92029175Y-35750198D01*
X92021782Y-35729887D01*
X91988941Y-35607322D01*
X91970099Y-35537004D01*
X91966348Y-35515724D01*
X91955976Y-35397174D01*
X91948235Y-35308695D01*
X91948000Y-35303294D01*
X91948000Y-31378755D01*
X91949524Y-31359371D01*
X91963576Y-31270652D01*
X91975560Y-31233771D01*
X92011851Y-31162546D01*
X92034648Y-31131170D01*
X92091170Y-31074648D01*
X92122546Y-31051851D01*
X92193771Y-31015560D01*
X92230654Y-31003576D01*
X92319369Y-30989525D01*
X92338756Y-30988000D01*
X92530388Y-30988000D01*
X92530395Y-30988000D01*
X92710000Y-30988000D01*
X92836991Y-30861006D01*
X92837000Y-30861000D01*
X92888048Y-30821828D01*
X92913854Y-30802027D01*
X92941882Y-30785845D01*
X93016300Y-30755020D01*
X93047563Y-30746644D01*
X93139572Y-30734530D01*
X93147673Y-30734000D01*
X103375294Y-30734000D01*
X103380695Y-30734235D01*
G37*
G04 #@! TD.AperFunction*
G04 #@! TA.AperFunction,Conductor*
G36*
X118053039Y-99968685D02*
G01*
X118098794Y-100021489D01*
X118110000Y-100073000D01*
X118110000Y-134369000D01*
X118090315Y-134436039D01*
X118037511Y-134481794D01*
X117986000Y-134493000D01*
X109598000Y-134493000D01*
X109530961Y-134473315D01*
X109485206Y-134420511D01*
X109474000Y-134369000D01*
X109474000Y-130480362D01*
X109493685Y-130413323D01*
X109510319Y-130392681D01*
X109510319Y-130392680D01*
X112776000Y-127127000D01*
X112776000Y-121539000D01*
X110526319Y-119289319D01*
X110492834Y-119227996D01*
X110490000Y-119201638D01*
X110490000Y-114859362D01*
X110509685Y-114792323D01*
X110526319Y-114771681D01*
X110526318Y-114771681D01*
X112776000Y-112522000D01*
X112776000Y-106807000D01*
X109002318Y-103033318D01*
X108968833Y-102971995D01*
X108966000Y-102945646D01*
X108966000Y-100072999D01*
X108985685Y-100005961D01*
X109038489Y-99960206D01*
X109090000Y-99949000D01*
X117986000Y-99949000D01*
X118053039Y-99968685D01*
G37*
G04 #@! TD.AperFunction*
M02*
