G04 #@! TF.GenerationSoftware,KiCad,Pcbnew,7.0.6*
G04 #@! TF.CreationDate,2023-12-26T17:11:54-08:00*
G04 #@! TF.ProjectId,midplate,6d696470-6c61-4746-952e-6b696361645f,rev?*
G04 #@! TF.SameCoordinates,Original*
G04 #@! TF.FileFunction,Copper,L2,Bot*
G04 #@! TF.FilePolarity,Positive*
%FSLAX46Y46*%
G04 Gerber Fmt 4.6, Leading zero omitted, Abs format (unit mm)*
G04 Created by KiCad (PCBNEW 7.0.6) date 2023-12-26 17:11:54*
%MOMM*%
%LPD*%
G01*
G04 APERTURE LIST*
G04 Aperture macros list*
%AMRoundRect*
0 Rectangle with rounded corners*
0 $1 Rounding radius*
0 $2 $3 $4 $5 $6 $7 $8 $9 X,Y pos of 4 corners*
0 Add a 4 corners polygon primitive as box body*
4,1,4,$2,$3,$4,$5,$6,$7,$8,$9,$2,$3,0*
0 Add four circle primitives for the rounded corners*
1,1,$1+$1,$2,$3*
1,1,$1+$1,$4,$5*
1,1,$1+$1,$6,$7*
1,1,$1+$1,$8,$9*
0 Add four rect primitives between the rounded corners*
20,1,$1+$1,$2,$3,$4,$5,0*
20,1,$1+$1,$4,$5,$6,$7,0*
20,1,$1+$1,$6,$7,$8,$9,0*
20,1,$1+$1,$8,$9,$2,$3,0*%
G04 Aperture macros list end*
G04 #@! TA.AperFunction,SMDPad,CuDef*
%ADD10R,2.540000X1.270000*%
G04 #@! TD*
G04 #@! TA.AperFunction,SMDPad,CuDef*
%ADD11R,1.651000X3.429000*%
G04 #@! TD*
G04 #@! TA.AperFunction,SMDPad,CuDef*
%ADD12R,2.616200X1.346200*%
G04 #@! TD*
G04 #@! TA.AperFunction,SMDPad,CuDef*
%ADD13R,1.727200X3.505200*%
G04 #@! TD*
G04 #@! TA.AperFunction,ComponentPad*
%ADD14R,2.775000X2.775000*%
G04 #@! TD*
G04 #@! TA.AperFunction,ComponentPad*
%ADD15C,2.775000*%
G04 #@! TD*
G04 #@! TA.AperFunction,ComponentPad*
%ADD16C,3.700000*%
G04 #@! TD*
G04 #@! TA.AperFunction,ComponentPad*
%ADD17C,6.200000*%
G04 #@! TD*
G04 #@! TA.AperFunction,ComponentPad*
%ADD18C,4.700000*%
G04 #@! TD*
G04 #@! TA.AperFunction,ComponentPad*
%ADD19R,1.700000X1.700000*%
G04 #@! TD*
G04 #@! TA.AperFunction,ComponentPad*
%ADD20O,1.700000X1.700000*%
G04 #@! TD*
G04 #@! TA.AperFunction,ComponentPad*
%ADD21C,2.780000*%
G04 #@! TD*
G04 #@! TA.AperFunction,ComponentPad*
%ADD22R,1.508000X1.508000*%
G04 #@! TD*
G04 #@! TA.AperFunction,ComponentPad*
%ADD23C,1.508000*%
G04 #@! TD*
G04 #@! TA.AperFunction,SMDPad,CuDef*
%ADD24RoundRect,0.200000X-0.200000X-0.275000X0.200000X-0.275000X0.200000X0.275000X-0.200000X0.275000X0*%
G04 #@! TD*
G04 #@! TA.AperFunction,SMDPad,CuDef*
%ADD25RoundRect,0.200000X0.200000X0.275000X-0.200000X0.275000X-0.200000X-0.275000X0.200000X-0.275000X0*%
G04 #@! TD*
G04 #@! TA.AperFunction,SMDPad,CuDef*
%ADD26R,1.700000X0.600000*%
G04 #@! TD*
G04 #@! TA.AperFunction,SMDPad,CuDef*
%ADD27R,2.800000X1.000000*%
G04 #@! TD*
G04 #@! TA.AperFunction,ViaPad*
%ADD28C,0.700000*%
G04 #@! TD*
G04 #@! TA.AperFunction,ViaPad*
%ADD29C,0.500000*%
G04 #@! TD*
G04 #@! TA.AperFunction,Conductor*
%ADD30C,2.540000*%
G04 #@! TD*
G04 #@! TA.AperFunction,Conductor*
%ADD31C,0.254000*%
G04 #@! TD*
G04 #@! TA.AperFunction,Conductor*
%ADD32C,0.200000*%
G04 #@! TD*
G04 APERTURE END LIST*
D10*
X155254651Y-86239100D03*
X155254651Y-83239101D03*
X155254651Y-80239102D03*
X145854650Y-86239100D03*
X145854650Y-83239101D03*
X145854650Y-80239102D03*
D11*
X150554650Y-76604101D03*
X150554650Y-89874101D03*
D12*
X109893100Y-111228000D03*
X109893100Y-108228001D03*
D13*
X113093500Y-114935000D03*
X113093500Y-104521000D03*
D12*
X109893100Y-125833000D03*
X109893100Y-122833001D03*
D13*
X113093500Y-129540000D03*
X113093500Y-119126000D03*
D14*
X200039500Y-32258000D03*
D15*
X200039500Y-39258000D03*
D16*
X86796621Y-49459321D03*
X79596621Y-49459321D03*
D17*
X101600000Y-108484000D03*
D18*
X172611096Y-16532860D03*
X215465590Y-109216005D03*
X63532842Y-59880142D03*
X202611067Y-125968345D03*
D17*
X159600900Y-16532860D03*
D18*
X93526349Y-97476702D03*
X93526349Y-67516719D03*
X197574411Y-97476702D03*
X62863132Y-92880142D03*
X227297158Y-75880142D03*
X227966868Y-92880142D03*
X214157936Y-17096280D03*
X166350214Y-146903559D03*
D17*
X101600000Y-16532860D03*
D18*
X202611096Y-16532860D03*
X197574411Y-84161566D03*
X63532842Y-83880142D03*
X227297158Y-67880142D03*
X227297158Y-59880142D03*
D17*
X189230000Y-125984000D03*
D16*
X211408697Y-49459321D03*
X204208697Y-49459321D03*
D18*
X145415000Y-149659732D03*
D19*
X196469000Y-42926000D03*
D20*
X199009000Y-42926000D03*
D17*
X101600000Y-65537080D03*
D18*
X219473333Y-84161566D03*
D17*
X101600000Y-125984000D03*
X101600000Y-117234000D03*
D18*
X76672065Y-17096280D03*
X63532842Y-75880142D03*
X104971273Y-138822868D03*
D21*
X77040000Y-39504000D03*
X80440000Y-39504000D03*
X77040000Y-29584000D03*
X80440000Y-29584000D03*
D18*
X93526349Y-84161566D03*
X88218905Y-16532860D03*
D17*
X189230000Y-86614000D03*
D18*
X71576849Y-67516719D03*
D17*
X189230000Y-76200000D03*
D18*
X71576849Y-97476702D03*
X219473333Y-97476702D03*
X227297158Y-83880142D03*
X75364410Y-109216005D03*
X185858727Y-138822868D03*
X124479786Y-146903559D03*
X118218905Y-16532860D03*
X197574411Y-67516719D03*
X71576849Y-84161566D03*
X219473333Y-67516719D03*
D22*
X189975000Y-32147500D03*
D23*
X189975000Y-34647500D03*
X189975000Y-37147500D03*
X189975000Y-39647500D03*
D18*
X88218933Y-125968345D03*
D17*
X189230000Y-104184000D03*
D18*
X63532842Y-67880142D03*
D17*
X101600000Y-76200000D03*
D24*
X180901000Y-80580700D03*
X182551000Y-80580700D03*
D25*
X182551000Y-82231700D03*
X180901000Y-82231700D03*
D26*
X208350000Y-63125000D03*
X208350000Y-64375000D03*
X208350000Y-65625000D03*
X208350000Y-66875000D03*
D27*
X205000000Y-68725000D03*
X205000000Y-61275000D03*
D28*
X129413000Y-26670000D03*
X131953000Y-24130000D03*
X130683000Y-24130000D03*
X135763000Y-25400000D03*
X131953000Y-26670000D03*
X134493000Y-24130000D03*
X129413000Y-29210000D03*
X133223000Y-25400000D03*
X133223000Y-26670000D03*
X130683000Y-27940000D03*
X129413000Y-24130000D03*
X135763000Y-30480000D03*
X133223000Y-24130000D03*
X135763000Y-29210000D03*
X131953000Y-27940000D03*
X134493000Y-26670000D03*
X129413000Y-27940000D03*
X131953000Y-29210000D03*
X129413000Y-25400000D03*
X130683000Y-26670000D03*
X131953000Y-25400000D03*
X133223000Y-27940000D03*
X130683000Y-25400000D03*
X134493000Y-27940000D03*
X134493000Y-29210000D03*
X134493000Y-30480000D03*
X133223000Y-29210000D03*
X131953000Y-30480000D03*
X130683000Y-29210000D03*
X135763000Y-26670000D03*
X129413000Y-30480000D03*
X134493000Y-25400000D03*
X135763000Y-24130000D03*
X130683000Y-30480000D03*
X135763000Y-27940000D03*
X133223000Y-30480000D03*
X103378000Y-38989000D03*
X106553000Y-22987000D03*
D29*
X194970400Y-73304400D03*
X194970400Y-74066400D03*
X194970400Y-72542400D03*
X195732400Y-71780400D03*
X195732400Y-72542400D03*
X194970400Y-71780400D03*
X195732400Y-73304400D03*
X195732400Y-74066400D03*
D28*
X131953000Y-34290000D03*
X140843000Y-30480000D03*
X142113000Y-33020000D03*
X137033000Y-34290000D03*
X138303000Y-31750000D03*
X142113000Y-29210000D03*
X142113000Y-34290000D03*
X139573000Y-27940000D03*
X139573000Y-31750000D03*
X135763000Y-33020000D03*
X139573000Y-34290000D03*
X138303000Y-25400000D03*
X133223000Y-22860000D03*
X143383000Y-33020000D03*
X143383000Y-31750000D03*
X130683000Y-33020000D03*
X143383000Y-24130000D03*
X137033000Y-33020000D03*
X134493000Y-22860000D03*
X142113000Y-27940000D03*
X138303000Y-22860000D03*
X137033000Y-31750000D03*
X138303000Y-26670000D03*
X129413000Y-22860000D03*
X143383000Y-27940000D03*
X138303000Y-30480000D03*
X131953000Y-33020000D03*
X135763000Y-22860000D03*
X140843000Y-29210000D03*
X130683000Y-31750000D03*
X137033000Y-27940000D03*
X142113000Y-25400000D03*
X129413000Y-31750000D03*
X137033000Y-30480000D03*
X131953000Y-22860000D03*
X139573000Y-29210000D03*
X143383000Y-26670000D03*
X130683000Y-34290000D03*
X138303000Y-29210000D03*
X137033000Y-25400000D03*
X133223000Y-31750000D03*
X140843000Y-27940000D03*
X142113000Y-26670000D03*
X139573000Y-30480000D03*
X142113000Y-31750000D03*
X129413000Y-34290000D03*
X142113000Y-30480000D03*
X139573000Y-25400000D03*
X140843000Y-22860000D03*
X138303000Y-34290000D03*
X133223000Y-33020000D03*
X131953000Y-31750000D03*
X139573000Y-22860000D03*
X135763000Y-34290000D03*
X134493000Y-34290000D03*
X137033000Y-29210000D03*
X134493000Y-33020000D03*
X139573000Y-24130000D03*
X143383000Y-25400000D03*
X142113000Y-22860000D03*
X130683000Y-22860000D03*
X138303000Y-33020000D03*
X134493000Y-31750000D03*
X143383000Y-34290000D03*
X137033000Y-24130000D03*
X139573000Y-26670000D03*
X142113000Y-24130000D03*
X138303000Y-27940000D03*
X140843000Y-26670000D03*
X140843000Y-31750000D03*
X140843000Y-34290000D03*
X137033000Y-26670000D03*
X137033000Y-22860000D03*
X140843000Y-33020000D03*
X139573000Y-33020000D03*
X140843000Y-24130000D03*
X133223000Y-34290000D03*
X140843000Y-25400000D03*
X129413000Y-33020000D03*
X135763000Y-31750000D03*
X143383000Y-29210000D03*
X143383000Y-22860000D03*
X138303000Y-24130000D03*
X143383000Y-30480000D03*
X94996000Y-34426000D03*
X93980000Y-33410000D03*
X100584000Y-34544000D03*
X101600000Y-33528000D03*
X102616000Y-33528000D03*
X94996000Y-33410000D03*
X92964000Y-34426000D03*
X100584000Y-33528000D03*
X91948000Y-34426000D03*
X100584000Y-31496000D03*
X102616000Y-34544000D03*
X101600000Y-32512000D03*
X94996000Y-31378000D03*
X100584000Y-32512000D03*
X93980000Y-34426000D03*
X101600000Y-31496000D03*
X103632000Y-34544000D03*
X93980000Y-32394000D03*
X101600000Y-34544000D03*
X93980000Y-31378000D03*
X94996000Y-32394000D03*
X103632000Y-33528000D03*
X96520000Y-24638000D03*
X88138000Y-34290000D03*
X89154000Y-35306000D03*
X100584000Y-27686000D03*
X97536000Y-24638000D03*
X98552000Y-25654000D03*
X86360000Y-32258000D03*
X87122000Y-34290000D03*
X98552000Y-24638000D03*
X86360000Y-31242000D03*
X87122000Y-35306000D03*
X89154000Y-33274000D03*
X100584000Y-24638000D03*
X97536000Y-25654000D03*
X96520000Y-25654000D03*
X88138000Y-35306000D03*
X99568000Y-25654000D03*
X100584000Y-26670000D03*
X89154000Y-34290000D03*
X89154000Y-31242000D03*
X86360000Y-33274000D03*
X100584000Y-25654000D03*
X99568000Y-24638000D03*
X89154000Y-32258000D03*
X84074000Y-26806000D03*
X84074000Y-23758000D03*
X85090000Y-26806000D03*
X85090000Y-22742000D03*
X83058000Y-25781000D03*
X85090000Y-25790000D03*
X83058000Y-24765000D03*
X85090000Y-23758000D03*
X83058000Y-27813000D03*
X84074000Y-24774000D03*
X85090000Y-24774000D03*
X83058000Y-22733000D03*
X84074000Y-27822000D03*
X83058000Y-23749000D03*
X83058000Y-26797000D03*
X84074000Y-25790000D03*
X84074000Y-22742000D03*
D29*
X184101952Y-66869500D03*
X195588700Y-41275000D03*
X194809300Y-41275000D03*
X184101952Y-67648900D03*
D30*
X102388000Y-107696000D02*
X109361099Y-107696000D01*
X101600000Y-108484000D02*
X102388000Y-107696000D01*
X109361099Y-107696000D02*
X109425999Y-107760900D01*
X107409636Y-126492000D02*
X109601000Y-126492000D01*
X107282636Y-126365000D02*
X107409636Y-126492000D01*
X101981000Y-126365000D02*
X107282636Y-126365000D01*
X101600000Y-125984000D02*
X101981000Y-126365000D01*
X109030900Y-122365900D02*
X109425999Y-122365900D01*
X103899000Y-117234000D02*
X109030900Y-122365900D01*
X101600000Y-117234000D02*
X103899000Y-117234000D01*
X108901100Y-111824900D02*
X109296200Y-111824900D01*
X103492000Y-117234000D02*
X108901100Y-111824900D01*
X101600000Y-117234000D02*
X103492000Y-117234000D01*
D31*
X105791000Y-23749000D02*
X106553000Y-22987000D01*
X103378000Y-38989000D02*
X105791000Y-36576000D01*
X105791000Y-36576000D02*
X105791000Y-23749000D01*
D32*
X180240200Y-81645900D02*
X179630312Y-81645900D01*
X184251952Y-67019500D02*
X184101952Y-66869500D01*
X207074999Y-64375000D02*
X208350000Y-64375000D01*
X178652500Y-80668088D02*
X178652500Y-78310512D01*
X182729912Y-67019500D02*
X183951952Y-67019500D01*
X180901000Y-82231700D02*
X180826000Y-82231700D01*
X186547212Y-38157800D02*
X185180300Y-39524712D01*
X206689699Y-64760300D02*
X207074999Y-64375000D01*
X189975000Y-37147500D02*
X188964700Y-38157800D01*
X185180300Y-66474112D02*
X184634912Y-67019500D01*
X183951952Y-67019500D02*
X184101952Y-66869500D01*
X190985300Y-38157800D02*
X193690788Y-38157800D01*
X195409300Y-41523529D02*
X195288700Y-41644129D01*
X178652500Y-78310512D02*
X181497300Y-75465712D01*
X195288700Y-41644129D02*
X195288700Y-56265712D01*
X179630312Y-81645900D02*
X178652500Y-80668088D01*
X185180300Y-39524712D02*
X185180300Y-66474112D01*
X180826000Y-82231700D02*
X180240200Y-81645900D01*
X195438700Y-39905712D02*
X195438700Y-41125000D01*
X188964700Y-38157800D02*
X186547212Y-38157800D01*
X195288700Y-56265712D02*
X203783288Y-64760300D01*
X203783288Y-64760300D02*
X206689699Y-64760300D01*
X189975000Y-37147500D02*
X190985300Y-38157800D01*
X181497300Y-75465712D02*
X181497300Y-68252112D01*
X195438700Y-41125000D02*
X195588700Y-41275000D01*
X195588700Y-41275000D02*
X195409300Y-41454400D01*
X181497300Y-68252112D02*
X182729912Y-67019500D01*
X195409300Y-41454400D02*
X195409300Y-41523529D01*
X184634912Y-67019500D02*
X184251952Y-67019500D01*
X193690788Y-38157800D02*
X195438700Y-39905712D01*
X182928488Y-67498900D02*
X183951952Y-67498900D01*
X183951952Y-67498900D02*
X184101952Y-67648900D01*
X179828888Y-81166500D02*
X179131900Y-80469512D01*
X194809300Y-41275000D02*
X194809300Y-56464288D01*
X186745788Y-38637200D02*
X185659700Y-39723288D01*
X206689699Y-65239700D02*
X207074999Y-65625000D01*
X184251952Y-67498900D02*
X184101952Y-67648900D01*
X185659700Y-66672688D02*
X184833488Y-67498900D01*
X184833488Y-67498900D02*
X184251952Y-67498900D01*
X194959300Y-40104288D02*
X194959300Y-41125000D01*
X190985300Y-38637200D02*
X193492212Y-38637200D01*
X180901000Y-80580700D02*
X180826000Y-80580700D01*
X194809300Y-56464288D02*
X203584712Y-65239700D01*
X180826000Y-80580700D02*
X180240200Y-81166500D01*
X207074999Y-65625000D02*
X208350000Y-65625000D01*
X180240200Y-81166500D02*
X179828888Y-81166500D01*
X181976700Y-68450688D02*
X182928488Y-67498900D01*
X193492212Y-38637200D02*
X194959300Y-40104288D01*
X188964700Y-38637200D02*
X186745788Y-38637200D01*
X179131900Y-78509088D02*
X181976700Y-75664288D01*
X185659700Y-39723288D02*
X185659700Y-66672688D01*
X194959300Y-41125000D02*
X194809300Y-41275000D01*
X189975000Y-39647500D02*
X190985300Y-38637200D01*
X179131900Y-80469512D02*
X179131900Y-78509088D01*
X181976700Y-75664288D02*
X181976700Y-68450688D01*
X189975000Y-39647500D02*
X188964700Y-38637200D01*
X203584712Y-65239700D02*
X206689699Y-65239700D01*
X183704920Y-81645900D02*
X183705720Y-81646700D01*
X182626000Y-82231700D02*
X183211800Y-81645900D01*
X182551000Y-82231700D02*
X182626000Y-82231700D01*
X183705720Y-81646700D02*
X184262700Y-81646700D01*
X183211800Y-81645900D02*
X183704920Y-81645900D01*
X184262700Y-81646700D02*
X189230000Y-86614000D01*
X183888377Y-81166500D02*
X183889177Y-81167300D01*
X182626000Y-80580700D02*
X183211800Y-81166500D01*
X184262700Y-81167300D02*
X189230000Y-76200000D01*
X183211800Y-81166500D02*
X183888377Y-81166500D01*
X182551000Y-80580700D02*
X182626000Y-80580700D01*
X183889177Y-81167300D02*
X184262700Y-81167300D01*
G04 #@! TA.AperFunction,Conductor*
G36*
X81028695Y-37846235D02*
G01*
X81235727Y-37864348D01*
X81257004Y-37868099D01*
X81449888Y-37919782D01*
X81470198Y-37927175D01*
X81651165Y-38011562D01*
X81669883Y-38022369D01*
X81833456Y-38136904D01*
X81850014Y-38150798D01*
X81991201Y-38291985D01*
X82005095Y-38308543D01*
X82119630Y-38472116D01*
X82130437Y-38490834D01*
X82214824Y-38671801D01*
X82222217Y-38692112D01*
X82273898Y-38884988D01*
X82277651Y-38906275D01*
X82295763Y-39113299D01*
X82295999Y-39118705D01*
X82295999Y-50797294D01*
X82295763Y-50802700D01*
X82277651Y-51009724D01*
X82273898Y-51031011D01*
X82222217Y-51223887D01*
X82214824Y-51244198D01*
X82130437Y-51425165D01*
X82119630Y-51443883D01*
X82005095Y-51607456D01*
X81991201Y-51624014D01*
X81850014Y-51765201D01*
X81833456Y-51779095D01*
X81669883Y-51893630D01*
X81651165Y-51904437D01*
X81470198Y-51988824D01*
X81449887Y-51996217D01*
X81257011Y-52047898D01*
X81235725Y-52051651D01*
X81085864Y-52064762D01*
X81028695Y-52069764D01*
X81023294Y-52070000D01*
X76202706Y-52070000D01*
X76197304Y-52069764D01*
X76133000Y-52064138D01*
X75990274Y-52051651D01*
X75968988Y-52047898D01*
X75776112Y-51996217D01*
X75755801Y-51988824D01*
X75574834Y-51904437D01*
X75556116Y-51893630D01*
X75392543Y-51779095D01*
X75375985Y-51765201D01*
X75234798Y-51624014D01*
X75220904Y-51607456D01*
X75106369Y-51443883D01*
X75095562Y-51425165D01*
X75011175Y-51244198D01*
X75003782Y-51223887D01*
X74952099Y-51031004D01*
X74948348Y-51009724D01*
X74930236Y-50802700D01*
X74930000Y-50797294D01*
X74930000Y-39118705D01*
X74930236Y-39113299D01*
X74948348Y-38906275D01*
X74952099Y-38884996D01*
X75003783Y-38692107D01*
X75011175Y-38671801D01*
X75095562Y-38490834D01*
X75106369Y-38472116D01*
X75220904Y-38308543D01*
X75234792Y-38291991D01*
X75375991Y-38150792D01*
X75392543Y-38136904D01*
X75556116Y-38022369D01*
X75574831Y-38011563D01*
X75755803Y-37927174D01*
X75776107Y-37919783D01*
X75968996Y-37868099D01*
X75990270Y-37864348D01*
X76197304Y-37846235D01*
X76202706Y-37846000D01*
X81023294Y-37846000D01*
X81028695Y-37846235D01*
G37*
G04 #@! TD.AperFunction*
G04 #@! TA.AperFunction,Conductor*
G36*
X103634695Y-30988235D02*
G01*
X103841727Y-31006348D01*
X103863004Y-31010099D01*
X104055888Y-31061782D01*
X104076198Y-31069175D01*
X104257165Y-31153562D01*
X104275883Y-31164369D01*
X104439456Y-31278904D01*
X104456014Y-31292798D01*
X104597201Y-31433985D01*
X104611095Y-31450543D01*
X104725630Y-31614116D01*
X104736437Y-31632834D01*
X104820824Y-31813801D01*
X104828217Y-31834112D01*
X104879898Y-32026988D01*
X104883651Y-32048274D01*
X104901764Y-32255299D01*
X104902000Y-32260705D01*
X104902000Y-33388900D01*
X104901701Y-33394981D01*
X104878794Y-33627557D01*
X104874052Y-33651398D01*
X104808871Y-33866272D01*
X104799568Y-33888730D01*
X104693723Y-34086751D01*
X104680218Y-34106963D01*
X104531957Y-34287620D01*
X104527878Y-34292120D01*
X104027175Y-34792824D01*
X103091328Y-35728670D01*
X103091322Y-35728677D01*
X103091319Y-35728680D01*
X102870000Y-35950000D01*
X102870000Y-36262589D01*
X102869603Y-36264994D01*
X102850986Y-36358587D01*
X102832471Y-36403286D01*
X102792027Y-36463815D01*
X102757815Y-36498027D01*
X102697286Y-36538471D01*
X102652588Y-36556986D01*
X102617274Y-36564010D01*
X102568979Y-36573617D01*
X102544789Y-36576000D01*
X92966706Y-36576000D01*
X92961304Y-36575764D01*
X92897000Y-36570138D01*
X92754274Y-36557651D01*
X92732988Y-36553898D01*
X92540112Y-36502217D01*
X92519801Y-36494824D01*
X92338834Y-36410437D01*
X92320116Y-36399630D01*
X92156543Y-36285095D01*
X92139985Y-36271201D01*
X91998798Y-36130014D01*
X91984904Y-36113456D01*
X91870369Y-35949883D01*
X91859562Y-35931165D01*
X91775175Y-35750198D01*
X91767782Y-35729887D01*
X91767456Y-35728670D01*
X91716099Y-35537004D01*
X91712348Y-35515724D01*
X91694236Y-35308700D01*
X91694000Y-35303294D01*
X91694000Y-32260705D01*
X91694236Y-32255299D01*
X91712348Y-32048275D01*
X91712349Y-32048274D01*
X91712348Y-32048270D01*
X91716099Y-32026996D01*
X91767783Y-31834107D01*
X91775175Y-31813801D01*
X91859562Y-31632834D01*
X91870369Y-31614116D01*
X91984904Y-31450543D01*
X91998792Y-31433991D01*
X92139991Y-31292792D01*
X92156543Y-31278904D01*
X92320116Y-31164369D01*
X92338831Y-31153563D01*
X92519803Y-31069174D01*
X92540107Y-31061783D01*
X92732996Y-31010099D01*
X92754270Y-31006348D01*
X92961304Y-30988235D01*
X92966706Y-30988000D01*
X103629294Y-30988000D01*
X103634695Y-30988235D01*
G37*
G04 #@! TD.AperFunction*
G04 #@! TA.AperFunction,Conductor*
G36*
X143387032Y-22225530D02*
G01*
X143498296Y-22240179D01*
X143529561Y-22248556D01*
X143621915Y-22286810D01*
X143649949Y-22302996D01*
X143729258Y-22363853D01*
X143752146Y-22386741D01*
X143813003Y-22466050D01*
X143829189Y-22494085D01*
X143867442Y-22586437D01*
X143875820Y-22617703D01*
X143890469Y-22728966D01*
X143891000Y-22737067D01*
X143891000Y-76301600D01*
X144039786Y-76450385D01*
X144039790Y-76450390D01*
X144039797Y-76450398D01*
X145540562Y-77951162D01*
X147041336Y-79451936D01*
X147046681Y-79458032D01*
X147115004Y-79547070D01*
X147131189Y-79575105D01*
X147169442Y-79667457D01*
X147177820Y-79698723D01*
X147192469Y-79809986D01*
X147193000Y-79818087D01*
X147193000Y-86653512D01*
X147192469Y-86661613D01*
X147177820Y-86772876D01*
X147169442Y-86804142D01*
X147131189Y-86896494D01*
X147115004Y-86924529D01*
X147046681Y-87013567D01*
X147041336Y-87019662D01*
X146025443Y-88035555D01*
X144039797Y-90021201D01*
X144039790Y-90021209D01*
X144039786Y-90021213D01*
X143891000Y-90170000D01*
X143891000Y-101473000D01*
X144039790Y-101621789D01*
X144039790Y-101621790D01*
X144039798Y-101621799D01*
X160633201Y-118215201D01*
X160782000Y-118364000D01*
X188253512Y-118364000D01*
X188261612Y-118364530D01*
X188372876Y-118379179D01*
X188404141Y-118387556D01*
X188496495Y-118425810D01*
X188524529Y-118441995D01*
X188613567Y-118510318D01*
X188619662Y-118515662D01*
X192634336Y-122530336D01*
X192639681Y-122536432D01*
X192708004Y-122625470D01*
X192724189Y-122653505D01*
X192762442Y-122745857D01*
X192770820Y-122777123D01*
X192785469Y-122888386D01*
X192786000Y-122896487D01*
X192786000Y-127293512D01*
X192785469Y-127301613D01*
X192770820Y-127412876D01*
X192762442Y-127444142D01*
X192724189Y-127536494D01*
X192708004Y-127564529D01*
X192639681Y-127653567D01*
X192634329Y-127659671D01*
X188619671Y-131674329D01*
X188613567Y-131679681D01*
X188524529Y-131748004D01*
X188496494Y-131764189D01*
X188404142Y-131802442D01*
X188372876Y-131810820D01*
X188274990Y-131823707D01*
X188261612Y-131825469D01*
X188253513Y-131826000D01*
X154900487Y-131826000D01*
X154892387Y-131825469D01*
X154876377Y-131823361D01*
X154781123Y-131810820D01*
X154749857Y-131802442D01*
X154657505Y-131764189D01*
X154629470Y-131748004D01*
X154540432Y-131679681D01*
X154534336Y-131674336D01*
X129056662Y-106196662D01*
X129051318Y-106190567D01*
X128982995Y-106101529D01*
X128966810Y-106073494D01*
X128928557Y-105981142D01*
X128920179Y-105949875D01*
X128905531Y-105838613D01*
X128905000Y-105830511D01*
X128905000Y-22737068D01*
X128905531Y-22728966D01*
X128920179Y-22617704D01*
X128928556Y-22586440D01*
X128966812Y-22494081D01*
X128982996Y-22466050D01*
X129043853Y-22386741D01*
X129066741Y-22363853D01*
X129146050Y-22302996D01*
X129174081Y-22286812D01*
X129266440Y-22248556D01*
X129297701Y-22240179D01*
X129408967Y-22225530D01*
X129417068Y-22225000D01*
X143378932Y-22225000D01*
X143387032Y-22225530D01*
G37*
G04 #@! TD.AperFunction*
G04 #@! TA.AperFunction,Conductor*
G36*
X100588032Y-24130530D02*
G01*
X100699296Y-24145179D01*
X100730561Y-24153556D01*
X100822915Y-24191810D01*
X100850949Y-24207996D01*
X100930258Y-24268853D01*
X100953146Y-24291741D01*
X101014003Y-24371050D01*
X101030189Y-24399085D01*
X101068442Y-24491437D01*
X101076820Y-24522703D01*
X101091469Y-24633966D01*
X101092000Y-24642067D01*
X101092000Y-27681932D01*
X101091469Y-27690033D01*
X101076820Y-27801296D01*
X101068442Y-27832562D01*
X101030189Y-27924914D01*
X101014003Y-27952949D01*
X100953146Y-28032258D01*
X100930258Y-28055146D01*
X100850949Y-28116003D01*
X100822914Y-28132189D01*
X100730562Y-28170442D01*
X100699296Y-28178820D01*
X100601410Y-28191707D01*
X100588032Y-28193469D01*
X100579933Y-28194000D01*
X92456000Y-28194000D01*
X92307213Y-28342786D01*
X92307209Y-28342790D01*
X92307201Y-28342797D01*
X89810797Y-30839201D01*
X89810790Y-30839209D01*
X89810786Y-30839213D01*
X89662000Y-30988000D01*
X89662000Y-31198412D01*
X89662000Y-35301932D01*
X89661469Y-35310033D01*
X89646820Y-35421296D01*
X89638442Y-35452562D01*
X89600189Y-35544914D01*
X89584003Y-35572949D01*
X89523146Y-35652258D01*
X89500258Y-35675146D01*
X89420949Y-35736003D01*
X89392914Y-35752189D01*
X89300562Y-35790442D01*
X89269296Y-35798820D01*
X89171410Y-35811707D01*
X89158032Y-35813469D01*
X89149933Y-35814000D01*
X86364067Y-35814000D01*
X86355967Y-35813469D01*
X86339957Y-35811361D01*
X86244703Y-35798820D01*
X86213437Y-35790442D01*
X86121085Y-35752189D01*
X86093050Y-35736003D01*
X86013741Y-35675146D01*
X85990853Y-35652258D01*
X85929996Y-35572949D01*
X85913810Y-35544914D01*
X85875557Y-35452562D01*
X85867179Y-35421295D01*
X85852531Y-35310033D01*
X85852000Y-35301931D01*
X85852000Y-30948488D01*
X85852531Y-30940386D01*
X85867179Y-30829121D01*
X85875556Y-30797860D01*
X85913812Y-30705501D01*
X85929992Y-30677474D01*
X85998318Y-30588432D01*
X86003655Y-30582344D01*
X92304344Y-24281655D01*
X92310432Y-24276318D01*
X92334097Y-24258158D01*
X92399474Y-24207992D01*
X92427501Y-24191812D01*
X92519860Y-24153556D01*
X92551121Y-24145179D01*
X92662387Y-24130530D01*
X92670488Y-24130000D01*
X100579932Y-24130000D01*
X100588032Y-24130530D01*
G37*
G04 #@! TD.AperFunction*
G04 #@! TA.AperFunction,Conductor*
G36*
X208962612Y-20447530D02*
G01*
X209073876Y-20462179D01*
X209105141Y-20470556D01*
X209197495Y-20508810D01*
X209225529Y-20524995D01*
X209314567Y-20593318D01*
X209320662Y-20598662D01*
X221590336Y-32868336D01*
X221595681Y-32874432D01*
X221664004Y-32963470D01*
X221680189Y-32991505D01*
X221718442Y-33083857D01*
X221726820Y-33115123D01*
X221741469Y-33226386D01*
X221742000Y-33234487D01*
X221742000Y-48807512D01*
X221741469Y-48815613D01*
X221726820Y-48926876D01*
X221718442Y-48958142D01*
X221680189Y-49050494D01*
X221664004Y-49078529D01*
X221595681Y-49167567D01*
X221590329Y-49173671D01*
X219099671Y-51664329D01*
X219093567Y-51669681D01*
X219004529Y-51738004D01*
X218976494Y-51754189D01*
X218884142Y-51792442D01*
X218852876Y-51800820D01*
X218754990Y-51813707D01*
X218741612Y-51815469D01*
X218733513Y-51816000D01*
X208534000Y-51816000D01*
X208534000Y-41402000D01*
X208385209Y-41253209D01*
X208385201Y-41253200D01*
X202840799Y-35708797D01*
X202840790Y-35708790D01*
X202840789Y-35708790D01*
X202692000Y-35560000D01*
X202481587Y-35560000D01*
X190417454Y-35560000D01*
X190388508Y-35556574D01*
X190349322Y-35547166D01*
X190232898Y-35519215D01*
X189975000Y-35498918D01*
X189717101Y-35519215D01*
X189592855Y-35549044D01*
X189561491Y-35556574D01*
X189532546Y-35560000D01*
X179280412Y-35560000D01*
X179070000Y-35560000D01*
X178921213Y-35708786D01*
X178921209Y-35708790D01*
X178921200Y-35708797D01*
X172360797Y-42269200D01*
X172360790Y-42269209D01*
X172360786Y-42269213D01*
X172212000Y-42418000D01*
X172212000Y-88392000D01*
X172360790Y-88540790D01*
X172360798Y-88540799D01*
X179937201Y-96117202D01*
X179937209Y-96117209D01*
X180086000Y-96266000D01*
X185586512Y-96266000D01*
X185594612Y-96266530D01*
X185705876Y-96281179D01*
X185737141Y-96289556D01*
X185829495Y-96327810D01*
X185857529Y-96343995D01*
X185946567Y-96412318D01*
X185952662Y-96417662D01*
X192253336Y-102718336D01*
X192258681Y-102724432D01*
X192327004Y-102813470D01*
X192343189Y-102841505D01*
X192381442Y-102933857D01*
X192389820Y-102965123D01*
X192404469Y-103076386D01*
X192405000Y-103084487D01*
X192405000Y-109469932D01*
X192404469Y-109478033D01*
X192389820Y-109589296D01*
X192381442Y-109620562D01*
X192343189Y-109712914D01*
X192327003Y-109740949D01*
X192266146Y-109820258D01*
X192243258Y-109843146D01*
X192163949Y-109904003D01*
X192135914Y-109920189D01*
X192043562Y-109958442D01*
X192012296Y-109966820D01*
X191914410Y-109979707D01*
X191901032Y-109981469D01*
X191892933Y-109982000D01*
X171918487Y-109982000D01*
X171910387Y-109981469D01*
X171894377Y-109979361D01*
X171799123Y-109966820D01*
X171767857Y-109958442D01*
X171675505Y-109920189D01*
X171647470Y-109904004D01*
X171558432Y-109835681D01*
X171552336Y-109830336D01*
X157377662Y-95655662D01*
X157372318Y-95649567D01*
X157303995Y-95560529D01*
X157287810Y-95532494D01*
X157249557Y-95440142D01*
X157241179Y-95408875D01*
X157226531Y-95297613D01*
X157226000Y-95289511D01*
X157226000Y-90431226D01*
X157226000Y-90431219D01*
X157226000Y-90220800D01*
X157077209Y-90072009D01*
X157077202Y-90072001D01*
X154075670Y-87070471D01*
X154070318Y-87064367D01*
X154001995Y-86975329D01*
X153985810Y-86947294D01*
X153947557Y-86854942D01*
X153939179Y-86823675D01*
X153924531Y-86712413D01*
X153924000Y-86704311D01*
X153924000Y-79792688D01*
X153924531Y-79784586D01*
X153939179Y-79673324D01*
X153947556Y-79642060D01*
X153985812Y-79549701D01*
X154001992Y-79521674D01*
X154070318Y-79432632D01*
X154075655Y-79426544D01*
X157077210Y-76424990D01*
X157077209Y-76424990D01*
X157226000Y-76276200D01*
X157226000Y-34885488D01*
X157226531Y-34877386D01*
X157241179Y-34766124D01*
X157249556Y-34734860D01*
X157287812Y-34642501D01*
X157303992Y-34614474D01*
X157372318Y-34525432D01*
X157377655Y-34519344D01*
X158933238Y-32963761D01*
X188331500Y-32963761D01*
X188337611Y-33041412D01*
X188337611Y-33041413D01*
X188386005Y-33222022D01*
X188470890Y-33388622D01*
X188519533Y-33448691D01*
X188588564Y-33533936D01*
X188693830Y-33619179D01*
X188733877Y-33651609D01*
X188798908Y-33684743D01*
X188900476Y-33736494D01*
X189081085Y-33784888D01*
X189112147Y-33787332D01*
X189158739Y-33791000D01*
X189158742Y-33791000D01*
X190791261Y-33791000D01*
X190830086Y-33787944D01*
X190868915Y-33784888D01*
X191049524Y-33736494D01*
X191163427Y-33678457D01*
X191216122Y-33651609D01*
X191216123Y-33651607D01*
X191216125Y-33651607D01*
X191361436Y-33533936D01*
X191479107Y-33388625D01*
X191563994Y-33222024D01*
X191612388Y-33041415D01*
X191618500Y-32963758D01*
X191618500Y-31331242D01*
X191612388Y-31253585D01*
X191563994Y-31072976D01*
X191534975Y-31016024D01*
X191479109Y-30906377D01*
X191446679Y-30866330D01*
X191361436Y-30761064D01*
X191276191Y-30692033D01*
X191216122Y-30643390D01*
X191049522Y-30558505D01*
X190868912Y-30510111D01*
X190791261Y-30504000D01*
X190791258Y-30504000D01*
X189158742Y-30504000D01*
X189158739Y-30504000D01*
X189081087Y-30510111D01*
X189081086Y-30510111D01*
X188900477Y-30558505D01*
X188733877Y-30643390D01*
X188588564Y-30761064D01*
X188470890Y-30906377D01*
X188386005Y-31072977D01*
X188337611Y-31253586D01*
X188337611Y-31253587D01*
X188331500Y-31331239D01*
X188331500Y-32963761D01*
X158933238Y-32963761D01*
X171298344Y-20598655D01*
X171304432Y-20593318D01*
X171328097Y-20575158D01*
X171393474Y-20524992D01*
X171421501Y-20508812D01*
X171513860Y-20470556D01*
X171545121Y-20462179D01*
X171656387Y-20447530D01*
X171664488Y-20447000D01*
X208954512Y-20447000D01*
X208962612Y-20447530D01*
G37*
G04 #@! TD.AperFunction*
G04 #@! TA.AperFunction,Conductor*
G36*
X212749364Y-52323305D02*
G01*
X212749364Y-52323307D01*
X212749364Y-52323308D01*
X212725285Y-70020651D01*
X212724762Y-70028611D01*
X212710469Y-70137958D01*
X212702335Y-70168710D01*
X212665239Y-70259678D01*
X212649549Y-70287348D01*
X212583299Y-70375509D01*
X212578107Y-70381564D01*
X208788622Y-74265787D01*
X208782484Y-74271294D01*
X208692780Y-74341605D01*
X208664444Y-74358277D01*
X208570898Y-74397703D01*
X208539178Y-74406343D01*
X208426210Y-74421452D01*
X208417981Y-74422000D01*
X195076067Y-74422000D01*
X195067967Y-74421469D01*
X195051957Y-74419361D01*
X194956703Y-74406820D01*
X194925437Y-74398442D01*
X194833085Y-74360189D01*
X194805050Y-74344003D01*
X194725741Y-74283146D01*
X194702853Y-74260258D01*
X194641996Y-74180949D01*
X194625810Y-74152914D01*
X194587557Y-74060562D01*
X194579179Y-74029295D01*
X194564531Y-73918033D01*
X194564000Y-73909931D01*
X194564000Y-72013068D01*
X194564531Y-72004966D01*
X194579179Y-71893704D01*
X194587556Y-71862440D01*
X194625812Y-71770081D01*
X194641996Y-71742050D01*
X194702853Y-71662741D01*
X194725741Y-71639853D01*
X194805050Y-71578996D01*
X194833081Y-71562812D01*
X194925440Y-71524556D01*
X194956701Y-71516179D01*
X195067967Y-71501530D01*
X195076068Y-71501000D01*
X204767573Y-71501000D01*
X204767580Y-71501000D01*
X204978000Y-71501000D01*
X205126794Y-71352205D01*
X205126799Y-71352202D01*
X206861202Y-69617798D01*
X207010000Y-69469000D01*
X207010000Y-67268921D01*
X207010530Y-67260831D01*
X207025140Y-67149707D01*
X207033495Y-67118480D01*
X207071662Y-67026208D01*
X207087805Y-66998207D01*
X207155966Y-66909225D01*
X207161307Y-66903125D01*
X207313318Y-66750811D01*
X207319388Y-66745478D01*
X207408500Y-66676982D01*
X207436539Y-66660769D01*
X207529006Y-66622414D01*
X207560302Y-66614017D01*
X207622768Y-66605783D01*
X207671709Y-66599332D01*
X207679821Y-66598800D01*
X208983845Y-66598800D01*
X208983852Y-66598800D01*
X209194400Y-66598800D01*
X209380760Y-66412279D01*
X209425142Y-66383744D01*
X209446204Y-66375889D01*
X209563261Y-66288261D01*
X209650889Y-66171204D01*
X209701989Y-66034201D01*
X209705591Y-66000692D01*
X209708499Y-65973654D01*
X209708500Y-65973637D01*
X209708500Y-65276362D01*
X209708499Y-65276345D01*
X209705157Y-65245270D01*
X209701989Y-65215799D01*
X209701987Y-65215795D01*
X209701987Y-65215792D01*
X209650891Y-65078801D01*
X209650890Y-65078800D01*
X209650889Y-65078796D01*
X209647529Y-65074307D01*
X209623114Y-65008842D01*
X209637967Y-64940570D01*
X209647528Y-64925692D01*
X209650889Y-64921204D01*
X209701989Y-64784201D01*
X209705591Y-64750692D01*
X209708499Y-64723654D01*
X209708500Y-64723637D01*
X209708500Y-64026362D01*
X209708499Y-64026345D01*
X209702755Y-63972926D01*
X209701989Y-63965799D01*
X209650889Y-63828796D01*
X209650887Y-63828793D01*
X209598236Y-63758459D01*
X209598146Y-63658774D01*
X209292689Y-63347600D01*
X209079504Y-63347600D01*
X207877667Y-63347600D01*
X207869567Y-63347069D01*
X207853557Y-63344961D01*
X207758303Y-63332420D01*
X207727037Y-63324042D01*
X207634685Y-63285789D01*
X207606650Y-63269603D01*
X207527341Y-63208746D01*
X207504453Y-63185858D01*
X207443596Y-63106549D01*
X207427410Y-63078514D01*
X207389157Y-62986162D01*
X207380779Y-62954896D01*
X207366129Y-62843618D01*
X207365600Y-62835547D01*
X207365600Y-61072871D01*
X207366128Y-61064802D01*
X207380779Y-60953519D01*
X207389156Y-60922260D01*
X207427412Y-60829901D01*
X207443592Y-60801874D01*
X207511918Y-60712832D01*
X207517263Y-60706736D01*
X208385210Y-59838790D01*
X208534000Y-59690000D01*
X208534000Y-51816000D01*
X212750054Y-51816000D01*
X212749364Y-52323305D01*
G37*
G04 #@! TD.AperFunction*
G04 #@! TA.AperFunction,Conductor*
G36*
X84330695Y-22098235D02*
G01*
X84537727Y-22116348D01*
X84559004Y-22120099D01*
X84751888Y-22171782D01*
X84772198Y-22179175D01*
X84953165Y-22263562D01*
X84971883Y-22274369D01*
X85135456Y-22388904D01*
X85152014Y-22402798D01*
X85293201Y-22543985D01*
X85307095Y-22560543D01*
X85421630Y-22724116D01*
X85432437Y-22742834D01*
X85516824Y-22923801D01*
X85524217Y-22944112D01*
X85575898Y-23136988D01*
X85579651Y-23158274D01*
X85593845Y-23320513D01*
X85597764Y-23365299D01*
X85598000Y-23370705D01*
X85598000Y-26902900D01*
X85597701Y-26908981D01*
X85574794Y-27141557D01*
X85570052Y-27165398D01*
X85504871Y-27380272D01*
X85495568Y-27402730D01*
X85389723Y-27600751D01*
X85376218Y-27620963D01*
X85311107Y-27700300D01*
X85227947Y-27801630D01*
X85223888Y-27806109D01*
X83831073Y-29198925D01*
X82565412Y-30464586D01*
X82565403Y-30464596D01*
X82296000Y-30734000D01*
X82296000Y-31114578D01*
X82295713Y-31116814D01*
X82280425Y-31213337D01*
X82268436Y-31250235D01*
X82232151Y-31321447D01*
X82209348Y-31352832D01*
X82152832Y-31409348D01*
X82121447Y-31432151D01*
X82050235Y-31468436D01*
X82013337Y-31480425D01*
X81949975Y-31490460D01*
X81924640Y-31494473D01*
X81905244Y-31496000D01*
X76202706Y-31496000D01*
X76197304Y-31495764D01*
X76133000Y-31490138D01*
X75990274Y-31477651D01*
X75968988Y-31473898D01*
X75776112Y-31422217D01*
X75755801Y-31414824D01*
X75574834Y-31330437D01*
X75556116Y-31319630D01*
X75392543Y-31205095D01*
X75375985Y-31191201D01*
X75234798Y-31050014D01*
X75220904Y-31033456D01*
X75106369Y-30869883D01*
X75095562Y-30851165D01*
X75011175Y-30670198D01*
X75003782Y-30649887D01*
X74954131Y-30464586D01*
X74952099Y-30457004D01*
X74948348Y-30435724D01*
X74930236Y-30228700D01*
X74930000Y-30223294D01*
X74930000Y-24003371D01*
X74930267Y-23997626D01*
X74950717Y-23777755D01*
X74954953Y-23755182D01*
X75013224Y-23551180D01*
X75021550Y-23529775D01*
X75116451Y-23340006D01*
X75128571Y-23320521D01*
X75262086Y-23144600D01*
X75265756Y-23140205D01*
X75455113Y-22933634D01*
X75841873Y-22511713D01*
X75845471Y-22508100D01*
X75990482Y-22374098D01*
X76006652Y-22361468D01*
X76165312Y-22257475D01*
X76183334Y-22247693D01*
X76356981Y-22171304D01*
X76376378Y-22164627D01*
X76560238Y-22117944D01*
X76580483Y-22114557D01*
X76777225Y-22098212D01*
X76782354Y-22098000D01*
X84325294Y-22098000D01*
X84330695Y-22098235D01*
G37*
G04 #@! TD.AperFunction*
G04 #@! TA.AperFunction,Conductor*
G36*
X118053039Y-100349685D02*
G01*
X118098794Y-100402489D01*
X118110000Y-100454000D01*
X118110000Y-133226000D01*
X118090315Y-133293039D01*
X118037511Y-133338794D01*
X117986000Y-133350000D01*
X108074000Y-133350000D01*
X108006961Y-133330315D01*
X107961206Y-133277511D01*
X107950000Y-133226000D01*
X107950000Y-129410500D01*
X107969685Y-129343461D01*
X108022489Y-129297706D01*
X108074000Y-129286500D01*
X109683852Y-129286500D01*
X109683854Y-129286500D01*
X109932096Y-129271768D01*
X110258544Y-129213097D01*
X110575762Y-129116229D01*
X110879296Y-128982521D01*
X111164885Y-128813852D01*
X111428521Y-128612590D01*
X111666503Y-128381559D01*
X111875490Y-128124003D01*
X112052547Y-127843537D01*
X112089343Y-127766290D01*
X112120944Y-127725172D01*
X112282692Y-127587592D01*
X112442170Y-127400103D01*
X112569508Y-127189460D01*
X112661407Y-126961119D01*
X112715488Y-126720993D01*
X112725700Y-126576352D01*
X112725700Y-125089648D01*
X112715488Y-124945007D01*
X112661407Y-124704881D01*
X112569508Y-124476540D01*
X112521514Y-124397149D01*
X112503679Y-124329595D01*
X112521516Y-124268849D01*
X112569503Y-124189469D01*
X112569508Y-124189461D01*
X112661407Y-123961120D01*
X112715488Y-123720994D01*
X112725700Y-123576353D01*
X112725700Y-122089649D01*
X112715488Y-121945008D01*
X112661407Y-121704882D01*
X112569508Y-121476541D01*
X112442170Y-121265898D01*
X112360624Y-121170029D01*
X112282692Y-121078408D01*
X112106303Y-120928373D01*
X112095203Y-120918931D01*
X111884560Y-120791593D01*
X111708884Y-120720890D01*
X111654434Y-120678146D01*
X111599819Y-120602028D01*
X111599814Y-120602022D01*
X111375937Y-120357299D01*
X111375933Y-120357295D01*
X111296352Y-120288712D01*
X111124686Y-120140771D01*
X111124681Y-120140767D01*
X111124678Y-120140765D01*
X111124674Y-120140762D01*
X110849594Y-119955482D01*
X110849590Y-119955480D01*
X110554510Y-119804026D01*
X110367540Y-119734576D01*
X110323037Y-119706017D01*
X109347879Y-118730859D01*
X107986317Y-117369298D01*
X107952833Y-117307976D01*
X107949999Y-117281627D01*
X107950000Y-116779376D01*
X107969684Y-116712341D01*
X107986309Y-116691709D01*
X110188519Y-114489499D01*
X110239988Y-114458587D01*
X110270950Y-114449133D01*
X110270956Y-114449130D01*
X110270962Y-114449129D01*
X110574496Y-114315421D01*
X110860085Y-114146752D01*
X111123721Y-113945490D01*
X111361703Y-113714459D01*
X111570690Y-113456903D01*
X111601073Y-113408772D01*
X111653502Y-113362593D01*
X111659605Y-113359943D01*
X111884560Y-113269408D01*
X112095203Y-113142070D01*
X112282692Y-112982592D01*
X112442170Y-112795103D01*
X112569508Y-112584460D01*
X112661407Y-112356119D01*
X112715488Y-112115993D01*
X112725700Y-111971352D01*
X112725700Y-110484648D01*
X112715488Y-110340007D01*
X112661407Y-110099881D01*
X112569508Y-109871540D01*
X112521514Y-109792149D01*
X112503679Y-109724595D01*
X112521516Y-109663849D01*
X112569503Y-109584469D01*
X112569508Y-109584461D01*
X112661407Y-109356120D01*
X112715488Y-109115994D01*
X112725700Y-108971353D01*
X112725700Y-107484649D01*
X112715488Y-107340008D01*
X112661407Y-107099882D01*
X112569508Y-106871541D01*
X112442170Y-106660898D01*
X112376358Y-106583527D01*
X112282692Y-106473408D01*
X112153230Y-106363289D01*
X112095203Y-106313931D01*
X111884560Y-106186593D01*
X111708285Y-106115648D01*
X111657146Y-106077311D01*
X111633219Y-106046914D01*
X111519274Y-105902156D01*
X111519271Y-105902153D01*
X111519261Y-105902142D01*
X111381051Y-105763933D01*
X111311035Y-105687397D01*
X111311034Y-105687396D01*
X111201093Y-105592648D01*
X111092570Y-105496285D01*
X111078161Y-105486266D01*
X111073080Y-105482327D01*
X111059783Y-105470868D01*
X111059779Y-105470865D01*
X110939386Y-105389775D01*
X110820257Y-105306944D01*
X110820254Y-105306942D01*
X110820253Y-105306941D01*
X110820251Y-105306940D01*
X110804758Y-105298694D01*
X110799250Y-105295386D01*
X110784692Y-105285581D01*
X110784687Y-105285578D01*
X110655570Y-105219307D01*
X110527446Y-105151127D01*
X110511088Y-105144774D01*
X110505224Y-105142139D01*
X110489614Y-105134128D01*
X110489613Y-105134127D01*
X110489610Y-105134126D01*
X110353580Y-105083598D01*
X110218272Y-105031044D01*
X110201271Y-105026667D01*
X110195150Y-105024749D01*
X110186879Y-105021677D01*
X110178692Y-105018636D01*
X110037600Y-104984541D01*
X109897071Y-104948371D01*
X109897055Y-104948367D01*
X109879670Y-104946034D01*
X109873358Y-104944851D01*
X109856292Y-104940728D01*
X109712162Y-104923561D01*
X109568327Y-104904263D01*
X109553920Y-104904050D01*
X109550778Y-104904003D01*
X109544367Y-104903575D01*
X109526947Y-104901501D01*
X109526945Y-104901500D01*
X109526938Y-104901500D01*
X109526929Y-104901500D01*
X109381828Y-104901500D01*
X109236691Y-104899348D01*
X109236690Y-104899348D01*
X109219233Y-104901166D01*
X109212809Y-104901500D01*
X108074000Y-104901500D01*
X108006961Y-104881815D01*
X107961206Y-104829011D01*
X107950000Y-104777500D01*
X107950000Y-100454000D01*
X107969685Y-100386961D01*
X108022489Y-100341206D01*
X108074000Y-100330000D01*
X117986000Y-100330000D01*
X118053039Y-100349685D01*
G37*
G04 #@! TD.AperFunction*
G04 #@! TA.AperFunction,Conductor*
G36*
X151327039Y-88183085D02*
G01*
X151372794Y-88235889D01*
X151384000Y-88287400D01*
X151384000Y-90297000D01*
X153786081Y-92699081D01*
X153819566Y-92760404D01*
X153822400Y-92786762D01*
X153822400Y-98936000D01*
X153802715Y-99003039D01*
X153749911Y-99048794D01*
X153698400Y-99060000D01*
X147418600Y-99060000D01*
X147351561Y-99040315D01*
X147305806Y-98987511D01*
X147294600Y-98936000D01*
X147294600Y-92786762D01*
X147314285Y-92719723D01*
X147330919Y-92699081D01*
X147330918Y-92699081D01*
X149733000Y-90297000D01*
X149733000Y-88287399D01*
X149752685Y-88220361D01*
X149805489Y-88174606D01*
X149857000Y-88163400D01*
X151260000Y-88163400D01*
X151327039Y-88183085D01*
G37*
G04 #@! TD.AperFunction*
G04 #@! TA.AperFunction,Conductor*
G36*
X153765439Y-67431285D02*
G01*
X153811194Y-67484089D01*
X153822400Y-67535600D01*
X153822400Y-73684837D01*
X153802715Y-73751876D01*
X153786081Y-73772518D01*
X151384000Y-76174599D01*
X151384000Y-78184200D01*
X151364315Y-78251239D01*
X151311511Y-78296994D01*
X151260000Y-78308200D01*
X149857000Y-78308200D01*
X149789961Y-78288515D01*
X149744206Y-78235711D01*
X149733000Y-78184200D01*
X149733000Y-76174600D01*
X149732999Y-76174599D01*
X147330919Y-73772518D01*
X147297434Y-73711195D01*
X147294600Y-73684837D01*
X147294600Y-67535600D01*
X147314285Y-67468561D01*
X147367089Y-67422806D01*
X147418600Y-67411600D01*
X153698400Y-67411600D01*
X153765439Y-67431285D01*
G37*
G04 #@! TD.AperFunction*
M02*
