G04 #@! TF.GenerationSoftware,KiCad,Pcbnew,7.0.6*
G04 #@! TF.CreationDate,2023-12-26T10:42:54-08:00*
G04 #@! TF.ProjectId,midplate,6d696470-6c61-4746-952e-6b696361645f,rev?*
G04 #@! TF.SameCoordinates,Original*
G04 #@! TF.FileFunction,Legend,Bot*
G04 #@! TF.FilePolarity,Positive*
%FSLAX46Y46*%
G04 Gerber Fmt 4.6, Leading zero omitted, Abs format (unit mm)*
G04 Created by KiCad (PCBNEW 7.0.6) date 2023-12-26 10:42:54*
%MOMM*%
%LPD*%
G01*
G04 APERTURE LIST*
G04 Aperture macros list*
%AMRoundRect*
0 Rectangle with rounded corners*
0 $1 Rounding radius*
0 $2 $3 $4 $5 $6 $7 $8 $9 X,Y pos of 4 corners*
0 Add a 4 corners polygon primitive as box body*
4,1,4,$2,$3,$4,$5,$6,$7,$8,$9,$2,$3,0*
0 Add four circle primitives for the rounded corners*
1,1,$1+$1,$2,$3*
1,1,$1+$1,$4,$5*
1,1,$1+$1,$6,$7*
1,1,$1+$1,$8,$9*
0 Add four rect primitives between the rounded corners*
20,1,$1+$1,$2,$3,$4,$5,0*
20,1,$1+$1,$4,$5,$6,$7,0*
20,1,$1+$1,$6,$7,$8,$9,0*
20,1,$1+$1,$8,$9,$2,$3,0*%
G04 Aperture macros list end*
%ADD10C,0.150000*%
%ADD11C,0.120000*%
%ADD12C,0.127000*%
%ADD13C,0.200000*%
%ADD14C,0.010000*%
%ADD15C,3.903200*%
%ADD16C,6.403200*%
%ADD17C,4.700000*%
%ADD18R,1.700000X1.700000*%
%ADD19O,1.700000X1.700000*%
%ADD20RoundRect,0.102000X1.387500X-1.387500X1.387500X1.387500X-1.387500X1.387500X-1.387500X-1.387500X0*%
%ADD21C,2.979000*%
%ADD22C,2.983200*%
%ADD23RoundRect,0.102000X0.704000X-0.704000X0.704000X0.704000X-0.704000X0.704000X-0.704000X-0.704000X0*%
%ADD24C,1.612000*%
%ADD25O,3.404000X1.804000*%
%ADD26RoundRect,0.102000X-0.754000X0.754000X-0.754000X-0.754000X0.754000X-0.754000X0.754000X0.754000X0*%
%ADD27C,1.712000*%
%ADD28RoundRect,0.301600X-0.200000X-0.275000X0.200000X-0.275000X0.200000X0.275000X-0.200000X0.275000X0*%
%ADD29RoundRect,0.101600X-1.270000X0.635000X-1.270000X-0.635000X1.270000X-0.635000X1.270000X0.635000X0*%
%ADD30RoundRect,0.101600X-0.825000X1.715000X-0.825000X-1.715000X0.825000X-1.715000X0.825000X1.715000X0*%
%ADD31RoundRect,0.301600X0.200000X0.275000X-0.200000X0.275000X-0.200000X-0.275000X0.200000X-0.275000X0*%
%ADD32RoundRect,0.102000X-0.850000X-0.300000X0.850000X-0.300000X0.850000X0.300000X-0.850000X0.300000X0*%
%ADD33RoundRect,0.102000X1.400000X0.500000X-1.400000X0.500000X-1.400000X-0.500000X1.400000X-0.500000X0*%
%ADD34RoundRect,0.101600X1.270000X-0.635000X1.270000X0.635000X-1.270000X0.635000X-1.270000X-0.635000X0*%
%ADD35RoundRect,0.101600X0.825000X-1.715000X0.825000X1.715000X-0.825000X1.715000X-0.825000X-1.715000X0*%
G04 APERTURE END LIST*
D10*
X181892666Y-79765519D02*
X182225999Y-79289328D01*
X182464094Y-79765519D02*
X182464094Y-78765519D01*
X182464094Y-78765519D02*
X182083142Y-78765519D01*
X182083142Y-78765519D02*
X181987904Y-78813138D01*
X181987904Y-78813138D02*
X181940285Y-78860757D01*
X181940285Y-78860757D02*
X181892666Y-78955995D01*
X181892666Y-78955995D02*
X181892666Y-79098852D01*
X181892666Y-79098852D02*
X181940285Y-79194090D01*
X181940285Y-79194090D02*
X181987904Y-79241709D01*
X181987904Y-79241709D02*
X182083142Y-79289328D01*
X182083142Y-79289328D02*
X182464094Y-79289328D01*
X181035523Y-79098852D02*
X181035523Y-79765519D01*
X181273618Y-78717900D02*
X181511713Y-79432185D01*
X181511713Y-79432185D02*
X180892666Y-79432185D01*
X84593819Y-112823666D02*
X85308104Y-112823666D01*
X85308104Y-112823666D02*
X85450961Y-112776047D01*
X85450961Y-112776047D02*
X85546200Y-112680809D01*
X85546200Y-112680809D02*
X85593819Y-112537952D01*
X85593819Y-112537952D02*
X85593819Y-112442714D01*
X84927152Y-113728428D02*
X85593819Y-113728428D01*
X84546200Y-113490333D02*
X85260485Y-113252238D01*
X85260485Y-113252238D02*
X85260485Y-113871285D01*
X182019666Y-84210519D02*
X182352999Y-83734328D01*
X182591094Y-84210519D02*
X182591094Y-83210519D01*
X182591094Y-83210519D02*
X182210142Y-83210519D01*
X182210142Y-83210519D02*
X182114904Y-83258138D01*
X182114904Y-83258138D02*
X182067285Y-83305757D01*
X182067285Y-83305757D02*
X182019666Y-83400995D01*
X182019666Y-83400995D02*
X182019666Y-83543852D01*
X182019666Y-83543852D02*
X182067285Y-83639090D01*
X182067285Y-83639090D02*
X182114904Y-83686709D01*
X182114904Y-83686709D02*
X182210142Y-83734328D01*
X182210142Y-83734328D02*
X182591094Y-83734328D01*
X181114904Y-83210519D02*
X181591094Y-83210519D01*
X181591094Y-83210519D02*
X181638713Y-83686709D01*
X181638713Y-83686709D02*
X181591094Y-83639090D01*
X181591094Y-83639090D02*
X181495856Y-83591471D01*
X181495856Y-83591471D02*
X181257761Y-83591471D01*
X181257761Y-83591471D02*
X181162523Y-83639090D01*
X181162523Y-83639090D02*
X181114904Y-83686709D01*
X181114904Y-83686709D02*
X181067285Y-83781947D01*
X181067285Y-83781947D02*
X181067285Y-84020042D01*
X181067285Y-84020042D02*
X181114904Y-84115280D01*
X181114904Y-84115280D02*
X181162523Y-84162900D01*
X181162523Y-84162900D02*
X181257761Y-84210519D01*
X181257761Y-84210519D02*
X181495856Y-84210519D01*
X181495856Y-84210519D02*
X181591094Y-84162900D01*
X181591094Y-84162900D02*
X181638713Y-84115280D01*
X210062819Y-66150476D02*
X210777104Y-66150476D01*
X210777104Y-66150476D02*
X210919961Y-66102857D01*
X210919961Y-66102857D02*
X211015200Y-66007619D01*
X211015200Y-66007619D02*
X211062819Y-65864762D01*
X211062819Y-65864762D02*
X211062819Y-65769524D01*
X211062819Y-67150476D02*
X211062819Y-66579048D01*
X211062819Y-66864762D02*
X210062819Y-66864762D01*
X210062819Y-66864762D02*
X210205676Y-66769524D01*
X210205676Y-66769524D02*
X210300914Y-66674286D01*
X210300914Y-66674286D02*
X210348533Y-66579048D01*
X210062819Y-67483810D02*
X210062819Y-68102857D01*
X210062819Y-68102857D02*
X210443771Y-67769524D01*
X210443771Y-67769524D02*
X210443771Y-67912381D01*
X210443771Y-67912381D02*
X210491390Y-68007619D01*
X210491390Y-68007619D02*
X210539009Y-68055238D01*
X210539009Y-68055238D02*
X210634247Y-68102857D01*
X210634247Y-68102857D02*
X210872342Y-68102857D01*
X210872342Y-68102857D02*
X210967580Y-68055238D01*
X210967580Y-68055238D02*
X211015200Y-68007619D01*
X211015200Y-68007619D02*
X211062819Y-67912381D01*
X211062819Y-67912381D02*
X211062819Y-67626667D01*
X211062819Y-67626667D02*
X211015200Y-67531429D01*
X211015200Y-67531429D02*
X210967580Y-67483810D01*
X117007819Y-110664666D02*
X117722104Y-110664666D01*
X117722104Y-110664666D02*
X117864961Y-110617047D01*
X117864961Y-110617047D02*
X117960200Y-110521809D01*
X117960200Y-110521809D02*
X118007819Y-110378952D01*
X118007819Y-110378952D02*
X118007819Y-110283714D01*
X117007819Y-111617047D02*
X117007819Y-111140857D01*
X117007819Y-111140857D02*
X117484009Y-111093238D01*
X117484009Y-111093238D02*
X117436390Y-111140857D01*
X117436390Y-111140857D02*
X117388771Y-111236095D01*
X117388771Y-111236095D02*
X117388771Y-111474190D01*
X117388771Y-111474190D02*
X117436390Y-111569428D01*
X117436390Y-111569428D02*
X117484009Y-111617047D01*
X117484009Y-111617047D02*
X117579247Y-111664666D01*
X117579247Y-111664666D02*
X117817342Y-111664666D01*
X117817342Y-111664666D02*
X117912580Y-111617047D01*
X117912580Y-111617047D02*
X117960200Y-111569428D01*
X117960200Y-111569428D02*
X118007819Y-111474190D01*
X118007819Y-111474190D02*
X118007819Y-111236095D01*
X118007819Y-111236095D02*
X117960200Y-111140857D01*
X117960200Y-111140857D02*
X117912580Y-111093238D01*
X142442315Y-78194532D02*
X143004745Y-78194532D01*
X143004745Y-78194532D02*
X143117231Y-78157037D01*
X143117231Y-78157037D02*
X143192222Y-78082046D01*
X143192222Y-78082046D02*
X143229717Y-77969560D01*
X143229717Y-77969560D02*
X143229717Y-77894570D01*
X142442315Y-78494495D02*
X142442315Y-79019429D01*
X142442315Y-79019429D02*
X143229717Y-78681971D01*
D11*
X181488742Y-81103200D02*
X181963258Y-81103200D01*
X181488742Y-80058200D02*
X181963258Y-80058200D01*
X86224000Y-108222000D02*
X86224000Y-109642000D01*
X87149000Y-108222000D02*
X86224000Y-108222000D01*
X89319000Y-108222000D02*
X90814000Y-108222000D01*
X90814000Y-108222000D02*
X90814000Y-110762000D01*
X86224000Y-109642000D02*
X86224000Y-109642000D01*
X86224000Y-109642000D02*
X86224000Y-110762000D01*
X90814000Y-110762000D02*
X92924000Y-110762000D01*
X86224000Y-116672000D02*
X86224000Y-115552000D01*
X86224000Y-116672000D02*
X86224000Y-116672000D01*
X86224000Y-118092000D02*
X86224000Y-116672000D01*
X87149000Y-118092000D02*
X86224000Y-118092000D01*
X89319000Y-118092000D02*
X90814000Y-118092000D01*
X90814000Y-118092000D02*
X90814000Y-115552000D01*
X181963258Y-81709200D02*
X181488742Y-81709200D01*
X181963258Y-82754200D02*
X181488742Y-82754200D01*
D12*
X208150000Y-69125000D02*
X208150000Y-67500000D01*
X206720000Y-69125000D02*
X208150000Y-69125000D01*
X203900000Y-67900000D02*
X203900000Y-62100000D01*
X208150000Y-62500000D02*
X208150000Y-60875000D01*
X206720000Y-60875000D02*
X208150000Y-60875000D01*
D13*
X209900000Y-63125000D02*
G75*
G03*
X209900000Y-63125000I-100000J0D01*
G01*
D11*
X116468000Y-115933000D02*
X116468000Y-114513000D01*
X115543000Y-115933000D02*
X116468000Y-115933000D01*
X113373000Y-115933000D02*
X111878000Y-115933000D01*
X111878000Y-115933000D02*
X111878000Y-113393000D01*
X116468000Y-114513000D02*
X116468000Y-114513000D01*
X116468000Y-114513000D02*
X116468000Y-113393000D01*
X111878000Y-113393000D02*
X109768000Y-113393000D01*
X116468000Y-107483000D02*
X116468000Y-108603000D01*
X116468000Y-107483000D02*
X116468000Y-107483000D01*
X116468000Y-106063000D02*
X116468000Y-107483000D01*
X115543000Y-106063000D02*
X116468000Y-106063000D01*
X113373000Y-106063000D02*
X111878000Y-106063000D01*
X111878000Y-106063000D02*
X111878000Y-108603000D01*
D12*
X145013250Y-74122000D02*
X149468250Y-74122000D01*
X151758250Y-74122000D02*
X156213250Y-74122000D01*
X156213250Y-74122000D02*
X156213250Y-78492000D01*
X145013250Y-78492000D02*
X145013250Y-74122000D01*
X158478250Y-88092000D02*
X158478250Y-88892000D01*
X157778250Y-88492000D02*
X158478250Y-88092000D01*
X158478250Y-88892000D02*
X157778250Y-88492000D01*
X156213250Y-89402000D02*
X156213250Y-93772000D01*
X145013250Y-93772000D02*
X145013250Y-89402000D01*
X149468250Y-93772000D02*
X145013250Y-93772000D01*
X156213250Y-93772000D02*
X151758250Y-93772000D01*
%LPC*%
D14*
X151514450Y-77353200D02*
X149712050Y-77353200D01*
X149712050Y-73770800D01*
X151514450Y-73770800D01*
X151514450Y-77353200D01*
G36*
X151514450Y-77353200D02*
G01*
X149712050Y-77353200D01*
X149712050Y-73770800D01*
X151514450Y-73770800D01*
X151514450Y-77353200D01*
G37*
X147259450Y-80158200D02*
X144567050Y-80158200D01*
X144567050Y-78735800D01*
X147259450Y-78735800D01*
X147259450Y-80158200D01*
G36*
X147259450Y-80158200D02*
G01*
X144567050Y-80158200D01*
X144567050Y-78735800D01*
X147259450Y-78735800D01*
X147259450Y-80158200D01*
G37*
X156659450Y-80158200D02*
X153967050Y-80158200D01*
X153967050Y-78735800D01*
X156659450Y-78735800D01*
X156659450Y-80158200D01*
G36*
X156659450Y-80158200D02*
G01*
X153967050Y-80158200D01*
X153967050Y-78735800D01*
X156659450Y-78735800D01*
X156659450Y-80158200D01*
G37*
X147259450Y-83158200D02*
X144567050Y-83158200D01*
X144567050Y-81735800D01*
X147259450Y-81735800D01*
X147259450Y-83158200D01*
G36*
X147259450Y-83158200D02*
G01*
X144567050Y-83158200D01*
X144567050Y-81735800D01*
X147259450Y-81735800D01*
X147259450Y-83158200D01*
G37*
X156659450Y-83158200D02*
X153967050Y-83158200D01*
X153967050Y-81735800D01*
X156659450Y-81735800D01*
X156659450Y-83158200D01*
G36*
X156659450Y-83158200D02*
G01*
X153967050Y-83158200D01*
X153967050Y-81735800D01*
X156659450Y-81735800D01*
X156659450Y-83158200D01*
G37*
X147259450Y-86158200D02*
X144567050Y-86158200D01*
X144567050Y-84735800D01*
X147259450Y-84735800D01*
X147259450Y-86158200D01*
G36*
X147259450Y-86158200D02*
G01*
X144567050Y-86158200D01*
X144567050Y-84735800D01*
X147259450Y-84735800D01*
X147259450Y-86158200D01*
G37*
X156659450Y-86158200D02*
X153967050Y-86158200D01*
X153967050Y-84735800D01*
X156659450Y-84735800D01*
X156659450Y-86158200D01*
G36*
X156659450Y-86158200D02*
G01*
X153967050Y-86158200D01*
X153967050Y-84735800D01*
X156659450Y-84735800D01*
X156659450Y-86158200D01*
G37*
X147259450Y-89158200D02*
X144567050Y-89158200D01*
X144567050Y-87735800D01*
X147259450Y-87735800D01*
X147259450Y-89158200D01*
G36*
X147259450Y-89158200D02*
G01*
X144567050Y-89158200D01*
X144567050Y-87735800D01*
X147259450Y-87735800D01*
X147259450Y-89158200D01*
G37*
X156659450Y-89158200D02*
X153967050Y-89158200D01*
X153967050Y-87735800D01*
X156659450Y-87735800D01*
X156659450Y-89158200D01*
G36*
X156659450Y-89158200D02*
G01*
X153967050Y-89158200D01*
X153967050Y-87735800D01*
X156659450Y-87735800D01*
X156659450Y-89158200D01*
G37*
X151514450Y-94123200D02*
X149712050Y-94123200D01*
X149712050Y-90540800D01*
X151514450Y-90540800D01*
X151514450Y-94123200D01*
G36*
X151514450Y-94123200D02*
G01*
X149712050Y-94123200D01*
X149712050Y-90540800D01*
X151514450Y-90540800D01*
X151514450Y-94123200D01*
G37*
D15*
X86796621Y-49459321D03*
X79596621Y-49459321D03*
D16*
X101600000Y-108484000D03*
D17*
X172611096Y-16532860D03*
X215465590Y-109216005D03*
X63532842Y-59880142D03*
X202611067Y-125968345D03*
D16*
X159600900Y-16532860D03*
D17*
X93526349Y-97476702D03*
X93526349Y-67516719D03*
X197574411Y-97476702D03*
X62863132Y-92880142D03*
X227297158Y-75880142D03*
X227966868Y-92880142D03*
X214157936Y-17096280D03*
X166350214Y-146903559D03*
D16*
X101600000Y-16532860D03*
D17*
X202611096Y-16532860D03*
X197574411Y-84161566D03*
X63532842Y-83880142D03*
X227297158Y-67880142D03*
X227297158Y-59880142D03*
D16*
X189230000Y-125984000D03*
D15*
X211408697Y-49459321D03*
X204208697Y-49459321D03*
D17*
X145415000Y-149659732D03*
D18*
X196469000Y-42926000D03*
D19*
X199009000Y-42926000D03*
D20*
X200039500Y-32258000D03*
D21*
X200039500Y-39258000D03*
D16*
X101600000Y-65537080D03*
D17*
X219473333Y-84161566D03*
D16*
X101600000Y-125984000D03*
X101600000Y-117234000D03*
D17*
X76672065Y-17096280D03*
X63532842Y-75880142D03*
X104971273Y-138822868D03*
D22*
X77040000Y-39504000D03*
X80440000Y-39504000D03*
X77040000Y-29584000D03*
X80440000Y-29584000D03*
D17*
X93526349Y-84161566D03*
X88218905Y-16532860D03*
D16*
X189230000Y-86614000D03*
D17*
X71576849Y-67516719D03*
D16*
X189230000Y-76200000D03*
D23*
X224646500Y-52657000D03*
D24*
X224646500Y-49657000D03*
X224646500Y-46657000D03*
D25*
X224646500Y-55907000D03*
X224646500Y-43407000D03*
D17*
X71576849Y-97476702D03*
X219473333Y-97476702D03*
X227297158Y-83880142D03*
X75364410Y-109216005D03*
X185858727Y-138822868D03*
X124479786Y-146903559D03*
X118218905Y-16532860D03*
X197574411Y-67516719D03*
X71576849Y-84161566D03*
X219473333Y-67516719D03*
D26*
X189975000Y-32147500D03*
D27*
X189975000Y-34647500D03*
X189975000Y-37147500D03*
X189975000Y-39647500D03*
D17*
X88218933Y-125968345D03*
D16*
X189230000Y-104184000D03*
D17*
X63532842Y-67880142D03*
D16*
X101600000Y-76200000D03*
D28*
X180901000Y-80580700D03*
X182551000Y-80580700D03*
D29*
X91654000Y-111657000D03*
X91654000Y-114657000D03*
D30*
X88234000Y-107772000D03*
X88234000Y-118542000D03*
D31*
X182551000Y-82231700D03*
X180901000Y-82231700D03*
D32*
X208350000Y-63125000D03*
X208350000Y-64375000D03*
X208350000Y-65625000D03*
X208350000Y-66875000D03*
D33*
X205000000Y-68725000D03*
X205000000Y-61275000D03*
D34*
X111038000Y-112498000D03*
X111038000Y-109498000D03*
D35*
X114458000Y-116383000D03*
X114458000Y-105613000D03*
%LPD*%
M02*
