G04 #@! TF.GenerationSoftware,KiCad,Pcbnew,7.0.6*
G04 #@! TF.CreationDate,2023-12-26T10:42:54-08:00*
G04 #@! TF.ProjectId,midplate,6d696470-6c61-4746-952e-6b696361645f,rev?*
G04 #@! TF.SameCoordinates,Original*
G04 #@! TF.FileFunction,Copper,L2,Bot*
G04 #@! TF.FilePolarity,Positive*
%FSLAX46Y46*%
G04 Gerber Fmt 4.6, Leading zero omitted, Abs format (unit mm)*
G04 Created by KiCad (PCBNEW 7.0.6) date 2023-12-26 10:42:54*
%MOMM*%
%LPD*%
G01*
G04 APERTURE LIST*
G04 Aperture macros list*
%AMRoundRect*
0 Rectangle with rounded corners*
0 $1 Rounding radius*
0 $2 $3 $4 $5 $6 $7 $8 $9 X,Y pos of 4 corners*
0 Add a 4 corners polygon primitive as box body*
4,1,4,$2,$3,$4,$5,$6,$7,$8,$9,$2,$3,0*
0 Add four circle primitives for the rounded corners*
1,1,$1+$1,$2,$3*
1,1,$1+$1,$4,$5*
1,1,$1+$1,$6,$7*
1,1,$1+$1,$8,$9*
0 Add four rect primitives between the rounded corners*
20,1,$1+$1,$2,$3,$4,$5,0*
20,1,$1+$1,$4,$5,$6,$7,0*
20,1,$1+$1,$6,$7,$8,$9,0*
20,1,$1+$1,$8,$9,$2,$3,0*%
G04 Aperture macros list end*
G04 #@! TA.AperFunction,ComponentPad*
%ADD10C,3.700000*%
G04 #@! TD*
G04 #@! TA.AperFunction,ComponentPad*
%ADD11C,6.200000*%
G04 #@! TD*
G04 #@! TA.AperFunction,ComponentPad*
%ADD12C,4.700000*%
G04 #@! TD*
G04 #@! TA.AperFunction,ComponentPad*
%ADD13R,1.700000X1.700000*%
G04 #@! TD*
G04 #@! TA.AperFunction,ComponentPad*
%ADD14O,1.700000X1.700000*%
G04 #@! TD*
G04 #@! TA.AperFunction,ComponentPad*
%ADD15R,2.775000X2.775000*%
G04 #@! TD*
G04 #@! TA.AperFunction,ComponentPad*
%ADD16C,2.775000*%
G04 #@! TD*
G04 #@! TA.AperFunction,ComponentPad*
%ADD17C,2.780000*%
G04 #@! TD*
G04 #@! TA.AperFunction,ComponentPad*
%ADD18R,1.408000X1.408000*%
G04 #@! TD*
G04 #@! TA.AperFunction,ComponentPad*
%ADD19C,1.408000*%
G04 #@! TD*
G04 #@! TA.AperFunction,ComponentPad*
%ADD20O,3.200000X1.600000*%
G04 #@! TD*
G04 #@! TA.AperFunction,ComponentPad*
%ADD21R,1.508000X1.508000*%
G04 #@! TD*
G04 #@! TA.AperFunction,ComponentPad*
%ADD22C,1.508000*%
G04 #@! TD*
G04 #@! TA.AperFunction,SMDPad,CuDef*
%ADD23RoundRect,0.200000X-0.200000X-0.275000X0.200000X-0.275000X0.200000X0.275000X-0.200000X0.275000X0*%
G04 #@! TD*
G04 #@! TA.AperFunction,SMDPad,CuDef*
%ADD24R,2.540000X1.270000*%
G04 #@! TD*
G04 #@! TA.AperFunction,SMDPad,CuDef*
%ADD25R,1.650000X3.430000*%
G04 #@! TD*
G04 #@! TA.AperFunction,SMDPad,CuDef*
%ADD26RoundRect,0.200000X0.200000X0.275000X-0.200000X0.275000X-0.200000X-0.275000X0.200000X-0.275000X0*%
G04 #@! TD*
G04 #@! TA.AperFunction,SMDPad,CuDef*
%ADD27R,1.700000X0.600000*%
G04 #@! TD*
G04 #@! TA.AperFunction,SMDPad,CuDef*
%ADD28R,2.800000X1.000000*%
G04 #@! TD*
G04 #@! TA.AperFunction,ViaPad*
%ADD29C,0.500000*%
G04 #@! TD*
G04 #@! TA.AperFunction,ViaPad*
%ADD30C,0.700000*%
G04 #@! TD*
G04 #@! TA.AperFunction,Conductor*
%ADD31C,0.200000*%
G04 #@! TD*
G04 #@! TA.AperFunction,Conductor*
%ADD32C,0.254000*%
G04 #@! TD*
G04 #@! TA.AperFunction,Conductor*
%ADD33C,2.540000*%
G04 #@! TD*
G04 APERTURE END LIST*
D10*
X86796621Y-49459321D03*
X79596621Y-49459321D03*
D11*
X101600000Y-108484000D03*
D12*
X172611096Y-16532860D03*
X215465590Y-109216005D03*
X63532842Y-59880142D03*
X202611067Y-125968345D03*
D11*
X159600900Y-16532860D03*
D12*
X93526349Y-97476702D03*
X93526349Y-67516719D03*
X197574411Y-97476702D03*
X62863132Y-92880142D03*
X227297158Y-75880142D03*
X227966868Y-92880142D03*
X214157936Y-17096280D03*
X166350214Y-146903559D03*
D11*
X101600000Y-16532860D03*
D12*
X202611096Y-16532860D03*
X197574411Y-84161566D03*
X63532842Y-83880142D03*
X227297158Y-67880142D03*
X227297158Y-59880142D03*
D11*
X189230000Y-125984000D03*
D10*
X211408697Y-49459321D03*
X204208697Y-49459321D03*
D12*
X145415000Y-149659732D03*
D13*
X196469000Y-42926000D03*
D14*
X199009000Y-42926000D03*
D15*
X200039500Y-32258000D03*
D16*
X200039500Y-39258000D03*
D11*
X101600000Y-65537080D03*
D12*
X219473333Y-84161566D03*
D11*
X101600000Y-125984000D03*
X101600000Y-117234000D03*
D12*
X76672065Y-17096280D03*
X63532842Y-75880142D03*
X104971273Y-138822868D03*
D17*
X77040000Y-39504000D03*
X80440000Y-39504000D03*
X77040000Y-29584000D03*
X80440000Y-29584000D03*
D12*
X93526349Y-84161566D03*
X88218905Y-16532860D03*
D11*
X189230000Y-86614000D03*
D12*
X71576849Y-67516719D03*
D11*
X189230000Y-76200000D03*
D18*
X224646500Y-52657000D03*
D19*
X224646500Y-49657000D03*
X224646500Y-46657000D03*
D20*
X224646500Y-55907000D03*
X224646500Y-43407000D03*
D12*
X71576849Y-97476702D03*
X219473333Y-97476702D03*
X227297158Y-83880142D03*
X75364410Y-109216005D03*
X185858727Y-138822868D03*
X124479786Y-146903559D03*
X118218905Y-16532860D03*
X197574411Y-67516719D03*
X71576849Y-84161566D03*
X219473333Y-67516719D03*
D21*
X189975000Y-32147500D03*
D22*
X189975000Y-34647500D03*
X189975000Y-37147500D03*
X189975000Y-39647500D03*
D12*
X88218933Y-125968345D03*
D11*
X189230000Y-104184000D03*
D12*
X63532842Y-67880142D03*
D11*
X101600000Y-76200000D03*
D23*
X180901000Y-80580700D03*
X182551000Y-80580700D03*
D24*
X91654000Y-111657000D03*
X91654000Y-114657000D03*
D25*
X88234000Y-107772000D03*
X88234000Y-118542000D03*
D26*
X182551000Y-82231700D03*
X180901000Y-82231700D03*
D27*
X208350000Y-63125000D03*
X208350000Y-64375000D03*
X208350000Y-65625000D03*
X208350000Y-66875000D03*
D28*
X205000000Y-68725000D03*
X205000000Y-61275000D03*
D24*
X111038000Y-112498000D03*
X111038000Y-109498000D03*
D25*
X114458000Y-116383000D03*
X114458000Y-105613000D03*
D24*
X155313250Y-88447000D03*
X155313250Y-85447000D03*
X155313250Y-82447000D03*
X155313250Y-79447000D03*
X145913250Y-88447000D03*
X145913250Y-85447000D03*
X145913250Y-82447000D03*
X145913250Y-79447000D03*
D25*
X150613250Y-92332000D03*
X150613250Y-75562000D03*
D29*
X194970400Y-73304400D03*
X194970400Y-74066400D03*
X221234000Y-46736000D03*
X194970400Y-72542400D03*
X195732400Y-71780400D03*
X195732400Y-72542400D03*
X194970400Y-71780400D03*
X195732400Y-73304400D03*
X195732400Y-74066400D03*
D30*
X131953000Y-34290000D03*
X140843000Y-30480000D03*
X142113000Y-33020000D03*
X137033000Y-34290000D03*
X138303000Y-31750000D03*
X142113000Y-29210000D03*
X130683000Y-21590000D03*
X131953000Y-21590000D03*
X142113000Y-34290000D03*
X133223000Y-20320000D03*
X139573000Y-27940000D03*
X139573000Y-31750000D03*
X135763000Y-33020000D03*
X139573000Y-34290000D03*
X143383000Y-20320000D03*
X138303000Y-25400000D03*
X139573000Y-21590000D03*
X133223000Y-22860000D03*
X143383000Y-33020000D03*
X142113000Y-20320000D03*
X143383000Y-31750000D03*
X130683000Y-33020000D03*
X143383000Y-24130000D03*
X137033000Y-33020000D03*
X134493000Y-22860000D03*
X131953000Y-20320000D03*
X142113000Y-27940000D03*
X138303000Y-22860000D03*
X137033000Y-31750000D03*
X130683000Y-20320000D03*
X140843000Y-21590000D03*
X138303000Y-26670000D03*
X138303000Y-21590000D03*
X137033000Y-20320000D03*
X129413000Y-22860000D03*
X143383000Y-27940000D03*
X138303000Y-30480000D03*
X143383000Y-21590000D03*
X131953000Y-33020000D03*
X142113000Y-21590000D03*
X135763000Y-22860000D03*
X138303000Y-20320000D03*
X140843000Y-29210000D03*
X130683000Y-31750000D03*
X137033000Y-27940000D03*
X135763000Y-20320000D03*
X142113000Y-25400000D03*
X129413000Y-31750000D03*
X137033000Y-30480000D03*
X134493000Y-20320000D03*
X131953000Y-22860000D03*
X139573000Y-29210000D03*
X143383000Y-26670000D03*
X129413000Y-20320000D03*
X130683000Y-34290000D03*
X138303000Y-29210000D03*
X137033000Y-25400000D03*
X133223000Y-31750000D03*
X140843000Y-27940000D03*
X142113000Y-26670000D03*
X139573000Y-30480000D03*
X142113000Y-31750000D03*
X129413000Y-34290000D03*
X142113000Y-30480000D03*
X139573000Y-25400000D03*
X140843000Y-20320000D03*
X137033000Y-21590000D03*
X129413000Y-21590000D03*
X140843000Y-22860000D03*
X138303000Y-34290000D03*
X133223000Y-33020000D03*
X131953000Y-31750000D03*
X139573000Y-22860000D03*
X135763000Y-34290000D03*
X134493000Y-34290000D03*
X137033000Y-29210000D03*
X134493000Y-33020000D03*
X139573000Y-24130000D03*
X133223000Y-21590000D03*
X143383000Y-25400000D03*
X142113000Y-22860000D03*
X130683000Y-22860000D03*
X138303000Y-33020000D03*
X134493000Y-31750000D03*
X143383000Y-34290000D03*
X137033000Y-24130000D03*
X139573000Y-26670000D03*
X142113000Y-24130000D03*
X138303000Y-27940000D03*
X140843000Y-26670000D03*
X134493000Y-21590000D03*
X140843000Y-31750000D03*
X140843000Y-34290000D03*
X137033000Y-26670000D03*
X137033000Y-22860000D03*
X140843000Y-33020000D03*
X139573000Y-33020000D03*
X139573000Y-20320000D03*
X140843000Y-24130000D03*
X133223000Y-34290000D03*
X140843000Y-25400000D03*
X135763000Y-21590000D03*
X129413000Y-33020000D03*
X135763000Y-31750000D03*
X143383000Y-29210000D03*
X143383000Y-22860000D03*
X138303000Y-24130000D03*
X143383000Y-30480000D03*
X94996000Y-34426000D03*
X93980000Y-33410000D03*
X100584000Y-34544000D03*
X101600000Y-33528000D03*
X102616000Y-33528000D03*
X94996000Y-33410000D03*
X92964000Y-34426000D03*
X100584000Y-33528000D03*
X91948000Y-34426000D03*
X100584000Y-31496000D03*
X102616000Y-34544000D03*
X101600000Y-32512000D03*
X94996000Y-31378000D03*
X100584000Y-32512000D03*
X93980000Y-34426000D03*
X101600000Y-31496000D03*
X103632000Y-34544000D03*
X93980000Y-32394000D03*
X101600000Y-34544000D03*
X93980000Y-31378000D03*
X94996000Y-32394000D03*
X103632000Y-33528000D03*
X96520000Y-24638000D03*
X88138000Y-34290000D03*
X89154000Y-35306000D03*
X100584000Y-27686000D03*
X97536000Y-24638000D03*
X98552000Y-25654000D03*
X86360000Y-32258000D03*
X87122000Y-34290000D03*
X98552000Y-24638000D03*
X86360000Y-31242000D03*
X87122000Y-35306000D03*
X89154000Y-33274000D03*
X100584000Y-24638000D03*
X97536000Y-25654000D03*
X96520000Y-25654000D03*
X88138000Y-35306000D03*
X99568000Y-25654000D03*
X100584000Y-26670000D03*
X89154000Y-34290000D03*
X89154000Y-31242000D03*
X86360000Y-33274000D03*
X100584000Y-25654000D03*
X99568000Y-24638000D03*
X89154000Y-32258000D03*
X84074000Y-26806000D03*
X84074000Y-23758000D03*
X85090000Y-26806000D03*
X85090000Y-22742000D03*
X83058000Y-25781000D03*
X85090000Y-25790000D03*
X83058000Y-24765000D03*
X85090000Y-23758000D03*
X83058000Y-27813000D03*
X84074000Y-24774000D03*
X85090000Y-24774000D03*
X83058000Y-22733000D03*
X84074000Y-27822000D03*
X83058000Y-23749000D03*
X83058000Y-26797000D03*
X84074000Y-25790000D03*
X84074000Y-22742000D03*
D29*
X111760000Y-61315600D03*
X104204000Y-37782000D03*
X106934000Y-24384000D03*
X184101952Y-66869500D03*
X195588700Y-41275000D03*
X194809300Y-41275000D03*
X184101952Y-67648900D03*
D30*
X122809000Y-29210000D03*
X125857000Y-32258000D03*
X124841000Y-31242000D03*
X112395000Y-33147000D03*
X122809000Y-30226000D03*
X123825000Y-31242000D03*
X114554000Y-31886000D03*
X123825000Y-29210000D03*
X114554000Y-30870000D03*
X110363000Y-33147000D03*
X124841000Y-32258000D03*
X113411000Y-33147000D03*
X114554000Y-29854000D03*
X125857000Y-31242000D03*
X114554000Y-32902000D03*
X109347000Y-33147000D03*
X123825000Y-30226000D03*
X114554000Y-27822000D03*
X123825000Y-32258000D03*
X114554000Y-28838000D03*
X122809000Y-31242000D03*
X108331000Y-33147000D03*
X122809000Y-32258000D03*
X111379000Y-33147000D03*
D29*
X121285000Y-26162000D03*
X150114000Y-16256000D03*
D31*
X206689699Y-64760300D02*
X207074999Y-64375000D01*
X203783288Y-64760300D02*
X206689699Y-64760300D01*
X195288700Y-56265712D02*
X203783288Y-64760300D01*
X195288700Y-41644129D02*
X195288700Y-56265712D01*
X206689699Y-65239700D02*
X207074999Y-65625000D01*
X203584712Y-65239700D02*
X206689699Y-65239700D01*
X195409300Y-41454400D02*
X195409300Y-41523529D01*
X207074999Y-64375000D02*
X208350000Y-64375000D01*
X194809300Y-41275000D02*
X194809300Y-56464288D01*
X207074999Y-65625000D02*
X208350000Y-65625000D01*
X195409300Y-41523529D02*
X195288700Y-41644129D01*
X194809300Y-56464288D02*
X203584712Y-65239700D01*
X195588700Y-41275000D02*
X195409300Y-41454400D01*
D32*
X104204000Y-37782000D02*
X107696000Y-41274000D01*
X106172000Y-25146000D02*
X106934000Y-24384000D01*
X107696000Y-41274000D02*
X107696000Y-41275000D01*
X106172000Y-35814000D02*
X106172000Y-25146000D01*
X111760000Y-45339000D02*
X111760000Y-61315600D01*
X107696000Y-41275000D02*
X111760000Y-45339000D01*
X104204000Y-37782000D02*
X106172000Y-35814000D01*
D33*
X110659000Y-108484000D02*
X111038000Y-108863000D01*
X101600000Y-108484000D02*
X110659000Y-108484000D01*
X101600000Y-117234000D02*
X106731000Y-117234000D01*
X100343000Y-117234000D02*
X94337000Y-111228000D01*
X101600000Y-117234000D02*
X100343000Y-117234000D01*
X106731000Y-117234000D02*
X111038000Y-112927000D01*
X94337000Y-111228000D02*
X91654000Y-111228000D01*
X98933000Y-125984000D02*
X91948000Y-118999000D01*
X91948000Y-115586000D02*
X91654000Y-115292000D01*
X101600000Y-125984000D02*
X98933000Y-125984000D01*
X91948000Y-118999000D02*
X91948000Y-115586000D01*
D31*
X180240200Y-81645900D02*
X179630312Y-81645900D01*
X184251952Y-67019500D02*
X184101952Y-66869500D01*
X178652500Y-80668088D02*
X178652500Y-78310512D01*
X182729912Y-67019500D02*
X183951952Y-67019500D01*
X180901000Y-82231700D02*
X180826000Y-82231700D01*
X186547212Y-38157800D02*
X185180300Y-39524712D01*
X189975000Y-37147500D02*
X188964700Y-38157800D01*
X185180300Y-66474112D02*
X184634912Y-67019500D01*
X183951952Y-67019500D02*
X184101952Y-66869500D01*
X190985300Y-38157800D02*
X193690788Y-38157800D01*
X178652500Y-78310512D02*
X181497300Y-75465712D01*
X179630312Y-81645900D02*
X178652500Y-80668088D01*
X185180300Y-39524712D02*
X185180300Y-66474112D01*
X180826000Y-82231700D02*
X180240200Y-81645900D01*
X195438700Y-39905712D02*
X195438700Y-41125000D01*
X188964700Y-38157800D02*
X186547212Y-38157800D01*
X189975000Y-37147500D02*
X190985300Y-38157800D01*
X181497300Y-75465712D02*
X181497300Y-68252112D01*
X195438700Y-41125000D02*
X195588700Y-41275000D01*
X181497300Y-68252112D02*
X182729912Y-67019500D01*
X184634912Y-67019500D02*
X184251952Y-67019500D01*
X193690788Y-38157800D02*
X195438700Y-39905712D01*
X182928488Y-67498900D02*
X183951952Y-67498900D01*
X183951952Y-67498900D02*
X184101952Y-67648900D01*
X179828888Y-81166500D02*
X179131900Y-80469512D01*
X186745788Y-38637200D02*
X185659700Y-39723288D01*
X184251952Y-67498900D02*
X184101952Y-67648900D01*
X185659700Y-66672688D02*
X184833488Y-67498900D01*
X184833488Y-67498900D02*
X184251952Y-67498900D01*
X194959300Y-40104288D02*
X194959300Y-41125000D01*
X190985300Y-38637200D02*
X193492212Y-38637200D01*
X180901000Y-80580700D02*
X180826000Y-80580700D01*
X180826000Y-80580700D02*
X180240200Y-81166500D01*
X180240200Y-81166500D02*
X179828888Y-81166500D01*
X181976700Y-68450688D02*
X182928488Y-67498900D01*
X193492212Y-38637200D02*
X194959300Y-40104288D01*
X188964700Y-38637200D02*
X186745788Y-38637200D01*
X179131900Y-78509088D02*
X181976700Y-75664288D01*
X185659700Y-39723288D02*
X185659700Y-66672688D01*
X194959300Y-41125000D02*
X194809300Y-41275000D01*
X189975000Y-39647500D02*
X190985300Y-38637200D01*
X179131900Y-80469512D02*
X179131900Y-78509088D01*
X181976700Y-75664288D02*
X181976700Y-68450688D01*
X189975000Y-39647500D02*
X188964700Y-38637200D01*
D32*
X150114000Y-16256000D02*
X150054000Y-16316000D01*
X127194000Y-16316000D02*
X121285000Y-22225000D01*
X121285000Y-22225000D02*
X121285000Y-26162000D01*
X150054000Y-16316000D02*
X127194000Y-16316000D01*
D31*
X183704920Y-81645900D02*
X183705720Y-81646700D01*
X182626000Y-82231700D02*
X183211800Y-81645900D01*
X182551000Y-82231700D02*
X182626000Y-82231700D01*
X183705720Y-81646700D02*
X184262700Y-81646700D01*
X183211800Y-81645900D02*
X183704920Y-81645900D01*
X184262700Y-81646700D02*
X189230000Y-86614000D01*
X183888377Y-81166500D02*
X183889177Y-81167300D01*
X182626000Y-80580700D02*
X183211800Y-81166500D01*
X184262700Y-81167300D02*
X189230000Y-76200000D01*
X183211800Y-81166500D02*
X183888377Y-81166500D01*
X182551000Y-80580700D02*
X182626000Y-80580700D01*
X183889177Y-81167300D02*
X184262700Y-81167300D01*
G04 #@! TA.AperFunction,Conductor*
G36*
X81028695Y-37846235D02*
G01*
X81235727Y-37864348D01*
X81257004Y-37868099D01*
X81449888Y-37919782D01*
X81470198Y-37927175D01*
X81651165Y-38011562D01*
X81669883Y-38022369D01*
X81833456Y-38136904D01*
X81850014Y-38150798D01*
X81991201Y-38291985D01*
X82005095Y-38308543D01*
X82119630Y-38472116D01*
X82130437Y-38490834D01*
X82214824Y-38671801D01*
X82222217Y-38692112D01*
X82273898Y-38884988D01*
X82277651Y-38906275D01*
X82295763Y-39113299D01*
X82295999Y-39118705D01*
X82295999Y-50797294D01*
X82295763Y-50802700D01*
X82277651Y-51009724D01*
X82273898Y-51031011D01*
X82222217Y-51223887D01*
X82214824Y-51244198D01*
X82130437Y-51425165D01*
X82119630Y-51443883D01*
X82005095Y-51607456D01*
X81991201Y-51624014D01*
X81850014Y-51765201D01*
X81833456Y-51779095D01*
X81669883Y-51893630D01*
X81651165Y-51904437D01*
X81470198Y-51988824D01*
X81449887Y-51996217D01*
X81257011Y-52047898D01*
X81235725Y-52051651D01*
X81085864Y-52064762D01*
X81028695Y-52069764D01*
X81023294Y-52070000D01*
X76202706Y-52070000D01*
X76197304Y-52069764D01*
X76133000Y-52064138D01*
X75990274Y-52051651D01*
X75968988Y-52047898D01*
X75776112Y-51996217D01*
X75755801Y-51988824D01*
X75574834Y-51904437D01*
X75556116Y-51893630D01*
X75392543Y-51779095D01*
X75375985Y-51765201D01*
X75234798Y-51624014D01*
X75220904Y-51607456D01*
X75106369Y-51443883D01*
X75095562Y-51425165D01*
X75011175Y-51244198D01*
X75003782Y-51223887D01*
X74952099Y-51031004D01*
X74948348Y-51009724D01*
X74930236Y-50802700D01*
X74930000Y-50797294D01*
X74930000Y-39118705D01*
X74930236Y-39113299D01*
X74948348Y-38906275D01*
X74952099Y-38884996D01*
X75003783Y-38692107D01*
X75011175Y-38671801D01*
X75095562Y-38490834D01*
X75106369Y-38472116D01*
X75220904Y-38308543D01*
X75234792Y-38291991D01*
X75375991Y-38150792D01*
X75392543Y-38136904D01*
X75556116Y-38022369D01*
X75574831Y-38011563D01*
X75755803Y-37927174D01*
X75776107Y-37919783D01*
X75968996Y-37868099D01*
X75990270Y-37864348D01*
X76197304Y-37846235D01*
X76202706Y-37846000D01*
X81023294Y-37846000D01*
X81028695Y-37846235D01*
G37*
G04 #@! TD.AperFunction*
G04 #@! TA.AperFunction,Conductor*
G36*
X103634695Y-30988235D02*
G01*
X103841727Y-31006348D01*
X103863004Y-31010099D01*
X104055888Y-31061782D01*
X104076198Y-31069175D01*
X104257165Y-31153562D01*
X104275883Y-31164369D01*
X104439456Y-31278904D01*
X104456014Y-31292798D01*
X104597201Y-31433985D01*
X104611095Y-31450543D01*
X104725630Y-31614116D01*
X104736437Y-31632834D01*
X104820824Y-31813801D01*
X104828217Y-31834112D01*
X104879898Y-32026988D01*
X104883651Y-32048274D01*
X104901764Y-32255299D01*
X104902000Y-32260705D01*
X104902000Y-33388900D01*
X104901701Y-33394981D01*
X104878794Y-33627557D01*
X104874052Y-33651398D01*
X104808871Y-33866272D01*
X104799568Y-33888730D01*
X104693723Y-34086751D01*
X104680218Y-34106963D01*
X104531957Y-34287620D01*
X104527878Y-34292120D01*
X104027175Y-34792824D01*
X103091328Y-35728670D01*
X103091322Y-35728677D01*
X103091319Y-35728680D01*
X102870000Y-35950000D01*
X102870000Y-36262589D01*
X102869603Y-36264994D01*
X102850986Y-36358587D01*
X102832471Y-36403286D01*
X102792027Y-36463815D01*
X102757815Y-36498027D01*
X102697286Y-36538471D01*
X102652588Y-36556986D01*
X102617274Y-36564010D01*
X102568979Y-36573617D01*
X102544789Y-36576000D01*
X92966706Y-36576000D01*
X92961304Y-36575764D01*
X92897000Y-36570138D01*
X92754274Y-36557651D01*
X92732988Y-36553898D01*
X92540112Y-36502217D01*
X92519801Y-36494824D01*
X92338834Y-36410437D01*
X92320116Y-36399630D01*
X92156543Y-36285095D01*
X92139985Y-36271201D01*
X91998798Y-36130014D01*
X91984904Y-36113456D01*
X91870369Y-35949883D01*
X91859562Y-35931165D01*
X91775175Y-35750198D01*
X91767782Y-35729887D01*
X91767456Y-35728670D01*
X91716099Y-35537004D01*
X91712348Y-35515724D01*
X91694236Y-35308700D01*
X91694000Y-35303294D01*
X91694000Y-32260705D01*
X91694236Y-32255299D01*
X91712348Y-32048275D01*
X91712349Y-32048274D01*
X91712348Y-32048270D01*
X91716099Y-32026996D01*
X91767783Y-31834107D01*
X91775175Y-31813801D01*
X91859562Y-31632834D01*
X91870369Y-31614116D01*
X91984904Y-31450543D01*
X91998792Y-31433991D01*
X92139991Y-31292792D01*
X92156543Y-31278904D01*
X92320116Y-31164369D01*
X92338831Y-31153563D01*
X92519803Y-31069174D01*
X92540107Y-31061783D01*
X92732996Y-31010099D01*
X92754270Y-31006348D01*
X92961304Y-30988235D01*
X92966706Y-30988000D01*
X103629294Y-30988000D01*
X103634695Y-30988235D01*
G37*
G04 #@! TD.AperFunction*
G04 #@! TA.AperFunction,Conductor*
G36*
X143387032Y-19812530D02*
G01*
X143498296Y-19827179D01*
X143529561Y-19835556D01*
X143621915Y-19873810D01*
X143649949Y-19889996D01*
X143729258Y-19950853D01*
X143752146Y-19973741D01*
X143813003Y-20053050D01*
X143829189Y-20081085D01*
X143867442Y-20173437D01*
X143875820Y-20204703D01*
X143890469Y-20315966D01*
X143891000Y-20324066D01*
X143891000Y-77470000D01*
X146680932Y-77470000D01*
X146689032Y-77470530D01*
X146800296Y-77485179D01*
X146831561Y-77493556D01*
X146923915Y-77531810D01*
X146951949Y-77547996D01*
X147031258Y-77608853D01*
X147054146Y-77631741D01*
X147115003Y-77711050D01*
X147131189Y-77739085D01*
X147169442Y-77831437D01*
X147177820Y-77862703D01*
X147192469Y-77973966D01*
X147193000Y-77982067D01*
X147193000Y-89657932D01*
X147192469Y-89666033D01*
X147177820Y-89777296D01*
X147169442Y-89808562D01*
X147131189Y-89900914D01*
X147115003Y-89928949D01*
X147054146Y-90008258D01*
X147031258Y-90031146D01*
X146951949Y-90092003D01*
X146923914Y-90108189D01*
X146831562Y-90146442D01*
X146800296Y-90154820D01*
X146702410Y-90167707D01*
X146689032Y-90169469D01*
X146680933Y-90170000D01*
X143891000Y-90170000D01*
X143891000Y-101473000D01*
X144039790Y-101621789D01*
X144039790Y-101621790D01*
X144039798Y-101621799D01*
X160633201Y-118215201D01*
X160782000Y-118364000D01*
X188253512Y-118364000D01*
X188261612Y-118364530D01*
X188372876Y-118379179D01*
X188404141Y-118387556D01*
X188496495Y-118425810D01*
X188524529Y-118441995D01*
X188613567Y-118510318D01*
X188619662Y-118515662D01*
X192634336Y-122530336D01*
X192639681Y-122536432D01*
X192708004Y-122625470D01*
X192724189Y-122653505D01*
X192762442Y-122745857D01*
X192770820Y-122777123D01*
X192785469Y-122888386D01*
X192786000Y-122896487D01*
X192786000Y-127293512D01*
X192785469Y-127301613D01*
X192770820Y-127412876D01*
X192762442Y-127444142D01*
X192724189Y-127536494D01*
X192708004Y-127564529D01*
X192639681Y-127653567D01*
X192634329Y-127659671D01*
X188619671Y-131674329D01*
X188613567Y-131679681D01*
X188524529Y-131748004D01*
X188496494Y-131764189D01*
X188404142Y-131802442D01*
X188372876Y-131810820D01*
X188274990Y-131823707D01*
X188261612Y-131825469D01*
X188253513Y-131826000D01*
X154900487Y-131826000D01*
X154892387Y-131825469D01*
X154876377Y-131823361D01*
X154781123Y-131810820D01*
X154749857Y-131802442D01*
X154657505Y-131764189D01*
X154629470Y-131748004D01*
X154540432Y-131679681D01*
X154534336Y-131674336D01*
X129056662Y-106196662D01*
X129051318Y-106190567D01*
X128982995Y-106101529D01*
X128966810Y-106073494D01*
X128928557Y-105981142D01*
X128920179Y-105949875D01*
X128905531Y-105838613D01*
X128905000Y-105830511D01*
X128905000Y-20324068D01*
X128905531Y-20315966D01*
X128920179Y-20204704D01*
X128928556Y-20173440D01*
X128966812Y-20081081D01*
X128982996Y-20053050D01*
X129043853Y-19973741D01*
X129066741Y-19950853D01*
X129146050Y-19889996D01*
X129174081Y-19873812D01*
X129266440Y-19835556D01*
X129297701Y-19827179D01*
X129408967Y-19812530D01*
X129417068Y-19812000D01*
X143378932Y-19812000D01*
X143387032Y-19812530D01*
G37*
G04 #@! TD.AperFunction*
G04 #@! TA.AperFunction,Conductor*
G36*
X100588032Y-24130530D02*
G01*
X100699296Y-24145179D01*
X100730561Y-24153556D01*
X100822915Y-24191810D01*
X100850949Y-24207996D01*
X100930258Y-24268853D01*
X100953146Y-24291741D01*
X101014003Y-24371050D01*
X101030189Y-24399085D01*
X101068442Y-24491437D01*
X101076820Y-24522703D01*
X101091469Y-24633966D01*
X101092000Y-24642067D01*
X101092000Y-27681932D01*
X101091469Y-27690033D01*
X101076820Y-27801296D01*
X101068442Y-27832562D01*
X101030189Y-27924914D01*
X101014003Y-27952949D01*
X100953146Y-28032258D01*
X100930258Y-28055146D01*
X100850949Y-28116003D01*
X100822914Y-28132189D01*
X100730562Y-28170442D01*
X100699296Y-28178820D01*
X100601410Y-28191707D01*
X100588032Y-28193469D01*
X100579933Y-28194000D01*
X92456000Y-28194000D01*
X92307213Y-28342786D01*
X92307209Y-28342790D01*
X92307201Y-28342797D01*
X89810797Y-30839201D01*
X89810790Y-30839209D01*
X89810786Y-30839213D01*
X89662000Y-30988000D01*
X89662000Y-31198412D01*
X89662000Y-35301932D01*
X89661469Y-35310033D01*
X89646820Y-35421296D01*
X89638442Y-35452562D01*
X89600189Y-35544914D01*
X89584003Y-35572949D01*
X89523146Y-35652258D01*
X89500258Y-35675146D01*
X89420949Y-35736003D01*
X89392914Y-35752189D01*
X89300562Y-35790442D01*
X89269296Y-35798820D01*
X89171410Y-35811707D01*
X89158032Y-35813469D01*
X89149933Y-35814000D01*
X86364067Y-35814000D01*
X86355967Y-35813469D01*
X86339957Y-35811361D01*
X86244703Y-35798820D01*
X86213437Y-35790442D01*
X86121085Y-35752189D01*
X86093050Y-35736003D01*
X86013741Y-35675146D01*
X85990853Y-35652258D01*
X85929996Y-35572949D01*
X85913810Y-35544914D01*
X85875557Y-35452562D01*
X85867179Y-35421295D01*
X85852531Y-35310033D01*
X85852000Y-35301931D01*
X85852000Y-30948488D01*
X85852531Y-30940386D01*
X85867179Y-30829121D01*
X85875556Y-30797860D01*
X85913812Y-30705501D01*
X85929992Y-30677474D01*
X85998318Y-30588432D01*
X86003655Y-30582344D01*
X92304344Y-24281655D01*
X92310432Y-24276318D01*
X92334097Y-24258158D01*
X92399474Y-24207992D01*
X92427501Y-24191812D01*
X92519860Y-24153556D01*
X92551121Y-24145179D01*
X92662387Y-24130530D01*
X92670488Y-24130000D01*
X100579932Y-24130000D01*
X100588032Y-24130530D01*
G37*
G04 #@! TD.AperFunction*
G04 #@! TA.AperFunction,Conductor*
G36*
X117967981Y-26416299D02*
G01*
X118046849Y-26424066D01*
X118200564Y-26439206D01*
X118224392Y-26443945D01*
X118439275Y-26509129D01*
X118461727Y-26518429D01*
X118659751Y-26624276D01*
X118679963Y-26637781D01*
X118860620Y-26786042D01*
X118865131Y-26790130D01*
X120405020Y-28330021D01*
X120405026Y-28330026D01*
X120777000Y-28702000D01*
X125219294Y-28702000D01*
X125224695Y-28702235D01*
X125431727Y-28720348D01*
X125453004Y-28724099D01*
X125645888Y-28775782D01*
X125666198Y-28783175D01*
X125847165Y-28867562D01*
X125865883Y-28878369D01*
X126029456Y-28992904D01*
X126046014Y-29006798D01*
X126187201Y-29147985D01*
X126201095Y-29164543D01*
X126315630Y-29328116D01*
X126326437Y-29346834D01*
X126410824Y-29527801D01*
X126418217Y-29548112D01*
X126469898Y-29740988D01*
X126473651Y-29762274D01*
X126491764Y-29969299D01*
X126492000Y-29974705D01*
X126492000Y-33525294D01*
X126491764Y-33530700D01*
X126473651Y-33737725D01*
X126469898Y-33759011D01*
X126418217Y-33951887D01*
X126410824Y-33972198D01*
X126326437Y-34153165D01*
X126315630Y-34171883D01*
X126201095Y-34335456D01*
X126187201Y-34352014D01*
X126046014Y-34493201D01*
X126029456Y-34507095D01*
X125865883Y-34621630D01*
X125847165Y-34632437D01*
X125666198Y-34716824D01*
X125645887Y-34724217D01*
X125453011Y-34775898D01*
X125431725Y-34779651D01*
X125281864Y-34792762D01*
X125224695Y-34797764D01*
X125219294Y-34798000D01*
X109622100Y-34798000D01*
X109616019Y-34797701D01*
X109383442Y-34774794D01*
X109359601Y-34770052D01*
X109144727Y-34704871D01*
X109122269Y-34695568D01*
X108924248Y-34589723D01*
X108904036Y-34576218D01*
X108723379Y-34427957D01*
X108718878Y-34423878D01*
X107943120Y-33648120D01*
X107939042Y-33643620D01*
X107846371Y-33530700D01*
X107790780Y-33462961D01*
X107777276Y-33442751D01*
X107671431Y-33244730D01*
X107662128Y-33222272D01*
X107596945Y-33007392D01*
X107592206Y-32983564D01*
X107569299Y-32750981D01*
X107569000Y-32744900D01*
X107569000Y-27688705D01*
X107569236Y-27683299D01*
X107587348Y-27476275D01*
X107591099Y-27454996D01*
X107642783Y-27262107D01*
X107650175Y-27241801D01*
X107734562Y-27060834D01*
X107745369Y-27042116D01*
X107859904Y-26878543D01*
X107873792Y-26861991D01*
X108014991Y-26720792D01*
X108031543Y-26706904D01*
X108195116Y-26592369D01*
X108213831Y-26581563D01*
X108394803Y-26497174D01*
X108415107Y-26489783D01*
X108607996Y-26438099D01*
X108629270Y-26434348D01*
X108836304Y-26416235D01*
X108841706Y-26416000D01*
X117961900Y-26416000D01*
X117967981Y-26416299D01*
G37*
G04 #@! TD.AperFunction*
G04 #@! TA.AperFunction,Conductor*
G36*
X208962612Y-20447530D02*
G01*
X209073876Y-20462179D01*
X209105141Y-20470556D01*
X209197495Y-20508810D01*
X209225529Y-20524995D01*
X209314567Y-20593318D01*
X209320662Y-20598662D01*
X221590336Y-32868336D01*
X221595681Y-32874432D01*
X221664004Y-32963470D01*
X221680189Y-32991505D01*
X221718442Y-33083857D01*
X221726820Y-33115123D01*
X221741469Y-33226386D01*
X221742000Y-33234487D01*
X221742000Y-48807512D01*
X221741469Y-48815613D01*
X221726820Y-48926876D01*
X221718442Y-48958142D01*
X221680189Y-49050494D01*
X221664004Y-49078529D01*
X221595681Y-49167567D01*
X221590329Y-49173671D01*
X219099671Y-51664329D01*
X219093567Y-51669681D01*
X219004529Y-51738004D01*
X218976494Y-51754189D01*
X218884142Y-51792442D01*
X218852876Y-51800820D01*
X218754990Y-51813707D01*
X218741612Y-51815469D01*
X218733513Y-51816000D01*
X208534000Y-51816000D01*
X208534000Y-41402000D01*
X208385209Y-41253209D01*
X208385201Y-41253200D01*
X202840799Y-35708797D01*
X202840790Y-35708790D01*
X202840789Y-35708790D01*
X202692000Y-35560000D01*
X202481587Y-35560000D01*
X190417454Y-35560000D01*
X190388508Y-35556574D01*
X190349322Y-35547166D01*
X190232898Y-35519215D01*
X189975000Y-35498918D01*
X189717101Y-35519215D01*
X189592855Y-35549044D01*
X189561491Y-35556574D01*
X189532546Y-35560000D01*
X179280412Y-35560000D01*
X179070000Y-35560000D01*
X178921213Y-35708786D01*
X178921209Y-35708790D01*
X178921201Y-35708797D01*
X172868798Y-41761201D01*
X172868790Y-41761209D01*
X172868786Y-41761213D01*
X172720000Y-41910000D01*
X172720000Y-88900000D01*
X172868790Y-89048790D01*
X172868798Y-89048799D01*
X179937200Y-96117201D01*
X179937209Y-96117209D01*
X180086000Y-96266000D01*
X185586512Y-96266000D01*
X185594612Y-96266530D01*
X185705876Y-96281179D01*
X185737141Y-96289556D01*
X185829495Y-96327810D01*
X185857529Y-96343995D01*
X185946567Y-96412318D01*
X185952662Y-96417662D01*
X192253336Y-102718336D01*
X192258681Y-102724432D01*
X192327004Y-102813470D01*
X192343189Y-102841505D01*
X192381442Y-102933857D01*
X192389820Y-102965123D01*
X192404469Y-103076386D01*
X192405000Y-103084487D01*
X192405000Y-109469932D01*
X192404469Y-109478033D01*
X192389820Y-109589296D01*
X192381442Y-109620562D01*
X192343189Y-109712914D01*
X192327003Y-109740949D01*
X192266146Y-109820258D01*
X192243258Y-109843146D01*
X192163949Y-109904003D01*
X192135914Y-109920189D01*
X192043562Y-109958442D01*
X192012296Y-109966820D01*
X191914410Y-109979707D01*
X191901032Y-109981469D01*
X191892933Y-109982000D01*
X171918487Y-109982000D01*
X171910387Y-109981469D01*
X171894377Y-109979361D01*
X171799123Y-109966820D01*
X171767857Y-109958442D01*
X171675505Y-109920189D01*
X171647470Y-109904004D01*
X171558432Y-109835681D01*
X171552336Y-109830336D01*
X156869662Y-95147662D01*
X156864318Y-95141567D01*
X156795995Y-95052529D01*
X156779810Y-95024494D01*
X156741557Y-94932142D01*
X156733179Y-94900875D01*
X156718531Y-94789613D01*
X156718000Y-94781511D01*
X156718000Y-90932000D01*
X156718000Y-90424000D01*
X156210007Y-90424000D01*
X154436067Y-90424000D01*
X154427967Y-90423469D01*
X154411957Y-90421361D01*
X154316703Y-90408820D01*
X154285437Y-90400442D01*
X154193085Y-90362189D01*
X154165050Y-90346003D01*
X154085741Y-90285146D01*
X154062853Y-90262258D01*
X154001996Y-90182949D01*
X153985810Y-90154914D01*
X153947557Y-90062562D01*
X153939179Y-90031295D01*
X153924531Y-89920033D01*
X153924000Y-89911931D01*
X153924000Y-77982068D01*
X153924531Y-77973966D01*
X153939179Y-77862704D01*
X153947556Y-77831440D01*
X153985812Y-77739081D01*
X154001996Y-77711050D01*
X154062853Y-77631741D01*
X154085741Y-77608853D01*
X154165050Y-77547996D01*
X154193081Y-77531812D01*
X154285440Y-77493556D01*
X154316701Y-77485179D01*
X154427967Y-77470530D01*
X154436068Y-77470000D01*
X156209993Y-77470000D01*
X156210000Y-77470000D01*
X156718000Y-77470000D01*
X156718000Y-35393488D01*
X156718531Y-35385386D01*
X156733179Y-35274124D01*
X156741556Y-35242860D01*
X156779812Y-35150501D01*
X156795992Y-35122474D01*
X156864318Y-35033432D01*
X156869655Y-35027344D01*
X158933238Y-32963761D01*
X188331500Y-32963761D01*
X188337611Y-33041412D01*
X188337611Y-33041413D01*
X188386005Y-33222022D01*
X188470890Y-33388622D01*
X188519533Y-33448691D01*
X188588564Y-33533936D01*
X188693830Y-33619179D01*
X188733877Y-33651609D01*
X188798908Y-33684743D01*
X188900476Y-33736494D01*
X189081085Y-33784888D01*
X189112147Y-33787332D01*
X189158739Y-33791000D01*
X189158742Y-33791000D01*
X190791261Y-33791000D01*
X190830086Y-33787944D01*
X190868915Y-33784888D01*
X191049524Y-33736494D01*
X191163427Y-33678457D01*
X191216122Y-33651609D01*
X191216123Y-33651607D01*
X191216125Y-33651607D01*
X191361436Y-33533936D01*
X191479107Y-33388625D01*
X191563994Y-33222024D01*
X191612388Y-33041415D01*
X191618500Y-32963758D01*
X191618500Y-31331242D01*
X191612388Y-31253585D01*
X191563994Y-31072976D01*
X191534975Y-31016024D01*
X191479109Y-30906377D01*
X191446679Y-30866330D01*
X191361436Y-30761064D01*
X191276191Y-30692033D01*
X191216122Y-30643390D01*
X191049522Y-30558505D01*
X190868912Y-30510111D01*
X190791261Y-30504000D01*
X190791258Y-30504000D01*
X189158742Y-30504000D01*
X189158739Y-30504000D01*
X189081087Y-30510111D01*
X189081086Y-30510111D01*
X188900477Y-30558505D01*
X188733877Y-30643390D01*
X188588564Y-30761064D01*
X188470890Y-30906377D01*
X188386005Y-31072977D01*
X188337611Y-31253586D01*
X188337611Y-31253587D01*
X188331500Y-31331239D01*
X188331500Y-32963761D01*
X158933238Y-32963761D01*
X171298344Y-20598655D01*
X171304432Y-20593318D01*
X171328097Y-20575158D01*
X171393474Y-20524992D01*
X171421501Y-20508812D01*
X171513860Y-20470556D01*
X171545121Y-20462179D01*
X171656387Y-20447530D01*
X171664488Y-20447000D01*
X208954512Y-20447000D01*
X208962612Y-20447530D01*
G37*
G04 #@! TD.AperFunction*
G04 #@! TA.AperFunction,Conductor*
G36*
X212749364Y-52323305D02*
G01*
X212749364Y-52323307D01*
X212749364Y-52323308D01*
X212725285Y-70020651D01*
X212724762Y-70028611D01*
X212710469Y-70137958D01*
X212702335Y-70168710D01*
X212665239Y-70259678D01*
X212649549Y-70287348D01*
X212583299Y-70375509D01*
X212578107Y-70381564D01*
X208788622Y-74265787D01*
X208782484Y-74271294D01*
X208692780Y-74341605D01*
X208664444Y-74358277D01*
X208570898Y-74397703D01*
X208539178Y-74406343D01*
X208426210Y-74421452D01*
X208417981Y-74422000D01*
X195076067Y-74422000D01*
X195067967Y-74421469D01*
X195051957Y-74419361D01*
X194956703Y-74406820D01*
X194925437Y-74398442D01*
X194833085Y-74360189D01*
X194805050Y-74344003D01*
X194725741Y-74283146D01*
X194702853Y-74260258D01*
X194641996Y-74180949D01*
X194625810Y-74152914D01*
X194587557Y-74060562D01*
X194579179Y-74029295D01*
X194564531Y-73918033D01*
X194564000Y-73909931D01*
X194564000Y-72013068D01*
X194564531Y-72004966D01*
X194579179Y-71893704D01*
X194587556Y-71862440D01*
X194625812Y-71770081D01*
X194641996Y-71742050D01*
X194702853Y-71662741D01*
X194725741Y-71639853D01*
X194805050Y-71578996D01*
X194833081Y-71562812D01*
X194925440Y-71524556D01*
X194956701Y-71516179D01*
X195067967Y-71501530D01*
X195076068Y-71501000D01*
X204767573Y-71501000D01*
X204767580Y-71501000D01*
X204978000Y-71501000D01*
X205126794Y-71352205D01*
X205126799Y-71352202D01*
X206861202Y-69617798D01*
X207010000Y-69469000D01*
X207010000Y-67268921D01*
X207010530Y-67260831D01*
X207025140Y-67149707D01*
X207033495Y-67118480D01*
X207071662Y-67026208D01*
X207087805Y-66998207D01*
X207155966Y-66909225D01*
X207161307Y-66903125D01*
X207313318Y-66750811D01*
X207319388Y-66745478D01*
X207408500Y-66676982D01*
X207436539Y-66660769D01*
X207529006Y-66622414D01*
X207560302Y-66614017D01*
X207622768Y-66605783D01*
X207671709Y-66599332D01*
X207679821Y-66598800D01*
X208983845Y-66598800D01*
X208983852Y-66598800D01*
X209194400Y-66598800D01*
X209380760Y-66412279D01*
X209425142Y-66383744D01*
X209446204Y-66375889D01*
X209563261Y-66288261D01*
X209650889Y-66171204D01*
X209701989Y-66034201D01*
X209705591Y-66000692D01*
X209708499Y-65973654D01*
X209708500Y-65973637D01*
X209708500Y-65276362D01*
X209708499Y-65276345D01*
X209705157Y-65245270D01*
X209701989Y-65215799D01*
X209701987Y-65215795D01*
X209701987Y-65215792D01*
X209650891Y-65078801D01*
X209650890Y-65078800D01*
X209650889Y-65078796D01*
X209647529Y-65074307D01*
X209623114Y-65008842D01*
X209637967Y-64940570D01*
X209647528Y-64925692D01*
X209650889Y-64921204D01*
X209701989Y-64784201D01*
X209705591Y-64750692D01*
X209708499Y-64723654D01*
X209708500Y-64723637D01*
X209708500Y-64026362D01*
X209708499Y-64026345D01*
X209702755Y-63972926D01*
X209701989Y-63965799D01*
X209650889Y-63828796D01*
X209650887Y-63828793D01*
X209598236Y-63758459D01*
X209598146Y-63658774D01*
X209292689Y-63347600D01*
X209079504Y-63347600D01*
X207877667Y-63347600D01*
X207869567Y-63347069D01*
X207853557Y-63344961D01*
X207758303Y-63332420D01*
X207727037Y-63324042D01*
X207634685Y-63285789D01*
X207606650Y-63269603D01*
X207527341Y-63208746D01*
X207504453Y-63185858D01*
X207443596Y-63106549D01*
X207427410Y-63078514D01*
X207389157Y-62986162D01*
X207380779Y-62954896D01*
X207366129Y-62843618D01*
X207365600Y-62835547D01*
X207365600Y-61072871D01*
X207366128Y-61064802D01*
X207380779Y-60953519D01*
X207389156Y-60922260D01*
X207427412Y-60829901D01*
X207443592Y-60801874D01*
X207511918Y-60712832D01*
X207517263Y-60706736D01*
X208385210Y-59838790D01*
X208534000Y-59690000D01*
X208534000Y-51816000D01*
X212750054Y-51816000D01*
X212749364Y-52323305D01*
G37*
G04 #@! TD.AperFunction*
G04 #@! TA.AperFunction,Conductor*
G36*
X84330695Y-22098235D02*
G01*
X84537727Y-22116348D01*
X84559004Y-22120099D01*
X84751888Y-22171782D01*
X84772198Y-22179175D01*
X84953165Y-22263562D01*
X84971883Y-22274369D01*
X85135456Y-22388904D01*
X85152014Y-22402798D01*
X85293201Y-22543985D01*
X85307095Y-22560543D01*
X85421630Y-22724116D01*
X85432437Y-22742834D01*
X85516824Y-22923801D01*
X85524217Y-22944112D01*
X85575898Y-23136988D01*
X85579651Y-23158274D01*
X85593845Y-23320513D01*
X85597764Y-23365299D01*
X85598000Y-23370705D01*
X85598000Y-26902900D01*
X85597701Y-26908981D01*
X85574794Y-27141557D01*
X85570052Y-27165398D01*
X85504871Y-27380272D01*
X85495568Y-27402730D01*
X85389723Y-27600751D01*
X85376218Y-27620963D01*
X85311107Y-27700300D01*
X85227947Y-27801630D01*
X85223888Y-27806109D01*
X83831073Y-29198925D01*
X82565412Y-30464586D01*
X82565403Y-30464596D01*
X82296000Y-30734000D01*
X82296000Y-31114578D01*
X82295713Y-31116814D01*
X82280425Y-31213337D01*
X82268436Y-31250235D01*
X82232151Y-31321447D01*
X82209348Y-31352832D01*
X82152832Y-31409348D01*
X82121447Y-31432151D01*
X82050235Y-31468436D01*
X82013337Y-31480425D01*
X81949975Y-31490460D01*
X81924640Y-31494473D01*
X81905244Y-31496000D01*
X76202706Y-31496000D01*
X76197304Y-31495764D01*
X76133000Y-31490138D01*
X75990274Y-31477651D01*
X75968988Y-31473898D01*
X75776112Y-31422217D01*
X75755801Y-31414824D01*
X75574834Y-31330437D01*
X75556116Y-31319630D01*
X75392543Y-31205095D01*
X75375985Y-31191201D01*
X75234798Y-31050014D01*
X75220904Y-31033456D01*
X75106369Y-30869883D01*
X75095562Y-30851165D01*
X75011175Y-30670198D01*
X75003782Y-30649887D01*
X74954131Y-30464586D01*
X74952099Y-30457004D01*
X74948348Y-30435724D01*
X74930236Y-30228700D01*
X74930000Y-30223294D01*
X74930000Y-24003371D01*
X74930267Y-23997626D01*
X74950717Y-23777755D01*
X74954953Y-23755182D01*
X75013224Y-23551180D01*
X75021550Y-23529775D01*
X75116451Y-23340006D01*
X75128571Y-23320521D01*
X75262086Y-23144600D01*
X75265756Y-23140205D01*
X75455113Y-22933634D01*
X75841873Y-22511713D01*
X75845471Y-22508100D01*
X75990482Y-22374098D01*
X76006652Y-22361468D01*
X76165312Y-22257475D01*
X76183334Y-22247693D01*
X76356981Y-22171304D01*
X76376378Y-22164627D01*
X76560238Y-22117944D01*
X76580483Y-22114557D01*
X76777225Y-22098212D01*
X76782354Y-22098000D01*
X84325294Y-22098000D01*
X84330695Y-22098235D01*
G37*
G04 #@! TD.AperFunction*
M02*
