G04 #@! TF.GenerationSoftware,KiCad,Pcbnew,7.0.6*
G04 #@! TF.CreationDate,2023-12-26T17:11:54-08:00*
G04 #@! TF.ProjectId,midplate,6d696470-6c61-4746-952e-6b696361645f,rev?*
G04 #@! TF.SameCoordinates,Original*
G04 #@! TF.FileFunction,Copper,L1,Top*
G04 #@! TF.FilePolarity,Positive*
%FSLAX46Y46*%
G04 Gerber Fmt 4.6, Leading zero omitted, Abs format (unit mm)*
G04 Created by KiCad (PCBNEW 7.0.6) date 2023-12-26 17:11:54*
%MOMM*%
%LPD*%
G01*
G04 APERTURE LIST*
G04 Aperture macros list*
%AMRoundRect*
0 Rectangle with rounded corners*
0 $1 Rounding radius*
0 $2 $3 $4 $5 $6 $7 $8 $9 X,Y pos of 4 corners*
0 Add a 4 corners polygon primitive as box body*
4,1,4,$2,$3,$4,$5,$6,$7,$8,$9,$2,$3,0*
0 Add four circle primitives for the rounded corners*
1,1,$1+$1,$2,$3*
1,1,$1+$1,$4,$5*
1,1,$1+$1,$6,$7*
1,1,$1+$1,$8,$9*
0 Add four rect primitives between the rounded corners*
20,1,$1+$1,$2,$3,$4,$5,0*
20,1,$1+$1,$4,$5,$6,$7,0*
20,1,$1+$1,$6,$7,$8,$9,0*
20,1,$1+$1,$8,$9,$2,$3,0*%
G04 Aperture macros list end*
G04 #@! TA.AperFunction,ComponentPad*
%ADD10R,2.775000X2.775000*%
G04 #@! TD*
G04 #@! TA.AperFunction,ComponentPad*
%ADD11C,2.775000*%
G04 #@! TD*
G04 #@! TA.AperFunction,ComponentPad*
%ADD12C,3.700000*%
G04 #@! TD*
G04 #@! TA.AperFunction,ComponentPad*
%ADD13C,6.200000*%
G04 #@! TD*
G04 #@! TA.AperFunction,ComponentPad*
%ADD14C,4.700000*%
G04 #@! TD*
G04 #@! TA.AperFunction,SMDPad,CuDef*
%ADD15R,2.489200X0.939800*%
G04 #@! TD*
G04 #@! TA.AperFunction,SMDPad,CuDef*
%ADD16R,6.934200X6.781800*%
G04 #@! TD*
G04 #@! TA.AperFunction,SMDPad,CuDef*
%ADD17R,1.700000X0.600000*%
G04 #@! TD*
G04 #@! TA.AperFunction,SMDPad,CuDef*
%ADD18R,2.800000X1.000000*%
G04 #@! TD*
G04 #@! TA.AperFunction,SMDPad,CuDef*
%ADD19RoundRect,0.200000X-0.200000X-0.275000X0.200000X-0.275000X0.200000X0.275000X-0.200000X0.275000X0*%
G04 #@! TD*
G04 #@! TA.AperFunction,ComponentPad*
%ADD20R,1.700000X1.700000*%
G04 #@! TD*
G04 #@! TA.AperFunction,ComponentPad*
%ADD21O,1.700000X1.700000*%
G04 #@! TD*
G04 #@! TA.AperFunction,SMDPad,CuDef*
%ADD22RoundRect,0.250000X0.900000X-1.000000X0.900000X1.000000X-0.900000X1.000000X-0.900000X-1.000000X0*%
G04 #@! TD*
G04 #@! TA.AperFunction,SMDPad,CuDef*
%ADD23R,0.939800X2.489200*%
G04 #@! TD*
G04 #@! TA.AperFunction,SMDPad,CuDef*
%ADD24R,6.781800X6.934200*%
G04 #@! TD*
G04 #@! TA.AperFunction,SMDPad,CuDef*
%ADD25RoundRect,0.200000X-0.275000X0.200000X-0.275000X-0.200000X0.275000X-0.200000X0.275000X0.200000X0*%
G04 #@! TD*
G04 #@! TA.AperFunction,ComponentPad*
%ADD26C,2.780000*%
G04 #@! TD*
G04 #@! TA.AperFunction,ComponentPad*
%ADD27R,1.508000X1.508000*%
G04 #@! TD*
G04 #@! TA.AperFunction,ComponentPad*
%ADD28C,1.508000*%
G04 #@! TD*
G04 #@! TA.AperFunction,ViaPad*
%ADD29C,0.700000*%
G04 #@! TD*
G04 #@! TA.AperFunction,ViaPad*
%ADD30C,0.500000*%
G04 #@! TD*
G04 #@! TA.AperFunction,Conductor*
%ADD31C,0.254000*%
G04 #@! TD*
G04 #@! TA.AperFunction,Conductor*
%ADD32C,0.200000*%
G04 #@! TD*
G04 #@! TA.AperFunction,Conductor*
%ADD33C,0.177800*%
G04 #@! TD*
G04 APERTURE END LIST*
D10*
X200039500Y-32258000D03*
D11*
X200039500Y-39258000D03*
D12*
X86796621Y-49459321D03*
X79596621Y-49459321D03*
D13*
X101600000Y-108484000D03*
D14*
X172611096Y-16532860D03*
X215465590Y-109216005D03*
X63532842Y-59880142D03*
X202611067Y-125968345D03*
D13*
X159600900Y-16532860D03*
D14*
X93526349Y-97476702D03*
X93526349Y-67516719D03*
X197574411Y-97476702D03*
D15*
X103632000Y-26613749D03*
D16*
X110045500Y-28903750D03*
D15*
X103632000Y-31193751D03*
D14*
X62863132Y-92880142D03*
D17*
X191310000Y-69083400D03*
X191310000Y-67833400D03*
X191310000Y-66583400D03*
X191310000Y-65333400D03*
D18*
X187960000Y-63483400D03*
X187960000Y-70933400D03*
D14*
X227297158Y-75880142D03*
X227966868Y-92880142D03*
X214157936Y-17096280D03*
X166350214Y-146903559D03*
D13*
X101600000Y-16532860D03*
D14*
X202611096Y-16532860D03*
X197574411Y-84161566D03*
X63532842Y-83880142D03*
X227297158Y-67880142D03*
D19*
X192342000Y-43180000D03*
X193992000Y-43180000D03*
D14*
X227297158Y-59880142D03*
D13*
X189230000Y-125984000D03*
D12*
X211408697Y-49459321D03*
X204208697Y-49459321D03*
D14*
X145415000Y-149659732D03*
D20*
X196469000Y-42926000D03*
D21*
X199009000Y-42926000D03*
D13*
X101600000Y-65537080D03*
D14*
X219473333Y-84161566D03*
D22*
X97790000Y-32122000D03*
X97790000Y-27822000D03*
D23*
X87827749Y-32140000D03*
D24*
X90117750Y-25726500D03*
D23*
X92407751Y-32140000D03*
D13*
X101600000Y-125984000D03*
X101600000Y-117234000D03*
D14*
X76672065Y-17096280D03*
X63532842Y-75880142D03*
D25*
X102235000Y-36132000D03*
X102235000Y-37782000D03*
D14*
X104971273Y-138822868D03*
D26*
X77040000Y-39504000D03*
X80440000Y-39504000D03*
X77040000Y-29584000D03*
X80440000Y-29584000D03*
D14*
X93526349Y-84161566D03*
X88218905Y-16532860D03*
D13*
X189230000Y-86614000D03*
D14*
X71576849Y-67516719D03*
D13*
X189230000Y-76200000D03*
D14*
X71576849Y-97476702D03*
X219473333Y-97476702D03*
X227297158Y-83880142D03*
X75364410Y-109216005D03*
X185858727Y-138822868D03*
D19*
X104331000Y-24384000D03*
X105981000Y-24384000D03*
D14*
X124479786Y-146903559D03*
X118218905Y-16532860D03*
X197574411Y-67516719D03*
X71576849Y-84161566D03*
X219473333Y-67516719D03*
D27*
X189975000Y-32147500D03*
D28*
X189975000Y-34647500D03*
X189975000Y-37147500D03*
X189975000Y-39647500D03*
D14*
X88218933Y-125968345D03*
D13*
X189230000Y-104184000D03*
D14*
X63532842Y-67880142D03*
D13*
X101600000Y-76200000D03*
D29*
X129413000Y-26670000D03*
X131953000Y-24130000D03*
X130683000Y-24130000D03*
X135763000Y-25400000D03*
X131953000Y-26670000D03*
X134493000Y-24130000D03*
X129413000Y-29210000D03*
X133223000Y-25400000D03*
X133223000Y-26670000D03*
X130683000Y-27940000D03*
X129413000Y-24130000D03*
X135763000Y-30480000D03*
X133223000Y-24130000D03*
X135763000Y-29210000D03*
X131953000Y-27940000D03*
X134493000Y-26670000D03*
X129413000Y-27940000D03*
X131953000Y-29210000D03*
X129413000Y-25400000D03*
X130683000Y-26670000D03*
X131953000Y-25400000D03*
X133223000Y-27940000D03*
X130683000Y-25400000D03*
X134493000Y-27940000D03*
X134493000Y-29210000D03*
X134493000Y-30480000D03*
X133223000Y-29210000D03*
X131953000Y-30480000D03*
X130683000Y-29210000D03*
X135763000Y-26670000D03*
X129413000Y-30480000D03*
X134493000Y-25400000D03*
X135763000Y-24130000D03*
X130683000Y-30480000D03*
X135763000Y-27940000D03*
X133223000Y-30480000D03*
X103378000Y-38989000D03*
X106553000Y-22987000D03*
D30*
X194970400Y-73304400D03*
X194970400Y-74066400D03*
X194970400Y-72542400D03*
X195732400Y-71780400D03*
X195732400Y-72542400D03*
X194970400Y-71780400D03*
X195732400Y-73304400D03*
X195732400Y-74066400D03*
D29*
X131953000Y-34290000D03*
X140843000Y-30480000D03*
X142113000Y-33020000D03*
X137033000Y-34290000D03*
X138303000Y-31750000D03*
X142113000Y-29210000D03*
X142113000Y-34290000D03*
X139573000Y-27940000D03*
X139573000Y-31750000D03*
X135763000Y-33020000D03*
X139573000Y-34290000D03*
X138303000Y-25400000D03*
X133223000Y-22860000D03*
X143383000Y-33020000D03*
X143383000Y-31750000D03*
X130683000Y-33020000D03*
X143383000Y-24130000D03*
X137033000Y-33020000D03*
X134493000Y-22860000D03*
X142113000Y-27940000D03*
X138303000Y-22860000D03*
X137033000Y-31750000D03*
X138303000Y-26670000D03*
X129413000Y-22860000D03*
X143383000Y-27940000D03*
X138303000Y-30480000D03*
X131953000Y-33020000D03*
X135763000Y-22860000D03*
X140843000Y-29210000D03*
X130683000Y-31750000D03*
X137033000Y-27940000D03*
X142113000Y-25400000D03*
X129413000Y-31750000D03*
X137033000Y-30480000D03*
X131953000Y-22860000D03*
X139573000Y-29210000D03*
X143383000Y-26670000D03*
X130683000Y-34290000D03*
X138303000Y-29210000D03*
X137033000Y-25400000D03*
X133223000Y-31750000D03*
X140843000Y-27940000D03*
X142113000Y-26670000D03*
X139573000Y-30480000D03*
X142113000Y-31750000D03*
X129413000Y-34290000D03*
X142113000Y-30480000D03*
X139573000Y-25400000D03*
X140843000Y-22860000D03*
X138303000Y-34290000D03*
X133223000Y-33020000D03*
X131953000Y-31750000D03*
X139573000Y-22860000D03*
X135763000Y-34290000D03*
X134493000Y-34290000D03*
X137033000Y-29210000D03*
X134493000Y-33020000D03*
X139573000Y-24130000D03*
X143383000Y-25400000D03*
X142113000Y-22860000D03*
X130683000Y-22860000D03*
X138303000Y-33020000D03*
X134493000Y-31750000D03*
X143383000Y-34290000D03*
X137033000Y-24130000D03*
X139573000Y-26670000D03*
X142113000Y-24130000D03*
X138303000Y-27940000D03*
X140843000Y-26670000D03*
X140843000Y-31750000D03*
X140843000Y-34290000D03*
X137033000Y-26670000D03*
X137033000Y-22860000D03*
X140843000Y-33020000D03*
X139573000Y-33020000D03*
X140843000Y-24130000D03*
X133223000Y-34290000D03*
X140843000Y-25400000D03*
X129413000Y-33020000D03*
X135763000Y-31750000D03*
X143383000Y-29210000D03*
X143383000Y-22860000D03*
X138303000Y-24130000D03*
X143383000Y-30480000D03*
X94996000Y-34426000D03*
X93980000Y-33410000D03*
X100584000Y-34544000D03*
X101600000Y-33528000D03*
X102616000Y-33528000D03*
X94996000Y-33410000D03*
X92964000Y-34426000D03*
X100584000Y-33528000D03*
X91948000Y-34426000D03*
X100584000Y-31496000D03*
X102616000Y-34544000D03*
X101600000Y-32512000D03*
X94996000Y-31378000D03*
X100584000Y-32512000D03*
X93980000Y-34426000D03*
X101600000Y-31496000D03*
X103632000Y-34544000D03*
X93980000Y-32394000D03*
X101600000Y-34544000D03*
X93980000Y-31378000D03*
X94996000Y-32394000D03*
X103632000Y-33528000D03*
X96520000Y-24638000D03*
X88138000Y-34290000D03*
X89154000Y-35306000D03*
X100584000Y-27686000D03*
X97536000Y-24638000D03*
X98552000Y-25654000D03*
X86360000Y-32258000D03*
X87122000Y-34290000D03*
X98552000Y-24638000D03*
X86360000Y-31242000D03*
X87122000Y-35306000D03*
X89154000Y-33274000D03*
X100584000Y-24638000D03*
X97536000Y-25654000D03*
X96520000Y-25654000D03*
X88138000Y-35306000D03*
X99568000Y-25654000D03*
X100584000Y-26670000D03*
X89154000Y-34290000D03*
X89154000Y-31242000D03*
X86360000Y-33274000D03*
X100584000Y-25654000D03*
X99568000Y-24638000D03*
X89154000Y-32258000D03*
X84074000Y-26806000D03*
X84074000Y-23758000D03*
X85090000Y-26806000D03*
X85090000Y-22742000D03*
X83058000Y-25781000D03*
X85090000Y-25790000D03*
X83058000Y-24765000D03*
X85090000Y-23758000D03*
X83058000Y-27813000D03*
X84074000Y-24774000D03*
X85090000Y-24774000D03*
X83058000Y-22733000D03*
X84074000Y-27822000D03*
X83058000Y-23749000D03*
X83058000Y-26797000D03*
X84074000Y-25790000D03*
X84074000Y-22742000D03*
D30*
X184101952Y-66869500D03*
X195588700Y-41275000D03*
X194809300Y-41275000D03*
X184101952Y-67648900D03*
D31*
X191389000Y-41275000D02*
X193406000Y-39258000D01*
X187325000Y-41275000D02*
X191389000Y-41275000D01*
X185039000Y-38989000D02*
X187325000Y-41275000D01*
X193406000Y-39258000D02*
X200039500Y-39258000D01*
X103378000Y-38989000D02*
X185039000Y-38989000D01*
X102235000Y-37846000D02*
X103378000Y-38989000D01*
X102235000Y-37782000D02*
X102235000Y-37846000D01*
X105981000Y-23559000D02*
X106553000Y-22987000D01*
X105981000Y-24384000D02*
X105981000Y-23559000D01*
D32*
X183951952Y-67019500D02*
X183466512Y-67019500D01*
X183466512Y-67019500D02*
X182894300Y-67591712D01*
X195588700Y-42045700D02*
X196469000Y-42926000D01*
X184101952Y-66869500D02*
X183951952Y-67019500D01*
X187398888Y-67448100D02*
X189649699Y-67448100D01*
X183796712Y-69708700D02*
X185138288Y-69708700D01*
X182894300Y-67591712D02*
X182894300Y-68806288D01*
X195588700Y-41275000D02*
X195588700Y-42045700D01*
X185138288Y-69708700D02*
X187398888Y-67448100D01*
X182894300Y-68806288D02*
X183796712Y-69708700D01*
X190034999Y-67833400D02*
X191310000Y-67833400D01*
X189649699Y-67448100D02*
X190034999Y-67833400D01*
X189649699Y-66968700D02*
X190034999Y-66583400D01*
X183373700Y-67790288D02*
X183373700Y-68607712D01*
X194809300Y-42362700D02*
X193992000Y-43180000D01*
X190034999Y-66583400D02*
X191310000Y-66583400D01*
X187200312Y-66968700D02*
X189649699Y-66968700D01*
X183951952Y-67498900D02*
X183665088Y-67498900D01*
X184939712Y-69229300D02*
X187200312Y-66968700D01*
X184101952Y-67648900D02*
X183951952Y-67498900D01*
X194809300Y-41275000D02*
X194809300Y-42362700D01*
X183665088Y-67498900D02*
X183373700Y-67790288D01*
X183373700Y-68607712D02*
X183995288Y-69229300D01*
X183995288Y-69229300D02*
X184939712Y-69229300D01*
D33*
X194056000Y-40513000D02*
X196596000Y-40513000D01*
X196596000Y-40513000D02*
X199009000Y-42926000D01*
X192342000Y-43180000D02*
X192342000Y-42227000D01*
X192342000Y-42227000D02*
X194056000Y-40513000D01*
G04 #@! TA.AperFunction,Conductor*
G36*
X89158032Y-30734530D02*
G01*
X89269296Y-30749179D01*
X89300561Y-30757556D01*
X89392915Y-30795810D01*
X89420949Y-30811996D01*
X89500258Y-30872853D01*
X89523146Y-30895741D01*
X89584003Y-30975050D01*
X89600189Y-31003085D01*
X89638442Y-31095437D01*
X89646820Y-31126703D01*
X89661469Y-31237966D01*
X89662000Y-31246067D01*
X89662000Y-35301932D01*
X89661469Y-35310033D01*
X89646820Y-35421296D01*
X89638442Y-35452562D01*
X89600189Y-35544914D01*
X89584003Y-35572949D01*
X89523146Y-35652258D01*
X89500258Y-35675146D01*
X89420949Y-35736003D01*
X89392914Y-35752189D01*
X89300562Y-35790442D01*
X89269296Y-35798820D01*
X89171410Y-35811707D01*
X89158032Y-35813469D01*
X89149933Y-35814000D01*
X86364067Y-35814000D01*
X86355967Y-35813469D01*
X86339957Y-35811361D01*
X86244703Y-35798820D01*
X86213437Y-35790442D01*
X86121085Y-35752189D01*
X86093050Y-35736003D01*
X86013741Y-35675146D01*
X85990853Y-35652258D01*
X85929996Y-35572949D01*
X85913810Y-35544914D01*
X85875557Y-35452562D01*
X85867179Y-35421295D01*
X85852531Y-35310033D01*
X85852000Y-35301931D01*
X85852000Y-31246068D01*
X85852531Y-31237966D01*
X85867179Y-31126704D01*
X85875556Y-31095440D01*
X85913812Y-31003081D01*
X85929996Y-30975050D01*
X85990853Y-30895741D01*
X86013741Y-30872853D01*
X86093050Y-30811996D01*
X86121081Y-30795812D01*
X86213440Y-30757556D01*
X86244701Y-30749179D01*
X86355967Y-30734530D01*
X86364068Y-30734000D01*
X89149932Y-30734000D01*
X89158032Y-30734530D01*
G37*
G04 #@! TD.AperFunction*
G04 #@! TA.AperFunction,Conductor*
G36*
X104398032Y-23876530D02*
G01*
X104509296Y-23891179D01*
X104540561Y-23899556D01*
X104632915Y-23937810D01*
X104660949Y-23953996D01*
X104740258Y-24014853D01*
X104763146Y-24037741D01*
X104824003Y-24117050D01*
X104840189Y-24145085D01*
X104878442Y-24237437D01*
X104886820Y-24268703D01*
X104901469Y-24379966D01*
X104902000Y-24388067D01*
X104902000Y-26665932D01*
X104901469Y-26674033D01*
X104886820Y-26785296D01*
X104878442Y-26816562D01*
X104840189Y-26908914D01*
X104824003Y-26936949D01*
X104763146Y-27016258D01*
X104740258Y-27039146D01*
X104660949Y-27100003D01*
X104632914Y-27116189D01*
X104540562Y-27154442D01*
X104509296Y-27162820D01*
X104411410Y-27175707D01*
X104398032Y-27177469D01*
X104389933Y-27178000D01*
X102489000Y-27178000D01*
X102340209Y-27326790D01*
X102340201Y-27326797D01*
X100862671Y-28804329D01*
X100856567Y-28809681D01*
X100767529Y-28878004D01*
X100739494Y-28894189D01*
X100647142Y-28932442D01*
X100615876Y-28940820D01*
X100517990Y-28953707D01*
X100504612Y-28955469D01*
X100496513Y-28956000D01*
X96524067Y-28956000D01*
X96515967Y-28955469D01*
X96499957Y-28953361D01*
X96404703Y-28940820D01*
X96373437Y-28932442D01*
X96281085Y-28894189D01*
X96253050Y-28878003D01*
X96173741Y-28817146D01*
X96150853Y-28794258D01*
X96089996Y-28714949D01*
X96073810Y-28686914D01*
X96035557Y-28594562D01*
X96027179Y-28563295D01*
X96012531Y-28452033D01*
X96012000Y-28443931D01*
X96012000Y-24388068D01*
X96012531Y-24379966D01*
X96027179Y-24268704D01*
X96035556Y-24237440D01*
X96073812Y-24145081D01*
X96089996Y-24117050D01*
X96150853Y-24037741D01*
X96173741Y-24014853D01*
X96253050Y-23953996D01*
X96281081Y-23937812D01*
X96373440Y-23899556D01*
X96404701Y-23891179D01*
X96515967Y-23876530D01*
X96524068Y-23876000D01*
X104389932Y-23876000D01*
X104398032Y-23876530D01*
G37*
G04 #@! TD.AperFunction*
G04 #@! TA.AperFunction,Conductor*
G36*
X204980695Y-45339235D02*
G01*
X205187727Y-45357348D01*
X205209004Y-45361099D01*
X205401888Y-45412782D01*
X205422198Y-45420175D01*
X205603165Y-45504562D01*
X205621883Y-45515369D01*
X205785456Y-45629904D01*
X205802014Y-45643798D01*
X205943201Y-45784985D01*
X205957095Y-45801543D01*
X206071630Y-45965116D01*
X206082437Y-45983834D01*
X206166824Y-46164801D01*
X206174217Y-46185112D01*
X206225898Y-46377988D01*
X206229651Y-46399274D01*
X206247764Y-46606299D01*
X206248000Y-46611705D01*
X206248000Y-56639294D01*
X206247764Y-56644700D01*
X206229651Y-56851725D01*
X206225898Y-56873011D01*
X206174217Y-57065887D01*
X206166824Y-57086198D01*
X206082437Y-57267165D01*
X206071630Y-57285883D01*
X205957095Y-57449456D01*
X205943201Y-57466014D01*
X205802014Y-57607201D01*
X205785456Y-57621095D01*
X205621883Y-57735630D01*
X205603165Y-57746437D01*
X205422198Y-57830824D01*
X205401887Y-57838217D01*
X205209011Y-57889898D01*
X205187725Y-57893651D01*
X205037864Y-57906762D01*
X204980695Y-57911764D01*
X204975294Y-57912000D01*
X86108706Y-57912000D01*
X86103304Y-57911764D01*
X86039000Y-57906138D01*
X85896274Y-57893651D01*
X85874988Y-57889898D01*
X85682112Y-57838217D01*
X85661801Y-57830824D01*
X85480834Y-57746437D01*
X85462116Y-57735630D01*
X85298543Y-57621095D01*
X85281985Y-57607201D01*
X85140798Y-57466014D01*
X85126904Y-57449456D01*
X85012369Y-57285883D01*
X85001562Y-57267165D01*
X84917175Y-57086198D01*
X84909782Y-57065887D01*
X84858099Y-56873004D01*
X84854348Y-56851724D01*
X84836236Y-56644700D01*
X84836000Y-56639294D01*
X84836000Y-46611705D01*
X84836236Y-46606299D01*
X84854348Y-46399275D01*
X84854349Y-46399274D01*
X84854348Y-46399270D01*
X84858099Y-46377996D01*
X84909783Y-46185107D01*
X84917175Y-46164801D01*
X85001562Y-45983834D01*
X85012369Y-45965116D01*
X85126904Y-45801543D01*
X85140792Y-45784991D01*
X85281991Y-45643792D01*
X85298543Y-45629904D01*
X85462116Y-45515369D01*
X85480831Y-45504563D01*
X85661803Y-45420174D01*
X85682107Y-45412783D01*
X85874996Y-45361099D01*
X85896270Y-45357348D01*
X86103304Y-45339235D01*
X86108706Y-45339000D01*
X204975294Y-45339000D01*
X204980695Y-45339235D01*
G37*
G04 #@! TD.AperFunction*
G04 #@! TA.AperFunction,Conductor*
G36*
X92204695Y-22098235D02*
G01*
X92411727Y-22116348D01*
X92433004Y-22120099D01*
X92625888Y-22171782D01*
X92646198Y-22179175D01*
X92827165Y-22263562D01*
X92845883Y-22274369D01*
X93009456Y-22388904D01*
X93026014Y-22402798D01*
X93167201Y-22543985D01*
X93181095Y-22560543D01*
X93295630Y-22724116D01*
X93306437Y-22742834D01*
X93390824Y-22923801D01*
X93398217Y-22944112D01*
X93449898Y-23136988D01*
X93453651Y-23158274D01*
X93467845Y-23320513D01*
X93471764Y-23365299D01*
X93472000Y-23370705D01*
X93472000Y-27937294D01*
X93471764Y-27942700D01*
X93453651Y-28149725D01*
X93449898Y-28171011D01*
X93398217Y-28363887D01*
X93390824Y-28384198D01*
X93306437Y-28565165D01*
X93295630Y-28583883D01*
X93181095Y-28747456D01*
X93167201Y-28764014D01*
X93026014Y-28905201D01*
X93009456Y-28919095D01*
X92845883Y-29033630D01*
X92827165Y-29044437D01*
X92646198Y-29128824D01*
X92625887Y-29136217D01*
X92433011Y-29187898D01*
X92411725Y-29191651D01*
X92261864Y-29204762D01*
X92204695Y-29209764D01*
X92199294Y-29210000D01*
X83820000Y-29210000D01*
X83448031Y-29581968D01*
X83448020Y-29581978D01*
X82565412Y-30464586D01*
X82565402Y-30464597D01*
X82296000Y-30734000D01*
X82296000Y-31114578D01*
X82295713Y-31116814D01*
X82280425Y-31213337D01*
X82268436Y-31250235D01*
X82232151Y-31321447D01*
X82209348Y-31352832D01*
X82152832Y-31409348D01*
X82121447Y-31432151D01*
X82050235Y-31468436D01*
X82013337Y-31480425D01*
X81949975Y-31490460D01*
X81924640Y-31494473D01*
X81905244Y-31496000D01*
X76202706Y-31496000D01*
X76197304Y-31495764D01*
X76133000Y-31490138D01*
X75990274Y-31477651D01*
X75968988Y-31473898D01*
X75776112Y-31422217D01*
X75755801Y-31414824D01*
X75574834Y-31330437D01*
X75556116Y-31319630D01*
X75392543Y-31205095D01*
X75375985Y-31191201D01*
X75234798Y-31050014D01*
X75220904Y-31033456D01*
X75106369Y-30869883D01*
X75095562Y-30851165D01*
X75011175Y-30670198D01*
X75003782Y-30649887D01*
X74954131Y-30464586D01*
X74952099Y-30457004D01*
X74948348Y-30435724D01*
X74930236Y-30228700D01*
X74930000Y-30223294D01*
X74930000Y-24003371D01*
X74930267Y-23997626D01*
X74950717Y-23777755D01*
X74954953Y-23755182D01*
X75013224Y-23551180D01*
X75021550Y-23529775D01*
X75116451Y-23340006D01*
X75128571Y-23320521D01*
X75262086Y-23144600D01*
X75265756Y-23140205D01*
X75455113Y-22933634D01*
X75841873Y-22511713D01*
X75845471Y-22508100D01*
X75990482Y-22374098D01*
X76006652Y-22361468D01*
X76165312Y-22257475D01*
X76183334Y-22247693D01*
X76356981Y-22171304D01*
X76376378Y-22164627D01*
X76560238Y-22117944D01*
X76580483Y-22114557D01*
X76777225Y-22098212D01*
X76782354Y-22098000D01*
X92199294Y-22098000D01*
X92204695Y-22098235D01*
G37*
G04 #@! TD.AperFunction*
G04 #@! TA.AperFunction,Conductor*
G36*
X192801677Y-64662685D02*
G01*
X192822319Y-64679318D01*
X193892682Y-65749682D01*
X193926166Y-65811003D01*
X193929000Y-65837361D01*
X193929000Y-69469000D01*
X196051680Y-71591680D01*
X196085165Y-71653003D01*
X196087999Y-71679361D01*
X196088000Y-74298000D01*
X196068315Y-74365039D01*
X196015512Y-74410794D01*
X195964000Y-74422000D01*
X194107362Y-74422000D01*
X194040323Y-74402315D01*
X194019681Y-74385681D01*
X190536319Y-70902319D01*
X190502834Y-70840996D01*
X190500000Y-70814638D01*
X190500000Y-68958000D01*
X190519685Y-68890961D01*
X190572489Y-68845206D01*
X190624000Y-68834000D01*
X192405000Y-68834000D01*
X192913000Y-68326000D01*
X192913000Y-66040000D01*
X192532000Y-65659000D01*
X190624000Y-65659000D01*
X190556961Y-65639315D01*
X190511206Y-65586511D01*
X190500000Y-65535000D01*
X190500000Y-64767000D01*
X190519685Y-64699961D01*
X190572489Y-64654206D01*
X190624000Y-64643000D01*
X192734638Y-64643000D01*
X192801677Y-64662685D01*
G37*
G04 #@! TD.AperFunction*
G04 #@! TA.AperFunction,Conductor*
G36*
X143387032Y-22225530D02*
G01*
X143498296Y-22240179D01*
X143529561Y-22248556D01*
X143621915Y-22286810D01*
X143649949Y-22302996D01*
X143729258Y-22363853D01*
X143752146Y-22386741D01*
X143813003Y-22466050D01*
X143829189Y-22494085D01*
X143867442Y-22586437D01*
X143875820Y-22617703D01*
X143890469Y-22728966D01*
X143891000Y-22737067D01*
X143891000Y-31242000D01*
X190495932Y-31242000D01*
X190504032Y-31242530D01*
X190615296Y-31257179D01*
X190646561Y-31265556D01*
X190738915Y-31303810D01*
X190766949Y-31319996D01*
X190846258Y-31380853D01*
X190869146Y-31403741D01*
X190930003Y-31483050D01*
X190946189Y-31511085D01*
X190984442Y-31603437D01*
X190992820Y-31634703D01*
X191007469Y-31745966D01*
X191008000Y-31754067D01*
X191008000Y-32507932D01*
X191007469Y-32516033D01*
X190992820Y-32627296D01*
X190984442Y-32658562D01*
X190946189Y-32750914D01*
X190930003Y-32778949D01*
X190869146Y-32858258D01*
X190846258Y-32881146D01*
X190766949Y-32942003D01*
X190738914Y-32958189D01*
X190646562Y-32996442D01*
X190615296Y-33004820D01*
X190517410Y-33017707D01*
X190504032Y-33019469D01*
X190495933Y-33020000D01*
X190247613Y-33020000D01*
X190237779Y-33019228D01*
X190237751Y-33019597D01*
X189975000Y-32998918D01*
X189712249Y-33019597D01*
X189712220Y-33019228D01*
X189702387Y-33020000D01*
X143891000Y-33020000D01*
X143891000Y-33527992D01*
X143891000Y-34666932D01*
X143890469Y-34675033D01*
X143875820Y-34786296D01*
X143867442Y-34817562D01*
X143829189Y-34909914D01*
X143813003Y-34937949D01*
X143752146Y-35017258D01*
X143729258Y-35040146D01*
X143649949Y-35101003D01*
X143621914Y-35117189D01*
X143529562Y-35155442D01*
X143498296Y-35163820D01*
X143400410Y-35176707D01*
X143387032Y-35178469D01*
X143378933Y-35179000D01*
X109688487Y-35179000D01*
X109680387Y-35178469D01*
X109664377Y-35176361D01*
X109569123Y-35163820D01*
X109537857Y-35155442D01*
X109445505Y-35117189D01*
X109417470Y-35101004D01*
X109328432Y-35032681D01*
X109322336Y-35027336D01*
X106704662Y-32409662D01*
X106699318Y-32403567D01*
X106630995Y-32314529D01*
X106614810Y-32286494D01*
X106576557Y-32194142D01*
X106568179Y-32162875D01*
X106553531Y-32051613D01*
X106553000Y-32043511D01*
X106553000Y-26039068D01*
X106553531Y-26030966D01*
X106568179Y-25919704D01*
X106576556Y-25888440D01*
X106614812Y-25796081D01*
X106630996Y-25768050D01*
X106691853Y-25688741D01*
X106714741Y-25665853D01*
X106794050Y-25604996D01*
X106822081Y-25588812D01*
X106914440Y-25550556D01*
X106945701Y-25542179D01*
X107056967Y-25527530D01*
X107065068Y-25527000D01*
X107917777Y-25527000D01*
X107917779Y-25527000D01*
X108128723Y-25527000D01*
X110912917Y-22733000D01*
X111267373Y-22377295D01*
X111273451Y-22371948D01*
X111362600Y-22303332D01*
X111390672Y-22287082D01*
X111483203Y-22248659D01*
X111514526Y-22240247D01*
X111626044Y-22225532D01*
X111634152Y-22225000D01*
X143378932Y-22225000D01*
X143387032Y-22225530D01*
G37*
G04 #@! TD.AperFunction*
G04 #@! TA.AperFunction,Conductor*
G36*
X81028695Y-37846235D02*
G01*
X81235727Y-37864348D01*
X81257004Y-37868099D01*
X81449888Y-37919782D01*
X81470198Y-37927175D01*
X81651165Y-38011562D01*
X81669883Y-38022369D01*
X81833456Y-38136904D01*
X81850014Y-38150798D01*
X81991201Y-38291985D01*
X82005095Y-38308543D01*
X82119630Y-38472116D01*
X82130437Y-38490834D01*
X82214824Y-38671801D01*
X82222217Y-38692112D01*
X82273898Y-38884988D01*
X82277651Y-38906275D01*
X82295763Y-39113299D01*
X82295999Y-39118705D01*
X82295999Y-50797294D01*
X82295763Y-50802700D01*
X82277651Y-51009724D01*
X82273898Y-51031011D01*
X82222217Y-51223887D01*
X82214824Y-51244198D01*
X82130437Y-51425165D01*
X82119630Y-51443883D01*
X82005095Y-51607456D01*
X81991201Y-51624014D01*
X81850014Y-51765201D01*
X81833456Y-51779095D01*
X81669883Y-51893630D01*
X81651165Y-51904437D01*
X81470198Y-51988824D01*
X81449887Y-51996217D01*
X81257011Y-52047898D01*
X81235725Y-52051651D01*
X81085864Y-52064762D01*
X81028695Y-52069764D01*
X81023294Y-52070000D01*
X76202706Y-52070000D01*
X76197304Y-52069764D01*
X76133000Y-52064138D01*
X75990274Y-52051651D01*
X75968988Y-52047898D01*
X75776112Y-51996217D01*
X75755801Y-51988824D01*
X75574834Y-51904437D01*
X75556116Y-51893630D01*
X75392543Y-51779095D01*
X75375985Y-51765201D01*
X75234798Y-51624014D01*
X75220904Y-51607456D01*
X75106369Y-51443883D01*
X75095562Y-51425165D01*
X75011175Y-51244198D01*
X75003782Y-51223887D01*
X74952099Y-51031004D01*
X74948348Y-51009724D01*
X74930236Y-50802700D01*
X74930000Y-50797294D01*
X74930000Y-39118705D01*
X74930236Y-39113299D01*
X74948348Y-38906275D01*
X74952099Y-38884996D01*
X75003783Y-38692107D01*
X75011175Y-38671801D01*
X75095562Y-38490834D01*
X75106369Y-38472116D01*
X75220904Y-38308543D01*
X75234792Y-38291991D01*
X75375991Y-38150792D01*
X75392543Y-38136904D01*
X75556116Y-38022369D01*
X75574831Y-38011563D01*
X75755803Y-37927174D01*
X75776107Y-37919783D01*
X75968996Y-37868099D01*
X75990270Y-37864348D01*
X76197304Y-37846235D01*
X76202706Y-37846000D01*
X81023294Y-37846000D01*
X81028695Y-37846235D01*
G37*
G04 #@! TD.AperFunction*
G04 #@! TA.AperFunction,Conductor*
G36*
X103634695Y-30988235D02*
G01*
X103841727Y-31006348D01*
X103863004Y-31010099D01*
X104055888Y-31061782D01*
X104076198Y-31069175D01*
X104257165Y-31153562D01*
X104275883Y-31164369D01*
X104439456Y-31278904D01*
X104456014Y-31292798D01*
X104597201Y-31433985D01*
X104611095Y-31450543D01*
X104725630Y-31614116D01*
X104736437Y-31632834D01*
X104820824Y-31813801D01*
X104828217Y-31834112D01*
X104879898Y-32026988D01*
X104883651Y-32048274D01*
X104901764Y-32255299D01*
X104902000Y-32260705D01*
X104902000Y-33388900D01*
X104901701Y-33394981D01*
X104878794Y-33627557D01*
X104874052Y-33651398D01*
X104808871Y-33866272D01*
X104799568Y-33888730D01*
X104693723Y-34086751D01*
X104680218Y-34106963D01*
X104531957Y-34287620D01*
X104527878Y-34292120D01*
X104027175Y-34792824D01*
X103091328Y-35728670D01*
X103091322Y-35728677D01*
X103091319Y-35728680D01*
X102870000Y-35950000D01*
X102870000Y-36262589D01*
X102869603Y-36264994D01*
X102850986Y-36358587D01*
X102832471Y-36403286D01*
X102792027Y-36463815D01*
X102757815Y-36498027D01*
X102697286Y-36538471D01*
X102652588Y-36556986D01*
X102617274Y-36564010D01*
X102568979Y-36573617D01*
X102544789Y-36576000D01*
X92966706Y-36576000D01*
X92961304Y-36575764D01*
X92897000Y-36570138D01*
X92754274Y-36557651D01*
X92732988Y-36553898D01*
X92540112Y-36502217D01*
X92519801Y-36494824D01*
X92338834Y-36410437D01*
X92320116Y-36399630D01*
X92156543Y-36285095D01*
X92139985Y-36271201D01*
X91998798Y-36130014D01*
X91984904Y-36113456D01*
X91870369Y-35949883D01*
X91859562Y-35931165D01*
X91775175Y-35750198D01*
X91767782Y-35729887D01*
X91767456Y-35728670D01*
X91716099Y-35537004D01*
X91712348Y-35515724D01*
X91694236Y-35308700D01*
X91694000Y-35303294D01*
X91694000Y-32260705D01*
X91694236Y-32255299D01*
X91712348Y-32048275D01*
X91712349Y-32048274D01*
X91712348Y-32048270D01*
X91716099Y-32026996D01*
X91767783Y-31834107D01*
X91775175Y-31813801D01*
X91859562Y-31632834D01*
X91870369Y-31614116D01*
X91984904Y-31450543D01*
X91998792Y-31433991D01*
X92139991Y-31292792D01*
X92156543Y-31278904D01*
X92320116Y-31164369D01*
X92338831Y-31153563D01*
X92519803Y-31069174D01*
X92540107Y-31061783D01*
X92732996Y-31010099D01*
X92754270Y-31006348D01*
X92961304Y-30988235D01*
X92966706Y-30988000D01*
X103629294Y-30988000D01*
X103634695Y-30988235D01*
G37*
G04 #@! TD.AperFunction*
M02*
