G04 #@! TF.GenerationSoftware,KiCad,Pcbnew,7.0.6*
G04 #@! TF.CreationDate,2023-12-29T16:42:39-08:00*
G04 #@! TF.ProjectId,midplate,6d696470-6c61-4746-952e-6b696361645f,rev?*
G04 #@! TF.SameCoordinates,Original*
G04 #@! TF.FileFunction,Legend,Bot*
G04 #@! TF.FilePolarity,Positive*
%FSLAX46Y46*%
G04 Gerber Fmt 4.6, Leading zero omitted, Abs format (unit mm)*
G04 Created by KiCad (PCBNEW 7.0.6) date 2023-12-29 16:42:39*
%MOMM*%
%LPD*%
G01*
G04 APERTURE LIST*
G04 Aperture macros list*
%AMRoundRect*
0 Rectangle with rounded corners*
0 $1 Rounding radius*
0 $2 $3 $4 $5 $6 $7 $8 $9 X,Y pos of 4 corners*
0 Add a 4 corners polygon primitive as box body*
4,1,4,$2,$3,$4,$5,$6,$7,$8,$9,$2,$3,0*
0 Add four circle primitives for the rounded corners*
1,1,$1+$1,$2,$3*
1,1,$1+$1,$4,$5*
1,1,$1+$1,$6,$7*
1,1,$1+$1,$8,$9*
0 Add four rect primitives between the rounded corners*
20,1,$1+$1,$2,$3,$4,$5,0*
20,1,$1+$1,$4,$5,$6,$7,0*
20,1,$1+$1,$6,$7,$8,$9,0*
20,1,$1+$1,$8,$9,$2,$3,0*%
G04 Aperture macros list end*
%ADD10C,0.150000*%
%ADD11C,0.120000*%
%ADD12C,0.152400*%
%ADD13C,0.508000*%
%ADD14C,0.127000*%
%ADD15C,0.200000*%
%ADD16C,3.903200*%
%ADD17C,6.403200*%
%ADD18C,4.700000*%
%ADD19C,0.903200*%
%ADD20R,1.700000X1.700000*%
%ADD21O,1.700000X1.700000*%
%ADD22RoundRect,0.102000X1.387500X-1.387500X1.387500X1.387500X-1.387500X1.387500X-1.387500X-1.387500X0*%
%ADD23C,2.979000*%
%ADD24C,2.983200*%
%ADD25RoundRect,0.102000X-0.754000X0.754000X-0.754000X-0.754000X0.754000X-0.754000X0.754000X0.754000X0*%
%ADD26C,1.712000*%
%ADD27RoundRect,0.301600X-0.200000X-0.275000X0.200000X-0.275000X0.200000X0.275000X-0.200000X0.275000X0*%
%ADD28RoundRect,0.101600X1.308100X-0.673100X1.308100X0.673100X-1.308100X0.673100X-1.308100X-0.673100X0*%
%ADD29RoundRect,0.101600X0.863600X-1.752600X0.863600X1.752600X-0.863600X1.752600X-0.863600X-1.752600X0*%
%ADD30RoundRect,0.301600X0.200000X0.275000X-0.200000X0.275000X-0.200000X-0.275000X0.200000X-0.275000X0*%
%ADD31RoundRect,0.102000X-0.850000X-0.300000X0.850000X-0.300000X0.850000X0.300000X-0.850000X0.300000X0*%
%ADD32RoundRect,0.102000X1.400000X0.500000X-1.400000X0.500000X-1.400000X-0.500000X1.400000X-0.500000X0*%
%ADD33RoundRect,0.101600X-1.270000X0.635000X-1.270000X-0.635000X1.270000X-0.635000X1.270000X0.635000X0*%
%ADD34RoundRect,0.101600X-0.825500X1.714500X-0.825500X-1.714500X0.825500X-1.714500X0.825500X1.714500X0*%
G04 APERTURE END LIST*
D10*
X181776666Y-84097019D02*
X182109999Y-83620828D01*
X182348094Y-84097019D02*
X182348094Y-83097019D01*
X182348094Y-83097019D02*
X181967142Y-83097019D01*
X181967142Y-83097019D02*
X181871904Y-83144638D01*
X181871904Y-83144638D02*
X181824285Y-83192257D01*
X181824285Y-83192257D02*
X181776666Y-83287495D01*
X181776666Y-83287495D02*
X181776666Y-83430352D01*
X181776666Y-83430352D02*
X181824285Y-83525590D01*
X181824285Y-83525590D02*
X181871904Y-83573209D01*
X181871904Y-83573209D02*
X181967142Y-83620828D01*
X181967142Y-83620828D02*
X182348094Y-83620828D01*
X180919523Y-83430352D02*
X180919523Y-84097019D01*
X181157618Y-83049400D02*
X181395713Y-83763685D01*
X181395713Y-83763685D02*
X180776666Y-83763685D01*
X107438280Y-122416333D02*
X106723995Y-122416333D01*
X106723995Y-122416333D02*
X106581138Y-122463952D01*
X106581138Y-122463952D02*
X106485900Y-122559190D01*
X106485900Y-122559190D02*
X106438280Y-122702047D01*
X106438280Y-122702047D02*
X106438280Y-122797285D01*
X107104947Y-121511571D02*
X106438280Y-121511571D01*
X107485900Y-121749666D02*
X106771614Y-121987761D01*
X106771614Y-121987761D02*
X106771614Y-121368714D01*
X181776666Y-79702819D02*
X182109999Y-79226628D01*
X182348094Y-79702819D02*
X182348094Y-78702819D01*
X182348094Y-78702819D02*
X181967142Y-78702819D01*
X181967142Y-78702819D02*
X181871904Y-78750438D01*
X181871904Y-78750438D02*
X181824285Y-78798057D01*
X181824285Y-78798057D02*
X181776666Y-78893295D01*
X181776666Y-78893295D02*
X181776666Y-79036152D01*
X181776666Y-79036152D02*
X181824285Y-79131390D01*
X181824285Y-79131390D02*
X181871904Y-79179009D01*
X181871904Y-79179009D02*
X181967142Y-79226628D01*
X181967142Y-79226628D02*
X182348094Y-79226628D01*
X180871904Y-78702819D02*
X181348094Y-78702819D01*
X181348094Y-78702819D02*
X181395713Y-79179009D01*
X181395713Y-79179009D02*
X181348094Y-79131390D01*
X181348094Y-79131390D02*
X181252856Y-79083771D01*
X181252856Y-79083771D02*
X181014761Y-79083771D01*
X181014761Y-79083771D02*
X180919523Y-79131390D01*
X180919523Y-79131390D02*
X180871904Y-79179009D01*
X180871904Y-79179009D02*
X180824285Y-79274247D01*
X180824285Y-79274247D02*
X180824285Y-79512342D01*
X180824285Y-79512342D02*
X180871904Y-79607580D01*
X180871904Y-79607580D02*
X180919523Y-79655200D01*
X180919523Y-79655200D02*
X181014761Y-79702819D01*
X181014761Y-79702819D02*
X181252856Y-79702819D01*
X181252856Y-79702819D02*
X181348094Y-79655200D01*
X181348094Y-79655200D02*
X181395713Y-79607580D01*
X211062819Y-85312042D02*
X211777104Y-85312042D01*
X211777104Y-85312042D02*
X211919961Y-85264423D01*
X211919961Y-85264423D02*
X212015200Y-85169185D01*
X212015200Y-85169185D02*
X212062819Y-85026328D01*
X212062819Y-85026328D02*
X212062819Y-84931090D01*
X212062819Y-86312042D02*
X212062819Y-85740614D01*
X212062819Y-86026328D02*
X211062819Y-86026328D01*
X211062819Y-86026328D02*
X211205676Y-85931090D01*
X211205676Y-85931090D02*
X211300914Y-85835852D01*
X211300914Y-85835852D02*
X211348533Y-85740614D01*
X211062819Y-86645376D02*
X211062819Y-87264423D01*
X211062819Y-87264423D02*
X211443771Y-86931090D01*
X211443771Y-86931090D02*
X211443771Y-87073947D01*
X211443771Y-87073947D02*
X211491390Y-87169185D01*
X211491390Y-87169185D02*
X211539009Y-87216804D01*
X211539009Y-87216804D02*
X211634247Y-87264423D01*
X211634247Y-87264423D02*
X211872342Y-87264423D01*
X211872342Y-87264423D02*
X211967580Y-87216804D01*
X211967580Y-87216804D02*
X212015200Y-87169185D01*
X212015200Y-87169185D02*
X212062819Y-87073947D01*
X212062819Y-87073947D02*
X212062819Y-86788233D01*
X212062819Y-86788233D02*
X212015200Y-86692995D01*
X212015200Y-86692995D02*
X211967580Y-86645376D01*
X107438280Y-107811333D02*
X106723995Y-107811333D01*
X106723995Y-107811333D02*
X106581138Y-107858952D01*
X106581138Y-107858952D02*
X106485900Y-107954190D01*
X106485900Y-107954190D02*
X106438280Y-108097047D01*
X106438280Y-108097047D02*
X106438280Y-108192285D01*
X107438280Y-106858952D02*
X107438280Y-107335142D01*
X107438280Y-107335142D02*
X106962090Y-107382761D01*
X106962090Y-107382761D02*
X107009709Y-107335142D01*
X107009709Y-107335142D02*
X107057328Y-107239904D01*
X107057328Y-107239904D02*
X107057328Y-107001809D01*
X107057328Y-107001809D02*
X107009709Y-106906571D01*
X107009709Y-106906571D02*
X106962090Y-106858952D01*
X106962090Y-106858952D02*
X106866852Y-106811333D01*
X106866852Y-106811333D02*
X106628757Y-106811333D01*
X106628757Y-106811333D02*
X106533519Y-106858952D01*
X106533519Y-106858952D02*
X106485900Y-106906571D01*
X106485900Y-106906571D02*
X106438280Y-107001809D01*
X106438280Y-107001809D02*
X106438280Y-107239904D01*
X106438280Y-107239904D02*
X106485900Y-107335142D01*
X106485900Y-107335142D02*
X106533519Y-107382761D01*
X159789469Y-77439166D02*
X160503754Y-77439166D01*
X160503754Y-77439166D02*
X160646611Y-77391547D01*
X160646611Y-77391547D02*
X160741850Y-77296309D01*
X160741850Y-77296309D02*
X160789469Y-77153452D01*
X160789469Y-77153452D02*
X160789469Y-77058214D01*
X159789469Y-77820119D02*
X159789469Y-78486785D01*
X159789469Y-78486785D02*
X160789469Y-78058214D01*
D11*
X181488742Y-80058200D02*
X181963258Y-80058200D01*
X181488742Y-81103200D02*
X181963258Y-81103200D01*
D12*
X111086900Y-129463800D02*
X111086900Y-126838840D01*
X111897160Y-129463800D02*
X111086900Y-129463800D01*
X115709700Y-129463800D02*
X114289840Y-129463800D01*
X111086900Y-124827160D02*
X111086900Y-123838841D01*
X111086900Y-121827161D02*
X111086900Y-119202200D01*
X111086900Y-119202200D02*
X111897160Y-119202200D01*
X114289840Y-119202200D02*
X115709700Y-119202200D01*
X115709700Y-119202200D02*
X115709700Y-129463800D01*
D13*
X107988100Y-125452001D02*
G75*
G03*
X108074460Y-126204082I0J-380999D01*
G01*
D11*
X181963258Y-82754200D02*
X181488742Y-82754200D01*
X181963258Y-81709200D02*
X181488742Y-81709200D01*
D14*
X207720000Y-88286566D02*
X209150000Y-88286566D01*
X209150000Y-88286566D02*
X209150000Y-86661566D01*
X204900000Y-87061566D02*
X204900000Y-81261566D01*
X209150000Y-81661566D02*
X209150000Y-80036566D01*
X207720000Y-80036566D02*
X209150000Y-80036566D01*
D15*
X210900000Y-82286566D02*
G75*
G03*
X210900000Y-82286566I-100000J0D01*
G01*
D12*
X111086900Y-114858800D02*
X111086900Y-112233840D01*
X111897160Y-114858800D02*
X111086900Y-114858800D01*
X115709700Y-114858800D02*
X114289840Y-114858800D01*
X111086900Y-110222160D02*
X111086900Y-109233841D01*
X111086900Y-107222161D02*
X111086900Y-104597200D01*
X111086900Y-104597200D02*
X111897160Y-104597200D01*
X114289840Y-104597200D02*
X115709700Y-104597200D01*
X115709700Y-104597200D02*
X115709700Y-114858800D01*
D13*
X107988100Y-110847001D02*
G75*
G03*
X108074460Y-111599082I0J-380999D01*
G01*
D12*
X159190650Y-77143101D02*
X159190650Y-79804762D01*
X156792890Y-77143101D02*
X159190650Y-77143101D01*
X152078650Y-77143101D02*
X154476410Y-77143101D01*
X152078650Y-79804762D02*
X152078650Y-77143101D01*
X159190650Y-81740242D02*
X159190650Y-82804761D01*
X152078650Y-82804761D02*
X152078650Y-81740242D01*
X159190650Y-84740241D02*
X159190650Y-85804760D01*
X152078650Y-85804760D02*
X152078650Y-84740241D01*
D14*
X163329650Y-86417500D02*
X163329650Y-87217500D01*
X162629650Y-86817500D02*
X163329650Y-86417500D01*
X163329650Y-87217500D02*
X162629650Y-86817500D01*
D12*
X159190650Y-87740240D02*
X159190650Y-90401901D01*
X159190650Y-90401901D02*
X156792890Y-90401901D01*
X154476410Y-90401901D02*
X152078650Y-90401901D01*
X152078650Y-90401901D02*
X152078650Y-87740240D01*
%LPC*%
D16*
X86796621Y-49459321D03*
X79596621Y-49459321D03*
D17*
X101600000Y-108484000D03*
D18*
X176611096Y-16532860D03*
D19*
X150011000Y-22468000D03*
X150011000Y-25468000D03*
X150011000Y-28468000D03*
X150011000Y-31468000D03*
X151511000Y-23968000D03*
X151511000Y-26968000D03*
X151511000Y-29968000D03*
X153011000Y-22468000D03*
X153011000Y-25468000D03*
X153011000Y-28468000D03*
X153011000Y-31468000D03*
X154511000Y-23968000D03*
X154511000Y-26968000D03*
X154511000Y-29968000D03*
X156011000Y-22468000D03*
X156011000Y-25468000D03*
X156011000Y-28468000D03*
X156011000Y-31468000D03*
D18*
X215465590Y-109216005D03*
X63532842Y-59880142D03*
X202611067Y-125968345D03*
D17*
X159600900Y-16532860D03*
D18*
X93526349Y-97476702D03*
X93526349Y-67516719D03*
X197574411Y-97476702D03*
X62863132Y-92880142D03*
X227297158Y-75880142D03*
X227966868Y-92880142D03*
X214157936Y-17096280D03*
X166350214Y-146903559D03*
D17*
X101600000Y-16532860D03*
D18*
X202611096Y-16532860D03*
X197574411Y-84161566D03*
X63532842Y-83880142D03*
X227297158Y-67880142D03*
X227297158Y-59880142D03*
D17*
X189230000Y-125984000D03*
D16*
X211408697Y-49459321D03*
X204208697Y-49459321D03*
D18*
X145415000Y-149659732D03*
D20*
X196469000Y-42926000D03*
D21*
X199009000Y-42926000D03*
D22*
X200039500Y-32258000D03*
D23*
X200039500Y-39258000D03*
D17*
X101600000Y-65537080D03*
D18*
X219473333Y-84161566D03*
D17*
X101600000Y-125984000D03*
X101600000Y-117234000D03*
D18*
X76672065Y-17096280D03*
X63532842Y-75880142D03*
X104971273Y-138822868D03*
D24*
X77040000Y-39504000D03*
X80440000Y-39504000D03*
X77040000Y-29584000D03*
X80440000Y-29584000D03*
D18*
X93526349Y-84161566D03*
X88218905Y-16532860D03*
D17*
X189230000Y-86614000D03*
D18*
X71576849Y-67516719D03*
D17*
X189230000Y-76200000D03*
D18*
X71576849Y-97476702D03*
X219473333Y-97476702D03*
X227297158Y-83880142D03*
X75364410Y-109216005D03*
X185858727Y-138822868D03*
X124479786Y-146903559D03*
X114218905Y-16532860D03*
X197574411Y-67516719D03*
X71576849Y-84161566D03*
X219473333Y-67516719D03*
D25*
X189975000Y-32147500D03*
D26*
X189975000Y-34647500D03*
X189975000Y-37147500D03*
X189975000Y-39647500D03*
D18*
X88218933Y-125968345D03*
D17*
X189230000Y-104184000D03*
D18*
X63532842Y-67880142D03*
D17*
X101600000Y-76200000D03*
D27*
X180901000Y-80580700D03*
X182551000Y-80580700D03*
D28*
X109893100Y-125833000D03*
X109893100Y-122833001D03*
D29*
X113093500Y-129540000D03*
X113093500Y-119126000D03*
D30*
X182551000Y-82231700D03*
X180901000Y-82231700D03*
D31*
X209350000Y-82286566D03*
X209350000Y-83536566D03*
X209350000Y-84786566D03*
X209350000Y-86036566D03*
D32*
X206000000Y-87886566D03*
X206000000Y-80436566D03*
D28*
X109893100Y-111228000D03*
X109893100Y-108228001D03*
D29*
X113093500Y-114935000D03*
X113093500Y-104521000D03*
D33*
X160334651Y-86772500D03*
X160334651Y-83772501D03*
X160334651Y-80772502D03*
X150934650Y-86772500D03*
X150934650Y-83772501D03*
X150934650Y-80772502D03*
D34*
X155634650Y-77137501D03*
X155634650Y-90407501D03*
%LPD*%
M02*
