M48
; DRILL file {KiCad 7.0.6} date Tue Dec 26 17:11:58 2023
; FORMAT={-:-/ absolute / metric / decimal}
; #@! TF.CreationDate,2023-12-26T17:11:58-08:00
; #@! TF.GenerationSoftware,Kicad,Pcbnew,7.0.6
; #@! TF.FileFunction,Plated,1,2,PTH
FMAT,2
METRIC
; #@! TA.AperFunction,Plated,PTH,ViaDrill
T1C0.200
; #@! TA.AperFunction,Plated,PTH,ViaDrill
T2C0.350
; #@! TA.AperFunction,Plated,PTH,ComponentDrill
T3C1.000
; #@! TA.AperFunction,Plated,PTH,ComponentDrill
T4C1.780
; #@! TA.AperFunction,Plated,PTH,ComponentDrill
T5C1.850
; #@! TA.AperFunction,Plated,PTH,ComponentDrill
T6C2.300
; #@! TA.AperFunction,Plated,PTH,ComponentDrill
T7C2.700
; #@! TA.AperFunction,Plated,PTH,ComponentDrill
T8C3.700
%
G90
G05
T1
X184.102Y-66.87
X184.102Y-67.649
X194.809Y-41.275
X194.97Y-71.78
X194.97Y-72.542
X194.97Y-73.304
X194.97Y-74.066
X195.589Y-41.275
X195.732Y-71.78
X195.732Y-72.542
X195.732Y-73.304
X195.732Y-74.066
T2
X83.058Y-22.733
X83.058Y-23.749
X83.058Y-24.765
X83.058Y-25.781
X83.058Y-26.797
X83.058Y-27.813
X84.074Y-22.742
X84.074Y-23.758
X84.074Y-24.774
X84.074Y-25.79
X84.074Y-26.806
X84.074Y-27.822
X85.09Y-22.742
X85.09Y-23.758
X85.09Y-24.774
X85.09Y-25.79
X85.09Y-26.806
X86.36Y-31.242
X86.36Y-32.258
X86.36Y-33.274
X87.122Y-34.29
X87.122Y-35.306
X88.138Y-34.29
X88.138Y-35.306
X89.154Y-31.242
X89.154Y-32.258
X89.154Y-33.274
X89.154Y-34.29
X89.154Y-35.306
X91.948Y-34.426
X92.964Y-34.426
X93.98Y-31.378
X93.98Y-32.394
X93.98Y-33.41
X93.98Y-34.426
X94.996Y-31.378
X94.996Y-32.394
X94.996Y-33.41
X94.996Y-34.426
X96.52Y-24.638
X96.52Y-25.654
X97.536Y-24.638
X97.536Y-25.654
X98.552Y-24.638
X98.552Y-25.654
X99.568Y-24.638
X99.568Y-25.654
X100.584Y-24.638
X100.584Y-25.654
X100.584Y-26.67
X100.584Y-27.686
X100.584Y-31.496
X100.584Y-32.512
X100.584Y-33.528
X100.584Y-34.544
X101.6Y-31.496
X101.6Y-32.512
X101.6Y-33.528
X101.6Y-34.544
X102.616Y-33.528
X102.616Y-34.544
X103.378Y-38.989
X103.632Y-33.528
X103.632Y-34.544
X106.553Y-22.987
X129.413Y-22.86
X129.413Y-24.13
X129.413Y-25.4
X129.413Y-26.67
X129.413Y-27.94
X129.413Y-29.21
X129.413Y-30.48
X129.413Y-31.75
X129.413Y-33.02
X129.413Y-34.29
X130.683Y-22.86
X130.683Y-24.13
X130.683Y-25.4
X130.683Y-26.67
X130.683Y-27.94
X130.683Y-29.21
X130.683Y-30.48
X130.683Y-31.75
X130.683Y-33.02
X130.683Y-34.29
X131.953Y-22.86
X131.953Y-24.13
X131.953Y-25.4
X131.953Y-26.67
X131.953Y-27.94
X131.953Y-29.21
X131.953Y-30.48
X131.953Y-31.75
X131.953Y-33.02
X131.953Y-34.29
X133.223Y-22.86
X133.223Y-24.13
X133.223Y-25.4
X133.223Y-26.67
X133.223Y-27.94
X133.223Y-29.21
X133.223Y-30.48
X133.223Y-31.75
X133.223Y-33.02
X133.223Y-34.29
X134.493Y-22.86
X134.493Y-24.13
X134.493Y-25.4
X134.493Y-26.67
X134.493Y-27.94
X134.493Y-29.21
X134.493Y-30.48
X134.493Y-31.75
X134.493Y-33.02
X134.493Y-34.29
X135.763Y-22.86
X135.763Y-24.13
X135.763Y-25.4
X135.763Y-26.67
X135.763Y-27.94
X135.763Y-29.21
X135.763Y-30.48
X135.763Y-31.75
X135.763Y-33.02
X135.763Y-34.29
X137.033Y-22.86
X137.033Y-24.13
X137.033Y-25.4
X137.033Y-26.67
X137.033Y-27.94
X137.033Y-29.21
X137.033Y-30.48
X137.033Y-31.75
X137.033Y-33.02
X137.033Y-34.29
X138.303Y-22.86
X138.303Y-24.13
X138.303Y-25.4
X138.303Y-26.67
X138.303Y-27.94
X138.303Y-29.21
X138.303Y-30.48
X138.303Y-31.75
X138.303Y-33.02
X138.303Y-34.29
X139.573Y-22.86
X139.573Y-24.13
X139.573Y-25.4
X139.573Y-26.67
X139.573Y-27.94
X139.573Y-29.21
X139.573Y-30.48
X139.573Y-31.75
X139.573Y-33.02
X139.573Y-34.29
X140.843Y-22.86
X140.843Y-24.13
X140.843Y-25.4
X140.843Y-26.67
X140.843Y-27.94
X140.843Y-29.21
X140.843Y-30.48
X140.843Y-31.75
X140.843Y-33.02
X140.843Y-34.29
X142.113Y-22.86
X142.113Y-24.13
X142.113Y-25.4
X142.113Y-26.67
X142.113Y-27.94
X142.113Y-29.21
X142.113Y-30.48
X142.113Y-31.75
X142.113Y-33.02
X142.113Y-34.29
X143.383Y-22.86
X143.383Y-24.13
X143.383Y-25.4
X143.383Y-26.67
X143.383Y-27.94
X143.383Y-29.21
X143.383Y-30.48
X143.383Y-31.75
X143.383Y-33.02
X143.383Y-34.29
T3
X189.975Y-32.148
X189.975Y-34.648
X189.975Y-37.148
X189.975Y-39.648
X196.469Y-42.926
X199.009Y-42.926
T4
X77.04Y-29.584
X77.04Y-39.504
X80.44Y-29.584
X80.44Y-39.504
T5
X200.04Y-32.258
X200.04Y-39.258
T6
X79.597Y-49.459
X86.797Y-49.459
X204.209Y-49.459
X211.409Y-49.459
T7
X62.863Y-92.88
X63.533Y-59.88
X63.533Y-67.88
X63.533Y-75.88
X63.533Y-83.88
X71.577Y-67.517
X71.577Y-84.162
X71.577Y-97.477
X75.364Y-109.216
X76.672Y-17.096
X88.219Y-16.533
X88.219Y-125.968
X93.526Y-67.517
X93.526Y-84.162
X93.526Y-97.477
X104.971Y-138.823
X118.219Y-16.533
X124.48Y-146.904
X145.415Y-149.66
X166.35Y-146.904
X172.611Y-16.533
X185.859Y-138.823
X197.574Y-67.517
X197.574Y-84.162
X197.574Y-97.477
X202.611Y-125.968
X202.611Y-16.533
X214.158Y-17.096
X215.466Y-109.216
X219.473Y-67.517
X219.473Y-84.162
X219.473Y-97.477
X227.297Y-59.88
X227.297Y-67.88
X227.297Y-75.88
X227.297Y-83.88
X227.967Y-92.88
T8
X101.6Y-16.533
X101.6Y-65.537
X101.6Y-76.2
X101.6Y-108.484
X101.6Y-117.234
X101.6Y-125.984
X159.601Y-16.533
X189.23Y-76.2
X189.23Y-86.614
X189.23Y-104.184
X189.23Y-125.984
T0
M30
