G04 #@! TF.GenerationSoftware,KiCad,Pcbnew,7.0.6*
G04 #@! TF.CreationDate,2024-01-26T23:20:00-08:00*
G04 #@! TF.ProjectId,POWER_BOARD,504f5745-525f-4424-9f41-52442e6b6963,rev?*
G04 #@! TF.SameCoordinates,Original*
G04 #@! TF.FileFunction,Other,User*
%FSLAX46Y46*%
G04 Gerber Fmt 4.6, Leading zero omitted, Abs format (unit mm)*
G04 Created by KiCad (PCBNEW 7.0.6) date 2024-01-26 23:20:00*
%MOMM*%
%LPD*%
G01*
G04 APERTURE LIST*
%ADD10C,0.050000*%
%ADD11C,0.152400*%
G04 APERTURE END LIST*
D10*
X135897650Y-64548000D02*
X135897650Y-66008000D01*
X135897650Y-66008000D02*
X138857650Y-66008000D01*
X138857650Y-64548000D02*
X135897650Y-64548000D01*
X138857650Y-66008000D02*
X138857650Y-64548000D01*
D11*
X134580450Y-78638400D02*
X134580450Y-86080600D01*
X134580450Y-86080600D02*
X141921050Y-86080600D01*
X135262249Y-74447400D02*
X135262249Y-78638400D01*
X135262249Y-78638400D02*
X134580450Y-78638400D01*
X136659249Y-74447400D02*
X135262249Y-74447400D01*
X136659249Y-76936600D02*
X136659249Y-74447400D01*
X139842251Y-74447400D02*
X139842251Y-76936600D01*
X139842251Y-76936600D02*
X136659249Y-76936600D01*
X141239251Y-74447400D02*
X139842251Y-74447400D01*
X141239251Y-78638400D02*
X141239251Y-74447400D01*
X141921050Y-78638400D02*
X141239251Y-78638400D01*
X141921050Y-86080600D02*
X141921050Y-78638400D01*
D10*
X120220000Y-58075000D02*
X120220000Y-60035000D01*
X120220000Y-60035000D02*
X123620000Y-60035000D01*
X123620000Y-58075000D02*
X120220000Y-58075000D01*
X123620000Y-60035000D02*
X123620000Y-58075000D01*
X103579000Y-89837000D02*
X103579000Y-83137000D01*
X103579000Y-83137000D02*
X93779000Y-83137000D01*
X93779000Y-89837000D02*
X103579000Y-89837000D01*
X93779000Y-83137000D02*
X93779000Y-89837000D01*
X132112000Y-83014000D02*
X133572000Y-83014000D01*
X133572000Y-83014000D02*
X133572000Y-80054000D01*
X132112000Y-80054000D02*
X132112000Y-83014000D01*
X133572000Y-80054000D02*
X132112000Y-80054000D01*
X139075650Y-66020000D02*
X135675650Y-66020000D01*
X135675650Y-66020000D02*
X135675650Y-69870000D01*
X139075650Y-69870000D02*
X139075650Y-66020000D01*
X139075650Y-69870000D02*
X135675650Y-69870000D01*
X133472650Y-69298000D02*
X134932650Y-69298000D01*
X134932650Y-69298000D02*
X134932650Y-66338000D01*
X133472650Y-66338000D02*
X133472650Y-69298000D01*
X134932650Y-66338000D02*
X133472650Y-66338000D01*
X120684998Y-95243500D02*
X110184998Y-95243500D01*
X120684998Y-73593500D02*
X120684998Y-95243500D01*
X110184998Y-95243500D02*
X110184998Y-73593500D01*
X110184998Y-73593500D02*
X120684998Y-73593500D01*
X118735000Y-60183000D02*
X118735000Y-64023000D01*
X118735000Y-64023000D02*
X126375000Y-64023000D01*
X126375000Y-60183000D02*
X118735000Y-60183000D01*
X126375000Y-64023000D02*
X126375000Y-60183000D01*
X142069000Y-40608000D02*
X142069000Y-39148000D01*
X142069000Y-39148000D02*
X139109000Y-39148000D01*
X139109000Y-40608000D02*
X142069000Y-40608000D01*
X139109000Y-39148000D02*
X139109000Y-40608000D01*
X126421000Y-60353000D02*
X126421000Y-63853000D01*
X126421000Y-63853000D02*
X133421000Y-63853000D01*
X133421000Y-60353000D02*
X126421000Y-60353000D01*
X133421000Y-63853000D02*
X133421000Y-60353000D01*
X134653000Y-69886000D02*
X134653000Y-74386000D01*
X134653000Y-74386000D02*
X141953000Y-74386000D01*
X141953000Y-69886000D02*
X134653000Y-69886000D01*
X141953000Y-74386000D02*
X141953000Y-69886000D01*
X142069000Y-42513000D02*
X142069000Y-41053000D01*
X142069000Y-41053000D02*
X139109000Y-41053000D01*
X139109000Y-42513000D02*
X142069000Y-42513000D01*
X139109000Y-41053000D02*
X139109000Y-42513000D01*
X132112000Y-78442000D02*
X133572000Y-78442000D01*
X133572000Y-78442000D02*
X133572000Y-75482000D01*
X132112000Y-75482000D02*
X132112000Y-78442000D01*
X133572000Y-75482000D02*
X132112000Y-75482000D01*
X87069000Y-89837000D02*
X87069000Y-83137000D01*
X87069000Y-83137000D02*
X77269000Y-83137000D01*
X77269000Y-89837000D02*
X87069000Y-89837000D01*
X77269000Y-83137000D02*
X77269000Y-89837000D01*
X131234000Y-95230000D02*
X120734000Y-95230000D01*
X131234000Y-73580000D02*
X131234000Y-95230000D01*
X120734000Y-95230000D02*
X120734000Y-73580000D01*
X120734000Y-73580000D02*
X131234000Y-73580000D01*
M02*
