%TF.GenerationSoftware,KiCad,Pcbnew,7.0.2-6a45011f42~172~ubuntu20.04.1*%
%TF.CreationDate,2023-04-23T21:35:08-07:00*%
%TF.ProjectId,SX1280_USB_Adapter,53583132-3830-45f5-9553-425f41646170,rev?*%
%TF.SameCoordinates,Original*%
%TF.FileFunction,Drillmap*%
%TF.FilePolarity,Positive*%
%FSLAX45Y45*%
G04 Gerber Fmt 4.5, Leading zero omitted, Abs format (unit mm)*
G04 Created by KiCad (PCBNEW 7.0.2-6a45011f42~172~ubuntu20.04.1) date 2023-04-23 21:35:08*
%MOMM*%
%LPD*%
G01*
G04 APERTURE LIST*
%ADD10C,0.150000*%
%ADD11C,0.200000*%
%ADD12C,0.040000*%
%ADD13C,0.100000*%
G04 APERTURE END LIST*
D10*
X9773489Y-10811599D02*
G75*
G03*
X9673489Y-10911599I1J-100001D01*
G01*
X10873491Y-12293599D02*
G75*
G03*
X10973489Y-12393599I99999J-1D01*
G01*
X10873489Y-10711599D02*
X10873489Y-10536599D01*
X14071600Y-10436599D02*
X10973489Y-10436599D01*
X10773489Y-10811599D02*
G75*
G03*
X10873489Y-10711599I1J99999D01*
G01*
X9673489Y-10911599D02*
X9673489Y-11917599D01*
X14071600Y-12393599D02*
X10973489Y-12393599D01*
X14171601Y-10536599D02*
G75*
G03*
X14071600Y-10436599I-100001J-1D01*
G01*
X10773489Y-12017599D02*
X9773489Y-12017599D01*
X10873491Y-12117599D02*
G75*
G03*
X10773489Y-12017599I-100001J-1D01*
G01*
X9673491Y-11917599D02*
G75*
G03*
X9773489Y-12017599I99999J-1D01*
G01*
X10973489Y-10436599D02*
G75*
G03*
X10873489Y-10536599I1J-100001D01*
G01*
X9773489Y-10811599D02*
X10773489Y-10811599D01*
X14071600Y-12393600D02*
G75*
G03*
X14171600Y-12293599I0J100000D01*
G01*
X10873489Y-12117599D02*
X10873489Y-12293599D01*
X14171600Y-12293599D02*
X14171600Y-10536599D01*
D11*
D12*
X10604600Y-11254600D02*
X10644600Y-11294600D01*
X10644600Y-11254600D02*
X10604600Y-11294600D01*
X10605000Y-11505000D02*
X10645000Y-11545000D01*
X10645000Y-11505000D02*
X10605000Y-11545000D01*
X10622600Y-11765600D02*
X10662600Y-11805600D01*
X10662600Y-11765600D02*
X10622600Y-11805600D01*
X10630000Y-11005000D02*
X10670000Y-11045000D01*
X10670000Y-11005000D02*
X10630000Y-11045000D01*
X10749600Y-11765600D02*
X10789600Y-11805600D01*
X10789600Y-11765600D02*
X10749600Y-11805600D01*
X10755000Y-11005000D02*
X10795000Y-11045000D01*
X10795000Y-11005000D02*
X10755000Y-11045000D01*
X10876600Y-11765600D02*
X10916600Y-11805600D01*
X10916600Y-11765600D02*
X10876600Y-11805600D01*
X10880000Y-11005000D02*
X10920000Y-11045000D01*
X10920000Y-11005000D02*
X10880000Y-11045000D01*
X11155950Y-10495750D02*
X11195950Y-10535750D01*
X11195950Y-10495750D02*
X11155950Y-10535750D01*
X11232200Y-11384600D02*
X11272200Y-11424600D01*
X11272200Y-11384600D02*
X11232200Y-11424600D01*
X11359200Y-11384600D02*
X11399200Y-11424600D01*
X11399200Y-11384600D02*
X11359200Y-11424600D01*
X11486200Y-11384600D02*
X11526200Y-11424600D01*
X11526200Y-11384600D02*
X11486200Y-11424600D01*
X11850000Y-10570000D02*
X11890000Y-10610000D01*
X11890000Y-10570000D02*
X11850000Y-10610000D01*
X11880000Y-11230000D02*
X11920000Y-11270000D01*
X11920000Y-11230000D02*
X11880000Y-11270000D01*
X11880000Y-11530000D02*
X11920000Y-11570000D01*
X11920000Y-11530000D02*
X11880000Y-11570000D01*
X12320000Y-11105000D02*
X12360000Y-11145000D01*
X12360000Y-11105000D02*
X12320000Y-11145000D01*
X12349800Y-11664000D02*
X12389800Y-11704000D01*
X12389800Y-11664000D02*
X12349800Y-11704000D01*
X12565700Y-11105200D02*
X12605700Y-11145200D01*
X12605700Y-11105200D02*
X12565700Y-11145200D01*
X12567898Y-11348698D02*
X12607898Y-11388698D01*
X12607898Y-11348698D02*
X12567898Y-11388698D01*
X12582700Y-12155000D02*
X12622700Y-12195000D01*
X12622700Y-12155000D02*
X12582700Y-12195000D01*
X12603800Y-11664000D02*
X12643800Y-11704000D01*
X12643800Y-11664000D02*
X12603800Y-11704000D01*
X12654600Y-10482900D02*
X12694600Y-10522900D01*
X12694600Y-10482900D02*
X12654600Y-10522900D01*
X12693950Y-11573850D02*
X12733950Y-11613850D01*
X12733950Y-11573850D02*
X12693950Y-11613850D01*
X12794300Y-10482900D02*
X12834300Y-10522900D01*
X12834300Y-10482900D02*
X12794300Y-10522900D01*
X12895134Y-10485652D02*
X12935134Y-10525652D01*
X12935134Y-10485652D02*
X12895134Y-10525652D01*
X12959400Y-11498900D02*
X12999400Y-11538900D01*
X12999400Y-11498900D02*
X12959400Y-11538900D01*
X13334000Y-11680000D02*
X13374000Y-11720000D01*
X13374000Y-11680000D02*
X13334000Y-11720000D01*
X13416600Y-10495600D02*
X13456600Y-10535600D01*
X13456600Y-10495600D02*
X13416600Y-10535600D01*
X13461000Y-11410000D02*
X13501000Y-11450000D01*
X13501000Y-11410000D02*
X13461000Y-11450000D01*
X13580000Y-10777550D02*
X13620000Y-10817550D01*
X13620000Y-10777550D02*
X13580000Y-10817550D01*
X13589294Y-11710655D02*
X13629294Y-11750655D01*
X13629294Y-11710655D02*
X13589294Y-11750655D01*
X13717000Y-11710400D02*
X13757000Y-11750400D01*
X13757000Y-11710400D02*
X13717000Y-11750400D01*
X13759500Y-12250750D02*
X13799500Y-12290750D01*
X13799500Y-12250750D02*
X13759500Y-12290750D01*
X13880000Y-10780000D02*
X13920000Y-10820000D01*
X13920000Y-10780000D02*
X13880000Y-10820000D01*
X13980000Y-10780000D02*
X14020000Y-10820000D01*
X14020000Y-10780000D02*
X13980000Y-10820000D01*
X14026200Y-12311700D02*
X14066200Y-12351700D01*
X14066200Y-12311700D02*
X14026200Y-12351700D01*
D13*
X11060900Y-12039600D02*
G75*
G03*
X11060900Y-12039600I-50000J0D01*
G01*
X11314900Y-12039600D02*
G75*
G03*
X11314900Y-12039600I-50000J0D01*
G01*
X11568900Y-12039600D02*
G75*
G03*
X11568900Y-12039600I-50000J0D01*
G01*
X11822900Y-12039600D02*
G75*
G03*
X11822900Y-12039600I-50000J0D01*
G01*
D11*
X9913608Y-12713623D02*
X9913608Y-12513623D01*
X9913608Y-12513623D02*
X9961227Y-12513623D01*
X9961227Y-12513623D02*
X9989799Y-12523147D01*
X9989799Y-12523147D02*
X10008846Y-12542194D01*
X10008846Y-12542194D02*
X10018370Y-12561242D01*
X10018370Y-12561242D02*
X10027894Y-12599337D01*
X10027894Y-12599337D02*
X10027894Y-12627909D01*
X10027894Y-12627909D02*
X10018370Y-12666004D01*
X10018370Y-12666004D02*
X10008846Y-12685052D01*
X10008846Y-12685052D02*
X9989799Y-12704099D01*
X9989799Y-12704099D02*
X9961227Y-12713623D01*
X9961227Y-12713623D02*
X9913608Y-12713623D01*
X10113608Y-12713623D02*
X10113608Y-12580290D01*
X10113608Y-12618385D02*
X10123132Y-12599337D01*
X10123132Y-12599337D02*
X10132656Y-12589813D01*
X10132656Y-12589813D02*
X10151704Y-12580290D01*
X10151704Y-12580290D02*
X10170751Y-12580290D01*
X10237418Y-12713623D02*
X10237418Y-12580290D01*
X10237418Y-12513623D02*
X10227894Y-12523147D01*
X10227894Y-12523147D02*
X10237418Y-12532671D01*
X10237418Y-12532671D02*
X10246942Y-12523147D01*
X10246942Y-12523147D02*
X10237418Y-12513623D01*
X10237418Y-12513623D02*
X10237418Y-12532671D01*
X10361227Y-12713623D02*
X10342180Y-12704099D01*
X10342180Y-12704099D02*
X10332656Y-12685052D01*
X10332656Y-12685052D02*
X10332656Y-12513623D01*
X10465989Y-12713623D02*
X10446942Y-12704099D01*
X10446942Y-12704099D02*
X10437418Y-12685052D01*
X10437418Y-12685052D02*
X10437418Y-12513623D01*
X10694561Y-12713623D02*
X10694561Y-12513623D01*
X10694561Y-12513623D02*
X10761227Y-12656480D01*
X10761227Y-12656480D02*
X10827894Y-12513623D01*
X10827894Y-12513623D02*
X10827894Y-12713623D01*
X11008846Y-12713623D02*
X11008846Y-12608861D01*
X11008846Y-12608861D02*
X10999323Y-12589813D01*
X10999323Y-12589813D02*
X10980275Y-12580290D01*
X10980275Y-12580290D02*
X10942180Y-12580290D01*
X10942180Y-12580290D02*
X10923132Y-12589813D01*
X11008846Y-12704099D02*
X10989799Y-12713623D01*
X10989799Y-12713623D02*
X10942180Y-12713623D01*
X10942180Y-12713623D02*
X10923132Y-12704099D01*
X10923132Y-12704099D02*
X10913608Y-12685052D01*
X10913608Y-12685052D02*
X10913608Y-12666004D01*
X10913608Y-12666004D02*
X10923132Y-12646956D01*
X10923132Y-12646956D02*
X10942180Y-12637433D01*
X10942180Y-12637433D02*
X10989799Y-12637433D01*
X10989799Y-12637433D02*
X11008846Y-12627909D01*
X11104085Y-12580290D02*
X11104085Y-12780290D01*
X11104085Y-12589813D02*
X11123132Y-12580290D01*
X11123132Y-12580290D02*
X11161227Y-12580290D01*
X11161227Y-12580290D02*
X11180275Y-12589813D01*
X11180275Y-12589813D02*
X11189799Y-12599337D01*
X11189799Y-12599337D02*
X11199323Y-12618385D01*
X11199323Y-12618385D02*
X11199323Y-12675528D01*
X11199323Y-12675528D02*
X11189799Y-12694575D01*
X11189799Y-12694575D02*
X11180275Y-12704099D01*
X11180275Y-12704099D02*
X11161227Y-12713623D01*
X11161227Y-12713623D02*
X11123132Y-12713623D01*
X11123132Y-12713623D02*
X11104085Y-12704099D01*
X11285037Y-12694575D02*
X11294561Y-12704099D01*
X11294561Y-12704099D02*
X11285037Y-12713623D01*
X11285037Y-12713623D02*
X11275513Y-12704099D01*
X11275513Y-12704099D02*
X11285037Y-12694575D01*
X11285037Y-12694575D02*
X11285037Y-12713623D01*
X11285037Y-12589813D02*
X11294561Y-12599337D01*
X11294561Y-12599337D02*
X11285037Y-12608861D01*
X11285037Y-12608861D02*
X11275513Y-12599337D01*
X11275513Y-12599337D02*
X11285037Y-12589813D01*
X11285037Y-12589813D02*
X11285037Y-12608861D01*
D12*
X9625989Y-13021099D02*
X9665989Y-13061099D01*
X9665989Y-13021099D02*
X9625989Y-13061099D01*
D11*
X9951704Y-12933623D02*
X9970751Y-12933623D01*
X9970751Y-12933623D02*
X9989799Y-12943147D01*
X9989799Y-12943147D02*
X9999323Y-12952671D01*
X9999323Y-12952671D02*
X10008846Y-12971718D01*
X10008846Y-12971718D02*
X10018370Y-13009813D01*
X10018370Y-13009813D02*
X10018370Y-13057433D01*
X10018370Y-13057433D02*
X10008846Y-13095528D01*
X10008846Y-13095528D02*
X9999323Y-13114575D01*
X9999323Y-13114575D02*
X9989799Y-13124099D01*
X9989799Y-13124099D02*
X9970751Y-13133623D01*
X9970751Y-13133623D02*
X9951704Y-13133623D01*
X9951704Y-13133623D02*
X9932656Y-13124099D01*
X9932656Y-13124099D02*
X9923132Y-13114575D01*
X9923132Y-13114575D02*
X9913608Y-13095528D01*
X9913608Y-13095528D02*
X9904085Y-13057433D01*
X9904085Y-13057433D02*
X9904085Y-13009813D01*
X9904085Y-13009813D02*
X9913608Y-12971718D01*
X9913608Y-12971718D02*
X9923132Y-12952671D01*
X9923132Y-12952671D02*
X9932656Y-12943147D01*
X9932656Y-12943147D02*
X9951704Y-12933623D01*
X10104085Y-13114575D02*
X10113608Y-13124099D01*
X10113608Y-13124099D02*
X10104085Y-13133623D01*
X10104085Y-13133623D02*
X10094561Y-13124099D01*
X10094561Y-13124099D02*
X10104085Y-13114575D01*
X10104085Y-13114575D02*
X10104085Y-13133623D01*
X10285037Y-13000290D02*
X10285037Y-13133623D01*
X10237418Y-12924099D02*
X10189799Y-13066956D01*
X10189799Y-13066956D02*
X10313608Y-13066956D01*
X10427894Y-12933623D02*
X10446942Y-12933623D01*
X10446942Y-12933623D02*
X10465989Y-12943147D01*
X10465989Y-12943147D02*
X10475513Y-12952671D01*
X10475513Y-12952671D02*
X10485037Y-12971718D01*
X10485037Y-12971718D02*
X10494561Y-13009813D01*
X10494561Y-13009813D02*
X10494561Y-13057433D01*
X10494561Y-13057433D02*
X10485037Y-13095528D01*
X10485037Y-13095528D02*
X10475513Y-13114575D01*
X10475513Y-13114575D02*
X10465989Y-13124099D01*
X10465989Y-13124099D02*
X10446942Y-13133623D01*
X10446942Y-13133623D02*
X10427894Y-13133623D01*
X10427894Y-13133623D02*
X10408846Y-13124099D01*
X10408846Y-13124099D02*
X10399323Y-13114575D01*
X10399323Y-13114575D02*
X10389799Y-13095528D01*
X10389799Y-13095528D02*
X10380275Y-13057433D01*
X10380275Y-13057433D02*
X10380275Y-13009813D01*
X10380275Y-13009813D02*
X10389799Y-12971718D01*
X10389799Y-12971718D02*
X10399323Y-12952671D01*
X10399323Y-12952671D02*
X10408846Y-12943147D01*
X10408846Y-12943147D02*
X10427894Y-12933623D01*
X10618370Y-12933623D02*
X10637418Y-12933623D01*
X10637418Y-12933623D02*
X10656466Y-12943147D01*
X10656466Y-12943147D02*
X10665989Y-12952671D01*
X10665989Y-12952671D02*
X10675513Y-12971718D01*
X10675513Y-12971718D02*
X10685037Y-13009813D01*
X10685037Y-13009813D02*
X10685037Y-13057433D01*
X10685037Y-13057433D02*
X10675513Y-13095528D01*
X10675513Y-13095528D02*
X10665989Y-13114575D01*
X10665989Y-13114575D02*
X10656466Y-13124099D01*
X10656466Y-13124099D02*
X10637418Y-13133623D01*
X10637418Y-13133623D02*
X10618370Y-13133623D01*
X10618370Y-13133623D02*
X10599323Y-13124099D01*
X10599323Y-13124099D02*
X10589799Y-13114575D01*
X10589799Y-13114575D02*
X10580275Y-13095528D01*
X10580275Y-13095528D02*
X10570751Y-13057433D01*
X10570751Y-13057433D02*
X10570751Y-13009813D01*
X10570751Y-13009813D02*
X10580275Y-12971718D01*
X10580275Y-12971718D02*
X10589799Y-12952671D01*
X10589799Y-12952671D02*
X10599323Y-12943147D01*
X10599323Y-12943147D02*
X10618370Y-12933623D01*
X10770751Y-13133623D02*
X10770751Y-13000290D01*
X10770751Y-13019337D02*
X10780275Y-13009813D01*
X10780275Y-13009813D02*
X10799323Y-13000290D01*
X10799323Y-13000290D02*
X10827894Y-13000290D01*
X10827894Y-13000290D02*
X10846942Y-13009813D01*
X10846942Y-13009813D02*
X10856466Y-13028861D01*
X10856466Y-13028861D02*
X10856466Y-13133623D01*
X10856466Y-13028861D02*
X10865989Y-13009813D01*
X10865989Y-13009813D02*
X10885037Y-13000290D01*
X10885037Y-13000290D02*
X10913608Y-13000290D01*
X10913608Y-13000290D02*
X10932656Y-13009813D01*
X10932656Y-13009813D02*
X10942180Y-13028861D01*
X10942180Y-13028861D02*
X10942180Y-13133623D01*
X11037418Y-13133623D02*
X11037418Y-13000290D01*
X11037418Y-13019337D02*
X11046942Y-13009813D01*
X11046942Y-13009813D02*
X11065989Y-13000290D01*
X11065989Y-13000290D02*
X11094561Y-13000290D01*
X11094561Y-13000290D02*
X11113608Y-13009813D01*
X11113608Y-13009813D02*
X11123132Y-13028861D01*
X11123132Y-13028861D02*
X11123132Y-13133623D01*
X11123132Y-13028861D02*
X11132656Y-13009813D01*
X11132656Y-13009813D02*
X11151704Y-13000290D01*
X11151704Y-13000290D02*
X11180275Y-13000290D01*
X11180275Y-13000290D02*
X11199323Y-13009813D01*
X11199323Y-13009813D02*
X11208846Y-13028861D01*
X11208846Y-13028861D02*
X11208846Y-13133623D01*
X11599323Y-12924099D02*
X11427894Y-13181242D01*
X11856466Y-12933623D02*
X11875513Y-12933623D01*
X11875513Y-12933623D02*
X11894561Y-12943147D01*
X11894561Y-12943147D02*
X11904085Y-12952671D01*
X11904085Y-12952671D02*
X11913608Y-12971718D01*
X11913608Y-12971718D02*
X11923132Y-13009813D01*
X11923132Y-13009813D02*
X11923132Y-13057433D01*
X11923132Y-13057433D02*
X11913608Y-13095528D01*
X11913608Y-13095528D02*
X11904085Y-13114575D01*
X11904085Y-13114575D02*
X11894561Y-13124099D01*
X11894561Y-13124099D02*
X11875513Y-13133623D01*
X11875513Y-13133623D02*
X11856466Y-13133623D01*
X11856466Y-13133623D02*
X11837418Y-13124099D01*
X11837418Y-13124099D02*
X11827894Y-13114575D01*
X11827894Y-13114575D02*
X11818370Y-13095528D01*
X11818370Y-13095528D02*
X11808847Y-13057433D01*
X11808847Y-13057433D02*
X11808847Y-13009813D01*
X11808847Y-13009813D02*
X11818370Y-12971718D01*
X11818370Y-12971718D02*
X11827894Y-12952671D01*
X11827894Y-12952671D02*
X11837418Y-12943147D01*
X11837418Y-12943147D02*
X11856466Y-12933623D01*
X12008847Y-13114575D02*
X12018370Y-13124099D01*
X12018370Y-13124099D02*
X12008847Y-13133623D01*
X12008847Y-13133623D02*
X11999323Y-13124099D01*
X11999323Y-13124099D02*
X12008847Y-13114575D01*
X12008847Y-13114575D02*
X12008847Y-13133623D01*
X12142180Y-12933623D02*
X12161228Y-12933623D01*
X12161228Y-12933623D02*
X12180275Y-12943147D01*
X12180275Y-12943147D02*
X12189799Y-12952671D01*
X12189799Y-12952671D02*
X12199323Y-12971718D01*
X12199323Y-12971718D02*
X12208847Y-13009813D01*
X12208847Y-13009813D02*
X12208847Y-13057433D01*
X12208847Y-13057433D02*
X12199323Y-13095528D01*
X12199323Y-13095528D02*
X12189799Y-13114575D01*
X12189799Y-13114575D02*
X12180275Y-13124099D01*
X12180275Y-13124099D02*
X12161228Y-13133623D01*
X12161228Y-13133623D02*
X12142180Y-13133623D01*
X12142180Y-13133623D02*
X12123132Y-13124099D01*
X12123132Y-13124099D02*
X12113608Y-13114575D01*
X12113608Y-13114575D02*
X12104085Y-13095528D01*
X12104085Y-13095528D02*
X12094561Y-13057433D01*
X12094561Y-13057433D02*
X12094561Y-13009813D01*
X12094561Y-13009813D02*
X12104085Y-12971718D01*
X12104085Y-12971718D02*
X12113608Y-12952671D01*
X12113608Y-12952671D02*
X12123132Y-12943147D01*
X12123132Y-12943147D02*
X12142180Y-12933623D01*
X12399323Y-13133623D02*
X12285037Y-13133623D01*
X12342180Y-13133623D02*
X12342180Y-12933623D01*
X12342180Y-12933623D02*
X12323132Y-12962194D01*
X12323132Y-12962194D02*
X12304085Y-12981242D01*
X12304085Y-12981242D02*
X12285037Y-12990766D01*
X12580275Y-12933623D02*
X12485037Y-12933623D01*
X12485037Y-12933623D02*
X12475513Y-13028861D01*
X12475513Y-13028861D02*
X12485037Y-13019337D01*
X12485037Y-13019337D02*
X12504085Y-13009813D01*
X12504085Y-13009813D02*
X12551704Y-13009813D01*
X12551704Y-13009813D02*
X12570751Y-13019337D01*
X12570751Y-13019337D02*
X12580275Y-13028861D01*
X12580275Y-13028861D02*
X12589799Y-13047909D01*
X12589799Y-13047909D02*
X12589799Y-13095528D01*
X12589799Y-13095528D02*
X12580275Y-13114575D01*
X12580275Y-13114575D02*
X12570751Y-13124099D01*
X12570751Y-13124099D02*
X12551704Y-13133623D01*
X12551704Y-13133623D02*
X12504085Y-13133623D01*
X12504085Y-13133623D02*
X12485037Y-13124099D01*
X12485037Y-13124099D02*
X12475513Y-13114575D01*
X12656466Y-12933623D02*
X12789799Y-12933623D01*
X12789799Y-12933623D02*
X12704085Y-13133623D01*
X12856466Y-12933623D02*
X12856466Y-12971718D01*
X12932656Y-12933623D02*
X12932656Y-12971718D01*
X13227894Y-13209813D02*
X13218370Y-13200290D01*
X13218370Y-13200290D02*
X13199323Y-13171718D01*
X13199323Y-13171718D02*
X13189799Y-13152671D01*
X13189799Y-13152671D02*
X13180275Y-13124099D01*
X13180275Y-13124099D02*
X13170751Y-13076480D01*
X13170751Y-13076480D02*
X13170751Y-13038385D01*
X13170751Y-13038385D02*
X13180275Y-12990766D01*
X13180275Y-12990766D02*
X13189799Y-12962194D01*
X13189799Y-12962194D02*
X13199323Y-12943147D01*
X13199323Y-12943147D02*
X13218370Y-12914575D01*
X13218370Y-12914575D02*
X13227894Y-12905052D01*
X13285037Y-12933623D02*
X13408847Y-12933623D01*
X13408847Y-12933623D02*
X13342180Y-13009813D01*
X13342180Y-13009813D02*
X13370751Y-13009813D01*
X13370751Y-13009813D02*
X13389799Y-13019337D01*
X13389799Y-13019337D02*
X13399323Y-13028861D01*
X13399323Y-13028861D02*
X13408847Y-13047909D01*
X13408847Y-13047909D02*
X13408847Y-13095528D01*
X13408847Y-13095528D02*
X13399323Y-13114575D01*
X13399323Y-13114575D02*
X13389799Y-13124099D01*
X13389799Y-13124099D02*
X13370751Y-13133623D01*
X13370751Y-13133623D02*
X13313609Y-13133623D01*
X13313609Y-13133623D02*
X13294561Y-13124099D01*
X13294561Y-13124099D02*
X13285037Y-13114575D01*
X13580275Y-12933623D02*
X13542180Y-12933623D01*
X13542180Y-12933623D02*
X13523132Y-12943147D01*
X13523132Y-12943147D02*
X13513609Y-12952671D01*
X13513609Y-12952671D02*
X13494561Y-12981242D01*
X13494561Y-12981242D02*
X13485037Y-13019337D01*
X13485037Y-13019337D02*
X13485037Y-13095528D01*
X13485037Y-13095528D02*
X13494561Y-13114575D01*
X13494561Y-13114575D02*
X13504085Y-13124099D01*
X13504085Y-13124099D02*
X13523132Y-13133623D01*
X13523132Y-13133623D02*
X13561228Y-13133623D01*
X13561228Y-13133623D02*
X13580275Y-13124099D01*
X13580275Y-13124099D02*
X13589799Y-13114575D01*
X13589799Y-13114575D02*
X13599323Y-13095528D01*
X13599323Y-13095528D02*
X13599323Y-13047909D01*
X13599323Y-13047909D02*
X13589799Y-13028861D01*
X13589799Y-13028861D02*
X13580275Y-13019337D01*
X13580275Y-13019337D02*
X13561228Y-13009813D01*
X13561228Y-13009813D02*
X13523132Y-13009813D01*
X13523132Y-13009813D02*
X13504085Y-13019337D01*
X13504085Y-13019337D02*
X13494561Y-13028861D01*
X13494561Y-13028861D02*
X13485037Y-13047909D01*
X13837418Y-13133623D02*
X13837418Y-12933623D01*
X13923132Y-13133623D02*
X13923132Y-13028861D01*
X13923132Y-13028861D02*
X13913609Y-13009813D01*
X13913609Y-13009813D02*
X13894561Y-13000290D01*
X13894561Y-13000290D02*
X13865990Y-13000290D01*
X13865990Y-13000290D02*
X13846942Y-13009813D01*
X13846942Y-13009813D02*
X13837418Y-13019337D01*
X14046942Y-13133623D02*
X14027894Y-13124099D01*
X14027894Y-13124099D02*
X14018371Y-13114575D01*
X14018371Y-13114575D02*
X14008847Y-13095528D01*
X14008847Y-13095528D02*
X14008847Y-13038385D01*
X14008847Y-13038385D02*
X14018371Y-13019337D01*
X14018371Y-13019337D02*
X14027894Y-13009813D01*
X14027894Y-13009813D02*
X14046942Y-13000290D01*
X14046942Y-13000290D02*
X14075513Y-13000290D01*
X14075513Y-13000290D02*
X14094561Y-13009813D01*
X14094561Y-13009813D02*
X14104085Y-13019337D01*
X14104085Y-13019337D02*
X14113609Y-13038385D01*
X14113609Y-13038385D02*
X14113609Y-13095528D01*
X14113609Y-13095528D02*
X14104085Y-13114575D01*
X14104085Y-13114575D02*
X14094561Y-13124099D01*
X14094561Y-13124099D02*
X14075513Y-13133623D01*
X14075513Y-13133623D02*
X14046942Y-13133623D01*
X14227894Y-13133623D02*
X14208847Y-13124099D01*
X14208847Y-13124099D02*
X14199323Y-13105052D01*
X14199323Y-13105052D02*
X14199323Y-12933623D01*
X14380275Y-13124099D02*
X14361228Y-13133623D01*
X14361228Y-13133623D02*
X14323132Y-13133623D01*
X14323132Y-13133623D02*
X14304085Y-13124099D01*
X14304085Y-13124099D02*
X14294561Y-13105052D01*
X14294561Y-13105052D02*
X14294561Y-13028861D01*
X14294561Y-13028861D02*
X14304085Y-13009813D01*
X14304085Y-13009813D02*
X14323132Y-13000290D01*
X14323132Y-13000290D02*
X14361228Y-13000290D01*
X14361228Y-13000290D02*
X14380275Y-13009813D01*
X14380275Y-13009813D02*
X14389799Y-13028861D01*
X14389799Y-13028861D02*
X14389799Y-13047909D01*
X14389799Y-13047909D02*
X14294561Y-13066956D01*
X14465990Y-13124099D02*
X14485037Y-13133623D01*
X14485037Y-13133623D02*
X14523132Y-13133623D01*
X14523132Y-13133623D02*
X14542180Y-13124099D01*
X14542180Y-13124099D02*
X14551704Y-13105052D01*
X14551704Y-13105052D02*
X14551704Y-13095528D01*
X14551704Y-13095528D02*
X14542180Y-13076480D01*
X14542180Y-13076480D02*
X14523132Y-13066956D01*
X14523132Y-13066956D02*
X14494561Y-13066956D01*
X14494561Y-13066956D02*
X14475513Y-13057433D01*
X14475513Y-13057433D02*
X14465990Y-13038385D01*
X14465990Y-13038385D02*
X14465990Y-13028861D01*
X14465990Y-13028861D02*
X14475513Y-13009813D01*
X14475513Y-13009813D02*
X14494561Y-13000290D01*
X14494561Y-13000290D02*
X14523132Y-13000290D01*
X14523132Y-13000290D02*
X14542180Y-13009813D01*
X14618371Y-13209813D02*
X14627894Y-13200290D01*
X14627894Y-13200290D02*
X14646942Y-13171718D01*
X14646942Y-13171718D02*
X14656466Y-13152671D01*
X14656466Y-13152671D02*
X14665990Y-13124099D01*
X14665990Y-13124099D02*
X14675513Y-13076480D01*
X14675513Y-13076480D02*
X14675513Y-13038385D01*
X14675513Y-13038385D02*
X14665990Y-12990766D01*
X14665990Y-12990766D02*
X14656466Y-12962194D01*
X14656466Y-12962194D02*
X14646942Y-12943147D01*
X14646942Y-12943147D02*
X14627894Y-12914575D01*
X14627894Y-12914575D02*
X14618371Y-12905052D01*
D13*
X9665989Y-13305099D02*
G75*
G03*
X9665989Y-13305099I-50000J0D01*
G01*
D11*
X10018370Y-13397623D02*
X9904085Y-13397623D01*
X9961227Y-13397623D02*
X9961227Y-13197623D01*
X9961227Y-13197623D02*
X9942180Y-13226194D01*
X9942180Y-13226194D02*
X9923132Y-13245242D01*
X9923132Y-13245242D02*
X9904085Y-13254766D01*
X10104085Y-13378575D02*
X10113608Y-13388099D01*
X10113608Y-13388099D02*
X10104085Y-13397623D01*
X10104085Y-13397623D02*
X10094561Y-13388099D01*
X10094561Y-13388099D02*
X10104085Y-13378575D01*
X10104085Y-13378575D02*
X10104085Y-13397623D01*
X10237418Y-13197623D02*
X10256466Y-13197623D01*
X10256466Y-13197623D02*
X10275513Y-13207147D01*
X10275513Y-13207147D02*
X10285037Y-13216671D01*
X10285037Y-13216671D02*
X10294561Y-13235718D01*
X10294561Y-13235718D02*
X10304085Y-13273813D01*
X10304085Y-13273813D02*
X10304085Y-13321433D01*
X10304085Y-13321433D02*
X10294561Y-13359528D01*
X10294561Y-13359528D02*
X10285037Y-13378575D01*
X10285037Y-13378575D02*
X10275513Y-13388099D01*
X10275513Y-13388099D02*
X10256466Y-13397623D01*
X10256466Y-13397623D02*
X10237418Y-13397623D01*
X10237418Y-13397623D02*
X10218370Y-13388099D01*
X10218370Y-13388099D02*
X10208846Y-13378575D01*
X10208846Y-13378575D02*
X10199323Y-13359528D01*
X10199323Y-13359528D02*
X10189799Y-13321433D01*
X10189799Y-13321433D02*
X10189799Y-13273813D01*
X10189799Y-13273813D02*
X10199323Y-13235718D01*
X10199323Y-13235718D02*
X10208846Y-13216671D01*
X10208846Y-13216671D02*
X10218370Y-13207147D01*
X10218370Y-13207147D02*
X10237418Y-13197623D01*
X10427894Y-13197623D02*
X10446942Y-13197623D01*
X10446942Y-13197623D02*
X10465989Y-13207147D01*
X10465989Y-13207147D02*
X10475513Y-13216671D01*
X10475513Y-13216671D02*
X10485037Y-13235718D01*
X10485037Y-13235718D02*
X10494561Y-13273813D01*
X10494561Y-13273813D02*
X10494561Y-13321433D01*
X10494561Y-13321433D02*
X10485037Y-13359528D01*
X10485037Y-13359528D02*
X10475513Y-13378575D01*
X10475513Y-13378575D02*
X10465989Y-13388099D01*
X10465989Y-13388099D02*
X10446942Y-13397623D01*
X10446942Y-13397623D02*
X10427894Y-13397623D01*
X10427894Y-13397623D02*
X10408846Y-13388099D01*
X10408846Y-13388099D02*
X10399323Y-13378575D01*
X10399323Y-13378575D02*
X10389799Y-13359528D01*
X10389799Y-13359528D02*
X10380275Y-13321433D01*
X10380275Y-13321433D02*
X10380275Y-13273813D01*
X10380275Y-13273813D02*
X10389799Y-13235718D01*
X10389799Y-13235718D02*
X10399323Y-13216671D01*
X10399323Y-13216671D02*
X10408846Y-13207147D01*
X10408846Y-13207147D02*
X10427894Y-13197623D01*
X10618370Y-13197623D02*
X10637418Y-13197623D01*
X10637418Y-13197623D02*
X10656466Y-13207147D01*
X10656466Y-13207147D02*
X10665989Y-13216671D01*
X10665989Y-13216671D02*
X10675513Y-13235718D01*
X10675513Y-13235718D02*
X10685037Y-13273813D01*
X10685037Y-13273813D02*
X10685037Y-13321433D01*
X10685037Y-13321433D02*
X10675513Y-13359528D01*
X10675513Y-13359528D02*
X10665989Y-13378575D01*
X10665989Y-13378575D02*
X10656466Y-13388099D01*
X10656466Y-13388099D02*
X10637418Y-13397623D01*
X10637418Y-13397623D02*
X10618370Y-13397623D01*
X10618370Y-13397623D02*
X10599323Y-13388099D01*
X10599323Y-13388099D02*
X10589799Y-13378575D01*
X10589799Y-13378575D02*
X10580275Y-13359528D01*
X10580275Y-13359528D02*
X10570751Y-13321433D01*
X10570751Y-13321433D02*
X10570751Y-13273813D01*
X10570751Y-13273813D02*
X10580275Y-13235718D01*
X10580275Y-13235718D02*
X10589799Y-13216671D01*
X10589799Y-13216671D02*
X10599323Y-13207147D01*
X10599323Y-13207147D02*
X10618370Y-13197623D01*
X10770751Y-13397623D02*
X10770751Y-13264290D01*
X10770751Y-13283337D02*
X10780275Y-13273813D01*
X10780275Y-13273813D02*
X10799323Y-13264290D01*
X10799323Y-13264290D02*
X10827894Y-13264290D01*
X10827894Y-13264290D02*
X10846942Y-13273813D01*
X10846942Y-13273813D02*
X10856466Y-13292861D01*
X10856466Y-13292861D02*
X10856466Y-13397623D01*
X10856466Y-13292861D02*
X10865989Y-13273813D01*
X10865989Y-13273813D02*
X10885037Y-13264290D01*
X10885037Y-13264290D02*
X10913608Y-13264290D01*
X10913608Y-13264290D02*
X10932656Y-13273813D01*
X10932656Y-13273813D02*
X10942180Y-13292861D01*
X10942180Y-13292861D02*
X10942180Y-13397623D01*
X11037418Y-13397623D02*
X11037418Y-13264290D01*
X11037418Y-13283337D02*
X11046942Y-13273813D01*
X11046942Y-13273813D02*
X11065989Y-13264290D01*
X11065989Y-13264290D02*
X11094561Y-13264290D01*
X11094561Y-13264290D02*
X11113608Y-13273813D01*
X11113608Y-13273813D02*
X11123132Y-13292861D01*
X11123132Y-13292861D02*
X11123132Y-13397623D01*
X11123132Y-13292861D02*
X11132656Y-13273813D01*
X11132656Y-13273813D02*
X11151704Y-13264290D01*
X11151704Y-13264290D02*
X11180275Y-13264290D01*
X11180275Y-13264290D02*
X11199323Y-13273813D01*
X11199323Y-13273813D02*
X11208846Y-13292861D01*
X11208846Y-13292861D02*
X11208846Y-13397623D01*
X11599323Y-13188099D02*
X11427894Y-13445242D01*
X11856466Y-13197623D02*
X11875513Y-13197623D01*
X11875513Y-13197623D02*
X11894561Y-13207147D01*
X11894561Y-13207147D02*
X11904085Y-13216671D01*
X11904085Y-13216671D02*
X11913608Y-13235718D01*
X11913608Y-13235718D02*
X11923132Y-13273813D01*
X11923132Y-13273813D02*
X11923132Y-13321433D01*
X11923132Y-13321433D02*
X11913608Y-13359528D01*
X11913608Y-13359528D02*
X11904085Y-13378575D01*
X11904085Y-13378575D02*
X11894561Y-13388099D01*
X11894561Y-13388099D02*
X11875513Y-13397623D01*
X11875513Y-13397623D02*
X11856466Y-13397623D01*
X11856466Y-13397623D02*
X11837418Y-13388099D01*
X11837418Y-13388099D02*
X11827894Y-13378575D01*
X11827894Y-13378575D02*
X11818370Y-13359528D01*
X11818370Y-13359528D02*
X11808847Y-13321433D01*
X11808847Y-13321433D02*
X11808847Y-13273813D01*
X11808847Y-13273813D02*
X11818370Y-13235718D01*
X11818370Y-13235718D02*
X11827894Y-13216671D01*
X11827894Y-13216671D02*
X11837418Y-13207147D01*
X11837418Y-13207147D02*
X11856466Y-13197623D01*
X12008847Y-13378575D02*
X12018370Y-13388099D01*
X12018370Y-13388099D02*
X12008847Y-13397623D01*
X12008847Y-13397623D02*
X11999323Y-13388099D01*
X11999323Y-13388099D02*
X12008847Y-13378575D01*
X12008847Y-13378575D02*
X12008847Y-13397623D01*
X12142180Y-13197623D02*
X12161228Y-13197623D01*
X12161228Y-13197623D02*
X12180275Y-13207147D01*
X12180275Y-13207147D02*
X12189799Y-13216671D01*
X12189799Y-13216671D02*
X12199323Y-13235718D01*
X12199323Y-13235718D02*
X12208847Y-13273813D01*
X12208847Y-13273813D02*
X12208847Y-13321433D01*
X12208847Y-13321433D02*
X12199323Y-13359528D01*
X12199323Y-13359528D02*
X12189799Y-13378575D01*
X12189799Y-13378575D02*
X12180275Y-13388099D01*
X12180275Y-13388099D02*
X12161228Y-13397623D01*
X12161228Y-13397623D02*
X12142180Y-13397623D01*
X12142180Y-13397623D02*
X12123132Y-13388099D01*
X12123132Y-13388099D02*
X12113608Y-13378575D01*
X12113608Y-13378575D02*
X12104085Y-13359528D01*
X12104085Y-13359528D02*
X12094561Y-13321433D01*
X12094561Y-13321433D02*
X12094561Y-13273813D01*
X12094561Y-13273813D02*
X12104085Y-13235718D01*
X12104085Y-13235718D02*
X12113608Y-13216671D01*
X12113608Y-13216671D02*
X12123132Y-13207147D01*
X12123132Y-13207147D02*
X12142180Y-13197623D01*
X12275513Y-13197623D02*
X12399323Y-13197623D01*
X12399323Y-13197623D02*
X12332656Y-13273813D01*
X12332656Y-13273813D02*
X12361228Y-13273813D01*
X12361228Y-13273813D02*
X12380275Y-13283337D01*
X12380275Y-13283337D02*
X12389799Y-13292861D01*
X12389799Y-13292861D02*
X12399323Y-13311909D01*
X12399323Y-13311909D02*
X12399323Y-13359528D01*
X12399323Y-13359528D02*
X12389799Y-13378575D01*
X12389799Y-13378575D02*
X12380275Y-13388099D01*
X12380275Y-13388099D02*
X12361228Y-13397623D01*
X12361228Y-13397623D02*
X12304085Y-13397623D01*
X12304085Y-13397623D02*
X12285037Y-13388099D01*
X12285037Y-13388099D02*
X12275513Y-13378575D01*
X12494561Y-13397623D02*
X12532656Y-13397623D01*
X12532656Y-13397623D02*
X12551704Y-13388099D01*
X12551704Y-13388099D02*
X12561228Y-13378575D01*
X12561228Y-13378575D02*
X12580275Y-13350004D01*
X12580275Y-13350004D02*
X12589799Y-13311909D01*
X12589799Y-13311909D02*
X12589799Y-13235718D01*
X12589799Y-13235718D02*
X12580275Y-13216671D01*
X12580275Y-13216671D02*
X12570751Y-13207147D01*
X12570751Y-13207147D02*
X12551704Y-13197623D01*
X12551704Y-13197623D02*
X12513608Y-13197623D01*
X12513608Y-13197623D02*
X12494561Y-13207147D01*
X12494561Y-13207147D02*
X12485037Y-13216671D01*
X12485037Y-13216671D02*
X12475513Y-13235718D01*
X12475513Y-13235718D02*
X12475513Y-13283337D01*
X12475513Y-13283337D02*
X12485037Y-13302385D01*
X12485037Y-13302385D02*
X12494561Y-13311909D01*
X12494561Y-13311909D02*
X12513608Y-13321433D01*
X12513608Y-13321433D02*
X12551704Y-13321433D01*
X12551704Y-13321433D02*
X12570751Y-13311909D01*
X12570751Y-13311909D02*
X12580275Y-13302385D01*
X12580275Y-13302385D02*
X12589799Y-13283337D01*
X12761228Y-13264290D02*
X12761228Y-13397623D01*
X12713608Y-13188099D02*
X12665989Y-13330956D01*
X12665989Y-13330956D02*
X12789799Y-13330956D01*
X12856466Y-13197623D02*
X12856466Y-13235718D01*
X12932656Y-13197623D02*
X12932656Y-13235718D01*
X13227894Y-13473813D02*
X13218370Y-13464290D01*
X13218370Y-13464290D02*
X13199323Y-13435718D01*
X13199323Y-13435718D02*
X13189799Y-13416671D01*
X13189799Y-13416671D02*
X13180275Y-13388099D01*
X13180275Y-13388099D02*
X13170751Y-13340480D01*
X13170751Y-13340480D02*
X13170751Y-13302385D01*
X13170751Y-13302385D02*
X13180275Y-13254766D01*
X13180275Y-13254766D02*
X13189799Y-13226194D01*
X13189799Y-13226194D02*
X13199323Y-13207147D01*
X13199323Y-13207147D02*
X13218370Y-13178575D01*
X13218370Y-13178575D02*
X13227894Y-13169052D01*
X13389799Y-13264290D02*
X13389799Y-13397623D01*
X13342180Y-13188099D02*
X13294561Y-13330956D01*
X13294561Y-13330956D02*
X13418370Y-13330956D01*
X13646942Y-13397623D02*
X13646942Y-13197623D01*
X13732656Y-13397623D02*
X13732656Y-13292861D01*
X13732656Y-13292861D02*
X13723132Y-13273813D01*
X13723132Y-13273813D02*
X13704085Y-13264290D01*
X13704085Y-13264290D02*
X13675513Y-13264290D01*
X13675513Y-13264290D02*
X13656466Y-13273813D01*
X13656466Y-13273813D02*
X13646942Y-13283337D01*
X13856466Y-13397623D02*
X13837418Y-13388099D01*
X13837418Y-13388099D02*
X13827894Y-13378575D01*
X13827894Y-13378575D02*
X13818371Y-13359528D01*
X13818371Y-13359528D02*
X13818371Y-13302385D01*
X13818371Y-13302385D02*
X13827894Y-13283337D01*
X13827894Y-13283337D02*
X13837418Y-13273813D01*
X13837418Y-13273813D02*
X13856466Y-13264290D01*
X13856466Y-13264290D02*
X13885037Y-13264290D01*
X13885037Y-13264290D02*
X13904085Y-13273813D01*
X13904085Y-13273813D02*
X13913609Y-13283337D01*
X13913609Y-13283337D02*
X13923132Y-13302385D01*
X13923132Y-13302385D02*
X13923132Y-13359528D01*
X13923132Y-13359528D02*
X13913609Y-13378575D01*
X13913609Y-13378575D02*
X13904085Y-13388099D01*
X13904085Y-13388099D02*
X13885037Y-13397623D01*
X13885037Y-13397623D02*
X13856466Y-13397623D01*
X14037418Y-13397623D02*
X14018371Y-13388099D01*
X14018371Y-13388099D02*
X14008847Y-13369052D01*
X14008847Y-13369052D02*
X14008847Y-13197623D01*
X14189799Y-13388099D02*
X14170752Y-13397623D01*
X14170752Y-13397623D02*
X14132656Y-13397623D01*
X14132656Y-13397623D02*
X14113609Y-13388099D01*
X14113609Y-13388099D02*
X14104085Y-13369052D01*
X14104085Y-13369052D02*
X14104085Y-13292861D01*
X14104085Y-13292861D02*
X14113609Y-13273813D01*
X14113609Y-13273813D02*
X14132656Y-13264290D01*
X14132656Y-13264290D02*
X14170752Y-13264290D01*
X14170752Y-13264290D02*
X14189799Y-13273813D01*
X14189799Y-13273813D02*
X14199323Y-13292861D01*
X14199323Y-13292861D02*
X14199323Y-13311909D01*
X14199323Y-13311909D02*
X14104085Y-13330956D01*
X14275513Y-13388099D02*
X14294561Y-13397623D01*
X14294561Y-13397623D02*
X14332656Y-13397623D01*
X14332656Y-13397623D02*
X14351704Y-13388099D01*
X14351704Y-13388099D02*
X14361228Y-13369052D01*
X14361228Y-13369052D02*
X14361228Y-13359528D01*
X14361228Y-13359528D02*
X14351704Y-13340480D01*
X14351704Y-13340480D02*
X14332656Y-13330956D01*
X14332656Y-13330956D02*
X14304085Y-13330956D01*
X14304085Y-13330956D02*
X14285037Y-13321433D01*
X14285037Y-13321433D02*
X14275513Y-13302385D01*
X14275513Y-13302385D02*
X14275513Y-13292861D01*
X14275513Y-13292861D02*
X14285037Y-13273813D01*
X14285037Y-13273813D02*
X14304085Y-13264290D01*
X14304085Y-13264290D02*
X14332656Y-13264290D01*
X14332656Y-13264290D02*
X14351704Y-13273813D01*
X14427894Y-13473813D02*
X14437418Y-13464290D01*
X14437418Y-13464290D02*
X14456466Y-13435718D01*
X14456466Y-13435718D02*
X14465990Y-13416671D01*
X14465990Y-13416671D02*
X14475513Y-13388099D01*
X14475513Y-13388099D02*
X14485037Y-13340480D01*
X14485037Y-13340480D02*
X14485037Y-13302385D01*
X14485037Y-13302385D02*
X14475513Y-13254766D01*
X14475513Y-13254766D02*
X14465990Y-13226194D01*
X14465990Y-13226194D02*
X14456466Y-13207147D01*
X14456466Y-13207147D02*
X14437418Y-13178575D01*
X14437418Y-13178575D02*
X14427894Y-13169052D01*
M02*
