M48
; DRILL file {KiCad 7.0.2-6a45011f42~172~ubuntu20.04.1} date Sun 23 Apr 2023 09:34:52 PM PDT
; FORMAT={-:-/ absolute / metric / decimal}
; #@! TF.CreationDate,2023-04-23T21:34:52-07:00
; #@! TF.GenerationSoftware,Kicad,Pcbnew,7.0.2-6a45011f42~172~ubuntu20.04.1
; #@! TF.FileFunction,Plated,1,4,PTH
FMAT,2
METRIC
; #@! TA.AperFunction,Plated,PTH,ViaDrill
T1C0.400
; #@! TA.AperFunction,Plated,PTH,ComponentDrill
T2C1.000
%
G90
G05
T1
X106.246Y-112.746
X106.25Y-115.25
X106.426Y-117.856
X106.5Y-110.25
X107.696Y-117.856
X107.75Y-110.25
X108.966Y-117.856
X109.0Y-110.25
X111.759Y-105.157
X112.522Y-114.046
X113.792Y-114.046
X115.062Y-114.046
X118.7Y-105.9
X119.0Y-112.5
X119.0Y-115.5
X123.4Y-111.25
X123.698Y-116.84
X125.857Y-111.252
X125.879Y-113.687
X126.027Y-121.75
X126.238Y-116.84
X126.746Y-105.029
X127.139Y-115.938
X128.143Y-105.029
X129.151Y-105.057
X129.794Y-115.189
X133.54Y-117.0
X134.366Y-105.156
X134.81Y-114.3
X136.0Y-107.975
X136.093Y-117.307
X137.37Y-117.304
X137.795Y-122.707
X139.0Y-108.0
X140.0Y-108.0
X140.462Y-123.317
T2
X110.109Y-120.396
X112.649Y-120.396
X115.189Y-120.396
X117.729Y-120.396
T0
M30
