%TF.GenerationSoftware,KiCad,Pcbnew,7.0.2-6a45011f42~172~ubuntu20.04.1*%
%TF.CreationDate,2023-04-23T21:35:08-07:00*%
%TF.ProjectId,SX1280_USB_Adapter,53583132-3830-45f5-9553-425f41646170,rev?*%
%TF.SameCoordinates,Original*%
%TF.FileFunction,Drillmap*%
%TF.FilePolarity,Positive*%
%FSLAX45Y45*%
G04 Gerber Fmt 4.5, Leading zero omitted, Abs format (unit mm)*
G04 Created by KiCad (PCBNEW 7.0.2-6a45011f42~172~ubuntu20.04.1) date 2023-04-23 21:35:08*
%MOMM*%
%LPD*%
G01*
G04 APERTURE LIST*
%ADD10C,0.150000*%
%ADD11C,0.200000*%
G04 APERTURE END LIST*
D10*
X9773489Y-10811599D02*
G75*
G03*
X9673489Y-10911599I1J-100001D01*
G01*
X10873491Y-12293599D02*
G75*
G03*
X10973489Y-12393599I99999J-1D01*
G01*
X10873489Y-10711599D02*
X10873489Y-10536599D01*
X14071600Y-10436599D02*
X10973489Y-10436599D01*
X10773489Y-10811599D02*
G75*
G03*
X10873489Y-10711599I1J99999D01*
G01*
X9673489Y-10911599D02*
X9673489Y-11917599D01*
X14071600Y-12393599D02*
X10973489Y-12393599D01*
X14171601Y-10536599D02*
G75*
G03*
X14071600Y-10436599I-100001J-1D01*
G01*
X10773489Y-12017599D02*
X9773489Y-12017599D01*
X10873491Y-12117599D02*
G75*
G03*
X10773489Y-12017599I-100001J-1D01*
G01*
X9673491Y-11917599D02*
G75*
G03*
X9773489Y-12017599I99999J-1D01*
G01*
X10973489Y-10436599D02*
G75*
G03*
X10873489Y-10536599I1J-100001D01*
G01*
X9773489Y-10811599D02*
X10773489Y-10811599D01*
X14071600Y-12393600D02*
G75*
G03*
X14171600Y-12293599I0J100000D01*
G01*
X10873489Y-12117599D02*
X10873489Y-12293599D01*
X14171600Y-12293599D02*
X14171600Y-10536599D01*
D11*
X9913608Y-12713623D02*
X9913608Y-12513623D01*
X9913608Y-12513623D02*
X9961227Y-12513623D01*
X9961227Y-12513623D02*
X9989799Y-12523147D01*
X9989799Y-12523147D02*
X10008846Y-12542194D01*
X10008846Y-12542194D02*
X10018370Y-12561242D01*
X10018370Y-12561242D02*
X10027894Y-12599337D01*
X10027894Y-12599337D02*
X10027894Y-12627909D01*
X10027894Y-12627909D02*
X10018370Y-12666004D01*
X10018370Y-12666004D02*
X10008846Y-12685052D01*
X10008846Y-12685052D02*
X9989799Y-12704099D01*
X9989799Y-12704099D02*
X9961227Y-12713623D01*
X9961227Y-12713623D02*
X9913608Y-12713623D01*
X10113608Y-12713623D02*
X10113608Y-12580290D01*
X10113608Y-12618385D02*
X10123132Y-12599337D01*
X10123132Y-12599337D02*
X10132656Y-12589813D01*
X10132656Y-12589813D02*
X10151704Y-12580290D01*
X10151704Y-12580290D02*
X10170751Y-12580290D01*
X10237418Y-12713623D02*
X10237418Y-12580290D01*
X10237418Y-12513623D02*
X10227894Y-12523147D01*
X10227894Y-12523147D02*
X10237418Y-12532671D01*
X10237418Y-12532671D02*
X10246942Y-12523147D01*
X10246942Y-12523147D02*
X10237418Y-12513623D01*
X10237418Y-12513623D02*
X10237418Y-12532671D01*
X10361227Y-12713623D02*
X10342180Y-12704099D01*
X10342180Y-12704099D02*
X10332656Y-12685052D01*
X10332656Y-12685052D02*
X10332656Y-12513623D01*
X10465989Y-12713623D02*
X10446942Y-12704099D01*
X10446942Y-12704099D02*
X10437418Y-12685052D01*
X10437418Y-12685052D02*
X10437418Y-12513623D01*
X10694561Y-12713623D02*
X10694561Y-12513623D01*
X10694561Y-12513623D02*
X10761227Y-12656480D01*
X10761227Y-12656480D02*
X10827894Y-12513623D01*
X10827894Y-12513623D02*
X10827894Y-12713623D01*
X11008846Y-12713623D02*
X11008846Y-12608861D01*
X11008846Y-12608861D02*
X10999323Y-12589813D01*
X10999323Y-12589813D02*
X10980275Y-12580290D01*
X10980275Y-12580290D02*
X10942180Y-12580290D01*
X10942180Y-12580290D02*
X10923132Y-12589813D01*
X11008846Y-12704099D02*
X10989799Y-12713623D01*
X10989799Y-12713623D02*
X10942180Y-12713623D01*
X10942180Y-12713623D02*
X10923132Y-12704099D01*
X10923132Y-12704099D02*
X10913608Y-12685052D01*
X10913608Y-12685052D02*
X10913608Y-12666004D01*
X10913608Y-12666004D02*
X10923132Y-12646956D01*
X10923132Y-12646956D02*
X10942180Y-12637433D01*
X10942180Y-12637433D02*
X10989799Y-12637433D01*
X10989799Y-12637433D02*
X11008846Y-12627909D01*
X11104085Y-12580290D02*
X11104085Y-12780290D01*
X11104085Y-12589813D02*
X11123132Y-12580290D01*
X11123132Y-12580290D02*
X11161227Y-12580290D01*
X11161227Y-12580290D02*
X11180275Y-12589813D01*
X11180275Y-12589813D02*
X11189799Y-12599337D01*
X11189799Y-12599337D02*
X11199323Y-12618385D01*
X11199323Y-12618385D02*
X11199323Y-12675528D01*
X11199323Y-12675528D02*
X11189799Y-12694575D01*
X11189799Y-12694575D02*
X11180275Y-12704099D01*
X11180275Y-12704099D02*
X11161227Y-12713623D01*
X11161227Y-12713623D02*
X11123132Y-12713623D01*
X11123132Y-12713623D02*
X11104085Y-12704099D01*
X11285037Y-12694575D02*
X11294561Y-12704099D01*
X11294561Y-12704099D02*
X11285037Y-12713623D01*
X11285037Y-12713623D02*
X11275513Y-12704099D01*
X11275513Y-12704099D02*
X11285037Y-12694575D01*
X11285037Y-12694575D02*
X11285037Y-12713623D01*
X11285037Y-12589813D02*
X11294561Y-12599337D01*
X11294561Y-12599337D02*
X11285037Y-12608861D01*
X11285037Y-12608861D02*
X11275513Y-12599337D01*
X11275513Y-12599337D02*
X11285037Y-12589813D01*
X11285037Y-12589813D02*
X11285037Y-12608861D01*
M02*
