%TF.GenerationSoftware,KiCad,Pcbnew,7.0.2-6a45011f42~172~ubuntu20.04.1*%
%TF.CreationDate,2023-04-23T21:34:21-07:00*%
%TF.ProjectId,SX1280_USB_Adapter,53583132-3830-45f5-9553-425f41646170,rev?*%
%TF.SameCoordinates,Original*%
%TF.FileFunction,Copper,L4,Bot*%
%TF.FilePolarity,Positive*%
%FSLAX46Y46*%
G04 Gerber Fmt 4.6, Leading zero omitted, Abs format (unit mm)*
G04 Created by KiCad (PCBNEW 7.0.2-6a45011f42~172~ubuntu20.04.1) date 2023-04-23 21:34:21*
%MOMM*%
%LPD*%
G01*
G04 APERTURE LIST*
%TA.AperFunction,ComponentPad*%
%ADD10R,1.700000X1.700000*%
%TD*%
%TA.AperFunction,ComponentPad*%
%ADD11O,1.700000X1.700000*%
%TD*%
%TA.AperFunction,SMDPad,CuDef*%
%ADD12R,0.800000X2.000000*%
%TD*%
%TA.AperFunction,ViaPad*%
%ADD13C,0.800000*%
%TD*%
%TA.AperFunction,Conductor*%
%ADD14C,0.500000*%
%TD*%
%TA.AperFunction,Conductor*%
%ADD15C,0.300000*%
%TD*%
G04 APERTURE END LIST*
D10*
%TO.P,J2,1,Pin_1*%
%TO.N,/MISO*%
X110109000Y-120396000D03*
D11*
%TO.P,J2,2,Pin_2*%
%TO.N,/MOSI*%
X112649000Y-120396000D03*
%TO.P,J2,3,Pin_3*%
%TO.N,/CS*%
X115189000Y-120396000D03*
%TO.P,J2,4,Pin_4*%
%TO.N,/CLK*%
X117729000Y-120396000D03*
%TD*%
D12*
%TO.P,U3,1,VCC*%
%TO.N,/3V3*%
X134810000Y-121750000D03*
%TO.P,U3,2,GND*%
%TO.N,/GND*%
X133540000Y-121750000D03*
%TO.P,U3,3,MISO*%
%TO.N,/MISO*%
X132210000Y-121750000D03*
%TO.P,U3,4,MOSI*%
%TO.N,/MOSI*%
X130940000Y-121750000D03*
%TO.P,U3,5,SCK*%
%TO.N,/CLK*%
X129670000Y-121750000D03*
%TO.P,U3,6,NSS*%
%TO.N,/CS*%
X128400000Y-121750000D03*
%TO.P,U3,7,GND*%
%TO.N,/GND*%
X127130000Y-121750000D03*
%TO.P,U3,8,GND*%
X127190000Y-106650000D03*
%TO.P,U3,9,nReset*%
%TO.N,Net-(U3-nReset)*%
X128460000Y-106650000D03*
%TO.P,U3,10,BUSY*%
%TO.N,unconnected-(U3-BUSY-Pad10)*%
X129730000Y-106650000D03*
%TO.P,U3,11,DIO1*%
%TO.N,Net-(U3-DIO1)*%
X131000000Y-106650000D03*
%TO.P,U3,12,DIO2*%
%TO.N,Net-(U3-DIO2)*%
X132270000Y-106650000D03*
%TO.P,U3,13,DIO3*%
%TO.N,unconnected-(U3-DIO3-Pad13)*%
X133540000Y-106650000D03*
%TO.P,U3,14,GND*%
%TO.N,/GND*%
X134810000Y-106650000D03*
%TD*%
D13*
%TO.N,/5V*%
X140462000Y-123317000D03*
X137370000Y-117304000D03*
X108966000Y-117856000D03*
X107696000Y-117856000D03*
X106426000Y-117856000D03*
%TO.N,/3V3*%
X111759500Y-105157500D03*
X113792000Y-114046000D03*
X112522000Y-114046000D03*
X115062000Y-114046000D03*
X129151341Y-105056519D03*
X134810000Y-114300000D03*
X119000000Y-112500000D03*
%TO.N,/CLK*%
X126238000Y-116840000D03*
%TO.N,/CS*%
X123698000Y-116840000D03*
%TO.N,/MOSI*%
X127139500Y-115938500D03*
%TO.N,/MISO*%
X129794000Y-115189000D03*
%TO.N,/USB D-*%
X106250000Y-115250000D03*
X125878977Y-113686977D03*
%TO.N,/USB D+*%
X106246000Y-112746000D03*
X125857000Y-111252000D03*
%TO.N,Net-(U3-nReset)*%
X128143000Y-105029000D03*
%TO.N,/GND*%
X119000000Y-115500000D03*
X118700000Y-105900000D03*
X139000000Y-108000000D03*
X137795000Y-122707500D03*
X106500000Y-110250000D03*
X123400000Y-111250000D03*
X126746000Y-105029000D03*
X107750000Y-110250000D03*
X109000000Y-110250000D03*
X126027000Y-121750000D03*
X134366000Y-105156000D03*
X133540000Y-117000000D03*
X136092940Y-117306550D03*
%TO.N,Net-(U3-DIO1)*%
X140000000Y-108000000D03*
%TO.N,Net-(U3-DIO2)*%
X136000000Y-107975500D03*
%TD*%
D14*
%TO.N,/3V3*%
X134810000Y-114300000D02*
X134810000Y-121750000D01*
D15*
%TO.N,/CLK*%
X129670000Y-119510000D02*
X129670000Y-121750000D01*
X126238000Y-116840000D02*
X127000000Y-116840000D01*
X127000000Y-116840000D02*
X129670000Y-119510000D01*
%TO.N,/CS*%
X123698000Y-116840000D02*
X124688500Y-116840000D01*
X123698000Y-116840000D02*
X122135000Y-116840000D01*
X124688500Y-116840000D02*
X128400000Y-120551500D01*
X116533000Y-118925000D02*
X115189000Y-120269000D01*
X115189000Y-120269000D02*
X115189000Y-120396000D01*
X120050000Y-118925000D02*
X116533000Y-118925000D01*
X128400000Y-120551500D02*
X128400000Y-121750000D01*
X122135000Y-116840000D02*
X120050000Y-118925000D01*
%TO.N,/MOSI*%
X114768000Y-118150000D02*
X112649000Y-120269000D01*
X121249000Y-115951000D02*
X119050000Y-118150000D01*
X127139500Y-115938500D02*
X127127000Y-115951000D01*
X130940000Y-118690000D02*
X130940000Y-121750000D01*
X119050000Y-118150000D02*
X114768000Y-118150000D01*
X127139500Y-115938500D02*
X128188500Y-115938500D01*
X112649000Y-120269000D02*
X112649000Y-120396000D01*
X127127000Y-115951000D02*
X121249000Y-115951000D01*
X128188500Y-115938500D02*
X130940000Y-118690000D01*
%TO.N,/MISO*%
X130339000Y-115189000D02*
X132210000Y-117060000D01*
X118300000Y-117325000D02*
X113180000Y-117325000D01*
X132210000Y-117060000D02*
X132210000Y-121750000D01*
X129794000Y-115189000D02*
X120436000Y-115189000D01*
X129794000Y-115189000D02*
X130339000Y-115189000D01*
X120436000Y-115189000D02*
X118300000Y-117325000D01*
X113180000Y-117325000D02*
X110109000Y-120396000D01*
%TO.N,/USB D-*%
X118504090Y-110130000D02*
X114286910Y-110130000D01*
X110141910Y-114275000D02*
X107225000Y-114275000D01*
X125371954Y-114194000D02*
X122568090Y-114194000D01*
X107225000Y-114275000D02*
X106250000Y-115250000D01*
X122568090Y-114194000D02*
X118504090Y-110130000D01*
X125878977Y-113686977D02*
X125371954Y-114194000D01*
X114286910Y-110130000D02*
X110141910Y-114275000D01*
%TO.N,/USB D+*%
X107225000Y-113725000D02*
X109914090Y-113725000D01*
X125857000Y-112649000D02*
X125857000Y-111252000D01*
X124862000Y-113219736D02*
X124617646Y-112975382D01*
X109914090Y-113725000D02*
X114059090Y-109580000D01*
X122795910Y-113644000D02*
X124862000Y-113644000D01*
X118731910Y-109580000D02*
X122795910Y-113644000D01*
X125710531Y-112795472D02*
X125710530Y-112795471D01*
X125041912Y-112551117D02*
X125286267Y-112795472D01*
X124617646Y-112551118D02*
X124617648Y-112551117D01*
X125710530Y-112795471D02*
X125857000Y-112649000D01*
X114059090Y-109580000D02*
X118731910Y-109580000D01*
X106246000Y-112746000D02*
X107225000Y-113725000D01*
X125286268Y-112795471D02*
G75*
G03*
X125710530Y-112795471I212131J212131D01*
G01*
X125041911Y-112551118D02*
G75*
G03*
X124617649Y-112551118I-212131J-212131D01*
G01*
X124617696Y-112551168D02*
G75*
G03*
X124617646Y-112975382I212104J-212132D01*
G01*
X124862031Y-113644031D02*
G75*
G03*
X124861999Y-113219737I-212131J212131D01*
G01*
%TO.N,Net-(U3-nReset)*%
X128143000Y-105029000D02*
X128460000Y-105346000D01*
X128460000Y-105346000D02*
X128460000Y-106650000D01*
%TO.N,/GND*%
X127088000Y-105371000D02*
X127088000Y-106319000D01*
D14*
X133540000Y-121750000D02*
X133540000Y-117000000D01*
X134366000Y-105156000D02*
X134810000Y-105600000D01*
X134810000Y-105600000D02*
X134810000Y-106650000D01*
X126027000Y-121750000D02*
X127130000Y-121750000D01*
X134810000Y-106650000D02*
X134810000Y-105854000D01*
D15*
X126746000Y-105029000D02*
X127088000Y-105371000D01*
%TO.N,Net-(U3-DIO1)*%
X131000000Y-106650000D02*
X131000000Y-107886000D01*
X132334000Y-109220000D02*
X138840661Y-109220000D01*
X138840661Y-109220000D02*
X140000000Y-108060661D01*
X140000000Y-108060661D02*
X140000000Y-108000000D01*
X131000000Y-107886000D02*
X132334000Y-109220000D01*
%TO.N,Net-(U3-DIO2)*%
X135575500Y-108400000D02*
X132739500Y-108400000D01*
X136000000Y-107975500D02*
X135575500Y-108400000D01*
X132270000Y-106650000D02*
X132270000Y-107930500D01*
X132739500Y-108400000D02*
X132270000Y-107930500D01*
%TD*%
M02*
