%TF.GenerationSoftware,KiCad,Pcbnew,6.0.9-8da3e8f707~117~ubuntu20.04.1*%
%TF.CreationDate,2023-01-01T11:50:09-08:00*%
%TF.ProjectId,BoardyMcBoardFace,426f6172-6479-44d6-9342-6f6172644661,rev?*%
%TF.SameCoordinates,Original*%
%TF.FileFunction,Soldermask,Top*%
%TF.FilePolarity,Negative*%
%FSLAX46Y46*%
G04 Gerber Fmt 4.6, Leading zero omitted, Abs format (unit mm)*
G04 Created by KiCad (PCBNEW 6.0.9-8da3e8f707~117~ubuntu20.04.1) date 2023-01-01 11:50:09*
%MOMM*%
%LPD*%
G01*
G04 APERTURE LIST*
G04 Aperture macros list*
%AMRoundRect*
0 Rectangle with rounded corners*
0 $1 Rounding radius*
0 $2 $3 $4 $5 $6 $7 $8 $9 X,Y pos of 4 corners*
0 Add a 4 corners polygon primitive as box body*
4,1,4,$2,$3,$4,$5,$6,$7,$8,$9,$2,$3,0*
0 Add four circle primitives for the rounded corners*
1,1,$1+$1,$2,$3*
1,1,$1+$1,$4,$5*
1,1,$1+$1,$6,$7*
1,1,$1+$1,$8,$9*
0 Add four rect primitives between the rounded corners*
20,1,$1+$1,$2,$3,$4,$5,0*
20,1,$1+$1,$4,$5,$6,$7,0*
20,1,$1+$1,$6,$7,$8,$9,0*
20,1,$1+$1,$8,$9,$2,$3,0*%
G04 Aperture macros list end*
%ADD10C,0.200000*%
%ADD11RoundRect,0.062500X0.350000X0.062500X-0.350000X0.062500X-0.350000X-0.062500X0.350000X-0.062500X0*%
%ADD12RoundRect,0.062500X0.062500X0.350000X-0.062500X0.350000X-0.062500X-0.350000X0.062500X-0.350000X0*%
%ADD13R,2.500000X2.500000*%
%ADD14RoundRect,0.135000X0.185000X-0.135000X0.185000X0.135000X-0.185000X0.135000X-0.185000X-0.135000X0*%
%ADD15RoundRect,0.147500X-0.172500X0.147500X-0.172500X-0.147500X0.172500X-0.147500X0.172500X0.147500X0*%
%ADD16RoundRect,0.147500X0.172500X-0.147500X0.172500X0.147500X-0.172500X0.147500X-0.172500X-0.147500X0*%
%ADD17RoundRect,0.243750X-0.243750X-0.456250X0.243750X-0.456250X0.243750X0.456250X-0.243750X0.456250X0*%
%ADD18RoundRect,0.140000X0.170000X-0.140000X0.170000X0.140000X-0.170000X0.140000X-0.170000X-0.140000X0*%
%ADD19RoundRect,0.075000X-0.075000X0.662500X-0.075000X-0.662500X0.075000X-0.662500X0.075000X0.662500X0*%
%ADD20RoundRect,0.075000X-0.662500X0.075000X-0.662500X-0.075000X0.662500X-0.075000X0.662500X0.075000X0*%
%ADD21R,1.500000X0.900000*%
%ADD22RoundRect,0.135000X-0.135000X-0.185000X0.135000X-0.185000X0.135000X0.185000X-0.135000X0.185000X0*%
%ADD23RoundRect,0.140000X0.140000X0.170000X-0.140000X0.170000X-0.140000X-0.170000X0.140000X-0.170000X0*%
%ADD24RoundRect,0.140000X-0.140000X-0.170000X0.140000X-0.170000X0.140000X0.170000X-0.140000X0.170000X0*%
%ADD25R,1.000000X1.000000*%
%ADD26RoundRect,0.135000X-0.185000X0.135000X-0.185000X-0.135000X0.185000X-0.135000X0.185000X0.135000X0*%
%ADD27RoundRect,0.150000X-0.512500X-0.150000X0.512500X-0.150000X0.512500X0.150000X-0.512500X0.150000X0*%
%ADD28R,1.800000X1.800000*%
%ADD29C,1.800000*%
%ADD30RoundRect,0.150000X-0.825000X-0.150000X0.825000X-0.150000X0.825000X0.150000X-0.825000X0.150000X0*%
%ADD31RoundRect,0.140000X-0.170000X0.140000X-0.170000X-0.140000X0.170000X-0.140000X0.170000X0.140000X0*%
%ADD32C,5.703200*%
%ADD33RoundRect,0.101600X1.250000X-0.175000X1.250000X0.175000X-1.250000X0.175000X-1.250000X-0.175000X0*%
%ADD34O,1.000000X1.000000*%
%ADD35R,0.450000X1.380000*%
%ADD36R,1.800000X1.900000*%
%ADD37R,1.425000X1.550000*%
%ADD38R,1.650000X1.300000*%
%ADD39R,1.000000X1.900000*%
%ADD40R,1.400000X1.200000*%
%ADD41C,1.440000*%
%ADD42RoundRect,0.200000X-0.800000X0.200000X-0.800000X-0.200000X0.800000X-0.200000X0.800000X0.200000X0*%
%ADD43RoundRect,0.150000X0.825000X0.150000X-0.825000X0.150000X-0.825000X-0.150000X0.825000X-0.150000X0*%
%ADD44R,2.000000X1.500000*%
%ADD45R,2.000000X3.800000*%
%ADD46RoundRect,0.250000X0.475000X-0.250000X0.475000X0.250000X-0.475000X0.250000X-0.475000X-0.250000X0*%
%ADD47RoundRect,0.150000X-0.150000X0.512500X-0.150000X-0.512500X0.150000X-0.512500X0.150000X0.512500X0*%
%ADD48RoundRect,0.147500X0.147500X0.172500X-0.147500X0.172500X-0.147500X-0.172500X0.147500X-0.172500X0*%
%ADD49RoundRect,0.135000X0.135000X0.185000X-0.135000X0.185000X-0.135000X-0.185000X0.135000X-0.185000X0*%
%ADD50RoundRect,0.243750X0.243750X0.456250X-0.243750X0.456250X-0.243750X-0.456250X0.243750X-0.456250X0*%
%ADD51R,3.600000X1.270000*%
%ADD52R,4.200000X1.350000*%
%ADD53RoundRect,0.147500X-0.147500X-0.172500X0.147500X-0.172500X0.147500X0.172500X-0.147500X0.172500X0*%
%ADD54C,0.800000*%
%ADD55C,0.700000*%
G04 APERTURE END LIST*
D10*
G36*
X120523000Y-104978200D02*
G01*
X119659400Y-104978200D01*
X119659400Y-99949000D01*
X109601000Y-99949000D01*
X109601000Y-103251000D01*
X108737400Y-103251000D01*
X108737449Y-99089009D01*
X120523008Y-99085040D01*
X120523000Y-104978200D01*
G37*
X120523000Y-104978200D02*
X119659400Y-104978200D01*
X119659400Y-99949000D01*
X109601000Y-99949000D01*
X109601000Y-103251000D01*
X108737400Y-103251000D01*
X108737449Y-99089009D01*
X120523008Y-99085040D01*
X120523000Y-104978200D01*
G36*
X120391838Y-115900103D02*
G01*
X108635584Y-115900197D01*
X108637763Y-111757693D01*
X109474000Y-111760000D01*
X109474000Y-115112800D01*
X119557800Y-115112800D01*
X119557800Y-108940600D01*
X120395893Y-108940503D01*
X120391838Y-115900103D01*
G37*
X120391838Y-115900103D02*
X108635584Y-115900197D01*
X108637763Y-111757693D01*
X109474000Y-111760000D01*
X109474000Y-115112800D01*
X119557800Y-115112800D01*
X119557800Y-108940600D01*
X120395893Y-108940503D01*
X120391838Y-115900103D01*
D11*
%TO.C,U1*%
X126135500Y-108663500D03*
X126135500Y-108163500D03*
X126135500Y-107663500D03*
X126135500Y-107163500D03*
X126135500Y-106663500D03*
D12*
X125198000Y-105726000D03*
X124698000Y-105726000D03*
X124198000Y-105726000D03*
X123698000Y-105726000D03*
X123198000Y-105726000D03*
D11*
X122260500Y-106663500D03*
X122260500Y-107163500D03*
X122260500Y-107663500D03*
X122260500Y-108163500D03*
X122260500Y-108663500D03*
D12*
X123198000Y-109601000D03*
X123698000Y-109601000D03*
X124198000Y-109601000D03*
X124698000Y-109601000D03*
X125198000Y-109601000D03*
D13*
X124198000Y-107663500D03*
%TD*%
D14*
%TO.C,R6*%
X155194000Y-110238000D03*
X155194000Y-109218000D03*
%TD*%
D15*
%TO.C,D2*%
X157226000Y-109243000D03*
X157226000Y-110213000D03*
%TD*%
D16*
%TO.C,L2*%
X120904000Y-107927000D03*
X120904000Y-106957000D03*
%TD*%
D17*
%TO.C,D5*%
X188952900Y-114147600D03*
X190827900Y-114147600D03*
%TD*%
D18*
%TO.C,C26*%
X197485000Y-120368000D03*
X197485000Y-119408000D03*
%TD*%
D19*
%TO.C,U2*%
X183090000Y-104803500D03*
X182590000Y-104803500D03*
X182090000Y-104803500D03*
X181590000Y-104803500D03*
X181090000Y-104803500D03*
X180590000Y-104803500D03*
X180090000Y-104803500D03*
X179590000Y-104803500D03*
X179090000Y-104803500D03*
X178590000Y-104803500D03*
X178090000Y-104803500D03*
X177590000Y-104803500D03*
D20*
X176177500Y-106216000D03*
X176177500Y-106716000D03*
X176177500Y-107216000D03*
X176177500Y-107716000D03*
X176177500Y-108216000D03*
X176177500Y-108716000D03*
X176177500Y-109216000D03*
X176177500Y-109716000D03*
X176177500Y-110216000D03*
X176177500Y-110716000D03*
X176177500Y-111216000D03*
X176177500Y-111716000D03*
D19*
X177590000Y-113128500D03*
X178090000Y-113128500D03*
X178590000Y-113128500D03*
X179090000Y-113128500D03*
X179590000Y-113128500D03*
X180090000Y-113128500D03*
X180590000Y-113128500D03*
X181090000Y-113128500D03*
X181590000Y-113128500D03*
X182090000Y-113128500D03*
X182590000Y-113128500D03*
X183090000Y-113128500D03*
D20*
X184502500Y-111716000D03*
X184502500Y-111216000D03*
X184502500Y-110716000D03*
X184502500Y-110216000D03*
X184502500Y-109716000D03*
X184502500Y-109216000D03*
X184502500Y-108716000D03*
X184502500Y-108216000D03*
X184502500Y-107716000D03*
X184502500Y-107216000D03*
X184502500Y-106716000D03*
X184502500Y-106216000D03*
%TD*%
D21*
%TO.C,D15*%
X132043000Y-117476000D03*
X132043000Y-120776000D03*
X136943000Y-120776000D03*
X136943000Y-117476000D03*
%TD*%
D22*
%TO.C,R4*%
X162304000Y-105918000D03*
X163324000Y-105918000D03*
%TD*%
D23*
%TO.C,C7*%
X174978000Y-103618000D03*
X174018000Y-103618000D03*
%TD*%
D24*
%TO.C,C16*%
X125292800Y-110813100D03*
X126252800Y-110813100D03*
%TD*%
D25*
%TO.C,TP1*%
X171196000Y-100076000D03*
%TD*%
%TO.C,TP3*%
X198628000Y-114300000D03*
%TD*%
D24*
%TO.C,C23*%
X117884000Y-104902000D03*
X118844000Y-104902000D03*
%TD*%
D23*
%TO.C,C9*%
X124297000Y-110813100D03*
X123337000Y-110813100D03*
%TD*%
D24*
%TO.C,C22*%
X117884000Y-105918000D03*
X118844000Y-105918000D03*
%TD*%
D26*
%TO.C,R13*%
X145542000Y-108964000D03*
X145542000Y-109984000D03*
%TD*%
D27*
%TO.C,U8*%
X173665300Y-114620000D03*
X173665300Y-115570000D03*
X173665300Y-116520000D03*
X175940300Y-116520000D03*
X175940300Y-115570000D03*
X175940300Y-114620000D03*
%TD*%
D18*
%TO.C,C14*%
X121581800Y-102588000D03*
X121581800Y-101628000D03*
%TD*%
D26*
%TO.C,R2*%
X122318400Y-110785700D03*
X122318400Y-111805700D03*
%TD*%
D21*
%TO.C,D11*%
X161537498Y-117476000D03*
X161537498Y-120776000D03*
X166437498Y-120776000D03*
X166437498Y-117476000D03*
%TD*%
D26*
%TO.C,R10*%
X146558000Y-105918000D03*
X146558000Y-106938000D03*
%TD*%
D28*
%TO.C,D4*%
X152580000Y-102108000D03*
D29*
X155120000Y-102108000D03*
%TD*%
D28*
%TO.C,D3*%
X159464000Y-102108000D03*
D29*
X162004000Y-102108000D03*
%TD*%
D18*
%TO.C,C5*%
X184708800Y-105280400D03*
X184708800Y-104320400D03*
%TD*%
D30*
%TO.C,U9*%
X192901800Y-99593400D03*
X192901800Y-100863400D03*
X192901800Y-102133400D03*
X192901800Y-103403400D03*
X197851800Y-103403400D03*
X197851800Y-102133400D03*
X197851800Y-100863400D03*
X197851800Y-99593400D03*
%TD*%
D21*
%TO.C,D18*%
X110199000Y-117476000D03*
X110199000Y-120776000D03*
X115099000Y-120776000D03*
X115099000Y-117476000D03*
%TD*%
D24*
%TO.C,C19*%
X116868000Y-108069900D03*
X117828000Y-108069900D03*
%TD*%
D31*
%TO.C,C17*%
X183134000Y-101120000D03*
X183134000Y-102080000D03*
%TD*%
D32*
%TO.C,U$1*%
X138627800Y-110892400D03*
D33*
X202127800Y-101392400D03*
X202127800Y-101892400D03*
X202127800Y-102392400D03*
X202127800Y-102892400D03*
X202127800Y-103392400D03*
X202127800Y-103892400D03*
X202127800Y-106392400D03*
X202127800Y-106892400D03*
X202127800Y-107392400D03*
X202127800Y-107892400D03*
X202127800Y-108392400D03*
X202127800Y-108892400D03*
X202127800Y-109392400D03*
X202127800Y-109892400D03*
X202127800Y-110392400D03*
X202127800Y-110892400D03*
X202127800Y-111392400D03*
X202127800Y-111892400D03*
X202127800Y-112392400D03*
X202127800Y-112892400D03*
X202127800Y-113392400D03*
X202127800Y-113892400D03*
X202127800Y-114392400D03*
X202127800Y-114892400D03*
X202127800Y-115392400D03*
X202127800Y-115892400D03*
X202127800Y-116392400D03*
X202127800Y-116892400D03*
X202127800Y-117392400D03*
X202127800Y-117892400D03*
X202127800Y-118392400D03*
X202127800Y-118892400D03*
X202127800Y-119392400D03*
X202127800Y-119892400D03*
%TD*%
D25*
%TO.C,J5*%
X133055600Y-107924600D03*
D34*
X134325600Y-107924600D03*
%TD*%
D21*
%TO.C,D14*%
X139409000Y-117476000D03*
X139409000Y-120776000D03*
X144309000Y-120776000D03*
X144309000Y-117476000D03*
%TD*%
D18*
%TO.C,C3*%
X186740800Y-105280400D03*
X186740800Y-104320400D03*
%TD*%
D21*
%TO.C,D13*%
X146775000Y-117476000D03*
X146775000Y-120776000D03*
X151675000Y-120776000D03*
X151675000Y-117476000D03*
%TD*%
D16*
%TO.C,D8*%
X144526000Y-109959000D03*
X144526000Y-108989000D03*
%TD*%
D35*
%TO.C,J3*%
X170861200Y-118488400D03*
X171511200Y-118488400D03*
X172161200Y-118488400D03*
X172811200Y-118488400D03*
X173461200Y-118488400D03*
D36*
X171011200Y-121148400D03*
D37*
X174648700Y-118573400D03*
D38*
X175536200Y-121148400D03*
D39*
X173711200Y-121148400D03*
D37*
X169673700Y-118573400D03*
D38*
X168786200Y-121148400D03*
%TD*%
D25*
%TO.C,JP2*%
X171196000Y-111760000D03*
D34*
X171196000Y-110490000D03*
X171196000Y-109220000D03*
%TD*%
D31*
%TO.C,C25*%
X156210000Y-106218000D03*
X156210000Y-107178000D03*
%TD*%
D18*
%TO.C,C1*%
X188772800Y-105280400D03*
X188772800Y-104320400D03*
%TD*%
D40*
%TO.C,Y1*%
X123182000Y-102925500D03*
X125382000Y-102925500D03*
X125382000Y-101225500D03*
X123182000Y-101225500D03*
%TD*%
D41*
%TO.C,RV2*%
X135128000Y-104902000D03*
X132588000Y-102362000D03*
X135128000Y-99822000D03*
%TD*%
D31*
%TO.C,C12*%
X126331600Y-111788000D03*
X126331600Y-112748000D03*
%TD*%
D18*
%TO.C,C18*%
X177546000Y-102080000D03*
X177546000Y-101120000D03*
%TD*%
D21*
%TO.C,D17*%
X117311000Y-117476000D03*
X117311000Y-120776000D03*
X122211000Y-120776000D03*
X122211000Y-117476000D03*
%TD*%
D42*
%TO.C,SW1*%
X165862000Y-108644000D03*
X165862000Y-112844000D03*
%TD*%
D28*
%TO.C,D9*%
X141362000Y-102108000D03*
D29*
X138822000Y-102108000D03*
%TD*%
D14*
%TO.C,R3*%
X193040000Y-105666000D03*
X193040000Y-104646000D03*
%TD*%
D24*
%TO.C,C8*%
X174018000Y-101586000D03*
X174978000Y-101586000D03*
%TD*%
D28*
%TO.C,D10*%
X148246000Y-102108000D03*
D29*
X145706000Y-102108000D03*
%TD*%
D14*
%TO.C,R8*%
X156210000Y-110238000D03*
X156210000Y-109218000D03*
%TD*%
D23*
%TO.C,C10*%
X124297000Y-111829100D03*
X123337000Y-111829100D03*
%TD*%
D25*
%TO.C,J4*%
X185786000Y-100177600D03*
D34*
X187056000Y-100177600D03*
%TD*%
D43*
%TO.C,U4*%
X153351000Y-110109000D03*
X153351000Y-108839000D03*
X153351000Y-107569000D03*
X153351000Y-106299000D03*
X148401000Y-106299000D03*
X148401000Y-107569000D03*
X148401000Y-108839000D03*
X148401000Y-110109000D03*
%TD*%
D18*
%TO.C,C4*%
X185724800Y-105280400D03*
X185724800Y-104320400D03*
%TD*%
%TO.C,C2*%
X187756800Y-105280400D03*
X187756800Y-104320400D03*
%TD*%
D44*
%TO.C,U6*%
X186842800Y-121047600D03*
D45*
X180542800Y-118747600D03*
D44*
X186842800Y-118747600D03*
X186842800Y-116447600D03*
%TD*%
D31*
%TO.C,C30*%
X191008000Y-100967600D03*
X191008000Y-101927600D03*
%TD*%
D21*
%TO.C,D12*%
X154141000Y-117476000D03*
X154141000Y-120776000D03*
X159041000Y-120776000D03*
X159041000Y-117476000D03*
%TD*%
D25*
%TO.C,TP4*%
X171196000Y-103886000D03*
%TD*%
D23*
%TO.C,C6*%
X174950000Y-104634000D03*
X173990000Y-104634000D03*
%TD*%
D46*
%TO.C,C27*%
X178104800Y-121602600D03*
X178104800Y-119702600D03*
%TD*%
D31*
%TO.C,C11*%
X125315600Y-111788000D03*
X125315600Y-112748000D03*
%TD*%
D47*
%TO.C,U7*%
X192770800Y-108996900D03*
X191820800Y-108996900D03*
X190870800Y-108996900D03*
X190870800Y-111271900D03*
X191820800Y-111271900D03*
X192770800Y-111271900D03*
%TD*%
%TO.C,U3*%
X189265600Y-108996900D03*
X188315600Y-108996900D03*
X187365600Y-108996900D03*
X187365600Y-111271900D03*
X188315600Y-111271900D03*
X189265600Y-111271900D03*
%TD*%
D48*
%TO.C,L1*%
X119865000Y-108069900D03*
X118895000Y-108069900D03*
%TD*%
D26*
%TO.C,R11*%
X146558000Y-108962000D03*
X146558000Y-109982000D03*
%TD*%
D24*
%TO.C,C20*%
X191036000Y-112699800D03*
X191996000Y-112699800D03*
%TD*%
D31*
%TO.C,C29*%
X145542000Y-105946000D03*
X145542000Y-106906000D03*
%TD*%
D25*
%TO.C,J2*%
X196748400Y-110744000D03*
D34*
X195478400Y-110744000D03*
X196748400Y-109474000D03*
X195478400Y-109474000D03*
X196748400Y-108204000D03*
X195478400Y-108204000D03*
X196748400Y-106934000D03*
X195478400Y-106934000D03*
X196748400Y-105664000D03*
X195478400Y-105664000D03*
%TD*%
D49*
%TO.C,R1*%
X123954000Y-104394000D03*
X122934000Y-104394000D03*
%TD*%
D50*
%TO.C,D6*%
X187119500Y-114173000D03*
X185244500Y-114173000D03*
%TD*%
D25*
%TO.C,JP1*%
X191008000Y-106705400D03*
D34*
X191008000Y-105435400D03*
%TD*%
D49*
%TO.C,R15*%
X191010000Y-99263200D03*
X189990000Y-99263200D03*
%TD*%
%TO.C,R9*%
X138432000Y-105918000D03*
X137412000Y-105918000D03*
%TD*%
D44*
%TO.C,U5*%
X195732800Y-121047600D03*
D45*
X189432800Y-118747600D03*
D44*
X195732800Y-118747600D03*
X195732800Y-116447600D03*
%TD*%
D41*
%TO.C,RV1*%
X168148000Y-104900000D03*
X165608000Y-102360000D03*
X168148000Y-99820000D03*
%TD*%
D40*
%TO.C,Y2*%
X181440000Y-100750000D03*
X179240000Y-100750000D03*
X179240000Y-102450000D03*
X181440000Y-102450000D03*
%TD*%
D18*
%TO.C,C21*%
X115824000Y-109007100D03*
X115824000Y-108047100D03*
%TD*%
D31*
%TO.C,C13*%
X168097200Y-112880200D03*
X168097200Y-113840200D03*
%TD*%
D26*
%TO.C,R5*%
X155194000Y-106168000D03*
X155194000Y-107188000D03*
%TD*%
D21*
%TO.C,D16*%
X124677000Y-117476000D03*
X124677000Y-120776000D03*
X129577000Y-120776000D03*
X129577000Y-117476000D03*
%TD*%
D15*
%TO.C,L3*%
X119888000Y-105941000D03*
X119888000Y-106911000D03*
%TD*%
D51*
%TO.C,J1*%
X110290000Y-107543600D03*
D52*
X110490000Y-104718600D03*
X110490000Y-110368600D03*
%TD*%
D31*
%TO.C,C15*%
X127000000Y-101628000D03*
X127000000Y-102588000D03*
%TD*%
D53*
%TO.C,FB1*%
X174013000Y-102602000D03*
X174983000Y-102602000D03*
%TD*%
D54*
X127988762Y-104687098D03*
X121581800Y-100668200D03*
X178562000Y-106457500D03*
X120650000Y-120777000D03*
X156210000Y-108204000D03*
X188874400Y-103327200D03*
X120091200Y-99517200D03*
X141541500Y-103568500D03*
X109169200Y-102819200D03*
X119989600Y-109372400D03*
X192847284Y-107757284D03*
X200152000Y-118618000D03*
X114452401Y-115508017D03*
X179197000Y-121602600D03*
X119989600Y-113974112D03*
X109067600Y-112162673D03*
X165862000Y-109728000D03*
X178765200Y-99568000D03*
X186842400Y-103327200D03*
X148082000Y-103505000D03*
X142875000Y-120777000D03*
X172974000Y-104634000D03*
D55*
X121342104Y-108900138D03*
D54*
X174737268Y-115509323D03*
X126359854Y-104607664D03*
X120091200Y-102862544D03*
X185343800Y-121602600D03*
X126111000Y-109804200D03*
X185826400Y-103327200D03*
X176022000Y-101586000D03*
X189001400Y-99263200D03*
X117856000Y-106934000D03*
X109067600Y-115508017D03*
X120091200Y-104535217D03*
X120091200Y-101189872D03*
X110744000Y-103378000D03*
X167157400Y-113899700D03*
X128016000Y-102616000D03*
X185920360Y-106469160D03*
X164973000Y-120777000D03*
X113538000Y-120777000D03*
X125315599Y-113682399D03*
X153035000Y-103505000D03*
X193141600Y-113277100D03*
X111014933Y-99517200D03*
X116298134Y-115508017D03*
X187833000Y-103352600D03*
X118397865Y-99517200D03*
X184759600Y-103327200D03*
X119989600Y-110906304D03*
X182163641Y-111746695D03*
X128016000Y-110794800D03*
X150241000Y-120777000D03*
X119989600Y-112440208D03*
X109169200Y-99517200D03*
X112606668Y-115508017D03*
X118143867Y-115508017D03*
X110760935Y-115508017D03*
X188315600Y-107772200D03*
X181655720Y-121602600D03*
X116552132Y-99517200D03*
X122376607Y-112866924D03*
X194275800Y-121047600D03*
X114706399Y-99517200D03*
X128143000Y-120777000D03*
X176173037Y-113726514D03*
X193043900Y-121047600D03*
X116875100Y-109007100D03*
X109169200Y-101295200D03*
X126331600Y-113682400D03*
X153416000Y-105410000D03*
X110744000Y-111760000D03*
X180426360Y-121602600D03*
X159385000Y-103505000D03*
X184114440Y-121602600D03*
X109067600Y-113835345D03*
X179781200Y-108153200D03*
X191812000Y-121047600D03*
X194564000Y-100838000D03*
X182885080Y-121602600D03*
X157607000Y-120777000D03*
X145542000Y-107950000D03*
X112860666Y-99517200D03*
X182880000Y-103378000D03*
X135509000Y-120777000D03*
X200152000Y-116967000D03*
X119989600Y-115508017D03*
X148082000Y-117602000D03*
X162864800Y-117652800D03*
X184217732Y-118745000D03*
X183066266Y-118745000D03*
X133350000Y-117602000D03*
X181914800Y-118745000D03*
X172974000Y-101586000D03*
X155422600Y-117627400D03*
X176784000Y-113030000D03*
X146558000Y-110871000D03*
X183088261Y-111805739D03*
X144526000Y-107950000D03*
X157226000Y-111252000D03*
D55*
X122260500Y-109306500D03*
D54*
X146558000Y-107950000D03*
X148386800Y-110947200D03*
X118618000Y-117602000D03*
X185369200Y-118745000D03*
X189712600Y-105349900D03*
X127224100Y-111831700D03*
X125933200Y-117602000D03*
X125933200Y-105714800D03*
X187858400Y-112426500D03*
X193827400Y-112623600D03*
X124297000Y-112786600D03*
X123342400Y-112877600D03*
X140716000Y-117602000D03*
X183078081Y-106121305D03*
X137414000Y-106883200D03*
X155194000Y-108204000D03*
X164211000Y-105918000D03*
X123342400Y-113792000D03*
X122428000Y-113792000D03*
X111506000Y-117602000D03*
X193167000Y-118745000D03*
X194335400Y-118745000D03*
X191998600Y-118747600D03*
X190830200Y-118745000D03*
X198628000Y-113030000D03*
X194564000Y-102108000D03*
X169595800Y-113436400D03*
X177840483Y-107093498D03*
X189941200Y-112649000D03*
X200083738Y-106329759D03*
X187121800Y-106476800D03*
X188264800Y-106451400D03*
X200025000Y-107315000D03*
X200152000Y-111125000D03*
X174279653Y-109255653D03*
X200152000Y-110109000D03*
X174316154Y-108299500D03*
X194056000Y-109093000D03*
X186436000Y-109347000D03*
X151384000Y-110109000D03*
X158750000Y-107442000D03*
X150114000Y-108839000D03*
X157734000Y-106680000D03*
X189782749Y-100755749D03*
X182881971Y-107949972D03*
X189738000Y-101854000D03*
X182867593Y-107023581D03*
X183070500Y-108902500D03*
X151678630Y-106232970D03*
X150063200Y-106273600D03*
X177591739Y-110383339D03*
X128016000Y-108762800D03*
X128046704Y-107758394D03*
X177964031Y-109534926D03*
X128016000Y-105613200D03*
X177543113Y-107970982D03*
X128038611Y-106691826D03*
X178612800Y-107696000D03*
X179693500Y-109321600D03*
X128016000Y-109728000D03*
X200177400Y-119684800D03*
X109728000Y-119634000D03*
M02*
