%TF.GenerationSoftware,KiCad,Pcbnew,6.0.9-8da3e8f707~117~ubuntu20.04.1*%
%TF.CreationDate,2023-01-01T11:51:09-08:00*%
%TF.ProjectId,BoardyMcBoardFace,426f6172-6479-44d6-9342-6f6172644661,rev?*%
%TF.SameCoordinates,Original*%
%TF.FileFunction,Drillmap*%
%TF.FilePolarity,Positive*%
%FSLAX45Y45*%
G04 Gerber Fmt 4.5, Leading zero omitted, Abs format (unit mm)*
G04 Created by KiCad (PCBNEW 6.0.9-8da3e8f707~117~ubuntu20.04.1) date 2023-01-01 11:51:09*
%MOMM*%
%LPD*%
G01*
G04 APERTURE LIST*
%ADD10C,0.200000*%
G04 APERTURE END LIST*
D10*
X11092899Y-12577216D02*
X11092899Y-12377216D01*
X11140518Y-12377216D01*
X11169090Y-12386740D01*
X11188137Y-12405788D01*
X11197661Y-12424835D01*
X11207185Y-12462930D01*
X11207185Y-12491502D01*
X11197661Y-12529597D01*
X11188137Y-12548645D01*
X11169090Y-12567692D01*
X11140518Y-12577216D01*
X11092899Y-12577216D01*
X11292899Y-12577216D02*
X11292899Y-12443883D01*
X11292899Y-12481978D02*
X11302423Y-12462930D01*
X11311947Y-12453407D01*
X11330994Y-12443883D01*
X11350042Y-12443883D01*
X11416708Y-12577216D02*
X11416708Y-12443883D01*
X11416708Y-12377216D02*
X11407185Y-12386740D01*
X11416708Y-12396264D01*
X11426232Y-12386740D01*
X11416708Y-12377216D01*
X11416708Y-12396264D01*
X11540518Y-12577216D02*
X11521470Y-12567692D01*
X11511947Y-12548645D01*
X11511947Y-12377216D01*
X11645280Y-12577216D02*
X11626232Y-12567692D01*
X11616708Y-12548645D01*
X11616708Y-12377216D01*
X11873851Y-12577216D02*
X11873851Y-12377216D01*
X11940518Y-12520073D01*
X12007185Y-12377216D01*
X12007185Y-12577216D01*
X12188137Y-12577216D02*
X12188137Y-12472454D01*
X12178613Y-12453407D01*
X12159566Y-12443883D01*
X12121470Y-12443883D01*
X12102423Y-12453407D01*
X12188137Y-12567692D02*
X12169089Y-12577216D01*
X12121470Y-12577216D01*
X12102423Y-12567692D01*
X12092899Y-12548645D01*
X12092899Y-12529597D01*
X12102423Y-12510549D01*
X12121470Y-12501026D01*
X12169089Y-12501026D01*
X12188137Y-12491502D01*
X12283375Y-12443883D02*
X12283375Y-12643883D01*
X12283375Y-12453407D02*
X12302423Y-12443883D01*
X12340518Y-12443883D01*
X12359566Y-12453407D01*
X12369089Y-12462930D01*
X12378613Y-12481978D01*
X12378613Y-12539121D01*
X12369089Y-12558168D01*
X12359566Y-12567692D01*
X12340518Y-12577216D01*
X12302423Y-12577216D01*
X12283375Y-12567692D01*
X12464328Y-12558168D02*
X12473851Y-12567692D01*
X12464328Y-12577216D01*
X12454804Y-12567692D01*
X12464328Y-12558168D01*
X12464328Y-12577216D01*
X12464328Y-12453407D02*
X12473851Y-12462930D01*
X12464328Y-12472454D01*
X12454804Y-12462930D01*
X12464328Y-12453407D01*
X12464328Y-12472454D01*
M02*
