M48
; DRILL file {KiCad 6.0.9-8da3e8f707~117~ubuntu20.04.1} date Sun 01 Jan 2023 11:50:57 AM PST
; FORMAT={-:-/ absolute / metric / decimal}
; #@! TF.CreationDate,2023-01-01T11:50:57-08:00
; #@! TF.GenerationSoftware,Kicad,Pcbnew,6.0.9-8da3e8f707~117~ubuntu20.04.1
; #@! TF.FileFunction,Plated,1,4,PTH
FMAT,2
METRIC
; #@! TA.AperFunction,Plated,PTH,ViaDrill
T1C0.300
; #@! TA.AperFunction,Plated,PTH,ViaDrill
T2C0.400
; #@! TA.AperFunction,Plated,PTH,ComponentDrill
T3C0.650
; #@! TA.AperFunction,Plated,PTH,ComponentDrill
T4C0.800
; #@! TA.AperFunction,Plated,PTH,ComponentDrill
T5C0.900
; #@! TA.AperFunction,Plated,PTH,ComponentDrill
T6C3.500
%
G90
G05
T1
X121.342Y-108.9
X122.26Y-109.306
T2
X109.068Y-112.163
X109.068Y-113.835
X109.068Y-115.508
X109.169Y-99.517
X109.169Y-101.295
X109.169Y-102.819
X109.728Y-119.634
X110.744Y-103.378
X110.744Y-111.76
X110.761Y-115.508
X111.015Y-99.517
X111.506Y-117.602
X112.607Y-115.508
X112.861Y-99.517
X113.538Y-120.777
X114.452Y-115.508
X114.706Y-99.517
X116.298Y-115.508
X116.552Y-99.517
X116.875Y-109.007
X117.856Y-106.934
X118.144Y-115.508
X118.398Y-99.517
X118.618Y-117.602
X119.99Y-109.372
X119.99Y-110.906
X119.99Y-112.44
X119.99Y-113.974
X119.99Y-115.508
X120.091Y-99.517
X120.091Y-101.19
X120.091Y-102.863
X120.091Y-104.535
X120.65Y-120.777
X121.582Y-100.668
X122.377Y-112.867
X122.428Y-113.792
X123.342Y-112.878
X123.342Y-113.792
X124.297Y-112.787
X125.316Y-113.682
X125.933Y-105.715
X125.933Y-117.602
X126.111Y-109.804
X126.332Y-113.682
X126.36Y-104.608
X127.224Y-111.832
X127.989Y-104.687
X128.016Y-102.616
X128.016Y-105.613
X128.016Y-108.763
X128.016Y-109.728
X128.016Y-110.795
X128.039Y-106.692
X128.047Y-107.758
X128.143Y-120.777
X133.35Y-117.602
X135.509Y-120.777
X137.414Y-106.883
X140.716Y-117.602
X141.541Y-103.569
X142.875Y-120.777
X144.526Y-107.95
X145.542Y-107.95
X146.558Y-107.95
X146.558Y-110.871
X148.082Y-103.505
X148.082Y-117.602
X148.387Y-110.947
X150.063Y-106.274
X150.114Y-108.839
X150.241Y-120.777
X151.384Y-110.109
X151.679Y-106.233
X153.035Y-103.505
X153.416Y-105.41
X155.194Y-108.204
X155.423Y-117.627
X156.21Y-108.204
X157.226Y-111.252
X157.607Y-120.777
X157.734Y-106.68
X158.75Y-107.442
X159.385Y-103.505
X162.865Y-117.653
X164.211Y-105.918
X164.973Y-120.777
X165.862Y-109.728
X167.157Y-113.9
X169.596Y-113.436
X172.974Y-101.586
X172.974Y-104.634
X174.28Y-109.256
X174.316Y-108.299
X174.737Y-115.509
X176.022Y-101.586
X176.173Y-113.727
X176.784Y-113.03
X177.543Y-107.971
X177.592Y-110.383
X177.84Y-107.093
X177.964Y-109.535
X178.562Y-106.457
X178.613Y-107.696
X178.765Y-99.568
X179.197Y-121.603
X179.694Y-109.322
X179.781Y-108.153
X180.426Y-121.603
X181.656Y-121.603
X181.915Y-118.745
X182.164Y-111.747
X182.868Y-107.024
X182.88Y-103.378
X182.882Y-107.95
X182.885Y-121.603
X183.066Y-118.745
X183.07Y-108.902
X183.078Y-106.121
X183.088Y-111.806
X184.114Y-121.603
X184.218Y-118.745
X184.76Y-103.327
X185.344Y-121.603
X185.369Y-118.745
X185.826Y-103.327
X185.92Y-106.469
X186.436Y-109.347
X186.842Y-103.327
X187.122Y-106.477
X187.833Y-103.353
X187.858Y-112.426
X188.265Y-106.451
X188.316Y-107.772
X188.874Y-103.327
X189.001Y-99.263
X189.713Y-105.35
X189.738Y-101.854
X189.783Y-100.756
X189.941Y-112.649
X190.83Y-118.745
X191.812Y-121.048
X191.999Y-118.748
X192.847Y-107.757
X193.044Y-121.048
X193.142Y-113.277
X193.167Y-118.745
X193.827Y-112.624
X194.056Y-109.093
X194.276Y-121.048
X194.335Y-118.745
X194.564Y-100.838
X194.564Y-102.108
X198.628Y-113.03
X200.025Y-107.315
X200.084Y-106.33
X200.152Y-110.109
X200.152Y-111.125
X200.152Y-116.967
X200.152Y-118.618
X200.177Y-119.685
T3
X133.056Y-107.925
X134.326Y-107.925
X171.196Y-109.22
X171.196Y-110.49
X171.196Y-111.76
X185.786Y-100.178
X187.056Y-100.178
X191.008Y-105.435
X191.008Y-106.705
X195.478Y-105.664
X195.478Y-106.934
X195.478Y-108.204
X195.478Y-109.474
X195.478Y-110.744
X196.748Y-105.664
X196.748Y-106.934
X196.748Y-108.204
X196.748Y-109.474
X196.748Y-110.744
T4
X132.588Y-102.362
X135.128Y-99.822
X135.128Y-104.902
X165.608Y-102.36
X168.148Y-99.82
X168.148Y-104.9
T5
X138.822Y-102.108
X141.362Y-102.108
X145.706Y-102.108
X148.246Y-102.108
X152.58Y-102.108
X155.12Y-102.108
X159.464Y-102.108
X162.004Y-102.108
T6
X138.628Y-110.892
T0
M30
