G04 #@! TF.GenerationSoftware,KiCad,Pcbnew,7.0.8*
G04 #@! TF.CreationDate,2024-01-27T08:45:00-08:00*
G04 #@! TF.ProjectId,FacePlate,46616365-506c-4617-9465-2e6b69636164,rev?*
G04 #@! TF.SameCoordinates,Original*
G04 #@! TF.FileFunction,Paste,Top*
G04 #@! TF.FilePolarity,Positive*
%FSLAX46Y46*%
G04 Gerber Fmt 4.6, Leading zero omitted, Abs format (unit mm)*
G04 Created by KiCad (PCBNEW 7.0.8) date 2024-01-27 08:45:00*
%MOMM*%
%LPD*%
G01*
G04 APERTURE LIST*
G04 Aperture macros list*
%AMRoundRect*
0 Rectangle with rounded corners*
0 $1 Rounding radius*
0 $2 $3 $4 $5 $6 $7 $8 $9 X,Y pos of 4 corners*
0 Add a 4 corners polygon primitive as box body*
4,1,4,$2,$3,$4,$5,$6,$7,$8,$9,$2,$3,0*
0 Add four circle primitives for the rounded corners*
1,1,$1+$1,$2,$3*
1,1,$1+$1,$4,$5*
1,1,$1+$1,$6,$7*
1,1,$1+$1,$8,$9*
0 Add four rect primitives between the rounded corners*
20,1,$1+$1,$2,$3,$4,$5,0*
20,1,$1+$1,$4,$5,$6,$7,0*
20,1,$1+$1,$6,$7,$8,$9,0*
20,1,$1+$1,$8,$9,$2,$3,0*%
G04 Aperture macros list end*
%ADD10R,2.006600X1.930400*%
%ADD11RoundRect,0.225000X-0.225000X-0.250000X0.225000X-0.250000X0.225000X0.250000X-0.225000X0.250000X0*%
%ADD12RoundRect,0.225000X0.225000X0.250000X-0.225000X0.250000X-0.225000X-0.250000X0.225000X-0.250000X0*%
%ADD13RoundRect,0.225000X0.250000X-0.225000X0.250000X0.225000X-0.250000X0.225000X-0.250000X-0.225000X0*%
%ADD14R,1.500000X0.900000*%
%ADD15RoundRect,0.200000X0.275000X-0.200000X0.275000X0.200000X-0.275000X0.200000X-0.275000X-0.200000X0*%
%ADD16RoundRect,0.100000X0.100000X-0.637500X0.100000X0.637500X-0.100000X0.637500X-0.100000X-0.637500X0*%
%ADD17R,2.000000X0.800000*%
%ADD18RoundRect,0.225000X-0.250000X0.225000X-0.250000X-0.225000X0.250000X-0.225000X0.250000X0.225000X0*%
%ADD19RoundRect,0.150000X-0.150000X0.825000X-0.150000X-0.825000X0.150000X-0.825000X0.150000X0.825000X0*%
%ADD20RoundRect,0.200000X-0.200000X-0.275000X0.200000X-0.275000X0.200000X0.275000X-0.200000X0.275000X0*%
%ADD21R,2.000000X1.500000*%
%ADD22R,2.000000X3.800000*%
G04 APERTURE END LIST*
D10*
X209600000Y-82609300D03*
X209600000Y-86190700D03*
D11*
X209825000Y-88400000D03*
X211375000Y-88400000D03*
X209825000Y-80400000D03*
X211375000Y-80400000D03*
D12*
X132375000Y-95200000D03*
X130825000Y-95200000D03*
D13*
X125800000Y-91600000D03*
X125800000Y-90050000D03*
D14*
X184800000Y-79000000D03*
X184800000Y-75700000D03*
X179900000Y-75700000D03*
X179900000Y-79000000D03*
D11*
X165331000Y-81045000D03*
X166881000Y-81045000D03*
X156256000Y-81045000D03*
X157806000Y-81045000D03*
D14*
X166475000Y-79000000D03*
X166475000Y-75700000D03*
X161575000Y-75700000D03*
X161575000Y-79000000D03*
D13*
X136700000Y-78875000D03*
X136700000Y-77325000D03*
D11*
X147156000Y-80995000D03*
X148706000Y-80995000D03*
D14*
X157312500Y-79000000D03*
X157312500Y-75700000D03*
X152412500Y-75700000D03*
X152412500Y-79000000D03*
D11*
X174431000Y-81045000D03*
X175981000Y-81045000D03*
D15*
X194564000Y-94805000D03*
X194564000Y-93155000D03*
D14*
X175637500Y-79000000D03*
X175637500Y-75700000D03*
X170737500Y-75700000D03*
X170737500Y-79000000D03*
D16*
X200600000Y-84725000D03*
X201250000Y-84725000D03*
X201900000Y-84725000D03*
X202550000Y-84725000D03*
X203200000Y-84725000D03*
X203850000Y-84725000D03*
X204500000Y-84725000D03*
X205150000Y-84725000D03*
X205800000Y-84725000D03*
X206450000Y-84725000D03*
X206450000Y-79000000D03*
X205800000Y-79000000D03*
X205150000Y-79000000D03*
X204500000Y-79000000D03*
X203850000Y-79000000D03*
X203200000Y-79000000D03*
X202550000Y-79000000D03*
X201900000Y-79000000D03*
X201250000Y-79000000D03*
X200600000Y-79000000D03*
D13*
X108400000Y-83975000D03*
X108400000Y-82425000D03*
X106800000Y-83975000D03*
X106800000Y-82425000D03*
D17*
X119590000Y-78800000D03*
X119590000Y-77530000D03*
X119590000Y-76260000D03*
X119590000Y-74990000D03*
X119590000Y-73720000D03*
X119590000Y-72450000D03*
X119590000Y-71180000D03*
X134690000Y-71120000D03*
X134690000Y-72390000D03*
X134690000Y-73660000D03*
X134690000Y-74930000D03*
X134690000Y-76200000D03*
X134690000Y-77530000D03*
X134690000Y-78800000D03*
D15*
X194564000Y-90107000D03*
X194564000Y-91757000D03*
D18*
X224475000Y-68725000D03*
X224475000Y-70275000D03*
D19*
X200105000Y-92675000D03*
X198835000Y-92675000D03*
X197565000Y-92675000D03*
X196295000Y-92675000D03*
X196295000Y-87725000D03*
X197565000Y-87725000D03*
X198835000Y-87725000D03*
X200105000Y-87725000D03*
D13*
X138250000Y-78875000D03*
X138250000Y-77325000D03*
D11*
X183531000Y-81045000D03*
X185081000Y-81045000D03*
D18*
X222850000Y-68700000D03*
X222850000Y-70250000D03*
D14*
X148150000Y-79000000D03*
X148150000Y-75700000D03*
X143250000Y-75700000D03*
X143250000Y-79000000D03*
D11*
X197425000Y-85600000D03*
X198975000Y-85600000D03*
D18*
X199200000Y-78625000D03*
X199200000Y-80175000D03*
D20*
X196175000Y-77000000D03*
X197825000Y-77000000D03*
D21*
X128250000Y-88500000D03*
X128250000Y-90800000D03*
D22*
X134550000Y-90800000D03*
D21*
X128250000Y-93100000D03*
M02*
