%TF.GenerationSoftware,KiCad,Pcbnew,7.0.8*%
%TF.CreationDate,2024-01-27T08:45:31-08:00*%
%TF.ProjectId,FacePlate,46616365-506c-4617-9465-2e6b69636164,rev?*%
%TF.SameCoordinates,Original*%
%TF.FileFunction,Drillmap*%
%TF.FilePolarity,Positive*%
%FSLAX45Y45*%
G04 Gerber Fmt 4.5, Leading zero omitted, Abs format (unit mm)*
G04 Created by KiCad (PCBNEW 7.0.8) date 2024-01-27 08:45:31*
%MOMM*%
%LPD*%
G01*
G04 APERTURE LIST*
%ADD10C,0.100000*%
%ADD11C,0.200000*%
%ADD12C,0.120000*%
G04 APERTURE END LIST*
D10*
X10000000Y-5600000D02*
X23113969Y-5600000D01*
X10000000Y-5600000D02*
X10000000Y-10000000D01*
X23113969Y-5600000D02*
X23113969Y-10000000D01*
X10000000Y-10000000D02*
X23113969Y-10000000D01*
D11*
D12*
X11975000Y-9280000D02*
X12095000Y-9400000D01*
X12095000Y-9280000D02*
X11975000Y-9400000D01*
D11*
X10255777Y-10316484D02*
X10255777Y-10116484D01*
X10255777Y-10116484D02*
X10303396Y-10116484D01*
X10303396Y-10116484D02*
X10331967Y-10126008D01*
X10331967Y-10126008D02*
X10351015Y-10145055D01*
X10351015Y-10145055D02*
X10360539Y-10164103D01*
X10360539Y-10164103D02*
X10370063Y-10202198D01*
X10370063Y-10202198D02*
X10370063Y-10230770D01*
X10370063Y-10230770D02*
X10360539Y-10268865D01*
X10360539Y-10268865D02*
X10351015Y-10287912D01*
X10351015Y-10287912D02*
X10331967Y-10306960D01*
X10331967Y-10306960D02*
X10303396Y-10316484D01*
X10303396Y-10316484D02*
X10255777Y-10316484D01*
X10455777Y-10316484D02*
X10455777Y-10183150D01*
X10455777Y-10221246D02*
X10465301Y-10202198D01*
X10465301Y-10202198D02*
X10474824Y-10192674D01*
X10474824Y-10192674D02*
X10493872Y-10183150D01*
X10493872Y-10183150D02*
X10512920Y-10183150D01*
X10579586Y-10316484D02*
X10579586Y-10183150D01*
X10579586Y-10116484D02*
X10570063Y-10126008D01*
X10570063Y-10126008D02*
X10579586Y-10135531D01*
X10579586Y-10135531D02*
X10589110Y-10126008D01*
X10589110Y-10126008D02*
X10579586Y-10116484D01*
X10579586Y-10116484D02*
X10579586Y-10135531D01*
X10703396Y-10316484D02*
X10684348Y-10306960D01*
X10684348Y-10306960D02*
X10674824Y-10287912D01*
X10674824Y-10287912D02*
X10674824Y-10116484D01*
X10808158Y-10316484D02*
X10789110Y-10306960D01*
X10789110Y-10306960D02*
X10779586Y-10287912D01*
X10779586Y-10287912D02*
X10779586Y-10116484D01*
X11036729Y-10316484D02*
X11036729Y-10116484D01*
X11036729Y-10116484D02*
X11103396Y-10259341D01*
X11103396Y-10259341D02*
X11170063Y-10116484D01*
X11170063Y-10116484D02*
X11170063Y-10316484D01*
X11351015Y-10316484D02*
X11351015Y-10211722D01*
X11351015Y-10211722D02*
X11341491Y-10192674D01*
X11341491Y-10192674D02*
X11322443Y-10183150D01*
X11322443Y-10183150D02*
X11284348Y-10183150D01*
X11284348Y-10183150D02*
X11265301Y-10192674D01*
X11351015Y-10306960D02*
X11331967Y-10316484D01*
X11331967Y-10316484D02*
X11284348Y-10316484D01*
X11284348Y-10316484D02*
X11265301Y-10306960D01*
X11265301Y-10306960D02*
X11255777Y-10287912D01*
X11255777Y-10287912D02*
X11255777Y-10268865D01*
X11255777Y-10268865D02*
X11265301Y-10249817D01*
X11265301Y-10249817D02*
X11284348Y-10240293D01*
X11284348Y-10240293D02*
X11331967Y-10240293D01*
X11331967Y-10240293D02*
X11351015Y-10230770D01*
X11446253Y-10183150D02*
X11446253Y-10383150D01*
X11446253Y-10192674D02*
X11465301Y-10183150D01*
X11465301Y-10183150D02*
X11503396Y-10183150D01*
X11503396Y-10183150D02*
X11522443Y-10192674D01*
X11522443Y-10192674D02*
X11531967Y-10202198D01*
X11531967Y-10202198D02*
X11541491Y-10221246D01*
X11541491Y-10221246D02*
X11541491Y-10278389D01*
X11541491Y-10278389D02*
X11531967Y-10297436D01*
X11531967Y-10297436D02*
X11522443Y-10306960D01*
X11522443Y-10306960D02*
X11503396Y-10316484D01*
X11503396Y-10316484D02*
X11465301Y-10316484D01*
X11465301Y-10316484D02*
X11446253Y-10306960D01*
X11627205Y-10297436D02*
X11636729Y-10306960D01*
X11636729Y-10306960D02*
X11627205Y-10316484D01*
X11627205Y-10316484D02*
X11617682Y-10306960D01*
X11617682Y-10306960D02*
X11627205Y-10297436D01*
X11627205Y-10297436D02*
X11627205Y-10316484D01*
X11627205Y-10192674D02*
X11636729Y-10202198D01*
X11636729Y-10202198D02*
X11627205Y-10211722D01*
X11627205Y-10211722D02*
X11617682Y-10202198D01*
X11617682Y-10202198D02*
X11627205Y-10192674D01*
X11627205Y-10192674D02*
X11627205Y-10211722D01*
D12*
X9875000Y-10585000D02*
X9995000Y-10705000D01*
X9995000Y-10585000D02*
X9875000Y-10705000D01*
D11*
X10360539Y-10736484D02*
X10246253Y-10736484D01*
X10303396Y-10736484D02*
X10303396Y-10536484D01*
X10303396Y-10536484D02*
X10284348Y-10565055D01*
X10284348Y-10565055D02*
X10265301Y-10584103D01*
X10265301Y-10584103D02*
X10246253Y-10593627D01*
X10446253Y-10717436D02*
X10455777Y-10726960D01*
X10455777Y-10726960D02*
X10446253Y-10736484D01*
X10446253Y-10736484D02*
X10436729Y-10726960D01*
X10436729Y-10726960D02*
X10446253Y-10717436D01*
X10446253Y-10717436D02*
X10446253Y-10736484D01*
X10531967Y-10555531D02*
X10541491Y-10546008D01*
X10541491Y-10546008D02*
X10560539Y-10536484D01*
X10560539Y-10536484D02*
X10608158Y-10536484D01*
X10608158Y-10536484D02*
X10627205Y-10546008D01*
X10627205Y-10546008D02*
X10636729Y-10555531D01*
X10636729Y-10555531D02*
X10646253Y-10574579D01*
X10646253Y-10574579D02*
X10646253Y-10593627D01*
X10646253Y-10593627D02*
X10636729Y-10622198D01*
X10636729Y-10622198D02*
X10522444Y-10736484D01*
X10522444Y-10736484D02*
X10646253Y-10736484D01*
X10770063Y-10536484D02*
X10789110Y-10536484D01*
X10789110Y-10536484D02*
X10808158Y-10546008D01*
X10808158Y-10546008D02*
X10817682Y-10555531D01*
X10817682Y-10555531D02*
X10827205Y-10574579D01*
X10827205Y-10574579D02*
X10836729Y-10612674D01*
X10836729Y-10612674D02*
X10836729Y-10660293D01*
X10836729Y-10660293D02*
X10827205Y-10698389D01*
X10827205Y-10698389D02*
X10817682Y-10717436D01*
X10817682Y-10717436D02*
X10808158Y-10726960D01*
X10808158Y-10726960D02*
X10789110Y-10736484D01*
X10789110Y-10736484D02*
X10770063Y-10736484D01*
X10770063Y-10736484D02*
X10751015Y-10726960D01*
X10751015Y-10726960D02*
X10741491Y-10717436D01*
X10741491Y-10717436D02*
X10731967Y-10698389D01*
X10731967Y-10698389D02*
X10722444Y-10660293D01*
X10722444Y-10660293D02*
X10722444Y-10612674D01*
X10722444Y-10612674D02*
X10731967Y-10574579D01*
X10731967Y-10574579D02*
X10741491Y-10555531D01*
X10741491Y-10555531D02*
X10751015Y-10546008D01*
X10751015Y-10546008D02*
X10770063Y-10536484D01*
X10960539Y-10536484D02*
X10979586Y-10536484D01*
X10979586Y-10536484D02*
X10998634Y-10546008D01*
X10998634Y-10546008D02*
X11008158Y-10555531D01*
X11008158Y-10555531D02*
X11017682Y-10574579D01*
X11017682Y-10574579D02*
X11027205Y-10612674D01*
X11027205Y-10612674D02*
X11027205Y-10660293D01*
X11027205Y-10660293D02*
X11017682Y-10698389D01*
X11017682Y-10698389D02*
X11008158Y-10717436D01*
X11008158Y-10717436D02*
X10998634Y-10726960D01*
X10998634Y-10726960D02*
X10979586Y-10736484D01*
X10979586Y-10736484D02*
X10960539Y-10736484D01*
X10960539Y-10736484D02*
X10941491Y-10726960D01*
X10941491Y-10726960D02*
X10931967Y-10717436D01*
X10931967Y-10717436D02*
X10922444Y-10698389D01*
X10922444Y-10698389D02*
X10912920Y-10660293D01*
X10912920Y-10660293D02*
X10912920Y-10612674D01*
X10912920Y-10612674D02*
X10922444Y-10574579D01*
X10922444Y-10574579D02*
X10931967Y-10555531D01*
X10931967Y-10555531D02*
X10941491Y-10546008D01*
X10941491Y-10546008D02*
X10960539Y-10536484D01*
X11112920Y-10736484D02*
X11112920Y-10603150D01*
X11112920Y-10622198D02*
X11122444Y-10612674D01*
X11122444Y-10612674D02*
X11141491Y-10603150D01*
X11141491Y-10603150D02*
X11170063Y-10603150D01*
X11170063Y-10603150D02*
X11189110Y-10612674D01*
X11189110Y-10612674D02*
X11198634Y-10631722D01*
X11198634Y-10631722D02*
X11198634Y-10736484D01*
X11198634Y-10631722D02*
X11208158Y-10612674D01*
X11208158Y-10612674D02*
X11227205Y-10603150D01*
X11227205Y-10603150D02*
X11255777Y-10603150D01*
X11255777Y-10603150D02*
X11274824Y-10612674D01*
X11274824Y-10612674D02*
X11284348Y-10631722D01*
X11284348Y-10631722D02*
X11284348Y-10736484D01*
X11379586Y-10736484D02*
X11379586Y-10603150D01*
X11379586Y-10622198D02*
X11389110Y-10612674D01*
X11389110Y-10612674D02*
X11408158Y-10603150D01*
X11408158Y-10603150D02*
X11436729Y-10603150D01*
X11436729Y-10603150D02*
X11455777Y-10612674D01*
X11455777Y-10612674D02*
X11465301Y-10631722D01*
X11465301Y-10631722D02*
X11465301Y-10736484D01*
X11465301Y-10631722D02*
X11474824Y-10612674D01*
X11474824Y-10612674D02*
X11493872Y-10603150D01*
X11493872Y-10603150D02*
X11522443Y-10603150D01*
X11522443Y-10603150D02*
X11541491Y-10612674D01*
X11541491Y-10612674D02*
X11551015Y-10631722D01*
X11551015Y-10631722D02*
X11551015Y-10736484D01*
X11941491Y-10526960D02*
X11770063Y-10784103D01*
X12198634Y-10536484D02*
X12217682Y-10536484D01*
X12217682Y-10536484D02*
X12236729Y-10546008D01*
X12236729Y-10546008D02*
X12246253Y-10555531D01*
X12246253Y-10555531D02*
X12255777Y-10574579D01*
X12255777Y-10574579D02*
X12265301Y-10612674D01*
X12265301Y-10612674D02*
X12265301Y-10660293D01*
X12265301Y-10660293D02*
X12255777Y-10698389D01*
X12255777Y-10698389D02*
X12246253Y-10717436D01*
X12246253Y-10717436D02*
X12236729Y-10726960D01*
X12236729Y-10726960D02*
X12217682Y-10736484D01*
X12217682Y-10736484D02*
X12198634Y-10736484D01*
X12198634Y-10736484D02*
X12179586Y-10726960D01*
X12179586Y-10726960D02*
X12170063Y-10717436D01*
X12170063Y-10717436D02*
X12160539Y-10698389D01*
X12160539Y-10698389D02*
X12151015Y-10660293D01*
X12151015Y-10660293D02*
X12151015Y-10612674D01*
X12151015Y-10612674D02*
X12160539Y-10574579D01*
X12160539Y-10574579D02*
X12170063Y-10555531D01*
X12170063Y-10555531D02*
X12179586Y-10546008D01*
X12179586Y-10546008D02*
X12198634Y-10536484D01*
X12351015Y-10717436D02*
X12360539Y-10726960D01*
X12360539Y-10726960D02*
X12351015Y-10736484D01*
X12351015Y-10736484D02*
X12341491Y-10726960D01*
X12341491Y-10726960D02*
X12351015Y-10717436D01*
X12351015Y-10717436D02*
X12351015Y-10736484D01*
X12484348Y-10536484D02*
X12503396Y-10536484D01*
X12503396Y-10536484D02*
X12522444Y-10546008D01*
X12522444Y-10546008D02*
X12531967Y-10555531D01*
X12531967Y-10555531D02*
X12541491Y-10574579D01*
X12541491Y-10574579D02*
X12551015Y-10612674D01*
X12551015Y-10612674D02*
X12551015Y-10660293D01*
X12551015Y-10660293D02*
X12541491Y-10698389D01*
X12541491Y-10698389D02*
X12531967Y-10717436D01*
X12531967Y-10717436D02*
X12522444Y-10726960D01*
X12522444Y-10726960D02*
X12503396Y-10736484D01*
X12503396Y-10736484D02*
X12484348Y-10736484D01*
X12484348Y-10736484D02*
X12465301Y-10726960D01*
X12465301Y-10726960D02*
X12455777Y-10717436D01*
X12455777Y-10717436D02*
X12446253Y-10698389D01*
X12446253Y-10698389D02*
X12436729Y-10660293D01*
X12436729Y-10660293D02*
X12436729Y-10612674D01*
X12436729Y-10612674D02*
X12446253Y-10574579D01*
X12446253Y-10574579D02*
X12455777Y-10555531D01*
X12455777Y-10555531D02*
X12465301Y-10546008D01*
X12465301Y-10546008D02*
X12484348Y-10536484D01*
X12722444Y-10603150D02*
X12722444Y-10736484D01*
X12674825Y-10526960D02*
X12627206Y-10669817D01*
X12627206Y-10669817D02*
X12751015Y-10669817D01*
X12808158Y-10536484D02*
X12941491Y-10536484D01*
X12941491Y-10536484D02*
X12855777Y-10736484D01*
X13008158Y-10555531D02*
X13017682Y-10546008D01*
X13017682Y-10546008D02*
X13036729Y-10536484D01*
X13036729Y-10536484D02*
X13084348Y-10536484D01*
X13084348Y-10536484D02*
X13103396Y-10546008D01*
X13103396Y-10546008D02*
X13112920Y-10555531D01*
X13112920Y-10555531D02*
X13122444Y-10574579D01*
X13122444Y-10574579D02*
X13122444Y-10593627D01*
X13122444Y-10593627D02*
X13112920Y-10622198D01*
X13112920Y-10622198D02*
X12998634Y-10736484D01*
X12998634Y-10736484D02*
X13122444Y-10736484D01*
X13198634Y-10536484D02*
X13198634Y-10574579D01*
X13274825Y-10536484D02*
X13274825Y-10574579D01*
X13570063Y-10812674D02*
X13560539Y-10803150D01*
X13560539Y-10803150D02*
X13541491Y-10774579D01*
X13541491Y-10774579D02*
X13531968Y-10755531D01*
X13531968Y-10755531D02*
X13522444Y-10726960D01*
X13522444Y-10726960D02*
X13512920Y-10679341D01*
X13512920Y-10679341D02*
X13512920Y-10641246D01*
X13512920Y-10641246D02*
X13522444Y-10593627D01*
X13522444Y-10593627D02*
X13531968Y-10565055D01*
X13531968Y-10565055D02*
X13541491Y-10546008D01*
X13541491Y-10546008D02*
X13560539Y-10517436D01*
X13560539Y-10517436D02*
X13570063Y-10507912D01*
X13751015Y-10736484D02*
X13636729Y-10736484D01*
X13693872Y-10736484D02*
X13693872Y-10536484D01*
X13693872Y-10536484D02*
X13674825Y-10565055D01*
X13674825Y-10565055D02*
X13655777Y-10584103D01*
X13655777Y-10584103D02*
X13636729Y-10593627D01*
X13989110Y-10736484D02*
X13989110Y-10536484D01*
X14074825Y-10736484D02*
X14074825Y-10631722D01*
X14074825Y-10631722D02*
X14065301Y-10612674D01*
X14065301Y-10612674D02*
X14046253Y-10603150D01*
X14046253Y-10603150D02*
X14017682Y-10603150D01*
X14017682Y-10603150D02*
X13998634Y-10612674D01*
X13998634Y-10612674D02*
X13989110Y-10622198D01*
X14198634Y-10736484D02*
X14179587Y-10726960D01*
X14179587Y-10726960D02*
X14170063Y-10717436D01*
X14170063Y-10717436D02*
X14160539Y-10698389D01*
X14160539Y-10698389D02*
X14160539Y-10641246D01*
X14160539Y-10641246D02*
X14170063Y-10622198D01*
X14170063Y-10622198D02*
X14179587Y-10612674D01*
X14179587Y-10612674D02*
X14198634Y-10603150D01*
X14198634Y-10603150D02*
X14227206Y-10603150D01*
X14227206Y-10603150D02*
X14246253Y-10612674D01*
X14246253Y-10612674D02*
X14255777Y-10622198D01*
X14255777Y-10622198D02*
X14265301Y-10641246D01*
X14265301Y-10641246D02*
X14265301Y-10698389D01*
X14265301Y-10698389D02*
X14255777Y-10717436D01*
X14255777Y-10717436D02*
X14246253Y-10726960D01*
X14246253Y-10726960D02*
X14227206Y-10736484D01*
X14227206Y-10736484D02*
X14198634Y-10736484D01*
X14379587Y-10736484D02*
X14360539Y-10726960D01*
X14360539Y-10726960D02*
X14351015Y-10707912D01*
X14351015Y-10707912D02*
X14351015Y-10536484D01*
X14531968Y-10726960D02*
X14512920Y-10736484D01*
X14512920Y-10736484D02*
X14474825Y-10736484D01*
X14474825Y-10736484D02*
X14455777Y-10726960D01*
X14455777Y-10726960D02*
X14446253Y-10707912D01*
X14446253Y-10707912D02*
X14446253Y-10631722D01*
X14446253Y-10631722D02*
X14455777Y-10612674D01*
X14455777Y-10612674D02*
X14474825Y-10603150D01*
X14474825Y-10603150D02*
X14512920Y-10603150D01*
X14512920Y-10603150D02*
X14531968Y-10612674D01*
X14531968Y-10612674D02*
X14541491Y-10631722D01*
X14541491Y-10631722D02*
X14541491Y-10650770D01*
X14541491Y-10650770D02*
X14446253Y-10669817D01*
X14608158Y-10812674D02*
X14617682Y-10803150D01*
X14617682Y-10803150D02*
X14636730Y-10774579D01*
X14636730Y-10774579D02*
X14646253Y-10755531D01*
X14646253Y-10755531D02*
X14655777Y-10726960D01*
X14655777Y-10726960D02*
X14665301Y-10679341D01*
X14665301Y-10679341D02*
X14665301Y-10641246D01*
X14665301Y-10641246D02*
X14655777Y-10593627D01*
X14655777Y-10593627D02*
X14646253Y-10565055D01*
X14646253Y-10565055D02*
X14636730Y-10546008D01*
X14636730Y-10546008D02*
X14617682Y-10517436D01*
X14617682Y-10517436D02*
X14608158Y-10507912D01*
X14970063Y-10812674D02*
X14960539Y-10803150D01*
X14960539Y-10803150D02*
X14941491Y-10774579D01*
X14941491Y-10774579D02*
X14931968Y-10755531D01*
X14931968Y-10755531D02*
X14922444Y-10726960D01*
X14922444Y-10726960D02*
X14912920Y-10679341D01*
X14912920Y-10679341D02*
X14912920Y-10641246D01*
X14912920Y-10641246D02*
X14922444Y-10593627D01*
X14922444Y-10593627D02*
X14931968Y-10565055D01*
X14931968Y-10565055D02*
X14941491Y-10546008D01*
X14941491Y-10546008D02*
X14960539Y-10517436D01*
X14960539Y-10517436D02*
X14970063Y-10507912D01*
X15046253Y-10603150D02*
X15046253Y-10736484D01*
X15046253Y-10622198D02*
X15055777Y-10612674D01*
X15055777Y-10612674D02*
X15074825Y-10603150D01*
X15074825Y-10603150D02*
X15103396Y-10603150D01*
X15103396Y-10603150D02*
X15122444Y-10612674D01*
X15122444Y-10612674D02*
X15131968Y-10631722D01*
X15131968Y-10631722D02*
X15131968Y-10736484D01*
X15255777Y-10736484D02*
X15236730Y-10726960D01*
X15236730Y-10726960D02*
X15227206Y-10717436D01*
X15227206Y-10717436D02*
X15217682Y-10698389D01*
X15217682Y-10698389D02*
X15217682Y-10641246D01*
X15217682Y-10641246D02*
X15227206Y-10622198D01*
X15227206Y-10622198D02*
X15236730Y-10612674D01*
X15236730Y-10612674D02*
X15255777Y-10603150D01*
X15255777Y-10603150D02*
X15284349Y-10603150D01*
X15284349Y-10603150D02*
X15303396Y-10612674D01*
X15303396Y-10612674D02*
X15312920Y-10622198D01*
X15312920Y-10622198D02*
X15322444Y-10641246D01*
X15322444Y-10641246D02*
X15322444Y-10698389D01*
X15322444Y-10698389D02*
X15312920Y-10717436D01*
X15312920Y-10717436D02*
X15303396Y-10726960D01*
X15303396Y-10726960D02*
X15284349Y-10736484D01*
X15284349Y-10736484D02*
X15255777Y-10736484D01*
X15379587Y-10603150D02*
X15455777Y-10603150D01*
X15408158Y-10536484D02*
X15408158Y-10707912D01*
X15408158Y-10707912D02*
X15417682Y-10726960D01*
X15417682Y-10726960D02*
X15436730Y-10736484D01*
X15436730Y-10736484D02*
X15455777Y-10736484D01*
X15674825Y-10603150D02*
X15674825Y-10803150D01*
X15674825Y-10612674D02*
X15693872Y-10603150D01*
X15693872Y-10603150D02*
X15731968Y-10603150D01*
X15731968Y-10603150D02*
X15751015Y-10612674D01*
X15751015Y-10612674D02*
X15760539Y-10622198D01*
X15760539Y-10622198D02*
X15770063Y-10641246D01*
X15770063Y-10641246D02*
X15770063Y-10698389D01*
X15770063Y-10698389D02*
X15760539Y-10717436D01*
X15760539Y-10717436D02*
X15751015Y-10726960D01*
X15751015Y-10726960D02*
X15731968Y-10736484D01*
X15731968Y-10736484D02*
X15693872Y-10736484D01*
X15693872Y-10736484D02*
X15674825Y-10726960D01*
X15884349Y-10736484D02*
X15865301Y-10726960D01*
X15865301Y-10726960D02*
X15855777Y-10707912D01*
X15855777Y-10707912D02*
X15855777Y-10536484D01*
X16046253Y-10736484D02*
X16046253Y-10631722D01*
X16046253Y-10631722D02*
X16036730Y-10612674D01*
X16036730Y-10612674D02*
X16017682Y-10603150D01*
X16017682Y-10603150D02*
X15979587Y-10603150D01*
X15979587Y-10603150D02*
X15960539Y-10612674D01*
X16046253Y-10726960D02*
X16027206Y-10736484D01*
X16027206Y-10736484D02*
X15979587Y-10736484D01*
X15979587Y-10736484D02*
X15960539Y-10726960D01*
X15960539Y-10726960D02*
X15951015Y-10707912D01*
X15951015Y-10707912D02*
X15951015Y-10688865D01*
X15951015Y-10688865D02*
X15960539Y-10669817D01*
X15960539Y-10669817D02*
X15979587Y-10660293D01*
X15979587Y-10660293D02*
X16027206Y-10660293D01*
X16027206Y-10660293D02*
X16046253Y-10650770D01*
X16112920Y-10603150D02*
X16189111Y-10603150D01*
X16141492Y-10536484D02*
X16141492Y-10707912D01*
X16141492Y-10707912D02*
X16151015Y-10726960D01*
X16151015Y-10726960D02*
X16170063Y-10736484D01*
X16170063Y-10736484D02*
X16189111Y-10736484D01*
X16331968Y-10726960D02*
X16312920Y-10736484D01*
X16312920Y-10736484D02*
X16274825Y-10736484D01*
X16274825Y-10736484D02*
X16255777Y-10726960D01*
X16255777Y-10726960D02*
X16246253Y-10707912D01*
X16246253Y-10707912D02*
X16246253Y-10631722D01*
X16246253Y-10631722D02*
X16255777Y-10612674D01*
X16255777Y-10612674D02*
X16274825Y-10603150D01*
X16274825Y-10603150D02*
X16312920Y-10603150D01*
X16312920Y-10603150D02*
X16331968Y-10612674D01*
X16331968Y-10612674D02*
X16341492Y-10631722D01*
X16341492Y-10631722D02*
X16341492Y-10650770D01*
X16341492Y-10650770D02*
X16246253Y-10669817D01*
X16512920Y-10736484D02*
X16512920Y-10536484D01*
X16512920Y-10726960D02*
X16493873Y-10736484D01*
X16493873Y-10736484D02*
X16455777Y-10736484D01*
X16455777Y-10736484D02*
X16436730Y-10726960D01*
X16436730Y-10726960D02*
X16427206Y-10717436D01*
X16427206Y-10717436D02*
X16417682Y-10698389D01*
X16417682Y-10698389D02*
X16417682Y-10641246D01*
X16417682Y-10641246D02*
X16427206Y-10622198D01*
X16427206Y-10622198D02*
X16436730Y-10612674D01*
X16436730Y-10612674D02*
X16455777Y-10603150D01*
X16455777Y-10603150D02*
X16493873Y-10603150D01*
X16493873Y-10603150D02*
X16512920Y-10612674D01*
X16589111Y-10812674D02*
X16598634Y-10803150D01*
X16598634Y-10803150D02*
X16617682Y-10774579D01*
X16617682Y-10774579D02*
X16627206Y-10755531D01*
X16627206Y-10755531D02*
X16636730Y-10726960D01*
X16636730Y-10726960D02*
X16646253Y-10679341D01*
X16646253Y-10679341D02*
X16646253Y-10641246D01*
X16646253Y-10641246D02*
X16636730Y-10593627D01*
X16636730Y-10593627D02*
X16627206Y-10565055D01*
X16627206Y-10565055D02*
X16617682Y-10546008D01*
X16617682Y-10546008D02*
X16598634Y-10517436D01*
X16598634Y-10517436D02*
X16589111Y-10507912D01*
M02*
