G04 #@! TF.GenerationSoftware,KiCad,Pcbnew,7.0.8*
G04 #@! TF.CreationDate,2024-01-27T08:45:00-08:00*
G04 #@! TF.ProjectId,FacePlate,46616365-506c-4617-9465-2e6b69636164,rev?*
G04 #@! TF.SameCoordinates,Original*
G04 #@! TF.FileFunction,Copper,L2,Inr*
G04 #@! TF.FilePolarity,Positive*
%FSLAX46Y46*%
G04 Gerber Fmt 4.6, Leading zero omitted, Abs format (unit mm)*
G04 Created by KiCad (PCBNEW 7.0.8) date 2024-01-27 08:45:00*
%MOMM*%
%LPD*%
G01*
G04 APERTURE LIST*
G04 Aperture macros list*
%AMRoundRect*
0 Rectangle with rounded corners*
0 $1 Rounding radius*
0 $2 $3 $4 $5 $6 $7 $8 $9 X,Y pos of 4 corners*
0 Add a 4 corners polygon primitive as box body*
4,1,4,$2,$3,$4,$5,$6,$7,$8,$9,$2,$3,0*
0 Add four circle primitives for the rounded corners*
1,1,$1+$1,$2,$3*
1,1,$1+$1,$4,$5*
1,1,$1+$1,$6,$7*
1,1,$1+$1,$8,$9*
0 Add four rect primitives between the rounded corners*
20,1,$1+$1,$2,$3,$4,$5,0*
20,1,$1+$1,$4,$5,$6,$7,0*
20,1,$1+$1,$6,$7,$8,$9,0*
20,1,$1+$1,$8,$9,$2,$3,0*%
G04 Aperture macros list end*
G04 #@! TA.AperFunction,ComponentPad*
%ADD10R,1.700000X1.700000*%
G04 #@! TD*
G04 #@! TA.AperFunction,ComponentPad*
%ADD11O,1.700000X1.700000*%
G04 #@! TD*
G04 #@! TA.AperFunction,ComponentPad*
%ADD12RoundRect,0.250000X0.600000X0.725000X-0.600000X0.725000X-0.600000X-0.725000X0.600000X-0.725000X0*%
G04 #@! TD*
G04 #@! TA.AperFunction,ComponentPad*
%ADD13O,1.700000X1.950000*%
G04 #@! TD*
G04 #@! TA.AperFunction,ViaPad*
%ADD14C,0.800000*%
G04 #@! TD*
G04 #@! TA.AperFunction,ViaPad*
%ADD15C,0.700000*%
G04 #@! TD*
G04 APERTURE END LIST*
D10*
X104140000Y-68925600D03*
D11*
X104140000Y-71465600D03*
X104140000Y-74005600D03*
X104140000Y-76545600D03*
X104140000Y-79085600D03*
X104140000Y-81625600D03*
X104140000Y-84165600D03*
D10*
X227250000Y-83700000D03*
D11*
X227250000Y-81160000D03*
X227250000Y-78620000D03*
X227250000Y-76080000D03*
X227250000Y-73540000D03*
X227250000Y-71000000D03*
X227250000Y-68460000D03*
D10*
X206248000Y-59000000D03*
D11*
X206248000Y-61540000D03*
X203708000Y-59000000D03*
X203708000Y-61540000D03*
X201168000Y-59000000D03*
X201168000Y-61540000D03*
X198628000Y-59000000D03*
X198628000Y-61540000D03*
X196088000Y-59000000D03*
X196088000Y-61540000D03*
X193548000Y-59000000D03*
X193548000Y-61540000D03*
X191008000Y-59000000D03*
X191008000Y-61540000D03*
X188468000Y-59000000D03*
X188468000Y-61540000D03*
X185928000Y-59000000D03*
X185928000Y-61540000D03*
X183388000Y-59000000D03*
X183388000Y-61540000D03*
X180848000Y-59000000D03*
X180848000Y-61540000D03*
X178308000Y-59000000D03*
X178308000Y-61540000D03*
X175768000Y-59000000D03*
X175768000Y-61540000D03*
X173228000Y-59000000D03*
X173228000Y-61540000D03*
X170688000Y-59000000D03*
X170688000Y-61540000D03*
X168148000Y-59000000D03*
X168148000Y-61540000D03*
X165608000Y-59000000D03*
X165608000Y-61540000D03*
X163068000Y-59000000D03*
X163068000Y-61540000D03*
X160528000Y-59000000D03*
X160528000Y-61540000D03*
X157988000Y-59000000D03*
X157988000Y-61540000D03*
D12*
X118750000Y-91400000D03*
D13*
X116250000Y-91400000D03*
X113750000Y-91400000D03*
X111250000Y-91400000D03*
D14*
X212287500Y-81312500D03*
X212600000Y-88400000D03*
X128800000Y-90800000D03*
X127800000Y-90800000D03*
X207000000Y-86400000D03*
X135800000Y-69600000D03*
X141200000Y-81000000D03*
X195000000Y-77000000D03*
X200600000Y-80600000D03*
X165600000Y-63300500D03*
X177000000Y-57899500D03*
X172000000Y-60200000D03*
X191008000Y-63899500D03*
X182800000Y-63400000D03*
X202400000Y-60200000D03*
X194800000Y-57899500D03*
X130150000Y-89400000D03*
X130825000Y-93000000D03*
X130800000Y-91800000D03*
X130800000Y-90600000D03*
X135000000Y-92000000D03*
X134000000Y-92000000D03*
X135000000Y-90800000D03*
X134000000Y-90800000D03*
X134000000Y-89600000D03*
X135000000Y-89600000D03*
X155500000Y-59000000D03*
X196250000Y-90107000D03*
X196250000Y-94750000D03*
X200000000Y-75800000D03*
X197800000Y-81400000D03*
X199000000Y-84400000D03*
X197425000Y-84364244D03*
X202600000Y-82200000D03*
X203600000Y-75800000D03*
X202400000Y-75800000D03*
X201200000Y-75800000D03*
X121370000Y-69400000D03*
X121400000Y-78800000D03*
X139900000Y-79450000D03*
X139750000Y-76800000D03*
X148200000Y-65400000D03*
X141050000Y-71700000D03*
X147450000Y-64450000D03*
X139350000Y-71700000D03*
X146750000Y-63250000D03*
X137375000Y-71675000D03*
X159006000Y-81045000D03*
X186106000Y-81045000D03*
D15*
X144700000Y-75700000D03*
D14*
X149856000Y-80995000D03*
D15*
X181400000Y-75719500D03*
D14*
X176906000Y-81045000D03*
D15*
X163000000Y-75700000D03*
X172200000Y-75700000D03*
X153900000Y-75700000D03*
D14*
X168106000Y-81045000D03*
X165606000Y-79945000D03*
X174706000Y-79945000D03*
X183906000Y-79894000D03*
X156367500Y-79945000D03*
X147206000Y-79944000D03*
G04 #@! TA.AperFunction,Conductor*
G36*
X172042855Y-59666546D02*
G01*
X172059575Y-59685842D01*
X172189501Y-59871396D01*
X172189506Y-59871402D01*
X172356597Y-60038493D01*
X172356603Y-60038498D01*
X172542158Y-60168425D01*
X172585783Y-60223002D01*
X172592977Y-60292500D01*
X172561454Y-60354855D01*
X172542158Y-60371575D01*
X172356597Y-60501505D01*
X172189508Y-60668594D01*
X172059269Y-60854595D01*
X172004692Y-60898219D01*
X171935193Y-60905412D01*
X171872839Y-60873890D01*
X171856119Y-60854594D01*
X171726113Y-60668926D01*
X171726108Y-60668920D01*
X171559078Y-60501890D01*
X171373405Y-60371879D01*
X171329780Y-60317302D01*
X171322588Y-60247804D01*
X171354110Y-60185449D01*
X171373406Y-60168730D01*
X171374279Y-60168119D01*
X171559401Y-60038495D01*
X171726495Y-59871401D01*
X171856425Y-59685842D01*
X171911002Y-59642217D01*
X171980500Y-59635023D01*
X172042855Y-59666546D01*
G37*
G04 #@! TD.AperFunction*
G04 #@! TA.AperFunction,Conductor*
G36*
X202522855Y-59666546D02*
G01*
X202539575Y-59685842D01*
X202669501Y-59871396D01*
X202669506Y-59871402D01*
X202836597Y-60038493D01*
X202836603Y-60038498D01*
X203022158Y-60168425D01*
X203065783Y-60223002D01*
X203072977Y-60292500D01*
X203041454Y-60354855D01*
X203022158Y-60371575D01*
X202836597Y-60501505D01*
X202669508Y-60668594D01*
X202539269Y-60854595D01*
X202484692Y-60898219D01*
X202415193Y-60905412D01*
X202352839Y-60873890D01*
X202336119Y-60854594D01*
X202206113Y-60668926D01*
X202206108Y-60668920D01*
X202039078Y-60501890D01*
X201853405Y-60371879D01*
X201809780Y-60317302D01*
X201802588Y-60247804D01*
X201834110Y-60185449D01*
X201853406Y-60168730D01*
X201854279Y-60168119D01*
X202039401Y-60038495D01*
X202206495Y-59871401D01*
X202336425Y-59685842D01*
X202391002Y-59642217D01*
X202460500Y-59635023D01*
X202522855Y-59666546D01*
G37*
G04 #@! TD.AperFunction*
G04 #@! TA.AperFunction,Conductor*
G36*
X230782233Y-56320185D02*
G01*
X230827988Y-56372989D01*
X230839194Y-56424500D01*
X230839194Y-99575500D01*
X230819509Y-99642539D01*
X230766705Y-99688294D01*
X230715194Y-99699500D01*
X100424500Y-99699500D01*
X100357461Y-99679815D01*
X100311706Y-99627011D01*
X100300500Y-99575500D01*
X100300500Y-94750000D01*
X195344540Y-94750000D01*
X195364326Y-94938256D01*
X195364327Y-94938259D01*
X195422818Y-95118277D01*
X195422821Y-95118284D01*
X195517467Y-95282216D01*
X195644129Y-95422888D01*
X195797265Y-95534148D01*
X195797270Y-95534151D01*
X195970192Y-95611142D01*
X195970197Y-95611144D01*
X196155354Y-95650500D01*
X196155355Y-95650500D01*
X196344644Y-95650500D01*
X196344646Y-95650500D01*
X196529803Y-95611144D01*
X196702730Y-95534151D01*
X196855871Y-95422888D01*
X196982533Y-95282216D01*
X197077179Y-95118284D01*
X197135674Y-94938256D01*
X197155460Y-94750000D01*
X197135674Y-94561744D01*
X197077179Y-94381716D01*
X196982533Y-94217784D01*
X196855871Y-94077112D01*
X196855870Y-94077111D01*
X196702734Y-93965851D01*
X196702729Y-93965848D01*
X196529807Y-93888857D01*
X196529802Y-93888855D01*
X196384001Y-93857865D01*
X196344646Y-93849500D01*
X196155354Y-93849500D01*
X196122897Y-93856398D01*
X195970197Y-93888855D01*
X195970192Y-93888857D01*
X195797270Y-93965848D01*
X195797265Y-93965851D01*
X195644129Y-94077111D01*
X195517466Y-94217785D01*
X195422821Y-94381715D01*
X195422818Y-94381722D01*
X195364327Y-94561740D01*
X195364326Y-94561744D01*
X195344540Y-94750000D01*
X100300500Y-94750000D01*
X100300500Y-91583966D01*
X109899500Y-91583966D01*
X109914936Y-91760403D01*
X109914938Y-91760413D01*
X109976094Y-91988655D01*
X109976096Y-91988659D01*
X109976097Y-91988663D01*
X109981384Y-92000000D01*
X110075964Y-92202828D01*
X110075965Y-92202830D01*
X110211505Y-92396402D01*
X110318164Y-92503060D01*
X110378599Y-92563495D01*
X110421675Y-92593657D01*
X110572165Y-92699032D01*
X110572167Y-92699033D01*
X110572170Y-92699035D01*
X110786337Y-92798903D01*
X111014592Y-92860063D01*
X111191034Y-92875500D01*
X111249999Y-92880659D01*
X111250000Y-92880659D01*
X111250001Y-92880659D01*
X111308966Y-92875500D01*
X111485408Y-92860063D01*
X111713663Y-92798903D01*
X111927829Y-92699035D01*
X112121401Y-92563495D01*
X112288495Y-92396401D01*
X112398426Y-92239401D01*
X112453001Y-92195778D01*
X112522500Y-92188584D01*
X112584855Y-92220106D01*
X112601571Y-92239398D01*
X112628457Y-92277795D01*
X112711506Y-92396403D01*
X112818164Y-92503060D01*
X112878599Y-92563495D01*
X112921675Y-92593657D01*
X113072165Y-92699032D01*
X113072167Y-92699033D01*
X113072170Y-92699035D01*
X113286337Y-92798903D01*
X113514592Y-92860063D01*
X113691034Y-92875500D01*
X113749999Y-92880659D01*
X113750000Y-92880659D01*
X113750001Y-92880659D01*
X113808966Y-92875500D01*
X113985408Y-92860063D01*
X114213663Y-92798903D01*
X114427829Y-92699035D01*
X114621401Y-92563495D01*
X114788495Y-92396401D01*
X114898732Y-92238965D01*
X114953306Y-92195342D01*
X115022805Y-92188148D01*
X115085159Y-92219670D01*
X115101880Y-92238967D01*
X115211886Y-92396073D01*
X115211891Y-92396079D01*
X115378917Y-92563105D01*
X115572421Y-92698600D01*
X115786507Y-92798429D01*
X115786516Y-92798433D01*
X116000000Y-92855634D01*
X116000000Y-91808018D01*
X116114801Y-91860446D01*
X116216025Y-91875000D01*
X116283975Y-91875000D01*
X116385199Y-91860446D01*
X116500000Y-91808018D01*
X116500000Y-92855633D01*
X116713483Y-92798433D01*
X116713492Y-92798429D01*
X116927577Y-92698600D01*
X116927579Y-92698599D01*
X117121073Y-92563113D01*
X117121079Y-92563108D01*
X117268331Y-92415857D01*
X117329654Y-92382372D01*
X117399346Y-92387356D01*
X117455279Y-92429228D01*
X117461551Y-92438441D01*
X117465186Y-92444334D01*
X117557288Y-92593656D01*
X117681344Y-92717712D01*
X117830666Y-92809814D01*
X117997203Y-92864999D01*
X118099991Y-92875500D01*
X119400008Y-92875499D01*
X119450271Y-92870364D01*
X119518961Y-92883133D01*
X119569846Y-92931013D01*
X119586767Y-92998803D01*
X119578065Y-93039618D01*
X119560644Y-93083343D01*
X119525669Y-93171125D01*
X119510838Y-93261593D01*
X119495740Y-93353685D01*
X119505755Y-93538406D01*
X119505755Y-93538411D01*
X119555244Y-93716656D01*
X119555247Y-93716662D01*
X119641898Y-93880102D01*
X119714732Y-93965849D01*
X119761663Y-94021100D01*
X119908936Y-94133054D01*
X120076833Y-94210732D01*
X120076834Y-94210732D01*
X120076836Y-94210733D01*
X120108875Y-94217785D01*
X120257503Y-94250500D01*
X120257506Y-94250500D01*
X120396107Y-94250500D01*
X120396113Y-94250500D01*
X120533910Y-94235514D01*
X120709221Y-94176444D01*
X120867736Y-94081070D01*
X121002041Y-93953849D01*
X121105858Y-93800730D01*
X121174331Y-93628875D01*
X121204260Y-93446317D01*
X121194245Y-93261593D01*
X121144754Y-93083341D01*
X121100182Y-92999270D01*
X121058101Y-92919897D01*
X120938337Y-92778900D01*
X120900066Y-92749807D01*
X120791064Y-92666946D01*
X120623167Y-92589268D01*
X120623163Y-92589266D01*
X120442497Y-92549500D01*
X120303887Y-92549500D01*
X120303882Y-92549500D01*
X120180400Y-92562929D01*
X120111625Y-92550608D01*
X120060430Y-92503060D01*
X120043068Y-92435382D01*
X120049287Y-92400657D01*
X120089999Y-92277797D01*
X120100500Y-92175009D01*
X120100500Y-92000000D01*
X133094540Y-92000000D01*
X133114326Y-92188256D01*
X133114327Y-92188259D01*
X133172818Y-92368277D01*
X133172821Y-92368284D01*
X133267467Y-92532216D01*
X133318837Y-92589268D01*
X133394129Y-92672888D01*
X133547265Y-92784148D01*
X133547270Y-92784151D01*
X133720192Y-92861142D01*
X133720197Y-92861144D01*
X133905354Y-92900500D01*
X133905355Y-92900500D01*
X134094644Y-92900500D01*
X134094646Y-92900500D01*
X134279803Y-92861144D01*
X134449566Y-92785559D01*
X134518813Y-92776275D01*
X134550430Y-92785557D01*
X134720197Y-92861144D01*
X134905354Y-92900500D01*
X134905355Y-92900500D01*
X135094644Y-92900500D01*
X135094646Y-92900500D01*
X135279803Y-92861144D01*
X135452730Y-92784151D01*
X135605871Y-92672888D01*
X135732533Y-92532216D01*
X135827179Y-92368284D01*
X135885674Y-92188256D01*
X135905460Y-92000000D01*
X135885674Y-91811744D01*
X135827179Y-91631716D01*
X135732533Y-91467784D01*
X135729284Y-91462156D01*
X135731929Y-91460628D01*
X135712779Y-91407421D01*
X135728417Y-91339323D01*
X135729344Y-91337879D01*
X135729284Y-91337844D01*
X135753071Y-91296642D01*
X135827179Y-91168284D01*
X135885674Y-90988256D01*
X135905460Y-90800000D01*
X135885674Y-90611744D01*
X135827179Y-90431716D01*
X135732533Y-90267784D01*
X135729284Y-90262156D01*
X135731929Y-90260628D01*
X135712779Y-90207421D01*
X135728417Y-90139323D01*
X135729344Y-90137879D01*
X135729284Y-90137844D01*
X135779889Y-90050192D01*
X135827179Y-89968284D01*
X135885674Y-89788256D01*
X135905460Y-89600000D01*
X135885674Y-89411744D01*
X135827179Y-89231716D01*
X135732533Y-89067784D01*
X135605871Y-88927112D01*
X135605870Y-88927111D01*
X135452734Y-88815851D01*
X135452729Y-88815848D01*
X135279807Y-88738857D01*
X135279802Y-88738855D01*
X135134001Y-88707865D01*
X135094646Y-88699500D01*
X134905354Y-88699500D01*
X134872897Y-88706398D01*
X134720197Y-88738855D01*
X134720192Y-88738857D01*
X134550436Y-88814439D01*
X134481186Y-88823724D01*
X134449564Y-88814439D01*
X134279807Y-88738857D01*
X134279802Y-88738855D01*
X134134001Y-88707865D01*
X134094646Y-88699500D01*
X133905354Y-88699500D01*
X133872897Y-88706398D01*
X133720197Y-88738855D01*
X133720192Y-88738857D01*
X133547270Y-88815848D01*
X133547265Y-88815851D01*
X133394129Y-88927111D01*
X133267466Y-89067785D01*
X133172821Y-89231715D01*
X133172818Y-89231722D01*
X133114327Y-89411740D01*
X133114326Y-89411744D01*
X133094540Y-89600000D01*
X133114326Y-89788256D01*
X133114327Y-89788259D01*
X133172818Y-89968277D01*
X133172821Y-89968284D01*
X133270716Y-90137844D01*
X133268150Y-90139325D01*
X133287250Y-90193098D01*
X133271327Y-90261129D01*
X133270680Y-90262135D01*
X133270716Y-90262156D01*
X133172821Y-90431715D01*
X133172818Y-90431722D01*
X133114433Y-90611414D01*
X133114326Y-90611744D01*
X133094540Y-90800000D01*
X133114326Y-90988256D01*
X133114327Y-90988259D01*
X133172818Y-91168277D01*
X133172821Y-91168284D01*
X133270716Y-91337844D01*
X133268150Y-91339325D01*
X133287250Y-91393098D01*
X133271327Y-91461129D01*
X133270680Y-91462135D01*
X133270716Y-91462156D01*
X133172821Y-91631715D01*
X133172818Y-91631722D01*
X133116938Y-91803705D01*
X133114326Y-91811744D01*
X133094540Y-92000000D01*
X120100500Y-92000000D01*
X120100499Y-90800000D01*
X126894540Y-90800000D01*
X126914326Y-90988256D01*
X126914327Y-90988259D01*
X126972818Y-91168277D01*
X126972821Y-91168284D01*
X127067467Y-91332216D01*
X127135182Y-91407421D01*
X127194129Y-91472888D01*
X127347265Y-91584148D01*
X127347270Y-91584151D01*
X127520192Y-91661142D01*
X127520197Y-91661144D01*
X127705354Y-91700500D01*
X127705355Y-91700500D01*
X127894644Y-91700500D01*
X127894646Y-91700500D01*
X128079803Y-91661144D01*
X128249566Y-91585559D01*
X128318813Y-91576275D01*
X128350430Y-91585557D01*
X128520197Y-91661144D01*
X128705354Y-91700500D01*
X128705355Y-91700500D01*
X128894644Y-91700500D01*
X128894646Y-91700500D01*
X129079803Y-91661144D01*
X129252730Y-91584151D01*
X129405871Y-91472888D01*
X129532533Y-91332216D01*
X129627179Y-91168284D01*
X129685674Y-90988256D01*
X129705460Y-90800000D01*
X129685674Y-90611744D01*
X129627179Y-90431716D01*
X129532533Y-90267784D01*
X129405871Y-90127112D01*
X129405870Y-90127111D01*
X129252734Y-90015851D01*
X129252729Y-90015848D01*
X129079807Y-89938857D01*
X129079802Y-89938855D01*
X128934001Y-89907865D01*
X128894646Y-89899500D01*
X128705354Y-89899500D01*
X128672897Y-89906398D01*
X128520197Y-89938855D01*
X128520192Y-89938857D01*
X128350436Y-90014439D01*
X128281186Y-90023724D01*
X128249564Y-90014439D01*
X128079807Y-89938857D01*
X128079802Y-89938855D01*
X127934001Y-89907865D01*
X127894646Y-89899500D01*
X127705354Y-89899500D01*
X127672897Y-89906398D01*
X127520197Y-89938855D01*
X127520192Y-89938857D01*
X127347270Y-90015848D01*
X127347265Y-90015851D01*
X127194129Y-90127111D01*
X127067466Y-90267785D01*
X126972821Y-90431715D01*
X126972818Y-90431722D01*
X126914433Y-90611414D01*
X126914326Y-90611744D01*
X126894540Y-90800000D01*
X120100499Y-90800000D01*
X120100499Y-90624992D01*
X120099156Y-90611849D01*
X120089999Y-90522203D01*
X120089998Y-90522200D01*
X120034814Y-90355666D01*
X119942712Y-90206344D01*
X119818656Y-90082288D01*
X119687786Y-90001567D01*
X119669336Y-89990187D01*
X119669331Y-89990185D01*
X119667862Y-89989698D01*
X119502797Y-89935001D01*
X119502795Y-89935000D01*
X119400010Y-89924500D01*
X118099998Y-89924500D01*
X118099981Y-89924501D01*
X117997203Y-89935000D01*
X117997200Y-89935001D01*
X117830668Y-89990185D01*
X117830663Y-89990187D01*
X117681342Y-90082289D01*
X117557288Y-90206343D01*
X117557285Y-90206347D01*
X117461550Y-90361558D01*
X117409602Y-90408283D01*
X117340640Y-90419504D01*
X117276558Y-90391661D01*
X117268331Y-90384143D01*
X117121078Y-90236891D01*
X116927578Y-90101399D01*
X116713492Y-90001570D01*
X116713486Y-90001567D01*
X116500000Y-89944364D01*
X116500000Y-90991981D01*
X116385199Y-90939554D01*
X116283975Y-90925000D01*
X116216025Y-90925000D01*
X116114801Y-90939554D01*
X116000000Y-90991981D01*
X116000000Y-89944364D01*
X115999999Y-89944364D01*
X115786513Y-90001567D01*
X115786507Y-90001570D01*
X115572422Y-90101399D01*
X115572420Y-90101400D01*
X115378926Y-90236886D01*
X115378920Y-90236891D01*
X115211891Y-90403920D01*
X115211890Y-90403922D01*
X115101880Y-90561032D01*
X115047303Y-90604657D01*
X114977804Y-90611849D01*
X114915450Y-90580327D01*
X114898730Y-90561031D01*
X114788494Y-90403597D01*
X114621402Y-90236506D01*
X114621395Y-90236501D01*
X114427834Y-90100967D01*
X114427830Y-90100965D01*
X114318947Y-90050192D01*
X114213663Y-90001097D01*
X114213659Y-90001096D01*
X114213655Y-90001094D01*
X113985413Y-89939938D01*
X113985403Y-89939936D01*
X113750001Y-89919341D01*
X113749999Y-89919341D01*
X113514596Y-89939936D01*
X113514586Y-89939938D01*
X113286344Y-90001094D01*
X113286335Y-90001098D01*
X113072171Y-90100964D01*
X113072169Y-90100965D01*
X112878597Y-90236505D01*
X112711505Y-90403597D01*
X112601575Y-90560595D01*
X112546998Y-90604220D01*
X112477500Y-90611414D01*
X112415145Y-90579891D01*
X112398425Y-90560595D01*
X112288494Y-90403597D01*
X112121402Y-90236506D01*
X112121395Y-90236501D01*
X111927834Y-90100967D01*
X111927830Y-90100965D01*
X111818947Y-90050192D01*
X111713663Y-90001097D01*
X111713659Y-90001096D01*
X111713655Y-90001094D01*
X111485413Y-89939938D01*
X111485403Y-89939936D01*
X111250001Y-89919341D01*
X111249999Y-89919341D01*
X111014596Y-89939936D01*
X111014586Y-89939938D01*
X110786344Y-90001094D01*
X110786335Y-90001098D01*
X110572171Y-90100964D01*
X110572169Y-90100965D01*
X110378597Y-90236505D01*
X110211505Y-90403597D01*
X110075965Y-90597169D01*
X110075964Y-90597171D01*
X109976098Y-90811335D01*
X109976094Y-90811344D01*
X109914938Y-91039586D01*
X109914936Y-91039596D01*
X109899500Y-91216034D01*
X109899500Y-91583966D01*
X100300500Y-91583966D01*
X100300500Y-84165600D01*
X102784341Y-84165600D01*
X102804936Y-84401003D01*
X102804938Y-84401013D01*
X102866094Y-84629255D01*
X102866096Y-84629259D01*
X102866097Y-84629263D01*
X102942136Y-84792328D01*
X102965965Y-84843430D01*
X102965967Y-84843434D01*
X103071253Y-84993797D01*
X103101505Y-85037001D01*
X103268599Y-85204095D01*
X103299006Y-85225386D01*
X103462165Y-85339632D01*
X103462167Y-85339633D01*
X103462170Y-85339635D01*
X103676337Y-85439503D01*
X103904592Y-85500663D01*
X104092918Y-85517139D01*
X104139999Y-85521259D01*
X104140000Y-85521259D01*
X104140001Y-85521259D01*
X104179234Y-85517826D01*
X104375408Y-85500663D01*
X104603663Y-85439503D01*
X104817830Y-85339635D01*
X105011401Y-85204095D01*
X105178495Y-85037001D01*
X105314035Y-84843430D01*
X105413903Y-84629263D01*
X105475063Y-84401008D01*
X105478280Y-84364244D01*
X196519540Y-84364244D01*
X196539326Y-84552500D01*
X196539327Y-84552503D01*
X196597818Y-84732521D01*
X196597821Y-84732528D01*
X196692467Y-84896460D01*
X196780109Y-84993796D01*
X196819129Y-85037132D01*
X196972265Y-85148392D01*
X196972270Y-85148395D01*
X197145192Y-85225386D01*
X197145197Y-85225388D01*
X197330354Y-85264744D01*
X197330355Y-85264744D01*
X197519644Y-85264744D01*
X197519646Y-85264744D01*
X197704803Y-85225388D01*
X197877730Y-85148395D01*
X198030871Y-85037132D01*
X198157533Y-84896460D01*
X198252179Y-84732528D01*
X198310674Y-84552500D01*
X198330460Y-84364244D01*
X198310674Y-84175988D01*
X198252179Y-83995960D01*
X198157533Y-83832028D01*
X198030871Y-83691356D01*
X198030870Y-83691355D01*
X197877734Y-83580095D01*
X197877729Y-83580092D01*
X197704807Y-83503101D01*
X197704802Y-83503099D01*
X197559001Y-83472109D01*
X197519646Y-83463744D01*
X197330354Y-83463744D01*
X197297897Y-83470642D01*
X197145197Y-83503099D01*
X197145192Y-83503101D01*
X196972270Y-83580092D01*
X196972265Y-83580095D01*
X196819129Y-83691355D01*
X196692466Y-83832029D01*
X196597821Y-83995959D01*
X196597818Y-83995966D01*
X196542701Y-84165600D01*
X196539326Y-84175988D01*
X196519540Y-84364244D01*
X105478280Y-84364244D01*
X105495659Y-84165600D01*
X105475063Y-83930192D01*
X105413903Y-83701937D01*
X105314035Y-83487771D01*
X105297212Y-83463744D01*
X105178494Y-83294197D01*
X105011402Y-83127106D01*
X105011401Y-83127105D01*
X104825405Y-82996869D01*
X104781781Y-82942292D01*
X104774588Y-82872793D01*
X104806110Y-82810439D01*
X104825405Y-82793719D01*
X105011082Y-82663705D01*
X105178105Y-82496682D01*
X105313600Y-82303178D01*
X105361712Y-82200000D01*
X201694540Y-82200000D01*
X201714326Y-82388256D01*
X201714327Y-82388259D01*
X201772818Y-82568277D01*
X201772821Y-82568284D01*
X201867467Y-82732216D01*
X201930423Y-82802135D01*
X201994129Y-82872888D01*
X202147265Y-82984148D01*
X202147270Y-82984151D01*
X202320192Y-83061142D01*
X202320197Y-83061144D01*
X202505354Y-83100500D01*
X202505355Y-83100500D01*
X202694644Y-83100500D01*
X202694646Y-83100500D01*
X202879803Y-83061144D01*
X203052730Y-82984151D01*
X203205871Y-82872888D01*
X203332533Y-82732216D01*
X203427179Y-82568284D01*
X203485674Y-82388256D01*
X203505460Y-82200000D01*
X203485674Y-82011744D01*
X203427179Y-81831716D01*
X203332533Y-81667784D01*
X203205871Y-81527112D01*
X203169243Y-81500500D01*
X203052734Y-81415851D01*
X203052729Y-81415848D01*
X202879807Y-81338857D01*
X202879802Y-81338855D01*
X202734001Y-81307865D01*
X202694646Y-81299500D01*
X202505354Y-81299500D01*
X202472897Y-81306398D01*
X202320197Y-81338855D01*
X202320192Y-81338857D01*
X202147270Y-81415848D01*
X202147265Y-81415851D01*
X201994129Y-81527111D01*
X201867466Y-81667785D01*
X201772821Y-81831715D01*
X201772818Y-81831722D01*
X201732309Y-81956398D01*
X201714326Y-82011744D01*
X201694540Y-82200000D01*
X105361712Y-82200000D01*
X105413429Y-82089092D01*
X105413432Y-82089086D01*
X105470636Y-81875600D01*
X104573686Y-81875600D01*
X104599493Y-81835444D01*
X104640000Y-81697489D01*
X104640000Y-81553711D01*
X104599493Y-81415756D01*
X104573686Y-81375600D01*
X105470636Y-81375600D01*
X105470635Y-81375599D01*
X105413432Y-81162113D01*
X105413429Y-81162107D01*
X105313600Y-80948022D01*
X105313599Y-80948020D01*
X105178113Y-80754526D01*
X105178108Y-80754520D01*
X105011078Y-80587490D01*
X104825405Y-80457479D01*
X104781780Y-80402902D01*
X104774588Y-80333404D01*
X104806110Y-80271049D01*
X104825406Y-80254330D01*
X104856044Y-80232877D01*
X105011401Y-80124095D01*
X105178495Y-79957001D01*
X105314035Y-79763430D01*
X105413903Y-79549263D01*
X105440500Y-79450000D01*
X138994540Y-79450000D01*
X139014326Y-79638256D01*
X139014327Y-79638259D01*
X139072818Y-79818277D01*
X139072821Y-79818284D01*
X139167467Y-79982216D01*
X139259505Y-80084434D01*
X139294129Y-80122888D01*
X139447265Y-80234148D01*
X139447270Y-80234151D01*
X139620192Y-80311142D01*
X139620197Y-80311144D01*
X139805354Y-80350500D01*
X139805355Y-80350500D01*
X139994644Y-80350500D01*
X139994646Y-80350500D01*
X140179803Y-80311144D01*
X140352730Y-80234151D01*
X140352730Y-80234150D01*
X140358666Y-80231508D01*
X140359275Y-80232877D01*
X140419685Y-80218217D01*
X140485714Y-80241064D01*
X140528909Y-80295982D01*
X140535556Y-80365535D01*
X140505946Y-80425048D01*
X140467466Y-80467785D01*
X140372821Y-80631715D01*
X140372818Y-80631722D01*
X140314327Y-80811740D01*
X140314326Y-80811744D01*
X140294540Y-81000000D01*
X140314326Y-81188256D01*
X140314327Y-81188259D01*
X140372818Y-81368277D01*
X140372821Y-81368284D01*
X140467467Y-81532216D01*
X140589533Y-81667784D01*
X140594129Y-81672888D01*
X140747265Y-81784148D01*
X140747270Y-81784151D01*
X140920192Y-81861142D01*
X140920197Y-81861144D01*
X141105354Y-81900500D01*
X141105355Y-81900500D01*
X141294644Y-81900500D01*
X141294646Y-81900500D01*
X141479803Y-81861144D01*
X141652730Y-81784151D01*
X141805871Y-81672888D01*
X141932533Y-81532216D01*
X142027179Y-81368284D01*
X142085674Y-81188256D01*
X142105460Y-81000000D01*
X142085674Y-80811744D01*
X142027179Y-80631716D01*
X141932533Y-80467784D01*
X141805871Y-80327112D01*
X141805870Y-80327111D01*
X141652734Y-80215851D01*
X141652729Y-80215848D01*
X141479807Y-80138857D01*
X141479802Y-80138855D01*
X141334001Y-80107865D01*
X141294646Y-80099500D01*
X141105354Y-80099500D01*
X141072897Y-80106398D01*
X140920197Y-80138855D01*
X140920192Y-80138857D01*
X140741334Y-80218492D01*
X140740726Y-80217128D01*
X140680282Y-80231781D01*
X140614259Y-80208917D01*
X140571078Y-80153988D01*
X140564449Y-80084434D01*
X140594053Y-80024951D01*
X140632533Y-79982216D01*
X140654597Y-79944000D01*
X146300540Y-79944000D01*
X146320326Y-80132256D01*
X146320327Y-80132259D01*
X146378818Y-80312277D01*
X146378821Y-80312284D01*
X146473467Y-80476216D01*
X146555109Y-80566888D01*
X146600129Y-80616888D01*
X146753265Y-80728148D01*
X146753270Y-80728151D01*
X146926192Y-80805142D01*
X146926197Y-80805144D01*
X147111354Y-80844500D01*
X147111355Y-80844500D01*
X147300644Y-80844500D01*
X147300646Y-80844500D01*
X147485803Y-80805144D01*
X147658730Y-80728151D01*
X147811871Y-80616888D01*
X147938533Y-80476216D01*
X148033179Y-80312284D01*
X148091674Y-80132256D01*
X148111355Y-79945000D01*
X155462040Y-79945000D01*
X155481826Y-80133256D01*
X155481827Y-80133259D01*
X155540318Y-80313277D01*
X155540321Y-80313284D01*
X155634967Y-80477216D01*
X155745523Y-80600000D01*
X155761629Y-80617888D01*
X155914765Y-80729148D01*
X155914770Y-80729151D01*
X156087692Y-80806142D01*
X156087697Y-80806144D01*
X156272854Y-80845500D01*
X156272855Y-80845500D01*
X156462144Y-80845500D01*
X156462146Y-80845500D01*
X156647303Y-80806144D01*
X156820230Y-80729151D01*
X156973371Y-80617888D01*
X157100033Y-80477216D01*
X157194679Y-80313284D01*
X157253174Y-80133256D01*
X157272960Y-79945000D01*
X164700540Y-79945000D01*
X164720326Y-80133256D01*
X164720327Y-80133259D01*
X164778818Y-80313277D01*
X164778821Y-80313284D01*
X164873467Y-80477216D01*
X164984023Y-80600000D01*
X165000129Y-80617888D01*
X165153265Y-80729148D01*
X165153270Y-80729151D01*
X165326192Y-80806142D01*
X165326197Y-80806144D01*
X165511354Y-80845500D01*
X165511355Y-80845500D01*
X165700644Y-80845500D01*
X165700646Y-80845500D01*
X165885803Y-80806144D01*
X166058730Y-80729151D01*
X166211871Y-80617888D01*
X166338533Y-80477216D01*
X166433179Y-80313284D01*
X166491674Y-80133256D01*
X166511460Y-79945000D01*
X173800540Y-79945000D01*
X173820326Y-80133256D01*
X173820327Y-80133259D01*
X173878818Y-80313277D01*
X173878821Y-80313284D01*
X173973467Y-80477216D01*
X174084023Y-80600000D01*
X174100129Y-80617888D01*
X174253265Y-80729148D01*
X174253270Y-80729151D01*
X174426192Y-80806142D01*
X174426197Y-80806144D01*
X174611354Y-80845500D01*
X174611355Y-80845500D01*
X174800644Y-80845500D01*
X174800646Y-80845500D01*
X174985803Y-80806144D01*
X175158730Y-80729151D01*
X175311871Y-80617888D01*
X175438533Y-80477216D01*
X175533179Y-80313284D01*
X175591674Y-80133256D01*
X175611460Y-79945000D01*
X175606100Y-79894000D01*
X183000540Y-79894000D01*
X183020326Y-80082256D01*
X183020327Y-80082259D01*
X183078818Y-80262277D01*
X183078821Y-80262284D01*
X183173467Y-80426216D01*
X183300129Y-80566888D01*
X183453265Y-80678148D01*
X183453270Y-80678151D01*
X183626192Y-80755142D01*
X183626197Y-80755144D01*
X183811354Y-80794500D01*
X183811355Y-80794500D01*
X184000644Y-80794500D01*
X184000646Y-80794500D01*
X184185803Y-80755144D01*
X184358730Y-80678151D01*
X184466296Y-80600000D01*
X199694540Y-80600000D01*
X199714326Y-80788256D01*
X199714327Y-80788259D01*
X199772818Y-80968277D01*
X199772821Y-80968284D01*
X199867467Y-81132216D01*
X199929084Y-81200648D01*
X199994129Y-81272888D01*
X200147265Y-81384148D01*
X200147270Y-81384151D01*
X200320192Y-81461142D01*
X200320197Y-81461144D01*
X200505354Y-81500500D01*
X200505355Y-81500500D01*
X200694644Y-81500500D01*
X200694646Y-81500500D01*
X200879803Y-81461144D01*
X201052730Y-81384151D01*
X201205871Y-81272888D01*
X201307516Y-81160000D01*
X225894341Y-81160000D01*
X225914936Y-81395403D01*
X225914938Y-81395413D01*
X225976094Y-81623655D01*
X225976096Y-81623659D01*
X225976097Y-81623663D01*
X225999051Y-81672888D01*
X226075965Y-81837830D01*
X226075967Y-81837834D01*
X226119847Y-81900500D01*
X226211501Y-82031396D01*
X226211506Y-82031402D01*
X226333430Y-82153326D01*
X226366915Y-82214649D01*
X226361931Y-82284341D01*
X226320059Y-82340274D01*
X226289083Y-82357189D01*
X226157669Y-82406203D01*
X226157664Y-82406206D01*
X226042455Y-82492452D01*
X226042452Y-82492455D01*
X225956206Y-82607664D01*
X225956202Y-82607671D01*
X225905908Y-82742517D01*
X225900404Y-82793719D01*
X225899501Y-82802123D01*
X225899500Y-82802135D01*
X225899500Y-84597870D01*
X225899501Y-84597876D01*
X225905908Y-84657483D01*
X225956202Y-84792328D01*
X225956206Y-84792335D01*
X226042452Y-84907544D01*
X226042455Y-84907547D01*
X226157664Y-84993793D01*
X226157671Y-84993797D01*
X226292517Y-85044091D01*
X226292516Y-85044091D01*
X226299444Y-85044835D01*
X226352127Y-85050500D01*
X228147872Y-85050499D01*
X228207483Y-85044091D01*
X228342331Y-84993796D01*
X228457546Y-84907546D01*
X228543796Y-84792331D01*
X228594091Y-84657483D01*
X228600500Y-84597873D01*
X228600499Y-82802128D01*
X228594091Y-82742517D01*
X228590248Y-82732214D01*
X228543797Y-82607671D01*
X228543793Y-82607664D01*
X228457547Y-82492455D01*
X228457544Y-82492452D01*
X228342335Y-82406206D01*
X228342328Y-82406202D01*
X228210917Y-82357189D01*
X228154983Y-82315318D01*
X228130566Y-82249853D01*
X228145418Y-82181580D01*
X228166563Y-82153332D01*
X228288495Y-82031401D01*
X228424035Y-81837830D01*
X228523903Y-81623663D01*
X228585063Y-81395408D01*
X228605659Y-81160000D01*
X228585063Y-80924592D01*
X228523903Y-80696337D01*
X228424035Y-80482171D01*
X228420566Y-80477216D01*
X228288494Y-80288597D01*
X228121402Y-80121506D01*
X228121396Y-80121501D01*
X227935842Y-79991575D01*
X227892217Y-79936998D01*
X227885023Y-79867500D01*
X227916546Y-79805145D01*
X227935842Y-79788425D01*
X228006632Y-79738857D01*
X228121401Y-79658495D01*
X228288495Y-79491401D01*
X228424035Y-79297830D01*
X228523903Y-79083663D01*
X228585063Y-78855408D01*
X228605659Y-78620000D01*
X228585063Y-78384592D01*
X228523903Y-78156337D01*
X228424035Y-77942171D01*
X228394826Y-77900455D01*
X228288494Y-77748597D01*
X228121402Y-77581506D01*
X228121396Y-77581501D01*
X227935842Y-77451575D01*
X227892217Y-77396998D01*
X227885023Y-77327500D01*
X227916546Y-77265145D01*
X227935842Y-77248425D01*
X227971538Y-77223430D01*
X228121401Y-77118495D01*
X228288495Y-76951401D01*
X228424035Y-76757830D01*
X228523903Y-76543663D01*
X228585063Y-76315408D01*
X228605659Y-76080000D01*
X228585063Y-75844592D01*
X228523903Y-75616337D01*
X228424035Y-75402171D01*
X228394826Y-75360455D01*
X228288494Y-75208597D01*
X228121402Y-75041506D01*
X228121396Y-75041501D01*
X227935842Y-74911575D01*
X227892217Y-74856998D01*
X227885023Y-74787500D01*
X227916546Y-74725145D01*
X227935842Y-74708425D01*
X227971538Y-74683430D01*
X228121401Y-74578495D01*
X228288495Y-74411401D01*
X228424035Y-74217830D01*
X228523903Y-74003663D01*
X228585063Y-73775408D01*
X228605659Y-73540000D01*
X228585063Y-73304592D01*
X228523903Y-73076337D01*
X228424035Y-72862171D01*
X228394826Y-72820455D01*
X228288494Y-72668597D01*
X228121402Y-72501506D01*
X228121401Y-72501505D01*
X227935405Y-72371269D01*
X227891781Y-72316692D01*
X227884588Y-72247193D01*
X227916110Y-72184839D01*
X227935405Y-72168119D01*
X228121082Y-72038105D01*
X228288105Y-71871082D01*
X228423600Y-71677578D01*
X228523429Y-71463492D01*
X228523432Y-71463486D01*
X228580636Y-71250000D01*
X227683686Y-71250000D01*
X227709493Y-71209844D01*
X227750000Y-71071889D01*
X227750000Y-70928111D01*
X227709493Y-70790156D01*
X227683686Y-70750000D01*
X228580636Y-70750000D01*
X228580635Y-70749999D01*
X228523432Y-70536513D01*
X228523429Y-70536507D01*
X228423600Y-70322422D01*
X228423599Y-70322420D01*
X228288113Y-70128926D01*
X228288108Y-70128920D01*
X228121078Y-69961890D01*
X227935405Y-69831879D01*
X227891780Y-69777302D01*
X227884588Y-69707804D01*
X227916110Y-69645449D01*
X227935406Y-69628730D01*
X228121401Y-69498495D01*
X228288495Y-69331401D01*
X228424035Y-69137830D01*
X228523903Y-68923663D01*
X228585063Y-68695408D01*
X228605659Y-68460000D01*
X228585063Y-68224592D01*
X228523903Y-67996337D01*
X228424035Y-67782171D01*
X228318748Y-67631804D01*
X228288494Y-67588597D01*
X228121402Y-67421506D01*
X228121395Y-67421501D01*
X227927834Y-67285967D01*
X227927830Y-67285965D01*
X227927828Y-67285964D01*
X227713663Y-67186097D01*
X227713659Y-67186096D01*
X227713655Y-67186094D01*
X227485413Y-67124938D01*
X227485403Y-67124936D01*
X227250001Y-67104341D01*
X227249999Y-67104341D01*
X227014596Y-67124936D01*
X227014586Y-67124938D01*
X226786344Y-67186094D01*
X226786335Y-67186098D01*
X226572171Y-67285964D01*
X226572169Y-67285965D01*
X226378597Y-67421505D01*
X226211505Y-67588597D01*
X226075965Y-67782169D01*
X226075964Y-67782171D01*
X225976098Y-67996335D01*
X225976094Y-67996344D01*
X225914938Y-68224586D01*
X225914936Y-68224596D01*
X225894341Y-68459999D01*
X225894341Y-68460000D01*
X225914936Y-68695403D01*
X225914938Y-68695413D01*
X225976094Y-68923655D01*
X225976096Y-68923659D01*
X225976097Y-68923663D01*
X226075965Y-69137830D01*
X226075967Y-69137834D01*
X226211501Y-69331395D01*
X226211506Y-69331402D01*
X226378597Y-69498493D01*
X226378603Y-69498498D01*
X226564594Y-69628730D01*
X226608219Y-69683307D01*
X226615413Y-69752805D01*
X226583890Y-69815160D01*
X226564595Y-69831880D01*
X226378922Y-69961890D01*
X226378920Y-69961891D01*
X226211891Y-70128920D01*
X226211886Y-70128926D01*
X226076400Y-70322420D01*
X226076399Y-70322422D01*
X225976570Y-70536507D01*
X225976567Y-70536513D01*
X225919364Y-70749999D01*
X225919364Y-70750000D01*
X226816314Y-70750000D01*
X226790507Y-70790156D01*
X226750000Y-70928111D01*
X226750000Y-71071889D01*
X226790507Y-71209844D01*
X226816314Y-71250000D01*
X225919364Y-71250000D01*
X225976567Y-71463486D01*
X225976570Y-71463492D01*
X226076399Y-71677578D01*
X226211894Y-71871082D01*
X226378917Y-72038105D01*
X226564595Y-72168119D01*
X226608219Y-72222696D01*
X226615412Y-72292195D01*
X226583890Y-72354549D01*
X226564595Y-72371269D01*
X226378594Y-72501508D01*
X226211505Y-72668597D01*
X226075965Y-72862169D01*
X226075964Y-72862171D01*
X225976098Y-73076335D01*
X225976094Y-73076344D01*
X225914938Y-73304586D01*
X225914936Y-73304596D01*
X225894341Y-73539999D01*
X225894341Y-73540000D01*
X225914936Y-73775403D01*
X225914938Y-73775413D01*
X225976094Y-74003655D01*
X225976096Y-74003659D01*
X225976097Y-74003663D01*
X226075965Y-74217830D01*
X226075967Y-74217834D01*
X226211501Y-74411395D01*
X226211506Y-74411402D01*
X226378597Y-74578493D01*
X226378603Y-74578498D01*
X226564158Y-74708425D01*
X226607783Y-74763002D01*
X226614977Y-74832500D01*
X226583454Y-74894855D01*
X226564158Y-74911575D01*
X226378597Y-75041505D01*
X226211505Y-75208597D01*
X226075965Y-75402169D01*
X226075964Y-75402171D01*
X225976098Y-75616335D01*
X225976094Y-75616344D01*
X225914938Y-75844586D01*
X225914936Y-75844596D01*
X225894341Y-76079999D01*
X225894341Y-76080000D01*
X225914936Y-76315403D01*
X225914938Y-76315413D01*
X225976094Y-76543655D01*
X225976096Y-76543659D01*
X225976097Y-76543663D01*
X226049232Y-76700500D01*
X226075965Y-76757830D01*
X226075967Y-76757834D01*
X226211501Y-76951395D01*
X226211506Y-76951402D01*
X226378597Y-77118493D01*
X226378603Y-77118498D01*
X226564158Y-77248425D01*
X226607783Y-77303002D01*
X226614977Y-77372500D01*
X226583454Y-77434855D01*
X226564158Y-77451575D01*
X226378597Y-77581505D01*
X226211505Y-77748597D01*
X226075965Y-77942169D01*
X226075964Y-77942171D01*
X225976098Y-78156335D01*
X225976094Y-78156344D01*
X225914938Y-78384586D01*
X225914936Y-78384596D01*
X225894341Y-78619999D01*
X225894341Y-78620000D01*
X225914936Y-78855403D01*
X225914938Y-78855413D01*
X225976094Y-79083655D01*
X225976096Y-79083659D01*
X225976097Y-79083663D01*
X226075965Y-79297830D01*
X226075967Y-79297834D01*
X226211501Y-79491395D01*
X226211506Y-79491402D01*
X226378597Y-79658493D01*
X226378603Y-79658498D01*
X226564158Y-79788425D01*
X226607783Y-79843002D01*
X226614977Y-79912500D01*
X226583454Y-79974855D01*
X226564158Y-79991575D01*
X226378597Y-80121505D01*
X226211505Y-80288597D01*
X226075965Y-80482169D01*
X226075964Y-80482171D01*
X225976098Y-80696335D01*
X225976094Y-80696344D01*
X225914938Y-80924586D01*
X225914936Y-80924596D01*
X225894341Y-81159999D01*
X225894341Y-81160000D01*
X201307516Y-81160000D01*
X201332533Y-81132216D01*
X201427179Y-80968284D01*
X201485674Y-80788256D01*
X201505460Y-80600000D01*
X201485674Y-80411744D01*
X201427179Y-80231716D01*
X201332533Y-80067784D01*
X201205871Y-79927112D01*
X201205870Y-79927111D01*
X201052734Y-79815851D01*
X201052729Y-79815848D01*
X200879807Y-79738857D01*
X200879802Y-79738855D01*
X200724003Y-79705740D01*
X200694646Y-79699500D01*
X200505354Y-79699500D01*
X200475997Y-79705740D01*
X200320197Y-79738855D01*
X200320192Y-79738857D01*
X200147270Y-79815848D01*
X200147265Y-79815851D01*
X199994129Y-79927111D01*
X199867466Y-80067785D01*
X199772821Y-80231715D01*
X199772818Y-80231722D01*
X199717199Y-80402902D01*
X199714326Y-80411744D01*
X199694540Y-80600000D01*
X184466296Y-80600000D01*
X184511871Y-80566888D01*
X184638533Y-80426216D01*
X184733179Y-80262284D01*
X184791674Y-80082256D01*
X184811460Y-79894000D01*
X184791674Y-79705744D01*
X184733179Y-79525716D01*
X184638533Y-79361784D01*
X184511871Y-79221112D01*
X184428929Y-79160851D01*
X184358734Y-79109851D01*
X184358729Y-79109848D01*
X184185807Y-79032857D01*
X184185802Y-79032855D01*
X184040001Y-79001865D01*
X184000646Y-78993500D01*
X183811354Y-78993500D01*
X183778897Y-79000398D01*
X183626197Y-79032855D01*
X183626192Y-79032857D01*
X183453270Y-79109848D01*
X183453265Y-79109851D01*
X183300129Y-79221111D01*
X183173466Y-79361785D01*
X183078821Y-79525715D01*
X183078818Y-79525722D01*
X183020327Y-79705740D01*
X183020326Y-79705744D01*
X183000540Y-79894000D01*
X175606100Y-79894000D01*
X175591674Y-79756744D01*
X175533179Y-79576716D01*
X175438533Y-79412784D01*
X175311871Y-79272112D01*
X175310495Y-79271112D01*
X175158734Y-79160851D01*
X175158729Y-79160848D01*
X174985807Y-79083857D01*
X174985802Y-79083855D01*
X174840001Y-79052865D01*
X174800646Y-79044500D01*
X174611354Y-79044500D01*
X174578897Y-79051398D01*
X174426197Y-79083855D01*
X174426192Y-79083857D01*
X174253270Y-79160848D01*
X174253265Y-79160851D01*
X174100129Y-79272111D01*
X173973466Y-79412785D01*
X173878821Y-79576715D01*
X173878818Y-79576722D01*
X173820652Y-79755740D01*
X173820326Y-79756744D01*
X173800540Y-79945000D01*
X166511460Y-79945000D01*
X166491674Y-79756744D01*
X166433179Y-79576716D01*
X166338533Y-79412784D01*
X166211871Y-79272112D01*
X166210495Y-79271112D01*
X166058734Y-79160851D01*
X166058729Y-79160848D01*
X165885807Y-79083857D01*
X165885802Y-79083855D01*
X165740001Y-79052865D01*
X165700646Y-79044500D01*
X165511354Y-79044500D01*
X165478897Y-79051398D01*
X165326197Y-79083855D01*
X165326192Y-79083857D01*
X165153270Y-79160848D01*
X165153265Y-79160851D01*
X165000129Y-79272111D01*
X164873466Y-79412785D01*
X164778821Y-79576715D01*
X164778818Y-79576722D01*
X164720652Y-79755740D01*
X164720326Y-79756744D01*
X164700540Y-79945000D01*
X157272960Y-79945000D01*
X157253174Y-79756744D01*
X157194679Y-79576716D01*
X157100033Y-79412784D01*
X156973371Y-79272112D01*
X156971995Y-79271112D01*
X156820234Y-79160851D01*
X156820229Y-79160848D01*
X156647307Y-79083857D01*
X156647302Y-79083855D01*
X156501501Y-79052865D01*
X156462146Y-79044500D01*
X156272854Y-79044500D01*
X156240397Y-79051398D01*
X156087697Y-79083855D01*
X156087692Y-79083857D01*
X155914770Y-79160848D01*
X155914765Y-79160851D01*
X155761629Y-79272111D01*
X155634966Y-79412785D01*
X155540321Y-79576715D01*
X155540318Y-79576722D01*
X155482152Y-79755740D01*
X155481826Y-79756744D01*
X155462040Y-79945000D01*
X148111355Y-79945000D01*
X148111460Y-79944000D01*
X148091674Y-79755744D01*
X148033179Y-79575716D01*
X147938533Y-79411784D01*
X147811871Y-79271112D01*
X147798977Y-79261744D01*
X147658734Y-79159851D01*
X147658729Y-79159848D01*
X147485807Y-79082857D01*
X147485802Y-79082855D01*
X147340001Y-79051865D01*
X147300646Y-79043500D01*
X147111354Y-79043500D01*
X147078897Y-79050398D01*
X146926197Y-79082855D01*
X146926192Y-79082857D01*
X146753270Y-79159848D01*
X146753265Y-79159851D01*
X146600129Y-79271111D01*
X146473466Y-79411785D01*
X146378821Y-79575715D01*
X146378818Y-79575722D01*
X146325813Y-79738856D01*
X146320326Y-79755744D01*
X146300540Y-79944000D01*
X140654597Y-79944000D01*
X140727179Y-79818284D01*
X140785674Y-79638256D01*
X140805460Y-79450000D01*
X140785674Y-79261744D01*
X140727179Y-79081716D01*
X140632533Y-78917784D01*
X140505871Y-78777112D01*
X140505870Y-78777111D01*
X140352734Y-78665851D01*
X140352729Y-78665848D01*
X140179807Y-78588857D01*
X140179802Y-78588855D01*
X140034001Y-78557865D01*
X139994646Y-78549500D01*
X139805354Y-78549500D01*
X139772897Y-78556398D01*
X139620197Y-78588855D01*
X139620192Y-78588857D01*
X139447270Y-78665848D01*
X139447265Y-78665851D01*
X139294129Y-78777111D01*
X139167466Y-78917785D01*
X139072821Y-79081715D01*
X139072818Y-79081722D01*
X139027528Y-79221112D01*
X139014326Y-79261744D01*
X138994540Y-79450000D01*
X105440500Y-79450000D01*
X105475063Y-79321008D01*
X105495659Y-79085600D01*
X105495506Y-79083856D01*
X105480977Y-78917785D01*
X105475063Y-78850192D01*
X105413903Y-78621937D01*
X105314035Y-78407771D01*
X105178495Y-78214199D01*
X105178494Y-78214197D01*
X105011402Y-78047106D01*
X105011396Y-78047101D01*
X104825842Y-77917175D01*
X104782217Y-77862598D01*
X104775023Y-77793100D01*
X104806546Y-77730745D01*
X104825842Y-77714025D01*
X104848026Y-77698491D01*
X105011401Y-77584095D01*
X105178495Y-77417001D01*
X105314035Y-77223430D01*
X105413903Y-77009263D01*
X105416385Y-77000000D01*
X194094540Y-77000000D01*
X194114326Y-77188256D01*
X194114327Y-77188259D01*
X194172818Y-77368277D01*
X194172821Y-77368284D01*
X194267467Y-77532216D01*
X194314182Y-77584098D01*
X194394129Y-77672888D01*
X194547265Y-77784148D01*
X194547270Y-77784151D01*
X194720192Y-77861142D01*
X194720197Y-77861144D01*
X194905354Y-77900500D01*
X194905355Y-77900500D01*
X195094644Y-77900500D01*
X195094646Y-77900500D01*
X195279803Y-77861144D01*
X195452730Y-77784151D01*
X195605871Y-77672888D01*
X195732533Y-77532216D01*
X195827179Y-77368284D01*
X195885674Y-77188256D01*
X195905460Y-77000000D01*
X195885674Y-76811744D01*
X195827179Y-76631716D01*
X195732533Y-76467784D01*
X195605871Y-76327112D01*
X195589755Y-76315403D01*
X195452734Y-76215851D01*
X195452729Y-76215848D01*
X195279807Y-76138857D01*
X195279802Y-76138855D01*
X195134001Y-76107865D01*
X195094646Y-76099500D01*
X194905354Y-76099500D01*
X194872897Y-76106398D01*
X194720197Y-76138855D01*
X194720192Y-76138857D01*
X194547270Y-76215848D01*
X194547265Y-76215851D01*
X194394129Y-76327111D01*
X194267466Y-76467785D01*
X194172821Y-76631715D01*
X194172818Y-76631722D01*
X194124311Y-76781013D01*
X194114326Y-76811744D01*
X194094540Y-77000000D01*
X105416385Y-77000000D01*
X105475063Y-76781008D01*
X105495659Y-76545600D01*
X105475063Y-76310192D01*
X105413903Y-76081937D01*
X105314035Y-75867771D01*
X105266582Y-75800000D01*
X199094540Y-75800000D01*
X199114326Y-75988256D01*
X199114327Y-75988259D01*
X199172818Y-76168277D01*
X199172821Y-76168284D01*
X199267467Y-76332216D01*
X199389533Y-76467784D01*
X199394129Y-76472888D01*
X199547265Y-76584148D01*
X199547270Y-76584151D01*
X199720192Y-76661142D01*
X199720197Y-76661144D01*
X199905354Y-76700500D01*
X199905355Y-76700500D01*
X200094644Y-76700500D01*
X200094646Y-76700500D01*
X200279803Y-76661144D01*
X200452730Y-76584151D01*
X200527116Y-76530106D01*
X200592920Y-76506627D01*
X200660974Y-76522452D01*
X200672876Y-76530100D01*
X200747266Y-76584148D01*
X200747270Y-76584151D01*
X200920192Y-76661142D01*
X200920197Y-76661144D01*
X201105354Y-76700500D01*
X201105355Y-76700500D01*
X201294644Y-76700500D01*
X201294646Y-76700500D01*
X201479803Y-76661144D01*
X201652730Y-76584151D01*
X201727116Y-76530106D01*
X201792920Y-76506627D01*
X201860974Y-76522452D01*
X201872876Y-76530100D01*
X201947266Y-76584148D01*
X201947270Y-76584151D01*
X202120192Y-76661142D01*
X202120197Y-76661144D01*
X202305354Y-76700500D01*
X202305355Y-76700500D01*
X202494644Y-76700500D01*
X202494646Y-76700500D01*
X202679803Y-76661144D01*
X202852730Y-76584151D01*
X202927116Y-76530106D01*
X202992920Y-76506627D01*
X203060974Y-76522452D01*
X203072876Y-76530100D01*
X203147266Y-76584148D01*
X203147270Y-76584151D01*
X203320192Y-76661142D01*
X203320197Y-76661144D01*
X203505354Y-76700500D01*
X203505355Y-76700500D01*
X203694644Y-76700500D01*
X203694646Y-76700500D01*
X203879803Y-76661144D01*
X204052730Y-76584151D01*
X204205871Y-76472888D01*
X204332533Y-76332216D01*
X204427179Y-76168284D01*
X204485674Y-75988256D01*
X204505460Y-75800000D01*
X204485674Y-75611744D01*
X204427179Y-75431716D01*
X204332533Y-75267784D01*
X204205871Y-75127112D01*
X204205870Y-75127111D01*
X204052734Y-75015851D01*
X204052729Y-75015848D01*
X203879807Y-74938857D01*
X203879802Y-74938855D01*
X203734001Y-74907865D01*
X203694646Y-74899500D01*
X203505354Y-74899500D01*
X203474938Y-74905965D01*
X203320197Y-74938855D01*
X203320192Y-74938857D01*
X203147270Y-75015848D01*
X203147265Y-75015851D01*
X203072885Y-75069892D01*
X203007079Y-75093372D01*
X202939025Y-75077546D01*
X202927115Y-75069892D01*
X202852734Y-75015851D01*
X202852729Y-75015848D01*
X202679807Y-74938857D01*
X202679802Y-74938855D01*
X202534001Y-74907865D01*
X202494646Y-74899500D01*
X202305354Y-74899500D01*
X202274938Y-74905965D01*
X202120197Y-74938855D01*
X202120192Y-74938857D01*
X201947270Y-75015848D01*
X201947265Y-75015851D01*
X201872885Y-75069892D01*
X201807079Y-75093372D01*
X201739025Y-75077546D01*
X201727115Y-75069892D01*
X201652734Y-75015851D01*
X201652729Y-75015848D01*
X201479807Y-74938857D01*
X201479802Y-74938855D01*
X201334001Y-74907865D01*
X201294646Y-74899500D01*
X201105354Y-74899500D01*
X201074938Y-74905965D01*
X200920197Y-74938855D01*
X200920192Y-74938857D01*
X200747270Y-75015848D01*
X200747265Y-75015851D01*
X200672885Y-75069892D01*
X200607079Y-75093372D01*
X200539025Y-75077546D01*
X200527115Y-75069892D01*
X200452734Y-75015851D01*
X200452729Y-75015848D01*
X200279807Y-74938857D01*
X200279802Y-74938855D01*
X200134001Y-74907865D01*
X200094646Y-74899500D01*
X199905354Y-74899500D01*
X199874938Y-74905965D01*
X199720197Y-74938855D01*
X199720192Y-74938857D01*
X199547270Y-75015848D01*
X199547265Y-75015851D01*
X199394129Y-75127111D01*
X199267466Y-75267785D01*
X199172821Y-75431715D01*
X199172818Y-75431722D01*
X199114327Y-75611740D01*
X199114326Y-75611744D01*
X199094540Y-75800000D01*
X105266582Y-75800000D01*
X105178494Y-75674197D01*
X105011402Y-75507106D01*
X105011396Y-75507101D01*
X104825842Y-75377175D01*
X104782217Y-75322598D01*
X104775023Y-75253100D01*
X104806546Y-75190745D01*
X104825842Y-75174025D01*
X104848026Y-75158491D01*
X105011401Y-75044095D01*
X105178495Y-74877001D01*
X105314035Y-74683430D01*
X105413903Y-74469263D01*
X105475063Y-74241008D01*
X105495659Y-74005600D01*
X105475063Y-73770192D01*
X105413903Y-73541937D01*
X105314035Y-73327771D01*
X105178495Y-73134199D01*
X105178494Y-73134197D01*
X105011402Y-72967106D01*
X105011396Y-72967101D01*
X104825842Y-72837175D01*
X104782217Y-72782598D01*
X104775023Y-72713100D01*
X104806546Y-72650745D01*
X104825842Y-72634025D01*
X104848026Y-72618491D01*
X105011401Y-72504095D01*
X105178495Y-72337001D01*
X105314035Y-72143430D01*
X105413903Y-71929263D01*
X105475063Y-71701008D01*
X105477338Y-71675000D01*
X136469540Y-71675000D01*
X136489326Y-71863256D01*
X136489327Y-71863259D01*
X136547818Y-72043277D01*
X136547821Y-72043284D01*
X136642467Y-72207216D01*
X136678463Y-72247193D01*
X136769129Y-72347888D01*
X136922265Y-72459148D01*
X136922270Y-72459151D01*
X137095192Y-72536142D01*
X137095197Y-72536144D01*
X137280354Y-72575500D01*
X137280355Y-72575500D01*
X137469644Y-72575500D01*
X137469646Y-72575500D01*
X137654803Y-72536144D01*
X137827730Y-72459151D01*
X137980871Y-72347888D01*
X138107533Y-72207216D01*
X138202179Y-72043284D01*
X138240507Y-71925320D01*
X138279944Y-71867647D01*
X138344303Y-71840448D01*
X138413149Y-71852362D01*
X138464625Y-71899606D01*
X138476369Y-71925322D01*
X138522818Y-72068277D01*
X138522821Y-72068284D01*
X138617467Y-72232216D01*
X138742671Y-72371269D01*
X138744129Y-72372888D01*
X138897265Y-72484148D01*
X138897270Y-72484151D01*
X139070192Y-72561142D01*
X139070197Y-72561144D01*
X139255354Y-72600500D01*
X139255355Y-72600500D01*
X139444644Y-72600500D01*
X139444646Y-72600500D01*
X139629803Y-72561144D01*
X139802730Y-72484151D01*
X139955871Y-72372888D01*
X140082533Y-72232216D01*
X140092612Y-72214757D01*
X140143179Y-72166542D01*
X140211786Y-72153318D01*
X140276651Y-72179286D01*
X140307388Y-72214758D01*
X140317467Y-72232216D01*
X140444129Y-72372888D01*
X140597265Y-72484148D01*
X140597270Y-72484151D01*
X140770192Y-72561142D01*
X140770197Y-72561144D01*
X140955354Y-72600500D01*
X140955355Y-72600500D01*
X141144644Y-72600500D01*
X141144646Y-72600500D01*
X141329803Y-72561144D01*
X141502730Y-72484151D01*
X141655871Y-72372888D01*
X141782533Y-72232216D01*
X141877179Y-72068284D01*
X141935674Y-71888256D01*
X141955460Y-71700000D01*
X141935674Y-71511744D01*
X141877179Y-71331716D01*
X141782533Y-71167784D01*
X141655871Y-71027112D01*
X141655870Y-71027111D01*
X141502734Y-70915851D01*
X141502729Y-70915848D01*
X141329807Y-70838857D01*
X141329802Y-70838855D01*
X141184001Y-70807865D01*
X141144646Y-70799500D01*
X140955354Y-70799500D01*
X140922897Y-70806398D01*
X140770197Y-70838855D01*
X140770192Y-70838857D01*
X140597270Y-70915848D01*
X140597265Y-70915851D01*
X140444129Y-71027111D01*
X140317467Y-71167783D01*
X140307387Y-71185243D01*
X140256819Y-71233458D01*
X140188212Y-71246680D01*
X140123347Y-71220712D01*
X140092613Y-71185243D01*
X140091336Y-71183031D01*
X140082533Y-71167784D01*
X139955871Y-71027112D01*
X139955870Y-71027111D01*
X139802734Y-70915851D01*
X139802729Y-70915848D01*
X139629807Y-70838857D01*
X139629802Y-70838855D01*
X139484001Y-70807865D01*
X139444646Y-70799500D01*
X139255354Y-70799500D01*
X139222897Y-70806398D01*
X139070197Y-70838855D01*
X139070192Y-70838857D01*
X138897270Y-70915848D01*
X138897265Y-70915851D01*
X138744129Y-71027111D01*
X138617466Y-71167785D01*
X138522821Y-71331715D01*
X138522819Y-71331719D01*
X138484492Y-71449678D01*
X138445054Y-71507353D01*
X138380695Y-71534551D01*
X138311849Y-71522636D01*
X138260373Y-71475392D01*
X138248630Y-71449677D01*
X138202181Y-71306721D01*
X138202178Y-71306715D01*
X138167517Y-71246680D01*
X138107533Y-71142784D01*
X137980871Y-71002112D01*
X137980640Y-71001944D01*
X137827734Y-70890851D01*
X137827729Y-70890848D01*
X137654807Y-70813857D01*
X137654802Y-70813855D01*
X137509001Y-70782865D01*
X137469646Y-70774500D01*
X137280354Y-70774500D01*
X137247897Y-70781398D01*
X137095197Y-70813855D01*
X137095192Y-70813857D01*
X136922270Y-70890848D01*
X136922265Y-70890851D01*
X136769129Y-71002111D01*
X136642466Y-71142785D01*
X136547821Y-71306715D01*
X136547818Y-71306722D01*
X136489327Y-71486740D01*
X136489326Y-71486744D01*
X136469540Y-71675000D01*
X105477338Y-71675000D01*
X105495659Y-71465600D01*
X105475063Y-71230192D01*
X105413903Y-71001937D01*
X105314035Y-70787771D01*
X105231012Y-70669202D01*
X105178496Y-70594200D01*
X105120803Y-70536507D01*
X105056567Y-70472271D01*
X105023084Y-70410951D01*
X105028068Y-70341259D01*
X105069939Y-70285325D01*
X105100915Y-70268410D01*
X105232331Y-70219396D01*
X105347546Y-70133146D01*
X105433796Y-70017931D01*
X105484091Y-69883083D01*
X105490500Y-69823473D01*
X105490499Y-68027728D01*
X105484091Y-67968117D01*
X105433796Y-67833269D01*
X105433795Y-67833268D01*
X105433793Y-67833264D01*
X105347547Y-67718055D01*
X105347544Y-67718052D01*
X105232335Y-67631806D01*
X105232328Y-67631802D01*
X105097482Y-67581508D01*
X105097483Y-67581508D01*
X105037883Y-67575101D01*
X105037881Y-67575100D01*
X105037873Y-67575100D01*
X105037864Y-67575100D01*
X103242129Y-67575100D01*
X103242123Y-67575101D01*
X103182516Y-67581508D01*
X103047671Y-67631802D01*
X103047664Y-67631806D01*
X102932455Y-67718052D01*
X102932452Y-67718055D01*
X102846206Y-67833264D01*
X102846202Y-67833271D01*
X102795908Y-67968117D01*
X102792874Y-67996344D01*
X102789501Y-68027723D01*
X102789500Y-68027735D01*
X102789500Y-69823470D01*
X102789501Y-69823476D01*
X102795908Y-69883083D01*
X102846202Y-70017928D01*
X102846206Y-70017935D01*
X102932452Y-70133144D01*
X102932455Y-70133147D01*
X103047664Y-70219393D01*
X103047671Y-70219397D01*
X103179081Y-70268410D01*
X103235015Y-70310281D01*
X103259432Y-70375745D01*
X103244580Y-70444018D01*
X103223430Y-70472273D01*
X103101503Y-70594200D01*
X102965965Y-70787769D01*
X102965964Y-70787771D01*
X102866098Y-71001935D01*
X102866094Y-71001944D01*
X102804938Y-71230186D01*
X102804936Y-71230196D01*
X102784341Y-71465599D01*
X102784341Y-71465600D01*
X102804936Y-71701003D01*
X102804938Y-71701013D01*
X102866094Y-71929255D01*
X102866096Y-71929259D01*
X102866097Y-71929263D01*
X102930924Y-72068284D01*
X102965965Y-72143430D01*
X102965967Y-72143434D01*
X103051857Y-72266097D01*
X103087284Y-72316692D01*
X103101501Y-72336995D01*
X103101506Y-72337002D01*
X103268597Y-72504093D01*
X103268603Y-72504098D01*
X103454158Y-72634025D01*
X103497783Y-72688602D01*
X103504977Y-72758100D01*
X103473454Y-72820455D01*
X103454158Y-72837175D01*
X103268597Y-72967105D01*
X103101505Y-73134197D01*
X102965965Y-73327769D01*
X102965964Y-73327771D01*
X102866098Y-73541935D01*
X102866094Y-73541944D01*
X102804938Y-73770186D01*
X102804936Y-73770196D01*
X102784341Y-74005599D01*
X102784341Y-74005600D01*
X102804936Y-74241003D01*
X102804938Y-74241013D01*
X102866094Y-74469255D01*
X102866096Y-74469259D01*
X102866097Y-74469263D01*
X102965965Y-74683430D01*
X102965967Y-74683434D01*
X103101501Y-74876995D01*
X103101506Y-74877002D01*
X103268597Y-75044093D01*
X103268603Y-75044098D01*
X103454158Y-75174025D01*
X103497783Y-75228602D01*
X103504977Y-75298100D01*
X103473454Y-75360455D01*
X103454158Y-75377175D01*
X103268597Y-75507105D01*
X103101505Y-75674197D01*
X102965965Y-75867769D01*
X102965964Y-75867771D01*
X102866098Y-76081935D01*
X102866094Y-76081944D01*
X102804938Y-76310186D01*
X102804936Y-76310196D01*
X102784341Y-76545599D01*
X102784341Y-76545600D01*
X102804936Y-76781003D01*
X102804938Y-76781013D01*
X102866094Y-77009255D01*
X102866096Y-77009259D01*
X102866097Y-77009263D01*
X102965965Y-77223430D01*
X102965967Y-77223434D01*
X103101501Y-77416995D01*
X103101506Y-77417002D01*
X103268597Y-77584093D01*
X103268603Y-77584098D01*
X103454158Y-77714025D01*
X103497783Y-77768602D01*
X103504977Y-77838100D01*
X103473454Y-77900455D01*
X103454158Y-77917175D01*
X103268597Y-78047105D01*
X103101505Y-78214197D01*
X102965965Y-78407769D01*
X102965964Y-78407771D01*
X102866098Y-78621935D01*
X102866094Y-78621944D01*
X102804938Y-78850186D01*
X102804936Y-78850196D01*
X102784341Y-79085599D01*
X102784341Y-79085600D01*
X102804936Y-79321003D01*
X102804938Y-79321013D01*
X102866094Y-79549255D01*
X102866096Y-79549259D01*
X102866097Y-79549263D01*
X102954506Y-79738856D01*
X102965965Y-79763430D01*
X102965967Y-79763434D01*
X103054590Y-79890000D01*
X103080576Y-79927112D01*
X103101501Y-79956995D01*
X103101506Y-79957002D01*
X103268597Y-80124093D01*
X103268603Y-80124098D01*
X103356403Y-80185576D01*
X103422390Y-80231781D01*
X103454594Y-80254330D01*
X103498219Y-80308907D01*
X103505413Y-80378405D01*
X103473890Y-80440760D01*
X103454595Y-80457480D01*
X103268922Y-80587490D01*
X103268920Y-80587491D01*
X103101891Y-80754520D01*
X103101886Y-80754526D01*
X102966400Y-80948020D01*
X102966399Y-80948022D01*
X102866570Y-81162107D01*
X102866567Y-81162113D01*
X102809364Y-81375599D01*
X102809364Y-81375600D01*
X103706314Y-81375600D01*
X103680507Y-81415756D01*
X103640000Y-81553711D01*
X103640000Y-81697489D01*
X103680507Y-81835444D01*
X103706314Y-81875600D01*
X102809364Y-81875600D01*
X102866567Y-82089086D01*
X102866570Y-82089092D01*
X102966399Y-82303178D01*
X103101894Y-82496682D01*
X103268917Y-82663705D01*
X103454595Y-82793719D01*
X103498219Y-82848296D01*
X103505412Y-82917795D01*
X103473890Y-82980149D01*
X103454595Y-82996869D01*
X103268594Y-83127108D01*
X103101505Y-83294197D01*
X102965965Y-83487769D01*
X102965964Y-83487771D01*
X102866098Y-83701935D01*
X102866094Y-83701944D01*
X102804938Y-83930186D01*
X102804936Y-83930196D01*
X102784341Y-84165599D01*
X102784341Y-84165600D01*
X100300500Y-84165600D01*
X100300500Y-63250000D01*
X145844540Y-63250000D01*
X145864326Y-63438256D01*
X145864327Y-63438259D01*
X145922818Y-63618277D01*
X145922821Y-63618284D01*
X146017467Y-63782216D01*
X146139533Y-63917784D01*
X146144129Y-63922888D01*
X146297265Y-64034148D01*
X146297270Y-64034151D01*
X146470192Y-64111142D01*
X146470193Y-64111142D01*
X146470197Y-64111144D01*
X146470200Y-64111144D01*
X146476374Y-64113151D01*
X146475952Y-64114448D01*
X146531075Y-64144208D01*
X146564852Y-64205370D01*
X146565105Y-64258081D01*
X146564326Y-64261742D01*
X146564326Y-64261744D01*
X146544540Y-64450000D01*
X146564326Y-64638256D01*
X146564327Y-64638259D01*
X146622818Y-64818277D01*
X146622821Y-64818284D01*
X146717467Y-64982216D01*
X146762043Y-65031722D01*
X146844129Y-65122888D01*
X146997265Y-65234148D01*
X146997270Y-65234151D01*
X147170197Y-65311144D01*
X147199707Y-65317416D01*
X147261187Y-65350608D01*
X147294964Y-65411770D01*
X147297245Y-65425739D01*
X147314326Y-65588256D01*
X147314327Y-65588259D01*
X147372818Y-65768277D01*
X147372821Y-65768284D01*
X147467467Y-65932216D01*
X147594129Y-66072888D01*
X147747265Y-66184148D01*
X147747270Y-66184151D01*
X147920192Y-66261142D01*
X147920197Y-66261144D01*
X148105354Y-66300500D01*
X148105355Y-66300500D01*
X148294644Y-66300500D01*
X148294646Y-66300500D01*
X148479803Y-66261144D01*
X148652730Y-66184151D01*
X148805871Y-66072888D01*
X148932533Y-65932216D01*
X149027179Y-65768284D01*
X149085674Y-65588256D01*
X149105460Y-65400000D01*
X149085674Y-65211744D01*
X149027179Y-65031716D01*
X148932533Y-64867784D01*
X148805871Y-64727112D01*
X148805870Y-64727111D01*
X148652734Y-64615851D01*
X148652729Y-64615848D01*
X148479807Y-64538857D01*
X148479803Y-64538856D01*
X148450292Y-64532583D01*
X148388811Y-64499390D01*
X148355034Y-64438227D01*
X148352755Y-64424272D01*
X148335674Y-64261744D01*
X148277179Y-64081716D01*
X148182533Y-63917784D01*
X148055871Y-63777112D01*
X148055870Y-63777111D01*
X147902734Y-63665851D01*
X147902729Y-63665848D01*
X147729807Y-63588857D01*
X147723626Y-63586849D01*
X147724046Y-63585554D01*
X147668912Y-63555780D01*
X147635143Y-63494613D01*
X147634898Y-63441902D01*
X147635670Y-63438266D01*
X147635674Y-63438256D01*
X147655460Y-63250000D01*
X147635674Y-63061744D01*
X147577179Y-62881716D01*
X147482533Y-62717784D01*
X147355871Y-62577112D01*
X147355870Y-62577111D01*
X147202734Y-62465851D01*
X147202729Y-62465848D01*
X147029807Y-62388857D01*
X147029802Y-62388855D01*
X146884001Y-62357865D01*
X146844646Y-62349500D01*
X146655354Y-62349500D01*
X146622897Y-62356398D01*
X146470197Y-62388855D01*
X146470192Y-62388857D01*
X146297270Y-62465848D01*
X146297265Y-62465851D01*
X146144129Y-62577111D01*
X146017466Y-62717785D01*
X145922821Y-62881715D01*
X145922818Y-62881722D01*
X145864327Y-63061740D01*
X145864326Y-63061744D01*
X145844540Y-63250000D01*
X100300500Y-63250000D01*
X100300500Y-61540000D01*
X156632341Y-61540000D01*
X156652936Y-61775403D01*
X156652938Y-61775413D01*
X156714094Y-62003655D01*
X156714096Y-62003659D01*
X156714097Y-62003663D01*
X156793801Y-62174588D01*
X156813965Y-62217830D01*
X156813967Y-62217834D01*
X156906161Y-62349500D01*
X156949505Y-62411401D01*
X157116599Y-62578495D01*
X157213384Y-62646265D01*
X157310165Y-62714032D01*
X157310167Y-62714033D01*
X157310170Y-62714035D01*
X157524337Y-62813903D01*
X157752592Y-62875063D01*
X157940918Y-62891539D01*
X157987999Y-62895659D01*
X157988000Y-62895659D01*
X157988001Y-62895659D01*
X158027234Y-62892226D01*
X158223408Y-62875063D01*
X158451663Y-62813903D01*
X158665830Y-62714035D01*
X158859401Y-62578495D01*
X159026495Y-62411401D01*
X159156425Y-62225842D01*
X159211002Y-62182217D01*
X159280500Y-62175023D01*
X159342855Y-62206546D01*
X159359575Y-62225842D01*
X159489500Y-62411395D01*
X159489505Y-62411401D01*
X159656599Y-62578495D01*
X159753384Y-62646265D01*
X159850165Y-62714032D01*
X159850167Y-62714033D01*
X159850170Y-62714035D01*
X160064337Y-62813903D01*
X160292592Y-62875063D01*
X160480918Y-62891539D01*
X160527999Y-62895659D01*
X160528000Y-62895659D01*
X160528001Y-62895659D01*
X160567234Y-62892226D01*
X160763408Y-62875063D01*
X160991663Y-62813903D01*
X161205830Y-62714035D01*
X161399401Y-62578495D01*
X161566495Y-62411401D01*
X161696425Y-62225842D01*
X161751002Y-62182217D01*
X161820500Y-62175023D01*
X161882855Y-62206546D01*
X161899575Y-62225842D01*
X162029500Y-62411395D01*
X162029505Y-62411401D01*
X162196599Y-62578495D01*
X162293384Y-62646265D01*
X162390165Y-62714032D01*
X162390167Y-62714033D01*
X162390170Y-62714035D01*
X162604337Y-62813903D01*
X162832592Y-62875063D01*
X163020918Y-62891539D01*
X163067999Y-62895659D01*
X163068000Y-62895659D01*
X163068001Y-62895659D01*
X163107234Y-62892226D01*
X163303408Y-62875063D01*
X163531663Y-62813903D01*
X163745830Y-62714035D01*
X163939401Y-62578495D01*
X164106495Y-62411401D01*
X164236730Y-62225405D01*
X164291307Y-62181781D01*
X164360805Y-62174587D01*
X164423160Y-62206110D01*
X164439879Y-62225405D01*
X164569890Y-62411078D01*
X164736917Y-62578105D01*
X164930421Y-62713600D01*
X165144507Y-62813429D01*
X165144516Y-62813433D01*
X165358000Y-62870634D01*
X165358000Y-61975501D01*
X165465685Y-62024680D01*
X165572237Y-62040000D01*
X165643763Y-62040000D01*
X165750315Y-62024680D01*
X165858000Y-61975501D01*
X165858000Y-62870633D01*
X166071483Y-62813433D01*
X166071492Y-62813429D01*
X166285578Y-62713600D01*
X166479082Y-62578105D01*
X166646105Y-62411082D01*
X166776119Y-62225405D01*
X166830696Y-62181781D01*
X166900195Y-62174588D01*
X166962549Y-62206110D01*
X166979269Y-62225405D01*
X167109505Y-62411401D01*
X167276599Y-62578495D01*
X167373384Y-62646265D01*
X167470165Y-62714032D01*
X167470167Y-62714033D01*
X167470170Y-62714035D01*
X167684337Y-62813903D01*
X167912592Y-62875063D01*
X168100918Y-62891539D01*
X168147999Y-62895659D01*
X168148000Y-62895659D01*
X168148001Y-62895659D01*
X168187234Y-62892226D01*
X168383408Y-62875063D01*
X168611663Y-62813903D01*
X168825830Y-62714035D01*
X169019401Y-62578495D01*
X169186495Y-62411401D01*
X169316730Y-62225405D01*
X169371307Y-62181781D01*
X169440805Y-62174587D01*
X169503160Y-62206110D01*
X169519879Y-62225405D01*
X169649890Y-62411078D01*
X169816917Y-62578105D01*
X170010421Y-62713600D01*
X170224507Y-62813429D01*
X170224516Y-62813433D01*
X170438000Y-62870634D01*
X170438000Y-61975501D01*
X170545685Y-62024680D01*
X170652237Y-62040000D01*
X170723763Y-62040000D01*
X170830315Y-62024680D01*
X170938000Y-61975501D01*
X170938000Y-62870633D01*
X171151483Y-62813433D01*
X171151492Y-62813429D01*
X171365578Y-62713600D01*
X171559082Y-62578105D01*
X171726105Y-62411082D01*
X171856119Y-62225405D01*
X171910696Y-62181781D01*
X171980195Y-62174588D01*
X172042549Y-62206110D01*
X172059269Y-62225405D01*
X172189505Y-62411401D01*
X172356599Y-62578495D01*
X172453384Y-62646265D01*
X172550165Y-62714032D01*
X172550167Y-62714033D01*
X172550170Y-62714035D01*
X172764337Y-62813903D01*
X172992592Y-62875063D01*
X173180918Y-62891539D01*
X173227999Y-62895659D01*
X173228000Y-62895659D01*
X173228001Y-62895659D01*
X173267234Y-62892226D01*
X173463408Y-62875063D01*
X173691663Y-62813903D01*
X173905830Y-62714035D01*
X174099401Y-62578495D01*
X174266495Y-62411401D01*
X174396425Y-62225842D01*
X174451002Y-62182217D01*
X174520500Y-62175023D01*
X174582855Y-62206546D01*
X174599575Y-62225842D01*
X174729500Y-62411395D01*
X174729505Y-62411401D01*
X174896599Y-62578495D01*
X174993384Y-62646265D01*
X175090165Y-62714032D01*
X175090167Y-62714033D01*
X175090170Y-62714035D01*
X175304337Y-62813903D01*
X175532592Y-62875063D01*
X175720918Y-62891539D01*
X175767999Y-62895659D01*
X175768000Y-62895659D01*
X175768001Y-62895659D01*
X175807234Y-62892226D01*
X176003408Y-62875063D01*
X176231663Y-62813903D01*
X176445830Y-62714035D01*
X176639401Y-62578495D01*
X176806495Y-62411401D01*
X176936425Y-62225842D01*
X176991002Y-62182217D01*
X177060500Y-62175023D01*
X177122855Y-62206546D01*
X177139575Y-62225842D01*
X177269500Y-62411395D01*
X177269505Y-62411401D01*
X177436599Y-62578495D01*
X177533384Y-62646265D01*
X177630165Y-62714032D01*
X177630167Y-62714033D01*
X177630170Y-62714035D01*
X177844337Y-62813903D01*
X178072592Y-62875063D01*
X178260918Y-62891539D01*
X178307999Y-62895659D01*
X178308000Y-62895659D01*
X178308001Y-62895659D01*
X178347234Y-62892226D01*
X178543408Y-62875063D01*
X178771663Y-62813903D01*
X178985830Y-62714035D01*
X179179401Y-62578495D01*
X179346495Y-62411401D01*
X179476425Y-62225842D01*
X179531002Y-62182217D01*
X179600500Y-62175023D01*
X179662855Y-62206546D01*
X179679575Y-62225842D01*
X179809500Y-62411395D01*
X179809505Y-62411401D01*
X179976599Y-62578495D01*
X180073384Y-62646265D01*
X180170165Y-62714032D01*
X180170167Y-62714033D01*
X180170170Y-62714035D01*
X180384337Y-62813903D01*
X180612592Y-62875063D01*
X180800918Y-62891539D01*
X180847999Y-62895659D01*
X180848000Y-62895659D01*
X180848001Y-62895659D01*
X180887234Y-62892226D01*
X181083408Y-62875063D01*
X181311663Y-62813903D01*
X181525830Y-62714035D01*
X181719401Y-62578495D01*
X181886495Y-62411401D01*
X182016730Y-62225405D01*
X182071307Y-62181781D01*
X182140805Y-62174587D01*
X182203160Y-62206110D01*
X182219879Y-62225405D01*
X182349890Y-62411078D01*
X182516917Y-62578105D01*
X182710421Y-62713600D01*
X182924507Y-62813429D01*
X182924516Y-62813433D01*
X183138000Y-62870634D01*
X183138000Y-61975501D01*
X183245685Y-62024680D01*
X183352237Y-62040000D01*
X183423763Y-62040000D01*
X183530315Y-62024680D01*
X183638000Y-61975501D01*
X183638000Y-62870633D01*
X183851483Y-62813433D01*
X183851492Y-62813429D01*
X184065578Y-62713600D01*
X184259082Y-62578105D01*
X184426105Y-62411082D01*
X184556119Y-62225405D01*
X184610696Y-62181781D01*
X184680195Y-62174588D01*
X184742549Y-62206110D01*
X184759269Y-62225405D01*
X184889505Y-62411401D01*
X185056599Y-62578495D01*
X185153384Y-62646265D01*
X185250165Y-62714032D01*
X185250167Y-62714033D01*
X185250170Y-62714035D01*
X185464337Y-62813903D01*
X185692592Y-62875063D01*
X185880918Y-62891539D01*
X185927999Y-62895659D01*
X185928000Y-62895659D01*
X185928001Y-62895659D01*
X185967234Y-62892226D01*
X186163408Y-62875063D01*
X186391663Y-62813903D01*
X186605830Y-62714035D01*
X186799401Y-62578495D01*
X186966495Y-62411401D01*
X187096425Y-62225842D01*
X187151002Y-62182217D01*
X187220500Y-62175023D01*
X187282855Y-62206546D01*
X187299575Y-62225842D01*
X187429500Y-62411395D01*
X187429505Y-62411401D01*
X187596599Y-62578495D01*
X187693384Y-62646265D01*
X187790165Y-62714032D01*
X187790167Y-62714033D01*
X187790170Y-62714035D01*
X188004337Y-62813903D01*
X188232592Y-62875063D01*
X188420918Y-62891539D01*
X188467999Y-62895659D01*
X188468000Y-62895659D01*
X188468001Y-62895659D01*
X188507234Y-62892226D01*
X188703408Y-62875063D01*
X188931663Y-62813903D01*
X189145830Y-62714035D01*
X189339401Y-62578495D01*
X189506495Y-62411401D01*
X189636730Y-62225405D01*
X189691307Y-62181781D01*
X189760805Y-62174587D01*
X189823160Y-62206110D01*
X189839879Y-62225405D01*
X189969890Y-62411078D01*
X190136917Y-62578105D01*
X190330421Y-62713600D01*
X190544507Y-62813429D01*
X190544516Y-62813433D01*
X190758000Y-62870634D01*
X190758000Y-61975501D01*
X190865685Y-62024680D01*
X190972237Y-62040000D01*
X191043763Y-62040000D01*
X191150315Y-62024680D01*
X191258000Y-61975501D01*
X191258000Y-62870634D01*
X191471483Y-62813433D01*
X191471492Y-62813429D01*
X191685578Y-62713600D01*
X191879082Y-62578105D01*
X192046105Y-62411082D01*
X192176119Y-62225405D01*
X192230696Y-62181781D01*
X192300195Y-62174588D01*
X192362549Y-62206110D01*
X192379269Y-62225405D01*
X192509505Y-62411401D01*
X192676599Y-62578495D01*
X192773384Y-62646265D01*
X192870165Y-62714032D01*
X192870167Y-62714033D01*
X192870170Y-62714035D01*
X193084337Y-62813903D01*
X193312592Y-62875063D01*
X193500918Y-62891539D01*
X193547999Y-62895659D01*
X193548000Y-62895659D01*
X193548001Y-62895659D01*
X193587234Y-62892226D01*
X193783408Y-62875063D01*
X194011663Y-62813903D01*
X194225830Y-62714035D01*
X194419401Y-62578495D01*
X194586495Y-62411401D01*
X194716425Y-62225842D01*
X194771002Y-62182217D01*
X194840500Y-62175023D01*
X194902855Y-62206546D01*
X194919575Y-62225842D01*
X195049500Y-62411395D01*
X195049505Y-62411401D01*
X195216599Y-62578495D01*
X195313384Y-62646265D01*
X195410165Y-62714032D01*
X195410167Y-62714033D01*
X195410170Y-62714035D01*
X195624337Y-62813903D01*
X195852592Y-62875063D01*
X196040918Y-62891539D01*
X196087999Y-62895659D01*
X196088000Y-62895659D01*
X196088001Y-62895659D01*
X196127234Y-62892226D01*
X196323408Y-62875063D01*
X196551663Y-62813903D01*
X196765830Y-62714035D01*
X196959401Y-62578495D01*
X197126495Y-62411401D01*
X197256425Y-62225842D01*
X197311002Y-62182217D01*
X197380500Y-62175023D01*
X197442855Y-62206546D01*
X197459575Y-62225842D01*
X197589500Y-62411395D01*
X197589505Y-62411401D01*
X197756599Y-62578495D01*
X197853384Y-62646265D01*
X197950165Y-62714032D01*
X197950167Y-62714033D01*
X197950170Y-62714035D01*
X198164337Y-62813903D01*
X198392592Y-62875063D01*
X198580918Y-62891539D01*
X198627999Y-62895659D01*
X198628000Y-62895659D01*
X198628001Y-62895659D01*
X198667234Y-62892226D01*
X198863408Y-62875063D01*
X199091663Y-62813903D01*
X199305830Y-62714035D01*
X199499401Y-62578495D01*
X199666495Y-62411401D01*
X199796730Y-62225405D01*
X199851307Y-62181781D01*
X199920805Y-62174587D01*
X199983160Y-62206110D01*
X199999879Y-62225405D01*
X200129890Y-62411078D01*
X200296917Y-62578105D01*
X200490421Y-62713600D01*
X200704507Y-62813429D01*
X200704516Y-62813433D01*
X200918000Y-62870634D01*
X200918000Y-61975501D01*
X201025685Y-62024680D01*
X201132237Y-62040000D01*
X201203763Y-62040000D01*
X201310315Y-62024680D01*
X201418000Y-61975501D01*
X201418000Y-62870633D01*
X201631483Y-62813433D01*
X201631492Y-62813429D01*
X201845578Y-62713600D01*
X202039082Y-62578105D01*
X202206105Y-62411082D01*
X202336119Y-62225405D01*
X202390696Y-62181781D01*
X202460195Y-62174588D01*
X202522549Y-62206110D01*
X202539269Y-62225405D01*
X202669505Y-62411401D01*
X202836599Y-62578495D01*
X202933384Y-62646265D01*
X203030165Y-62714032D01*
X203030167Y-62714033D01*
X203030170Y-62714035D01*
X203244337Y-62813903D01*
X203472592Y-62875063D01*
X203660918Y-62891539D01*
X203707999Y-62895659D01*
X203708000Y-62895659D01*
X203708001Y-62895659D01*
X203747234Y-62892226D01*
X203943408Y-62875063D01*
X204171663Y-62813903D01*
X204385830Y-62714035D01*
X204579401Y-62578495D01*
X204746495Y-62411401D01*
X204876425Y-62225842D01*
X204931002Y-62182217D01*
X205000500Y-62175023D01*
X205062855Y-62206546D01*
X205079575Y-62225842D01*
X205209500Y-62411395D01*
X205209505Y-62411401D01*
X205376599Y-62578495D01*
X205473384Y-62646265D01*
X205570165Y-62714032D01*
X205570167Y-62714033D01*
X205570170Y-62714035D01*
X205784337Y-62813903D01*
X206012592Y-62875063D01*
X206200918Y-62891539D01*
X206247999Y-62895659D01*
X206248000Y-62895659D01*
X206248001Y-62895659D01*
X206287234Y-62892226D01*
X206483408Y-62875063D01*
X206711663Y-62813903D01*
X206925830Y-62714035D01*
X207119401Y-62578495D01*
X207286495Y-62411401D01*
X207422035Y-62217830D01*
X207521903Y-62003663D01*
X207583063Y-61775408D01*
X207603659Y-61540000D01*
X207583063Y-61304592D01*
X207521903Y-61076337D01*
X207422035Y-60862171D01*
X207416730Y-60854595D01*
X207286496Y-60668600D01*
X207286490Y-60668594D01*
X207164567Y-60546671D01*
X207131084Y-60485351D01*
X207136068Y-60415659D01*
X207177939Y-60359725D01*
X207208915Y-60342810D01*
X207340331Y-60293796D01*
X207455546Y-60207546D01*
X207541796Y-60092331D01*
X207592091Y-59957483D01*
X207598500Y-59897873D01*
X207598499Y-58102128D01*
X207592091Y-58042517D01*
X207590810Y-58039083D01*
X207541797Y-57907671D01*
X207541793Y-57907664D01*
X207455547Y-57792455D01*
X207455544Y-57792452D01*
X207340335Y-57706206D01*
X207340328Y-57706202D01*
X207205482Y-57655908D01*
X207205483Y-57655908D01*
X207145883Y-57649501D01*
X207145881Y-57649500D01*
X207145873Y-57649500D01*
X207145864Y-57649500D01*
X205350129Y-57649500D01*
X205350123Y-57649501D01*
X205290516Y-57655908D01*
X205155671Y-57706202D01*
X205155664Y-57706206D01*
X205040455Y-57792452D01*
X205040452Y-57792455D01*
X204954206Y-57907664D01*
X204954203Y-57907669D01*
X204905189Y-58039083D01*
X204863317Y-58095016D01*
X204797853Y-58119433D01*
X204729580Y-58104581D01*
X204701326Y-58083430D01*
X204579402Y-57961506D01*
X204579395Y-57961501D01*
X204385834Y-57825967D01*
X204385830Y-57825965D01*
X204385828Y-57825964D01*
X204171663Y-57726097D01*
X204171659Y-57726096D01*
X204171655Y-57726094D01*
X203943413Y-57664938D01*
X203943403Y-57664936D01*
X203708001Y-57644341D01*
X203707999Y-57644341D01*
X203472596Y-57664936D01*
X203472586Y-57664938D01*
X203244344Y-57726094D01*
X203244335Y-57726098D01*
X203030171Y-57825964D01*
X203030169Y-57825965D01*
X202836597Y-57961505D01*
X202669505Y-58128597D01*
X202539575Y-58314158D01*
X202484998Y-58357783D01*
X202415500Y-58364977D01*
X202353145Y-58333454D01*
X202336425Y-58314158D01*
X202206494Y-58128597D01*
X202039402Y-57961506D01*
X202039395Y-57961501D01*
X201845834Y-57825967D01*
X201845830Y-57825965D01*
X201845828Y-57825964D01*
X201631663Y-57726097D01*
X201631659Y-57726096D01*
X201631655Y-57726094D01*
X201403413Y-57664938D01*
X201403403Y-57664936D01*
X201168001Y-57644341D01*
X201167999Y-57644341D01*
X200932596Y-57664936D01*
X200932586Y-57664938D01*
X200704344Y-57726094D01*
X200704335Y-57726098D01*
X200490171Y-57825964D01*
X200490169Y-57825965D01*
X200296597Y-57961505D01*
X200129505Y-58128597D01*
X199999575Y-58314158D01*
X199944998Y-58357783D01*
X199875500Y-58364977D01*
X199813145Y-58333454D01*
X199796425Y-58314158D01*
X199666494Y-58128597D01*
X199499402Y-57961506D01*
X199499395Y-57961501D01*
X199305834Y-57825967D01*
X199305830Y-57825965D01*
X199305828Y-57825964D01*
X199091663Y-57726097D01*
X199091659Y-57726096D01*
X199091655Y-57726094D01*
X198863413Y-57664938D01*
X198863403Y-57664936D01*
X198628001Y-57644341D01*
X198627999Y-57644341D01*
X198392596Y-57664936D01*
X198392586Y-57664938D01*
X198164344Y-57726094D01*
X198164335Y-57726098D01*
X197950171Y-57825964D01*
X197950169Y-57825965D01*
X197756597Y-57961505D01*
X197589508Y-58128594D01*
X197459269Y-58314595D01*
X197404692Y-58358219D01*
X197335193Y-58365412D01*
X197272839Y-58333890D01*
X197256119Y-58314594D01*
X197126113Y-58128926D01*
X197126108Y-58128920D01*
X196959082Y-57961894D01*
X196765578Y-57826399D01*
X196551492Y-57726570D01*
X196551486Y-57726567D01*
X196338000Y-57669364D01*
X196338000Y-58564498D01*
X196230315Y-58515320D01*
X196123763Y-58500000D01*
X196052237Y-58500000D01*
X195945685Y-58515320D01*
X195838000Y-58564498D01*
X195838000Y-57669364D01*
X195837999Y-57669364D01*
X195624513Y-57726567D01*
X195624507Y-57726570D01*
X195410422Y-57826399D01*
X195410420Y-57826400D01*
X195216926Y-57961886D01*
X195216920Y-57961891D01*
X195049891Y-58128920D01*
X195049890Y-58128922D01*
X194919880Y-58314595D01*
X194865303Y-58358219D01*
X194795804Y-58365412D01*
X194733450Y-58333890D01*
X194716730Y-58314594D01*
X194586494Y-58128597D01*
X194419402Y-57961506D01*
X194419395Y-57961501D01*
X194225834Y-57825967D01*
X194225830Y-57825965D01*
X194225828Y-57825964D01*
X194011663Y-57726097D01*
X194011659Y-57726096D01*
X194011655Y-57726094D01*
X193783413Y-57664938D01*
X193783403Y-57664936D01*
X193548001Y-57644341D01*
X193547999Y-57644341D01*
X193312596Y-57664936D01*
X193312586Y-57664938D01*
X193084344Y-57726094D01*
X193084335Y-57726098D01*
X192870171Y-57825964D01*
X192870169Y-57825965D01*
X192676597Y-57961505D01*
X192509505Y-58128597D01*
X192379575Y-58314158D01*
X192324998Y-58357783D01*
X192255500Y-58364977D01*
X192193145Y-58333454D01*
X192176425Y-58314158D01*
X192046494Y-58128597D01*
X191879402Y-57961506D01*
X191879395Y-57961501D01*
X191685834Y-57825967D01*
X191685830Y-57825965D01*
X191685828Y-57825964D01*
X191471663Y-57726097D01*
X191471659Y-57726096D01*
X191471655Y-57726094D01*
X191243413Y-57664938D01*
X191243403Y-57664936D01*
X191008001Y-57644341D01*
X191007999Y-57644341D01*
X190772596Y-57664936D01*
X190772586Y-57664938D01*
X190544344Y-57726094D01*
X190544335Y-57726098D01*
X190330171Y-57825964D01*
X190330169Y-57825965D01*
X190136597Y-57961505D01*
X189969505Y-58128597D01*
X189839575Y-58314158D01*
X189784998Y-58357783D01*
X189715500Y-58364977D01*
X189653145Y-58333454D01*
X189636425Y-58314158D01*
X189506494Y-58128597D01*
X189339402Y-57961506D01*
X189339395Y-57961501D01*
X189145834Y-57825967D01*
X189145830Y-57825965D01*
X189145828Y-57825964D01*
X188931663Y-57726097D01*
X188931659Y-57726096D01*
X188931655Y-57726094D01*
X188703413Y-57664938D01*
X188703403Y-57664936D01*
X188468001Y-57644341D01*
X188467999Y-57644341D01*
X188232596Y-57664936D01*
X188232586Y-57664938D01*
X188004344Y-57726094D01*
X188004335Y-57726098D01*
X187790171Y-57825964D01*
X187790169Y-57825965D01*
X187596597Y-57961505D01*
X187429505Y-58128597D01*
X187299575Y-58314158D01*
X187244998Y-58357783D01*
X187175500Y-58364977D01*
X187113145Y-58333454D01*
X187096425Y-58314158D01*
X186966494Y-58128597D01*
X186799402Y-57961506D01*
X186799395Y-57961501D01*
X186605834Y-57825967D01*
X186605830Y-57825965D01*
X186605828Y-57825964D01*
X186391663Y-57726097D01*
X186391659Y-57726096D01*
X186391655Y-57726094D01*
X186163413Y-57664938D01*
X186163403Y-57664936D01*
X185928001Y-57644341D01*
X185927999Y-57644341D01*
X185692596Y-57664936D01*
X185692586Y-57664938D01*
X185464344Y-57726094D01*
X185464335Y-57726098D01*
X185250171Y-57825964D01*
X185250169Y-57825965D01*
X185056597Y-57961505D01*
X184889505Y-58128597D01*
X184759575Y-58314158D01*
X184704998Y-58357783D01*
X184635500Y-58364977D01*
X184573145Y-58333454D01*
X184556425Y-58314158D01*
X184426494Y-58128597D01*
X184259402Y-57961506D01*
X184259395Y-57961501D01*
X184065834Y-57825967D01*
X184065830Y-57825965D01*
X184065828Y-57825964D01*
X183851663Y-57726097D01*
X183851659Y-57726096D01*
X183851655Y-57726094D01*
X183623413Y-57664938D01*
X183623403Y-57664936D01*
X183388001Y-57644341D01*
X183387999Y-57644341D01*
X183152596Y-57664936D01*
X183152586Y-57664938D01*
X182924344Y-57726094D01*
X182924335Y-57726098D01*
X182710171Y-57825964D01*
X182710169Y-57825965D01*
X182516597Y-57961505D01*
X182349505Y-58128597D01*
X182219575Y-58314158D01*
X182164998Y-58357783D01*
X182095500Y-58364977D01*
X182033145Y-58333454D01*
X182016425Y-58314158D01*
X181886494Y-58128597D01*
X181719402Y-57961506D01*
X181719395Y-57961501D01*
X181525834Y-57825967D01*
X181525830Y-57825965D01*
X181525828Y-57825964D01*
X181311663Y-57726097D01*
X181311659Y-57726096D01*
X181311655Y-57726094D01*
X181083413Y-57664938D01*
X181083403Y-57664936D01*
X180848001Y-57644341D01*
X180847999Y-57644341D01*
X180612596Y-57664936D01*
X180612586Y-57664938D01*
X180384344Y-57726094D01*
X180384335Y-57726098D01*
X180170171Y-57825964D01*
X180170169Y-57825965D01*
X179976597Y-57961505D01*
X179809505Y-58128597D01*
X179679575Y-58314158D01*
X179624998Y-58357783D01*
X179555500Y-58364977D01*
X179493145Y-58333454D01*
X179476425Y-58314158D01*
X179346494Y-58128597D01*
X179179402Y-57961506D01*
X179179395Y-57961501D01*
X178985834Y-57825967D01*
X178985830Y-57825965D01*
X178985828Y-57825964D01*
X178771663Y-57726097D01*
X178771659Y-57726096D01*
X178771655Y-57726094D01*
X178543413Y-57664938D01*
X178543403Y-57664936D01*
X178308001Y-57644341D01*
X178307999Y-57644341D01*
X178072596Y-57664936D01*
X178072586Y-57664938D01*
X177844344Y-57726094D01*
X177844335Y-57726098D01*
X177630171Y-57825964D01*
X177630169Y-57825965D01*
X177436597Y-57961505D01*
X177269508Y-58128594D01*
X177139269Y-58314595D01*
X177084692Y-58358219D01*
X177015193Y-58365412D01*
X176952839Y-58333890D01*
X176936119Y-58314594D01*
X176806113Y-58128926D01*
X176806108Y-58128920D01*
X176639082Y-57961894D01*
X176445578Y-57826399D01*
X176231492Y-57726570D01*
X176231486Y-57726567D01*
X176018000Y-57669364D01*
X176018000Y-58564498D01*
X175910315Y-58515320D01*
X175803763Y-58500000D01*
X175732237Y-58500000D01*
X175625685Y-58515320D01*
X175518000Y-58564498D01*
X175518000Y-57669364D01*
X175517999Y-57669364D01*
X175304513Y-57726567D01*
X175304507Y-57726570D01*
X175090422Y-57826399D01*
X175090420Y-57826400D01*
X174896926Y-57961886D01*
X174896920Y-57961891D01*
X174729891Y-58128920D01*
X174729890Y-58128922D01*
X174599880Y-58314595D01*
X174545303Y-58358219D01*
X174475804Y-58365412D01*
X174413450Y-58333890D01*
X174396730Y-58314594D01*
X174266494Y-58128597D01*
X174099402Y-57961506D01*
X174099395Y-57961501D01*
X173905834Y-57825967D01*
X173905830Y-57825965D01*
X173905828Y-57825964D01*
X173691663Y-57726097D01*
X173691659Y-57726096D01*
X173691655Y-57726094D01*
X173463413Y-57664938D01*
X173463403Y-57664936D01*
X173228001Y-57644341D01*
X173227999Y-57644341D01*
X172992596Y-57664936D01*
X172992586Y-57664938D01*
X172764344Y-57726094D01*
X172764335Y-57726098D01*
X172550171Y-57825964D01*
X172550169Y-57825965D01*
X172356597Y-57961505D01*
X172189505Y-58128597D01*
X172059575Y-58314158D01*
X172004998Y-58357783D01*
X171935500Y-58364977D01*
X171873145Y-58333454D01*
X171856425Y-58314158D01*
X171726494Y-58128597D01*
X171559402Y-57961506D01*
X171559395Y-57961501D01*
X171365834Y-57825967D01*
X171365830Y-57825965D01*
X171365828Y-57825964D01*
X171151663Y-57726097D01*
X171151659Y-57726096D01*
X171151655Y-57726094D01*
X170923413Y-57664938D01*
X170923403Y-57664936D01*
X170688001Y-57644341D01*
X170687999Y-57644341D01*
X170452596Y-57664936D01*
X170452586Y-57664938D01*
X170224344Y-57726094D01*
X170224335Y-57726098D01*
X170010171Y-57825964D01*
X170010169Y-57825965D01*
X169816597Y-57961505D01*
X169649505Y-58128597D01*
X169519575Y-58314158D01*
X169464998Y-58357783D01*
X169395500Y-58364977D01*
X169333145Y-58333454D01*
X169316425Y-58314158D01*
X169186494Y-58128597D01*
X169019402Y-57961506D01*
X169019395Y-57961501D01*
X168825834Y-57825967D01*
X168825830Y-57825965D01*
X168825828Y-57825964D01*
X168611663Y-57726097D01*
X168611659Y-57726096D01*
X168611655Y-57726094D01*
X168383413Y-57664938D01*
X168383403Y-57664936D01*
X168148001Y-57644341D01*
X168147999Y-57644341D01*
X167912596Y-57664936D01*
X167912586Y-57664938D01*
X167684344Y-57726094D01*
X167684335Y-57726098D01*
X167470171Y-57825964D01*
X167470169Y-57825965D01*
X167276597Y-57961505D01*
X167109505Y-58128597D01*
X166979575Y-58314158D01*
X166924998Y-58357783D01*
X166855500Y-58364977D01*
X166793145Y-58333454D01*
X166776425Y-58314158D01*
X166646494Y-58128597D01*
X166479402Y-57961506D01*
X166479395Y-57961501D01*
X166285834Y-57825967D01*
X166285830Y-57825965D01*
X166285828Y-57825964D01*
X166071663Y-57726097D01*
X166071659Y-57726096D01*
X166071655Y-57726094D01*
X165843413Y-57664938D01*
X165843403Y-57664936D01*
X165608001Y-57644341D01*
X165607999Y-57644341D01*
X165372596Y-57664936D01*
X165372586Y-57664938D01*
X165144344Y-57726094D01*
X165144335Y-57726098D01*
X164930171Y-57825964D01*
X164930169Y-57825965D01*
X164736597Y-57961505D01*
X164569505Y-58128597D01*
X164439575Y-58314158D01*
X164384998Y-58357783D01*
X164315500Y-58364977D01*
X164253145Y-58333454D01*
X164236425Y-58314158D01*
X164106494Y-58128597D01*
X163939402Y-57961506D01*
X163939395Y-57961501D01*
X163745834Y-57825967D01*
X163745830Y-57825965D01*
X163745828Y-57825964D01*
X163531663Y-57726097D01*
X163531659Y-57726096D01*
X163531655Y-57726094D01*
X163303413Y-57664938D01*
X163303403Y-57664936D01*
X163068001Y-57644341D01*
X163067999Y-57644341D01*
X162832596Y-57664936D01*
X162832586Y-57664938D01*
X162604344Y-57726094D01*
X162604335Y-57726098D01*
X162390171Y-57825964D01*
X162390169Y-57825965D01*
X162196597Y-57961505D01*
X162029505Y-58128597D01*
X161899575Y-58314158D01*
X161844998Y-58357783D01*
X161775500Y-58364977D01*
X161713145Y-58333454D01*
X161696425Y-58314158D01*
X161566494Y-58128597D01*
X161399402Y-57961506D01*
X161399395Y-57961501D01*
X161205834Y-57825967D01*
X161205830Y-57825965D01*
X161205828Y-57825964D01*
X160991663Y-57726097D01*
X160991659Y-57726096D01*
X160991655Y-57726094D01*
X160763413Y-57664938D01*
X160763403Y-57664936D01*
X160528001Y-57644341D01*
X160527999Y-57644341D01*
X160292596Y-57664936D01*
X160292586Y-57664938D01*
X160064344Y-57726094D01*
X160064335Y-57726098D01*
X159850171Y-57825964D01*
X159850169Y-57825965D01*
X159656597Y-57961505D01*
X159489508Y-58128594D01*
X159359269Y-58314595D01*
X159304692Y-58358219D01*
X159235193Y-58365412D01*
X159172839Y-58333890D01*
X159156119Y-58314594D01*
X159026113Y-58128926D01*
X159026108Y-58128920D01*
X158859082Y-57961894D01*
X158665578Y-57826399D01*
X158451492Y-57726570D01*
X158451486Y-57726567D01*
X158238000Y-57669364D01*
X158238000Y-58564498D01*
X158130315Y-58515320D01*
X158023763Y-58500000D01*
X157952237Y-58500000D01*
X157845685Y-58515320D01*
X157738000Y-58564498D01*
X157738000Y-57669364D01*
X157737999Y-57669364D01*
X157524513Y-57726567D01*
X157524507Y-57726570D01*
X157310422Y-57826399D01*
X157310420Y-57826400D01*
X157116926Y-57961886D01*
X157116920Y-57961891D01*
X156949891Y-58128920D01*
X156949886Y-58128926D01*
X156814400Y-58322420D01*
X156814399Y-58322422D01*
X156714570Y-58536507D01*
X156714567Y-58536513D01*
X156657364Y-58749999D01*
X156657364Y-58750000D01*
X157554314Y-58750000D01*
X157528507Y-58790156D01*
X157488000Y-58928111D01*
X157488000Y-59071889D01*
X157528507Y-59209844D01*
X157554314Y-59250000D01*
X156657364Y-59250000D01*
X156714567Y-59463486D01*
X156714570Y-59463492D01*
X156814399Y-59677578D01*
X156949894Y-59871082D01*
X157116917Y-60038105D01*
X157302595Y-60168119D01*
X157346219Y-60222696D01*
X157353412Y-60292195D01*
X157321890Y-60354549D01*
X157302595Y-60371269D01*
X157116594Y-60501508D01*
X156949505Y-60668597D01*
X156813965Y-60862169D01*
X156813964Y-60862171D01*
X156714098Y-61076335D01*
X156714094Y-61076344D01*
X156652938Y-61304586D01*
X156652936Y-61304596D01*
X156632341Y-61539999D01*
X156632341Y-61540000D01*
X100300500Y-61540000D01*
X100300500Y-59000000D01*
X154594540Y-59000000D01*
X154614326Y-59188256D01*
X154614327Y-59188259D01*
X154672818Y-59368277D01*
X154672821Y-59368284D01*
X154767467Y-59532216D01*
X154860035Y-59635023D01*
X154894129Y-59672888D01*
X155047265Y-59784148D01*
X155047270Y-59784151D01*
X155220192Y-59861142D01*
X155220197Y-59861144D01*
X155405354Y-59900500D01*
X155405355Y-59900500D01*
X155594644Y-59900500D01*
X155594646Y-59900500D01*
X155779803Y-59861144D01*
X155952730Y-59784151D01*
X156105871Y-59672888D01*
X156232533Y-59532216D01*
X156327179Y-59368284D01*
X156385674Y-59188256D01*
X156405460Y-59000000D01*
X156385674Y-58811744D01*
X156327179Y-58631716D01*
X156232533Y-58467784D01*
X156105871Y-58327112D01*
X156099413Y-58322420D01*
X155952734Y-58215851D01*
X155952729Y-58215848D01*
X155779807Y-58138857D01*
X155779802Y-58138855D01*
X155618550Y-58104581D01*
X155594646Y-58099500D01*
X155405354Y-58099500D01*
X155381450Y-58104581D01*
X155220197Y-58138855D01*
X155220192Y-58138857D01*
X155047270Y-58215848D01*
X155047265Y-58215851D01*
X154894129Y-58327111D01*
X154767466Y-58467785D01*
X154672821Y-58631715D01*
X154672818Y-58631722D01*
X154621340Y-58790156D01*
X154614326Y-58811744D01*
X154594540Y-59000000D01*
X100300500Y-59000000D01*
X100300500Y-56424500D01*
X100320185Y-56357461D01*
X100372989Y-56311706D01*
X100424500Y-56300500D01*
X230715194Y-56300500D01*
X230782233Y-56320185D01*
G37*
G04 #@! TD.AperFunction*
M02*
