G04 #@! TF.GenerationSoftware,KiCad,Pcbnew,7.0.8*
G04 #@! TF.CreationDate,2024-01-27T08:45:00-08:00*
G04 #@! TF.ProjectId,FacePlate,46616365-506c-4617-9465-2e6b69636164,rev?*
G04 #@! TF.SameCoordinates,Original*
G04 #@! TF.FileFunction,Copper,L4,Bot*
G04 #@! TF.FilePolarity,Positive*
%FSLAX46Y46*%
G04 Gerber Fmt 4.6, Leading zero omitted, Abs format (unit mm)*
G04 Created by KiCad (PCBNEW 7.0.8) date 2024-01-27 08:45:00*
%MOMM*%
%LPD*%
G01*
G04 APERTURE LIST*
G04 Aperture macros list*
%AMRoundRect*
0 Rectangle with rounded corners*
0 $1 Rounding radius*
0 $2 $3 $4 $5 $6 $7 $8 $9 X,Y pos of 4 corners*
0 Add a 4 corners polygon primitive as box body*
4,1,4,$2,$3,$4,$5,$6,$7,$8,$9,$2,$3,0*
0 Add four circle primitives for the rounded corners*
1,1,$1+$1,$2,$3*
1,1,$1+$1,$4,$5*
1,1,$1+$1,$6,$7*
1,1,$1+$1,$8,$9*
0 Add four rect primitives between the rounded corners*
20,1,$1+$1,$2,$3,$4,$5,0*
20,1,$1+$1,$4,$5,$6,$7,0*
20,1,$1+$1,$6,$7,$8,$9,0*
20,1,$1+$1,$8,$9,$2,$3,0*%
G04 Aperture macros list end*
G04 #@! TA.AperFunction,ComponentPad*
%ADD10R,1.700000X1.700000*%
G04 #@! TD*
G04 #@! TA.AperFunction,ComponentPad*
%ADD11O,1.700000X1.700000*%
G04 #@! TD*
G04 #@! TA.AperFunction,ComponentPad*
%ADD12RoundRect,0.250000X0.600000X0.725000X-0.600000X0.725000X-0.600000X-0.725000X0.600000X-0.725000X0*%
G04 #@! TD*
G04 #@! TA.AperFunction,ComponentPad*
%ADD13O,1.700000X1.950000*%
G04 #@! TD*
G04 #@! TA.AperFunction,ViaPad*
%ADD14C,0.800000*%
G04 #@! TD*
G04 #@! TA.AperFunction,ViaPad*
%ADD15C,0.700000*%
G04 #@! TD*
G04 #@! TA.AperFunction,Conductor*
%ADD16C,0.200000*%
G04 #@! TD*
G04 #@! TA.AperFunction,Conductor*
%ADD17C,0.300000*%
G04 #@! TD*
G04 #@! TA.AperFunction,Conductor*
%ADD18C,0.500000*%
G04 #@! TD*
G04 APERTURE END LIST*
D10*
X104140000Y-68925600D03*
D11*
X104140000Y-71465600D03*
X104140000Y-74005600D03*
X104140000Y-76545600D03*
X104140000Y-79085600D03*
X104140000Y-81625600D03*
X104140000Y-84165600D03*
D10*
X227250000Y-83700000D03*
D11*
X227250000Y-81160000D03*
X227250000Y-78620000D03*
X227250000Y-76080000D03*
X227250000Y-73540000D03*
X227250000Y-71000000D03*
X227250000Y-68460000D03*
D10*
X206248000Y-59000000D03*
D11*
X206248000Y-61540000D03*
X203708000Y-59000000D03*
X203708000Y-61540000D03*
X201168000Y-59000000D03*
X201168000Y-61540000D03*
X198628000Y-59000000D03*
X198628000Y-61540000D03*
X196088000Y-59000000D03*
X196088000Y-61540000D03*
X193548000Y-59000000D03*
X193548000Y-61540000D03*
X191008000Y-59000000D03*
X191008000Y-61540000D03*
X188468000Y-59000000D03*
X188468000Y-61540000D03*
X185928000Y-59000000D03*
X185928000Y-61540000D03*
X183388000Y-59000000D03*
X183388000Y-61540000D03*
X180848000Y-59000000D03*
X180848000Y-61540000D03*
X178308000Y-59000000D03*
X178308000Y-61540000D03*
X175768000Y-59000000D03*
X175768000Y-61540000D03*
X173228000Y-59000000D03*
X173228000Y-61540000D03*
X170688000Y-59000000D03*
X170688000Y-61540000D03*
X168148000Y-59000000D03*
X168148000Y-61540000D03*
X165608000Y-59000000D03*
X165608000Y-61540000D03*
X163068000Y-59000000D03*
X163068000Y-61540000D03*
X160528000Y-59000000D03*
X160528000Y-61540000D03*
X157988000Y-59000000D03*
X157988000Y-61540000D03*
D12*
X118750000Y-91400000D03*
D13*
X116250000Y-91400000D03*
X113750000Y-91400000D03*
X111250000Y-91400000D03*
D14*
X212287500Y-81312500D03*
X212600000Y-88400000D03*
X128800000Y-90800000D03*
X127800000Y-90800000D03*
X207000000Y-86400000D03*
X135800000Y-69600000D03*
X141200000Y-81000000D03*
X195000000Y-77000000D03*
X200600000Y-80600000D03*
X165600000Y-63300500D03*
X177000000Y-57899500D03*
X172000000Y-60200000D03*
X191008000Y-63899500D03*
X182800000Y-63400000D03*
X202400000Y-60200000D03*
X194800000Y-57899500D03*
X130150000Y-89400000D03*
X130825000Y-93000000D03*
X130800000Y-91800000D03*
X130800000Y-90600000D03*
X135000000Y-92000000D03*
X134000000Y-92000000D03*
X135000000Y-90800000D03*
X134000000Y-90800000D03*
X134000000Y-89600000D03*
X135000000Y-89600000D03*
X155500000Y-59000000D03*
X196250000Y-90107000D03*
X196250000Y-94750000D03*
X200000000Y-75800000D03*
X197800000Y-81400000D03*
X199000000Y-84400000D03*
X197425000Y-84364244D03*
X202600000Y-82200000D03*
X203600000Y-75800000D03*
X202400000Y-75800000D03*
X201200000Y-75800000D03*
X121370000Y-69400000D03*
X121400000Y-78800000D03*
X139900000Y-79450000D03*
X139750000Y-76800000D03*
X148200000Y-65400000D03*
X141050000Y-71700000D03*
X147450000Y-64450000D03*
X139350000Y-71700000D03*
X146750000Y-63250000D03*
X137375000Y-71675000D03*
X159006000Y-81045000D03*
X186106000Y-81045000D03*
D15*
X144700000Y-75700000D03*
D14*
X149856000Y-80995000D03*
D15*
X181400000Y-75719500D03*
D14*
X176906000Y-81045000D03*
D15*
X163000000Y-75700000D03*
X172200000Y-75700000D03*
X153900000Y-75700000D03*
D14*
X168106000Y-81045000D03*
X165606000Y-79945000D03*
X174706000Y-79945000D03*
X183906000Y-79894000D03*
X156367500Y-79945000D03*
X147206000Y-79944000D03*
D16*
X216200000Y-79800000D02*
X198628000Y-62228000D01*
X198628000Y-62228000D02*
X198628000Y-61540000D01*
X216200000Y-91200000D02*
X216200000Y-79800000D01*
X141200000Y-82600000D02*
X154600000Y-96000000D01*
X154600000Y-96000000D02*
X211400000Y-96000000D01*
X141200000Y-81000000D02*
X141200000Y-82600000D01*
X211400000Y-96000000D02*
X216200000Y-91200000D01*
X179508000Y-60200000D02*
X180848000Y-61540000D01*
X177800000Y-60200000D02*
X179508000Y-60200000D01*
X177000000Y-62000000D02*
X177000000Y-61000000D01*
X197200000Y-82200000D02*
X177000000Y-62000000D01*
X177000000Y-61000000D02*
X177800000Y-60200000D01*
X202600000Y-82200000D02*
X197200000Y-82200000D01*
D17*
X195900500Y-59000000D02*
X196088000Y-59000000D01*
X194800000Y-57899500D02*
X195900500Y-59000000D01*
D16*
X121125600Y-62100000D02*
X104140000Y-79085600D01*
X154100000Y-62100000D02*
X121125600Y-62100000D01*
X156000000Y-64000000D02*
X154100000Y-62100000D01*
X173308000Y-64000000D02*
X156000000Y-64000000D01*
X175768000Y-61540000D02*
X173308000Y-64000000D01*
D17*
X165608000Y-63292500D02*
X165608000Y-61540000D01*
X165600000Y-63300500D02*
X165608000Y-63292500D01*
X176868500Y-57899500D02*
X175768000Y-59000000D01*
X177000000Y-57899500D02*
X176868500Y-57899500D01*
X172000000Y-60228000D02*
X170688000Y-61540000D01*
X172000000Y-60200000D02*
X172000000Y-60228000D01*
X191008000Y-63899500D02*
X191008000Y-61540000D01*
X182800000Y-63400000D02*
X183388000Y-62812000D01*
X183388000Y-62812000D02*
X183388000Y-61540000D01*
X202400000Y-60308000D02*
X201168000Y-61540000D01*
X202400000Y-60200000D02*
X202400000Y-60308000D01*
D18*
X118750000Y-93355635D02*
X118750000Y-91400000D01*
X212800000Y-98600000D02*
X123994365Y-98600000D01*
X219200000Y-75200000D02*
X219200000Y-92200000D01*
X206248000Y-62248000D02*
X219200000Y-75200000D01*
X219200000Y-92200000D02*
X212800000Y-98600000D01*
X123994365Y-98600000D02*
X118750000Y-93355635D01*
X206248000Y-61540000D02*
X206248000Y-62248000D01*
X217800000Y-75632000D02*
X203708000Y-61540000D01*
X126105635Y-97600000D02*
X212000000Y-97600000D01*
X119905635Y-91400000D02*
X126105635Y-97600000D01*
X217800000Y-91800000D02*
X217800000Y-75632000D01*
X118750000Y-91400000D02*
X119905635Y-91400000D01*
X212000000Y-97600000D02*
X217800000Y-91800000D01*
D16*
X197428000Y-60200000D02*
X198628000Y-59000000D01*
X192900000Y-60200000D02*
X197428000Y-60200000D01*
X192300000Y-59600000D02*
X192900000Y-60200000D01*
X192300000Y-58427302D02*
X192300000Y-59600000D01*
X191072698Y-57200000D02*
X192300000Y-58427302D01*
X155700000Y-57200000D02*
X191072698Y-57200000D01*
X117905600Y-57700000D02*
X155200000Y-57700000D01*
X155200000Y-57700000D02*
X155700000Y-57200000D01*
X104140000Y-71465600D02*
X117905600Y-57700000D01*
X119145600Y-59000000D02*
X114250000Y-63895600D01*
X155500000Y-59000000D02*
X119145600Y-59000000D01*
X104140000Y-74005600D02*
X114250000Y-63895600D01*
X179508000Y-57800000D02*
X178308000Y-59000000D01*
X186356698Y-57800000D02*
X179508000Y-57800000D01*
X187200000Y-58643302D02*
X186356698Y-57800000D01*
X187200000Y-66200000D02*
X187200000Y-58643302D01*
X198189950Y-70600000D02*
X191600000Y-70600000D01*
X203389950Y-75800000D02*
X198189950Y-70600000D01*
X203600000Y-75800000D02*
X203389950Y-75800000D01*
X191600000Y-70600000D02*
X187200000Y-66200000D01*
X181998000Y-63998000D02*
X181998000Y-60150000D01*
X190600000Y-72600000D02*
X181998000Y-63998000D01*
X198000000Y-72600000D02*
X190600000Y-72600000D01*
X201200000Y-75800000D02*
X198000000Y-72600000D01*
X181998000Y-60150000D02*
X180848000Y-59000000D01*
X184600000Y-65200000D02*
X184600000Y-60212000D01*
X190800000Y-71400000D02*
X184600000Y-65200000D01*
X184600000Y-60212000D02*
X183388000Y-59000000D01*
X202400000Y-75800000D02*
X198000000Y-71400000D01*
X198000000Y-71400000D02*
X190800000Y-71400000D01*
X192300000Y-56600000D02*
X116465600Y-56600000D01*
X193548000Y-57848000D02*
X192300000Y-56600000D01*
X116465600Y-56600000D02*
X104140000Y-68925600D01*
X193548000Y-59000000D02*
X193548000Y-57848000D01*
X190368000Y-73600000D02*
X178308000Y-61540000D01*
X197800000Y-73600000D02*
X190368000Y-73600000D01*
X200000000Y-75800000D02*
X197800000Y-73600000D01*
X148200000Y-65414000D02*
X148236000Y-65450000D01*
X148200000Y-65400000D02*
X148200000Y-65414000D01*
X147350000Y-65400000D02*
X141050000Y-71700000D01*
X148200000Y-65400000D02*
X147350000Y-65400000D01*
X146600000Y-64450000D02*
X139350000Y-71700000D01*
X147450000Y-64450000D02*
X146600000Y-64450000D01*
X146750000Y-63250000D02*
X145800000Y-63250000D01*
X145800000Y-63250000D02*
X137375000Y-71675000D01*
X166848000Y-60300000D02*
X168148000Y-59000000D01*
X120385600Y-60300000D02*
X166848000Y-60300000D01*
X104140000Y-76545600D02*
X120385600Y-60300000D01*
M02*
