G04 #@! TF.GenerationSoftware,KiCad,Pcbnew,7.0.8*
G04 #@! TF.CreationDate,2024-01-27T08:45:00-08:00*
G04 #@! TF.ProjectId,FacePlate,46616365-506c-4617-9465-2e6b69636164,rev?*
G04 #@! TF.SameCoordinates,Original*
G04 #@! TF.FileFunction,Legend,Bot*
G04 #@! TF.FilePolarity,Positive*
%FSLAX46Y46*%
G04 Gerber Fmt 4.6, Leading zero omitted, Abs format (unit mm)*
G04 Created by KiCad (PCBNEW 7.0.8) date 2024-01-27 08:45:00*
%MOMM*%
%LPD*%
G01*
G04 APERTURE LIST*
G04 Aperture macros list*
%AMRoundRect*
0 Rectangle with rounded corners*
0 $1 Rounding radius*
0 $2 $3 $4 $5 $6 $7 $8 $9 X,Y pos of 4 corners*
0 Add a 4 corners polygon primitive as box body*
4,1,4,$2,$3,$4,$5,$6,$7,$8,$9,$2,$3,0*
0 Add four circle primitives for the rounded corners*
1,1,$1+$1,$2,$3*
1,1,$1+$1,$4,$5*
1,1,$1+$1,$6,$7*
1,1,$1+$1,$8,$9*
0 Add four rect primitives between the rounded corners*
20,1,$1+$1,$2,$3,$4,$5,0*
20,1,$1+$1,$4,$5,$6,$7,0*
20,1,$1+$1,$6,$7,$8,$9,0*
20,1,$1+$1,$8,$9,$2,$3,0*%
G04 Aperture macros list end*
%ADD10C,0.150000*%
%ADD11C,0.120000*%
%ADD12R,1.700000X1.700000*%
%ADD13O,1.700000X1.700000*%
%ADD14C,1.200000*%
%ADD15RoundRect,0.250000X0.600000X0.725000X-0.600000X0.725000X-0.600000X-0.725000X0.600000X-0.725000X0*%
%ADD16O,1.700000X1.950000*%
G04 APERTURE END LIST*
D10*
X208472819Y-64316666D02*
X209187104Y-64316666D01*
X209187104Y-64316666D02*
X209329961Y-64269047D01*
X209329961Y-64269047D02*
X209425200Y-64173809D01*
X209425200Y-64173809D02*
X209472819Y-64030952D01*
X209472819Y-64030952D02*
X209472819Y-63935714D01*
X208568057Y-64745238D02*
X208520438Y-64792857D01*
X208520438Y-64792857D02*
X208472819Y-64888095D01*
X208472819Y-64888095D02*
X208472819Y-65126190D01*
X208472819Y-65126190D02*
X208520438Y-65221428D01*
X208520438Y-65221428D02*
X208568057Y-65269047D01*
X208568057Y-65269047D02*
X208663295Y-65316666D01*
X208663295Y-65316666D02*
X208758533Y-65316666D01*
X208758533Y-65316666D02*
X208901390Y-65269047D01*
X208901390Y-65269047D02*
X209472819Y-64697619D01*
X209472819Y-64697619D02*
X209472819Y-65316666D01*
X115333333Y-87304819D02*
X115333333Y-88019104D01*
X115333333Y-88019104D02*
X115380952Y-88161961D01*
X115380952Y-88161961D02*
X115476190Y-88257200D01*
X115476190Y-88257200D02*
X115619047Y-88304819D01*
X115619047Y-88304819D02*
X115714285Y-88304819D01*
X114952380Y-87304819D02*
X114333333Y-87304819D01*
X114333333Y-87304819D02*
X114666666Y-87685771D01*
X114666666Y-87685771D02*
X114523809Y-87685771D01*
X114523809Y-87685771D02*
X114428571Y-87733390D01*
X114428571Y-87733390D02*
X114380952Y-87781009D01*
X114380952Y-87781009D02*
X114333333Y-87876247D01*
X114333333Y-87876247D02*
X114333333Y-88114342D01*
X114333333Y-88114342D02*
X114380952Y-88209580D01*
X114380952Y-88209580D02*
X114428571Y-88257200D01*
X114428571Y-88257200D02*
X114523809Y-88304819D01*
X114523809Y-88304819D02*
X114809523Y-88304819D01*
X114809523Y-88304819D02*
X114904761Y-88257200D01*
X114904761Y-88257200D02*
X114952380Y-88209580D01*
D11*
X156658000Y-71630000D02*
X156658000Y-63000000D01*
X159258000Y-71630000D02*
X159258000Y-63000000D01*
X161798000Y-71630000D02*
X161798000Y-63000000D01*
X164338000Y-71630000D02*
X164338000Y-63000000D01*
X166878000Y-71630000D02*
X166878000Y-63000000D01*
X169418000Y-71630000D02*
X169418000Y-63000000D01*
X171958000Y-71630000D02*
X171958000Y-63000000D01*
X174498000Y-71630000D02*
X174498000Y-63000000D01*
X177038000Y-71630000D02*
X177038000Y-63000000D01*
X179578000Y-71630000D02*
X179578000Y-63000000D01*
X182118000Y-71630000D02*
X182118000Y-63000000D01*
X184658000Y-71630000D02*
X184658000Y-63000000D01*
X187198000Y-71630000D02*
X187198000Y-63000000D01*
X189738000Y-71630000D02*
X189738000Y-63000000D01*
X192278000Y-71630000D02*
X192278000Y-63000000D01*
X194818000Y-71630000D02*
X194818000Y-63000000D01*
X197358000Y-71630000D02*
X197358000Y-63000000D01*
X199898000Y-71630000D02*
X199898000Y-63000000D01*
X202438000Y-71630000D02*
X202438000Y-63000000D01*
X204978000Y-71630000D02*
X204978000Y-63000000D01*
X205096100Y-71630000D02*
X205096100Y-63000000D01*
X205214195Y-71630000D02*
X205214195Y-63000000D01*
X205332290Y-71630000D02*
X205332290Y-63000000D01*
X205450385Y-71630000D02*
X205450385Y-63000000D01*
X205568480Y-71630000D02*
X205568480Y-63000000D01*
X205686575Y-71630000D02*
X205686575Y-63000000D01*
X205804670Y-71630000D02*
X205804670Y-63000000D01*
X205922765Y-71630000D02*
X205922765Y-63000000D01*
X206040860Y-71630000D02*
X206040860Y-63000000D01*
X206158955Y-71630000D02*
X206158955Y-63000000D01*
X206277050Y-71630000D02*
X206277050Y-63000000D01*
X206395145Y-71630000D02*
X206395145Y-63000000D01*
X206513240Y-71630000D02*
X206513240Y-63000000D01*
X206631335Y-71630000D02*
X206631335Y-63000000D01*
X206749430Y-71630000D02*
X206749430Y-63000000D01*
X206867525Y-71630000D02*
X206867525Y-63000000D01*
X206985620Y-71630000D02*
X206985620Y-63000000D01*
X207103715Y-71630000D02*
X207103715Y-63000000D01*
X207221810Y-71630000D02*
X207221810Y-63000000D01*
X207339905Y-71630000D02*
X207339905Y-63000000D01*
X207458000Y-71630000D02*
X207458000Y-63000000D01*
X207578000Y-71630000D02*
X156658000Y-71630000D01*
X207578000Y-71630000D02*
X207578000Y-63000000D01*
X157628000Y-63000000D02*
X157628000Y-62590000D01*
X158348000Y-63000000D02*
X158348000Y-62590000D01*
X160168000Y-63000000D02*
X160168000Y-62590000D01*
X160888000Y-63000000D02*
X160888000Y-62590000D01*
X162708000Y-63000000D02*
X162708000Y-62590000D01*
X163428000Y-63000000D02*
X163428000Y-62590000D01*
X165248000Y-63000000D02*
X165248000Y-62590000D01*
X165968000Y-63000000D02*
X165968000Y-62590000D01*
X167788000Y-63000000D02*
X167788000Y-62590000D01*
X168508000Y-63000000D02*
X168508000Y-62590000D01*
X170328000Y-63000000D02*
X170328000Y-62590000D01*
X171048000Y-63000000D02*
X171048000Y-62590000D01*
X172868000Y-63000000D02*
X172868000Y-62590000D01*
X173588000Y-63000000D02*
X173588000Y-62590000D01*
X175408000Y-63000000D02*
X175408000Y-62590000D01*
X176128000Y-63000000D02*
X176128000Y-62590000D01*
X177948000Y-63000000D02*
X177948000Y-62590000D01*
X178668000Y-63000000D02*
X178668000Y-62590000D01*
X180488000Y-63000000D02*
X180488000Y-62590000D01*
X181208000Y-63000000D02*
X181208000Y-62590000D01*
X183028000Y-63000000D02*
X183028000Y-62590000D01*
X183748000Y-63000000D02*
X183748000Y-62590000D01*
X185568000Y-63000000D02*
X185568000Y-62590000D01*
X186288000Y-63000000D02*
X186288000Y-62590000D01*
X188108000Y-63000000D02*
X188108000Y-62590000D01*
X188828000Y-63000000D02*
X188828000Y-62590000D01*
X190648000Y-63000000D02*
X190648000Y-62590000D01*
X191368000Y-63000000D02*
X191368000Y-62590000D01*
X193188000Y-63000000D02*
X193188000Y-62590000D01*
X193908000Y-63000000D02*
X193908000Y-62590000D01*
X195728000Y-63000000D02*
X195728000Y-62590000D01*
X196448000Y-63000000D02*
X196448000Y-62590000D01*
X198268000Y-63000000D02*
X198268000Y-62590000D01*
X198988000Y-63000000D02*
X198988000Y-62590000D01*
X200808000Y-63000000D02*
X200808000Y-62590000D01*
X201528000Y-63000000D02*
X201528000Y-62590000D01*
X203348000Y-63000000D02*
X203348000Y-62590000D01*
X204068000Y-63000000D02*
X204068000Y-62590000D01*
X205888000Y-63000000D02*
X205888000Y-62590000D01*
X206608000Y-63000000D02*
X206608000Y-62590000D01*
X207578000Y-63000000D02*
X156658000Y-63000000D01*
X157628000Y-60490000D02*
X157628000Y-60050000D01*
X158348000Y-60490000D02*
X158348000Y-60050000D01*
X160168000Y-60490000D02*
X160168000Y-60050000D01*
X160888000Y-60490000D02*
X160888000Y-60050000D01*
X162708000Y-60490000D02*
X162708000Y-60050000D01*
X163428000Y-60490000D02*
X163428000Y-60050000D01*
X165248000Y-60490000D02*
X165248000Y-60050000D01*
X165968000Y-60490000D02*
X165968000Y-60050000D01*
X167788000Y-60490000D02*
X167788000Y-60050000D01*
X168508000Y-60490000D02*
X168508000Y-60050000D01*
X170328000Y-60490000D02*
X170328000Y-60050000D01*
X171048000Y-60490000D02*
X171048000Y-60050000D01*
X172868000Y-60490000D02*
X172868000Y-60050000D01*
X173588000Y-60490000D02*
X173588000Y-60050000D01*
X175408000Y-60490000D02*
X175408000Y-60050000D01*
X176128000Y-60490000D02*
X176128000Y-60050000D01*
X177948000Y-60490000D02*
X177948000Y-60050000D01*
X178668000Y-60490000D02*
X178668000Y-60050000D01*
X180488000Y-60490000D02*
X180488000Y-60050000D01*
X181208000Y-60490000D02*
X181208000Y-60050000D01*
X183028000Y-60490000D02*
X183028000Y-60050000D01*
X183748000Y-60490000D02*
X183748000Y-60050000D01*
X185568000Y-60490000D02*
X185568000Y-60050000D01*
X186288000Y-60490000D02*
X186288000Y-60050000D01*
X188108000Y-60490000D02*
X188108000Y-60050000D01*
X188828000Y-60490000D02*
X188828000Y-60050000D01*
X190648000Y-60490000D02*
X190648000Y-60050000D01*
X191368000Y-60490000D02*
X191368000Y-60050000D01*
X193188000Y-60490000D02*
X193188000Y-60050000D01*
X193908000Y-60490000D02*
X193908000Y-60050000D01*
X195728000Y-60490000D02*
X195728000Y-60050000D01*
X196448000Y-60490000D02*
X196448000Y-60050000D01*
X198268000Y-60490000D02*
X198268000Y-60050000D01*
X198988000Y-60490000D02*
X198988000Y-60050000D01*
X200808000Y-60490000D02*
X200808000Y-60050000D01*
X201528000Y-60490000D02*
X201528000Y-60050000D01*
X203348000Y-60490000D02*
X203348000Y-60050000D01*
X204068000Y-60490000D02*
X204068000Y-60050000D01*
X205888000Y-60490000D02*
X205888000Y-60110000D01*
X206608000Y-60490000D02*
X206608000Y-60110000D01*
X207578000Y-59000000D02*
X207578000Y-57890000D01*
X207578000Y-57890000D02*
X206248000Y-57890000D01*
X121600000Y-88650000D02*
X121600000Y-89900000D01*
X121310000Y-94910000D02*
X108690000Y-94910000D01*
X121310000Y-88940000D02*
X121310000Y-94910000D01*
X121300000Y-91200000D02*
X120550000Y-91200000D01*
X121300000Y-89700000D02*
X119500000Y-89700000D01*
X121300000Y-88950000D02*
X121300000Y-89700000D01*
X120550000Y-91200000D02*
X120550000Y-92540000D01*
X120350000Y-88650000D02*
X121600000Y-88650000D01*
X119500000Y-89700000D02*
X119500000Y-88950000D01*
X119500000Y-88950000D02*
X121300000Y-88950000D01*
X118000000Y-89700000D02*
X112000000Y-89700000D01*
X118000000Y-88950000D02*
X118000000Y-89700000D01*
X115000000Y-94150000D02*
X119490000Y-94150000D01*
X112000000Y-89700000D02*
X112000000Y-88950000D01*
X112000000Y-88950000D02*
X118000000Y-88950000D01*
X110500000Y-89700000D02*
X108700000Y-89700000D01*
X110500000Y-88950000D02*
X110500000Y-89700000D01*
X109450000Y-94150000D02*
X115000000Y-94150000D01*
X109450000Y-91200000D02*
X109450000Y-94150000D01*
X108700000Y-91200000D02*
X109450000Y-91200000D01*
X108700000Y-89700000D02*
X108700000Y-88950000D01*
X108700000Y-88950000D02*
X110500000Y-88950000D01*
X108690000Y-94910000D02*
X108690000Y-88940000D01*
X108690000Y-88940000D02*
X121310000Y-88940000D01*
%LPC*%
D12*
X104140000Y-68925600D03*
D13*
X104140000Y-71465600D03*
X104140000Y-74005600D03*
X104140000Y-76545600D03*
X104140000Y-79085600D03*
X104140000Y-81625600D03*
X104140000Y-84165600D03*
D12*
X227250000Y-83700000D03*
D13*
X227250000Y-81160000D03*
X227250000Y-78620000D03*
X227250000Y-76080000D03*
X227250000Y-73540000D03*
X227250000Y-71000000D03*
X227250000Y-68460000D03*
D12*
X206248000Y-59000000D03*
D13*
X206248000Y-61540000D03*
X203708000Y-59000000D03*
X203708000Y-61540000D03*
X201168000Y-59000000D03*
X201168000Y-61540000D03*
X198628000Y-59000000D03*
X198628000Y-61540000D03*
X196088000Y-59000000D03*
X196088000Y-61540000D03*
X193548000Y-59000000D03*
X193548000Y-61540000D03*
X191008000Y-59000000D03*
X191008000Y-61540000D03*
X188468000Y-59000000D03*
X188468000Y-61540000D03*
X185928000Y-59000000D03*
X185928000Y-61540000D03*
X183388000Y-59000000D03*
X183388000Y-61540000D03*
X180848000Y-59000000D03*
X180848000Y-61540000D03*
X178308000Y-59000000D03*
X178308000Y-61540000D03*
X175768000Y-59000000D03*
X175768000Y-61540000D03*
X173228000Y-59000000D03*
X173228000Y-61540000D03*
X170688000Y-59000000D03*
X170688000Y-61540000D03*
X168148000Y-59000000D03*
X168148000Y-61540000D03*
X165608000Y-59000000D03*
X165608000Y-61540000D03*
X163068000Y-59000000D03*
X163068000Y-61540000D03*
X160528000Y-59000000D03*
X160528000Y-61540000D03*
X157988000Y-59000000D03*
X157988000Y-61540000D03*
D14*
X120350000Y-93400000D03*
D15*
X118750000Y-91400000D03*
D16*
X116250000Y-91400000D03*
X113750000Y-91400000D03*
X111250000Y-91400000D03*
%LPD*%
M02*
