M48
; DRILL file {KiCad 7.0.8} date Sat Jan 27 08:45:19 2024
; FORMAT={-:-/ absolute / metric / decimal}
; #@! TF.CreationDate,2024-01-27T08:45:19-08:00
; #@! TF.GenerationSoftware,Kicad,Pcbnew,7.0.8
; #@! TF.FileFunction,Plated,1,4,PTH
FMAT,2
METRIC
; #@! TA.AperFunction,Plated,PTH,ViaDrill
T1C0.300
; #@! TA.AperFunction,Plated,PTH,ViaDrill
T2C0.400
; #@! TA.AperFunction,Plated,PTH,ComponentDrill
T3C0.950
; #@! TA.AperFunction,Plated,PTH,ComponentDrill
T4C1.000
%
G90
G05
T1
X144.7Y-75.7
X153.9Y-75.7
X163.0Y-75.7
X172.2Y-75.7
X181.4Y-75.719
T2
X121.37Y-69.4
X121.4Y-78.8
X127.8Y-90.8
X128.8Y-90.8
X130.15Y-89.4
X130.8Y-90.6
X130.8Y-91.8
X130.825Y-93.0
X134.0Y-89.6
X134.0Y-90.8
X134.0Y-92.0
X135.0Y-89.6
X135.0Y-90.8
X135.0Y-92.0
X135.8Y-69.6
X137.375Y-71.675
X139.35Y-71.7
X139.75Y-76.8
X139.9Y-79.45
X141.05Y-71.7
X141.2Y-81.0
X146.75Y-63.25
X147.206Y-79.944
X147.45Y-64.45
X148.2Y-65.4
X149.856Y-80.995
X155.5Y-59.0
X156.368Y-79.945
X159.006Y-81.045
X165.6Y-63.3
X165.606Y-79.945
X168.106Y-81.045
X172.0Y-60.2
X174.706Y-79.945
X176.906Y-81.045
X177.0Y-57.899
X182.8Y-63.4
X183.906Y-79.894
X186.106Y-81.045
X191.008Y-63.899
X194.8Y-57.899
X195.0Y-77.0
X196.25Y-90.107
X196.25Y-94.75
X197.425Y-84.364
X197.8Y-81.4
X199.0Y-84.4
X200.0Y-75.8
X200.6Y-80.6
X201.2Y-75.8
X202.4Y-60.2
X202.4Y-75.8
X202.6Y-82.2
X203.6Y-75.8
X207.0Y-86.4
X212.287Y-81.312
X212.6Y-88.4
T3
X111.25Y-91.4
X113.75Y-91.4
X116.25Y-91.4
X118.75Y-91.4
T4
X104.14Y-68.926
X104.14Y-71.466
X104.14Y-74.006
X104.14Y-76.546
X104.14Y-79.086
X104.14Y-81.626
X104.14Y-84.166
X157.988Y-59.0
X157.988Y-61.54
X160.528Y-59.0
X160.528Y-61.54
X163.068Y-59.0
X163.068Y-61.54
X165.608Y-59.0
X165.608Y-61.54
X168.148Y-59.0
X168.148Y-61.54
X170.688Y-59.0
X170.688Y-61.54
X173.228Y-59.0
X173.228Y-61.54
X175.768Y-59.0
X175.768Y-61.54
X178.308Y-59.0
X178.308Y-61.54
X180.848Y-59.0
X180.848Y-61.54
X183.388Y-59.0
X183.388Y-61.54
X185.928Y-59.0
X185.928Y-61.54
X188.468Y-59.0
X188.468Y-61.54
X191.008Y-59.0
X191.008Y-61.54
X193.548Y-59.0
X193.548Y-61.54
X196.088Y-59.0
X196.088Y-61.54
X198.628Y-59.0
X198.628Y-61.54
X201.168Y-59.0
X201.168Y-61.54
X203.708Y-59.0
X203.708Y-61.54
X206.248Y-59.0
X206.248Y-61.54
X227.25Y-68.46
X227.25Y-71.0
X227.25Y-73.54
X227.25Y-76.08
X227.25Y-78.62
X227.25Y-81.16
X227.25Y-83.7
T0
M30
