G04 #@! TF.GenerationSoftware,KiCad,Pcbnew,7.0.8*
G04 #@! TF.CreationDate,2024-01-27T08:45:00-08:00*
G04 #@! TF.ProjectId,FacePlate,46616365-506c-4617-9465-2e6b69636164,rev?*
G04 #@! TF.SameCoordinates,Original*
G04 #@! TF.FileFunction,Copper,L1,Top*
G04 #@! TF.FilePolarity,Positive*
%FSLAX46Y46*%
G04 Gerber Fmt 4.6, Leading zero omitted, Abs format (unit mm)*
G04 Created by KiCad (PCBNEW 7.0.8) date 2024-01-27 08:45:00*
%MOMM*%
%LPD*%
G01*
G04 APERTURE LIST*
G04 Aperture macros list*
%AMRoundRect*
0 Rectangle with rounded corners*
0 $1 Rounding radius*
0 $2 $3 $4 $5 $6 $7 $8 $9 X,Y pos of 4 corners*
0 Add a 4 corners polygon primitive as box body*
4,1,4,$2,$3,$4,$5,$6,$7,$8,$9,$2,$3,0*
0 Add four circle primitives for the rounded corners*
1,1,$1+$1,$2,$3*
1,1,$1+$1,$4,$5*
1,1,$1+$1,$6,$7*
1,1,$1+$1,$8,$9*
0 Add four rect primitives between the rounded corners*
20,1,$1+$1,$2,$3,$4,$5,0*
20,1,$1+$1,$4,$5,$6,$7,0*
20,1,$1+$1,$6,$7,$8,$9,0*
20,1,$1+$1,$8,$9,$2,$3,0*%
G04 Aperture macros list end*
G04 #@! TA.AperFunction,SMDPad,CuDef*
%ADD10R,2.006600X1.930400*%
G04 #@! TD*
G04 #@! TA.AperFunction,SMDPad,CuDef*
%ADD11RoundRect,0.225000X-0.225000X-0.250000X0.225000X-0.250000X0.225000X0.250000X-0.225000X0.250000X0*%
G04 #@! TD*
G04 #@! TA.AperFunction,SMDPad,CuDef*
%ADD12RoundRect,0.225000X0.225000X0.250000X-0.225000X0.250000X-0.225000X-0.250000X0.225000X-0.250000X0*%
G04 #@! TD*
G04 #@! TA.AperFunction,SMDPad,CuDef*
%ADD13RoundRect,0.225000X0.250000X-0.225000X0.250000X0.225000X-0.250000X0.225000X-0.250000X-0.225000X0*%
G04 #@! TD*
G04 #@! TA.AperFunction,ComponentPad*
%ADD14R,1.700000X1.700000*%
G04 #@! TD*
G04 #@! TA.AperFunction,ComponentPad*
%ADD15O,1.700000X1.700000*%
G04 #@! TD*
G04 #@! TA.AperFunction,SMDPad,CuDef*
%ADD16R,1.500000X0.900000*%
G04 #@! TD*
G04 #@! TA.AperFunction,SMDPad,CuDef*
%ADD17C,1.000000*%
G04 #@! TD*
G04 #@! TA.AperFunction,SMDPad,CuDef*
%ADD18RoundRect,0.200000X0.275000X-0.200000X0.275000X0.200000X-0.275000X0.200000X-0.275000X-0.200000X0*%
G04 #@! TD*
G04 #@! TA.AperFunction,SMDPad,CuDef*
%ADD19RoundRect,0.100000X0.100000X-0.637500X0.100000X0.637500X-0.100000X0.637500X-0.100000X-0.637500X0*%
G04 #@! TD*
G04 #@! TA.AperFunction,SMDPad,CuDef*
%ADD20R,2.000000X0.800000*%
G04 #@! TD*
G04 #@! TA.AperFunction,SMDPad,CuDef*
%ADD21RoundRect,0.225000X-0.250000X0.225000X-0.250000X-0.225000X0.250000X-0.225000X0.250000X0.225000X0*%
G04 #@! TD*
G04 #@! TA.AperFunction,SMDPad,CuDef*
%ADD22RoundRect,0.150000X-0.150000X0.825000X-0.150000X-0.825000X0.150000X-0.825000X0.150000X0.825000X0*%
G04 #@! TD*
G04 #@! TA.AperFunction,SMDPad,CuDef*
%ADD23RoundRect,0.200000X-0.200000X-0.275000X0.200000X-0.275000X0.200000X0.275000X-0.200000X0.275000X0*%
G04 #@! TD*
G04 #@! TA.AperFunction,SMDPad,CuDef*
%ADD24R,2.000000X1.500000*%
G04 #@! TD*
G04 #@! TA.AperFunction,SMDPad,CuDef*
%ADD25R,2.000000X3.800000*%
G04 #@! TD*
G04 #@! TA.AperFunction,ComponentPad*
%ADD26RoundRect,0.250000X0.600000X0.725000X-0.600000X0.725000X-0.600000X-0.725000X0.600000X-0.725000X0*%
G04 #@! TD*
G04 #@! TA.AperFunction,ComponentPad*
%ADD27O,1.700000X1.950000*%
G04 #@! TD*
G04 #@! TA.AperFunction,ViaPad*
%ADD28C,0.800000*%
G04 #@! TD*
G04 #@! TA.AperFunction,ViaPad*
%ADD29C,0.700000*%
G04 #@! TD*
G04 #@! TA.AperFunction,Conductor*
%ADD30C,0.200000*%
G04 #@! TD*
G04 #@! TA.AperFunction,Conductor*
%ADD31C,0.300000*%
G04 #@! TD*
G04 #@! TA.AperFunction,Conductor*
%ADD32C,0.500000*%
G04 #@! TD*
G04 #@! TA.AperFunction,Conductor*
%ADD33C,0.250000*%
G04 #@! TD*
G04 APERTURE END LIST*
D10*
X209600000Y-82609300D03*
X209600000Y-86190700D03*
D11*
X209825000Y-88400000D03*
X211375000Y-88400000D03*
X209825000Y-80400000D03*
X211375000Y-80400000D03*
D12*
X132375000Y-95200000D03*
X130825000Y-95200000D03*
D13*
X125800000Y-91600000D03*
X125800000Y-90050000D03*
D14*
X104140000Y-68925600D03*
D15*
X104140000Y-71465600D03*
X104140000Y-74005600D03*
X104140000Y-76545600D03*
X104140000Y-79085600D03*
X104140000Y-81625600D03*
X104140000Y-84165600D03*
D16*
X184800000Y-79000000D03*
X184800000Y-75700000D03*
X179900000Y-75700000D03*
X179900000Y-79000000D03*
D11*
X165331000Y-81045000D03*
X166881000Y-81045000D03*
D17*
X115900000Y-80400000D03*
D11*
X156256000Y-81045000D03*
X157806000Y-81045000D03*
D16*
X166475000Y-79000000D03*
X166475000Y-75700000D03*
X161575000Y-75700000D03*
X161575000Y-79000000D03*
D13*
X136700000Y-78875000D03*
X136700000Y-77325000D03*
D11*
X147156000Y-80995000D03*
X148706000Y-80995000D03*
D16*
X157312500Y-79000000D03*
X157312500Y-75700000D03*
X152412500Y-75700000D03*
X152412500Y-79000000D03*
D11*
X174431000Y-81045000D03*
X175981000Y-81045000D03*
D17*
X188300000Y-75700000D03*
D18*
X194564000Y-94805000D03*
X194564000Y-93155000D03*
D16*
X175637500Y-79000000D03*
X175637500Y-75700000D03*
X170737500Y-75700000D03*
X170737500Y-79000000D03*
D19*
X200600000Y-84725000D03*
X201250000Y-84725000D03*
X201900000Y-84725000D03*
X202550000Y-84725000D03*
X203200000Y-84725000D03*
X203850000Y-84725000D03*
X204500000Y-84725000D03*
X205150000Y-84725000D03*
X205800000Y-84725000D03*
X206450000Y-84725000D03*
X206450000Y-79000000D03*
X205800000Y-79000000D03*
X205150000Y-79000000D03*
X204500000Y-79000000D03*
X203850000Y-79000000D03*
X203200000Y-79000000D03*
X202550000Y-79000000D03*
X201900000Y-79000000D03*
X201250000Y-79000000D03*
X200600000Y-79000000D03*
D13*
X108400000Y-83975000D03*
X108400000Y-82425000D03*
X106800000Y-83975000D03*
X106800000Y-82425000D03*
D14*
X227250000Y-83700000D03*
D15*
X227250000Y-81160000D03*
X227250000Y-78620000D03*
X227250000Y-76080000D03*
X227250000Y-73540000D03*
X227250000Y-71000000D03*
X227250000Y-68460000D03*
D17*
X111200000Y-87376750D03*
D20*
X119590000Y-78800000D03*
X119590000Y-77530000D03*
X119590000Y-76260000D03*
X119590000Y-74990000D03*
X119590000Y-73720000D03*
X119590000Y-72450000D03*
X119590000Y-71180000D03*
X134690000Y-71120000D03*
X134690000Y-72390000D03*
X134690000Y-73660000D03*
X134690000Y-74930000D03*
X134690000Y-76200000D03*
X134690000Y-77530000D03*
X134690000Y-78800000D03*
D18*
X194564000Y-90107000D03*
X194564000Y-91757000D03*
D21*
X224475000Y-68725000D03*
X224475000Y-70275000D03*
D22*
X200105000Y-92675000D03*
X198835000Y-92675000D03*
X197565000Y-92675000D03*
X196295000Y-92675000D03*
X196295000Y-87725000D03*
X197565000Y-87725000D03*
X198835000Y-87725000D03*
X200105000Y-87725000D03*
D17*
X115900000Y-77350000D03*
D13*
X138250000Y-78875000D03*
X138250000Y-77325000D03*
D11*
X183531000Y-81045000D03*
X185081000Y-81045000D03*
D17*
X113600000Y-87376750D03*
D21*
X222850000Y-68700000D03*
X222850000Y-70250000D03*
D17*
X202400000Y-87800000D03*
D16*
X148150000Y-79000000D03*
X148150000Y-75700000D03*
X143250000Y-75700000D03*
X143250000Y-79000000D03*
D11*
X197425000Y-85600000D03*
X198975000Y-85600000D03*
D17*
X194000000Y-87800000D03*
D21*
X199200000Y-78625000D03*
X199200000Y-80175000D03*
D17*
X115900000Y-74300000D03*
D23*
X196175000Y-77000000D03*
X197825000Y-77000000D03*
D14*
X206248000Y-59000000D03*
D15*
X206248000Y-61540000D03*
X203708000Y-59000000D03*
X203708000Y-61540000D03*
X201168000Y-59000000D03*
X201168000Y-61540000D03*
X198628000Y-59000000D03*
X198628000Y-61540000D03*
X196088000Y-59000000D03*
X196088000Y-61540000D03*
X193548000Y-59000000D03*
X193548000Y-61540000D03*
X191008000Y-59000000D03*
X191008000Y-61540000D03*
X188468000Y-59000000D03*
X188468000Y-61540000D03*
X185928000Y-59000000D03*
X185928000Y-61540000D03*
X183388000Y-59000000D03*
X183388000Y-61540000D03*
X180848000Y-59000000D03*
X180848000Y-61540000D03*
X178308000Y-59000000D03*
X178308000Y-61540000D03*
X175768000Y-59000000D03*
X175768000Y-61540000D03*
X173228000Y-59000000D03*
X173228000Y-61540000D03*
X170688000Y-59000000D03*
X170688000Y-61540000D03*
X168148000Y-59000000D03*
X168148000Y-61540000D03*
X165608000Y-59000000D03*
X165608000Y-61540000D03*
X163068000Y-59000000D03*
X163068000Y-61540000D03*
X160528000Y-59000000D03*
X160528000Y-61540000D03*
X157988000Y-59000000D03*
X157988000Y-61540000D03*
D24*
X128250000Y-88500000D03*
X128250000Y-90800000D03*
D25*
X134550000Y-90800000D03*
D24*
X128250000Y-93100000D03*
D26*
X118750000Y-91400000D03*
D27*
X116250000Y-91400000D03*
X113750000Y-91400000D03*
X111250000Y-91400000D03*
D28*
X212287500Y-81312500D03*
X212600000Y-88400000D03*
X128800000Y-90800000D03*
X127800000Y-90800000D03*
X207000000Y-86400000D03*
X135800000Y-69600000D03*
X141200000Y-81000000D03*
X195000000Y-77000000D03*
X200600000Y-80600000D03*
X165600000Y-63300500D03*
X177000000Y-57899500D03*
X172000000Y-60200000D03*
X191008000Y-63899500D03*
X182800000Y-63400000D03*
X202400000Y-60200000D03*
X194800000Y-57899500D03*
X130150000Y-89400000D03*
X130825000Y-93000000D03*
X130800000Y-91800000D03*
X130800000Y-90600000D03*
X135000000Y-92000000D03*
X134000000Y-92000000D03*
X135000000Y-90800000D03*
X134000000Y-90800000D03*
X134000000Y-89600000D03*
X135000000Y-89600000D03*
X155500000Y-59000000D03*
X196250000Y-90107000D03*
X196250000Y-94750000D03*
X200000000Y-75800000D03*
X197800000Y-81400000D03*
X199000000Y-84400000D03*
X197425000Y-84364244D03*
X202600000Y-82200000D03*
X203600000Y-75800000D03*
X202400000Y-75800000D03*
X201200000Y-75800000D03*
X121370000Y-69400000D03*
X121400000Y-78800000D03*
X139900000Y-79450000D03*
X139750000Y-76800000D03*
X148200000Y-65400000D03*
X141050000Y-71700000D03*
X147450000Y-64450000D03*
X139350000Y-71700000D03*
X146750000Y-63250000D03*
X137375000Y-71675000D03*
X159006000Y-81045000D03*
X186106000Y-81045000D03*
D29*
X144700000Y-75700000D03*
D28*
X149856000Y-80995000D03*
D29*
X181400000Y-75719500D03*
D28*
X176906000Y-81045000D03*
D29*
X163000000Y-75700000D03*
X172200000Y-75700000D03*
X153900000Y-75700000D03*
D28*
X168106000Y-81045000D03*
X165606000Y-79945000D03*
X174706000Y-79945000D03*
X183906000Y-79894000D03*
X156367500Y-79945000D03*
X147206000Y-79944000D03*
D30*
X211375000Y-80400000D02*
X212287500Y-81312500D01*
X211375000Y-88400000D02*
X212600000Y-88400000D01*
X209825000Y-88400000D02*
X209825000Y-86415700D01*
X209825000Y-86415700D02*
X209600000Y-86190700D01*
X209825000Y-82384300D02*
X209825000Y-80400000D01*
X209600000Y-82609300D02*
X209825000Y-82384300D01*
X205150000Y-83150000D02*
X205150000Y-84725000D01*
X208800000Y-81000000D02*
X207300000Y-81000000D01*
X207300000Y-81000000D02*
X205150000Y-83150000D01*
X209600000Y-81800000D02*
X208800000Y-81000000D01*
X209600000Y-82609300D02*
X209600000Y-81800000D01*
X205800000Y-86400000D02*
X205800000Y-84725000D01*
X209600000Y-86800000D02*
X208800000Y-87600000D01*
X209600000Y-86190700D02*
X209600000Y-86800000D01*
X208800000Y-87600000D02*
X207000000Y-87600000D01*
X207000000Y-87600000D02*
X205800000Y-86400000D01*
D31*
X206450000Y-85850000D02*
X207000000Y-86400000D01*
X206450000Y-84725000D02*
X206450000Y-85850000D01*
X135800000Y-69600000D02*
X135600000Y-69600000D01*
X134690000Y-70510000D02*
X134690000Y-71120000D01*
X135600000Y-69600000D02*
X134690000Y-70510000D01*
D30*
X156750000Y-57750000D02*
X155500000Y-59000000D01*
X163750000Y-57750000D02*
X156750000Y-57750000D01*
X164400000Y-60208000D02*
X164400000Y-58400000D01*
X163068000Y-61540000D02*
X164400000Y-60208000D01*
X164400000Y-58400000D02*
X163750000Y-57750000D01*
X198626349Y-57200000D02*
X190268000Y-57200000D01*
X199800000Y-58373651D02*
X198626349Y-57200000D01*
X219363302Y-81600000D02*
X199800000Y-62036698D01*
X224270000Y-81600000D02*
X219363302Y-81600000D01*
X199800000Y-62036698D02*
X199800000Y-58373651D01*
X227250000Y-78620000D02*
X224270000Y-81600000D01*
X190268000Y-57200000D02*
X188468000Y-59000000D01*
X218700000Y-83700000D02*
X227250000Y-83700000D01*
X196800000Y-60200000D02*
X197400000Y-60800000D01*
X197400000Y-60800000D02*
X197400000Y-62400000D01*
X194748000Y-60200000D02*
X196800000Y-60200000D01*
X197400000Y-62400000D02*
X218700000Y-83700000D01*
X193548000Y-59000000D02*
X194748000Y-60200000D01*
X174428000Y-60200000D02*
X173228000Y-59000000D01*
X194182314Y-60200000D02*
X174428000Y-60200000D01*
X194582314Y-60600000D02*
X194182314Y-60200000D01*
X194600000Y-60600000D02*
X194582314Y-60600000D01*
X194800000Y-62200000D02*
X194800000Y-60800000D01*
X229600000Y-85300000D02*
X228900000Y-86000000D01*
X229600000Y-82800000D02*
X229600000Y-85300000D01*
X227960000Y-81160000D02*
X229600000Y-82800000D01*
X228900000Y-86000000D02*
X218600000Y-86000000D01*
X194800000Y-60800000D02*
X194600000Y-60600000D01*
X227250000Y-81160000D02*
X227960000Y-81160000D01*
X218600000Y-86000000D02*
X194800000Y-62200000D01*
X141200000Y-81000000D02*
X141200000Y-79800000D01*
X141200000Y-79800000D02*
X142000000Y-79000000D01*
X142000000Y-79000000D02*
X143250000Y-79000000D01*
D31*
X196175000Y-77000000D02*
X195000000Y-77000000D01*
X200600000Y-80600000D02*
X200600000Y-79000000D01*
D30*
X189200000Y-63200000D02*
X191888000Y-63200000D01*
X191888000Y-63200000D02*
X193548000Y-61540000D01*
X138034264Y-69600000D02*
X182800000Y-69600000D01*
X135244264Y-72390000D02*
X138034264Y-69600000D01*
X134690000Y-72390000D02*
X135244264Y-72390000D01*
X182800000Y-69600000D02*
X189200000Y-63200000D01*
X202968000Y-57200000D02*
X201168000Y-59000000D01*
X206600000Y-57200000D02*
X202968000Y-57200000D01*
X222940000Y-73540000D02*
X206600000Y-57200000D01*
X227250000Y-73540000D02*
X222940000Y-73540000D01*
X204858000Y-64258000D02*
X204858000Y-60150000D01*
X219800000Y-79200000D02*
X204858000Y-64258000D01*
X224130000Y-79200000D02*
X219800000Y-79200000D01*
X227250000Y-76080000D02*
X224130000Y-79200000D01*
X204858000Y-60150000D02*
X203708000Y-59000000D01*
D32*
X125600000Y-91400000D02*
X125800000Y-91600000D01*
X118750000Y-91400000D02*
X125600000Y-91400000D01*
X129250000Y-88500000D02*
X128250000Y-88500000D01*
X130825000Y-90575000D02*
X130800000Y-90600000D01*
X130150000Y-89400000D02*
X130825000Y-90075000D01*
X130825000Y-90075000D02*
X130825000Y-90575000D01*
X130150000Y-89400000D02*
X129250000Y-88500000D01*
X130825000Y-93000000D02*
X130825000Y-95200000D01*
X130825000Y-91825000D02*
X130800000Y-91800000D01*
X130825000Y-93000000D02*
X130825000Y-91825000D01*
X130825000Y-91775000D02*
X130800000Y-91800000D01*
X130825000Y-90625000D02*
X130825000Y-91775000D01*
X130800000Y-90600000D02*
X130825000Y-90625000D01*
X134550000Y-93025000D02*
X134550000Y-90800000D01*
X135000000Y-90400000D02*
X135000000Y-91400000D01*
X134550000Y-93025000D02*
X132375000Y-95200000D01*
X134550000Y-90800000D02*
X135000000Y-90400000D01*
X127300000Y-93100000D02*
X128250000Y-93100000D01*
X125800000Y-91600000D02*
X127300000Y-93100000D01*
X125800000Y-90050000D02*
X127350000Y-88500000D01*
X127350000Y-88500000D02*
X128250000Y-88500000D01*
D31*
X197565000Y-94495661D02*
X197565000Y-92675000D01*
X113750000Y-92250000D02*
X119000000Y-97500000D01*
X119000000Y-97500000D02*
X194560661Y-97500000D01*
X113750000Y-91400000D02*
X113750000Y-92250000D01*
X194560661Y-97500000D02*
X197565000Y-94495661D01*
X198835000Y-94665000D02*
X198835000Y-92675000D01*
X194750000Y-98750000D02*
X198835000Y-94665000D01*
X118250000Y-98750000D02*
X194750000Y-98750000D01*
X111250000Y-91400000D02*
X111250000Y-91750000D01*
X111250000Y-91750000D02*
X118250000Y-98750000D01*
X196195000Y-94805000D02*
X194564000Y-94805000D01*
X196250000Y-94750000D02*
X196195000Y-94805000D01*
X196250000Y-90107000D02*
X194564000Y-90107000D01*
X194564000Y-92710000D02*
X194599000Y-92675000D01*
X194599000Y-92675000D02*
X196295000Y-92675000D01*
X194564000Y-92710000D02*
X194564000Y-91757000D01*
X194564000Y-93155000D02*
X194564000Y-92710000D01*
X196250000Y-92720000D02*
X196295000Y-92675000D01*
D30*
X200105000Y-87725000D02*
X202325000Y-87725000D01*
X202325000Y-87725000D02*
X202400000Y-87800000D01*
X196220000Y-87800000D02*
X196295000Y-87725000D01*
X194000000Y-87800000D02*
X196220000Y-87800000D01*
X205150000Y-80450000D02*
X205150000Y-79000000D01*
X202600000Y-82200000D02*
X203400000Y-82200000D01*
X203400000Y-82200000D02*
X205150000Y-80450000D01*
X204500000Y-76700000D02*
X204500000Y-79000000D01*
X203600000Y-75800000D02*
X204500000Y-76700000D01*
D31*
X200000000Y-79000000D02*
X200600000Y-79000000D01*
X199625000Y-78625000D02*
X200000000Y-79000000D01*
X199200000Y-78625000D02*
X199625000Y-78625000D01*
D30*
X201900000Y-77700000D02*
X201900000Y-79000000D01*
X200000000Y-75800000D02*
X201900000Y-77700000D01*
X202550000Y-77150000D02*
X202550000Y-79000000D01*
X201200000Y-75800000D02*
X202550000Y-77150000D01*
X202400000Y-75800000D02*
X203200000Y-76600000D01*
X203200000Y-76600000D02*
X203200000Y-79000000D01*
X199903188Y-77000000D02*
X197825000Y-77000000D01*
X201250000Y-78346812D02*
X199903188Y-77000000D01*
X201250000Y-79000000D02*
X201250000Y-78346812D01*
D31*
X199025000Y-80175000D02*
X197800000Y-81400000D01*
X199200000Y-80175000D02*
X199025000Y-80175000D01*
D30*
X200200000Y-87630000D02*
X200105000Y-87725000D01*
X200600000Y-85800000D02*
X200200000Y-86200000D01*
X200200000Y-86200000D02*
X200200000Y-87630000D01*
X200600000Y-84725000D02*
X200600000Y-85800000D01*
D31*
X197425000Y-84364244D02*
X197425000Y-85600000D01*
X198975000Y-84425000D02*
X198975000Y-85600000D01*
X199000000Y-84400000D02*
X198975000Y-84425000D01*
D30*
X197400000Y-83400000D02*
X196295000Y-84505000D01*
X196295000Y-84505000D02*
X196295000Y-87725000D01*
X200731250Y-83400000D02*
X197400000Y-83400000D01*
X201250000Y-83918750D02*
X200731250Y-83400000D01*
X201250000Y-84725000D02*
X201250000Y-83918750D01*
D31*
X198835000Y-85740000D02*
X198975000Y-85600000D01*
X198835000Y-87725000D02*
X198835000Y-85740000D01*
X197600000Y-85775000D02*
X197425000Y-85600000D01*
X197600000Y-87690000D02*
X197600000Y-85775000D01*
X197565000Y-85835000D02*
X197600000Y-85800000D01*
X119590000Y-71180000D02*
X121370000Y-69400000D01*
D30*
X161750000Y-60318000D02*
X163068000Y-59000000D01*
X159000000Y-65400000D02*
X161750000Y-62650000D01*
X148200000Y-65400000D02*
X159000000Y-65400000D01*
X161750000Y-62650000D02*
X161750000Y-60318000D01*
D31*
X121400000Y-78800000D02*
X119590000Y-78800000D01*
X139750000Y-76800000D02*
X139225000Y-77325000D01*
X139225000Y-77325000D02*
X138250000Y-77325000D01*
X139375000Y-78875000D02*
X138250000Y-78875000D01*
X139750000Y-79250000D02*
X139375000Y-78875000D01*
X139750000Y-79300000D02*
X139750000Y-79250000D01*
X139900000Y-79450000D02*
X139750000Y-79300000D01*
X134690000Y-78800000D02*
X134765000Y-78875000D01*
X134765000Y-78875000D02*
X138250000Y-78875000D01*
X138225000Y-77350000D02*
X138250000Y-77325000D01*
X134870000Y-77350000D02*
X138225000Y-77350000D01*
X134690000Y-77530000D02*
X134870000Y-77350000D01*
D30*
X147450000Y-64450000D02*
X157618000Y-64450000D01*
X157618000Y-64450000D02*
X160528000Y-61540000D01*
X156250000Y-63250000D02*
X157960000Y-61540000D01*
X157960000Y-61540000D02*
X157988000Y-61540000D01*
X146750000Y-63250000D02*
X156250000Y-63250000D01*
X135390000Y-73660000D02*
X134690000Y-73660000D01*
X137375000Y-71675000D02*
X135390000Y-73660000D01*
X136550000Y-76200000D02*
X134690000Y-76200000D01*
X141050000Y-71700000D02*
X136550000Y-76200000D01*
X136120000Y-74930000D02*
X134690000Y-74930000D01*
X139350000Y-71700000D02*
X136120000Y-74930000D01*
X119590000Y-77530000D02*
X118770000Y-77530000D01*
X118770000Y-77530000D02*
X115900000Y-80400000D01*
X119590000Y-76260000D02*
X116990000Y-76260000D01*
X116990000Y-76260000D02*
X115900000Y-77350000D01*
X116590000Y-74990000D02*
X115900000Y-74300000D01*
X119590000Y-74990000D02*
X116590000Y-74990000D01*
X122545736Y-66400000D02*
X181068000Y-66400000D01*
X117900000Y-71045736D02*
X122545736Y-66400000D01*
X117900000Y-73030000D02*
X117900000Y-71045736D01*
X118590000Y-73720000D02*
X117900000Y-73030000D01*
X119590000Y-73720000D02*
X118590000Y-73720000D01*
X181068000Y-66400000D02*
X185928000Y-61540000D01*
X181908000Y-68100000D02*
X188468000Y-61540000D01*
X120144264Y-72450000D02*
X124494264Y-68100000D01*
X124494264Y-68100000D02*
X181908000Y-68100000D01*
X119590000Y-72450000D02*
X120144264Y-72450000D01*
D33*
X106800000Y-83975000D02*
X108400000Y-83975000D01*
X104140000Y-84165600D02*
X106609400Y-84165600D01*
X106609400Y-84165600D02*
X106800000Y-83975000D01*
X106800000Y-82425000D02*
X108400000Y-82425000D01*
X106000600Y-81625600D02*
X106800000Y-82425000D01*
X104140000Y-81625600D02*
X106000600Y-81625600D01*
D31*
X170737500Y-75700000D02*
X172200000Y-75700000D01*
D32*
X175981000Y-81045000D02*
X176906000Y-81045000D01*
D31*
X161575000Y-75700000D02*
X163000000Y-75700000D01*
D32*
X157806000Y-81045000D02*
X159006000Y-81045000D01*
D31*
X179900000Y-75700000D02*
X181400000Y-75719500D01*
D32*
X227250000Y-71000000D02*
X227000000Y-71250000D01*
X185081000Y-81045000D02*
X186106000Y-81045000D01*
X226500000Y-70250000D02*
X227250000Y-71000000D01*
X166881000Y-81045000D02*
X168106000Y-81045000D01*
D31*
X144700000Y-75700000D02*
X143250000Y-75700000D01*
D32*
X222850000Y-70250000D02*
X226500000Y-70250000D01*
D31*
X152412500Y-75700000D02*
X153900000Y-75700000D01*
D32*
X149856000Y-80995000D02*
X148706000Y-80995000D01*
X165331000Y-81045000D02*
X165331000Y-80144000D01*
X165530000Y-79945000D02*
X165606000Y-79945000D01*
X165606000Y-79945000D02*
X165606000Y-79869000D01*
X156256000Y-80056500D02*
X156256000Y-81045000D01*
X165606000Y-79869000D02*
X166475000Y-79000000D01*
X147156000Y-79994000D02*
X147156000Y-80995000D01*
X183906000Y-79894000D02*
X183531000Y-80269000D01*
X156367500Y-79945000D02*
X156256000Y-80056500D01*
X222850000Y-68700000D02*
X227010000Y-68700000D01*
X147206000Y-79944000D02*
X147156000Y-79994000D01*
X174431000Y-81045000D02*
X174431000Y-80206500D01*
X227010000Y-68700000D02*
X227250000Y-68460000D01*
X174706000Y-79945000D02*
X174706000Y-79931500D01*
X165331000Y-80144000D02*
X165530000Y-79945000D01*
X174431000Y-80206500D02*
X174692500Y-79945000D01*
X174706000Y-79931500D02*
X175637500Y-79000000D01*
X183906000Y-79894000D02*
X184800000Y-79000000D01*
X183531000Y-80269000D02*
X183531000Y-81045000D01*
X174692500Y-79945000D02*
X174706000Y-79945000D01*
X156367500Y-79945000D02*
X157312500Y-79000000D01*
X147206000Y-79944000D02*
X148150000Y-79000000D01*
D31*
X157312500Y-75700000D02*
X158275000Y-75700000D01*
X158275000Y-75700000D02*
X161575000Y-79000000D01*
X113750000Y-91400000D02*
X113700000Y-91350000D01*
X113700000Y-91350000D02*
X113700000Y-87200000D01*
X113700000Y-87200000D02*
X113600000Y-87100000D01*
X111250000Y-91400000D02*
X111200000Y-91350000D01*
X111200000Y-91350000D02*
X111200000Y-87200000D01*
X149112500Y-75700000D02*
X152412500Y-79000000D01*
X148150000Y-75700000D02*
X149112500Y-75700000D01*
X167437500Y-75700000D02*
X170737500Y-79000000D01*
X166475000Y-75700000D02*
X167437500Y-75700000D01*
X176600000Y-75700000D02*
X179900000Y-79000000D01*
X175637500Y-75700000D02*
X176600000Y-75700000D01*
X188300000Y-75700000D02*
X188400000Y-75600000D01*
X184800000Y-75700000D02*
X188300000Y-75700000D01*
M02*
