G04 #@! TF.GenerationSoftware,KiCad,Pcbnew,7.0.8*
G04 #@! TF.CreationDate,2024-01-27T08:45:00-08:00*
G04 #@! TF.ProjectId,FacePlate,46616365-506c-4617-9465-2e6b69636164,rev?*
G04 #@! TF.SameCoordinates,Original*
G04 #@! TF.FileFunction,Soldermask,Top*
G04 #@! TF.FilePolarity,Negative*
%FSLAX46Y46*%
G04 Gerber Fmt 4.6, Leading zero omitted, Abs format (unit mm)*
G04 Created by KiCad (PCBNEW 7.0.8) date 2024-01-27 08:45:00*
%MOMM*%
%LPD*%
G01*
G04 APERTURE LIST*
G04 Aperture macros list*
%AMRoundRect*
0 Rectangle with rounded corners*
0 $1 Rounding radius*
0 $2 $3 $4 $5 $6 $7 $8 $9 X,Y pos of 4 corners*
0 Add a 4 corners polygon primitive as box body*
4,1,4,$2,$3,$4,$5,$6,$7,$8,$9,$2,$3,0*
0 Add four circle primitives for the rounded corners*
1,1,$1+$1,$2,$3*
1,1,$1+$1,$4,$5*
1,1,$1+$1,$6,$7*
1,1,$1+$1,$8,$9*
0 Add four rect primitives between the rounded corners*
20,1,$1+$1,$2,$3,$4,$5,0*
20,1,$1+$1,$4,$5,$6,$7,0*
20,1,$1+$1,$6,$7,$8,$9,0*
20,1,$1+$1,$8,$9,$2,$3,0*%
G04 Aperture macros list end*
%ADD10R,2.006600X1.930400*%
%ADD11RoundRect,0.225000X-0.225000X-0.250000X0.225000X-0.250000X0.225000X0.250000X-0.225000X0.250000X0*%
%ADD12RoundRect,0.225000X0.225000X0.250000X-0.225000X0.250000X-0.225000X-0.250000X0.225000X-0.250000X0*%
%ADD13RoundRect,0.225000X0.250000X-0.225000X0.250000X0.225000X-0.250000X0.225000X-0.250000X-0.225000X0*%
%ADD14R,1.700000X1.700000*%
%ADD15O,1.700000X1.700000*%
%ADD16R,1.500000X0.900000*%
%ADD17C,1.000000*%
%ADD18RoundRect,0.200000X0.275000X-0.200000X0.275000X0.200000X-0.275000X0.200000X-0.275000X-0.200000X0*%
%ADD19RoundRect,0.100000X0.100000X-0.637500X0.100000X0.637500X-0.100000X0.637500X-0.100000X-0.637500X0*%
%ADD20R,2.000000X0.800000*%
%ADD21RoundRect,0.225000X-0.250000X0.225000X-0.250000X-0.225000X0.250000X-0.225000X0.250000X0.225000X0*%
%ADD22RoundRect,0.150000X-0.150000X0.825000X-0.150000X-0.825000X0.150000X-0.825000X0.150000X0.825000X0*%
%ADD23RoundRect,0.200000X-0.200000X-0.275000X0.200000X-0.275000X0.200000X0.275000X-0.200000X0.275000X0*%
%ADD24R,2.000000X1.500000*%
%ADD25R,2.000000X3.800000*%
%ADD26C,1.200000*%
%ADD27RoundRect,0.250000X0.600000X0.725000X-0.600000X0.725000X-0.600000X-0.725000X0.600000X-0.725000X0*%
%ADD28O,1.700000X1.950000*%
G04 APERTURE END LIST*
D10*
X209600000Y-82609300D03*
X209600000Y-86190700D03*
D11*
X209825000Y-88400000D03*
X211375000Y-88400000D03*
X209825000Y-80400000D03*
X211375000Y-80400000D03*
D12*
X132375000Y-95200000D03*
X130825000Y-95200000D03*
D13*
X125800000Y-91600000D03*
X125800000Y-90050000D03*
D14*
X104140000Y-68925600D03*
D15*
X104140000Y-71465600D03*
X104140000Y-74005600D03*
X104140000Y-76545600D03*
X104140000Y-79085600D03*
X104140000Y-81625600D03*
X104140000Y-84165600D03*
D16*
X184800000Y-79000000D03*
X184800000Y-75700000D03*
X179900000Y-75700000D03*
X179900000Y-79000000D03*
D11*
X165331000Y-81045000D03*
X166881000Y-81045000D03*
D17*
X115900000Y-80400000D03*
D11*
X156256000Y-81045000D03*
X157806000Y-81045000D03*
D16*
X166475000Y-79000000D03*
X166475000Y-75700000D03*
X161575000Y-75700000D03*
X161575000Y-79000000D03*
D13*
X136700000Y-78875000D03*
X136700000Y-77325000D03*
D11*
X147156000Y-80995000D03*
X148706000Y-80995000D03*
D16*
X157312500Y-79000000D03*
X157312500Y-75700000D03*
X152412500Y-75700000D03*
X152412500Y-79000000D03*
D11*
X174431000Y-81045000D03*
X175981000Y-81045000D03*
D17*
X188300000Y-75700000D03*
D18*
X194564000Y-94805000D03*
X194564000Y-93155000D03*
D16*
X175637500Y-79000000D03*
X175637500Y-75700000D03*
X170737500Y-75700000D03*
X170737500Y-79000000D03*
D19*
X200600000Y-84725000D03*
X201250000Y-84725000D03*
X201900000Y-84725000D03*
X202550000Y-84725000D03*
X203200000Y-84725000D03*
X203850000Y-84725000D03*
X204500000Y-84725000D03*
X205150000Y-84725000D03*
X205800000Y-84725000D03*
X206450000Y-84725000D03*
X206450000Y-79000000D03*
X205800000Y-79000000D03*
X205150000Y-79000000D03*
X204500000Y-79000000D03*
X203850000Y-79000000D03*
X203200000Y-79000000D03*
X202550000Y-79000000D03*
X201900000Y-79000000D03*
X201250000Y-79000000D03*
X200600000Y-79000000D03*
D13*
X108400000Y-83975000D03*
X108400000Y-82425000D03*
X106800000Y-83975000D03*
X106800000Y-82425000D03*
D14*
X227250000Y-83700000D03*
D15*
X227250000Y-81160000D03*
X227250000Y-78620000D03*
X227250000Y-76080000D03*
X227250000Y-73540000D03*
X227250000Y-71000000D03*
X227250000Y-68460000D03*
D17*
X111200000Y-87376750D03*
D20*
X119590000Y-78800000D03*
X119590000Y-77530000D03*
X119590000Y-76260000D03*
X119590000Y-74990000D03*
X119590000Y-73720000D03*
X119590000Y-72450000D03*
X119590000Y-71180000D03*
X134690000Y-71120000D03*
X134690000Y-72390000D03*
X134690000Y-73660000D03*
X134690000Y-74930000D03*
X134690000Y-76200000D03*
X134690000Y-77530000D03*
X134690000Y-78800000D03*
D18*
X194564000Y-90107000D03*
X194564000Y-91757000D03*
D21*
X224475000Y-68725000D03*
X224475000Y-70275000D03*
D22*
X200105000Y-92675000D03*
X198835000Y-92675000D03*
X197565000Y-92675000D03*
X196295000Y-92675000D03*
X196295000Y-87725000D03*
X197565000Y-87725000D03*
X198835000Y-87725000D03*
X200105000Y-87725000D03*
D17*
X115900000Y-77350000D03*
D13*
X138250000Y-78875000D03*
X138250000Y-77325000D03*
D11*
X183531000Y-81045000D03*
X185081000Y-81045000D03*
D17*
X113600000Y-87376750D03*
D21*
X222850000Y-68700000D03*
X222850000Y-70250000D03*
D17*
X202400000Y-87800000D03*
D16*
X148150000Y-79000000D03*
X148150000Y-75700000D03*
X143250000Y-75700000D03*
X143250000Y-79000000D03*
D11*
X197425000Y-85600000D03*
X198975000Y-85600000D03*
D17*
X194000000Y-87800000D03*
D21*
X199200000Y-78625000D03*
X199200000Y-80175000D03*
D17*
X115900000Y-74300000D03*
D23*
X196175000Y-77000000D03*
X197825000Y-77000000D03*
D14*
X206248000Y-59000000D03*
D15*
X206248000Y-61540000D03*
X203708000Y-59000000D03*
X203708000Y-61540000D03*
X201168000Y-59000000D03*
X201168000Y-61540000D03*
X198628000Y-59000000D03*
X198628000Y-61540000D03*
X196088000Y-59000000D03*
X196088000Y-61540000D03*
X193548000Y-59000000D03*
X193548000Y-61540000D03*
X191008000Y-59000000D03*
X191008000Y-61540000D03*
X188468000Y-59000000D03*
X188468000Y-61540000D03*
X185928000Y-59000000D03*
X185928000Y-61540000D03*
X183388000Y-59000000D03*
X183388000Y-61540000D03*
X180848000Y-59000000D03*
X180848000Y-61540000D03*
X178308000Y-59000000D03*
X178308000Y-61540000D03*
X175768000Y-59000000D03*
X175768000Y-61540000D03*
X173228000Y-59000000D03*
X173228000Y-61540000D03*
X170688000Y-59000000D03*
X170688000Y-61540000D03*
X168148000Y-59000000D03*
X168148000Y-61540000D03*
X165608000Y-59000000D03*
X165608000Y-61540000D03*
X163068000Y-59000000D03*
X163068000Y-61540000D03*
X160528000Y-59000000D03*
X160528000Y-61540000D03*
X157988000Y-59000000D03*
X157988000Y-61540000D03*
D24*
X128250000Y-88500000D03*
X128250000Y-90800000D03*
D25*
X134550000Y-90800000D03*
D24*
X128250000Y-93100000D03*
D26*
X120350000Y-93400000D03*
D27*
X118750000Y-91400000D03*
D28*
X116250000Y-91400000D03*
X113750000Y-91400000D03*
X111250000Y-91400000D03*
M02*
