G04 #@! TF.GenerationSoftware,KiCad,Pcbnew,7.0.8*
G04 #@! TF.CreationDate,2024-01-27T08:45:00-08:00*
G04 #@! TF.ProjectId,FacePlate,46616365-506c-4617-9465-2e6b69636164,rev?*
G04 #@! TF.SameCoordinates,Original*
G04 #@! TF.FileFunction,Legend,Top*
G04 #@! TF.FilePolarity,Positive*
%FSLAX46Y46*%
G04 Gerber Fmt 4.6, Leading zero omitted, Abs format (unit mm)*
G04 Created by KiCad (PCBNEW 7.0.8) date 2024-01-27 08:45:00*
%MOMM*%
%LPD*%
G01*
G04 APERTURE LIST*
G04 Aperture macros list*
%AMRoundRect*
0 Rectangle with rounded corners*
0 $1 Rounding radius*
0 $2 $3 $4 $5 $6 $7 $8 $9 X,Y pos of 4 corners*
0 Add a 4 corners polygon primitive as box body*
4,1,4,$2,$3,$4,$5,$6,$7,$8,$9,$2,$3,0*
0 Add four circle primitives for the rounded corners*
1,1,$1+$1,$2,$3*
1,1,$1+$1,$4,$5*
1,1,$1+$1,$6,$7*
1,1,$1+$1,$8,$9*
0 Add four rect primitives between the rounded corners*
20,1,$1+$1,$2,$3,$4,$5,0*
20,1,$1+$1,$4,$5,$6,$7,0*
20,1,$1+$1,$6,$7,$8,$9,0*
20,1,$1+$1,$8,$9,$2,$3,0*%
G04 Aperture macros list end*
%ADD10C,0.150000*%
%ADD11C,0.152400*%
%ADD12C,0.120000*%
%ADD13R,2.006600X1.930400*%
%ADD14RoundRect,0.225000X-0.225000X-0.250000X0.225000X-0.250000X0.225000X0.250000X-0.225000X0.250000X0*%
%ADD15RoundRect,0.225000X0.225000X0.250000X-0.225000X0.250000X-0.225000X-0.250000X0.225000X-0.250000X0*%
%ADD16RoundRect,0.225000X0.250000X-0.225000X0.250000X0.225000X-0.250000X0.225000X-0.250000X-0.225000X0*%
%ADD17R,1.700000X1.700000*%
%ADD18O,1.700000X1.700000*%
%ADD19R,1.500000X0.900000*%
%ADD20C,1.000000*%
%ADD21RoundRect,0.200000X0.275000X-0.200000X0.275000X0.200000X-0.275000X0.200000X-0.275000X-0.200000X0*%
%ADD22RoundRect,0.100000X0.100000X-0.637500X0.100000X0.637500X-0.100000X0.637500X-0.100000X-0.637500X0*%
%ADD23R,2.000000X0.800000*%
%ADD24RoundRect,0.225000X-0.250000X0.225000X-0.250000X-0.225000X0.250000X-0.225000X0.250000X0.225000X0*%
%ADD25RoundRect,0.150000X-0.150000X0.825000X-0.150000X-0.825000X0.150000X-0.825000X0.150000X0.825000X0*%
%ADD26RoundRect,0.200000X-0.200000X-0.275000X0.200000X-0.275000X0.200000X0.275000X-0.200000X0.275000X0*%
%ADD27R,2.000000X1.500000*%
%ADD28R,2.000000X3.800000*%
%ADD29C,1.200000*%
%ADD30RoundRect,0.250000X0.600000X0.725000X-0.600000X0.725000X-0.600000X-0.725000X0.600000X-0.725000X0*%
%ADD31O,1.700000X1.950000*%
G04 APERTURE END LIST*
D10*
X209578628Y-84876190D02*
X210054819Y-84876190D01*
X209054819Y-85209523D02*
X209578628Y-84876190D01*
X209578628Y-84876190D02*
X209054819Y-84542857D01*
X209150057Y-84257142D02*
X209102438Y-84209523D01*
X209102438Y-84209523D02*
X209054819Y-84114285D01*
X209054819Y-84114285D02*
X209054819Y-83876190D01*
X209054819Y-83876190D02*
X209102438Y-83780952D01*
X209102438Y-83780952D02*
X209150057Y-83733333D01*
X209150057Y-83733333D02*
X209245295Y-83685714D01*
X209245295Y-83685714D02*
X209340533Y-83685714D01*
X209340533Y-83685714D02*
X209483390Y-83733333D01*
X209483390Y-83733333D02*
X210054819Y-84304761D01*
X210054819Y-84304761D02*
X210054819Y-83685714D01*
X209957142Y-90359580D02*
X209909523Y-90407200D01*
X209909523Y-90407200D02*
X209766666Y-90454819D01*
X209766666Y-90454819D02*
X209671428Y-90454819D01*
X209671428Y-90454819D02*
X209528571Y-90407200D01*
X209528571Y-90407200D02*
X209433333Y-90311961D01*
X209433333Y-90311961D02*
X209385714Y-90216723D01*
X209385714Y-90216723D02*
X209338095Y-90026247D01*
X209338095Y-90026247D02*
X209338095Y-89883390D01*
X209338095Y-89883390D02*
X209385714Y-89692914D01*
X209385714Y-89692914D02*
X209433333Y-89597676D01*
X209433333Y-89597676D02*
X209528571Y-89502438D01*
X209528571Y-89502438D02*
X209671428Y-89454819D01*
X209671428Y-89454819D02*
X209766666Y-89454819D01*
X209766666Y-89454819D02*
X209909523Y-89502438D01*
X209909523Y-89502438D02*
X209957142Y-89550057D01*
X210909523Y-90454819D02*
X210338095Y-90454819D01*
X210623809Y-90454819D02*
X210623809Y-89454819D01*
X210623809Y-89454819D02*
X210528571Y-89597676D01*
X210528571Y-89597676D02*
X210433333Y-89692914D01*
X210433333Y-89692914D02*
X210338095Y-89740533D01*
X211385714Y-90454819D02*
X211576190Y-90454819D01*
X211576190Y-90454819D02*
X211671428Y-90407200D01*
X211671428Y-90407200D02*
X211719047Y-90359580D01*
X211719047Y-90359580D02*
X211814285Y-90216723D01*
X211814285Y-90216723D02*
X211861904Y-90026247D01*
X211861904Y-90026247D02*
X211861904Y-89645295D01*
X211861904Y-89645295D02*
X211814285Y-89550057D01*
X211814285Y-89550057D02*
X211766666Y-89502438D01*
X211766666Y-89502438D02*
X211671428Y-89454819D01*
X211671428Y-89454819D02*
X211480952Y-89454819D01*
X211480952Y-89454819D02*
X211385714Y-89502438D01*
X211385714Y-89502438D02*
X211338095Y-89550057D01*
X211338095Y-89550057D02*
X211290476Y-89645295D01*
X211290476Y-89645295D02*
X211290476Y-89883390D01*
X211290476Y-89883390D02*
X211338095Y-89978628D01*
X211338095Y-89978628D02*
X211385714Y-90026247D01*
X211385714Y-90026247D02*
X211480952Y-90073866D01*
X211480952Y-90073866D02*
X211671428Y-90073866D01*
X211671428Y-90073866D02*
X211766666Y-90026247D01*
X211766666Y-90026247D02*
X211814285Y-89978628D01*
X211814285Y-89978628D02*
X211861904Y-89883390D01*
X209957142Y-79329580D02*
X209909523Y-79377200D01*
X209909523Y-79377200D02*
X209766666Y-79424819D01*
X209766666Y-79424819D02*
X209671428Y-79424819D01*
X209671428Y-79424819D02*
X209528571Y-79377200D01*
X209528571Y-79377200D02*
X209433333Y-79281961D01*
X209433333Y-79281961D02*
X209385714Y-79186723D01*
X209385714Y-79186723D02*
X209338095Y-78996247D01*
X209338095Y-78996247D02*
X209338095Y-78853390D01*
X209338095Y-78853390D02*
X209385714Y-78662914D01*
X209385714Y-78662914D02*
X209433333Y-78567676D01*
X209433333Y-78567676D02*
X209528571Y-78472438D01*
X209528571Y-78472438D02*
X209671428Y-78424819D01*
X209671428Y-78424819D02*
X209766666Y-78424819D01*
X209766666Y-78424819D02*
X209909523Y-78472438D01*
X209909523Y-78472438D02*
X209957142Y-78520057D01*
X210909523Y-79424819D02*
X210338095Y-79424819D01*
X210623809Y-79424819D02*
X210623809Y-78424819D01*
X210623809Y-78424819D02*
X210528571Y-78567676D01*
X210528571Y-78567676D02*
X210433333Y-78662914D01*
X210433333Y-78662914D02*
X210338095Y-78710533D01*
X211480952Y-78853390D02*
X211385714Y-78805771D01*
X211385714Y-78805771D02*
X211338095Y-78758152D01*
X211338095Y-78758152D02*
X211290476Y-78662914D01*
X211290476Y-78662914D02*
X211290476Y-78615295D01*
X211290476Y-78615295D02*
X211338095Y-78520057D01*
X211338095Y-78520057D02*
X211385714Y-78472438D01*
X211385714Y-78472438D02*
X211480952Y-78424819D01*
X211480952Y-78424819D02*
X211671428Y-78424819D01*
X211671428Y-78424819D02*
X211766666Y-78472438D01*
X211766666Y-78472438D02*
X211814285Y-78520057D01*
X211814285Y-78520057D02*
X211861904Y-78615295D01*
X211861904Y-78615295D02*
X211861904Y-78662914D01*
X211861904Y-78662914D02*
X211814285Y-78758152D01*
X211814285Y-78758152D02*
X211766666Y-78805771D01*
X211766666Y-78805771D02*
X211671428Y-78853390D01*
X211671428Y-78853390D02*
X211480952Y-78853390D01*
X211480952Y-78853390D02*
X211385714Y-78901009D01*
X211385714Y-78901009D02*
X211338095Y-78948628D01*
X211338095Y-78948628D02*
X211290476Y-79043866D01*
X211290476Y-79043866D02*
X211290476Y-79234342D01*
X211290476Y-79234342D02*
X211338095Y-79329580D01*
X211338095Y-79329580D02*
X211385714Y-79377200D01*
X211385714Y-79377200D02*
X211480952Y-79424819D01*
X211480952Y-79424819D02*
X211671428Y-79424819D01*
X211671428Y-79424819D02*
X211766666Y-79377200D01*
X211766666Y-79377200D02*
X211814285Y-79329580D01*
X211814285Y-79329580D02*
X211861904Y-79234342D01*
X211861904Y-79234342D02*
X211861904Y-79043866D01*
X211861904Y-79043866D02*
X211814285Y-78948628D01*
X211814285Y-78948628D02*
X211766666Y-78901009D01*
X211766666Y-78901009D02*
X211671428Y-78853390D01*
X130957142Y-96989580D02*
X130909523Y-97037200D01*
X130909523Y-97037200D02*
X130766666Y-97084819D01*
X130766666Y-97084819D02*
X130671428Y-97084819D01*
X130671428Y-97084819D02*
X130528571Y-97037200D01*
X130528571Y-97037200D02*
X130433333Y-96941961D01*
X130433333Y-96941961D02*
X130385714Y-96846723D01*
X130385714Y-96846723D02*
X130338095Y-96656247D01*
X130338095Y-96656247D02*
X130338095Y-96513390D01*
X130338095Y-96513390D02*
X130385714Y-96322914D01*
X130385714Y-96322914D02*
X130433333Y-96227676D01*
X130433333Y-96227676D02*
X130528571Y-96132438D01*
X130528571Y-96132438D02*
X130671428Y-96084819D01*
X130671428Y-96084819D02*
X130766666Y-96084819D01*
X130766666Y-96084819D02*
X130909523Y-96132438D01*
X130909523Y-96132438D02*
X130957142Y-96180057D01*
X131909523Y-97084819D02*
X131338095Y-97084819D01*
X131623809Y-97084819D02*
X131623809Y-96084819D01*
X131623809Y-96084819D02*
X131528571Y-96227676D01*
X131528571Y-96227676D02*
X131433333Y-96322914D01*
X131433333Y-96322914D02*
X131338095Y-96370533D01*
X132242857Y-96084819D02*
X132909523Y-96084819D01*
X132909523Y-96084819D02*
X132480952Y-97084819D01*
X124729580Y-91467857D02*
X124777200Y-91515476D01*
X124777200Y-91515476D02*
X124824819Y-91658333D01*
X124824819Y-91658333D02*
X124824819Y-91753571D01*
X124824819Y-91753571D02*
X124777200Y-91896428D01*
X124777200Y-91896428D02*
X124681961Y-91991666D01*
X124681961Y-91991666D02*
X124586723Y-92039285D01*
X124586723Y-92039285D02*
X124396247Y-92086904D01*
X124396247Y-92086904D02*
X124253390Y-92086904D01*
X124253390Y-92086904D02*
X124062914Y-92039285D01*
X124062914Y-92039285D02*
X123967676Y-91991666D01*
X123967676Y-91991666D02*
X123872438Y-91896428D01*
X123872438Y-91896428D02*
X123824819Y-91753571D01*
X123824819Y-91753571D02*
X123824819Y-91658333D01*
X123824819Y-91658333D02*
X123872438Y-91515476D01*
X123872438Y-91515476D02*
X123920057Y-91467857D01*
X124824819Y-90515476D02*
X124824819Y-91086904D01*
X124824819Y-90801190D02*
X123824819Y-90801190D01*
X123824819Y-90801190D02*
X123967676Y-90896428D01*
X123967676Y-90896428D02*
X124062914Y-90991666D01*
X124062914Y-90991666D02*
X124110533Y-91086904D01*
X123824819Y-89658333D02*
X123824819Y-89848809D01*
X123824819Y-89848809D02*
X123872438Y-89944047D01*
X123872438Y-89944047D02*
X123920057Y-89991666D01*
X123920057Y-89991666D02*
X124062914Y-90086904D01*
X124062914Y-90086904D02*
X124253390Y-90134523D01*
X124253390Y-90134523D02*
X124634342Y-90134523D01*
X124634342Y-90134523D02*
X124729580Y-90086904D01*
X124729580Y-90086904D02*
X124777200Y-90039285D01*
X124777200Y-90039285D02*
X124824819Y-89944047D01*
X124824819Y-89944047D02*
X124824819Y-89753571D01*
X124824819Y-89753571D02*
X124777200Y-89658333D01*
X124777200Y-89658333D02*
X124729580Y-89610714D01*
X124729580Y-89610714D02*
X124634342Y-89563095D01*
X124634342Y-89563095D02*
X124396247Y-89563095D01*
X124396247Y-89563095D02*
X124301009Y-89610714D01*
X124301009Y-89610714D02*
X124253390Y-89658333D01*
X124253390Y-89658333D02*
X124205771Y-89753571D01*
X124205771Y-89753571D02*
X124205771Y-89944047D01*
X124205771Y-89944047D02*
X124253390Y-90039285D01*
X124253390Y-90039285D02*
X124301009Y-90086904D01*
X124301009Y-90086904D02*
X124396247Y-90134523D01*
X103378095Y-66050419D02*
X103378095Y-66859942D01*
X103378095Y-66859942D02*
X103425714Y-66955180D01*
X103425714Y-66955180D02*
X103473333Y-67002800D01*
X103473333Y-67002800D02*
X103568571Y-67050419D01*
X103568571Y-67050419D02*
X103759047Y-67050419D01*
X103759047Y-67050419D02*
X103854285Y-67002800D01*
X103854285Y-67002800D02*
X103901904Y-66955180D01*
X103901904Y-66955180D02*
X103949523Y-66859942D01*
X103949523Y-66859942D02*
X103949523Y-66050419D01*
X104378095Y-66145657D02*
X104425714Y-66098038D01*
X104425714Y-66098038D02*
X104520952Y-66050419D01*
X104520952Y-66050419D02*
X104759047Y-66050419D01*
X104759047Y-66050419D02*
X104854285Y-66098038D01*
X104854285Y-66098038D02*
X104901904Y-66145657D01*
X104901904Y-66145657D02*
X104949523Y-66240895D01*
X104949523Y-66240895D02*
X104949523Y-66336133D01*
X104949523Y-66336133D02*
X104901904Y-66478990D01*
X104901904Y-66478990D02*
X104330476Y-67050419D01*
X104330476Y-67050419D02*
X104949523Y-67050419D01*
X186785714Y-79404819D02*
X186214286Y-79404819D01*
X186500000Y-79404819D02*
X186500000Y-78404819D01*
X186500000Y-78404819D02*
X186404762Y-78547676D01*
X186404762Y-78547676D02*
X186309524Y-78642914D01*
X186309524Y-78642914D02*
X186214286Y-78690533D01*
X166039333Y-82904580D02*
X165991714Y-82952200D01*
X165991714Y-82952200D02*
X165848857Y-82999819D01*
X165848857Y-82999819D02*
X165753619Y-82999819D01*
X165753619Y-82999819D02*
X165610762Y-82952200D01*
X165610762Y-82952200D02*
X165515524Y-82856961D01*
X165515524Y-82856961D02*
X165467905Y-82761723D01*
X165467905Y-82761723D02*
X165420286Y-82571247D01*
X165420286Y-82571247D02*
X165420286Y-82428390D01*
X165420286Y-82428390D02*
X165467905Y-82237914D01*
X165467905Y-82237914D02*
X165515524Y-82142676D01*
X165515524Y-82142676D02*
X165610762Y-82047438D01*
X165610762Y-82047438D02*
X165753619Y-81999819D01*
X165753619Y-81999819D02*
X165848857Y-81999819D01*
X165848857Y-81999819D02*
X165991714Y-82047438D01*
X165991714Y-82047438D02*
X166039333Y-82095057D01*
X166372667Y-81999819D02*
X167039333Y-81999819D01*
X167039333Y-81999819D02*
X166610762Y-82999819D01*
X111638095Y-80054819D02*
X112209523Y-80054819D01*
X111923809Y-81054819D02*
X111923809Y-80054819D01*
X112542857Y-81054819D02*
X112542857Y-80054819D01*
X112542857Y-80054819D02*
X112923809Y-80054819D01*
X112923809Y-80054819D02*
X113019047Y-80102438D01*
X113019047Y-80102438D02*
X113066666Y-80150057D01*
X113066666Y-80150057D02*
X113114285Y-80245295D01*
X113114285Y-80245295D02*
X113114285Y-80388152D01*
X113114285Y-80388152D02*
X113066666Y-80483390D01*
X113066666Y-80483390D02*
X113019047Y-80531009D01*
X113019047Y-80531009D02*
X112923809Y-80578628D01*
X112923809Y-80578628D02*
X112542857Y-80578628D01*
X113495238Y-80150057D02*
X113542857Y-80102438D01*
X113542857Y-80102438D02*
X113638095Y-80054819D01*
X113638095Y-80054819D02*
X113876190Y-80054819D01*
X113876190Y-80054819D02*
X113971428Y-80102438D01*
X113971428Y-80102438D02*
X114019047Y-80150057D01*
X114019047Y-80150057D02*
X114066666Y-80245295D01*
X114066666Y-80245295D02*
X114066666Y-80340533D01*
X114066666Y-80340533D02*
X114019047Y-80483390D01*
X114019047Y-80483390D02*
X113447619Y-81054819D01*
X113447619Y-81054819D02*
X114066666Y-81054819D01*
X156839333Y-82804580D02*
X156791714Y-82852200D01*
X156791714Y-82852200D02*
X156648857Y-82899819D01*
X156648857Y-82899819D02*
X156553619Y-82899819D01*
X156553619Y-82899819D02*
X156410762Y-82852200D01*
X156410762Y-82852200D02*
X156315524Y-82756961D01*
X156315524Y-82756961D02*
X156267905Y-82661723D01*
X156267905Y-82661723D02*
X156220286Y-82471247D01*
X156220286Y-82471247D02*
X156220286Y-82328390D01*
X156220286Y-82328390D02*
X156267905Y-82137914D01*
X156267905Y-82137914D02*
X156315524Y-82042676D01*
X156315524Y-82042676D02*
X156410762Y-81947438D01*
X156410762Y-81947438D02*
X156553619Y-81899819D01*
X156553619Y-81899819D02*
X156648857Y-81899819D01*
X156648857Y-81899819D02*
X156791714Y-81947438D01*
X156791714Y-81947438D02*
X156839333Y-81995057D01*
X157696476Y-81899819D02*
X157506000Y-81899819D01*
X157506000Y-81899819D02*
X157410762Y-81947438D01*
X157410762Y-81947438D02*
X157363143Y-81995057D01*
X157363143Y-81995057D02*
X157267905Y-82137914D01*
X157267905Y-82137914D02*
X157220286Y-82328390D01*
X157220286Y-82328390D02*
X157220286Y-82709342D01*
X157220286Y-82709342D02*
X157267905Y-82804580D01*
X157267905Y-82804580D02*
X157315524Y-82852200D01*
X157315524Y-82852200D02*
X157410762Y-82899819D01*
X157410762Y-82899819D02*
X157601238Y-82899819D01*
X157601238Y-82899819D02*
X157696476Y-82852200D01*
X157696476Y-82852200D02*
X157744095Y-82804580D01*
X157744095Y-82804580D02*
X157791714Y-82709342D01*
X157791714Y-82709342D02*
X157791714Y-82471247D01*
X157791714Y-82471247D02*
X157744095Y-82376009D01*
X157744095Y-82376009D02*
X157696476Y-82328390D01*
X157696476Y-82328390D02*
X157601238Y-82280771D01*
X157601238Y-82280771D02*
X157410762Y-82280771D01*
X157410762Y-82280771D02*
X157315524Y-82328390D01*
X157315524Y-82328390D02*
X157267905Y-82376009D01*
X157267905Y-82376009D02*
X157220286Y-82471247D01*
X168460714Y-79404819D02*
X167889286Y-79404819D01*
X168175000Y-79404819D02*
X168175000Y-78404819D01*
X168175000Y-78404819D02*
X168079762Y-78547676D01*
X168079762Y-78547676D02*
X167984524Y-78642914D01*
X167984524Y-78642914D02*
X167889286Y-78690533D01*
X137044580Y-81967857D02*
X137092200Y-82015476D01*
X137092200Y-82015476D02*
X137139819Y-82158333D01*
X137139819Y-82158333D02*
X137139819Y-82253571D01*
X137139819Y-82253571D02*
X137092200Y-82396428D01*
X137092200Y-82396428D02*
X136996961Y-82491666D01*
X136996961Y-82491666D02*
X136901723Y-82539285D01*
X136901723Y-82539285D02*
X136711247Y-82586904D01*
X136711247Y-82586904D02*
X136568390Y-82586904D01*
X136568390Y-82586904D02*
X136377914Y-82539285D01*
X136377914Y-82539285D02*
X136282676Y-82491666D01*
X136282676Y-82491666D02*
X136187438Y-82396428D01*
X136187438Y-82396428D02*
X136139819Y-82253571D01*
X136139819Y-82253571D02*
X136139819Y-82158333D01*
X136139819Y-82158333D02*
X136187438Y-82015476D01*
X136187438Y-82015476D02*
X136235057Y-81967857D01*
X137139819Y-81015476D02*
X137139819Y-81586904D01*
X137139819Y-81301190D02*
X136139819Y-81301190D01*
X136139819Y-81301190D02*
X136282676Y-81396428D01*
X136282676Y-81396428D02*
X136377914Y-81491666D01*
X136377914Y-81491666D02*
X136425533Y-81586904D01*
X136139819Y-80396428D02*
X136139819Y-80301190D01*
X136139819Y-80301190D02*
X136187438Y-80205952D01*
X136187438Y-80205952D02*
X136235057Y-80158333D01*
X136235057Y-80158333D02*
X136330295Y-80110714D01*
X136330295Y-80110714D02*
X136520771Y-80063095D01*
X136520771Y-80063095D02*
X136758866Y-80063095D01*
X136758866Y-80063095D02*
X136949342Y-80110714D01*
X136949342Y-80110714D02*
X137044580Y-80158333D01*
X137044580Y-80158333D02*
X137092200Y-80205952D01*
X137092200Y-80205952D02*
X137139819Y-80301190D01*
X137139819Y-80301190D02*
X137139819Y-80396428D01*
X137139819Y-80396428D02*
X137092200Y-80491666D01*
X137092200Y-80491666D02*
X137044580Y-80539285D01*
X137044580Y-80539285D02*
X136949342Y-80586904D01*
X136949342Y-80586904D02*
X136758866Y-80634523D01*
X136758866Y-80634523D02*
X136520771Y-80634523D01*
X136520771Y-80634523D02*
X136330295Y-80586904D01*
X136330295Y-80586904D02*
X136235057Y-80539285D01*
X136235057Y-80539285D02*
X136187438Y-80491666D01*
X136187438Y-80491666D02*
X136139819Y-80396428D01*
X147764333Y-82804580D02*
X147716714Y-82852200D01*
X147716714Y-82852200D02*
X147573857Y-82899819D01*
X147573857Y-82899819D02*
X147478619Y-82899819D01*
X147478619Y-82899819D02*
X147335762Y-82852200D01*
X147335762Y-82852200D02*
X147240524Y-82756961D01*
X147240524Y-82756961D02*
X147192905Y-82661723D01*
X147192905Y-82661723D02*
X147145286Y-82471247D01*
X147145286Y-82471247D02*
X147145286Y-82328390D01*
X147145286Y-82328390D02*
X147192905Y-82137914D01*
X147192905Y-82137914D02*
X147240524Y-82042676D01*
X147240524Y-82042676D02*
X147335762Y-81947438D01*
X147335762Y-81947438D02*
X147478619Y-81899819D01*
X147478619Y-81899819D02*
X147573857Y-81899819D01*
X147573857Y-81899819D02*
X147716714Y-81947438D01*
X147716714Y-81947438D02*
X147764333Y-81995057D01*
X148669095Y-81899819D02*
X148192905Y-81899819D01*
X148192905Y-81899819D02*
X148145286Y-82376009D01*
X148145286Y-82376009D02*
X148192905Y-82328390D01*
X148192905Y-82328390D02*
X148288143Y-82280771D01*
X148288143Y-82280771D02*
X148526238Y-82280771D01*
X148526238Y-82280771D02*
X148621476Y-82328390D01*
X148621476Y-82328390D02*
X148669095Y-82376009D01*
X148669095Y-82376009D02*
X148716714Y-82471247D01*
X148716714Y-82471247D02*
X148716714Y-82709342D01*
X148716714Y-82709342D02*
X148669095Y-82804580D01*
X148669095Y-82804580D02*
X148621476Y-82852200D01*
X148621476Y-82852200D02*
X148526238Y-82899819D01*
X148526238Y-82899819D02*
X148288143Y-82899819D01*
X148288143Y-82899819D02*
X148192905Y-82852200D01*
X148192905Y-82852200D02*
X148145286Y-82804580D01*
X159298214Y-79404819D02*
X158726786Y-79404819D01*
X159012500Y-79404819D02*
X159012500Y-78404819D01*
X159012500Y-78404819D02*
X158917262Y-78547676D01*
X158917262Y-78547676D02*
X158822024Y-78642914D01*
X158822024Y-78642914D02*
X158726786Y-78690533D01*
X175039333Y-82904580D02*
X174991714Y-82952200D01*
X174991714Y-82952200D02*
X174848857Y-82999819D01*
X174848857Y-82999819D02*
X174753619Y-82999819D01*
X174753619Y-82999819D02*
X174610762Y-82952200D01*
X174610762Y-82952200D02*
X174515524Y-82856961D01*
X174515524Y-82856961D02*
X174467905Y-82761723D01*
X174467905Y-82761723D02*
X174420286Y-82571247D01*
X174420286Y-82571247D02*
X174420286Y-82428390D01*
X174420286Y-82428390D02*
X174467905Y-82237914D01*
X174467905Y-82237914D02*
X174515524Y-82142676D01*
X174515524Y-82142676D02*
X174610762Y-82047438D01*
X174610762Y-82047438D02*
X174753619Y-81999819D01*
X174753619Y-81999819D02*
X174848857Y-81999819D01*
X174848857Y-81999819D02*
X174991714Y-82047438D01*
X174991714Y-82047438D02*
X175039333Y-82095057D01*
X175610762Y-82428390D02*
X175515524Y-82380771D01*
X175515524Y-82380771D02*
X175467905Y-82333152D01*
X175467905Y-82333152D02*
X175420286Y-82237914D01*
X175420286Y-82237914D02*
X175420286Y-82190295D01*
X175420286Y-82190295D02*
X175467905Y-82095057D01*
X175467905Y-82095057D02*
X175515524Y-82047438D01*
X175515524Y-82047438D02*
X175610762Y-81999819D01*
X175610762Y-81999819D02*
X175801238Y-81999819D01*
X175801238Y-81999819D02*
X175896476Y-82047438D01*
X175896476Y-82047438D02*
X175944095Y-82095057D01*
X175944095Y-82095057D02*
X175991714Y-82190295D01*
X175991714Y-82190295D02*
X175991714Y-82237914D01*
X175991714Y-82237914D02*
X175944095Y-82333152D01*
X175944095Y-82333152D02*
X175896476Y-82380771D01*
X175896476Y-82380771D02*
X175801238Y-82428390D01*
X175801238Y-82428390D02*
X175610762Y-82428390D01*
X175610762Y-82428390D02*
X175515524Y-82476009D01*
X175515524Y-82476009D02*
X175467905Y-82523628D01*
X175467905Y-82523628D02*
X175420286Y-82618866D01*
X175420286Y-82618866D02*
X175420286Y-82809342D01*
X175420286Y-82809342D02*
X175467905Y-82904580D01*
X175467905Y-82904580D02*
X175515524Y-82952200D01*
X175515524Y-82952200D02*
X175610762Y-82999819D01*
X175610762Y-82999819D02*
X175801238Y-82999819D01*
X175801238Y-82999819D02*
X175896476Y-82952200D01*
X175896476Y-82952200D02*
X175944095Y-82904580D01*
X175944095Y-82904580D02*
X175991714Y-82809342D01*
X175991714Y-82809342D02*
X175991714Y-82618866D01*
X175991714Y-82618866D02*
X175944095Y-82523628D01*
X175944095Y-82523628D02*
X175896476Y-82476009D01*
X175896476Y-82476009D02*
X175801238Y-82428390D01*
X187038095Y-73706819D02*
X187609523Y-73706819D01*
X187323809Y-74706819D02*
X187323809Y-73706819D01*
X187942857Y-74706819D02*
X187942857Y-73706819D01*
X187942857Y-73706819D02*
X188323809Y-73706819D01*
X188323809Y-73706819D02*
X188419047Y-73754438D01*
X188419047Y-73754438D02*
X188466666Y-73802057D01*
X188466666Y-73802057D02*
X188514285Y-73897295D01*
X188514285Y-73897295D02*
X188514285Y-74040152D01*
X188514285Y-74040152D02*
X188466666Y-74135390D01*
X188466666Y-74135390D02*
X188419047Y-74183009D01*
X188419047Y-74183009D02*
X188323809Y-74230628D01*
X188323809Y-74230628D02*
X187942857Y-74230628D01*
X189466666Y-74706819D02*
X188895238Y-74706819D01*
X189180952Y-74706819D02*
X189180952Y-73706819D01*
X189180952Y-73706819D02*
X189085714Y-73849676D01*
X189085714Y-73849676D02*
X188990476Y-73944914D01*
X188990476Y-73944914D02*
X188895238Y-73992533D01*
X193588819Y-94146666D02*
X193112628Y-94479999D01*
X193588819Y-94718094D02*
X192588819Y-94718094D01*
X192588819Y-94718094D02*
X192588819Y-94337142D01*
X192588819Y-94337142D02*
X192636438Y-94241904D01*
X192636438Y-94241904D02*
X192684057Y-94194285D01*
X192684057Y-94194285D02*
X192779295Y-94146666D01*
X192779295Y-94146666D02*
X192922152Y-94146666D01*
X192922152Y-94146666D02*
X193017390Y-94194285D01*
X193017390Y-94194285D02*
X193065009Y-94241904D01*
X193065009Y-94241904D02*
X193112628Y-94337142D01*
X193112628Y-94337142D02*
X193112628Y-94718094D01*
X193588819Y-93194285D02*
X193588819Y-93765713D01*
X193588819Y-93479999D02*
X192588819Y-93479999D01*
X192588819Y-93479999D02*
X192731676Y-93575237D01*
X192731676Y-93575237D02*
X192826914Y-93670475D01*
X192826914Y-93670475D02*
X192874533Y-93765713D01*
X177623214Y-79404819D02*
X177051786Y-79404819D01*
X177337500Y-79404819D02*
X177337500Y-78404819D01*
X177337500Y-78404819D02*
X177242262Y-78547676D01*
X177242262Y-78547676D02*
X177147024Y-78642914D01*
X177147024Y-78642914D02*
X177051786Y-78690533D01*
X198779819Y-82624404D02*
X199589342Y-82624404D01*
X199589342Y-82624404D02*
X199684580Y-82576785D01*
X199684580Y-82576785D02*
X199732200Y-82529166D01*
X199732200Y-82529166D02*
X199779819Y-82433928D01*
X199779819Y-82433928D02*
X199779819Y-82243452D01*
X199779819Y-82243452D02*
X199732200Y-82148214D01*
X199732200Y-82148214D02*
X199684580Y-82100595D01*
X199684580Y-82100595D02*
X199589342Y-82052976D01*
X199589342Y-82052976D02*
X198779819Y-82052976D01*
X198779819Y-81100595D02*
X198779819Y-81576785D01*
X198779819Y-81576785D02*
X199256009Y-81624404D01*
X199256009Y-81624404D02*
X199208390Y-81576785D01*
X199208390Y-81576785D02*
X199160771Y-81481547D01*
X199160771Y-81481547D02*
X199160771Y-81243452D01*
X199160771Y-81243452D02*
X199208390Y-81148214D01*
X199208390Y-81148214D02*
X199256009Y-81100595D01*
X199256009Y-81100595D02*
X199351247Y-81052976D01*
X199351247Y-81052976D02*
X199589342Y-81052976D01*
X199589342Y-81052976D02*
X199684580Y-81100595D01*
X199684580Y-81100595D02*
X199732200Y-81148214D01*
X199732200Y-81148214D02*
X199779819Y-81243452D01*
X199779819Y-81243452D02*
X199779819Y-81481547D01*
X199779819Y-81481547D02*
X199732200Y-81576785D01*
X199732200Y-81576785D02*
X199684580Y-81624404D01*
X108759580Y-80716666D02*
X108807200Y-80764285D01*
X108807200Y-80764285D02*
X108854819Y-80907142D01*
X108854819Y-80907142D02*
X108854819Y-81002380D01*
X108854819Y-81002380D02*
X108807200Y-81145237D01*
X108807200Y-81145237D02*
X108711961Y-81240475D01*
X108711961Y-81240475D02*
X108616723Y-81288094D01*
X108616723Y-81288094D02*
X108426247Y-81335713D01*
X108426247Y-81335713D02*
X108283390Y-81335713D01*
X108283390Y-81335713D02*
X108092914Y-81288094D01*
X108092914Y-81288094D02*
X107997676Y-81240475D01*
X107997676Y-81240475D02*
X107902438Y-81145237D01*
X107902438Y-81145237D02*
X107854819Y-81002380D01*
X107854819Y-81002380D02*
X107854819Y-80907142D01*
X107854819Y-80907142D02*
X107902438Y-80764285D01*
X107902438Y-80764285D02*
X107950057Y-80716666D01*
X107854819Y-80383332D02*
X107854819Y-79764285D01*
X107854819Y-79764285D02*
X108235771Y-80097618D01*
X108235771Y-80097618D02*
X108235771Y-79954761D01*
X108235771Y-79954761D02*
X108283390Y-79859523D01*
X108283390Y-79859523D02*
X108331009Y-79811904D01*
X108331009Y-79811904D02*
X108426247Y-79764285D01*
X108426247Y-79764285D02*
X108664342Y-79764285D01*
X108664342Y-79764285D02*
X108759580Y-79811904D01*
X108759580Y-79811904D02*
X108807200Y-79859523D01*
X108807200Y-79859523D02*
X108854819Y-79954761D01*
X108854819Y-79954761D02*
X108854819Y-80240475D01*
X108854819Y-80240475D02*
X108807200Y-80335713D01*
X108807200Y-80335713D02*
X108759580Y-80383332D01*
X107159580Y-80916666D02*
X107207200Y-80964285D01*
X107207200Y-80964285D02*
X107254819Y-81107142D01*
X107254819Y-81107142D02*
X107254819Y-81202380D01*
X107254819Y-81202380D02*
X107207200Y-81345237D01*
X107207200Y-81345237D02*
X107111961Y-81440475D01*
X107111961Y-81440475D02*
X107016723Y-81488094D01*
X107016723Y-81488094D02*
X106826247Y-81535713D01*
X106826247Y-81535713D02*
X106683390Y-81535713D01*
X106683390Y-81535713D02*
X106492914Y-81488094D01*
X106492914Y-81488094D02*
X106397676Y-81440475D01*
X106397676Y-81440475D02*
X106302438Y-81345237D01*
X106302438Y-81345237D02*
X106254819Y-81202380D01*
X106254819Y-81202380D02*
X106254819Y-81107142D01*
X106254819Y-81107142D02*
X106302438Y-80964285D01*
X106302438Y-80964285D02*
X106350057Y-80916666D01*
X106588152Y-80059523D02*
X107254819Y-80059523D01*
X106207200Y-80297618D02*
X106921485Y-80535713D01*
X106921485Y-80535713D02*
X106921485Y-79916666D01*
X226488095Y-85484819D02*
X226488095Y-86294342D01*
X226488095Y-86294342D02*
X226535714Y-86389580D01*
X226535714Y-86389580D02*
X226583333Y-86437200D01*
X226583333Y-86437200D02*
X226678571Y-86484819D01*
X226678571Y-86484819D02*
X226869047Y-86484819D01*
X226869047Y-86484819D02*
X226964285Y-86437200D01*
X226964285Y-86437200D02*
X227011904Y-86389580D01*
X227011904Y-86389580D02*
X227059523Y-86294342D01*
X227059523Y-86294342D02*
X227059523Y-85484819D01*
X228059523Y-86484819D02*
X227488095Y-86484819D01*
X227773809Y-86484819D02*
X227773809Y-85484819D01*
X227773809Y-85484819D02*
X227678571Y-85627676D01*
X227678571Y-85627676D02*
X227583333Y-85722914D01*
X227583333Y-85722914D02*
X227488095Y-85770533D01*
X105861905Y-86831569D02*
X106433333Y-86831569D01*
X106147619Y-87831569D02*
X106147619Y-86831569D01*
X106766667Y-87831569D02*
X106766667Y-86831569D01*
X106766667Y-86831569D02*
X107147619Y-86831569D01*
X107147619Y-86831569D02*
X107242857Y-86879188D01*
X107242857Y-86879188D02*
X107290476Y-86926807D01*
X107290476Y-86926807D02*
X107338095Y-87022045D01*
X107338095Y-87022045D02*
X107338095Y-87164902D01*
X107338095Y-87164902D02*
X107290476Y-87260140D01*
X107290476Y-87260140D02*
X107242857Y-87307759D01*
X107242857Y-87307759D02*
X107147619Y-87355378D01*
X107147619Y-87355378D02*
X106766667Y-87355378D01*
X108290476Y-87831569D02*
X107719048Y-87831569D01*
X108004762Y-87831569D02*
X108004762Y-86831569D01*
X108004762Y-86831569D02*
X107909524Y-86974426D01*
X107909524Y-86974426D02*
X107814286Y-87069664D01*
X107814286Y-87069664D02*
X107719048Y-87117283D01*
X109242857Y-87831569D02*
X108671429Y-87831569D01*
X108957143Y-87831569D02*
X108957143Y-86831569D01*
X108957143Y-86831569D02*
X108861905Y-86974426D01*
X108861905Y-86974426D02*
X108766667Y-87069664D01*
X108766667Y-87069664D02*
X108671429Y-87117283D01*
X126644819Y-70251904D02*
X127454342Y-70251904D01*
X127454342Y-70251904D02*
X127549580Y-70204285D01*
X127549580Y-70204285D02*
X127597200Y-70156666D01*
X127597200Y-70156666D02*
X127644819Y-70061428D01*
X127644819Y-70061428D02*
X127644819Y-69870952D01*
X127644819Y-69870952D02*
X127597200Y-69775714D01*
X127597200Y-69775714D02*
X127549580Y-69728095D01*
X127549580Y-69728095D02*
X127454342Y-69680476D01*
X127454342Y-69680476D02*
X126644819Y-69680476D01*
X126978152Y-68775714D02*
X127644819Y-68775714D01*
X126597200Y-69013809D02*
X127311485Y-69251904D01*
X127311485Y-69251904D02*
X127311485Y-68632857D01*
X193588819Y-91098666D02*
X193112628Y-91431999D01*
X193588819Y-91670094D02*
X192588819Y-91670094D01*
X192588819Y-91670094D02*
X192588819Y-91289142D01*
X192588819Y-91289142D02*
X192636438Y-91193904D01*
X192636438Y-91193904D02*
X192684057Y-91146285D01*
X192684057Y-91146285D02*
X192779295Y-91098666D01*
X192779295Y-91098666D02*
X192922152Y-91098666D01*
X192922152Y-91098666D02*
X193017390Y-91146285D01*
X193017390Y-91146285D02*
X193065009Y-91193904D01*
X193065009Y-91193904D02*
X193112628Y-91289142D01*
X193112628Y-91289142D02*
X193112628Y-91670094D01*
X192684057Y-90717713D02*
X192636438Y-90670094D01*
X192636438Y-90670094D02*
X192588819Y-90574856D01*
X192588819Y-90574856D02*
X192588819Y-90336761D01*
X192588819Y-90336761D02*
X192636438Y-90241523D01*
X192636438Y-90241523D02*
X192684057Y-90193904D01*
X192684057Y-90193904D02*
X192779295Y-90146285D01*
X192779295Y-90146285D02*
X192874533Y-90146285D01*
X192874533Y-90146285D02*
X193017390Y-90193904D01*
X193017390Y-90193904D02*
X193588819Y-90765332D01*
X193588819Y-90765332D02*
X193588819Y-90146285D01*
X224859580Y-67166666D02*
X224907200Y-67214285D01*
X224907200Y-67214285D02*
X224954819Y-67357142D01*
X224954819Y-67357142D02*
X224954819Y-67452380D01*
X224954819Y-67452380D02*
X224907200Y-67595237D01*
X224907200Y-67595237D02*
X224811961Y-67690475D01*
X224811961Y-67690475D02*
X224716723Y-67738094D01*
X224716723Y-67738094D02*
X224526247Y-67785713D01*
X224526247Y-67785713D02*
X224383390Y-67785713D01*
X224383390Y-67785713D02*
X224192914Y-67738094D01*
X224192914Y-67738094D02*
X224097676Y-67690475D01*
X224097676Y-67690475D02*
X224002438Y-67595237D01*
X224002438Y-67595237D02*
X223954819Y-67452380D01*
X223954819Y-67452380D02*
X223954819Y-67357142D01*
X223954819Y-67357142D02*
X224002438Y-67214285D01*
X224002438Y-67214285D02*
X224050057Y-67166666D01*
X224050057Y-66785713D02*
X224002438Y-66738094D01*
X224002438Y-66738094D02*
X223954819Y-66642856D01*
X223954819Y-66642856D02*
X223954819Y-66404761D01*
X223954819Y-66404761D02*
X224002438Y-66309523D01*
X224002438Y-66309523D02*
X224050057Y-66261904D01*
X224050057Y-66261904D02*
X224145295Y-66214285D01*
X224145295Y-66214285D02*
X224240533Y-66214285D01*
X224240533Y-66214285D02*
X224383390Y-66261904D01*
X224383390Y-66261904D02*
X224954819Y-66833332D01*
X224954819Y-66833332D02*
X224954819Y-66214285D01*
X197268095Y-94214819D02*
X197268095Y-95024342D01*
X197268095Y-95024342D02*
X197315714Y-95119580D01*
X197315714Y-95119580D02*
X197363333Y-95167200D01*
X197363333Y-95167200D02*
X197458571Y-95214819D01*
X197458571Y-95214819D02*
X197649047Y-95214819D01*
X197649047Y-95214819D02*
X197744285Y-95167200D01*
X197744285Y-95167200D02*
X197791904Y-95119580D01*
X197791904Y-95119580D02*
X197839523Y-95024342D01*
X197839523Y-95024342D02*
X197839523Y-94214819D01*
X198744285Y-94214819D02*
X198553809Y-94214819D01*
X198553809Y-94214819D02*
X198458571Y-94262438D01*
X198458571Y-94262438D02*
X198410952Y-94310057D01*
X198410952Y-94310057D02*
X198315714Y-94452914D01*
X198315714Y-94452914D02*
X198268095Y-94643390D01*
X198268095Y-94643390D02*
X198268095Y-95024342D01*
X198268095Y-95024342D02*
X198315714Y-95119580D01*
X198315714Y-95119580D02*
X198363333Y-95167200D01*
X198363333Y-95167200D02*
X198458571Y-95214819D01*
X198458571Y-95214819D02*
X198649047Y-95214819D01*
X198649047Y-95214819D02*
X198744285Y-95167200D01*
X198744285Y-95167200D02*
X198791904Y-95119580D01*
X198791904Y-95119580D02*
X198839523Y-95024342D01*
X198839523Y-95024342D02*
X198839523Y-94786247D01*
X198839523Y-94786247D02*
X198791904Y-94691009D01*
X198791904Y-94691009D02*
X198744285Y-94643390D01*
X198744285Y-94643390D02*
X198649047Y-94595771D01*
X198649047Y-94595771D02*
X198458571Y-94595771D01*
X198458571Y-94595771D02*
X198363333Y-94643390D01*
X198363333Y-94643390D02*
X198315714Y-94691009D01*
X198315714Y-94691009D02*
X198268095Y-94786247D01*
X111638095Y-77054819D02*
X112209523Y-77054819D01*
X111923809Y-78054819D02*
X111923809Y-77054819D01*
X112542857Y-78054819D02*
X112542857Y-77054819D01*
X112542857Y-77054819D02*
X112923809Y-77054819D01*
X112923809Y-77054819D02*
X113019047Y-77102438D01*
X113019047Y-77102438D02*
X113066666Y-77150057D01*
X113066666Y-77150057D02*
X113114285Y-77245295D01*
X113114285Y-77245295D02*
X113114285Y-77388152D01*
X113114285Y-77388152D02*
X113066666Y-77483390D01*
X113066666Y-77483390D02*
X113019047Y-77531009D01*
X113019047Y-77531009D02*
X112923809Y-77578628D01*
X112923809Y-77578628D02*
X112542857Y-77578628D01*
X113447619Y-77054819D02*
X114066666Y-77054819D01*
X114066666Y-77054819D02*
X113733333Y-77435771D01*
X113733333Y-77435771D02*
X113876190Y-77435771D01*
X113876190Y-77435771D02*
X113971428Y-77483390D01*
X113971428Y-77483390D02*
X114019047Y-77531009D01*
X114019047Y-77531009D02*
X114066666Y-77626247D01*
X114066666Y-77626247D02*
X114066666Y-77864342D01*
X114066666Y-77864342D02*
X114019047Y-77959580D01*
X114019047Y-77959580D02*
X113971428Y-78007200D01*
X113971428Y-78007200D02*
X113876190Y-78054819D01*
X113876190Y-78054819D02*
X113590476Y-78054819D01*
X113590476Y-78054819D02*
X113495238Y-78007200D01*
X113495238Y-78007200D02*
X113447619Y-77959580D01*
X138609580Y-81817857D02*
X138657200Y-81865476D01*
X138657200Y-81865476D02*
X138704819Y-82008333D01*
X138704819Y-82008333D02*
X138704819Y-82103571D01*
X138704819Y-82103571D02*
X138657200Y-82246428D01*
X138657200Y-82246428D02*
X138561961Y-82341666D01*
X138561961Y-82341666D02*
X138466723Y-82389285D01*
X138466723Y-82389285D02*
X138276247Y-82436904D01*
X138276247Y-82436904D02*
X138133390Y-82436904D01*
X138133390Y-82436904D02*
X137942914Y-82389285D01*
X137942914Y-82389285D02*
X137847676Y-82341666D01*
X137847676Y-82341666D02*
X137752438Y-82246428D01*
X137752438Y-82246428D02*
X137704819Y-82103571D01*
X137704819Y-82103571D02*
X137704819Y-82008333D01*
X137704819Y-82008333D02*
X137752438Y-81865476D01*
X137752438Y-81865476D02*
X137800057Y-81817857D01*
X138704819Y-80865476D02*
X138704819Y-81436904D01*
X138704819Y-81151190D02*
X137704819Y-81151190D01*
X137704819Y-81151190D02*
X137847676Y-81246428D01*
X137847676Y-81246428D02*
X137942914Y-81341666D01*
X137942914Y-81341666D02*
X137990533Y-81436904D01*
X138704819Y-79913095D02*
X138704819Y-80484523D01*
X138704819Y-80198809D02*
X137704819Y-80198809D01*
X137704819Y-80198809D02*
X137847676Y-80294047D01*
X137847676Y-80294047D02*
X137942914Y-80389285D01*
X137942914Y-80389285D02*
X137990533Y-80484523D01*
X184139333Y-82904580D02*
X184091714Y-82952200D01*
X184091714Y-82952200D02*
X183948857Y-82999819D01*
X183948857Y-82999819D02*
X183853619Y-82999819D01*
X183853619Y-82999819D02*
X183710762Y-82952200D01*
X183710762Y-82952200D02*
X183615524Y-82856961D01*
X183615524Y-82856961D02*
X183567905Y-82761723D01*
X183567905Y-82761723D02*
X183520286Y-82571247D01*
X183520286Y-82571247D02*
X183520286Y-82428390D01*
X183520286Y-82428390D02*
X183567905Y-82237914D01*
X183567905Y-82237914D02*
X183615524Y-82142676D01*
X183615524Y-82142676D02*
X183710762Y-82047438D01*
X183710762Y-82047438D02*
X183853619Y-81999819D01*
X183853619Y-81999819D02*
X183948857Y-81999819D01*
X183948857Y-81999819D02*
X184091714Y-82047438D01*
X184091714Y-82047438D02*
X184139333Y-82095057D01*
X184615524Y-82999819D02*
X184806000Y-82999819D01*
X184806000Y-82999819D02*
X184901238Y-82952200D01*
X184901238Y-82952200D02*
X184948857Y-82904580D01*
X184948857Y-82904580D02*
X185044095Y-82761723D01*
X185044095Y-82761723D02*
X185091714Y-82571247D01*
X185091714Y-82571247D02*
X185091714Y-82190295D01*
X185091714Y-82190295D02*
X185044095Y-82095057D01*
X185044095Y-82095057D02*
X184996476Y-82047438D01*
X184996476Y-82047438D02*
X184901238Y-81999819D01*
X184901238Y-81999819D02*
X184710762Y-81999819D01*
X184710762Y-81999819D02*
X184615524Y-82047438D01*
X184615524Y-82047438D02*
X184567905Y-82095057D01*
X184567905Y-82095057D02*
X184520286Y-82190295D01*
X184520286Y-82190295D02*
X184520286Y-82428390D01*
X184520286Y-82428390D02*
X184567905Y-82523628D01*
X184567905Y-82523628D02*
X184615524Y-82571247D01*
X184615524Y-82571247D02*
X184710762Y-82618866D01*
X184710762Y-82618866D02*
X184901238Y-82618866D01*
X184901238Y-82618866D02*
X184996476Y-82571247D01*
X184996476Y-82571247D02*
X185044095Y-82523628D01*
X185044095Y-82523628D02*
X185091714Y-82428390D01*
X115611905Y-86831569D02*
X116183333Y-86831569D01*
X115897619Y-87831569D02*
X115897619Y-86831569D01*
X116516667Y-87831569D02*
X116516667Y-86831569D01*
X116516667Y-86831569D02*
X116897619Y-86831569D01*
X116897619Y-86831569D02*
X116992857Y-86879188D01*
X116992857Y-86879188D02*
X117040476Y-86926807D01*
X117040476Y-86926807D02*
X117088095Y-87022045D01*
X117088095Y-87022045D02*
X117088095Y-87164902D01*
X117088095Y-87164902D02*
X117040476Y-87260140D01*
X117040476Y-87260140D02*
X116992857Y-87307759D01*
X116992857Y-87307759D02*
X116897619Y-87355378D01*
X116897619Y-87355378D02*
X116516667Y-87355378D01*
X118040476Y-87831569D02*
X117469048Y-87831569D01*
X117754762Y-87831569D02*
X117754762Y-86831569D01*
X117754762Y-86831569D02*
X117659524Y-86974426D01*
X117659524Y-86974426D02*
X117564286Y-87069664D01*
X117564286Y-87069664D02*
X117469048Y-87117283D01*
X118421429Y-86926807D02*
X118469048Y-86879188D01*
X118469048Y-86879188D02*
X118564286Y-86831569D01*
X118564286Y-86831569D02*
X118802381Y-86831569D01*
X118802381Y-86831569D02*
X118897619Y-86879188D01*
X118897619Y-86879188D02*
X118945238Y-86926807D01*
X118945238Y-86926807D02*
X118992857Y-87022045D01*
X118992857Y-87022045D02*
X118992857Y-87117283D01*
X118992857Y-87117283D02*
X118945238Y-87260140D01*
X118945238Y-87260140D02*
X118373810Y-87831569D01*
X118373810Y-87831569D02*
X118992857Y-87831569D01*
X223109580Y-67166666D02*
X223157200Y-67214285D01*
X223157200Y-67214285D02*
X223204819Y-67357142D01*
X223204819Y-67357142D02*
X223204819Y-67452380D01*
X223204819Y-67452380D02*
X223157200Y-67595237D01*
X223157200Y-67595237D02*
X223061961Y-67690475D01*
X223061961Y-67690475D02*
X222966723Y-67738094D01*
X222966723Y-67738094D02*
X222776247Y-67785713D01*
X222776247Y-67785713D02*
X222633390Y-67785713D01*
X222633390Y-67785713D02*
X222442914Y-67738094D01*
X222442914Y-67738094D02*
X222347676Y-67690475D01*
X222347676Y-67690475D02*
X222252438Y-67595237D01*
X222252438Y-67595237D02*
X222204819Y-67452380D01*
X222204819Y-67452380D02*
X222204819Y-67357142D01*
X222204819Y-67357142D02*
X222252438Y-67214285D01*
X222252438Y-67214285D02*
X222300057Y-67166666D01*
X223204819Y-66214285D02*
X223204819Y-66785713D01*
X223204819Y-66499999D02*
X222204819Y-66499999D01*
X222204819Y-66499999D02*
X222347676Y-66595237D01*
X222347676Y-66595237D02*
X222442914Y-66690475D01*
X222442914Y-66690475D02*
X222490533Y-66785713D01*
X201061905Y-89054819D02*
X201633333Y-89054819D01*
X201347619Y-90054819D02*
X201347619Y-89054819D01*
X201966667Y-90054819D02*
X201966667Y-89054819D01*
X201966667Y-89054819D02*
X202347619Y-89054819D01*
X202347619Y-89054819D02*
X202442857Y-89102438D01*
X202442857Y-89102438D02*
X202490476Y-89150057D01*
X202490476Y-89150057D02*
X202538095Y-89245295D01*
X202538095Y-89245295D02*
X202538095Y-89388152D01*
X202538095Y-89388152D02*
X202490476Y-89483390D01*
X202490476Y-89483390D02*
X202442857Y-89531009D01*
X202442857Y-89531009D02*
X202347619Y-89578628D01*
X202347619Y-89578628D02*
X201966667Y-89578628D01*
X203490476Y-90054819D02*
X202919048Y-90054819D01*
X203204762Y-90054819D02*
X203204762Y-89054819D01*
X203204762Y-89054819D02*
X203109524Y-89197676D01*
X203109524Y-89197676D02*
X203014286Y-89292914D01*
X203014286Y-89292914D02*
X202919048Y-89340533D01*
X204109524Y-89054819D02*
X204204762Y-89054819D01*
X204204762Y-89054819D02*
X204300000Y-89102438D01*
X204300000Y-89102438D02*
X204347619Y-89150057D01*
X204347619Y-89150057D02*
X204395238Y-89245295D01*
X204395238Y-89245295D02*
X204442857Y-89435771D01*
X204442857Y-89435771D02*
X204442857Y-89673866D01*
X204442857Y-89673866D02*
X204395238Y-89864342D01*
X204395238Y-89864342D02*
X204347619Y-89959580D01*
X204347619Y-89959580D02*
X204300000Y-90007200D01*
X204300000Y-90007200D02*
X204204762Y-90054819D01*
X204204762Y-90054819D02*
X204109524Y-90054819D01*
X204109524Y-90054819D02*
X204014286Y-90007200D01*
X204014286Y-90007200D02*
X203966667Y-89959580D01*
X203966667Y-89959580D02*
X203919048Y-89864342D01*
X203919048Y-89864342D02*
X203871429Y-89673866D01*
X203871429Y-89673866D02*
X203871429Y-89435771D01*
X203871429Y-89435771D02*
X203919048Y-89245295D01*
X203919048Y-89245295D02*
X203966667Y-89150057D01*
X203966667Y-89150057D02*
X204014286Y-89102438D01*
X204014286Y-89102438D02*
X204109524Y-89054819D01*
X144461905Y-81280819D02*
X144461905Y-80280819D01*
X144461905Y-80280819D02*
X144700000Y-80280819D01*
X144700000Y-80280819D02*
X144842857Y-80328438D01*
X144842857Y-80328438D02*
X144938095Y-80423676D01*
X144938095Y-80423676D02*
X144985714Y-80518914D01*
X144985714Y-80518914D02*
X145033333Y-80709390D01*
X145033333Y-80709390D02*
X145033333Y-80852247D01*
X145033333Y-80852247D02*
X144985714Y-81042723D01*
X144985714Y-81042723D02*
X144938095Y-81137961D01*
X144938095Y-81137961D02*
X144842857Y-81233200D01*
X144842857Y-81233200D02*
X144700000Y-81280819D01*
X144700000Y-81280819D02*
X144461905Y-81280819D01*
X145985714Y-81280819D02*
X145414286Y-81280819D01*
X145700000Y-81280819D02*
X145700000Y-80280819D01*
X145700000Y-80280819D02*
X145604762Y-80423676D01*
X145604762Y-80423676D02*
X145509524Y-80518914D01*
X145509524Y-80518914D02*
X145414286Y-80566533D01*
X150135714Y-79404819D02*
X149564286Y-79404819D01*
X149850000Y-79404819D02*
X149850000Y-78404819D01*
X149850000Y-78404819D02*
X149754762Y-78547676D01*
X149754762Y-78547676D02*
X149659524Y-78642914D01*
X149659524Y-78642914D02*
X149564286Y-78690533D01*
X193357142Y-85159580D02*
X193309523Y-85207200D01*
X193309523Y-85207200D02*
X193166666Y-85254819D01*
X193166666Y-85254819D02*
X193071428Y-85254819D01*
X193071428Y-85254819D02*
X192928571Y-85207200D01*
X192928571Y-85207200D02*
X192833333Y-85111961D01*
X192833333Y-85111961D02*
X192785714Y-85016723D01*
X192785714Y-85016723D02*
X192738095Y-84826247D01*
X192738095Y-84826247D02*
X192738095Y-84683390D01*
X192738095Y-84683390D02*
X192785714Y-84492914D01*
X192785714Y-84492914D02*
X192833333Y-84397676D01*
X192833333Y-84397676D02*
X192928571Y-84302438D01*
X192928571Y-84302438D02*
X193071428Y-84254819D01*
X193071428Y-84254819D02*
X193166666Y-84254819D01*
X193166666Y-84254819D02*
X193309523Y-84302438D01*
X193309523Y-84302438D02*
X193357142Y-84350057D01*
X194309523Y-85254819D02*
X193738095Y-85254819D01*
X194023809Y-85254819D02*
X194023809Y-84254819D01*
X194023809Y-84254819D02*
X193928571Y-84397676D01*
X193928571Y-84397676D02*
X193833333Y-84492914D01*
X193833333Y-84492914D02*
X193738095Y-84540533D01*
X194690476Y-84350057D02*
X194738095Y-84302438D01*
X194738095Y-84302438D02*
X194833333Y-84254819D01*
X194833333Y-84254819D02*
X195071428Y-84254819D01*
X195071428Y-84254819D02*
X195166666Y-84302438D01*
X195166666Y-84302438D02*
X195214285Y-84350057D01*
X195214285Y-84350057D02*
X195261904Y-84445295D01*
X195261904Y-84445295D02*
X195261904Y-84540533D01*
X195261904Y-84540533D02*
X195214285Y-84683390D01*
X195214285Y-84683390D02*
X194642857Y-85254819D01*
X194642857Y-85254819D02*
X195261904Y-85254819D01*
X190188095Y-87254819D02*
X190759523Y-87254819D01*
X190473809Y-88254819D02*
X190473809Y-87254819D01*
X191092857Y-88254819D02*
X191092857Y-87254819D01*
X191092857Y-87254819D02*
X191473809Y-87254819D01*
X191473809Y-87254819D02*
X191569047Y-87302438D01*
X191569047Y-87302438D02*
X191616666Y-87350057D01*
X191616666Y-87350057D02*
X191664285Y-87445295D01*
X191664285Y-87445295D02*
X191664285Y-87588152D01*
X191664285Y-87588152D02*
X191616666Y-87683390D01*
X191616666Y-87683390D02*
X191569047Y-87731009D01*
X191569047Y-87731009D02*
X191473809Y-87778628D01*
X191473809Y-87778628D02*
X191092857Y-87778628D01*
X192140476Y-88254819D02*
X192330952Y-88254819D01*
X192330952Y-88254819D02*
X192426190Y-88207200D01*
X192426190Y-88207200D02*
X192473809Y-88159580D01*
X192473809Y-88159580D02*
X192569047Y-88016723D01*
X192569047Y-88016723D02*
X192616666Y-87826247D01*
X192616666Y-87826247D02*
X192616666Y-87445295D01*
X192616666Y-87445295D02*
X192569047Y-87350057D01*
X192569047Y-87350057D02*
X192521428Y-87302438D01*
X192521428Y-87302438D02*
X192426190Y-87254819D01*
X192426190Y-87254819D02*
X192235714Y-87254819D01*
X192235714Y-87254819D02*
X192140476Y-87302438D01*
X192140476Y-87302438D02*
X192092857Y-87350057D01*
X192092857Y-87350057D02*
X192045238Y-87445295D01*
X192045238Y-87445295D02*
X192045238Y-87683390D01*
X192045238Y-87683390D02*
X192092857Y-87778628D01*
X192092857Y-87778628D02*
X192140476Y-87826247D01*
X192140476Y-87826247D02*
X192235714Y-87873866D01*
X192235714Y-87873866D02*
X192426190Y-87873866D01*
X192426190Y-87873866D02*
X192521428Y-87826247D01*
X192521428Y-87826247D02*
X192569047Y-87778628D01*
X192569047Y-87778628D02*
X192616666Y-87683390D01*
X198159580Y-79867857D02*
X198207200Y-79915476D01*
X198207200Y-79915476D02*
X198254819Y-80058333D01*
X198254819Y-80058333D02*
X198254819Y-80153571D01*
X198254819Y-80153571D02*
X198207200Y-80296428D01*
X198207200Y-80296428D02*
X198111961Y-80391666D01*
X198111961Y-80391666D02*
X198016723Y-80439285D01*
X198016723Y-80439285D02*
X197826247Y-80486904D01*
X197826247Y-80486904D02*
X197683390Y-80486904D01*
X197683390Y-80486904D02*
X197492914Y-80439285D01*
X197492914Y-80439285D02*
X197397676Y-80391666D01*
X197397676Y-80391666D02*
X197302438Y-80296428D01*
X197302438Y-80296428D02*
X197254819Y-80153571D01*
X197254819Y-80153571D02*
X197254819Y-80058333D01*
X197254819Y-80058333D02*
X197302438Y-79915476D01*
X197302438Y-79915476D02*
X197350057Y-79867857D01*
X198254819Y-78915476D02*
X198254819Y-79486904D01*
X198254819Y-79201190D02*
X197254819Y-79201190D01*
X197254819Y-79201190D02*
X197397676Y-79296428D01*
X197397676Y-79296428D02*
X197492914Y-79391666D01*
X197492914Y-79391666D02*
X197540533Y-79486904D01*
X197254819Y-78582142D02*
X197254819Y-77963095D01*
X197254819Y-77963095D02*
X197635771Y-78296428D01*
X197635771Y-78296428D02*
X197635771Y-78153571D01*
X197635771Y-78153571D02*
X197683390Y-78058333D01*
X197683390Y-78058333D02*
X197731009Y-78010714D01*
X197731009Y-78010714D02*
X197826247Y-77963095D01*
X197826247Y-77963095D02*
X198064342Y-77963095D01*
X198064342Y-77963095D02*
X198159580Y-78010714D01*
X198159580Y-78010714D02*
X198207200Y-78058333D01*
X198207200Y-78058333D02*
X198254819Y-78153571D01*
X198254819Y-78153571D02*
X198254819Y-78439285D01*
X198254819Y-78439285D02*
X198207200Y-78534523D01*
X198207200Y-78534523D02*
X198159580Y-78582142D01*
X111638095Y-73904819D02*
X112209523Y-73904819D01*
X111923809Y-74904819D02*
X111923809Y-73904819D01*
X112542857Y-74904819D02*
X112542857Y-73904819D01*
X112542857Y-73904819D02*
X112923809Y-73904819D01*
X112923809Y-73904819D02*
X113019047Y-73952438D01*
X113019047Y-73952438D02*
X113066666Y-74000057D01*
X113066666Y-74000057D02*
X113114285Y-74095295D01*
X113114285Y-74095295D02*
X113114285Y-74238152D01*
X113114285Y-74238152D02*
X113066666Y-74333390D01*
X113066666Y-74333390D02*
X113019047Y-74381009D01*
X113019047Y-74381009D02*
X112923809Y-74428628D01*
X112923809Y-74428628D02*
X112542857Y-74428628D01*
X113971428Y-74238152D02*
X113971428Y-74904819D01*
X113733333Y-73857200D02*
X113495238Y-74571485D01*
X113495238Y-74571485D02*
X114114285Y-74571485D01*
X196833333Y-76024819D02*
X196500000Y-75548628D01*
X196261905Y-76024819D02*
X196261905Y-75024819D01*
X196261905Y-75024819D02*
X196642857Y-75024819D01*
X196642857Y-75024819D02*
X196738095Y-75072438D01*
X196738095Y-75072438D02*
X196785714Y-75120057D01*
X196785714Y-75120057D02*
X196833333Y-75215295D01*
X196833333Y-75215295D02*
X196833333Y-75358152D01*
X196833333Y-75358152D02*
X196785714Y-75453390D01*
X196785714Y-75453390D02*
X196738095Y-75501009D01*
X196738095Y-75501009D02*
X196642857Y-75548628D01*
X196642857Y-75548628D02*
X196261905Y-75548628D01*
X197166667Y-75024819D02*
X197785714Y-75024819D01*
X197785714Y-75024819D02*
X197452381Y-75405771D01*
X197452381Y-75405771D02*
X197595238Y-75405771D01*
X197595238Y-75405771D02*
X197690476Y-75453390D01*
X197690476Y-75453390D02*
X197738095Y-75501009D01*
X197738095Y-75501009D02*
X197785714Y-75596247D01*
X197785714Y-75596247D02*
X197785714Y-75834342D01*
X197785714Y-75834342D02*
X197738095Y-75929580D01*
X197738095Y-75929580D02*
X197690476Y-75977200D01*
X197690476Y-75977200D02*
X197595238Y-76024819D01*
X197595238Y-76024819D02*
X197309524Y-76024819D01*
X197309524Y-76024819D02*
X197214286Y-75977200D01*
X197214286Y-75977200D02*
X197166667Y-75929580D01*
X130638095Y-85754819D02*
X130638095Y-86564342D01*
X130638095Y-86564342D02*
X130685714Y-86659580D01*
X130685714Y-86659580D02*
X130733333Y-86707200D01*
X130733333Y-86707200D02*
X130828571Y-86754819D01*
X130828571Y-86754819D02*
X131019047Y-86754819D01*
X131019047Y-86754819D02*
X131114285Y-86707200D01*
X131114285Y-86707200D02*
X131161904Y-86659580D01*
X131161904Y-86659580D02*
X131209523Y-86564342D01*
X131209523Y-86564342D02*
X131209523Y-85754819D01*
X131590476Y-85754819D02*
X132257142Y-85754819D01*
X132257142Y-85754819D02*
X131828571Y-86754819D01*
D11*
X208263960Y-81669500D02*
X207771200Y-81669500D01*
X210936040Y-87130500D02*
X211428800Y-87130500D01*
X207771200Y-87130500D02*
X208263960Y-87130500D01*
X207771200Y-81669500D02*
X207771200Y-87130500D01*
X211428800Y-81669500D02*
X210936040Y-81669500D01*
X211428800Y-87130500D02*
X211428800Y-81669500D01*
D12*
X210459420Y-88910000D02*
X210740580Y-88910000D01*
X210459420Y-87890000D02*
X210740580Y-87890000D01*
X210459420Y-80910000D02*
X210740580Y-80910000D01*
X210459420Y-79890000D02*
X210740580Y-79890000D01*
X131740580Y-94690000D02*
X131459420Y-94690000D01*
X131740580Y-95710000D02*
X131459420Y-95710000D01*
X126310000Y-90965580D02*
X126310000Y-90684420D01*
X125290000Y-90965580D02*
X125290000Y-90684420D01*
X102810000Y-67595600D02*
X104140000Y-67595600D01*
X102810000Y-68925600D02*
X102810000Y-67595600D01*
X102810000Y-70195600D02*
X102810000Y-85495600D01*
X102810000Y-70195600D02*
X105470000Y-70195600D01*
X102810000Y-85495600D02*
X105470000Y-85495600D01*
X105470000Y-70195600D02*
X105470000Y-85495600D01*
X186000000Y-80100000D02*
X178700000Y-80100000D01*
X186000000Y-74600000D02*
X178700000Y-74600000D01*
X178700000Y-74600000D02*
X178700000Y-75750000D01*
X165965420Y-80535000D02*
X166246580Y-80535000D01*
X165965420Y-81555000D02*
X166246580Y-81555000D01*
X116600000Y-80400000D02*
G75*
G03*
X116600000Y-80400000I-700000J0D01*
G01*
X156890420Y-80535000D02*
X157171580Y-80535000D01*
X156890420Y-81555000D02*
X157171580Y-81555000D01*
X167675000Y-80100000D02*
X160375000Y-80100000D01*
X167675000Y-74600000D02*
X160375000Y-74600000D01*
X160375000Y-74600000D02*
X160375000Y-75750000D01*
X136190000Y-78240580D02*
X136190000Y-77959420D01*
X137210000Y-78240580D02*
X137210000Y-77959420D01*
X147790420Y-80485000D02*
X148071580Y-80485000D01*
X147790420Y-81505000D02*
X148071580Y-81505000D01*
X158512500Y-80100000D02*
X151212500Y-80100000D01*
X158512500Y-74600000D02*
X151212500Y-74600000D01*
X151212500Y-74600000D02*
X151212500Y-75750000D01*
X175065420Y-80535000D02*
X175346580Y-80535000D01*
X175065420Y-81555000D02*
X175346580Y-81555000D01*
X189000000Y-75700000D02*
G75*
G03*
X189000000Y-75700000I-700000J0D01*
G01*
X194041500Y-94217258D02*
X194041500Y-93742742D01*
X195086500Y-94217258D02*
X195086500Y-93742742D01*
X176837500Y-80100000D02*
X169537500Y-80100000D01*
X176837500Y-74600000D02*
X169537500Y-74600000D01*
X169537500Y-74600000D02*
X169537500Y-75750000D01*
X200140000Y-81862500D02*
X200140000Y-85462500D01*
X200140000Y-81862500D02*
X200140000Y-79662500D01*
X206910000Y-81862500D02*
X206910000Y-84062500D01*
X206910000Y-81862500D02*
X206910000Y-79662500D01*
X107890000Y-83340580D02*
X107890000Y-83059420D01*
X108910000Y-83340580D02*
X108910000Y-83059420D01*
X106290000Y-83340580D02*
X106290000Y-83059420D01*
X107310000Y-83340580D02*
X107310000Y-83059420D01*
X228580000Y-85030000D02*
X227250000Y-85030000D01*
X228580000Y-83700000D02*
X228580000Y-85030000D01*
X228580000Y-82430000D02*
X228580000Y-67130000D01*
X228580000Y-82430000D02*
X225920000Y-82430000D01*
X228580000Y-67130000D02*
X225920000Y-67130000D01*
X225920000Y-82430000D02*
X225920000Y-67130000D01*
X111900000Y-87376750D02*
G75*
G03*
X111900000Y-87376750I-700000J0D01*
G01*
D10*
X134590000Y-57690000D02*
X134590000Y-81690000D01*
X119590000Y-57690000D02*
X134590000Y-57690000D01*
X119590000Y-64690000D02*
X134590000Y-64690000D01*
X119590000Y-81690000D02*
X119590000Y-57690000D01*
X119590000Y-81690000D02*
X134590000Y-81690000D01*
D12*
X195086500Y-91169258D02*
X195086500Y-90694742D01*
X194041500Y-91169258D02*
X194041500Y-90694742D01*
X224985000Y-69359420D02*
X224985000Y-69640580D01*
X223965000Y-69359420D02*
X223965000Y-69640580D01*
X195640000Y-90200000D02*
X195640000Y-92150000D01*
X195640000Y-90200000D02*
X195640000Y-88250000D01*
X200760000Y-90200000D02*
X200760000Y-92150000D01*
X200760000Y-90200000D02*
X200760000Y-86750000D01*
X116600000Y-77350000D02*
G75*
G03*
X116600000Y-77350000I-700000J0D01*
G01*
X137740000Y-78240580D02*
X137740000Y-77959420D01*
X138760000Y-78240580D02*
X138760000Y-77959420D01*
X184165420Y-80535000D02*
X184446580Y-80535000D01*
X184165420Y-81555000D02*
X184446580Y-81555000D01*
X114300000Y-87376750D02*
G75*
G03*
X114300000Y-87376750I-700000J0D01*
G01*
X223360000Y-69334420D02*
X223360000Y-69615580D01*
X222340000Y-69334420D02*
X222340000Y-69615580D01*
X203100000Y-87800000D02*
G75*
G03*
X203100000Y-87800000I-700000J0D01*
G01*
X149350000Y-80100000D02*
X142050000Y-80100000D01*
X149350000Y-74600000D02*
X142050000Y-74600000D01*
X142050000Y-74600000D02*
X142050000Y-75750000D01*
X198059420Y-85090000D02*
X198340580Y-85090000D01*
X198059420Y-86110000D02*
X198340580Y-86110000D01*
X194700000Y-87800000D02*
G75*
G03*
X194700000Y-87800000I-700000J0D01*
G01*
X199710000Y-79259420D02*
X199710000Y-79540580D01*
X198690000Y-79259420D02*
X198690000Y-79540580D01*
X116600000Y-74300000D02*
G75*
G03*
X116600000Y-74300000I-700000J0D01*
G01*
X196762742Y-76477500D02*
X197237258Y-76477500D01*
X196762742Y-77522500D02*
X197237258Y-77522500D01*
X127300000Y-87390000D02*
X133310000Y-87390000D01*
X129550000Y-94210000D02*
X133310000Y-94210000D01*
X133310000Y-94210000D02*
X133310000Y-92950000D01*
X133310000Y-87390000D02*
X133310000Y-88650000D01*
%LPC*%
D13*
X209600000Y-82609300D03*
X209600000Y-86190700D03*
D14*
X209825000Y-88400000D03*
X211375000Y-88400000D03*
X209825000Y-80400000D03*
X211375000Y-80400000D03*
D15*
X132375000Y-95200000D03*
X130825000Y-95200000D03*
D16*
X125800000Y-91600000D03*
X125800000Y-90050000D03*
D17*
X104140000Y-68925600D03*
D18*
X104140000Y-71465600D03*
X104140000Y-74005600D03*
X104140000Y-76545600D03*
X104140000Y-79085600D03*
X104140000Y-81625600D03*
X104140000Y-84165600D03*
D19*
X184800000Y-79000000D03*
X184800000Y-75700000D03*
X179900000Y-75700000D03*
X179900000Y-79000000D03*
D14*
X165331000Y-81045000D03*
X166881000Y-81045000D03*
D20*
X115900000Y-80400000D03*
D14*
X156256000Y-81045000D03*
X157806000Y-81045000D03*
D19*
X166475000Y-79000000D03*
X166475000Y-75700000D03*
X161575000Y-75700000D03*
X161575000Y-79000000D03*
D16*
X136700000Y-78875000D03*
X136700000Y-77325000D03*
D14*
X147156000Y-80995000D03*
X148706000Y-80995000D03*
D19*
X157312500Y-79000000D03*
X157312500Y-75700000D03*
X152412500Y-75700000D03*
X152412500Y-79000000D03*
D14*
X174431000Y-81045000D03*
X175981000Y-81045000D03*
D20*
X188300000Y-75700000D03*
D21*
X194564000Y-94805000D03*
X194564000Y-93155000D03*
D19*
X175637500Y-79000000D03*
X175637500Y-75700000D03*
X170737500Y-75700000D03*
X170737500Y-79000000D03*
D22*
X200600000Y-84725000D03*
X201250000Y-84725000D03*
X201900000Y-84725000D03*
X202550000Y-84725000D03*
X203200000Y-84725000D03*
X203850000Y-84725000D03*
X204500000Y-84725000D03*
X205150000Y-84725000D03*
X205800000Y-84725000D03*
X206450000Y-84725000D03*
X206450000Y-79000000D03*
X205800000Y-79000000D03*
X205150000Y-79000000D03*
X204500000Y-79000000D03*
X203850000Y-79000000D03*
X203200000Y-79000000D03*
X202550000Y-79000000D03*
X201900000Y-79000000D03*
X201250000Y-79000000D03*
X200600000Y-79000000D03*
D16*
X108400000Y-83975000D03*
X108400000Y-82425000D03*
X106800000Y-83975000D03*
X106800000Y-82425000D03*
D17*
X227250000Y-83700000D03*
D18*
X227250000Y-81160000D03*
X227250000Y-78620000D03*
X227250000Y-76080000D03*
X227250000Y-73540000D03*
X227250000Y-71000000D03*
X227250000Y-68460000D03*
D20*
X111200000Y-87376750D03*
D23*
X119590000Y-78800000D03*
X119590000Y-77530000D03*
X119590000Y-76260000D03*
X119590000Y-74990000D03*
X119590000Y-73720000D03*
X119590000Y-72450000D03*
X119590000Y-71180000D03*
X134690000Y-71120000D03*
X134690000Y-72390000D03*
X134690000Y-73660000D03*
X134690000Y-74930000D03*
X134690000Y-76200000D03*
X134690000Y-77530000D03*
X134690000Y-78800000D03*
D21*
X194564000Y-90107000D03*
X194564000Y-91757000D03*
D24*
X224475000Y-68725000D03*
X224475000Y-70275000D03*
D25*
X200105000Y-92675000D03*
X198835000Y-92675000D03*
X197565000Y-92675000D03*
X196295000Y-92675000D03*
X196295000Y-87725000D03*
X197565000Y-87725000D03*
X198835000Y-87725000D03*
X200105000Y-87725000D03*
D20*
X115900000Y-77350000D03*
D16*
X138250000Y-78875000D03*
X138250000Y-77325000D03*
D14*
X183531000Y-81045000D03*
X185081000Y-81045000D03*
D20*
X113600000Y-87376750D03*
D24*
X222850000Y-68700000D03*
X222850000Y-70250000D03*
D20*
X202400000Y-87800000D03*
D19*
X148150000Y-79000000D03*
X148150000Y-75700000D03*
X143250000Y-75700000D03*
X143250000Y-79000000D03*
D14*
X197425000Y-85600000D03*
X198975000Y-85600000D03*
D20*
X194000000Y-87800000D03*
D24*
X199200000Y-78625000D03*
X199200000Y-80175000D03*
D20*
X115900000Y-74300000D03*
D26*
X196175000Y-77000000D03*
X197825000Y-77000000D03*
D17*
X206248000Y-59000000D03*
D18*
X206248000Y-61540000D03*
X203708000Y-59000000D03*
X203708000Y-61540000D03*
X201168000Y-59000000D03*
X201168000Y-61540000D03*
X198628000Y-59000000D03*
X198628000Y-61540000D03*
X196088000Y-59000000D03*
X196088000Y-61540000D03*
X193548000Y-59000000D03*
X193548000Y-61540000D03*
X191008000Y-59000000D03*
X191008000Y-61540000D03*
X188468000Y-59000000D03*
X188468000Y-61540000D03*
X185928000Y-59000000D03*
X185928000Y-61540000D03*
X183388000Y-59000000D03*
X183388000Y-61540000D03*
X180848000Y-59000000D03*
X180848000Y-61540000D03*
X178308000Y-59000000D03*
X178308000Y-61540000D03*
X175768000Y-59000000D03*
X175768000Y-61540000D03*
X173228000Y-59000000D03*
X173228000Y-61540000D03*
X170688000Y-59000000D03*
X170688000Y-61540000D03*
X168148000Y-59000000D03*
X168148000Y-61540000D03*
X165608000Y-59000000D03*
X165608000Y-61540000D03*
X163068000Y-59000000D03*
X163068000Y-61540000D03*
X160528000Y-59000000D03*
X160528000Y-61540000D03*
X157988000Y-59000000D03*
X157988000Y-61540000D03*
D27*
X128250000Y-88500000D03*
X128250000Y-90800000D03*
D28*
X134550000Y-90800000D03*
D27*
X128250000Y-93100000D03*
D29*
X120350000Y-93400000D03*
D30*
X118750000Y-91400000D03*
D31*
X116250000Y-91400000D03*
X113750000Y-91400000D03*
X111250000Y-91400000D03*
%LPD*%
M02*
