G04 #@! TF.GenerationSoftware,KiCad,Pcbnew,7.0.6*
G04 #@! TF.CreationDate,2024-01-26T23:20:00-08:00*
G04 #@! TF.ProjectId,POWER_BOARD,504f5745-525f-4424-9f41-52442e6b6963,rev?*
G04 #@! TF.SameCoordinates,Original*
G04 #@! TF.FileFunction,Soldermask,Top*
G04 #@! TF.FilePolarity,Negative*
%FSLAX46Y46*%
G04 Gerber Fmt 4.6, Leading zero omitted, Abs format (unit mm)*
G04 Created by KiCad (PCBNEW 7.0.6) date 2024-01-26 23:20:00*
%MOMM*%
%LPD*%
G01*
G04 APERTURE LIST*
G04 Aperture macros list*
%AMRoundRect*
0 Rectangle with rounded corners*
0 $1 Rounding radius*
0 $2 $3 $4 $5 $6 $7 $8 $9 X,Y pos of 4 corners*
0 Add a 4 corners polygon primitive as box body*
4,1,4,$2,$3,$4,$5,$6,$7,$8,$9,$2,$3,0*
0 Add four circle primitives for the rounded corners*
1,1,$1+$1,$2,$3*
1,1,$1+$1,$4,$5*
1,1,$1+$1,$6,$7*
1,1,$1+$1,$8,$9*
0 Add four rect primitives between the rounded corners*
20,1,$1+$1,$2,$3,$4,$5,0*
20,1,$1+$1,$4,$5,$6,$7,0*
20,1,$1+$1,$6,$7,$8,$9,0*
20,1,$1+$1,$8,$9,$2,$3,0*%
G04 Aperture macros list end*
%ADD10RoundRect,0.301600X-0.200000X-0.275000X0.200000X-0.275000X0.200000X0.275000X-0.200000X0.275000X0*%
%ADD11RoundRect,0.326600X0.225000X0.250000X-0.225000X0.250000X-0.225000X-0.250000X0.225000X-0.250000X0*%
%ADD12RoundRect,0.351600X0.262500X0.450000X-0.262500X0.450000X-0.262500X-0.450000X0.262500X-0.450000X0*%
%ADD13RoundRect,0.351600X1.400000X1.000000X-1.400000X1.000000X-1.400000X-1.000000X1.400000X-1.000000X0*%
%ADD14RoundRect,0.218750X-0.256250X0.218750X-0.256250X-0.218750X0.256250X-0.218750X0.256250X0.218750X0*%
%ADD15RoundRect,0.301600X0.200000X0.275000X-0.200000X0.275000X-0.200000X-0.275000X0.200000X-0.275000X0*%
%ADD16RoundRect,0.351600X-1.400000X-1.000000X1.400000X-1.000000X1.400000X1.000000X-1.400000X1.000000X0*%
%ADD17RoundRect,0.326600X-0.225000X-0.250000X0.225000X-0.250000X0.225000X0.250000X-0.225000X0.250000X0*%
%ADD18RoundRect,0.101600X-2.000000X-2.750000X2.000000X-2.750000X2.000000X2.750000X-2.000000X2.750000X0*%
%ADD19C,5.500000*%
%ADD20RoundRect,0.251600X-0.825000X-0.150000X0.825000X-0.150000X0.825000X0.150000X-0.825000X0.150000X0*%
%ADD21RoundRect,0.326600X0.250000X-0.225000X0.250000X0.225000X-0.250000X0.225000X-0.250000X-0.225000X0*%
%ADD22RoundRect,0.076200X0.088900X0.406400X-0.088900X0.406400X-0.088900X-0.406400X0.088900X-0.406400X0*%
%ADD23RoundRect,0.076200X0.406400X-0.088900X0.406400X0.088900X-0.406400X0.088900X-0.406400X-0.088900X0*%
%ADD24C,0.852400*%
%ADD25RoundRect,0.076200X1.600200X-1.600200X1.600200X1.600200X-1.600200X1.600200X-1.600200X-1.600200X0*%
%ADD26R,1.000000X1.000000*%
%ADD27RoundRect,0.351600X1.100000X-0.325000X1.100000X0.325000X-1.100000X0.325000X-1.100000X-0.325000X0*%
%ADD28RoundRect,0.351600X0.250000X0.475000X-0.250000X0.475000X-0.250000X-0.475000X0.250000X-0.475000X0*%
%ADD29RoundRect,0.144000X0.258000X-0.573000X0.258000X0.573000X-0.258000X0.573000X-0.258000X-0.573000X0*%
%ADD30RoundRect,0.351600X-0.325000X-0.650000X0.325000X-0.650000X0.325000X0.650000X-0.325000X0.650000X0*%
%ADD31RoundRect,0.101600X0.850000X-0.850000X0.850000X0.850000X-0.850000X0.850000X-0.850000X-0.850000X0*%
%ADD32O,1.903200X1.903200*%
%ADD33RoundRect,0.102000X0.850000X0.300000X-0.850000X0.300000X-0.850000X-0.300000X0.850000X-0.300000X0*%
%ADD34RoundRect,0.102000X-1.400000X-0.500000X1.400000X-0.500000X1.400000X0.500000X-1.400000X0.500000X0*%
%ADD35R,1.500000X2.000000*%
%ADD36R,3.800000X2.000000*%
%ADD37RoundRect,0.301600X-0.275000X0.200000X-0.275000X-0.200000X0.275000X-0.200000X0.275000X0.200000X0*%
%ADD38R,2.000000X2.000000*%
%ADD39RoundRect,0.102000X-0.950000X-1.200000X0.950000X-1.200000X0.950000X1.200000X-0.950000X1.200000X0*%
%ADD40RoundRect,0.301600X0.275000X-0.200000X0.275000X0.200000X-0.275000X0.200000X-0.275000X-0.200000X0*%
%ADD41RoundRect,0.351600X-0.250000X-0.250000X0.250000X-0.250000X0.250000X0.250000X-0.250000X0.250000X0*%
%ADD42RoundRect,0.101600X1.500000X2.250000X-1.500000X2.250000X-1.500000X-2.250000X1.500000X-2.250000X0*%
%ADD43O,3.203200X4.703200*%
%ADD44RoundRect,0.102000X-0.754000X-0.754000X0.754000X-0.754000X0.754000X0.754000X-0.754000X0.754000X0*%
%ADD45C,1.712000*%
%ADD46RoundRect,0.345350X-0.456250X0.243750X-0.456250X-0.243750X0.456250X-0.243750X0.456250X0.243750X0*%
%ADD47RoundRect,0.351600X0.250000X-0.250000X0.250000X0.250000X-0.250000X0.250000X-0.250000X-0.250000X0*%
%ADD48RoundRect,0.351600X-0.625000X0.375000X-0.625000X-0.375000X0.625000X-0.375000X0.625000X0.375000X0*%
%ADD49RoundRect,0.326600X-0.250000X0.225000X-0.250000X-0.225000X0.250000X-0.225000X0.250000X0.225000X0*%
%ADD50RoundRect,0.101600X0.495300X-0.774700X0.495300X0.774700X-0.495300X0.774700X-0.495300X-0.774700X0*%
%ADD51RoundRect,0.351600X-0.250000X-0.475000X0.250000X-0.475000X0.250000X0.475000X-0.250000X0.475000X0*%
%ADD52RoundRect,0.351600X0.900000X-1.000000X0.900000X1.000000X-0.900000X1.000000X-0.900000X-1.000000X0*%
%ADD53RoundRect,0.351600X-0.312500X-0.625000X0.312500X-0.625000X0.312500X0.625000X-0.312500X0.625000X0*%
%ADD54RoundRect,0.102000X0.950000X1.200000X-0.950000X1.200000X-0.950000X-1.200000X0.950000X-1.200000X0*%
%ADD55RoundRect,0.101600X-1.244600X0.469900X-1.244600X-0.469900X1.244600X-0.469900X1.244600X0.469900X0*%
%ADD56RoundRect,0.101600X-3.467100X3.390900X-3.467100X-3.390900X3.467100X-3.390900X3.467100X3.390900X0*%
%ADD57RoundRect,0.101600X-0.495300X0.774700X-0.495300X-0.774700X0.495300X-0.774700X0.495300X0.774700X0*%
%ADD58RoundRect,0.351600X-0.475000X0.250000X-0.475000X-0.250000X0.475000X-0.250000X0.475000X0.250000X0*%
%ADD59RoundRect,0.351600X-0.375000X-0.625000X0.375000X-0.625000X0.375000X0.625000X-0.375000X0.625000X0*%
%ADD60RoundRect,0.345350X-0.243750X-0.456250X0.243750X-0.456250X0.243750X0.456250X-0.243750X0.456250X0*%
%ADD61RoundRect,0.351600X0.650000X-0.325000X0.650000X0.325000X-0.650000X0.325000X-0.650000X-0.325000X0*%
%ADD62RoundRect,0.201600X0.637500X0.100000X-0.637500X0.100000X-0.637500X-0.100000X0.637500X-0.100000X0*%
%ADD63RoundRect,0.200000X1.371600X0.600000X-1.371600X0.600000X-1.371600X-0.600000X1.371600X-0.600000X0*%
%ADD64RoundRect,0.251600X0.150000X-0.825000X0.150000X0.825000X-0.150000X0.825000X-0.150000X-0.825000X0*%
%ADD65RoundRect,0.076200X-0.700000X-0.150000X0.700000X-0.150000X0.700000X0.150000X-0.700000X0.150000X0*%
%ADD66RoundRect,0.102000X2.075000X0.950000X-2.075000X0.950000X-2.075000X-0.950000X2.075000X-0.950000X0*%
%ADD67C,0.710000*%
%ADD68RoundRect,0.102000X0.150000X0.575000X-0.150000X0.575000X-0.150000X-0.575000X0.150000X-0.575000X0*%
%ADD69RoundRect,0.076200X0.150000X0.575000X-0.150000X0.575000X-0.150000X-0.575000X0.150000X-0.575000X0*%
%ADD70O,1.804000X1.304000*%
%ADD71RoundRect,0.101600X1.000000X1.000000X-1.000000X1.000000X-1.000000X-1.000000X1.000000X-1.000000X0*%
%ADD72O,2.203200X2.203200*%
G04 APERTURE END LIST*
D10*
X92647000Y-66548000D03*
X94297000Y-66548000D03*
D11*
X75799293Y-60409418D03*
X74249293Y-60409418D03*
D10*
X71278293Y-33304294D03*
X72928293Y-33304294D03*
D12*
X98806000Y-74930000D03*
X96981000Y-74930000D03*
D13*
X67564000Y-76552000D03*
X67564000Y-69752000D03*
D10*
X86563200Y-46278800D03*
X88213200Y-46278800D03*
D14*
X122250200Y-35432900D03*
X122250200Y-37007900D03*
D15*
X72039293Y-49233418D03*
X70389293Y-49233418D03*
D16*
X67564000Y-80166000D03*
X67564000Y-86966000D03*
D11*
X76071829Y-49035145D03*
X74521829Y-49035145D03*
D17*
X88900000Y-72644000D03*
X90450000Y-72644000D03*
D18*
X171525975Y-65740018D03*
X161025975Y-65740018D03*
D10*
X65182293Y-49106418D03*
X66832293Y-49106418D03*
D19*
X147922293Y-85301418D03*
D20*
X109474000Y-42926000D03*
X109474000Y-44196000D03*
X109474000Y-45466000D03*
X109474000Y-46736000D03*
X114424000Y-46736000D03*
X114424000Y-45466000D03*
X114424000Y-44196000D03*
X114424000Y-42926000D03*
D21*
X107155293Y-45690418D03*
X107155293Y-44140418D03*
D22*
X79425293Y-55923018D03*
X79825292Y-55923018D03*
X80225294Y-55923018D03*
X80625293Y-55923018D03*
X81025292Y-55923018D03*
X81425294Y-55923018D03*
X81825293Y-55923018D03*
X82225293Y-55923018D03*
X82625292Y-55923018D03*
X83025294Y-55923018D03*
X83425293Y-55923018D03*
X83825292Y-55923018D03*
X84225294Y-55923018D03*
X84625293Y-55923018D03*
D23*
X85428893Y-55119418D03*
X85428893Y-54719419D03*
X85428893Y-54319417D03*
X85428893Y-53919418D03*
X85428893Y-53519419D03*
X85428893Y-53119417D03*
X85428893Y-52719418D03*
X85428893Y-52319418D03*
X85428893Y-51919419D03*
X85428893Y-51519417D03*
X85428893Y-51119418D03*
X85428893Y-50719419D03*
X85428893Y-50319417D03*
X85428893Y-49919418D03*
D22*
X84625293Y-49115818D03*
X84225294Y-49115818D03*
X83825292Y-49115818D03*
X83425293Y-49115818D03*
X83025294Y-49115818D03*
X82625292Y-49115818D03*
X82225293Y-49115818D03*
X81825293Y-49115818D03*
X81425294Y-49115818D03*
X81025292Y-49115818D03*
X80625293Y-49115818D03*
X80225294Y-49115818D03*
X79825292Y-49115818D03*
X79425293Y-49115818D03*
D23*
X78621693Y-49919418D03*
X78621693Y-50319417D03*
X78621693Y-50719419D03*
X78621693Y-51119418D03*
X78621693Y-51519417D03*
X78621693Y-51919419D03*
X78621693Y-52319418D03*
X78621693Y-52719418D03*
X78621693Y-53119417D03*
X78621693Y-53519419D03*
X78621693Y-53919418D03*
X78621693Y-54319417D03*
X78621693Y-54719419D03*
X78621693Y-55119418D03*
D24*
X81025293Y-53519418D03*
X83025293Y-53519418D03*
X82025293Y-52519418D03*
D25*
X82025293Y-52519418D03*
D24*
X81025293Y-51519418D03*
X83025293Y-51519418D03*
D26*
X84582000Y-71297800D03*
D19*
X60292293Y-50757418D03*
D26*
X102964293Y-53932418D03*
D27*
X136906000Y-95836000D03*
X136906000Y-92886000D03*
D28*
X78654424Y-74860207D03*
X76754424Y-74860207D03*
D21*
X65024000Y-54750000D03*
X65024000Y-53200000D03*
D29*
X65311293Y-47371152D03*
X67211293Y-47371152D03*
X66261293Y-45251152D03*
D30*
X118716000Y-58902600D03*
X121666000Y-58902600D03*
D31*
X80098197Y-37383780D03*
D32*
X80098197Y-34843780D03*
X82638197Y-37383780D03*
X82638197Y-34843780D03*
X85178197Y-37383780D03*
X85178197Y-34843780D03*
X87718197Y-37383780D03*
X87718197Y-34843780D03*
X90258197Y-37383780D03*
X90258197Y-34843780D03*
X92798197Y-37383780D03*
X92798197Y-34843780D03*
X95338197Y-37383780D03*
X95338197Y-34843780D03*
X97878197Y-37383780D03*
X97878197Y-34843780D03*
X100418197Y-37383780D03*
X100418197Y-34843780D03*
X102958197Y-37383780D03*
X102958197Y-34843780D03*
D33*
X139728200Y-35454200D03*
X139728200Y-36704200D03*
X139728200Y-37954200D03*
X139728200Y-39204200D03*
D34*
X143078200Y-41054200D03*
X143078200Y-33604200D03*
D35*
X125792200Y-50901600D03*
X128092200Y-50901600D03*
D36*
X128092200Y-44601600D03*
D35*
X130392200Y-50901600D03*
D37*
X70452293Y-41677418D03*
X70452293Y-43327418D03*
D18*
X36862293Y-65740018D03*
X47362293Y-65740018D03*
D19*
X60292293Y-85301418D03*
D26*
X100805293Y-53932418D03*
X120142000Y-46990000D03*
D19*
X147922293Y-45931418D03*
D38*
X147497800Y-70612000D03*
D17*
X89362293Y-53805418D03*
X90912293Y-53805418D03*
D10*
X88880000Y-70684000D03*
X90530000Y-70684000D03*
D26*
X101567293Y-40343418D03*
D39*
X97696931Y-43533285D03*
X101796931Y-43533285D03*
D26*
X102329293Y-55964418D03*
X117043200Y-43027600D03*
D40*
X96951800Y-58254400D03*
X96951800Y-56604400D03*
D41*
X63647000Y-39878000D03*
X66147000Y-39878000D03*
D26*
X74218800Y-65379600D03*
D42*
X104267000Y-78870315D03*
D43*
X98817000Y-78870315D03*
X93367000Y-78870315D03*
D44*
X135396600Y-53746400D03*
D45*
X137896600Y-53746400D03*
X140396600Y-53746400D03*
D37*
X120523000Y-35370000D03*
X120523000Y-37020000D03*
D26*
X120142000Y-42672000D03*
D10*
X111982293Y-48344418D03*
X113632293Y-48344418D03*
D46*
X132029200Y-35816300D03*
X132029200Y-37691300D03*
D21*
X77691293Y-47087418D03*
X77691293Y-45537418D03*
D47*
X57404000Y-40874000D03*
X57404000Y-38374000D03*
D10*
X130714293Y-61933418D03*
X132364293Y-61933418D03*
D38*
X125069600Y-41681400D03*
D40*
X150622000Y-76263000D03*
X150622000Y-74613000D03*
D48*
X147447000Y-78353000D03*
X147447000Y-81153000D03*
D40*
X95060340Y-53560687D03*
X95060340Y-51910687D03*
D17*
X89362293Y-52027418D03*
X90912293Y-52027418D03*
D49*
X95719848Y-43063224D03*
X95719848Y-44613224D03*
D50*
X105740401Y-38896201D03*
X105740401Y-33646199D03*
X108940399Y-38896201D03*
X108940399Y-33646199D03*
D46*
X126955990Y-35765500D03*
X126955990Y-37640500D03*
D51*
X117680000Y-67818000D03*
X119580000Y-67818000D03*
D26*
X102583293Y-60536418D03*
D40*
X150622000Y-69659000D03*
X150622000Y-68009000D03*
D52*
X75913293Y-38556418D03*
X75913293Y-34256418D03*
X109601000Y-95418800D03*
X109601000Y-91118800D03*
D37*
X65499292Y-41677418D03*
X65499292Y-43327418D03*
D15*
X69989200Y-52374800D03*
X68339200Y-52374800D03*
X67108567Y-33324657D03*
X65458567Y-33324657D03*
D53*
X121847193Y-68072000D03*
X124772193Y-68072000D03*
D40*
X160528000Y-73456418D03*
X160528000Y-71806418D03*
D38*
X86614000Y-42672000D03*
D40*
X58115200Y-46113500D03*
X58115200Y-44463500D03*
D11*
X75291293Y-52281418D03*
X73741293Y-52281418D03*
D26*
X99535293Y-60536418D03*
D19*
X60292293Y-67801418D03*
D54*
X91865944Y-59215017D03*
X87765944Y-59215017D03*
D55*
X131445000Y-64332749D03*
D56*
X137858500Y-66622750D03*
D55*
X131445000Y-68912751D03*
D26*
X94615000Y-69596000D03*
D41*
X59583000Y-39878000D03*
X62083000Y-39878000D03*
D19*
X147922293Y-35517418D03*
D57*
X114248999Y-33646199D03*
X114248999Y-38896201D03*
X111049001Y-33646199D03*
X111049001Y-38896201D03*
D38*
X73373293Y-62695418D03*
D58*
X130378200Y-54803000D03*
X130378200Y-56703000D03*
D21*
X96022293Y-66566418D03*
X96022293Y-65016418D03*
D10*
X122644400Y-62280800D03*
X124294400Y-62280800D03*
D49*
X103901206Y-43046861D03*
X103901206Y-44596861D03*
D59*
X154225800Y-72059800D03*
D60*
X154700800Y-72059800D03*
X156550800Y-72059800D03*
D59*
X157025800Y-72059800D03*
D17*
X86982000Y-68961000D03*
X88532000Y-68961000D03*
D49*
X82771293Y-60142418D03*
X82771293Y-61692418D03*
D61*
X115951000Y-56847000D03*
X115951000Y-53897000D03*
D17*
X86997293Y-67437000D03*
X88547293Y-67437000D03*
D20*
X79574335Y-64866418D03*
X79574335Y-66136418D03*
X79574335Y-67406418D03*
X79574335Y-68676418D03*
X84524335Y-68676418D03*
X84524335Y-67406418D03*
X84524335Y-66136418D03*
X84524335Y-64866418D03*
D14*
X63500000Y-44424500D03*
X63500000Y-45999500D03*
D10*
X130714293Y-60409418D03*
X132364293Y-60409418D03*
D15*
X91884000Y-56388000D03*
X90234000Y-56388000D03*
D19*
X147922293Y-63500000D03*
D62*
X102908091Y-52224313D03*
X102908091Y-51574313D03*
X102908091Y-50924313D03*
X102908091Y-50274313D03*
X102908091Y-49624313D03*
X102908091Y-48974313D03*
X102908091Y-48324313D03*
X102908091Y-47674313D03*
X102908091Y-47024313D03*
X102908091Y-46374313D03*
X97183091Y-46374313D03*
X97183091Y-47024313D03*
X97183091Y-47674313D03*
X97183091Y-48324313D03*
X97183091Y-48974313D03*
X97183091Y-49624313D03*
X97183091Y-50274313D03*
X97183091Y-50924313D03*
X97183091Y-51574313D03*
X97183091Y-52224313D03*
D63*
X139827000Y-88659996D03*
X139827000Y-85659997D03*
X139827000Y-82659998D03*
X139827000Y-79659998D03*
X139827000Y-76659999D03*
X139827000Y-73660000D03*
X111359010Y-73660000D03*
X111359010Y-76659999D03*
X111359010Y-79659998D03*
X111359010Y-82659998D03*
X111359010Y-85659997D03*
X111359010Y-88659996D03*
D37*
X129032000Y-35751000D03*
X129032000Y-37401000D03*
D11*
X89047697Y-62094802D03*
X87497697Y-62094802D03*
D37*
X61366400Y-57874400D03*
X61366400Y-59524400D03*
D40*
X150622000Y-72961000D03*
X150622000Y-71311000D03*
D64*
X65037293Y-61719000D03*
X66307293Y-61719000D03*
X67577293Y-61719000D03*
X68847293Y-61719000D03*
X68847293Y-56769000D03*
X67577293Y-56769000D03*
X66307293Y-56769000D03*
X65037293Y-56769000D03*
D29*
X68812724Y-47330426D03*
X70712724Y-47330426D03*
X69762724Y-45210426D03*
D37*
X86995000Y-70866000D03*
X86995000Y-72516000D03*
D65*
X119635054Y-63922708D03*
X119635054Y-64422708D03*
X119635054Y-64922708D03*
X119635054Y-65422708D03*
X119635054Y-65922708D03*
X124035054Y-65922708D03*
X124035054Y-65422708D03*
X124035054Y-64922708D03*
X124035054Y-64422708D03*
X124035054Y-63922708D03*
D42*
X87622293Y-78851418D03*
D43*
X82172293Y-78851418D03*
X76722293Y-78851418D03*
D11*
X124244400Y-60807600D03*
X122694400Y-60807600D03*
D37*
X162342293Y-71796418D03*
X162342293Y-73446418D03*
X116281200Y-35395400D03*
X116281200Y-37045400D03*
D11*
X76053293Y-45677418D03*
X74503293Y-45677418D03*
D37*
X158750000Y-71786418D03*
X158750000Y-73436418D03*
D40*
X134747000Y-37655000D03*
X134747000Y-36005000D03*
D12*
X82270179Y-74849094D03*
X80445179Y-74849094D03*
D26*
X108610400Y-48691800D03*
D40*
X95310000Y-58254400D03*
X95310000Y-56604400D03*
D11*
X76060565Y-47426145D03*
X74510565Y-47426145D03*
D19*
X60292293Y-35517418D03*
D21*
X83566000Y-46495000D03*
X83566000Y-44945000D03*
D51*
X119192000Y-62060000D03*
X121092000Y-62060000D03*
D15*
X69989200Y-53898800D03*
X68339200Y-53898800D03*
D46*
X59944000Y-44249400D03*
X59944000Y-46124400D03*
D28*
X95186861Y-74857000D03*
X93286861Y-74857000D03*
D66*
X113838000Y-68376800D03*
X106888000Y-68376800D03*
X113838000Y-59436000D03*
X106888000Y-59436000D03*
D10*
X92717293Y-64611418D03*
X94367293Y-64611418D03*
D26*
X93294200Y-42748200D03*
X74599800Y-69189600D03*
D17*
X90681663Y-62106100D03*
X92231663Y-62106100D03*
D67*
X72523179Y-36567981D03*
X64523179Y-36567981D03*
D68*
X71273179Y-38052981D03*
D69*
X69773179Y-38052981D03*
X69273179Y-38052981D03*
X68773179Y-38052981D03*
X68273179Y-38052981D03*
X67773179Y-38052981D03*
X67273179Y-38052981D03*
D68*
X65773179Y-38052981D03*
X65773179Y-35082981D03*
D69*
X67273179Y-35082981D03*
X67773179Y-35082981D03*
X68273179Y-35082981D03*
X68773179Y-35082981D03*
X69273179Y-35082981D03*
X69773179Y-35082981D03*
D68*
X71273179Y-35082981D03*
D70*
X72523179Y-37997981D03*
X64523179Y-37997981D03*
X72523179Y-35137981D03*
X64523179Y-35137981D03*
D10*
X127636000Y-64389000D03*
X129286000Y-64389000D03*
D26*
X72009000Y-56007000D03*
D49*
X74262293Y-53919418D03*
X74262293Y-55469418D03*
D17*
X96910006Y-53810438D03*
X98460006Y-53810438D03*
D61*
X118364000Y-56847000D03*
X118364000Y-53897000D03*
D10*
X115180690Y-48400462D03*
X116830690Y-48400462D03*
D40*
X61747400Y-45986500D03*
X61747400Y-44336500D03*
X63449200Y-60540400D03*
X63449200Y-58890400D03*
D19*
X60292293Y-76551418D03*
D38*
X100076000Y-64439800D03*
D26*
X76548293Y-43518418D03*
D28*
X127649682Y-53314200D03*
X125749682Y-53314200D03*
D14*
X118059200Y-35483700D03*
X118059200Y-37058700D03*
D71*
X117974998Y-93993500D03*
D72*
X112894998Y-93993500D03*
D71*
X128524000Y-93980000D03*
D72*
X123444000Y-93980000D03*
M02*
