G04 #@! TF.GenerationSoftware,KiCad,Pcbnew,7.0.6*
G04 #@! TF.CreationDate,2024-01-26T23:20:00-08:00*
G04 #@! TF.ProjectId,POWER_BOARD,504f5745-525f-4424-9f41-52442e6b6963,rev?*
G04 #@! TF.SameCoordinates,Original*
G04 #@! TF.FileFunction,Soldermask,Bot*
G04 #@! TF.FilePolarity,Negative*
%FSLAX46Y46*%
G04 Gerber Fmt 4.6, Leading zero omitted, Abs format (unit mm)*
G04 Created by KiCad (PCBNEW 7.0.6) date 2024-01-26 23:20:00*
%MOMM*%
%LPD*%
G01*
G04 APERTURE LIST*
G04 Aperture macros list*
%AMRoundRect*
0 Rectangle with rounded corners*
0 $1 Rounding radius*
0 $2 $3 $4 $5 $6 $7 $8 $9 X,Y pos of 4 corners*
0 Add a 4 corners polygon primitive as box body*
4,1,4,$2,$3,$4,$5,$6,$7,$8,$9,$2,$3,0*
0 Add four circle primitives for the rounded corners*
1,1,$1+$1,$2,$3*
1,1,$1+$1,$4,$5*
1,1,$1+$1,$6,$7*
1,1,$1+$1,$8,$9*
0 Add four rect primitives between the rounded corners*
20,1,$1+$1,$2,$3,$4,$5,0*
20,1,$1+$1,$4,$5,$6,$7,0*
20,1,$1+$1,$6,$7,$8,$9,0*
20,1,$1+$1,$8,$9,$2,$3,0*%
G04 Aperture macros list end*
%ADD10RoundRect,0.101600X-2.000000X-2.750000X2.000000X-2.750000X2.000000X2.750000X-2.000000X2.750000X0*%
%ADD11C,5.500000*%
%ADD12C,0.852400*%
%ADD13RoundRect,0.101600X0.850000X-0.850000X0.850000X0.850000X-0.850000X0.850000X-0.850000X-0.850000X0*%
%ADD14O,1.903200X1.903200*%
%ADD15RoundRect,0.101600X1.500000X2.250000X-1.500000X2.250000X-1.500000X-2.250000X1.500000X-2.250000X0*%
%ADD16O,3.203200X4.703200*%
%ADD17RoundRect,0.102000X-0.754000X-0.754000X0.754000X-0.754000X0.754000X0.754000X-0.754000X0.754000X0*%
%ADD18C,1.712000*%
%ADD19C,0.710000*%
%ADD20O,1.804000X1.304000*%
%ADD21RoundRect,0.301600X-0.200000X-0.275000X0.200000X-0.275000X0.200000X0.275000X-0.200000X0.275000X0*%
%ADD22RoundRect,0.101600X-0.469900X-1.244600X0.469900X-1.244600X0.469900X1.244600X-0.469900X1.244600X0*%
%ADD23RoundRect,0.101600X-3.390900X-3.467100X3.390900X-3.467100X3.390900X3.467100X-3.390900X3.467100X0*%
%ADD24RoundRect,0.351600X-0.250000X-0.475000X0.250000X-0.475000X0.250000X0.475000X-0.250000X0.475000X0*%
%ADD25RoundRect,0.351600X1.000000X-1.400000X1.000000X1.400000X-1.000000X1.400000X-1.000000X-1.400000X0*%
%ADD26RoundRect,0.301600X0.275000X-0.200000X0.275000X0.200000X-0.275000X0.200000X-0.275000X-0.200000X0*%
%ADD27RoundRect,0.144000X-0.258000X0.573000X-0.258000X-0.573000X0.258000X-0.573000X0.258000X0.573000X0*%
%ADD28RoundRect,0.101600X1.000000X1.000000X-1.000000X1.000000X-1.000000X-1.000000X1.000000X-1.000000X0*%
%ADD29O,2.203200X2.203200*%
%ADD30RoundRect,0.801600X4.300000X2.800000X-4.300000X2.800000X-4.300000X-2.800000X4.300000X-2.800000X0*%
%ADD31RoundRect,0.611364X-0.591836X-1.266836X0.591836X-1.266836X0.591836X1.266836X-0.591836X1.266836X0*%
%ADD32RoundRect,0.301600X0.200000X0.275000X-0.200000X0.275000X-0.200000X-0.275000X0.200000X-0.275000X0*%
%ADD33RoundRect,0.351600X-1.000000X-0.650000X1.000000X-0.650000X1.000000X0.650000X-1.000000X0.650000X0*%
%ADD34RoundRect,0.351600X-1.000000X-0.900000X1.000000X-0.900000X1.000000X0.900000X-1.000000X0.900000X0*%
G04 APERTURE END LIST*
D10*
X161025975Y-65740018D03*
D11*
X147922293Y-85301418D03*
D12*
X81025293Y-53519418D03*
X83025293Y-53519418D03*
X82025293Y-52519418D03*
X81025293Y-51519418D03*
X83025293Y-51519418D03*
D11*
X60292293Y-50757418D03*
D13*
X80098197Y-37383780D03*
D14*
X80098197Y-34843780D03*
X82638197Y-37383780D03*
X82638197Y-34843780D03*
X85178197Y-37383780D03*
X85178197Y-34843780D03*
X87718197Y-37383780D03*
X87718197Y-34843780D03*
X90258197Y-37383780D03*
X90258197Y-34843780D03*
X92798197Y-37383780D03*
X92798197Y-34843780D03*
X95338197Y-37383780D03*
X95338197Y-34843780D03*
X97878197Y-37383780D03*
X97878197Y-34843780D03*
X100418197Y-37383780D03*
X100418197Y-34843780D03*
X102958197Y-37383780D03*
X102958197Y-34843780D03*
D10*
X36862293Y-65740018D03*
D11*
X60292293Y-85301418D03*
X147922293Y-45931418D03*
D15*
X104267000Y-78870315D03*
D16*
X98817000Y-78870315D03*
X93367000Y-78870315D03*
D17*
X135396600Y-53746400D03*
D18*
X137896600Y-53746400D03*
X140396600Y-53746400D03*
D11*
X60292293Y-67801418D03*
X147922293Y-35517418D03*
X147922293Y-63500000D03*
D15*
X87622293Y-78851418D03*
D16*
X82172293Y-78851418D03*
X76722293Y-78851418D03*
D11*
X60292293Y-35517418D03*
D19*
X72523179Y-36567981D03*
X64523179Y-36567981D03*
D20*
X72523179Y-37997981D03*
X64523179Y-37997981D03*
X72523179Y-35137981D03*
X64523179Y-35137981D03*
D11*
X60292293Y-76551418D03*
D21*
X136552650Y-65278000D03*
X138202650Y-65278000D03*
D22*
X135960749Y-75946000D03*
D23*
X138250750Y-82359500D03*
D22*
X140540751Y-75946000D03*
D24*
X120970000Y-59055000D03*
X122870000Y-59055000D03*
D25*
X102079000Y-86487000D03*
X95279000Y-86487000D03*
D26*
X132842000Y-82359000D03*
X132842000Y-80709000D03*
D27*
X136425650Y-66885000D03*
X138325650Y-66885000D03*
X137375650Y-69005000D03*
D26*
X134202650Y-68643000D03*
X134202650Y-66993000D03*
D28*
X117974998Y-93993500D03*
D29*
X112894998Y-93993500D03*
D30*
X115424998Y-77393500D03*
D31*
X119980000Y-62103000D03*
X125130000Y-62103000D03*
D32*
X141414000Y-39878000D03*
X139764000Y-39878000D03*
D33*
X127921000Y-62103000D03*
X131921000Y-62103000D03*
D34*
X136153000Y-72136000D03*
X140453000Y-72136000D03*
D32*
X141414000Y-41783000D03*
X139764000Y-41783000D03*
D26*
X132842000Y-77787000D03*
X132842000Y-76137000D03*
D25*
X85569000Y-86487000D03*
X78769000Y-86487000D03*
D28*
X128524000Y-93980000D03*
D29*
X123444000Y-93980000D03*
D30*
X125974000Y-77380000D03*
M02*
